# Tiled2Unity generated file. Do not modify by hand.
# Wavefront file for 'RCH_mesh_0011.obj'

# Vertices (Count = 88)
v -139.7333 -65.06667 0
v -140.8 -65.06667 0
v -140.8 -64 0
v -139.7333 -64 0
v -138.6667 -66.13334 0
v -139.7333 -66.13334 0
v -139.7333 -65.06667 0
v -138.6667 -65.06667 0
v -137.6 -67.2 0
v -138.6667 -67.2 0
v -138.6667 -66.13334 0
v -137.6 -66.13334 0
v -135.4667 -68.26667 0
v -136.5333 -68.26667 0
v -136.5333 -67.2 0
v -135.4667 -67.2 0
v -133.3333 -69.33334 0
v -134.4 -69.33334 0
v -134.4 -68.26667 0
v -133.3333 -68.26667 0
v -128 -69.33334 0
v -129.0667 -69.33334 0
v -129.0667 -68.26667 0
v -128 -68.26667 0
v -126.9333 -69.33334 0
v -128 -69.33334 0
v -128 -68.26667 0
v -126.9333 -68.26667 0
v -125.8667 -69.33334 0
v -126.9333 -69.33334 0
v -126.9333 -68.26667 0
v -125.8667 -68.26667 0
v -124.8 -69.33334 0
v -125.8667 -69.33334 0
v -125.8667 -68.26667 0
v -124.8 -68.26667 0
v -132.2667 -70.4 0
v -133.3333 -70.4 0
v -133.3333 -69.33334 0
v -132.2667 -69.33334 0
v -124.8 -70.4 0
v -125.8667 -70.4 0
v -125.8667 -69.33334 0
v -124.8 -69.33334 0
v -123.7333 -70.4 0
v -124.8 -70.4 0
v -124.8 -69.33334 0
v -123.7333 -69.33334 0
v -130.1333 -71.46667 0
v -131.2 -71.46667 0
v -131.2 -70.4 0
v -130.1333 -70.4 0
v -123.7333 -71.46667 0
v -124.8 -71.46667 0
v -124.8 -70.4 0
v -123.7333 -70.4 0
v -122.6667 -71.46667 0
v -123.7333 -71.46667 0
v -123.7333 -70.4 0
v -122.6667 -70.4 0
v -128 -72.53334 0
v -129.0667 -72.53334 0
v -129.0667 -71.46667 0
v -128 -71.46667 0
v -123.7333 -72.53334 0
v -124.8 -72.53334 0
v -124.8 -71.46667 0
v -123.7333 -71.46667 0
v -122.6667 -72.53334 0
v -123.7333 -72.53334 0
v -123.7333 -71.46667 0
v -122.6667 -71.46667 0
v -121.6 -72.53334 0
v -122.6667 -72.53334 0
v -122.6667 -71.46667 0
v -121.6 -71.46667 0
v -125.8667 -73.60001 0
v -126.9333 -73.60001 0
v -126.9333 -72.53334 0
v -125.8667 -72.53334 0
v -124.8 -74.66667 0
v -125.8667 -74.66667 0
v -125.8667 -73.60001 0
v -124.8 -73.60001 0
v -123.7333 -75.73334 0
v -124.8 -75.73334 0
v -124.8 -74.66667 0
v -123.7333 -74.66667 0

# Texture cooridinates (Count = 36)
vt 0.3161157 0.904943
vt 0.3326446 0.904943
vt 0.3326446 0.9353612
vt 0.3161157 0.9353612
vt 0.1931818 0.7756654
vt 0.2097107 0.7756654
vt 0.2097107 0.8060837
vt 0.1931818 0.8060837
vt 0.2283058 0.8403042
vt 0.2448347 0.8403042
vt 0.2448347 0.8707224
vt 0.2283058 0.8707224
vt 0.2107438 0.8403042
vt 0.2272727 0.8403042
vt 0.2272727 0.8707224
vt 0.2107438 0.8707224
vt 0.1931818 0.8079848
vt 0.2097107 0.8079848
vt 0.2097107 0.838403
vt 0.1931818 0.838403
vt 0.2283058 0.7756654
vt 0.2448347 0.7756654
vt 0.2448347 0.8060837
vt 0.2283058 0.8060837
vt 0.2107438 0.8079848
vt 0.2272727 0.8079848
vt 0.2272727 0.838403
vt 0.2107438 0.838403
vt 0.2107438 0.7756654
vt 0.2272727 0.7756654
vt 0.2272727 0.8060837
vt 0.2107438 0.8060837
vt 0.1931818 0.8403042
vt 0.2097107 0.8403042
vt 0.2097107 0.8707224
vt 0.1931818 0.8707224

# Normal
vn 0 0 -1

# Mesh description
g RCH_mesh_0011

# Faces
f 1/1/1 2/2/1 3/3/1 4/4/1
f 5/1/1 6/2/1 7/3/1 8/4/1
f 9/1/1 10/2/1 11/3/1 12/4/1
f 13/1/1 14/2/1 15/3/1 16/4/1
f 17/1/1 18/2/1 19/3/1 20/4/1
f 21/5/1 22/6/1 23/7/1 24/8/1
f 25/9/1 26/10/1 27/11/1 28/12/1
f 29/13/1 30/14/1 31/15/1 32/16/1
f 33/17/1 34/18/1 35/19/1 36/20/1
f 37/1/1 38/2/1 39/3/1 40/4/1
f 41/21/1 42/22/1 43/23/1 44/24/1
f 45/25/1 46/26/1 47/27/1 48/28/1
f 49/1/1 50/2/1 51/3/1 52/4/1
f 53/29/1 54/30/1 55/31/1 56/32/1
f 57/25/1 58/26/1 59/27/1 60/28/1
f 61/1/1 62/2/1 63/3/1 64/4/1
f 65/5/1 66/6/1 67/7/1 68/8/1
f 69/33/1 70/34/1 71/35/1 72/36/1
f 73/17/1 74/18/1 75/19/1 76/20/1
f 77/1/1 78/2/1 79/3/1 80/4/1
f 81/1/1 82/2/1 83/3/1 84/4/1
f 85/1/1 86/2/1 87/3/1 88/4/1

