# Tiled2Unity generated file. Do not modify by hand.
# Wavefront file for 'Physics_mesh_0010.obj'

# Vertices (Count = 56)
v -132.2667 -107.7333 0
v -133.3333 -107.7333 0
v -133.3333 -106.6667 0
v -132.2667 -106.6667 0
v -123.7333 -107.7333 0
v -124.8 -107.7333 0
v -124.8 -106.6667 0
v -123.7333 -106.6667 0
v -115.2 -107.7333 0
v -116.2667 -107.7333 0
v -116.2667 -106.6667 0
v -115.2 -106.6667 0
v -106.6667 -107.7333 0
v -107.7333 -107.7333 0
v -107.7333 -106.6667 0
v -106.6667 -106.6667 0
v -98.13334 -107.7333 0
v -99.2 -107.7333 0
v -99.2 -106.6667 0
v -98.13334 -106.6667 0
v -165.3333 -114.1333 0
v -166.4 -114.1333 0
v -166.4 -113.0667 0
v -165.3333 -113.0667 0
v -162.1333 -114.1333 0
v -163.2 -114.1333 0
v -163.2 -113.0667 0
v -162.1333 -113.0667 0
v -158.9333 -114.1333 0
v -160 -114.1333 0
v -160 -113.0667 0
v -158.9333 -113.0667 0
v -155.7333 -114.1333 0
v -156.8 -114.1333 0
v -156.8 -113.0667 0
v -155.7333 -113.0667 0
v -152.5333 -114.1333 0
v -153.6 -114.1333 0
v -153.6 -113.0667 0
v -152.5333 -113.0667 0
v -149.3333 -114.1333 0
v -150.4 -114.1333 0
v -150.4 -113.0667 0
v -149.3333 -113.0667 0
v -146.1333 -114.1333 0
v -147.2 -114.1333 0
v -147.2 -113.0667 0
v -146.1333 -113.0667 0
v -142.9333 -114.1333 0
v -144 -114.1333 0
v -144 -113.0667 0
v -142.9333 -113.0667 0
v -139.7333 -114.1333 0
v -140.8 -114.1333 0
v -140.8 -113.0667 0
v -139.7333 -113.0667 0

# Texture cooridinates (Count = 4)
vt 0.2985537 0.7110266
vt 0.3150826 0.7110266
vt 0.3150826 0.7414448
vt 0.2985537 0.7414448

# Normal
vn 0 0 -1

# Mesh description
g Physics_mesh_0010

# Faces
f 1/1/1 2/2/1 3/3/1 4/4/1
f 5/1/1 6/2/1 7/3/1 8/4/1
f 9/1/1 10/2/1 11/3/1 12/4/1
f 13/1/1 14/2/1 15/3/1 16/4/1
f 17/1/1 18/2/1 19/3/1 20/4/1
f 21/1/1 22/2/1 23/3/1 24/4/1
f 25/1/1 26/2/1 27/3/1 28/4/1
f 29/1/1 30/2/1 31/3/1 32/4/1
f 33/1/1 34/2/1 35/3/1 36/4/1
f 37/1/1 38/2/1 39/3/1 40/4/1
f 41/1/1 42/2/1 43/3/1 44/4/1
f 45/1/1 46/2/1 47/3/1 48/4/1
f 49/1/1 50/2/1 51/3/1 52/4/1
f 53/1/1 54/2/1 55/3/1 56/4/1

