# Tiled2Unity generated file. Do not modify by hand.
# Wavefront file for 'Physics_mesh_0002.obj'

# Vertices (Count = 200)
v -92.8 -109.8667 0
v -93.86667 -109.8667 0
v -93.86667 -108.8 0
v -92.8 -108.8 0
v -91.73334 -109.8667 0
v -92.8 -109.8667 0
v -92.8 -108.8 0
v -91.73334 -108.8 0
v -90.66667 -109.8667 0
v -91.73334 -109.8667 0
v -91.73334 -108.8 0
v -90.66667 -108.8 0
v -92.8 -110.9333 0
v -93.86667 -110.9333 0
v -93.86667 -109.8667 0
v -92.8 -109.8667 0
v -91.73334 -110.9333 0
v -92.8 -110.9333 0
v -92.8 -109.8667 0
v -91.73334 -109.8667 0
v -90.66667 -110.9333 0
v -91.73334 -110.9333 0
v -91.73334 -109.8667 0
v -90.66667 -109.8667 0
v -92.8 -112 0
v -93.86667 -112 0
v -93.86667 -110.9333 0
v -92.8 -110.9333 0
v -91.73334 -112 0
v -92.8 -112 0
v -92.8 -110.9333 0
v -91.73334 -110.9333 0
v -90.66667 -112 0
v -91.73334 -112 0
v -91.73334 -110.9333 0
v -90.66667 -110.9333 0
v -92.8 -113.0667 0
v -93.86667 -113.0667 0
v -93.86667 -112 0
v -92.8 -112 0
v -91.73334 -113.0667 0
v -92.8 -113.0667 0
v -92.8 -112 0
v -91.73334 -112 0
v -90.66667 -113.0667 0
v -91.73334 -113.0667 0
v -91.73334 -112 0
v -90.66667 -112 0
v -92.8 -114.1333 0
v -93.86667 -114.1333 0
v -93.86667 -113.0667 0
v -92.8 -113.0667 0
v -91.73334 -114.1333 0
v -92.8 -114.1333 0
v -92.8 -113.0667 0
v -91.73334 -113.0667 0
v -90.66667 -114.1333 0
v -91.73334 -114.1333 0
v -91.73334 -113.0667 0
v -90.66667 -113.0667 0
v -110.9333 -115.2 0
v -112 -115.2 0
v -112 -114.1333 0
v -110.9333 -114.1333 0
v -109.8667 -115.2 0
v -110.9333 -115.2 0
v -110.9333 -114.1333 0
v -109.8667 -114.1333 0
v -108.8 -115.2 0
v -109.8667 -115.2 0
v -109.8667 -114.1333 0
v -108.8 -114.1333 0
v -107.7333 -115.2 0
v -108.8 -115.2 0
v -108.8 -114.1333 0
v -107.7333 -114.1333 0
v -106.6667 -115.2 0
v -107.7333 -115.2 0
v -107.7333 -114.1333 0
v -106.6667 -114.1333 0
v -167.4667 -116.2667 0
v -168.5333 -116.2667 0
v -168.5333 -115.2 0
v -167.4667 -115.2 0
v -166.4 -116.2667 0
v -167.4667 -116.2667 0
v -167.4667 -115.2 0
v -166.4 -115.2 0
v -165.3333 -116.2667 0
v -166.4 -116.2667 0
v -166.4 -115.2 0
v -165.3333 -115.2 0
v -110.9333 -116.2667 0
v -112 -116.2667 0
v -112 -115.2 0
v -110.9333 -115.2 0
v -109.8667 -116.2667 0
v -110.9333 -116.2667 0
v -110.9333 -115.2 0
v -109.8667 -115.2 0
v -108.8 -116.2667 0
v -109.8667 -116.2667 0
v -109.8667 -115.2 0
v -108.8 -115.2 0
v -107.7333 -116.2667 0
v -108.8 -116.2667 0
v -108.8 -115.2 0
v -107.7333 -115.2 0
v -106.6667 -116.2667 0
v -107.7333 -116.2667 0
v -107.7333 -115.2 0
v -106.6667 -115.2 0
v -167.4667 -117.3333 0
v -168.5333 -117.3333 0
v -168.5333 -116.2667 0
v -167.4667 -116.2667 0
v -166.4 -117.3333 0
v -167.4667 -117.3333 0
v -167.4667 -116.2667 0
v -166.4 -116.2667 0
v -165.3333 -117.3333 0
v -166.4 -117.3333 0
v -166.4 -116.2667 0
v -165.3333 -116.2667 0
v -110.9333 -117.3333 0
v -112 -117.3333 0
v -112 -116.2667 0
v -110.9333 -116.2667 0
v -109.8667 -117.3333 0
v -110.9333 -117.3333 0
v -110.9333 -116.2667 0
v -109.8667 -116.2667 0
v -108.8 -117.3333 0
v -109.8667 -117.3333 0
v -109.8667 -116.2667 0
v -108.8 -116.2667 0
v -107.7333 -117.3333 0
v -108.8 -117.3333 0
v -108.8 -116.2667 0
v -107.7333 -116.2667 0
v -106.6667 -117.3333 0
v -107.7333 -117.3333 0
v -107.7333 -116.2667 0
v -106.6667 -116.2667 0
v -167.4667 -118.4 0
v -168.5333 -118.4 0
v -168.5333 -117.3333 0
v -167.4667 -117.3333 0
v -166.4 -118.4 0
v -167.4667 -118.4 0
v -167.4667 -117.3333 0
v -166.4 -117.3333 0
v -165.3333 -118.4 0
v -166.4 -118.4 0
v -166.4 -117.3333 0
v -165.3333 -117.3333 0
v -110.9333 -118.4 0
v -112 -118.4 0
v -112 -117.3333 0
v -110.9333 -117.3333 0
v -109.8667 -118.4 0
v -110.9333 -118.4 0
v -110.9333 -117.3333 0
v -109.8667 -117.3333 0
v -108.8 -118.4 0
v -109.8667 -118.4 0
v -109.8667 -117.3333 0
v -108.8 -117.3333 0
v -107.7333 -118.4 0
v -108.8 -118.4 0
v -108.8 -117.3333 0
v -107.7333 -117.3333 0
v -106.6667 -118.4 0
v -107.7333 -118.4 0
v -107.7333 -117.3333 0
v -106.6667 -117.3333 0
v -167.4667 -119.4667 0
v -168.5333 -119.4667 0
v -168.5333 -118.4 0
v -167.4667 -118.4 0
v -166.4 -119.4667 0
v -167.4667 -119.4667 0
v -167.4667 -118.4 0
v -166.4 -118.4 0
v -165.3333 -119.4667 0
v -166.4 -119.4667 0
v -166.4 -118.4 0
v -165.3333 -118.4 0
v -167.4667 -120.5333 0
v -168.5333 -120.5333 0
v -168.5333 -119.4667 0
v -167.4667 -119.4667 0
v -166.4 -120.5333 0
v -167.4667 -120.5333 0
v -167.4667 -119.4667 0
v -166.4 -119.4667 0
v -165.3333 -120.5333 0
v -166.4 -120.5333 0
v -166.4 -119.4667 0
v -165.3333 -119.4667 0

# Texture cooridinates (Count = 36)
vt 0.2107438 0.3555133
vt 0.2272727 0.3555133
vt 0.2272727 0.3859316
vt 0.2107438 0.3859316
vt 0.1931818 0.3555133
vt 0.2097107 0.3555133
vt 0.2097107 0.3859316
vt 0.1931818 0.3859316
vt 0.1756198 0.3555133
vt 0.1921488 0.3555133
vt 0.1921488 0.3859316
vt 0.1756198 0.3859316
vt 0.2107438 0.3231939
vt 0.2272727 0.3231939
vt 0.2272727 0.3536122
vt 0.2107438 0.3536122
vt 0.1931818 0.3231939
vt 0.2097107 0.3231939
vt 0.2097107 0.3536122
vt 0.1931818 0.3536122
vt 0.1756198 0.3231939
vt 0.1921488 0.3231939
vt 0.1921488 0.3536122
vt 0.1756198 0.3536122
vt 0.2107438 0.2908745
vt 0.2272727 0.2908745
vt 0.2272727 0.3212928
vt 0.2107438 0.3212928
vt 0.1931818 0.2908745
vt 0.2097107 0.2908745
vt 0.2097107 0.3212928
vt 0.1931818 0.3212928
vt 0.1756198 0.2908745
vt 0.1921488 0.2908745
vt 0.1921488 0.3212928
vt 0.1756198 0.3212928

# Normal
vn 0 0 -1

# Mesh description
g Physics_mesh_0002

# Faces
f 1/1/1 2/2/1 3/3/1 4/4/1
f 5/5/1 6/6/1 7/7/1 8/8/1
f 9/9/1 10/10/1 11/11/1 12/12/1
f 13/13/1 14/14/1 15/15/1 16/16/1
f 17/17/1 18/18/1 19/19/1 20/20/1
f 21/21/1 22/22/1 23/23/1 24/24/1
f 25/13/1 26/14/1 27/15/1 28/16/1
f 29/17/1 30/18/1 31/19/1 32/20/1
f 33/21/1 34/22/1 35/23/1 36/24/1
f 37/13/1 38/14/1 39/15/1 40/16/1
f 41/17/1 42/18/1 43/19/1 44/20/1
f 45/21/1 46/22/1 47/23/1 48/24/1
f 49/25/1 50/26/1 51/27/1 52/28/1
f 53/29/1 54/30/1 55/31/1 56/32/1
f 57/33/1 58/34/1 59/35/1 60/36/1
f 61/1/1 62/2/1 63/3/1 64/4/1
f 65/5/1 66/6/1 67/7/1 68/8/1
f 69/5/1 70/6/1 71/7/1 72/8/1
f 73/5/1 74/6/1 75/7/1 76/8/1
f 77/9/1 78/10/1 79/11/1 80/12/1
f 81/1/1 82/2/1 83/3/1 84/4/1
f 85/5/1 86/6/1 87/7/1 88/8/1
f 89/9/1 90/10/1 91/11/1 92/12/1
f 93/13/1 94/14/1 95/15/1 96/16/1
f 97/17/1 98/18/1 99/19/1 100/20/1
f 101/17/1 102/18/1 103/19/1 104/20/1
f 105/17/1 106/18/1 107/19/1 108/20/1
f 109/21/1 110/22/1 111/23/1 112/24/1
f 113/13/1 114/14/1 115/15/1 116/16/1
f 117/17/1 118/18/1 119/19/1 120/20/1
f 121/21/1 122/22/1 123/23/1 124/24/1
f 125/13/1 126/14/1 127/15/1 128/16/1
f 129/17/1 130/18/1 131/19/1 132/20/1
f 133/17/1 134/18/1 135/19/1 136/20/1
f 137/17/1 138/18/1 139/19/1 140/20/1
f 141/21/1 142/22/1 143/23/1 144/24/1
f 145/13/1 146/14/1 147/15/1 148/16/1
f 149/17/1 150/18/1 151/19/1 152/20/1
f 153/21/1 154/22/1 155/23/1 156/24/1
f 157/25/1 158/26/1 159/27/1 160/28/1
f 161/29/1 162/30/1 163/31/1 164/32/1
f 165/29/1 166/30/1 167/31/1 168/32/1
f 169/29/1 170/30/1 171/31/1 172/32/1
f 173/33/1 174/34/1 175/35/1 176/36/1
f 177/13/1 178/14/1 179/15/1 180/16/1
f 181/17/1 182/18/1 183/19/1 184/20/1
f 185/21/1 186/22/1 187/23/1 188/24/1
f 189/25/1 190/26/1 191/27/1 192/28/1
f 193/29/1 194/30/1 195/31/1 196/32/1
f 197/33/1 198/34/1 199/35/1 200/36/1

