# Tiled2Unity generated file. Do not modify by hand.
# Wavefront file for 'Physics_mesh_0008.obj'

# Vertices (Count = 76)
v -115.2 -100.2667 0
v -116.2667 -100.2667 0
v -116.2667 -99.2 0
v -115.2 -99.2 0
v -115.2 -101.3333 0
v -116.2667 -101.3333 0
v -116.2667 -100.2667 0
v -115.2 -100.2667 0
v -115.2 -102.4 0
v -116.2667 -102.4 0
v -116.2667 -101.3333 0
v -115.2 -101.3333 0
v -115.2 -103.4667 0
v -116.2667 -103.4667 0
v -116.2667 -102.4 0
v -115.2 -102.4 0
v -115.2 -104.5333 0
v -116.2667 -104.5333 0
v -116.2667 -103.4667 0
v -115.2 -103.4667 0
v -138.6667 -108.8 0
v -139.7333 -108.8 0
v -139.7333 -107.7333 0
v -138.6667 -107.7333 0
v -137.6 -108.8 0
v -138.6667 -108.8 0
v -138.6667 -107.7333 0
v -137.6 -107.7333 0
v -136.5333 -108.8 0
v -137.6 -108.8 0
v -137.6 -107.7333 0
v -136.5333 -107.7333 0
v -135.4667 -108.8 0
v -136.5333 -108.8 0
v -136.5333 -107.7333 0
v -135.4667 -107.7333 0
v -134.4 -108.8 0
v -135.4667 -108.8 0
v -135.4667 -107.7333 0
v -134.4 -107.7333 0
v -133.3333 -108.8 0
v -134.4 -108.8 0
v -134.4 -107.7333 0
v -133.3333 -107.7333 0
v -110.9333 -115.2 0
v -112 -115.2 0
v -112 -114.1333 0
v -110.9333 -114.1333 0
v -106.6667 -115.2 0
v -107.7333 -115.2 0
v -107.7333 -114.1333 0
v -106.6667 -114.1333 0
v -110.9333 -116.2667 0
v -112 -116.2667 0
v -112 -115.2 0
v -110.9333 -115.2 0
v -106.6667 -116.2667 0
v -107.7333 -116.2667 0
v -107.7333 -115.2 0
v -106.6667 -115.2 0
v -110.9333 -117.3333 0
v -112 -117.3333 0
v -112 -116.2667 0
v -110.9333 -116.2667 0
v -106.6667 -117.3333 0
v -107.7333 -117.3333 0
v -107.7333 -116.2667 0
v -106.6667 -116.2667 0
v -110.9333 -118.4 0
v -112 -118.4 0
v -112 -117.3333 0
v -110.9333 -117.3333 0
v -106.6667 -118.4 0
v -107.7333 -118.4 0
v -107.7333 -117.3333 0
v -106.6667 -117.3333 0

# Texture cooridinates (Count = 44)
vt 0.1859956 0.947541
vt 0.2210066 0.947541
vt 0.2210066 1
vt 0.1859956 1
vt 0.1859956 0.8918033
vt 0.2210066 0.8918033
vt 0.2210066 0.9442623
vt 0.1859956 0.9442623
vt 0.07439825 0.8918033
vt 0.1094092 0.8918033
vt 0.1094092 0.9442623
vt 0.07439825 0.9442623
vt 0.03719912 0.8918033
vt 0.07221007 0.8918033
vt 0.07221007 0.9442623
vt 0.03719912 0.9442623
vt 0 0.8918033
vt 0.03501094 0.8918033
vt 0.03501094 0.9442623
vt 0 0.9442623
vt 0.892779 0.3344262
vt 0.9277899 0.3344262
vt 0.9277899 0.3868852
vt 0.892779 0.3868852
vt 0.8555799 0.3344262
vt 0.8905908 0.3344262
vt 0.8905908 0.3868852
vt 0.8555799 0.3868852
vt 0.892779 0.2786885
vt 0.9277899 0.2786885
vt 0.9277899 0.3311476
vt 0.892779 0.3311476
vt 0.8555799 0.2786885
vt 0.8905908 0.2786885
vt 0.8905908 0.3311476
vt 0.8555799 0.3311476
vt 0.892779 0.2229508
vt 0.9277899 0.2229508
vt 0.9277899 0.2754098
vt 0.892779 0.2754098
vt 0.8555799 0.2229508
vt 0.8905908 0.2229508
vt 0.8905908 0.2754098
vt 0.8555799 0.2754098

# Normal
vn 0 0 -1

# Mesh description
g Physics_mesh_0008

# Faces
f 1/1/1 2/2/1 3/3/1 4/4/1
f 5/5/1 6/6/1 7/7/1 8/8/1
f 9/5/1 10/6/1 11/7/1 12/8/1
f 13/5/1 14/6/1 15/7/1 16/8/1
f 17/5/1 18/6/1 19/7/1 20/8/1
f 21/9/1 22/10/1 23/11/1 24/12/1
f 25/13/1 26/14/1 27/15/1 28/16/1
f 29/13/1 30/14/1 31/15/1 32/16/1
f 33/13/1 34/14/1 35/15/1 36/16/1
f 37/13/1 38/14/1 39/15/1 40/16/1
f 41/17/1 42/18/1 43/19/1 44/20/1
f 45/21/1 46/22/1 47/23/1 48/24/1
f 49/25/1 50/26/1 51/27/1 52/28/1
f 53/29/1 54/30/1 55/31/1 56/32/1
f 57/33/1 58/34/1 59/35/1 60/36/1
f 61/29/1 62/30/1 63/31/1 64/32/1
f 65/33/1 66/34/1 67/35/1 68/36/1
f 69/37/1 70/38/1 71/39/1 72/40/1
f 73/41/1 74/42/1 75/43/1 76/44/1

