# Tiled2Unity generated file. Do not modify by hand.
# Wavefront file for 'TFTV-Floor2_mesh_0011.obj'

# Vertices (Count = 352)
v -124.8 -92.8 0
v -125.8667 -92.8 0
v -125.8667 -91.73334 0
v -124.8 -91.73334 0
v -120.5333 -92.8 0
v -121.6 -92.8 0
v -121.6 -91.73334 0
v -120.5333 -91.73334 0
v -104.5333 -92.8 0
v -105.6 -92.8 0
v -105.6 -91.73334 0
v -104.5333 -91.73334 0
v -100.2667 -92.8 0
v -101.3333 -92.8 0
v -101.3333 -91.73334 0
v -100.2667 -91.73334 0
v -124.8 -97.06667 0
v -125.8667 -97.06667 0
v -125.8667 -96.00001 0
v -124.8 -96.00001 0
v -120.5333 -97.06667 0
v -121.6 -97.06667 0
v -121.6 -96.00001 0
v -120.5333 -96.00001 0
v -104.5333 -97.06667 0
v -105.6 -97.06667 0
v -105.6 -96.00001 0
v -104.5333 -96.00001 0
v -100.2667 -97.06667 0
v -101.3333 -97.06667 0
v -101.3333 -96.00001 0
v -100.2667 -96.00001 0
v -120.5333 -99.2 0
v -121.6 -99.2 0
v -121.6 -98.13334 0
v -120.5333 -98.13334 0
v -119.4667 -99.2 0
v -120.5333 -99.2 0
v -120.5333 -98.13334 0
v -119.4667 -98.13334 0
v -118.4 -99.2 0
v -119.4667 -99.2 0
v -119.4667 -98.13334 0
v -118.4 -98.13334 0
v -117.3333 -99.2 0
v -118.4 -99.2 0
v -118.4 -98.13334 0
v -117.3333 -98.13334 0
v -116.2667 -99.2 0
v -117.3333 -99.2 0
v -117.3333 -98.13334 0
v -116.2667 -98.13334 0
v -115.2 -99.2 0
v -116.2667 -99.2 0
v -116.2667 -98.13334 0
v -115.2 -98.13334 0
v -114.1333 -99.2 0
v -115.2 -99.2 0
v -115.2 -98.13334 0
v -114.1333 -98.13334 0
v -113.0667 -99.2 0
v -114.1333 -99.2 0
v -114.1333 -98.13334 0
v -113.0667 -98.13334 0
v -112 -99.2 0
v -113.0667 -99.2 0
v -113.0667 -98.13334 0
v -112 -98.13334 0
v -110.9333 -99.2 0
v -112 -99.2 0
v -112 -98.13334 0
v -110.9333 -98.13334 0
v -109.8667 -99.2 0
v -110.9333 -99.2 0
v -110.9333 -98.13334 0
v -109.8667 -98.13334 0
v -108.8 -99.2 0
v -109.8667 -99.2 0
v -109.8667 -98.13334 0
v -108.8 -98.13334 0
v -107.7333 -99.2 0
v -108.8 -99.2 0
v -108.8 -98.13334 0
v -107.7333 -98.13334 0
v -106.6667 -99.2 0
v -107.7333 -99.2 0
v -107.7333 -98.13334 0
v -106.6667 -98.13334 0
v -105.6 -99.2 0
v -106.6667 -99.2 0
v -106.6667 -98.13334 0
v -105.6 -98.13334 0
v -104.5333 -99.2 0
v -105.6 -99.2 0
v -105.6 -98.13334 0
v -104.5333 -98.13334 0
v -120.5333 -102.4 0
v -121.6 -102.4 0
v -121.6 -101.3333 0
v -120.5333 -101.3333 0
v -119.4667 -102.4 0
v -120.5333 -102.4 0
v -120.5333 -101.3333 0
v -119.4667 -101.3333 0
v -118.4 -102.4 0
v -119.4667 -102.4 0
v -119.4667 -101.3333 0
v -118.4 -101.3333 0
v -117.3333 -102.4 0
v -118.4 -102.4 0
v -118.4 -101.3333 0
v -117.3333 -101.3333 0
v -116.2667 -102.4 0
v -117.3333 -102.4 0
v -117.3333 -101.3333 0
v -116.2667 -101.3333 0
v -115.2 -102.4 0
v -116.2667 -102.4 0
v -116.2667 -101.3333 0
v -115.2 -101.3333 0
v -114.1333 -102.4 0
v -115.2 -102.4 0
v -115.2 -101.3333 0
v -114.1333 -101.3333 0
v -113.0667 -102.4 0
v -114.1333 -102.4 0
v -114.1333 -101.3333 0
v -113.0667 -101.3333 0
v -112 -102.4 0
v -113.0667 -102.4 0
v -113.0667 -101.3333 0
v -112 -101.3333 0
v -110.9333 -102.4 0
v -112 -102.4 0
v -112 -101.3333 0
v -110.9333 -101.3333 0
v -109.8667 -102.4 0
v -110.9333 -102.4 0
v -110.9333 -101.3333 0
v -109.8667 -101.3333 0
v -108.8 -102.4 0
v -109.8667 -102.4 0
v -109.8667 -101.3333 0
v -108.8 -101.3333 0
v -107.7333 -102.4 0
v -108.8 -102.4 0
v -108.8 -101.3333 0
v -107.7333 -101.3333 0
v -106.6667 -102.4 0
v -107.7333 -102.4 0
v -107.7333 -101.3333 0
v -106.6667 -101.3333 0
v -105.6 -102.4 0
v -106.6667 -102.4 0
v -106.6667 -101.3333 0
v -105.6 -101.3333 0
v -104.5333 -102.4 0
v -105.6 -102.4 0
v -105.6 -101.3333 0
v -104.5333 -101.3333 0
v -120.5333 -105.6 0
v -121.6 -105.6 0
v -121.6 -104.5333 0
v -120.5333 -104.5333 0
v -119.4667 -105.6 0
v -120.5333 -105.6 0
v -120.5333 -104.5333 0
v -119.4667 -104.5333 0
v -118.4 -105.6 0
v -119.4667 -105.6 0
v -119.4667 -104.5333 0
v -118.4 -104.5333 0
v -117.3333 -105.6 0
v -118.4 -105.6 0
v -118.4 -104.5333 0
v -117.3333 -104.5333 0
v -116.2667 -105.6 0
v -117.3333 -105.6 0
v -117.3333 -104.5333 0
v -116.2667 -104.5333 0
v -115.2 -105.6 0
v -116.2667 -105.6 0
v -116.2667 -104.5333 0
v -115.2 -104.5333 0
v -114.1333 -105.6 0
v -115.2 -105.6 0
v -115.2 -104.5333 0
v -114.1333 -104.5333 0
v -113.0667 -105.6 0
v -114.1333 -105.6 0
v -114.1333 -104.5333 0
v -113.0667 -104.5333 0
v -112 -105.6 0
v -113.0667 -105.6 0
v -113.0667 -104.5333 0
v -112 -104.5333 0
v -110.9333 -105.6 0
v -112 -105.6 0
v -112 -104.5333 0
v -110.9333 -104.5333 0
v -109.8667 -105.6 0
v -110.9333 -105.6 0
v -110.9333 -104.5333 0
v -109.8667 -104.5333 0
v -108.8 -105.6 0
v -109.8667 -105.6 0
v -109.8667 -104.5333 0
v -108.8 -104.5333 0
v -107.7333 -105.6 0
v -108.8 -105.6 0
v -108.8 -104.5333 0
v -107.7333 -104.5333 0
v -106.6667 -105.6 0
v -107.7333 -105.6 0
v -107.7333 -104.5333 0
v -106.6667 -104.5333 0
v -105.6 -105.6 0
v -106.6667 -105.6 0
v -106.6667 -104.5333 0
v -105.6 -104.5333 0
v -104.5333 -105.6 0
v -105.6 -105.6 0
v -105.6 -104.5333 0
v -104.5333 -104.5333 0
v -120.5333 -108.8 0
v -121.6 -108.8 0
v -121.6 -107.7333 0
v -120.5333 -107.7333 0
v -119.4667 -108.8 0
v -120.5333 -108.8 0
v -120.5333 -107.7333 0
v -119.4667 -107.7333 0
v -118.4 -108.8 0
v -119.4667 -108.8 0
v -119.4667 -107.7333 0
v -118.4 -107.7333 0
v -117.3333 -108.8 0
v -118.4 -108.8 0
v -118.4 -107.7333 0
v -117.3333 -107.7333 0
v -116.2667 -108.8 0
v -117.3333 -108.8 0
v -117.3333 -107.7333 0
v -116.2667 -107.7333 0
v -115.2 -108.8 0
v -116.2667 -108.8 0
v -116.2667 -107.7333 0
v -115.2 -107.7333 0
v -114.1333 -108.8 0
v -115.2 -108.8 0
v -115.2 -107.7333 0
v -114.1333 -107.7333 0
v -113.0667 -108.8 0
v -114.1333 -108.8 0
v -114.1333 -107.7333 0
v -113.0667 -107.7333 0
v -112 -108.8 0
v -113.0667 -108.8 0
v -113.0667 -107.7333 0
v -112 -107.7333 0
v -110.9333 -108.8 0
v -112 -108.8 0
v -112 -107.7333 0
v -110.9333 -107.7333 0
v -109.8667 -108.8 0
v -110.9333 -108.8 0
v -110.9333 -107.7333 0
v -109.8667 -107.7333 0
v -108.8 -108.8 0
v -109.8667 -108.8 0
v -109.8667 -107.7333 0
v -108.8 -107.7333 0
v -107.7333 -108.8 0
v -108.8 -108.8 0
v -108.8 -107.7333 0
v -107.7333 -107.7333 0
v -106.6667 -108.8 0
v -107.7333 -108.8 0
v -107.7333 -107.7333 0
v -106.6667 -107.7333 0
v -105.6 -108.8 0
v -106.6667 -108.8 0
v -106.6667 -107.7333 0
v -105.6 -107.7333 0
v -104.5333 -108.8 0
v -105.6 -108.8 0
v -105.6 -107.7333 0
v -104.5333 -107.7333 0
v -120.5333 -112 0
v -121.6 -112 0
v -121.6 -110.9333 0
v -120.5333 -110.9333 0
v -119.4667 -112 0
v -120.5333 -112 0
v -120.5333 -110.9333 0
v -119.4667 -110.9333 0
v -118.4 -112 0
v -119.4667 -112 0
v -119.4667 -110.9333 0
v -118.4 -110.9333 0
v -117.3333 -112 0
v -118.4 -112 0
v -118.4 -110.9333 0
v -117.3333 -110.9333 0
v -116.2667 -112 0
v -117.3333 -112 0
v -117.3333 -110.9333 0
v -116.2667 -110.9333 0
v -115.2 -112 0
v -116.2667 -112 0
v -116.2667 -110.9333 0
v -115.2 -110.9333 0
v -114.1333 -112 0
v -115.2 -112 0
v -115.2 -110.9333 0
v -114.1333 -110.9333 0
v -113.0667 -112 0
v -114.1333 -112 0
v -114.1333 -110.9333 0
v -113.0667 -110.9333 0
v -112 -112 0
v -113.0667 -112 0
v -113.0667 -110.9333 0
v -112 -110.9333 0
v -110.9333 -112 0
v -112 -112 0
v -112 -110.9333 0
v -110.9333 -110.9333 0
v -109.8667 -112 0
v -110.9333 -112 0
v -110.9333 -110.9333 0
v -109.8667 -110.9333 0
v -108.8 -112 0
v -109.8667 -112 0
v -109.8667 -110.9333 0
v -108.8 -110.9333 0
v -107.7333 -112 0
v -108.8 -112 0
v -108.8 -110.9333 0
v -107.7333 -110.9333 0
v -106.6667 -112 0
v -107.7333 -112 0
v -107.7333 -110.9333 0
v -106.6667 -110.9333 0
v -105.6 -112 0
v -106.6667 -112 0
v -106.6667 -110.9333 0
v -105.6 -110.9333 0
v -104.5333 -112 0
v -105.6 -112 0
v -105.6 -110.9333 0
v -104.5333 -110.9333 0

# Texture cooridinates (Count = 16)
vt 0.6146694 0.3231939
vt 0.6311983 0.3231939
vt 0.6311983 0.3536122
vt 0.6146694 0.3536122
vt 0.4741735 0.7756654
vt 0.4907025 0.7756654
vt 0.4907025 0.8060837
vt 0.4741735 0.8060837
vt 0.4741735 0.8403042
vt 0.4907025 0.8403042
vt 0.4907025 0.8707224
vt 0.4741735 0.8707224
vt 0.4566116 0.8403042
vt 0.4731405 0.8403042
vt 0.4731405 0.8707224
vt 0.4566116 0.8707224

# Normal
vn 0 0 -1

# Mesh description
g TFTV-Floor2_mesh_0011

# Faces
f 1/1/1 2/2/1 3/3/1 4/4/1
f 5/1/1 6/2/1 7/3/1 8/4/1
f 9/1/1 10/2/1 11/3/1 12/4/1
f 13/1/1 14/2/1 15/3/1 16/4/1
f 17/1/1 18/2/1 19/3/1 20/4/1
f 21/1/1 22/2/1 23/3/1 24/4/1
f 25/1/1 26/2/1 27/3/1 28/4/1
f 29/1/1 30/2/1 31/3/1 32/4/1
f 33/5/1 34/6/1 35/7/1 36/8/1
f 37/9/1 38/10/1 39/11/1 40/12/1
f 41/9/1 42/10/1 43/11/1 44/12/1
f 45/9/1 46/10/1 47/11/1 48/12/1
f 49/9/1 50/10/1 51/11/1 52/12/1
f 53/9/1 54/10/1 55/11/1 56/12/1
f 57/9/1 58/10/1 59/11/1 60/12/1
f 61/9/1 62/10/1 63/11/1 64/12/1
f 65/9/1 66/10/1 67/11/1 68/12/1
f 69/9/1 70/10/1 71/11/1 72/12/1
f 73/9/1 74/10/1 75/11/1 76/12/1
f 77/9/1 78/10/1 79/11/1 80/12/1
f 81/9/1 82/10/1 83/11/1 84/12/1
f 85/9/1 86/10/1 87/11/1 88/12/1
f 89/9/1 90/10/1 91/11/1 92/12/1
f 93/13/1 94/14/1 95/15/1 96/16/1
f 97/5/1 98/6/1 99/7/1 100/8/1
f 101/9/1 102/10/1 103/11/1 104/12/1
f 105/9/1 106/10/1 107/11/1 108/12/1
f 109/9/1 110/10/1 111/11/1 112/12/1
f 113/9/1 114/10/1 115/11/1 116/12/1
f 117/9/1 118/10/1 119/11/1 120/12/1
f 121/9/1 122/10/1 123/11/1 124/12/1
f 125/9/1 126/10/1 127/11/1 128/12/1
f 129/9/1 130/10/1 131/11/1 132/12/1
f 133/9/1 134/10/1 135/11/1 136/12/1
f 137/9/1 138/10/1 139/11/1 140/12/1
f 141/9/1 142/10/1 143/11/1 144/12/1
f 145/9/1 146/10/1 147/11/1 148/12/1
f 149/9/1 150/10/1 151/11/1 152/12/1
f 153/9/1 154/10/1 155/11/1 156/12/1
f 157/13/1 158/14/1 159/15/1 160/16/1
f 161/5/1 162/6/1 163/7/1 164/8/1
f 165/9/1 166/10/1 167/11/1 168/12/1
f 169/9/1 170/10/1 171/11/1 172/12/1
f 173/9/1 174/10/1 175/11/1 176/12/1
f 177/9/1 178/10/1 179/11/1 180/12/1
f 181/9/1 182/10/1 183/11/1 184/12/1
f 185/9/1 186/10/1 187/11/1 188/12/1
f 189/9/1 190/10/1 191/11/1 192/12/1
f 193/9/1 194/10/1 195/11/1 196/12/1
f 197/9/1 198/10/1 199/11/1 200/12/1
f 201/9/1 202/10/1 203/11/1 204/12/1
f 205/9/1 206/10/1 207/11/1 208/12/1
f 209/9/1 210/10/1 211/11/1 212/12/1
f 213/9/1 214/10/1 215/11/1 216/12/1
f 217/9/1 218/10/1 219/11/1 220/12/1
f 221/13/1 222/14/1 223/15/1 224/16/1
f 225/5/1 226/6/1 227/7/1 228/8/1
f 229/9/1 230/10/1 231/11/1 232/12/1
f 233/9/1 234/10/1 235/11/1 236/12/1
f 237/9/1 238/10/1 239/11/1 240/12/1
f 241/9/1 242/10/1 243/11/1 244/12/1
f 245/9/1 246/10/1 247/11/1 248/12/1
f 249/9/1 250/10/1 251/11/1 252/12/1
f 253/9/1 254/10/1 255/11/1 256/12/1
f 257/9/1 258/10/1 259/11/1 260/12/1
f 261/9/1 262/10/1 263/11/1 264/12/1
f 265/9/1 266/10/1 267/11/1 268/12/1
f 269/9/1 270/10/1 271/11/1 272/12/1
f 273/9/1 274/10/1 275/11/1 276/12/1
f 277/9/1 278/10/1 279/11/1 280/12/1
f 281/9/1 282/10/1 283/11/1 284/12/1
f 285/13/1 286/14/1 287/15/1 288/16/1
f 289/5/1 290/6/1 291/7/1 292/8/1
f 293/9/1 294/10/1 295/11/1 296/12/1
f 297/9/1 298/10/1 299/11/1 300/12/1
f 301/9/1 302/10/1 303/11/1 304/12/1
f 305/9/1 306/10/1 307/11/1 308/12/1
f 309/9/1 310/10/1 311/11/1 312/12/1
f 313/9/1 314/10/1 315/11/1 316/12/1
f 317/9/1 318/10/1 319/11/1 320/12/1
f 321/9/1 322/10/1 323/11/1 324/12/1
f 325/9/1 326/10/1 327/11/1 328/12/1
f 329/9/1 330/10/1 331/11/1 332/12/1
f 333/9/1 334/10/1 335/11/1 336/12/1
f 337/9/1 338/10/1 339/11/1 340/12/1
f 341/9/1 342/10/1 343/11/1 344/12/1
f 345/9/1 346/10/1 347/11/1 348/12/1
f 349/13/1 350/14/1 351/15/1 352/16/1

