# Tiled2Unity generated file. Do not modify by hand.
# Wavefront file for 'Library_mesh_0008.obj'

# Vertices (Count = 168)
v -129.0667 -93.86667 0
v -130.1333 -93.86667 0
v -130.1333 -92.8 0
v -129.0667 -92.8 0
v -128 -93.86667 0
v -129.0667 -93.86667 0
v -129.0667 -92.8 0
v -128 -92.8 0
v -126.9333 -93.86667 0
v -128 -93.86667 0
v -128 -92.8 0
v -126.9333 -92.8 0
v -125.8667 -93.86667 0
v -126.9333 -93.86667 0
v -126.9333 -92.8 0
v -125.8667 -92.8 0
v -124.8 -93.86667 0
v -125.8667 -93.86667 0
v -125.8667 -92.8 0
v -124.8 -92.8 0
v -123.7333 -93.86667 0
v -124.8 -93.86667 0
v -124.8 -92.8 0
v -123.7333 -92.8 0
v -122.6667 -93.86667 0
v -123.7333 -93.86667 0
v -123.7333 -92.8 0
v -122.6667 -92.8 0
v -129.0667 -115.2 0
v -130.1333 -115.2 0
v -130.1333 -114.1333 0
v -129.0667 -114.1333 0
v -128 -115.2 0
v -129.0667 -115.2 0
v -129.0667 -114.1333 0
v -128 -114.1333 0
v -126.9333 -115.2 0
v -128 -115.2 0
v -128 -114.1333 0
v -126.9333 -114.1333 0
v -125.8667 -115.2 0
v -126.9333 -115.2 0
v -126.9333 -114.1333 0
v -125.8667 -114.1333 0
v -124.8 -115.2 0
v -125.8667 -115.2 0
v -125.8667 -114.1333 0
v -124.8 -114.1333 0
v -123.7333 -115.2 0
v -124.8 -115.2 0
v -124.8 -114.1333 0
v -123.7333 -114.1333 0
v -122.6667 -115.2 0
v -123.7333 -115.2 0
v -123.7333 -114.1333 0
v -122.6667 -114.1333 0
v -129.0667 -119.4667 0
v -130.1333 -119.4667 0
v -130.1333 -118.4 0
v -129.0667 -118.4 0
v -128 -119.4667 0
v -129.0667 -119.4667 0
v -129.0667 -118.4 0
v -128 -118.4 0
v -126.9333 -119.4667 0
v -128 -119.4667 0
v -128 -118.4 0
v -126.9333 -118.4 0
v -125.8667 -119.4667 0
v -126.9333 -119.4667 0
v -126.9333 -118.4 0
v -125.8667 -118.4 0
v -124.8 -119.4667 0
v -125.8667 -119.4667 0
v -125.8667 -118.4 0
v -124.8 -118.4 0
v -123.7333 -119.4667 0
v -124.8 -119.4667 0
v -124.8 -118.4 0
v -123.7333 -118.4 0
v -122.6667 -119.4667 0
v -123.7333 -119.4667 0
v -123.7333 -118.4 0
v -122.6667 -118.4 0
v -129.0667 -123.7333 0
v -130.1333 -123.7333 0
v -130.1333 -122.6667 0
v -129.0667 -122.6667 0
v -128 -123.7333 0
v -129.0667 -123.7333 0
v -129.0667 -122.6667 0
v -128 -122.6667 0
v -126.9333 -123.7333 0
v -128 -123.7333 0
v -128 -122.6667 0
v -126.9333 -122.6667 0
v -125.8667 -123.7333 0
v -126.9333 -123.7333 0
v -126.9333 -122.6667 0
v -125.8667 -122.6667 0
v -124.8 -123.7333 0
v -125.8667 -123.7333 0
v -125.8667 -122.6667 0
v -124.8 -122.6667 0
v -123.7333 -123.7333 0
v -124.8 -123.7333 0
v -124.8 -122.6667 0
v -123.7333 -122.6667 0
v -122.6667 -123.7333 0
v -123.7333 -123.7333 0
v -123.7333 -122.6667 0
v -122.6667 -122.6667 0
v -129.0667 -128 0
v -130.1333 -128 0
v -130.1333 -126.9333 0
v -129.0667 -126.9333 0
v -128 -128 0
v -129.0667 -128 0
v -129.0667 -126.9333 0
v -128 -126.9333 0
v -126.9333 -128 0
v -128 -128 0
v -128 -126.9333 0
v -126.9333 -126.9333 0
v -125.8667 -128 0
v -126.9333 -128 0
v -126.9333 -126.9333 0
v -125.8667 -126.9333 0
v -124.8 -128 0
v -125.8667 -128 0
v -125.8667 -126.9333 0
v -124.8 -126.9333 0
v -123.7333 -128 0
v -124.8 -128 0
v -124.8 -126.9333 0
v -123.7333 -126.9333 0
v -122.6667 -128 0
v -123.7333 -128 0
v -123.7333 -126.9333 0
v -122.6667 -126.9333 0
v -129.0667 -132.2667 0
v -130.1333 -132.2667 0
v -130.1333 -131.2 0
v -129.0667 -131.2 0
v -128 -132.2667 0
v -129.0667 -132.2667 0
v -129.0667 -131.2 0
v -128 -131.2 0
v -126.9333 -132.2667 0
v -128 -132.2667 0
v -128 -131.2 0
v -126.9333 -131.2 0
v -125.8667 -132.2667 0
v -126.9333 -132.2667 0
v -126.9333 -131.2 0
v -125.8667 -131.2 0
v -124.8 -132.2667 0
v -125.8667 -132.2667 0
v -125.8667 -131.2 0
v -124.8 -131.2 0
v -123.7333 -132.2667 0
v -124.8 -132.2667 0
v -124.8 -131.2 0
v -123.7333 -131.2 0
v -122.6667 -132.2667 0
v -123.7333 -132.2667 0
v -123.7333 -131.2 0
v -122.6667 -131.2 0

# Texture cooridinates (Count = 16)
vt 0.8605372 0.2262357
vt 0.8770661 0.2262357
vt 0.8770661 0.256654
vt 0.8605372 0.256654
vt 0.9132231 0.2262357
vt 0.9297521 0.2262357
vt 0.9297521 0.256654
vt 0.9132231 0.256654
vt 0.7902893 0.2262357
vt 0.8068182 0.2262357
vt 0.8068182 0.256654
vt 0.7902893 0.256654
vt 0.8429752 0.2262357
vt 0.8595041 0.2262357
vt 0.8595041 0.256654
vt 0.8429752 0.256654

# Normal
vn 0 0 -1

# Mesh description
g Library_mesh_0008

# Faces
f 1/1/1 2/2/1 3/3/1 4/4/1
f 5/5/1 6/6/1 7/7/1 8/8/1
f 9/5/1 10/6/1 11/7/1 12/8/1
f 13/9/1 14/10/1 15/11/1 16/12/1
f 17/5/1 18/6/1 19/7/1 20/8/1
f 21/5/1 22/6/1 23/7/1 24/8/1
f 25/13/1 26/14/1 27/15/1 28/16/1
f 29/1/1 30/2/1 31/3/1 32/4/1
f 33/5/1 34/6/1 35/7/1 36/8/1
f 37/5/1 38/6/1 39/7/1 40/8/1
f 41/9/1 42/10/1 43/11/1 44/12/1
f 45/5/1 46/6/1 47/7/1 48/8/1
f 49/5/1 50/6/1 51/7/1 52/8/1
f 53/13/1 54/14/1 55/15/1 56/16/1
f 57/1/1 58/2/1 59/3/1 60/4/1
f 61/5/1 62/6/1 63/7/1 64/8/1
f 65/5/1 66/6/1 67/7/1 68/8/1
f 69/9/1 70/10/1 71/11/1 72/12/1
f 73/5/1 74/6/1 75/7/1 76/8/1
f 77/5/1 78/6/1 79/7/1 80/8/1
f 81/13/1 82/14/1 83/15/1 84/16/1
f 85/1/1 86/2/1 87/3/1 88/4/1
f 89/5/1 90/6/1 91/7/1 92/8/1
f 93/5/1 94/6/1 95/7/1 96/8/1
f 97/9/1 98/10/1 99/11/1 100/12/1
f 101/5/1 102/6/1 103/7/1 104/8/1
f 105/5/1 106/6/1 107/7/1 108/8/1
f 109/13/1 110/14/1 111/15/1 112/16/1
f 113/1/1 114/2/1 115/3/1 116/4/1
f 117/5/1 118/6/1 119/7/1 120/8/1
f 121/5/1 122/6/1 123/7/1 124/8/1
f 125/9/1 126/10/1 127/11/1 128/12/1
f 129/5/1 130/6/1 131/7/1 132/8/1
f 133/5/1 134/6/1 135/7/1 136/8/1
f 137/13/1 138/14/1 139/15/1 140/16/1
f 141/1/1 142/2/1 143/3/1 144/4/1
f 145/5/1 146/6/1 147/7/1 148/8/1
f 149/5/1 150/6/1 151/7/1 152/8/1
f 153/9/1 154/10/1 155/11/1 156/12/1
f 157/5/1 158/6/1 159/7/1 160/8/1
f 161/5/1 162/6/1 163/7/1 164/8/1
f 165/13/1 166/14/1 167/15/1 168/16/1

