# Tiled2Unity generated file. Do not modify by hand.
# Wavefront file for 'Library-Floor1_mesh_0002.obj'

# Vertices (Count = 516)
v -117.3333 -92.8 0
v -118.4 -92.8 0
v -118.4 -91.73334 0
v -117.3333 -91.73334 0
v -116.2667 -92.8 0
v -117.3333 -92.8 0
v -117.3333 -91.73334 0
v -116.2667 -91.73334 0
v -115.2 -92.8 0
v -116.2667 -92.8 0
v -116.2667 -91.73334 0
v -115.2 -91.73334 0
v -114.1333 -92.8 0
v -115.2 -92.8 0
v -115.2 -91.73334 0
v -114.1333 -91.73334 0
v -113.0667 -92.8 0
v -114.1333 -92.8 0
v -114.1333 -91.73334 0
v -113.0667 -91.73334 0
v -112 -92.8 0
v -113.0667 -92.8 0
v -113.0667 -91.73334 0
v -112 -91.73334 0
v -110.9333 -92.8 0
v -112 -92.8 0
v -112 -91.73334 0
v -110.9333 -91.73334 0
v -109.8667 -92.8 0
v -110.9333 -92.8 0
v -110.9333 -91.73334 0
v -109.8667 -91.73334 0
v -108.8 -92.8 0
v -109.8667 -92.8 0
v -109.8667 -91.73334 0
v -108.8 -91.73334 0
v -117.3333 -93.86667 0
v -118.4 -93.86667 0
v -118.4 -92.8 0
v -117.3333 -92.8 0
v -116.2667 -93.86667 0
v -117.3333 -93.86667 0
v -117.3333 -92.8 0
v -116.2667 -92.8 0
v -115.2 -93.86667 0
v -116.2667 -93.86667 0
v -116.2667 -92.8 0
v -115.2 -92.8 0
v -114.1333 -93.86667 0
v -115.2 -93.86667 0
v -115.2 -92.8 0
v -114.1333 -92.8 0
v -113.0667 -93.86667 0
v -114.1333 -93.86667 0
v -114.1333 -92.8 0
v -113.0667 -92.8 0
v -112 -93.86667 0
v -113.0667 -93.86667 0
v -113.0667 -92.8 0
v -112 -92.8 0
v -110.9333 -93.86667 0
v -112 -93.86667 0
v -112 -92.8 0
v -110.9333 -92.8 0
v -109.8667 -93.86667 0
v -110.9333 -93.86667 0
v -110.9333 -92.8 0
v -109.8667 -92.8 0
v -108.8 -93.86667 0
v -109.8667 -93.86667 0
v -109.8667 -92.8 0
v -108.8 -92.8 0
v -117.3333 -94.93334 0
v -118.4 -94.93334 0
v -118.4 -93.86667 0
v -117.3333 -93.86667 0
v -116.2667 -94.93334 0
v -117.3333 -94.93334 0
v -117.3333 -93.86667 0
v -116.2667 -93.86667 0
v -115.2 -94.93334 0
v -116.2667 -94.93334 0
v -116.2667 -93.86667 0
v -115.2 -93.86667 0
v -114.1333 -94.93334 0
v -115.2 -94.93334 0
v -115.2 -93.86667 0
v -114.1333 -93.86667 0
v -113.0667 -94.93334 0
v -114.1333 -94.93334 0
v -114.1333 -93.86667 0
v -113.0667 -93.86667 0
v -112 -94.93334 0
v -113.0667 -94.93334 0
v -113.0667 -93.86667 0
v -112 -93.86667 0
v -110.9333 -94.93334 0
v -112 -94.93334 0
v -112 -93.86667 0
v -110.9333 -93.86667 0
v -109.8667 -94.93334 0
v -110.9333 -94.93334 0
v -110.9333 -93.86667 0
v -109.8667 -93.86667 0
v -108.8 -94.93334 0
v -109.8667 -94.93334 0
v -109.8667 -93.86667 0
v -108.8 -93.86667 0
v -117.3333 -96.00001 0
v -118.4 -96.00001 0
v -118.4 -94.93334 0
v -117.3333 -94.93334 0
v -116.2667 -96.00001 0
v -117.3333 -96.00001 0
v -117.3333 -94.93334 0
v -116.2667 -94.93334 0
v -115.2 -96.00001 0
v -116.2667 -96.00001 0
v -116.2667 -94.93334 0
v -115.2 -94.93334 0
v -114.1333 -96.00001 0
v -115.2 -96.00001 0
v -115.2 -94.93334 0
v -114.1333 -94.93334 0
v -113.0667 -96.00001 0
v -114.1333 -96.00001 0
v -114.1333 -94.93334 0
v -113.0667 -94.93334 0
v -112 -96.00001 0
v -113.0667 -96.00001 0
v -113.0667 -94.93334 0
v -112 -94.93334 0
v -110.9333 -96.00001 0
v -112 -96.00001 0
v -112 -94.93334 0
v -110.9333 -94.93334 0
v -109.8667 -96.00001 0
v -110.9333 -96.00001 0
v -110.9333 -94.93334 0
v -109.8667 -94.93334 0
v -108.8 -96.00001 0
v -109.8667 -96.00001 0
v -109.8667 -94.93334 0
v -108.8 -94.93334 0
v -117.3333 -97.06667 0
v -118.4 -97.06667 0
v -118.4 -96.00001 0
v -117.3333 -96.00001 0
v -116.2667 -97.06667 0
v -117.3333 -97.06667 0
v -117.3333 -96.00001 0
v -116.2667 -96.00001 0
v -115.2 -97.06667 0
v -116.2667 -97.06667 0
v -116.2667 -96.00001 0
v -115.2 -96.00001 0
v -114.1333 -97.06667 0
v -115.2 -97.06667 0
v -115.2 -96.00001 0
v -114.1333 -96.00001 0
v -113.0667 -97.06667 0
v -114.1333 -97.06667 0
v -114.1333 -96.00001 0
v -113.0667 -96.00001 0
v -112 -97.06667 0
v -113.0667 -97.06667 0
v -113.0667 -96.00001 0
v -112 -96.00001 0
v -110.9333 -97.06667 0
v -112 -97.06667 0
v -112 -96.00001 0
v -110.9333 -96.00001 0
v -109.8667 -97.06667 0
v -110.9333 -97.06667 0
v -110.9333 -96.00001 0
v -109.8667 -96.00001 0
v -108.8 -97.06667 0
v -109.8667 -97.06667 0
v -109.8667 -96.00001 0
v -108.8 -96.00001 0
v -117.3333 -98.13334 0
v -118.4 -98.13334 0
v -118.4 -97.06667 0
v -117.3333 -97.06667 0
v -116.2667 -98.13334 0
v -117.3333 -98.13334 0
v -117.3333 -97.06667 0
v -116.2667 -97.06667 0
v -115.2 -98.13334 0
v -116.2667 -98.13334 0
v -116.2667 -97.06667 0
v -115.2 -97.06667 0
v -114.1333 -98.13334 0
v -115.2 -98.13334 0
v -115.2 -97.06667 0
v -114.1333 -97.06667 0
v -113.0667 -98.13334 0
v -114.1333 -98.13334 0
v -114.1333 -97.06667 0
v -113.0667 -97.06667 0
v -112 -98.13334 0
v -113.0667 -98.13334 0
v -113.0667 -97.06667 0
v -112 -97.06667 0
v -110.9333 -98.13334 0
v -112 -98.13334 0
v -112 -97.06667 0
v -110.9333 -97.06667 0
v -109.8667 -98.13334 0
v -110.9333 -98.13334 0
v -110.9333 -97.06667 0
v -109.8667 -97.06667 0
v -108.8 -98.13334 0
v -109.8667 -98.13334 0
v -109.8667 -97.06667 0
v -108.8 -97.06667 0
v -117.3333 -99.2 0
v -118.4 -99.2 0
v -118.4 -98.13334 0
v -117.3333 -98.13334 0
v -116.2667 -99.2 0
v -117.3333 -99.2 0
v -117.3333 -98.13334 0
v -116.2667 -98.13334 0
v -115.2 -99.2 0
v -116.2667 -99.2 0
v -116.2667 -98.13334 0
v -115.2 -98.13334 0
v -114.1333 -99.2 0
v -115.2 -99.2 0
v -115.2 -98.13334 0
v -114.1333 -98.13334 0
v -113.0667 -99.2 0
v -114.1333 -99.2 0
v -114.1333 -98.13334 0
v -113.0667 -98.13334 0
v -112 -99.2 0
v -113.0667 -99.2 0
v -113.0667 -98.13334 0
v -112 -98.13334 0
v -110.9333 -99.2 0
v -112 -99.2 0
v -112 -98.13334 0
v -110.9333 -98.13334 0
v -109.8667 -99.2 0
v -110.9333 -99.2 0
v -110.9333 -98.13334 0
v -109.8667 -98.13334 0
v -108.8 -99.2 0
v -109.8667 -99.2 0
v -109.8667 -98.13334 0
v -108.8 -98.13334 0
v -117.3333 -100.2667 0
v -118.4 -100.2667 0
v -118.4 -99.2 0
v -117.3333 -99.2 0
v -116.2667 -100.2667 0
v -117.3333 -100.2667 0
v -117.3333 -99.2 0
v -116.2667 -99.2 0
v -115.2 -100.2667 0
v -116.2667 -100.2667 0
v -116.2667 -99.2 0
v -115.2 -99.2 0
v -114.1333 -100.2667 0
v -115.2 -100.2667 0
v -115.2 -99.2 0
v -114.1333 -99.2 0
v -113.0667 -100.2667 0
v -114.1333 -100.2667 0
v -114.1333 -99.2 0
v -113.0667 -99.2 0
v -112 -100.2667 0
v -113.0667 -100.2667 0
v -113.0667 -99.2 0
v -112 -99.2 0
v -110.9333 -100.2667 0
v -112 -100.2667 0
v -112 -99.2 0
v -110.9333 -99.2 0
v -109.8667 -100.2667 0
v -110.9333 -100.2667 0
v -110.9333 -99.2 0
v -109.8667 -99.2 0
v -108.8 -100.2667 0
v -109.8667 -100.2667 0
v -109.8667 -99.2 0
v -108.8 -99.2 0
v -117.3333 -101.3333 0
v -118.4 -101.3333 0
v -118.4 -100.2667 0
v -117.3333 -100.2667 0
v -116.2667 -101.3333 0
v -117.3333 -101.3333 0
v -117.3333 -100.2667 0
v -116.2667 -100.2667 0
v -115.2 -101.3333 0
v -116.2667 -101.3333 0
v -116.2667 -100.2667 0
v -115.2 -100.2667 0
v -114.1333 -101.3333 0
v -115.2 -101.3333 0
v -115.2 -100.2667 0
v -114.1333 -100.2667 0
v -113.0667 -101.3333 0
v -114.1333 -101.3333 0
v -114.1333 -100.2667 0
v -113.0667 -100.2667 0
v -112 -101.3333 0
v -113.0667 -101.3333 0
v -113.0667 -100.2667 0
v -112 -100.2667 0
v -110.9333 -101.3333 0
v -112 -101.3333 0
v -112 -100.2667 0
v -110.9333 -100.2667 0
v -109.8667 -101.3333 0
v -110.9333 -101.3333 0
v -110.9333 -100.2667 0
v -109.8667 -100.2667 0
v -108.8 -101.3333 0
v -109.8667 -101.3333 0
v -109.8667 -100.2667 0
v -108.8 -100.2667 0
v -116.2667 -102.4 0
v -117.3333 -102.4 0
v -117.3333 -101.3333 0
v -116.2667 -101.3333 0
v -115.2 -102.4 0
v -116.2667 -102.4 0
v -116.2667 -101.3333 0
v -115.2 -101.3333 0
v -114.1333 -102.4 0
v -115.2 -102.4 0
v -115.2 -101.3333 0
v -114.1333 -101.3333 0
v -113.0667 -102.4 0
v -114.1333 -102.4 0
v -114.1333 -101.3333 0
v -113.0667 -101.3333 0
v -112 -102.4 0
v -113.0667 -102.4 0
v -113.0667 -101.3333 0
v -112 -101.3333 0
v -110.9333 -102.4 0
v -112 -102.4 0
v -112 -101.3333 0
v -110.9333 -101.3333 0
v -109.8667 -102.4 0
v -110.9333 -102.4 0
v -110.9333 -101.3333 0
v -109.8667 -101.3333 0
v -115.2 -103.4667 0
v -116.2667 -103.4667 0
v -116.2667 -102.4 0
v -115.2 -102.4 0
v -114.1333 -103.4667 0
v -115.2 -103.4667 0
v -115.2 -102.4 0
v -114.1333 -102.4 0
v -113.0667 -103.4667 0
v -114.1333 -103.4667 0
v -114.1333 -102.4 0
v -113.0667 -102.4 0
v -112 -103.4667 0
v -113.0667 -103.4667 0
v -113.0667 -102.4 0
v -112 -102.4 0
v -110.9333 -103.4667 0
v -112 -103.4667 0
v -112 -102.4 0
v -110.9333 -102.4 0
v -114.1333 -104.5333 0
v -115.2 -104.5333 0
v -115.2 -103.4667 0
v -114.1333 -103.4667 0
v -113.0667 -104.5333 0
v -114.1333 -104.5333 0
v -114.1333 -103.4667 0
v -113.0667 -103.4667 0
v -112 -104.5333 0
v -113.0667 -104.5333 0
v -113.0667 -103.4667 0
v -112 -103.4667 0
v -114.1333 -105.6 0
v -115.2 -105.6 0
v -115.2 -104.5333 0
v -114.1333 -104.5333 0
v -113.0667 -105.6 0
v -114.1333 -105.6 0
v -114.1333 -104.5333 0
v -113.0667 -104.5333 0
v -112 -105.6 0
v -113.0667 -105.6 0
v -113.0667 -104.5333 0
v -112 -104.5333 0
v -114.1333 -106.6667 0
v -115.2 -106.6667 0
v -115.2 -105.6 0
v -114.1333 -105.6 0
v -113.0667 -106.6667 0
v -114.1333 -106.6667 0
v -114.1333 -105.6 0
v -113.0667 -105.6 0
v -112 -106.6667 0
v -113.0667 -106.6667 0
v -113.0667 -105.6 0
v -112 -105.6 0
v -114.1333 -107.7333 0
v -115.2 -107.7333 0
v -115.2 -106.6667 0
v -114.1333 -106.6667 0
v -113.0667 -107.7333 0
v -114.1333 -107.7333 0
v -114.1333 -106.6667 0
v -113.0667 -106.6667 0
v -112 -107.7333 0
v -113.0667 -107.7333 0
v -113.0667 -106.6667 0
v -112 -106.6667 0
v -114.1333 -108.8 0
v -115.2 -108.8 0
v -115.2 -107.7333 0
v -114.1333 -107.7333 0
v -113.0667 -108.8 0
v -114.1333 -108.8 0
v -114.1333 -107.7333 0
v -113.0667 -107.7333 0
v -112 -108.8 0
v -113.0667 -108.8 0
v -113.0667 -107.7333 0
v -112 -107.7333 0
v -114.1333 -109.8667 0
v -115.2 -109.8667 0
v -115.2 -108.8 0
v -114.1333 -108.8 0
v -113.0667 -109.8667 0
v -114.1333 -109.8667 0
v -114.1333 -108.8 0
v -113.0667 -108.8 0
v -112 -109.8667 0
v -113.0667 -109.8667 0
v -113.0667 -108.8 0
v -112 -108.8 0
v -110.9333 -109.8667 0
v -112 -109.8667 0
v -112 -108.8 0
v -110.9333 -108.8 0
v -109.8667 -109.8667 0
v -110.9333 -109.8667 0
v -110.9333 -108.8 0
v -109.8667 -108.8 0
v -108.8 -109.8667 0
v -109.8667 -109.8667 0
v -109.8667 -108.8 0
v -108.8 -108.8 0
v -107.7333 -109.8667 0
v -108.8 -109.8667 0
v -108.8 -108.8 0
v -107.7333 -108.8 0
v -114.1333 -110.9333 0
v -115.2 -110.9333 0
v -115.2 -109.8667 0
v -114.1333 -109.8667 0
v -113.0667 -110.9333 0
v -114.1333 -110.9333 0
v -114.1333 -109.8667 0
v -113.0667 -109.8667 0
v -112 -110.9333 0
v -113.0667 -110.9333 0
v -113.0667 -109.8667 0
v -112 -109.8667 0
v -110.9333 -110.9333 0
v -112 -110.9333 0
v -112 -109.8667 0
v -110.9333 -109.8667 0
v -109.8667 -110.9333 0
v -110.9333 -110.9333 0
v -110.9333 -109.8667 0
v -109.8667 -109.8667 0
v -108.8 -110.9333 0
v -109.8667 -110.9333 0
v -109.8667 -109.8667 0
v -108.8 -109.8667 0
v -107.7333 -110.9333 0
v -108.8 -110.9333 0
v -108.8 -109.8667 0
v -107.7333 -109.8667 0
v -114.1333 -112 0
v -115.2 -112 0
v -115.2 -110.9333 0
v -114.1333 -110.9333 0
v -113.0667 -112 0
v -114.1333 -112 0
v -114.1333 -110.9333 0
v -113.0667 -110.9333 0
v -112 -112 0
v -113.0667 -112 0
v -113.0667 -110.9333 0
v -112 -110.9333 0
v -110.9333 -112 0
v -112 -112 0
v -112 -110.9333 0
v -110.9333 -110.9333 0
v -109.8667 -112 0
v -110.9333 -112 0
v -110.9333 -110.9333 0
v -109.8667 -110.9333 0
v -108.8 -112 0
v -109.8667 -112 0
v -109.8667 -110.9333 0
v -108.8 -110.9333 0
v -107.7333 -112 0
v -108.8 -112 0
v -108.8 -110.9333 0
v -107.7333 -110.9333 0

# Texture cooridinates (Count = 36)
vt 0.2107438 0.4524715
vt 0.2272727 0.4524715
vt 0.2272727 0.4828897
vt 0.2107438 0.4828897
vt 0.1931818 0.4524715
vt 0.2097107 0.4524715
vt 0.2097107 0.4828897
vt 0.1931818 0.4828897
vt 0.1756198 0.4524715
vt 0.1921488 0.4524715
vt 0.1921488 0.4828897
vt 0.1756198 0.4828897
vt 0.2107438 0.4201521
vt 0.2272727 0.4201521
vt 0.2272727 0.4505703
vt 0.2107438 0.4505703
vt 0.1931818 0.4201521
vt 0.2097107 0.4201521
vt 0.2097107 0.4505703
vt 0.1931818 0.4505703
vt 0.1756198 0.4201521
vt 0.1921488 0.4201521
vt 0.1921488 0.4505703
vt 0.1756198 0.4505703
vt 0.2107438 0.3878327
vt 0.2272727 0.3878327
vt 0.2272727 0.418251
vt 0.2107438 0.418251
vt 0.1756198 0.3878327
vt 0.1921488 0.3878327
vt 0.1921488 0.418251
vt 0.1756198 0.418251
vt 0.1931818 0.3878327
vt 0.2097107 0.3878327
vt 0.2097107 0.418251
vt 0.1931818 0.418251

# Normal
vn 0 0 -1

# Mesh description
g Library-Floor1_mesh_0002

# Faces
f 1/1/1 2/2/1 3/3/1 4/4/1
f 5/5/1 6/6/1 7/7/1 8/8/1
f 9/5/1 10/6/1 11/7/1 12/8/1
f 13/5/1 14/6/1 15/7/1 16/8/1
f 17/5/1 18/6/1 19/7/1 20/8/1
f 21/5/1 22/6/1 23/7/1 24/8/1
f 25/5/1 26/6/1 27/7/1 28/8/1
f 29/5/1 30/6/1 31/7/1 32/8/1
f 33/9/1 34/10/1 35/11/1 36/12/1
f 37/13/1 38/14/1 39/15/1 40/16/1
f 41/17/1 42/18/1 43/19/1 44/20/1
f 45/17/1 46/18/1 47/19/1 48/20/1
f 49/17/1 50/18/1 51/19/1 52/20/1
f 53/17/1 54/18/1 55/19/1 56/20/1
f 57/17/1 58/18/1 59/19/1 60/20/1
f 61/17/1 62/18/1 63/19/1 64/20/1
f 65/17/1 66/18/1 67/19/1 68/20/1
f 69/21/1 70/22/1 71/23/1 72/24/1
f 73/13/1 74/14/1 75/15/1 76/16/1
f 77/17/1 78/18/1 79/19/1 80/20/1
f 81/17/1 82/18/1 83/19/1 84/20/1
f 85/17/1 86/18/1 87/19/1 88/20/1
f 89/17/1 90/18/1 91/19/1 92/20/1
f 93/17/1 94/18/1 95/19/1 96/20/1
f 97/17/1 98/18/1 99/19/1 100/20/1
f 101/17/1 102/18/1 103/19/1 104/20/1
f 105/21/1 106/22/1 107/23/1 108/24/1
f 109/13/1 110/14/1 111/15/1 112/16/1
f 113/17/1 114/18/1 115/19/1 116/20/1
f 117/17/1 118/18/1 119/19/1 120/20/1
f 121/17/1 122/18/1 123/19/1 124/20/1
f 125/17/1 126/18/1 127/19/1 128/20/1
f 129/17/1 130/18/1 131/19/1 132/20/1
f 133/17/1 134/18/1 135/19/1 136/20/1
f 137/17/1 138/18/1 139/19/1 140/20/1
f 141/21/1 142/22/1 143/23/1 144/24/1
f 145/13/1 146/14/1 147/15/1 148/16/1
f 149/17/1 150/18/1 151/19/1 152/20/1
f 153/17/1 154/18/1 155/19/1 156/20/1
f 157/17/1 158/18/1 159/19/1 160/20/1
f 161/17/1 162/18/1 163/19/1 164/20/1
f 165/17/1 166/18/1 167/19/1 168/20/1
f 169/17/1 170/18/1 171/19/1 172/20/1
f 173/17/1 174/18/1 175/19/1 176/20/1
f 177/21/1 178/22/1 179/23/1 180/24/1
f 181/13/1 182/14/1 183/15/1 184/16/1
f 185/17/1 186/18/1 187/19/1 188/20/1
f 189/17/1 190/18/1 191/19/1 192/20/1
f 193/17/1 194/18/1 195/19/1 196/20/1
f 197/17/1 198/18/1 199/19/1 200/20/1
f 201/17/1 202/18/1 203/19/1 204/20/1
f 205/17/1 206/18/1 207/19/1 208/20/1
f 209/17/1 210/18/1 211/19/1 212/20/1
f 213/21/1 214/22/1 215/23/1 216/24/1
f 217/13/1 218/14/1 219/15/1 220/16/1
f 221/17/1 222/18/1 223/19/1 224/20/1
f 225/17/1 226/18/1 227/19/1 228/20/1
f 229/17/1 230/18/1 231/19/1 232/20/1
f 233/17/1 234/18/1 235/19/1 236/20/1
f 237/17/1 238/18/1 239/19/1 240/20/1
f 241/17/1 242/18/1 243/19/1 244/20/1
f 245/17/1 246/18/1 247/19/1 248/20/1
f 249/21/1 250/22/1 251/23/1 252/24/1
f 253/13/1 254/14/1 255/15/1 256/16/1
f 257/17/1 258/18/1 259/19/1 260/20/1
f 261/17/1 262/18/1 263/19/1 264/20/1
f 265/17/1 266/18/1 267/19/1 268/20/1
f 269/17/1 270/18/1 271/19/1 272/20/1
f 273/17/1 274/18/1 275/19/1 276/20/1
f 277/17/1 278/18/1 279/19/1 280/20/1
f 281/17/1 282/18/1 283/19/1 284/20/1
f 285/21/1 286/22/1 287/23/1 288/24/1
f 289/25/1 290/26/1 291/27/1 292/28/1
f 293/17/1 294/18/1 295/19/1 296/20/1
f 297/17/1 298/18/1 299/19/1 300/20/1
f 301/17/1 302/18/1 303/19/1 304/20/1
f 305/17/1 306/18/1 307/19/1 308/20/1
f 309/17/1 310/18/1 311/19/1 312/20/1
f 313/17/1 314/18/1 315/19/1 316/20/1
f 317/17/1 318/18/1 319/19/1 320/20/1
f 321/29/1 322/30/1 323/31/1 324/32/1
f 325/25/1 326/26/1 327/27/1 328/28/1
f 329/17/1 330/18/1 331/19/1 332/20/1
f 333/17/1 334/18/1 335/19/1 336/20/1
f 337/17/1 338/18/1 339/19/1 340/20/1
f 341/17/1 342/18/1 343/19/1 344/20/1
f 345/17/1 346/18/1 347/19/1 348/20/1
f 349/29/1 350/30/1 351/31/1 352/32/1
f 353/25/1 354/26/1 355/27/1 356/28/1
f 357/17/1 358/18/1 359/19/1 360/20/1
f 361/17/1 362/18/1 363/19/1 364/20/1
f 365/17/1 366/18/1 367/19/1 368/20/1
f 369/29/1 370/30/1 371/31/1 372/32/1
f 373/13/1 374/14/1 375/15/1 376/16/1
f 377/17/1 378/18/1 379/19/1 380/20/1
f 381/21/1 382/22/1 383/23/1 384/24/1
f 385/13/1 386/14/1 387/15/1 388/16/1
f 389/17/1 390/18/1 391/19/1 392/20/1
f 393/21/1 394/22/1 395/23/1 396/24/1
f 397/13/1 398/14/1 399/15/1 400/16/1
f 401/17/1 402/18/1 403/19/1 404/20/1
f 405/21/1 406/22/1 407/23/1 408/24/1
f 409/13/1 410/14/1 411/15/1 412/16/1
f 413/17/1 414/18/1 415/19/1 416/20/1
f 417/21/1 418/22/1 419/23/1 420/24/1
f 421/13/1 422/14/1 423/15/1 424/16/1
f 425/17/1 426/18/1 427/19/1 428/20/1
f 429/21/1 430/22/1 431/23/1 432/24/1
f 433/13/1 434/14/1 435/15/1 436/16/1
f 437/17/1 438/18/1 439/19/1 440/20/1
f 441/17/1 442/18/1 443/19/1 444/20/1
f 445/5/1 446/6/1 447/7/1 448/8/1
f 449/5/1 450/6/1 451/7/1 452/8/1
f 453/5/1 454/6/1 455/7/1 456/8/1
f 457/9/1 458/10/1 459/11/1 460/12/1
f 461/13/1 462/14/1 463/15/1 464/16/1
f 465/17/1 466/18/1 467/19/1 468/20/1
f 469/17/1 470/18/1 471/19/1 472/20/1
f 473/17/1 474/18/1 475/19/1 476/20/1
f 477/17/1 478/18/1 479/19/1 480/20/1
f 481/17/1 482/18/1 483/19/1 484/20/1
f 485/21/1 486/22/1 487/23/1 488/24/1
f 489/25/1 490/26/1 491/27/1 492/28/1
f 493/33/1 494/34/1 495/35/1 496/36/1
f 497/33/1 498/34/1 499/35/1 500/36/1
f 501/33/1 502/34/1 503/35/1 504/36/1
f 505/33/1 506/34/1 507/35/1 508/36/1
f 509/33/1 510/34/1 511/35/1 512/36/1
f 513/29/1 514/30/1 515/31/1 516/32/1

