# Tiled2Unity generated file. Do not modify by hand.
# Wavefront file for 'Library-Floor1_mesh_0011.obj'

# Vertices (Count = 24)
v -118.4 -89.60001 0
v -119.4667 -89.60001 0
v -119.4667 -88.53334 0
v -118.4 -88.53334 0
v -116.2667 -89.60001 0
v -117.3333 -89.60001 0
v -117.3333 -88.53334 0
v -116.2667 -88.53334 0
v -114.1333 -89.60001 0
v -115.2 -89.60001 0
v -115.2 -88.53334 0
v -114.1333 -88.53334 0
v -112 -89.60001 0
v -113.0667 -89.60001 0
v -113.0667 -88.53334 0
v -112 -88.53334 0
v -109.8667 -89.60001 0
v -110.9333 -89.60001 0
v -110.9333 -88.53334 0
v -109.8667 -88.53334 0
v -107.7333 -89.60001 0
v -108.8 -89.60001 0
v -108.8 -88.53334 0
v -107.7333 -88.53334 0

# Texture cooridinates (Count = 4)
vt 0.2985537 0.7110266
vt 0.3150826 0.7110266
vt 0.3150826 0.7414448
vt 0.2985537 0.7414448

# Normal
vn 0 0 -1

# Mesh description
g Library-Floor1_mesh_0011

# Faces
f 1/1/1 2/2/1 3/3/1 4/4/1
f 5/1/1 6/2/1 7/3/1 8/4/1
f 9/1/1 10/2/1 11/3/1 12/4/1
f 13/1/1 14/2/1 15/3/1 16/4/1
f 17/1/1 18/2/1 19/3/1 20/4/1
f 21/1/1 22/2/1 23/3/1 24/4/1

