# Tiled2Unity generated file. Do not modify by hand.
# Wavefront file for 'Library-Floor1_mesh_0009.obj'

# Vertices (Count = 104)
v -119.4667 -90.66667 0
v -120.5333 -90.66667 0
v -120.5333 -89.60001 0
v -119.4667 -89.60001 0
v -106.6667 -90.66667 0
v -107.7333 -90.66667 0
v -107.7333 -89.60001 0
v -106.6667 -89.60001 0
v -119.4667 -91.73334 0
v -120.5333 -91.73334 0
v -120.5333 -90.66667 0
v -119.4667 -90.66667 0
v -106.6667 -91.73334 0
v -107.7333 -91.73334 0
v -107.7333 -90.66667 0
v -106.6667 -90.66667 0
v -119.4667 -92.8 0
v -120.5333 -92.8 0
v -120.5333 -91.73334 0
v -119.4667 -91.73334 0
v -106.6667 -92.8 0
v -107.7333 -92.8 0
v -107.7333 -91.73334 0
v -106.6667 -91.73334 0
v -119.4667 -96.00001 0
v -120.5333 -96.00001 0
v -120.5333 -94.93334 0
v -119.4667 -94.93334 0
v -106.6667 -96.00001 0
v -107.7333 -96.00001 0
v -107.7333 -94.93334 0
v -106.6667 -94.93334 0
v -119.4667 -97.06667 0
v -120.5333 -97.06667 0
v -120.5333 -96.00001 0
v -119.4667 -96.00001 0
v -106.6667 -97.06667 0
v -107.7333 -97.06667 0
v -107.7333 -96.00001 0
v -106.6667 -96.00001 0
v -119.4667 -98.13334 0
v -120.5333 -98.13334 0
v -120.5333 -97.06667 0
v -119.4667 -97.06667 0
v -106.6667 -98.13334 0
v -107.7333 -98.13334 0
v -107.7333 -97.06667 0
v -106.6667 -97.06667 0
v -116.2667 -102.4 0
v -117.3333 -102.4 0
v -117.3333 -101.3333 0
v -116.2667 -101.3333 0
v -109.8667 -102.4 0
v -110.9333 -102.4 0
v -110.9333 -101.3333 0
v -109.8667 -101.3333 0
v -116.2667 -103.4667 0
v -117.3333 -103.4667 0
v -117.3333 -102.4 0
v -116.2667 -102.4 0
v -109.8667 -103.4667 0
v -110.9333 -103.4667 0
v -110.9333 -102.4 0
v -109.8667 -102.4 0
v -116.2667 -104.5333 0
v -117.3333 -104.5333 0
v -117.3333 -103.4667 0
v -116.2667 -103.4667 0
v -109.8667 -104.5333 0
v -110.9333 -104.5333 0
v -110.9333 -103.4667 0
v -109.8667 -103.4667 0
v -105.6 -106.6667 0
v -106.6667 -106.6667 0
v -106.6667 -105.6 0
v -105.6 -105.6 0
v -101.3333 -106.6667 0
v -102.4 -106.6667 0
v -102.4 -105.6 0
v -101.3333 -105.6 0
v -105.6 -107.7333 0
v -106.6667 -107.7333 0
v -106.6667 -106.6667 0
v -105.6 -106.6667 0
v -101.3333 -107.7333 0
v -102.4 -107.7333 0
v -102.4 -106.6667 0
v -101.3333 -106.6667 0
v -105.6 -110.9333 0
v -106.6667 -110.9333 0
v -106.6667 -109.8667 0
v -105.6 -109.8667 0
v -101.3333 -110.9333 0
v -102.4 -110.9333 0
v -102.4 -109.8667 0
v -101.3333 -109.8667 0
v -105.6 -112 0
v -106.6667 -112 0
v -106.6667 -110.9333 0
v -105.6 -110.9333 0
v -101.3333 -112 0
v -102.4 -112 0
v -102.4 -110.9333 0
v -101.3333 -110.9333 0

# Texture cooridinates (Count = 8)
vt 0.5971074 0.3231939
vt 0.6136364 0.3231939
vt 0.6136364 0.3536122
vt 0.5971074 0.3536122
vt 0.5971074 0.3555133
vt 0.6136364 0.3555133
vt 0.6136364 0.3859316
vt 0.5971074 0.3859316

# Normal
vn 0 0 -1

# Mesh description
g Library-Floor1_mesh_0009

# Faces
f 1/1/1 2/2/1 3/3/1 4/4/1
f 5/1/1 6/2/1 7/3/1 8/4/1
f 9/5/1 10/6/1 11/7/1 12/8/1
f 13/5/1 14/6/1 15/7/1 16/8/1
f 17/5/1 18/6/1 19/7/1 20/8/1
f 21/5/1 22/6/1 23/7/1 24/8/1
f 25/1/1 26/2/1 27/3/1 28/4/1
f 29/1/1 30/2/1 31/3/1 32/4/1
f 33/5/1 34/6/1 35/7/1 36/8/1
f 37/5/1 38/6/1 39/7/1 40/8/1
f 41/5/1 42/6/1 43/7/1 44/8/1
f 45/5/1 46/6/1 47/7/1 48/8/1
f 49/1/1 50/2/1 51/3/1 52/4/1
f 53/1/1 54/2/1 55/3/1 56/4/1
f 57/5/1 58/6/1 59/7/1 60/8/1
f 61/5/1 62/6/1 63/7/1 64/8/1
f 65/5/1 66/6/1 67/7/1 68/8/1
f 69/5/1 70/6/1 71/7/1 72/8/1
f 73/1/1 74/2/1 75/3/1 76/4/1
f 77/1/1 78/2/1 79/3/1 80/4/1
f 81/5/1 82/6/1 83/7/1 84/8/1
f 85/5/1 86/6/1 87/7/1 88/8/1
f 89/1/1 90/2/1 91/3/1 92/4/1
f 93/1/1 94/2/1 95/3/1 96/4/1
f 97/5/1 98/6/1 99/7/1 100/8/1
f 101/5/1 102/6/1 103/7/1 104/8/1

