# Tiled2Unity generated file. Do not modify by hand.
# Wavefront file for 'TFTV-Floor1_mesh_0008.obj'

# Vertices (Count = 64)
v -124.8 -90.66667 0
v -125.8667 -90.66667 0
v -125.8667 -89.60001 0
v -124.8 -89.60001 0
v -120.5333 -90.66667 0
v -121.6 -90.66667 0
v -121.6 -89.60001 0
v -120.5333 -89.60001 0
v -115.2 -90.66667 0
v -116.2667 -90.66667 0
v -116.2667 -89.60001 0
v -115.2 -89.60001 0
v -109.8667 -90.66667 0
v -110.9333 -90.66667 0
v -110.9333 -89.60001 0
v -109.8667 -89.60001 0
v -124.8 -91.73334 0
v -125.8667 -91.73334 0
v -125.8667 -90.66667 0
v -124.8 -90.66667 0
v -120.5333 -91.73334 0
v -121.6 -91.73334 0
v -121.6 -90.66667 0
v -120.5333 -90.66667 0
v -115.2 -91.73334 0
v -116.2667 -91.73334 0
v -116.2667 -90.66667 0
v -115.2 -90.66667 0
v -109.8667 -91.73334 0
v -110.9333 -91.73334 0
v -110.9333 -90.66667 0
v -109.8667 -90.66667 0
v -124.8 -94.93334 0
v -125.8667 -94.93334 0
v -125.8667 -93.86667 0
v -124.8 -93.86667 0
v -120.5333 -94.93334 0
v -121.6 -94.93334 0
v -121.6 -93.86667 0
v -120.5333 -93.86667 0
v -115.2 -94.93334 0
v -116.2667 -94.93334 0
v -116.2667 -93.86667 0
v -115.2 -93.86667 0
v -109.8667 -94.93334 0
v -110.9333 -94.93334 0
v -110.9333 -93.86667 0
v -109.8667 -93.86667 0
v -124.8 -96.00001 0
v -125.8667 -96.00001 0
v -125.8667 -94.93334 0
v -124.8 -94.93334 0
v -120.5333 -96.00001 0
v -121.6 -96.00001 0
v -121.6 -94.93334 0
v -120.5333 -94.93334 0
v -115.2 -96.00001 0
v -116.2667 -96.00001 0
v -116.2667 -94.93334 0
v -115.2 -94.93334 0
v -109.8667 -96.00001 0
v -110.9333 -96.00001 0
v -110.9333 -94.93334 0
v -109.8667 -94.93334 0

# Texture cooridinates (Count = 12)
vt 0.5971074 0.3231939
vt 0.6136364 0.3231939
vt 0.6136364 0.3536122
vt 0.5971074 0.3536122
vt 0.6146694 0.3555133
vt 0.6311983 0.3555133
vt 0.6311983 0.3859316
vt 0.6146694 0.3859316
vt 0.5971074 0.3555133
vt 0.6136364 0.3555133
vt 0.6136364 0.3859316
vt 0.5971074 0.3859316

# Normal
vn 0 0 -1

# Mesh description
g TFTV-Floor1_mesh_0008

# Faces
f 1/1/1 2/2/1 3/3/1 4/4/1
f 5/1/1 6/2/1 7/3/1 8/4/1
f 9/1/1 10/2/1 11/3/1 12/4/1
f 13/1/1 14/2/1 15/3/1 16/4/1
f 17/5/1 18/6/1 19/7/1 20/8/1
f 21/9/1 22/10/1 23/11/1 24/12/1
f 25/9/1 26/10/1 27/11/1 28/12/1
f 29/5/1 30/6/1 31/7/1 32/8/1
f 33/1/1 34/2/1 35/3/1 36/4/1
f 37/1/1 38/2/1 39/3/1 40/4/1
f 41/1/1 42/2/1 43/3/1 44/4/1
f 45/1/1 46/2/1 47/3/1 48/4/1
f 49/9/1 50/10/1 51/11/1 52/12/1
f 53/9/1 54/10/1 55/11/1 56/12/1
f 57/9/1 58/10/1 59/11/1 60/12/1
f 61/9/1 62/10/1 63/11/1 64/12/1

