# Tiled2Unity generated file. Do not modify by hand.
# Wavefront file for 'CS-Floor1_mesh_0004.obj'

# Vertices (Count = 664)
v -147.2 -112 0
v -148.2667 -112 0
v -148.2667 -110.9333 0
v -147.2 -110.9333 0
v -146.1333 -112 0
v -147.2 -112 0
v -147.2 -110.9333 0
v -146.1333 -110.9333 0
v -145.0667 -112 0
v -146.1333 -112 0
v -146.1333 -110.9333 0
v -145.0667 -110.9333 0
v -144 -112 0
v -145.0667 -112 0
v -145.0667 -110.9333 0
v -144 -110.9333 0
v -142.9333 -112 0
v -144 -112 0
v -144 -110.9333 0
v -142.9333 -110.9333 0
v -141.8667 -112 0
v -142.9333 -112 0
v -142.9333 -110.9333 0
v -141.8667 -110.9333 0
v -140.8 -112 0
v -141.8667 -112 0
v -141.8667 -110.9333 0
v -140.8 -110.9333 0
v -139.7333 -112 0
v -140.8 -112 0
v -140.8 -110.9333 0
v -139.7333 -110.9333 0
v -138.6667 -112 0
v -139.7333 -112 0
v -139.7333 -110.9333 0
v -138.6667 -110.9333 0
v -137.6 -112 0
v -138.6667 -112 0
v -138.6667 -110.9333 0
v -137.6 -110.9333 0
v -136.5333 -112 0
v -137.6 -112 0
v -137.6 -110.9333 0
v -136.5333 -110.9333 0
v -135.4667 -112 0
v -136.5333 -112 0
v -136.5333 -110.9333 0
v -135.4667 -110.9333 0
v -134.4 -112 0
v -135.4667 -112 0
v -135.4667 -110.9333 0
v -134.4 -110.9333 0
v -133.3333 -112 0
v -134.4 -112 0
v -134.4 -110.9333 0
v -133.3333 -110.9333 0
v -132.2667 -112 0
v -133.3333 -112 0
v -133.3333 -110.9333 0
v -132.2667 -110.9333 0
v -131.2 -112 0
v -132.2667 -112 0
v -132.2667 -110.9333 0
v -131.2 -110.9333 0
v -147.2 -113.0667 0
v -148.2667 -113.0667 0
v -148.2667 -112 0
v -147.2 -112 0
v -146.1333 -113.0667 0
v -147.2 -113.0667 0
v -147.2 -112 0
v -146.1333 -112 0
v -145.0667 -113.0667 0
v -146.1333 -113.0667 0
v -146.1333 -112 0
v -145.0667 -112 0
v -144 -113.0667 0
v -145.0667 -113.0667 0
v -145.0667 -112 0
v -144 -112 0
v -142.9333 -113.0667 0
v -144 -113.0667 0
v -144 -112 0
v -142.9333 -112 0
v -141.8667 -113.0667 0
v -142.9333 -113.0667 0
v -142.9333 -112 0
v -141.8667 -112 0
v -140.8 -113.0667 0
v -141.8667 -113.0667 0
v -141.8667 -112 0
v -140.8 -112 0
v -139.7333 -113.0667 0
v -140.8 -113.0667 0
v -140.8 -112 0
v -139.7333 -112 0
v -138.6667 -113.0667 0
v -139.7333 -113.0667 0
v -139.7333 -112 0
v -138.6667 -112 0
v -137.6 -113.0667 0
v -138.6667 -113.0667 0
v -138.6667 -112 0
v -137.6 -112 0
v -136.5333 -113.0667 0
v -137.6 -113.0667 0
v -137.6 -112 0
v -136.5333 -112 0
v -135.4667 -113.0667 0
v -136.5333 -113.0667 0
v -136.5333 -112 0
v -135.4667 -112 0
v -134.4 -113.0667 0
v -135.4667 -113.0667 0
v -135.4667 -112 0
v -134.4 -112 0
v -133.3333 -113.0667 0
v -134.4 -113.0667 0
v -134.4 -112 0
v -133.3333 -112 0
v -132.2667 -113.0667 0
v -133.3333 -113.0667 0
v -133.3333 -112 0
v -132.2667 -112 0
v -131.2 -113.0667 0
v -132.2667 -113.0667 0
v -132.2667 -112 0
v -131.2 -112 0
v -146.1333 -134.4 0
v -147.2 -134.4 0
v -147.2 -133.3333 0
v -146.1333 -133.3333 0
v -145.0667 -134.4 0
v -146.1333 -134.4 0
v -146.1333 -133.3333 0
v -145.0667 -133.3333 0
v -144 -134.4 0
v -145.0667 -134.4 0
v -145.0667 -133.3333 0
v -144 -133.3333 0
v -142.9333 -134.4 0
v -144 -134.4 0
v -144 -133.3333 0
v -142.9333 -133.3333 0
v -141.8667 -134.4 0
v -142.9333 -134.4 0
v -142.9333 -133.3333 0
v -141.8667 -133.3333 0
v -140.8 -134.4 0
v -141.8667 -134.4 0
v -141.8667 -133.3333 0
v -140.8 -133.3333 0
v -139.7333 -134.4 0
v -140.8 -134.4 0
v -140.8 -133.3333 0
v -139.7333 -133.3333 0
v -138.6667 -134.4 0
v -139.7333 -134.4 0
v -139.7333 -133.3333 0
v -138.6667 -133.3333 0
v -137.6 -134.4 0
v -138.6667 -134.4 0
v -138.6667 -133.3333 0
v -137.6 -133.3333 0
v -146.1333 -135.4667 0
v -147.2 -135.4667 0
v -147.2 -134.4 0
v -146.1333 -134.4 0
v -145.0667 -135.4667 0
v -146.1333 -135.4667 0
v -146.1333 -134.4 0
v -145.0667 -134.4 0
v -144 -135.4667 0
v -145.0667 -135.4667 0
v -145.0667 -134.4 0
v -144 -134.4 0
v -142.9333 -135.4667 0
v -144 -135.4667 0
v -144 -134.4 0
v -142.9333 -134.4 0
v -141.8667 -135.4667 0
v -142.9333 -135.4667 0
v -142.9333 -134.4 0
v -141.8667 -134.4 0
v -140.8 -135.4667 0
v -141.8667 -135.4667 0
v -141.8667 -134.4 0
v -140.8 -134.4 0
v -139.7333 -135.4667 0
v -140.8 -135.4667 0
v -140.8 -134.4 0
v -139.7333 -134.4 0
v -138.6667 -135.4667 0
v -139.7333 -135.4667 0
v -139.7333 -134.4 0
v -138.6667 -134.4 0
v -137.6 -135.4667 0
v -138.6667 -135.4667 0
v -138.6667 -134.4 0
v -137.6 -134.4 0
v -136.5333 -135.4667 0
v -137.6 -135.4667 0
v -137.6 -134.4 0
v -136.5333 -134.4 0
v -137.6 -136.5333 0
v -138.6667 -136.5333 0
v -138.6667 -135.4667 0
v -137.6 -135.4667 0
v -136.5333 -136.5333 0
v -137.6 -136.5333 0
v -137.6 -135.4667 0
v -136.5333 -135.4667 0
v -135.4667 -136.5333 0
v -136.5333 -136.5333 0
v -136.5333 -135.4667 0
v -135.4667 -135.4667 0
v -136.5333 -137.6 0
v -137.6 -137.6 0
v -137.6 -136.5333 0
v -136.5333 -136.5333 0
v -135.4667 -137.6 0
v -136.5333 -137.6 0
v -136.5333 -136.5333 0
v -135.4667 -136.5333 0
v -134.4 -137.6 0
v -135.4667 -137.6 0
v -135.4667 -136.5333 0
v -134.4 -136.5333 0
v -135.4667 -138.6667 0
v -136.5333 -138.6667 0
v -136.5333 -137.6 0
v -135.4667 -137.6 0
v -134.4 -138.6667 0
v -135.4667 -138.6667 0
v -135.4667 -137.6 0
v -134.4 -137.6 0
v -133.3333 -138.6667 0
v -134.4 -138.6667 0
v -134.4 -137.6 0
v -133.3333 -137.6 0
v -134.4 -139.7333 0
v -135.4667 -139.7333 0
v -135.4667 -138.6667 0
v -134.4 -138.6667 0
v -133.3333 -139.7333 0
v -134.4 -139.7333 0
v -134.4 -138.6667 0
v -133.3333 -138.6667 0
v -132.2667 -139.7333 0
v -133.3333 -139.7333 0
v -133.3333 -138.6667 0
v -132.2667 -138.6667 0
v -133.3333 -140.8 0
v -134.4 -140.8 0
v -134.4 -139.7333 0
v -133.3333 -139.7333 0
v -132.2667 -140.8 0
v -133.3333 -140.8 0
v -133.3333 -139.7333 0
v -132.2667 -139.7333 0
v -131.2 -140.8 0
v -132.2667 -140.8 0
v -132.2667 -139.7333 0
v -131.2 -139.7333 0
v -132.2667 -141.8667 0
v -133.3333 -141.8667 0
v -133.3333 -140.8 0
v -132.2667 -140.8 0
v -131.2 -141.8667 0
v -132.2667 -141.8667 0
v -132.2667 -140.8 0
v -131.2 -140.8 0
v -130.1333 -141.8667 0
v -131.2 -141.8667 0
v -131.2 -140.8 0
v -130.1333 -140.8 0
v -131.2 -142.9333 0
v -132.2667 -142.9333 0
v -132.2667 -141.8667 0
v -131.2 -141.8667 0
v -130.1333 -142.9333 0
v -131.2 -142.9333 0
v -131.2 -141.8667 0
v -130.1333 -141.8667 0
v -129.0667 -142.9333 0
v -130.1333 -142.9333 0
v -130.1333 -141.8667 0
v -129.0667 -141.8667 0
v -130.1333 -144 0
v -131.2 -144 0
v -131.2 -142.9333 0
v -130.1333 -142.9333 0
v -129.0667 -144 0
v -130.1333 -144 0
v -130.1333 -142.9333 0
v -129.0667 -142.9333 0
v -128 -144 0
v -129.0667 -144 0
v -129.0667 -142.9333 0
v -128 -142.9333 0
v -129.0667 -145.0667 0
v -130.1333 -145.0667 0
v -130.1333 -144 0
v -129.0667 -144 0
v -128 -145.0667 0
v -129.0667 -145.0667 0
v -129.0667 -144 0
v -128 -144 0
v -126.9333 -145.0667 0
v -128 -145.0667 0
v -128 -144 0
v -126.9333 -144 0
v -128 -146.1333 0
v -129.0667 -146.1333 0
v -129.0667 -145.0667 0
v -128 -145.0667 0
v -126.9333 -146.1333 0
v -128 -146.1333 0
v -128 -145.0667 0
v -126.9333 -145.0667 0
v -125.8667 -146.1333 0
v -126.9333 -146.1333 0
v -126.9333 -145.0667 0
v -125.8667 -145.0667 0
v -126.9333 -147.2 0
v -128 -147.2 0
v -128 -146.1333 0
v -126.9333 -146.1333 0
v -125.8667 -147.2 0
v -126.9333 -147.2 0
v -126.9333 -146.1333 0
v -125.8667 -146.1333 0
v -124.8 -147.2 0
v -125.8667 -147.2 0
v -125.8667 -146.1333 0
v -124.8 -146.1333 0
v -125.8667 -148.2667 0
v -126.9333 -148.2667 0
v -126.9333 -147.2 0
v -125.8667 -147.2 0
v -124.8 -148.2667 0
v -125.8667 -148.2667 0
v -125.8667 -147.2 0
v -124.8 -147.2 0
v -123.7333 -148.2667 0
v -124.8 -148.2667 0
v -124.8 -147.2 0
v -123.7333 -147.2 0
v -124.8 -149.3333 0
v -125.8667 -149.3333 0
v -125.8667 -148.2667 0
v -124.8 -148.2667 0
v -123.7333 -149.3333 0
v -124.8 -149.3333 0
v -124.8 -148.2667 0
v -123.7333 -148.2667 0
v -122.6667 -149.3333 0
v -123.7333 -149.3333 0
v -123.7333 -148.2667 0
v -122.6667 -148.2667 0
v -121.6 -149.3333 0
v -122.6667 -149.3333 0
v -122.6667 -148.2667 0
v -121.6 -148.2667 0
v -112 -149.3333 0
v -113.0667 -149.3333 0
v -113.0667 -148.2667 0
v -112 -148.2667 0
v -73.60001 -149.3333 0
v -74.66667 -149.3333 0
v -74.66667 -148.2667 0
v -73.60001 -148.2667 0
v -123.7333 -150.4 0
v -124.8 -150.4 0
v -124.8 -149.3333 0
v -123.7333 -149.3333 0
v -122.6667 -150.4 0
v -123.7333 -150.4 0
v -123.7333 -149.3333 0
v -122.6667 -149.3333 0
v -121.6 -150.4 0
v -122.6667 -150.4 0
v -122.6667 -149.3333 0
v -121.6 -149.3333 0
v -120.5333 -150.4 0
v -121.6 -150.4 0
v -121.6 -149.3333 0
v -120.5333 -149.3333 0
v -112 -150.4 0
v -113.0667 -150.4 0
v -113.0667 -149.3333 0
v -112 -149.3333 0
v -73.60001 -150.4 0
v -74.66667 -150.4 0
v -74.66667 -149.3333 0
v -73.60001 -149.3333 0
v -121.6 -151.4667 0
v -122.6667 -151.4667 0
v -122.6667 -150.4 0
v -121.6 -150.4 0
v -120.5333 -151.4667 0
v -121.6 -151.4667 0
v -121.6 -150.4 0
v -120.5333 -150.4 0
v -119.4667 -151.4667 0
v -120.5333 -151.4667 0
v -120.5333 -150.4 0
v -119.4667 -150.4 0
v -118.4 -151.4667 0
v -119.4667 -151.4667 0
v -119.4667 -150.4 0
v -118.4 -150.4 0
v -112 -151.4667 0
v -113.0667 -151.4667 0
v -113.0667 -150.4 0
v -112 -150.4 0
v -73.60001 -151.4667 0
v -74.66667 -151.4667 0
v -74.66667 -150.4 0
v -73.60001 -150.4 0
v -120.5333 -152.5333 0
v -121.6 -152.5333 0
v -121.6 -151.4667 0
v -120.5333 -151.4667 0
v -119.4667 -152.5333 0
v -120.5333 -152.5333 0
v -120.5333 -151.4667 0
v -119.4667 -151.4667 0
v -118.4 -152.5333 0
v -119.4667 -152.5333 0
v -119.4667 -151.4667 0
v -118.4 -151.4667 0
v -117.3333 -152.5333 0
v -118.4 -152.5333 0
v -118.4 -151.4667 0
v -117.3333 -151.4667 0
v -112 -152.5333 0
v -113.0667 -152.5333 0
v -113.0667 -151.4667 0
v -112 -151.4667 0
v -73.60001 -152.5333 0
v -74.66667 -152.5333 0
v -74.66667 -151.4667 0
v -73.60001 -151.4667 0
v -118.4 -153.6 0
v -119.4667 -153.6 0
v -119.4667 -152.5333 0
v -118.4 -152.5333 0
v -117.3333 -153.6 0
v -118.4 -153.6 0
v -118.4 -152.5333 0
v -117.3333 -152.5333 0
v -116.2667 -153.6 0
v -117.3333 -153.6 0
v -117.3333 -152.5333 0
v -116.2667 -152.5333 0
v -115.2 -153.6 0
v -116.2667 -153.6 0
v -116.2667 -152.5333 0
v -115.2 -152.5333 0
v -73.60001 -153.6 0
v -74.66667 -153.6 0
v -74.66667 -152.5333 0
v -73.60001 -152.5333 0
v -117.3333 -154.6667 0
v -118.4 -154.6667 0
v -118.4 -153.6 0
v -117.3333 -153.6 0
v -116.2667 -154.6667 0
v -117.3333 -154.6667 0
v -117.3333 -153.6 0
v -116.2667 -153.6 0
v -115.2 -154.6667 0
v -116.2667 -154.6667 0
v -116.2667 -153.6 0
v -115.2 -153.6 0
v -114.1333 -154.6667 0
v -115.2 -154.6667 0
v -115.2 -153.6 0
v -114.1333 -153.6 0
v -73.60001 -154.6667 0
v -74.66667 -154.6667 0
v -74.66667 -153.6 0
v -73.60001 -153.6 0
v -115.2 -155.7333 0
v -116.2667 -155.7333 0
v -116.2667 -154.6667 0
v -115.2 -154.6667 0
v -114.1333 -155.7333 0
v -115.2 -155.7333 0
v -115.2 -154.6667 0
v -114.1333 -154.6667 0
v -113.0667 -155.7333 0
v -114.1333 -155.7333 0
v -114.1333 -154.6667 0
v -113.0667 -154.6667 0
v -112 -155.7333 0
v -113.0667 -155.7333 0
v -113.0667 -154.6667 0
v -112 -154.6667 0
v -73.60001 -155.7333 0
v -74.66667 -155.7333 0
v -74.66667 -154.6667 0
v -73.60001 -154.6667 0
v -114.1333 -156.8 0
v -115.2 -156.8 0
v -115.2 -155.7333 0
v -114.1333 -155.7333 0
v -113.0667 -156.8 0
v -114.1333 -156.8 0
v -114.1333 -155.7333 0
v -113.0667 -155.7333 0
v -112 -156.8 0
v -113.0667 -156.8 0
v -113.0667 -155.7333 0
v -112 -155.7333 0
v -109.8667 -156.8 0
v -110.9333 -156.8 0
v -110.9333 -155.7333 0
v -109.8667 -155.7333 0
v -105.6 -156.8 0
v -106.6667 -156.8 0
v -106.6667 -155.7333 0
v -105.6 -155.7333 0
v -73.60001 -156.8 0
v -74.66667 -156.8 0
v -74.66667 -155.7333 0
v -73.60001 -155.7333 0
v -112 -157.8667 0
v -113.0667 -157.8667 0
v -113.0667 -156.8 0
v -112 -156.8 0
v -109.8667 -157.8667 0
v -110.9333 -157.8667 0
v -110.9333 -156.8 0
v -109.8667 -156.8 0
v -105.6 -157.8667 0
v -106.6667 -157.8667 0
v -106.6667 -156.8 0
v -105.6 -156.8 0
v -73.60001 -157.8667 0
v -74.66667 -157.8667 0
v -74.66667 -156.8 0
v -73.60001 -156.8 0
v -112 -158.9333 0
v -113.0667 -158.9333 0
v -113.0667 -157.8667 0
v -112 -157.8667 0
v -73.60001 -158.9333 0
v -74.66667 -158.9333 0
v -74.66667 -157.8667 0
v -73.60001 -157.8667 0
v -112 -160 0
v -113.0667 -160 0
v -113.0667 -158.9333 0
v -112 -158.9333 0
v -73.60001 -160 0
v -74.66667 -160 0
v -74.66667 -158.9333 0
v -73.60001 -158.9333 0
v -112 -161.0667 0
v -113.0667 -161.0667 0
v -113.0667 -160 0
v -112 -160 0
v -109.8667 -161.0667 0
v -110.9333 -161.0667 0
v -110.9333 -160 0
v -109.8667 -160 0
v -105.6 -161.0667 0
v -106.6667 -161.0667 0
v -106.6667 -160 0
v -105.6 -160 0
v -73.60001 -161.0667 0
v -74.66667 -161.0667 0
v -74.66667 -160 0
v -73.60001 -160 0
v -112 -162.1333 0
v -113.0667 -162.1333 0
v -113.0667 -161.0667 0
v -112 -161.0667 0
v -109.8667 -162.1333 0
v -110.9333 -162.1333 0
v -110.9333 -161.0667 0
v -109.8667 -161.0667 0
v -105.6 -162.1333 0
v -106.6667 -162.1333 0
v -106.6667 -161.0667 0
v -105.6 -161.0667 0
v -81.06667 -162.1333 0
v -82.13334 -162.1333 0
v -82.13334 -161.0667 0
v -81.06667 -161.0667 0
v -80.00001 -162.1333 0
v -81.06667 -162.1333 0
v -81.06667 -161.0667 0
v -80.00001 -161.0667 0
v -78.93333 -162.1333 0
v -80.00001 -162.1333 0
v -80.00001 -161.0667 0
v -78.93333 -161.0667 0
v -77.86667 -162.1333 0
v -78.93333 -162.1333 0
v -78.93333 -161.0667 0
v -77.86667 -161.0667 0
v -76.8 -162.1333 0
v -77.86667 -162.1333 0
v -77.86667 -161.0667 0
v -76.8 -161.0667 0
v -75.73334 -162.1333 0
v -76.8 -162.1333 0
v -76.8 -161.0667 0
v -75.73334 -161.0667 0
v -74.66667 -162.1333 0
v -75.73334 -162.1333 0
v -75.73334 -161.0667 0
v -74.66667 -161.0667 0
v -73.60001 -162.1333 0
v -74.66667 -162.1333 0
v -74.66667 -161.0667 0
v -73.60001 -161.0667 0
v -112 -163.2 0
v -113.0667 -163.2 0
v -113.0667 -162.1333 0
v -112 -162.1333 0
v -80.00001 -163.2 0
v -81.06667 -163.2 0
v -81.06667 -162.1333 0
v -80.00001 -162.1333 0
v -78.93333 -163.2 0
v -80.00001 -163.2 0
v -80.00001 -162.1333 0
v -78.93333 -162.1333 0
v -77.86667 -163.2 0
v -78.93333 -163.2 0
v -78.93333 -162.1333 0
v -77.86667 -162.1333 0
v -76.8 -163.2 0
v -77.86667 -163.2 0
v -77.86667 -162.1333 0
v -76.8 -162.1333 0
v -75.73334 -163.2 0
v -76.8 -163.2 0
v -76.8 -162.1333 0
v -75.73334 -162.1333 0
v -74.66667 -163.2 0
v -75.73334 -163.2 0
v -75.73334 -162.1333 0
v -74.66667 -162.1333 0
v -73.60001 -163.2 0
v -74.66667 -163.2 0
v -74.66667 -162.1333 0
v -73.60001 -162.1333 0
v -112 -164.2667 0
v -113.0667 -164.2667 0
v -113.0667 -163.2 0
v -112 -163.2 0
v -112 -165.3333 0
v -113.0667 -165.3333 0
v -113.0667 -164.2667 0
v -112 -164.2667 0
v -112 -166.4 0
v -113.0667 -166.4 0
v -113.0667 -165.3333 0
v -112 -165.3333 0

# Texture cooridinates (Count = 64)
vt 0.6322314 0.5817491
vt 0.6487603 0.5817491
vt 0.6487603 0.6121673
vt 0.6322314 0.6121673
vt 0.6146694 0.5817491
vt 0.6311983 0.5817491
vt 0.6311983 0.6121673
vt 0.6146694 0.6121673
vt 0.5971074 0.5817491
vt 0.6136364 0.5817491
vt 0.6136364 0.6121673
vt 0.5971074 0.6121673
vt 0.6497934 0.4847909
vt 0.6663223 0.4847909
vt 0.6663223 0.5152091
vt 0.6497934 0.5152091
vt 0.5971074 0.4847909
vt 0.6136364 0.4847909
vt 0.6136364 0.5152091
vt 0.5971074 0.5152091
vt 0.6146694 0.4847909
vt 0.6311983 0.4847909
vt 0.6311983 0.5152091
vt 0.6146694 0.5152091
vt 0.6497934 0.5817491
vt 0.6663223 0.5817491
vt 0.6663223 0.6121673
vt 0.6497934 0.6121673
vt 0.6673554 0.5494297
vt 0.6838843 0.5494297
vt 0.6838843 0.5798479
vt 0.6673554 0.5798479
vt 0.5971074 0.5494297
vt 0.6136364 0.5494297
vt 0.6136364 0.5798479
vt 0.5971074 0.5798479
vt 0.6322314 0.5494297
vt 0.6487603 0.5494297
vt 0.6487603 0.5798479
vt 0.6322314 0.5798479
vt 0.5971074 0.5171102
vt 0.6136364 0.5171102
vt 0.6136364 0.5475285
vt 0.5971074 0.5475285
vt 0.6322314 0.4847909
vt 0.6487603 0.4847909
vt 0.6487603 0.5152091
vt 0.6322314 0.5152091
vt 0.5971074 0.3231939
vt 0.6136364 0.3231939
vt 0.6136364 0.3536122
vt 0.5971074 0.3536122
vt 0.5971074 0.3555133
vt 0.6136364 0.3555133
vt 0.6136364 0.3859316
vt 0.5971074 0.3859316
vt 0.6146694 0.3555133
vt 0.6311983 0.3555133
vt 0.6311983 0.3859316
vt 0.6146694 0.3859316
vt 0.6497934 0.5494297
vt 0.6663223 0.5494297
vt 0.6663223 0.5798479
vt 0.6497934 0.5798479

# Normal
vn 0 0 -1

# Mesh description
g CS-Floor1_mesh_0004

# Faces
f 1/1/1 2/2/1 3/3/1 4/4/1
f 5/5/1 6/6/1 7/7/1 8/8/1
f 9/5/1 10/6/1 11/7/1 12/8/1
f 13/5/1 14/6/1 15/7/1 16/8/1
f 17/5/1 18/6/1 19/7/1 20/8/1
f 21/5/1 22/6/1 23/7/1 24/8/1
f 25/5/1 26/6/1 27/7/1 28/8/1
f 29/5/1 30/6/1 31/7/1 32/8/1
f 33/5/1 34/6/1 35/7/1 36/8/1
f 37/5/1 38/6/1 39/7/1 40/8/1
f 41/5/1 42/6/1 43/7/1 44/8/1
f 45/5/1 46/6/1 47/7/1 48/8/1
f 49/5/1 50/6/1 51/7/1 52/8/1
f 53/5/1 54/6/1 55/7/1 56/8/1
f 57/5/1 58/6/1 59/7/1 60/8/1
f 61/9/1 62/10/1 63/11/1 64/12/1
f 65/13/1 66/14/1 67/15/1 68/16/1
f 69/17/1 70/18/1 71/19/1 72/20/1
f 73/17/1 74/18/1 75/19/1 76/20/1
f 77/17/1 78/18/1 79/19/1 80/20/1
f 81/17/1 82/18/1 83/19/1 84/20/1
f 85/17/1 86/18/1 87/19/1 88/20/1
f 89/17/1 90/18/1 91/19/1 92/20/1
f 93/17/1 94/18/1 95/19/1 96/20/1
f 97/17/1 98/18/1 99/19/1 100/20/1
f 101/17/1 102/18/1 103/19/1 104/20/1
f 105/17/1 106/18/1 107/19/1 108/20/1
f 109/17/1 110/18/1 111/19/1 112/20/1
f 113/17/1 114/18/1 115/19/1 116/20/1
f 117/17/1 118/18/1 119/19/1 120/20/1
f 121/17/1 122/18/1 123/19/1 124/20/1
f 125/21/1 126/22/1 127/23/1 128/24/1
f 129/5/1 130/6/1 131/7/1 132/8/1
f 133/5/1 134/6/1 135/7/1 136/8/1
f 137/5/1 138/6/1 139/7/1 140/8/1
f 141/5/1 142/6/1 143/7/1 144/8/1
f 145/5/1 146/6/1 147/7/1 148/8/1
f 149/5/1 150/6/1 151/7/1 152/8/1
f 153/5/1 154/6/1 155/7/1 156/8/1
f 157/5/1 158/6/1 159/7/1 160/8/1
f 161/25/1 162/26/1 163/27/1 164/28/1
f 165/17/1 166/18/1 167/19/1 168/20/1
f 169/17/1 170/18/1 171/19/1 172/20/1
f 173/17/1 174/18/1 175/19/1 176/20/1
f 177/17/1 178/18/1 179/19/1 180/20/1
f 181/17/1 182/18/1 183/19/1 184/20/1
f 185/17/1 186/18/1 187/19/1 188/20/1
f 189/17/1 190/18/1 191/19/1 192/20/1
f 193/17/1 194/18/1 195/19/1 196/20/1
f 197/29/1 198/30/1 199/31/1 200/32/1
f 201/25/1 202/26/1 203/27/1 204/28/1
f 205/13/1 206/14/1 207/15/1 208/16/1
f 209/29/1 210/30/1 211/31/1 212/32/1
f 213/25/1 214/26/1 215/27/1 216/28/1
f 217/13/1 218/14/1 219/15/1 220/16/1
f 221/29/1 222/30/1 223/31/1 224/32/1
f 225/25/1 226/26/1 227/27/1 228/28/1
f 229/13/1 230/14/1 231/15/1 232/16/1
f 233/29/1 234/30/1 235/31/1 236/32/1
f 237/25/1 238/26/1 239/27/1 240/28/1
f 241/13/1 242/14/1 243/15/1 244/16/1
f 245/29/1 246/30/1 247/31/1 248/32/1
f 249/25/1 250/26/1 251/27/1 252/28/1
f 253/13/1 254/14/1 255/15/1 256/16/1
f 257/29/1 258/30/1 259/31/1 260/32/1
f 261/25/1 262/26/1 263/27/1 264/28/1
f 265/13/1 266/14/1 267/15/1 268/16/1
f 269/29/1 270/30/1 271/31/1 272/32/1
f 273/25/1 274/26/1 275/27/1 276/28/1
f 277/13/1 278/14/1 279/15/1 280/16/1
f 281/29/1 282/30/1 283/31/1 284/32/1
f 285/25/1 286/26/1 287/27/1 288/28/1
f 289/13/1 290/14/1 291/15/1 292/16/1
f 293/29/1 294/30/1 295/31/1 296/32/1
f 297/25/1 298/26/1 299/27/1 300/28/1
f 301/13/1 302/14/1 303/15/1 304/16/1
f 305/29/1 306/30/1 307/31/1 308/32/1
f 309/25/1 310/26/1 311/27/1 312/28/1
f 313/13/1 314/14/1 315/15/1 316/16/1
f 317/29/1 318/30/1 319/31/1 320/32/1
f 321/25/1 322/26/1 323/27/1 324/28/1
f 325/13/1 326/14/1 327/15/1 328/16/1
f 329/29/1 330/30/1 331/31/1 332/32/1
f 333/25/1 334/26/1 335/27/1 336/28/1
f 337/13/1 338/14/1 339/15/1 340/16/1
f 341/29/1 342/30/1 343/31/1 344/32/1
f 345/25/1 346/26/1 347/27/1 348/28/1
f 349/13/1 350/14/1 351/15/1 352/16/1
f 353/29/1 354/30/1 355/31/1 356/32/1
f 357/5/1 358/6/1 359/7/1 360/8/1
f 361/25/1 362/26/1 363/27/1 364/28/1
f 365/33/1 366/34/1 367/35/1 368/36/1
f 369/33/1 370/34/1 371/35/1 372/36/1
f 373/13/1 374/14/1 375/15/1 376/16/1
f 377/17/1 378/18/1 379/19/1 380/20/1
f 381/29/1 382/30/1 383/31/1 384/32/1
f 385/25/1 386/26/1 387/27/1 388/28/1
f 389/37/1 390/38/1 391/39/1 392/40/1
f 393/37/1 394/38/1 395/39/1 396/40/1
f 397/13/1 398/14/1 399/15/1 400/16/1
f 401/29/1 402/30/1 403/31/1 404/32/1
f 405/5/1 406/6/1 407/7/1 408/8/1
f 409/25/1 410/26/1 411/27/1 412/28/1
f 413/41/1 414/42/1 415/43/1 416/44/1
f 417/37/1 418/38/1 419/39/1 420/40/1
f 421/13/1 422/14/1 423/15/1 424/16/1
f 425/17/1 426/18/1 427/19/1 428/20/1
f 429/29/1 430/30/1 431/31/1 432/32/1
f 433/25/1 434/26/1 435/27/1 436/28/1
f 437/45/1 438/46/1 439/47/1 440/48/1
f 441/37/1 442/38/1 443/39/1 444/40/1
f 445/13/1 446/14/1 447/15/1 448/16/1
f 449/29/1 450/30/1 451/31/1 452/32/1
f 453/5/1 454/6/1 455/7/1 456/8/1
f 457/25/1 458/26/1 459/27/1 460/28/1
f 461/37/1 462/38/1 463/39/1 464/40/1
f 465/13/1 466/14/1 467/15/1 468/16/1
f 469/17/1 470/18/1 471/19/1 472/20/1
f 473/29/1 474/30/1 475/31/1 476/32/1
f 477/25/1 478/26/1 479/27/1 480/28/1
f 481/37/1 482/38/1 483/39/1 484/40/1
f 485/13/1 486/14/1 487/15/1 488/16/1
f 489/29/1 490/30/1 491/31/1 492/32/1
f 493/5/1 494/6/1 495/7/1 496/8/1
f 497/25/1 498/26/1 499/27/1 500/28/1
f 501/37/1 502/38/1 503/39/1 504/40/1
f 505/13/1 506/14/1 507/15/1 508/16/1
f 509/17/1 510/18/1 511/19/1 512/20/1
f 513/37/1 514/38/1 515/39/1 516/40/1
f 517/49/1 518/50/1 519/51/1 520/52/1
f 521/49/1 522/50/1 523/51/1 524/52/1
f 525/37/1 526/38/1 527/39/1 528/40/1
f 529/37/1 530/38/1 531/39/1 532/40/1
f 533/53/1 534/54/1 535/55/1 536/56/1
f 537/57/1 538/58/1 539/59/1 540/60/1
f 541/37/1 542/38/1 543/39/1 544/40/1
f 545/37/1 546/38/1 547/39/1 548/40/1
f 549/37/1 550/38/1 551/39/1 552/40/1
f 553/37/1 554/38/1 555/39/1 556/40/1
f 557/37/1 558/38/1 559/39/1 560/40/1
f 561/37/1 562/38/1 563/39/1 564/40/1
f 565/49/1 566/50/1 567/51/1 568/52/1
f 569/49/1 570/50/1 571/51/1 572/52/1
f 573/37/1 574/38/1 575/39/1 576/40/1
f 577/37/1 578/38/1 579/39/1 580/40/1
f 581/57/1 582/58/1 583/59/1 584/60/1
f 585/53/1 586/54/1 587/55/1 588/56/1
f 589/5/1 590/6/1 591/7/1 592/8/1
f 593/5/1 594/6/1 595/7/1 596/8/1
f 597/5/1 598/6/1 599/7/1 600/8/1
f 601/5/1 602/6/1 603/7/1 604/8/1
f 605/5/1 606/6/1 607/7/1 608/8/1
f 609/5/1 610/6/1 611/7/1 612/8/1
f 613/5/1 614/6/1 615/7/1 616/8/1
f 617/61/1 618/62/1 619/63/1 620/64/1
f 621/37/1 622/38/1 623/39/1 624/40/1
f 625/17/1 626/18/1 627/19/1 628/20/1
f 629/17/1 630/18/1 631/19/1 632/20/1
f 633/17/1 634/18/1 635/19/1 636/20/1
f 637/17/1 638/18/1 639/19/1 640/20/1
f 641/17/1 642/18/1 643/19/1 644/20/1
f 645/17/1 646/18/1 647/19/1 648/20/1
f 649/21/1 650/22/1 651/23/1 652/24/1
f 653/37/1 654/38/1 655/39/1 656/40/1
f 657/37/1 658/38/1 659/39/1 660/40/1
f 661/37/1 662/38/1 663/39/1 664/40/1

