# Tiled2Unity generated file. Do not modify by hand.
# Wavefront file for 'CS-Floor1_mesh_0006.obj'

# Vertices (Count = 24)
v -129.0667 -131.2 0
v -130.1333 -131.2 0
v -130.1333 -130.1333 0
v -129.0667 -130.1333 0
v -125.8667 -134.4 0
v -126.9333 -134.4 0
v -126.9333 -133.3333 0
v -125.8667 -133.3333 0
v -122.6667 -137.6 0
v -123.7333 -137.6 0
v -123.7333 -136.5333 0
v -122.6667 -136.5333 0
v -119.4667 -140.8 0
v -120.5333 -140.8 0
v -120.5333 -139.7333 0
v -119.4667 -139.7333 0
v -116.2667 -144 0
v -117.3333 -144 0
v -117.3333 -142.9333 0
v -116.2667 -142.9333 0
v -113.0667 -147.2 0
v -114.1333 -147.2 0
v -114.1333 -146.1333 0
v -113.0667 -146.1333 0

# Texture cooridinates (Count = 4)
vt 0.3161157 0.7110266
vt 0.3326446 0.7110266
vt 0.3326446 0.7414448
vt 0.3161157 0.7414448

# Normal
vn 0 0 -1

# Mesh description
g CS-Floor1_mesh_0006

# Faces
f 1/1/1 2/2/1 3/3/1 4/4/1
f 5/1/1 6/2/1 7/3/1 8/4/1
f 9/1/1 10/2/1 11/3/1 12/4/1
f 13/1/1 14/2/1 15/3/1 16/4/1
f 17/1/1 18/2/1 19/3/1 20/4/1
f 21/1/1 22/2/1 23/3/1 24/4/1

