# Tiled2Unity generated file. Do not modify by hand.
# Wavefront file for 'CS-Floor1_mesh_0010.obj'

# Vertices (Count = 36)
v -133.3333 -121.6 0
v -134.4 -121.6 0
v -134.4 -120.5333 0
v -133.3333 -120.5333 0
v -128 -137.6 0
v -129.0667 -137.6 0
v -129.0667 -136.5333 0
v -128 -136.5333 0
v -120.5333 -145.0667 0
v -121.6 -145.0667 0
v -121.6 -144 0
v -120.5333 -144 0
v -116.2667 -150.4 0
v -117.3333 -150.4 0
v -117.3333 -149.3333 0
v -116.2667 -149.3333 0
v -101.3333 -152.5333 0
v -102.4 -152.5333 0
v -102.4 -151.4667 0
v -101.3333 -151.4667 0
v -108.8 -155.7333 0
v -109.8667 -155.7333 0
v -109.8667 -154.6667 0
v -108.8 -154.6667 0
v -99.2 -158.9333 0
v -100.2667 -158.9333 0
v -100.2667 -157.8667 0
v -99.2 -157.8667 0
v -101.3333 -160 0
v -102.4 -160 0
v -102.4 -158.9333 0
v -101.3333 -158.9333 0
v -105.6 -165.3333 0
v -106.6667 -165.3333 0
v -106.6667 -164.2667 0
v -105.6 -164.2667 0

# Texture cooridinates (Count = 8)
vt 0.2418699 0.947541
vt 0.2743903 0.947541
vt 0.2743903 1
vt 0.2418699 1
vt 0.2418699 0.8918033
vt 0.2743903 0.8918033
vt 0.2743903 0.9442623
vt 0.2418699 0.9442623

# Normal
vn 0 0 -1

# Mesh description
g CS-Floor1_mesh_0010

# Faces
f 1/1/1 2/2/1 3/3/1 4/4/1
f 5/5/1 6/6/1 7/7/1 8/8/1
f 9/5/1 10/6/1 11/7/1 12/8/1
f 13/1/1 14/2/1 15/3/1 16/4/1
f 17/1/1 18/2/1 19/3/1 20/4/1
f 21/1/1 22/2/1 23/3/1 24/4/1
f 25/5/1 26/6/1 27/7/1 28/8/1
f 29/5/1 30/6/1 31/7/1 32/8/1
f 33/5/1 34/6/1 35/7/1 36/8/1

