# Tiled2Unity generated file. Do not modify by hand.
# Wavefront file for 'CS-Floor1_mesh_0004.obj'

# Vertices (Count = 596)
v -147.2 -112 0
v -148.2667 -112 0
v -148.2667 -110.9333 0
v -147.2 -110.9333 0
v -146.1333 -112 0
v -147.2 -112 0
v -147.2 -110.9333 0
v -146.1333 -110.9333 0
v -145.0667 -112 0
v -146.1333 -112 0
v -146.1333 -110.9333 0
v -145.0667 -110.9333 0
v -144 -112 0
v -145.0667 -112 0
v -145.0667 -110.9333 0
v -144 -110.9333 0
v -142.9333 -112 0
v -144 -112 0
v -144 -110.9333 0
v -142.9333 -110.9333 0
v -141.8667 -112 0
v -142.9333 -112 0
v -142.9333 -110.9333 0
v -141.8667 -110.9333 0
v -140.8 -112 0
v -141.8667 -112 0
v -141.8667 -110.9333 0
v -140.8 -110.9333 0
v -139.7333 -112 0
v -140.8 -112 0
v -140.8 -110.9333 0
v -139.7333 -110.9333 0
v -138.6667 -112 0
v -139.7333 -112 0
v -139.7333 -110.9333 0
v -138.6667 -110.9333 0
v -137.6 -112 0
v -138.6667 -112 0
v -138.6667 -110.9333 0
v -137.6 -110.9333 0
v -136.5333 -112 0
v -137.6 -112 0
v -137.6 -110.9333 0
v -136.5333 -110.9333 0
v -135.4667 -112 0
v -136.5333 -112 0
v -136.5333 -110.9333 0
v -135.4667 -110.9333 0
v -134.4 -112 0
v -135.4667 -112 0
v -135.4667 -110.9333 0
v -134.4 -110.9333 0
v -133.3333 -112 0
v -134.4 -112 0
v -134.4 -110.9333 0
v -133.3333 -110.9333 0
v -132.2667 -112 0
v -133.3333 -112 0
v -133.3333 -110.9333 0
v -132.2667 -110.9333 0
v -131.2 -112 0
v -132.2667 -112 0
v -132.2667 -110.9333 0
v -131.2 -110.9333 0
v -146.1333 -134.4 0
v -147.2 -134.4 0
v -147.2 -133.3333 0
v -146.1333 -133.3333 0
v -145.0667 -134.4 0
v -146.1333 -134.4 0
v -146.1333 -133.3333 0
v -145.0667 -133.3333 0
v -144 -134.4 0
v -145.0667 -134.4 0
v -145.0667 -133.3333 0
v -144 -133.3333 0
v -142.9333 -134.4 0
v -144 -134.4 0
v -144 -133.3333 0
v -142.9333 -133.3333 0
v -141.8667 -134.4 0
v -142.9333 -134.4 0
v -142.9333 -133.3333 0
v -141.8667 -133.3333 0
v -140.8 -134.4 0
v -141.8667 -134.4 0
v -141.8667 -133.3333 0
v -140.8 -133.3333 0
v -139.7333 -134.4 0
v -140.8 -134.4 0
v -140.8 -133.3333 0
v -139.7333 -133.3333 0
v -138.6667 -134.4 0
v -139.7333 -134.4 0
v -139.7333 -133.3333 0
v -138.6667 -133.3333 0
v -137.6 -134.4 0
v -138.6667 -134.4 0
v -138.6667 -133.3333 0
v -137.6 -133.3333 0
v -146.1333 -135.4667 0
v -147.2 -135.4667 0
v -147.2 -134.4 0
v -146.1333 -134.4 0
v -145.0667 -135.4667 0
v -146.1333 -135.4667 0
v -146.1333 -134.4 0
v -145.0667 -134.4 0
v -144 -135.4667 0
v -145.0667 -135.4667 0
v -145.0667 -134.4 0
v -144 -134.4 0
v -142.9333 -135.4667 0
v -144 -135.4667 0
v -144 -134.4 0
v -142.9333 -134.4 0
v -141.8667 -135.4667 0
v -142.9333 -135.4667 0
v -142.9333 -134.4 0
v -141.8667 -134.4 0
v -140.8 -135.4667 0
v -141.8667 -135.4667 0
v -141.8667 -134.4 0
v -140.8 -134.4 0
v -139.7333 -135.4667 0
v -140.8 -135.4667 0
v -140.8 -134.4 0
v -139.7333 -134.4 0
v -138.6667 -135.4667 0
v -139.7333 -135.4667 0
v -139.7333 -134.4 0
v -138.6667 -134.4 0
v -137.6 -135.4667 0
v -138.6667 -135.4667 0
v -138.6667 -134.4 0
v -137.6 -134.4 0
v -136.5333 -135.4667 0
v -137.6 -135.4667 0
v -137.6 -134.4 0
v -136.5333 -134.4 0
v -137.6 -136.5333 0
v -138.6667 -136.5333 0
v -138.6667 -135.4667 0
v -137.6 -135.4667 0
v -136.5333 -136.5333 0
v -137.6 -136.5333 0
v -137.6 -135.4667 0
v -136.5333 -135.4667 0
v -135.4667 -136.5333 0
v -136.5333 -136.5333 0
v -136.5333 -135.4667 0
v -135.4667 -135.4667 0
v -136.5333 -137.6 0
v -137.6 -137.6 0
v -137.6 -136.5333 0
v -136.5333 -136.5333 0
v -135.4667 -137.6 0
v -136.5333 -137.6 0
v -136.5333 -136.5333 0
v -135.4667 -136.5333 0
v -134.4 -137.6 0
v -135.4667 -137.6 0
v -135.4667 -136.5333 0
v -134.4 -136.5333 0
v -135.4667 -138.6667 0
v -136.5333 -138.6667 0
v -136.5333 -137.6 0
v -135.4667 -137.6 0
v -134.4 -138.6667 0
v -135.4667 -138.6667 0
v -135.4667 -137.6 0
v -134.4 -137.6 0
v -133.3333 -138.6667 0
v -134.4 -138.6667 0
v -134.4 -137.6 0
v -133.3333 -137.6 0
v -134.4 -139.7333 0
v -135.4667 -139.7333 0
v -135.4667 -138.6667 0
v -134.4 -138.6667 0
v -133.3333 -139.7333 0
v -134.4 -139.7333 0
v -134.4 -138.6667 0
v -133.3333 -138.6667 0
v -132.2667 -139.7333 0
v -133.3333 -139.7333 0
v -133.3333 -138.6667 0
v -132.2667 -138.6667 0
v -133.3333 -140.8 0
v -134.4 -140.8 0
v -134.4 -139.7333 0
v -133.3333 -139.7333 0
v -132.2667 -140.8 0
v -133.3333 -140.8 0
v -133.3333 -139.7333 0
v -132.2667 -139.7333 0
v -131.2 -140.8 0
v -132.2667 -140.8 0
v -132.2667 -139.7333 0
v -131.2 -139.7333 0
v -132.2667 -141.8667 0
v -133.3333 -141.8667 0
v -133.3333 -140.8 0
v -132.2667 -140.8 0
v -131.2 -141.8667 0
v -132.2667 -141.8667 0
v -132.2667 -140.8 0
v -131.2 -140.8 0
v -130.1333 -141.8667 0
v -131.2 -141.8667 0
v -131.2 -140.8 0
v -130.1333 -140.8 0
v -131.2 -142.9333 0
v -132.2667 -142.9333 0
v -132.2667 -141.8667 0
v -131.2 -141.8667 0
v -130.1333 -142.9333 0
v -131.2 -142.9333 0
v -131.2 -141.8667 0
v -130.1333 -141.8667 0
v -129.0667 -142.9333 0
v -130.1333 -142.9333 0
v -130.1333 -141.8667 0
v -129.0667 -141.8667 0
v -130.1333 -144 0
v -131.2 -144 0
v -131.2 -142.9333 0
v -130.1333 -142.9333 0
v -129.0667 -144 0
v -130.1333 -144 0
v -130.1333 -142.9333 0
v -129.0667 -142.9333 0
v -128 -144 0
v -129.0667 -144 0
v -129.0667 -142.9333 0
v -128 -142.9333 0
v -129.0667 -145.0667 0
v -130.1333 -145.0667 0
v -130.1333 -144 0
v -129.0667 -144 0
v -128 -145.0667 0
v -129.0667 -145.0667 0
v -129.0667 -144 0
v -128 -144 0
v -126.9333 -145.0667 0
v -128 -145.0667 0
v -128 -144 0
v -126.9333 -144 0
v -128 -146.1333 0
v -129.0667 -146.1333 0
v -129.0667 -145.0667 0
v -128 -145.0667 0
v -126.9333 -146.1333 0
v -128 -146.1333 0
v -128 -145.0667 0
v -126.9333 -145.0667 0
v -125.8667 -146.1333 0
v -126.9333 -146.1333 0
v -126.9333 -145.0667 0
v -125.8667 -145.0667 0
v -126.9333 -147.2 0
v -128 -147.2 0
v -128 -146.1333 0
v -126.9333 -146.1333 0
v -125.8667 -147.2 0
v -126.9333 -147.2 0
v -126.9333 -146.1333 0
v -125.8667 -146.1333 0
v -124.8 -147.2 0
v -125.8667 -147.2 0
v -125.8667 -146.1333 0
v -124.8 -146.1333 0
v -125.8667 -148.2667 0
v -126.9333 -148.2667 0
v -126.9333 -147.2 0
v -125.8667 -147.2 0
v -124.8 -148.2667 0
v -125.8667 -148.2667 0
v -125.8667 -147.2 0
v -124.8 -147.2 0
v -123.7333 -148.2667 0
v -124.8 -148.2667 0
v -124.8 -147.2 0
v -123.7333 -147.2 0
v -124.8 -149.3333 0
v -125.8667 -149.3333 0
v -125.8667 -148.2667 0
v -124.8 -148.2667 0
v -123.7333 -149.3333 0
v -124.8 -149.3333 0
v -124.8 -148.2667 0
v -123.7333 -148.2667 0
v -122.6667 -149.3333 0
v -123.7333 -149.3333 0
v -123.7333 -148.2667 0
v -122.6667 -148.2667 0
v -121.6 -149.3333 0
v -122.6667 -149.3333 0
v -122.6667 -148.2667 0
v -121.6 -148.2667 0
v -112 -149.3333 0
v -113.0667 -149.3333 0
v -113.0667 -148.2667 0
v -112 -148.2667 0
v -73.60001 -149.3333 0
v -74.66667 -149.3333 0
v -74.66667 -148.2667 0
v -73.60001 -148.2667 0
v -123.7333 -150.4 0
v -124.8 -150.4 0
v -124.8 -149.3333 0
v -123.7333 -149.3333 0
v -122.6667 -150.4 0
v -123.7333 -150.4 0
v -123.7333 -149.3333 0
v -122.6667 -149.3333 0
v -121.6 -150.4 0
v -122.6667 -150.4 0
v -122.6667 -149.3333 0
v -121.6 -149.3333 0
v -120.5333 -150.4 0
v -121.6 -150.4 0
v -121.6 -149.3333 0
v -120.5333 -149.3333 0
v -112 -150.4 0
v -113.0667 -150.4 0
v -113.0667 -149.3333 0
v -112 -149.3333 0
v -73.60001 -150.4 0
v -74.66667 -150.4 0
v -74.66667 -149.3333 0
v -73.60001 -149.3333 0
v -121.6 -151.4667 0
v -122.6667 -151.4667 0
v -122.6667 -150.4 0
v -121.6 -150.4 0
v -120.5333 -151.4667 0
v -121.6 -151.4667 0
v -121.6 -150.4 0
v -120.5333 -150.4 0
v -119.4667 -151.4667 0
v -120.5333 -151.4667 0
v -120.5333 -150.4 0
v -119.4667 -150.4 0
v -118.4 -151.4667 0
v -119.4667 -151.4667 0
v -119.4667 -150.4 0
v -118.4 -150.4 0
v -112 -151.4667 0
v -113.0667 -151.4667 0
v -113.0667 -150.4 0
v -112 -150.4 0
v -73.60001 -151.4667 0
v -74.66667 -151.4667 0
v -74.66667 -150.4 0
v -73.60001 -150.4 0
v -120.5333 -152.5333 0
v -121.6 -152.5333 0
v -121.6 -151.4667 0
v -120.5333 -151.4667 0
v -119.4667 -152.5333 0
v -120.5333 -152.5333 0
v -120.5333 -151.4667 0
v -119.4667 -151.4667 0
v -118.4 -152.5333 0
v -119.4667 -152.5333 0
v -119.4667 -151.4667 0
v -118.4 -151.4667 0
v -117.3333 -152.5333 0
v -118.4 -152.5333 0
v -118.4 -151.4667 0
v -117.3333 -151.4667 0
v -73.60001 -152.5333 0
v -74.66667 -152.5333 0
v -74.66667 -151.4667 0
v -73.60001 -151.4667 0
v -118.4 -153.6 0
v -119.4667 -153.6 0
v -119.4667 -152.5333 0
v -118.4 -152.5333 0
v -117.3333 -153.6 0
v -118.4 -153.6 0
v -118.4 -152.5333 0
v -117.3333 -152.5333 0
v -116.2667 -153.6 0
v -117.3333 -153.6 0
v -117.3333 -152.5333 0
v -116.2667 -152.5333 0
v -115.2 -153.6 0
v -116.2667 -153.6 0
v -116.2667 -152.5333 0
v -115.2 -152.5333 0
v -73.60001 -153.6 0
v -74.66667 -153.6 0
v -74.66667 -152.5333 0
v -73.60001 -152.5333 0
v -117.3333 -154.6667 0
v -118.4 -154.6667 0
v -118.4 -153.6 0
v -117.3333 -153.6 0
v -116.2667 -154.6667 0
v -117.3333 -154.6667 0
v -117.3333 -153.6 0
v -116.2667 -153.6 0
v -115.2 -154.6667 0
v -116.2667 -154.6667 0
v -116.2667 -153.6 0
v -115.2 -153.6 0
v -114.1333 -154.6667 0
v -115.2 -154.6667 0
v -115.2 -153.6 0
v -114.1333 -153.6 0
v -73.60001 -154.6667 0
v -74.66667 -154.6667 0
v -74.66667 -153.6 0
v -73.60001 -153.6 0
v -115.2 -155.7333 0
v -116.2667 -155.7333 0
v -116.2667 -154.6667 0
v -115.2 -154.6667 0
v -114.1333 -155.7333 0
v -115.2 -155.7333 0
v -115.2 -154.6667 0
v -114.1333 -154.6667 0
v -113.0667 -155.7333 0
v -114.1333 -155.7333 0
v -114.1333 -154.6667 0
v -113.0667 -154.6667 0
v -112 -155.7333 0
v -113.0667 -155.7333 0
v -113.0667 -154.6667 0
v -112 -154.6667 0
v -73.60001 -155.7333 0
v -74.66667 -155.7333 0
v -74.66667 -154.6667 0
v -73.60001 -154.6667 0
v -114.1333 -156.8 0
v -115.2 -156.8 0
v -115.2 -155.7333 0
v -114.1333 -155.7333 0
v -113.0667 -156.8 0
v -114.1333 -156.8 0
v -114.1333 -155.7333 0
v -113.0667 -155.7333 0
v -112 -156.8 0
v -113.0667 -156.8 0
v -113.0667 -155.7333 0
v -112 -155.7333 0
v -109.8667 -156.8 0
v -110.9333 -156.8 0
v -110.9333 -155.7333 0
v -109.8667 -155.7333 0
v -105.6 -156.8 0
v -106.6667 -156.8 0
v -106.6667 -155.7333 0
v -105.6 -155.7333 0
v -73.60001 -156.8 0
v -74.66667 -156.8 0
v -74.66667 -155.7333 0
v -73.60001 -155.7333 0
v -112 -157.8667 0
v -113.0667 -157.8667 0
v -113.0667 -156.8 0
v -112 -156.8 0
v -109.8667 -157.8667 0
v -110.9333 -157.8667 0
v -110.9333 -156.8 0
v -109.8667 -156.8 0
v -105.6 -157.8667 0
v -106.6667 -157.8667 0
v -106.6667 -156.8 0
v -105.6 -156.8 0
v -73.60001 -157.8667 0
v -74.66667 -157.8667 0
v -74.66667 -156.8 0
v -73.60001 -156.8 0
v -112 -158.9333 0
v -113.0667 -158.9333 0
v -113.0667 -157.8667 0
v -112 -157.8667 0
v -73.60001 -158.9333 0
v -74.66667 -158.9333 0
v -74.66667 -157.8667 0
v -73.60001 -157.8667 0
v -112 -160 0
v -113.0667 -160 0
v -113.0667 -158.9333 0
v -112 -158.9333 0
v -73.60001 -160 0
v -74.66667 -160 0
v -74.66667 -158.9333 0
v -73.60001 -158.9333 0
v -112 -161.0667 0
v -113.0667 -161.0667 0
v -113.0667 -160 0
v -112 -160 0
v -109.8667 -161.0667 0
v -110.9333 -161.0667 0
v -110.9333 -160 0
v -109.8667 -160 0
v -105.6 -161.0667 0
v -106.6667 -161.0667 0
v -106.6667 -160 0
v -105.6 -160 0
v -73.60001 -161.0667 0
v -74.66667 -161.0667 0
v -74.66667 -160 0
v -73.60001 -160 0
v -112 -162.1333 0
v -113.0667 -162.1333 0
v -113.0667 -161.0667 0
v -112 -161.0667 0
v -109.8667 -162.1333 0
v -110.9333 -162.1333 0
v -110.9333 -161.0667 0
v -109.8667 -161.0667 0
v -105.6 -162.1333 0
v -106.6667 -162.1333 0
v -106.6667 -161.0667 0
v -105.6 -161.0667 0
v -81.06667 -162.1333 0
v -82.13334 -162.1333 0
v -82.13334 -161.0667 0
v -81.06667 -161.0667 0
v -80.00001 -162.1333 0
v -81.06667 -162.1333 0
v -81.06667 -161.0667 0
v -80.00001 -161.0667 0
v -78.93333 -162.1333 0
v -80.00001 -162.1333 0
v -80.00001 -161.0667 0
v -78.93333 -161.0667 0
v -77.86667 -162.1333 0
v -78.93333 -162.1333 0
v -78.93333 -161.0667 0
v -77.86667 -161.0667 0
v -76.8 -162.1333 0
v -77.86667 -162.1333 0
v -77.86667 -161.0667 0
v -76.8 -161.0667 0
v -75.73334 -162.1333 0
v -76.8 -162.1333 0
v -76.8 -161.0667 0
v -75.73334 -161.0667 0
v -74.66667 -162.1333 0
v -75.73334 -162.1333 0
v -75.73334 -161.0667 0
v -74.66667 -161.0667 0
v -73.60001 -162.1333 0
v -74.66667 -162.1333 0
v -74.66667 -161.0667 0
v -73.60001 -161.0667 0
v -112 -163.2 0
v -113.0667 -163.2 0
v -113.0667 -162.1333 0
v -112 -162.1333 0
v -80.00001 -163.2 0
v -81.06667 -163.2 0
v -81.06667 -162.1333 0
v -80.00001 -162.1333 0
v -78.93333 -163.2 0
v -80.00001 -163.2 0
v -80.00001 -162.1333 0
v -78.93333 -162.1333 0
v -77.86667 -163.2 0
v -78.93333 -163.2 0
v -78.93333 -162.1333 0
v -77.86667 -162.1333 0
v -76.8 -163.2 0
v -77.86667 -163.2 0
v -77.86667 -162.1333 0
v -76.8 -162.1333 0
v -75.73334 -163.2 0
v -76.8 -163.2 0
v -76.8 -162.1333 0
v -75.73334 -162.1333 0
v -74.66667 -163.2 0
v -75.73334 -163.2 0
v -75.73334 -162.1333 0
v -74.66667 -162.1333 0
v -73.60001 -163.2 0
v -74.66667 -163.2 0
v -74.66667 -162.1333 0
v -73.60001 -162.1333 0
v -112 -164.2667 0
v -113.0667 -164.2667 0
v -113.0667 -163.2 0
v -112 -163.2 0
v -112 -165.3333 0
v -113.0667 -165.3333 0
v -113.0667 -164.2667 0
v -112 -164.2667 0
v -112 -166.4 0
v -113.0667 -166.4 0
v -113.0667 -165.3333 0
v -112 -165.3333 0

# Texture cooridinates (Count = 60)
vt 0.6322314 0.5817491
vt 0.6487603 0.5817491
vt 0.6487603 0.6121673
vt 0.6322314 0.6121673
vt 0.6146694 0.5817491
vt 0.6311983 0.5817491
vt 0.6311983 0.6121673
vt 0.6146694 0.6121673
vt 0.5971074 0.5817491
vt 0.6136364 0.5817491
vt 0.6136364 0.6121673
vt 0.5971074 0.6121673
vt 0.6497934 0.5817491
vt 0.6663223 0.5817491
vt 0.6663223 0.6121673
vt 0.6497934 0.6121673
vt 0.5971074 0.4847909
vt 0.6136364 0.4847909
vt 0.6136364 0.5152091
vt 0.5971074 0.5152091
vt 0.6673554 0.5494297
vt 0.6838843 0.5494297
vt 0.6838843 0.5798479
vt 0.6673554 0.5798479
vt 0.6497934 0.4847909
vt 0.6663223 0.4847909
vt 0.6663223 0.5152091
vt 0.6497934 0.5152091
vt 0.5971074 0.5494297
vt 0.6136364 0.5494297
vt 0.6136364 0.5798479
vt 0.5971074 0.5798479
vt 0.6322314 0.5494297
vt 0.6487603 0.5494297
vt 0.6487603 0.5798479
vt 0.6322314 0.5798479
vt 0.5971074 0.5171102
vt 0.6136364 0.5171102
vt 0.6136364 0.5475285
vt 0.5971074 0.5475285
vt 0.5971074 0.3231939
vt 0.6136364 0.3231939
vt 0.6136364 0.3536122
vt 0.5971074 0.3536122
vt 0.5971074 0.3555133
vt 0.6136364 0.3555133
vt 0.6136364 0.3859316
vt 0.5971074 0.3859316
vt 0.6146694 0.3555133
vt 0.6311983 0.3555133
vt 0.6311983 0.3859316
vt 0.6146694 0.3859316
vt 0.6497934 0.5494297
vt 0.6663223 0.5494297
vt 0.6663223 0.5798479
vt 0.6497934 0.5798479
vt 0.6146694 0.4847909
vt 0.6311983 0.4847909
vt 0.6311983 0.5152091
vt 0.6146694 0.5152091

# Normal
vn 0 0 -1

# Mesh description
g CS-Floor1_mesh_0004

# Faces
f 1/1/1 2/2/1 3/3/1 4/4/1
f 5/5/1 6/6/1 7/7/1 8/8/1
f 9/5/1 10/6/1 11/7/1 12/8/1
f 13/5/1 14/6/1 15/7/1 16/8/1
f 17/5/1 18/6/1 19/7/1 20/8/1
f 21/5/1 22/6/1 23/7/1 24/8/1
f 25/5/1 26/6/1 27/7/1 28/8/1
f 29/5/1 30/6/1 31/7/1 32/8/1
f 33/5/1 34/6/1 35/7/1 36/8/1
f 37/5/1 38/6/1 39/7/1 40/8/1
f 41/5/1 42/6/1 43/7/1 44/8/1
f 45/5/1 46/6/1 47/7/1 48/8/1
f 49/5/1 50/6/1 51/7/1 52/8/1
f 53/5/1 54/6/1 55/7/1 56/8/1
f 57/5/1 58/6/1 59/7/1 60/8/1
f 61/9/1 62/10/1 63/11/1 64/12/1
f 65/5/1 66/6/1 67/7/1 68/8/1
f 69/5/1 70/6/1 71/7/1 72/8/1
f 73/5/1 74/6/1 75/7/1 76/8/1
f 77/5/1 78/6/1 79/7/1 80/8/1
f 81/5/1 82/6/1 83/7/1 84/8/1
f 85/5/1 86/6/1 87/7/1 88/8/1
f 89/5/1 90/6/1 91/7/1 92/8/1
f 93/5/1 94/6/1 95/7/1 96/8/1
f 97/13/1 98/14/1 99/15/1 100/16/1
f 101/17/1 102/18/1 103/19/1 104/20/1
f 105/17/1 106/18/1 107/19/1 108/20/1
f 109/17/1 110/18/1 111/19/1 112/20/1
f 113/17/1 114/18/1 115/19/1 116/20/1
f 117/17/1 118/18/1 119/19/1 120/20/1
f 121/17/1 122/18/1 123/19/1 124/20/1
f 125/17/1 126/18/1 127/19/1 128/20/1
f 129/17/1 130/18/1 131/19/1 132/20/1
f 133/21/1 134/22/1 135/23/1 136/24/1
f 137/13/1 138/14/1 139/15/1 140/16/1
f 141/25/1 142/26/1 143/27/1 144/28/1
f 145/21/1 146/22/1 147/23/1 148/24/1
f 149/13/1 150/14/1 151/15/1 152/16/1
f 153/25/1 154/26/1 155/27/1 156/28/1
f 157/21/1 158/22/1 159/23/1 160/24/1
f 161/13/1 162/14/1 163/15/1 164/16/1
f 165/25/1 166/26/1 167/27/1 168/28/1
f 169/21/1 170/22/1 171/23/1 172/24/1
f 173/13/1 174/14/1 175/15/1 176/16/1
f 177/25/1 178/26/1 179/27/1 180/28/1
f 181/21/1 182/22/1 183/23/1 184/24/1
f 185/13/1 186/14/1 187/15/1 188/16/1
f 189/25/1 190/26/1 191/27/1 192/28/1
f 193/21/1 194/22/1 195/23/1 196/24/1
f 197/13/1 198/14/1 199/15/1 200/16/1
f 201/25/1 202/26/1 203/27/1 204/28/1
f 205/21/1 206/22/1 207/23/1 208/24/1
f 209/13/1 210/14/1 211/15/1 212/16/1
f 213/25/1 214/26/1 215/27/1 216/28/1
f 217/21/1 218/22/1 219/23/1 220/24/1
f 221/13/1 222/14/1 223/15/1 224/16/1
f 225/25/1 226/26/1 227/27/1 228/28/1
f 229/21/1 230/22/1 231/23/1 232/24/1
f 233/13/1 234/14/1 235/15/1 236/16/1
f 237/25/1 238/26/1 239/27/1 240/28/1
f 241/21/1 242/22/1 243/23/1 244/24/1
f 245/13/1 246/14/1 247/15/1 248/16/1
f 249/25/1 250/26/1 251/27/1 252/28/1
f 253/21/1 254/22/1 255/23/1 256/24/1
f 257/13/1 258/14/1 259/15/1 260/16/1
f 261/25/1 262/26/1 263/27/1 264/28/1
f 265/21/1 266/22/1 267/23/1 268/24/1
f 269/13/1 270/14/1 271/15/1 272/16/1
f 273/25/1 274/26/1 275/27/1 276/28/1
f 277/21/1 278/22/1 279/23/1 280/24/1
f 281/13/1 282/14/1 283/15/1 284/16/1
f 285/25/1 286/26/1 287/27/1 288/28/1
f 289/21/1 290/22/1 291/23/1 292/24/1
f 293/5/1 294/6/1 295/7/1 296/8/1
f 297/13/1 298/14/1 299/15/1 300/16/1
f 301/29/1 302/30/1 303/31/1 304/32/1
f 305/29/1 306/30/1 307/31/1 308/32/1
f 309/25/1 310/26/1 311/27/1 312/28/1
f 313/17/1 314/18/1 315/19/1 316/20/1
f 317/21/1 318/22/1 319/23/1 320/24/1
f 321/13/1 322/14/1 323/15/1 324/16/1
f 325/33/1 326/34/1 327/35/1 328/36/1
f 329/33/1 330/34/1 331/35/1 332/36/1
f 333/25/1 334/26/1 335/27/1 336/28/1
f 337/21/1 338/22/1 339/23/1 340/24/1
f 341/5/1 342/6/1 343/7/1 344/8/1
f 345/13/1 346/14/1 347/15/1 348/16/1
f 349/37/1 350/38/1 351/39/1 352/40/1
f 353/33/1 354/34/1 355/35/1 356/36/1
f 357/25/1 358/26/1 359/27/1 360/28/1
f 361/17/1 362/18/1 363/19/1 364/20/1
f 365/21/1 366/22/1 367/23/1 368/24/1
f 369/13/1 370/14/1 371/15/1 372/16/1
f 373/33/1 374/34/1 375/35/1 376/36/1
f 377/25/1 378/26/1 379/27/1 380/28/1
f 381/21/1 382/22/1 383/23/1 384/24/1
f 385/5/1 386/6/1 387/7/1 388/8/1
f 389/13/1 390/14/1 391/15/1 392/16/1
f 393/33/1 394/34/1 395/35/1 396/36/1
f 397/25/1 398/26/1 399/27/1 400/28/1
f 401/17/1 402/18/1 403/19/1 404/20/1
f 405/21/1 406/22/1 407/23/1 408/24/1
f 409/13/1 410/14/1 411/15/1 412/16/1
f 413/33/1 414/34/1 415/35/1 416/36/1
f 417/25/1 418/26/1 419/27/1 420/28/1
f 421/21/1 422/22/1 423/23/1 424/24/1
f 425/5/1 426/6/1 427/7/1 428/8/1
f 429/13/1 430/14/1 431/15/1 432/16/1
f 433/33/1 434/34/1 435/35/1 436/36/1
f 437/25/1 438/26/1 439/27/1 440/28/1
f 441/17/1 442/18/1 443/19/1 444/20/1
f 445/33/1 446/34/1 447/35/1 448/36/1
f 449/41/1 450/42/1 451/43/1 452/44/1
f 453/41/1 454/42/1 455/43/1 456/44/1
f 457/33/1 458/34/1 459/35/1 460/36/1
f 461/33/1 462/34/1 463/35/1 464/36/1
f 465/45/1 466/46/1 467/47/1 468/48/1
f 469/49/1 470/50/1 471/51/1 472/52/1
f 473/33/1 474/34/1 475/35/1 476/36/1
f 477/33/1 478/34/1 479/35/1 480/36/1
f 481/33/1 482/34/1 483/35/1 484/36/1
f 485/33/1 486/34/1 487/35/1 488/36/1
f 489/33/1 490/34/1 491/35/1 492/36/1
f 493/33/1 494/34/1 495/35/1 496/36/1
f 497/41/1 498/42/1 499/43/1 500/44/1
f 501/41/1 502/42/1 503/43/1 504/44/1
f 505/33/1 506/34/1 507/35/1 508/36/1
f 509/33/1 510/34/1 511/35/1 512/36/1
f 513/49/1 514/50/1 515/51/1 516/52/1
f 517/45/1 518/46/1 519/47/1 520/48/1
f 521/5/1 522/6/1 523/7/1 524/8/1
f 525/5/1 526/6/1 527/7/1 528/8/1
f 529/5/1 530/6/1 531/7/1 532/8/1
f 533/5/1 534/6/1 535/7/1 536/8/1
f 537/5/1 538/6/1 539/7/1 540/8/1
f 541/5/1 542/6/1 543/7/1 544/8/1
f 545/5/1 546/6/1 547/7/1 548/8/1
f 549/53/1 550/54/1 551/55/1 552/56/1
f 553/33/1 554/34/1 555/35/1 556/36/1
f 557/17/1 558/18/1 559/19/1 560/20/1
f 561/17/1 562/18/1 563/19/1 564/20/1
f 565/17/1 566/18/1 567/19/1 568/20/1
f 569/17/1 570/18/1 571/19/1 572/20/1
f 573/17/1 574/18/1 575/19/1 576/20/1
f 577/17/1 578/18/1 579/19/1 580/20/1
f 581/57/1 582/58/1 583/59/1 584/60/1
f 585/33/1 586/34/1 587/35/1 588/36/1
f 589/33/1 590/34/1 591/35/1 592/36/1
f 593/33/1 594/34/1 595/35/1 596/36/1

