# Tiled2Unity generated file. Do not modify by hand.
# Wavefront file for 'WorldMap_mesh_0007.obj'

# Vertices (Count = 16)
v -39.46667 -78.93333 0
v -40.53334 -78.93333 0
v -40.53334 -77.86667 0
v -39.46667 -77.86667 0
v -35.2 -78.93333 0
v -36.26667 -78.93333 0
v -36.26667 -77.86667 0
v -35.2 -77.86667 0
v -72.53334 -83.2 0
v -73.60001 -83.2 0
v -73.60001 -82.13334 0
v -72.53334 -82.13334 0
v -69.33334 -83.2 0
v -70.4 -83.2 0
v -70.4 -82.13334 0
v -69.33334 -82.13334 0

# Texture cooridinates (Count = 4)
vt 0 0
vt 1 0
vt 1 1
vt 0 1

# Normal
vn 0 0 -1

# Mesh description
g WorldMap_mesh_0007

# Faces
f 1/1/1 2/2/1 3/3/1 4/4/1
f 5/1/1 6/2/1 7/3/1 8/4/1
f 9/1/1 10/2/1 11/3/1 12/4/1
f 13/1/1 14/2/1 15/3/1 16/4/1

