# Tiled2Unity generated file. Do not modify by hand.
# Wavefront file for 'WorldMap_mesh_0005.obj'

# Vertices (Count = 628)
v -101.3333 -84.26667 0
v -102.4 -84.26667 0
v -102.4 -83.2 0
v -101.3333 -83.2 0
v -100.2667 -84.26667 0
v -101.3333 -84.26667 0
v -101.3333 -83.2 0
v -100.2667 -83.2 0
v -99.2 -84.26667 0
v -100.2667 -84.26667 0
v -100.2667 -83.2 0
v -99.2 -83.2 0
v -98.13334 -84.26667 0
v -99.2 -84.26667 0
v -99.2 -83.2 0
v -98.13334 -83.2 0
v -97.06667 -84.26667 0
v -98.13334 -84.26667 0
v -98.13334 -83.2 0
v -97.06667 -83.2 0
v -96.00001 -84.26667 0
v -97.06667 -84.26667 0
v -97.06667 -83.2 0
v -96.00001 -83.2 0
v -94.93334 -84.26667 0
v -96.00001 -84.26667 0
v -96.00001 -83.2 0
v -94.93334 -83.2 0
v -93.86667 -84.26667 0
v -94.93334 -84.26667 0
v -94.93334 -83.2 0
v -93.86667 -83.2 0
v -92.8 -84.26667 0
v -93.86667 -84.26667 0
v -93.86667 -83.2 0
v -92.8 -83.2 0
v -91.73334 -84.26667 0
v -92.8 -84.26667 0
v -92.8 -83.2 0
v -91.73334 -83.2 0
v -90.66667 -84.26667 0
v -91.73334 -84.26667 0
v -91.73334 -83.2 0
v -90.66667 -83.2 0
v -89.60001 -84.26667 0
v -90.66667 -84.26667 0
v -90.66667 -83.2 0
v -89.60001 -83.2 0
v -88.53334 -84.26667 0
v -89.60001 -84.26667 0
v -89.60001 -83.2 0
v -88.53334 -83.2 0
v -87.46667 -84.26667 0
v -88.53334 -84.26667 0
v -88.53334 -83.2 0
v -87.46667 -83.2 0
v -86.4 -84.26667 0
v -87.46667 -84.26667 0
v -87.46667 -83.2 0
v -86.4 -83.2 0
v -85.33334 -84.26667 0
v -86.4 -84.26667 0
v -86.4 -83.2 0
v -85.33334 -83.2 0
v -84.26667 -84.26667 0
v -85.33334 -84.26667 0
v -85.33334 -83.2 0
v -84.26667 -83.2 0
v -83.2 -84.26667 0
v -84.26667 -84.26667 0
v -84.26667 -83.2 0
v -83.2 -83.2 0
v -82.13334 -84.26667 0
v -83.2 -84.26667 0
v -83.2 -83.2 0
v -82.13334 -83.2 0
v -81.06667 -84.26667 0
v -82.13334 -84.26667 0
v -82.13334 -83.2 0
v -81.06667 -83.2 0
v -80.00001 -84.26667 0
v -81.06667 -84.26667 0
v -81.06667 -83.2 0
v -80.00001 -83.2 0
v -78.93333 -84.26667 0
v -80.00001 -84.26667 0
v -80.00001 -83.2 0
v -78.93333 -83.2 0
v -77.86667 -84.26667 0
v -78.93333 -84.26667 0
v -78.93333 -83.2 0
v -77.86667 -83.2 0
v -76.8 -84.26667 0
v -77.86667 -84.26667 0
v -77.86667 -83.2 0
v -76.8 -83.2 0
v -75.73334 -84.26667 0
v -76.8 -84.26667 0
v -76.8 -83.2 0
v -75.73334 -83.2 0
v -74.66667 -84.26667 0
v -75.73334 -84.26667 0
v -75.73334 -83.2 0
v -74.66667 -83.2 0
v -73.60001 -84.26667 0
v -74.66667 -84.26667 0
v -74.66667 -83.2 0
v -73.60001 -83.2 0
v -72.53334 -84.26667 0
v -73.60001 -84.26667 0
v -73.60001 -83.2 0
v -72.53334 -83.2 0
v -71.46667 -84.26667 0
v -72.53334 -84.26667 0
v -72.53334 -83.2 0
v -71.46667 -83.2 0
v -70.4 -84.26667 0
v -71.46667 -84.26667 0
v -71.46667 -83.2 0
v -70.4 -83.2 0
v -69.33334 -84.26667 0
v -70.4 -84.26667 0
v -70.4 -83.2 0
v -69.33334 -83.2 0
v -68.26667 -84.26667 0
v -69.33334 -84.26667 0
v -69.33334 -83.2 0
v -68.26667 -83.2 0
v -67.2 -84.26667 0
v -68.26667 -84.26667 0
v -68.26667 -83.2 0
v -67.2 -83.2 0
v -66.13334 -84.26667 0
v -67.2 -84.26667 0
v -67.2 -83.2 0
v -66.13334 -83.2 0
v -65.06667 -84.26667 0
v -66.13334 -84.26667 0
v -66.13334 -83.2 0
v -65.06667 -83.2 0
v -64 -84.26667 0
v -65.06667 -84.26667 0
v -65.06667 -83.2 0
v -64 -83.2 0
v -62.93334 -84.26667 0
v -64 -84.26667 0
v -64 -83.2 0
v -62.93334 -83.2 0
v -61.86667 -84.26667 0
v -62.93334 -84.26667 0
v -62.93334 -83.2 0
v -61.86667 -83.2 0
v -60.8 -84.26667 0
v -61.86667 -84.26667 0
v -61.86667 -83.2 0
v -60.8 -83.2 0
v -101.3333 -85.33334 0
v -102.4 -85.33334 0
v -102.4 -84.26667 0
v -101.3333 -84.26667 0
v -100.2667 -85.33334 0
v -101.3333 -85.33334 0
v -101.3333 -84.26667 0
v -100.2667 -84.26667 0
v -99.2 -85.33334 0
v -100.2667 -85.33334 0
v -100.2667 -84.26667 0
v -99.2 -84.26667 0
v -98.13334 -85.33334 0
v -99.2 -85.33334 0
v -99.2 -84.26667 0
v -98.13334 -84.26667 0
v -97.06667 -85.33334 0
v -98.13334 -85.33334 0
v -98.13334 -84.26667 0
v -97.06667 -84.26667 0
v -96.00001 -85.33334 0
v -97.06667 -85.33334 0
v -97.06667 -84.26667 0
v -96.00001 -84.26667 0
v -94.93334 -85.33334 0
v -96.00001 -85.33334 0
v -96.00001 -84.26667 0
v -94.93334 -84.26667 0
v -93.86667 -85.33334 0
v -94.93334 -85.33334 0
v -94.93334 -84.26667 0
v -93.86667 -84.26667 0
v -92.8 -85.33334 0
v -93.86667 -85.33334 0
v -93.86667 -84.26667 0
v -92.8 -84.26667 0
v -91.73334 -85.33334 0
v -92.8 -85.33334 0
v -92.8 -84.26667 0
v -91.73334 -84.26667 0
v -90.66667 -85.33334 0
v -91.73334 -85.33334 0
v -91.73334 -84.26667 0
v -90.66667 -84.26667 0
v -89.60001 -85.33334 0
v -90.66667 -85.33334 0
v -90.66667 -84.26667 0
v -89.60001 -84.26667 0
v -88.53334 -85.33334 0
v -89.60001 -85.33334 0
v -89.60001 -84.26667 0
v -88.53334 -84.26667 0
v -87.46667 -85.33334 0
v -88.53334 -85.33334 0
v -88.53334 -84.26667 0
v -87.46667 -84.26667 0
v -86.4 -85.33334 0
v -87.46667 -85.33334 0
v -87.46667 -84.26667 0
v -86.4 -84.26667 0
v -85.33334 -85.33334 0
v -86.4 -85.33334 0
v -86.4 -84.26667 0
v -85.33334 -84.26667 0
v -84.26667 -85.33334 0
v -85.33334 -85.33334 0
v -85.33334 -84.26667 0
v -84.26667 -84.26667 0
v -83.2 -85.33334 0
v -84.26667 -85.33334 0
v -84.26667 -84.26667 0
v -83.2 -84.26667 0
v -82.13334 -85.33334 0
v -83.2 -85.33334 0
v -83.2 -84.26667 0
v -82.13334 -84.26667 0
v -81.06667 -85.33334 0
v -82.13334 -85.33334 0
v -82.13334 -84.26667 0
v -81.06667 -84.26667 0
v -80.00001 -85.33334 0
v -81.06667 -85.33334 0
v -81.06667 -84.26667 0
v -80.00001 -84.26667 0
v -78.93333 -85.33334 0
v -80.00001 -85.33334 0
v -80.00001 -84.26667 0
v -78.93333 -84.26667 0
v -77.86667 -85.33334 0
v -78.93333 -85.33334 0
v -78.93333 -84.26667 0
v -77.86667 -84.26667 0
v -76.8 -85.33334 0
v -77.86667 -85.33334 0
v -77.86667 -84.26667 0
v -76.8 -84.26667 0
v -75.73334 -85.33334 0
v -76.8 -85.33334 0
v -76.8 -84.26667 0
v -75.73334 -84.26667 0
v -74.66667 -85.33334 0
v -75.73334 -85.33334 0
v -75.73334 -84.26667 0
v -74.66667 -84.26667 0
v -73.60001 -85.33334 0
v -74.66667 -85.33334 0
v -74.66667 -84.26667 0
v -73.60001 -84.26667 0
v -72.53334 -85.33334 0
v -73.60001 -85.33334 0
v -73.60001 -84.26667 0
v -72.53334 -84.26667 0
v -71.46667 -85.33334 0
v -72.53334 -85.33334 0
v -72.53334 -84.26667 0
v -71.46667 -84.26667 0
v -70.4 -85.33334 0
v -71.46667 -85.33334 0
v -71.46667 -84.26667 0
v -70.4 -84.26667 0
v -69.33334 -85.33334 0
v -70.4 -85.33334 0
v -70.4 -84.26667 0
v -69.33334 -84.26667 0
v -68.26667 -85.33334 0
v -69.33334 -85.33334 0
v -69.33334 -84.26667 0
v -68.26667 -84.26667 0
v -67.2 -85.33334 0
v -68.26667 -85.33334 0
v -68.26667 -84.26667 0
v -67.2 -84.26667 0
v -66.13334 -85.33334 0
v -67.2 -85.33334 0
v -67.2 -84.26667 0
v -66.13334 -84.26667 0
v -65.06667 -85.33334 0
v -66.13334 -85.33334 0
v -66.13334 -84.26667 0
v -65.06667 -84.26667 0
v -64 -85.33334 0
v -65.06667 -85.33334 0
v -65.06667 -84.26667 0
v -64 -84.26667 0
v -62.93334 -85.33334 0
v -64 -85.33334 0
v -64 -84.26667 0
v -62.93334 -84.26667 0
v -61.86667 -85.33334 0
v -62.93334 -85.33334 0
v -62.93334 -84.26667 0
v -61.86667 -84.26667 0
v -60.8 -85.33334 0
v -61.86667 -85.33334 0
v -61.86667 -84.26667 0
v -60.8 -84.26667 0
v -101.3333 -86.4 0
v -102.4 -86.4 0
v -102.4 -85.33334 0
v -101.3333 -85.33334 0
v -100.2667 -86.4 0
v -101.3333 -86.4 0
v -101.3333 -85.33334 0
v -100.2667 -85.33334 0
v -99.2 -86.4 0
v -100.2667 -86.4 0
v -100.2667 -85.33334 0
v -99.2 -85.33334 0
v -98.13334 -86.4 0
v -99.2 -86.4 0
v -99.2 -85.33334 0
v -98.13334 -85.33334 0
v -97.06667 -86.4 0
v -98.13334 -86.4 0
v -98.13334 -85.33334 0
v -97.06667 -85.33334 0
v -96.00001 -86.4 0
v -97.06667 -86.4 0
v -97.06667 -85.33334 0
v -96.00001 -85.33334 0
v -94.93334 -86.4 0
v -96.00001 -86.4 0
v -96.00001 -85.33334 0
v -94.93334 -85.33334 0
v -93.86667 -86.4 0
v -94.93334 -86.4 0
v -94.93334 -85.33334 0
v -93.86667 -85.33334 0
v -92.8 -86.4 0
v -93.86667 -86.4 0
v -93.86667 -85.33334 0
v -92.8 -85.33334 0
v -91.73334 -86.4 0
v -92.8 -86.4 0
v -92.8 -85.33334 0
v -91.73334 -85.33334 0
v -90.66667 -86.4 0
v -91.73334 -86.4 0
v -91.73334 -85.33334 0
v -90.66667 -85.33334 0
v -89.60001 -86.4 0
v -90.66667 -86.4 0
v -90.66667 -85.33334 0
v -89.60001 -85.33334 0
v -88.53334 -86.4 0
v -89.60001 -86.4 0
v -89.60001 -85.33334 0
v -88.53334 -85.33334 0
v -87.46667 -86.4 0
v -88.53334 -86.4 0
v -88.53334 -85.33334 0
v -87.46667 -85.33334 0
v -86.4 -86.4 0
v -87.46667 -86.4 0
v -87.46667 -85.33334 0
v -86.4 -85.33334 0
v -85.33334 -86.4 0
v -86.4 -86.4 0
v -86.4 -85.33334 0
v -85.33334 -85.33334 0
v -84.26667 -86.4 0
v -85.33334 -86.4 0
v -85.33334 -85.33334 0
v -84.26667 -85.33334 0
v -83.2 -86.4 0
v -84.26667 -86.4 0
v -84.26667 -85.33334 0
v -83.2 -85.33334 0
v -82.13334 -86.4 0
v -83.2 -86.4 0
v -83.2 -85.33334 0
v -82.13334 -85.33334 0
v -81.06667 -86.4 0
v -82.13334 -86.4 0
v -82.13334 -85.33334 0
v -81.06667 -85.33334 0
v -80.00001 -86.4 0
v -81.06667 -86.4 0
v -81.06667 -85.33334 0
v -80.00001 -85.33334 0
v -78.93333 -86.4 0
v -80.00001 -86.4 0
v -80.00001 -85.33334 0
v -78.93333 -85.33334 0
v -77.86667 -86.4 0
v -78.93333 -86.4 0
v -78.93333 -85.33334 0
v -77.86667 -85.33334 0
v -76.8 -86.4 0
v -77.86667 -86.4 0
v -77.86667 -85.33334 0
v -76.8 -85.33334 0
v -75.73334 -86.4 0
v -76.8 -86.4 0
v -76.8 -85.33334 0
v -75.73334 -85.33334 0
v -74.66667 -86.4 0
v -75.73334 -86.4 0
v -75.73334 -85.33334 0
v -74.66667 -85.33334 0
v -73.60001 -86.4 0
v -74.66667 -86.4 0
v -74.66667 -85.33334 0
v -73.60001 -85.33334 0
v -72.53334 -86.4 0
v -73.60001 -86.4 0
v -73.60001 -85.33334 0
v -72.53334 -85.33334 0
v -71.46667 -86.4 0
v -72.53334 -86.4 0
v -72.53334 -85.33334 0
v -71.46667 -85.33334 0
v -70.4 -86.4 0
v -71.46667 -86.4 0
v -71.46667 -85.33334 0
v -70.4 -85.33334 0
v -69.33334 -86.4 0
v -70.4 -86.4 0
v -70.4 -85.33334 0
v -69.33334 -85.33334 0
v -68.26667 -86.4 0
v -69.33334 -86.4 0
v -69.33334 -85.33334 0
v -68.26667 -85.33334 0
v -67.2 -86.4 0
v -68.26667 -86.4 0
v -68.26667 -85.33334 0
v -67.2 -85.33334 0
v -66.13334 -86.4 0
v -67.2 -86.4 0
v -67.2 -85.33334 0
v -66.13334 -85.33334 0
v -65.06667 -86.4 0
v -66.13334 -86.4 0
v -66.13334 -85.33334 0
v -65.06667 -85.33334 0
v -64 -86.4 0
v -65.06667 -86.4 0
v -65.06667 -85.33334 0
v -64 -85.33334 0
v -62.93334 -86.4 0
v -64 -86.4 0
v -64 -85.33334 0
v -62.93334 -85.33334 0
v -61.86667 -86.4 0
v -62.93334 -86.4 0
v -62.93334 -85.33334 0
v -61.86667 -85.33334 0
v -60.8 -86.4 0
v -61.86667 -86.4 0
v -61.86667 -85.33334 0
v -60.8 -85.33334 0
v -101.3333 -87.46667 0
v -102.4 -87.46667 0
v -102.4 -86.4 0
v -101.3333 -86.4 0
v -100.2667 -87.46667 0
v -101.3333 -87.46667 0
v -101.3333 -86.4 0
v -100.2667 -86.4 0
v -99.2 -87.46667 0
v -100.2667 -87.46667 0
v -100.2667 -86.4 0
v -99.2 -86.4 0
v -98.13334 -87.46667 0
v -99.2 -87.46667 0
v -99.2 -86.4 0
v -98.13334 -86.4 0
v -97.06667 -87.46667 0
v -98.13334 -87.46667 0
v -98.13334 -86.4 0
v -97.06667 -86.4 0
v -96.00001 -87.46667 0
v -97.06667 -87.46667 0
v -97.06667 -86.4 0
v -96.00001 -86.4 0
v -94.93334 -87.46667 0
v -96.00001 -87.46667 0
v -96.00001 -86.4 0
v -94.93334 -86.4 0
v -93.86667 -87.46667 0
v -94.93334 -87.46667 0
v -94.93334 -86.4 0
v -93.86667 -86.4 0
v -92.8 -87.46667 0
v -93.86667 -87.46667 0
v -93.86667 -86.4 0
v -92.8 -86.4 0
v -91.73334 -87.46667 0
v -92.8 -87.46667 0
v -92.8 -86.4 0
v -91.73334 -86.4 0
v -90.66667 -87.46667 0
v -91.73334 -87.46667 0
v -91.73334 -86.4 0
v -90.66667 -86.4 0
v -89.60001 -87.46667 0
v -90.66667 -87.46667 0
v -90.66667 -86.4 0
v -89.60001 -86.4 0
v -88.53334 -87.46667 0
v -89.60001 -87.46667 0
v -89.60001 -86.4 0
v -88.53334 -86.4 0
v -87.46667 -87.46667 0
v -88.53334 -87.46667 0
v -88.53334 -86.4 0
v -87.46667 -86.4 0
v -86.4 -87.46667 0
v -87.46667 -87.46667 0
v -87.46667 -86.4 0
v -86.4 -86.4 0
v -85.33334 -87.46667 0
v -86.4 -87.46667 0
v -86.4 -86.4 0
v -85.33334 -86.4 0
v -84.26667 -87.46667 0
v -85.33334 -87.46667 0
v -85.33334 -86.4 0
v -84.26667 -86.4 0
v -83.2 -87.46667 0
v -84.26667 -87.46667 0
v -84.26667 -86.4 0
v -83.2 -86.4 0
v -82.13334 -87.46667 0
v -83.2 -87.46667 0
v -83.2 -86.4 0
v -82.13334 -86.4 0
v -81.06667 -87.46667 0
v -82.13334 -87.46667 0
v -82.13334 -86.4 0
v -81.06667 -86.4 0
v -80.00001 -87.46667 0
v -81.06667 -87.46667 0
v -81.06667 -86.4 0
v -80.00001 -86.4 0
v -78.93333 -87.46667 0
v -80.00001 -87.46667 0
v -80.00001 -86.4 0
v -78.93333 -86.4 0
v -77.86667 -87.46667 0
v -78.93333 -87.46667 0
v -78.93333 -86.4 0
v -77.86667 -86.4 0
v -76.8 -87.46667 0
v -77.86667 -87.46667 0
v -77.86667 -86.4 0
v -76.8 -86.4 0
v -75.73334 -87.46667 0
v -76.8 -87.46667 0
v -76.8 -86.4 0
v -75.73334 -86.4 0
v -74.66667 -87.46667 0
v -75.73334 -87.46667 0
v -75.73334 -86.4 0
v -74.66667 -86.4 0
v -73.60001 -87.46667 0
v -74.66667 -87.46667 0
v -74.66667 -86.4 0
v -73.60001 -86.4 0
v -72.53334 -87.46667 0
v -73.60001 -87.46667 0
v -73.60001 -86.4 0
v -72.53334 -86.4 0
v -71.46667 -87.46667 0
v -72.53334 -87.46667 0
v -72.53334 -86.4 0
v -71.46667 -86.4 0
v -70.4 -87.46667 0
v -71.46667 -87.46667 0
v -71.46667 -86.4 0
v -70.4 -86.4 0
v -69.33334 -87.46667 0
v -70.4 -87.46667 0
v -70.4 -86.4 0
v -69.33334 -86.4 0
v -68.26667 -87.46667 0
v -69.33334 -87.46667 0
v -69.33334 -86.4 0
v -68.26667 -86.4 0
v -67.2 -87.46667 0
v -68.26667 -87.46667 0
v -68.26667 -86.4 0
v -67.2 -86.4 0
v -66.13334 -87.46667 0
v -67.2 -87.46667 0
v -67.2 -86.4 0
v -66.13334 -86.4 0
v -65.06667 -87.46667 0
v -66.13334 -87.46667 0
v -66.13334 -86.4 0
v -65.06667 -86.4 0
v -64 -87.46667 0
v -65.06667 -87.46667 0
v -65.06667 -86.4 0
v -64 -86.4 0
v -62.93334 -87.46667 0
v -64 -87.46667 0
v -64 -86.4 0
v -62.93334 -86.4 0
v -61.86667 -87.46667 0
v -62.93334 -87.46667 0
v -62.93334 -86.4 0
v -61.86667 -86.4 0
v -60.8 -87.46667 0
v -61.86667 -87.46667 0
v -61.86667 -86.4 0
v -60.8 -86.4 0
v -59.73334 -87.46667 0
v -60.8 -87.46667 0
v -60.8 -86.4 0
v -59.73334 -86.4 0

# Texture cooridinates (Count = 20)
vt 0.4872611 0.1789474
vt 0.5127388 0.1789474
vt 0.5127388 0.2126316
vt 0.4872611 0.2126316
vt 0.2707006 0.2863158
vt 0.2961783 0.2863158
vt 0.2961783 0.32
vt 0.2707006 0.32
vt 0.2707006 0.2505263
vt 0.2961783 0.2505263
vt 0.2961783 0.2842105
vt 0.2707006 0.2842105
vt 0.4601911 0.1789474
vt 0.4856688 0.1789474
vt 0.4856688 0.2126316
vt 0.4601911 0.2126316
vt 0.406051 0.1789474
vt 0.4315287 0.1789474
vt 0.4315287 0.2126316
vt 0.406051 0.2126316

# Normal
vn 0 0 -1

# Mesh description
g WorldMap_mesh_0005

# Faces
f 1/1/1 2/2/1 3/3/1 4/4/1
f 5/1/1 6/2/1 7/3/1 8/4/1
f 9/1/1 10/2/1 11/3/1 12/4/1
f 13/1/1 14/2/1 15/3/1 16/4/1
f 17/1/1 18/2/1 19/3/1 20/4/1
f 21/1/1 22/2/1 23/3/1 24/4/1
f 25/1/1 26/2/1 27/3/1 28/4/1
f 29/1/1 30/2/1 31/3/1 32/4/1
f 33/1/1 34/2/1 35/3/1 36/4/1
f 37/1/1 38/2/1 39/3/1 40/4/1
f 41/1/1 42/2/1 43/3/1 44/4/1
f 45/1/1 46/2/1 47/3/1 48/4/1
f 49/1/1 50/2/1 51/3/1 52/4/1
f 53/1/1 54/2/1 55/3/1 56/4/1
f 57/1/1 58/2/1 59/3/1 60/4/1
f 61/1/1 62/2/1 63/3/1 64/4/1
f 65/1/1 66/2/1 67/3/1 68/4/1
f 69/1/1 70/2/1 71/3/1 72/4/1
f 73/1/1 74/2/1 75/3/1 76/4/1
f 77/1/1 78/2/1 79/3/1 80/4/1
f 81/1/1 82/2/1 83/3/1 84/4/1
f 85/1/1 86/2/1 87/3/1 88/4/1
f 89/1/1 90/2/1 91/3/1 92/4/1
f 93/1/1 94/2/1 95/3/1 96/4/1
f 97/1/1 98/2/1 99/3/1 100/4/1
f 101/1/1 102/2/1 103/3/1 104/4/1
f 105/1/1 106/2/1 107/3/1 108/4/1
f 109/1/1 110/2/1 111/3/1 112/4/1
f 113/1/1 114/2/1 115/3/1 116/4/1
f 117/1/1 118/2/1 119/3/1 120/4/1
f 121/1/1 122/2/1 123/3/1 124/4/1
f 125/1/1 126/2/1 127/3/1 128/4/1
f 129/1/1 130/2/1 131/3/1 132/4/1
f 133/1/1 134/2/1 135/3/1 136/4/1
f 137/1/1 138/2/1 139/3/1 140/4/1
f 141/1/1 142/2/1 143/3/1 144/4/1
f 145/1/1 146/2/1 147/3/1 148/4/1
f 149/1/1 150/2/1 151/3/1 152/4/1
f 153/1/1 154/2/1 155/3/1 156/4/1
f 157/5/1 158/6/1 159/7/1 160/8/1
f 161/5/1 162/6/1 163/7/1 164/8/1
f 165/5/1 166/6/1 167/7/1 168/8/1
f 169/5/1 170/6/1 171/7/1 172/8/1
f 173/5/1 174/6/1 175/7/1 176/8/1
f 177/5/1 178/6/1 179/7/1 180/8/1
f 181/5/1 182/6/1 183/7/1 184/8/1
f 185/5/1 186/6/1 187/7/1 188/8/1
f 189/5/1 190/6/1 191/7/1 192/8/1
f 193/5/1 194/6/1 195/7/1 196/8/1
f 197/5/1 198/6/1 199/7/1 200/8/1
f 201/5/1 202/6/1 203/7/1 204/8/1
f 205/5/1 206/6/1 207/7/1 208/8/1
f 209/5/1 210/6/1 211/7/1 212/8/1
f 213/5/1 214/6/1 215/7/1 216/8/1
f 217/5/1 218/6/1 219/7/1 220/8/1
f 221/5/1 222/6/1 223/7/1 224/8/1
f 225/5/1 226/6/1 227/7/1 228/8/1
f 229/5/1 230/6/1 231/7/1 232/8/1
f 233/5/1 234/6/1 235/7/1 236/8/1
f 237/5/1 238/6/1 239/7/1 240/8/1
f 241/5/1 242/6/1 243/7/1 244/8/1
f 245/5/1 246/6/1 247/7/1 248/8/1
f 249/5/1 250/6/1 251/7/1 252/8/1
f 253/5/1 254/6/1 255/7/1 256/8/1
f 257/5/1 258/6/1 259/7/1 260/8/1
f 261/5/1 262/6/1 263/7/1 264/8/1
f 265/5/1 266/6/1 267/7/1 268/8/1
f 269/5/1 270/6/1 271/7/1 272/8/1
f 273/5/1 274/6/1 275/7/1 276/8/1
f 277/5/1 278/6/1 279/7/1 280/8/1
f 281/5/1 282/6/1 283/7/1 284/8/1
f 285/5/1 286/6/1 287/7/1 288/8/1
f 289/5/1 290/6/1 291/7/1 292/8/1
f 293/5/1 294/6/1 295/7/1 296/8/1
f 297/5/1 298/6/1 299/7/1 300/8/1
f 301/5/1 302/6/1 303/7/1 304/8/1
f 305/5/1 306/6/1 307/7/1 308/8/1
f 309/5/1 310/6/1 311/7/1 312/8/1
f 313/9/1 314/10/1 315/11/1 316/12/1
f 317/9/1 318/10/1 319/11/1 320/12/1
f 321/9/1 322/10/1 323/11/1 324/12/1
f 325/9/1 326/10/1 327/11/1 328/12/1
f 329/9/1 330/10/1 331/11/1 332/12/1
f 333/9/1 334/10/1 335/11/1 336/12/1
f 337/9/1 338/10/1 339/11/1 340/12/1
f 341/9/1 342/10/1 343/11/1 344/12/1
f 345/9/1 346/10/1 347/11/1 348/12/1
f 349/9/1 350/10/1 351/11/1 352/12/1
f 353/9/1 354/10/1 355/11/1 356/12/1
f 357/9/1 358/10/1 359/11/1 360/12/1
f 361/9/1 362/10/1 363/11/1 364/12/1
f 365/9/1 366/10/1 367/11/1 368/12/1
f 369/9/1 370/10/1 371/11/1 372/12/1
f 373/9/1 374/10/1 375/11/1 376/12/1
f 377/9/1 378/10/1 379/11/1 380/12/1
f 381/9/1 382/10/1 383/11/1 384/12/1
f 385/9/1 386/10/1 387/11/1 388/12/1
f 389/9/1 390/10/1 391/11/1 392/12/1
f 393/9/1 394/10/1 395/11/1 396/12/1
f 397/9/1 398/10/1 399/11/1 400/12/1
f 401/9/1 402/10/1 403/11/1 404/12/1
f 405/9/1 406/10/1 407/11/1 408/12/1
f 409/9/1 410/10/1 411/11/1 412/12/1
f 413/9/1 414/10/1 415/11/1 416/12/1
f 417/9/1 418/10/1 419/11/1 420/12/1
f 421/9/1 422/10/1 423/11/1 424/12/1
f 425/9/1 426/10/1 427/11/1 428/12/1
f 429/9/1 430/10/1 431/11/1 432/12/1
f 433/9/1 434/10/1 435/11/1 436/12/1
f 437/9/1 438/10/1 439/11/1 440/12/1
f 441/9/1 442/10/1 443/11/1 444/12/1
f 445/9/1 446/10/1 447/11/1 448/12/1
f 449/9/1 450/10/1 451/11/1 452/12/1
f 453/9/1 454/10/1 455/11/1 456/12/1
f 457/9/1 458/10/1 459/11/1 460/12/1
f 461/9/1 462/10/1 463/11/1 464/12/1
f 465/9/1 466/10/1 467/11/1 468/12/1
f 469/13/1 470/14/1 471/15/1 472/16/1
f 473/13/1 474/14/1 475/15/1 476/16/1
f 477/13/1 478/14/1 479/15/1 480/16/1
f 481/13/1 482/14/1 483/15/1 484/16/1
f 485/13/1 486/14/1 487/15/1 488/16/1
f 489/13/1 490/14/1 491/15/1 492/16/1
f 493/13/1 494/14/1 495/15/1 496/16/1
f 497/13/1 498/14/1 499/15/1 500/16/1
f 501/13/1 502/14/1 503/15/1 504/16/1
f 505/13/1 506/14/1 507/15/1 508/16/1
f 509/13/1 510/14/1 511/15/1 512/16/1
f 513/13/1 514/14/1 515/15/1 516/16/1
f 517/13/1 518/14/1 519/15/1 520/16/1
f 521/13/1 522/14/1 523/15/1 524/16/1
f 525/13/1 526/14/1 527/15/1 528/16/1
f 529/13/1 530/14/1 531/15/1 532/16/1
f 533/13/1 534/14/1 535/15/1 536/16/1
f 537/13/1 538/14/1 539/15/1 540/16/1
f 541/13/1 542/14/1 543/15/1 544/16/1
f 545/13/1 546/14/1 547/15/1 548/16/1
f 549/13/1 550/14/1 551/15/1 552/16/1
f 553/13/1 554/14/1 555/15/1 556/16/1
f 557/13/1 558/14/1 559/15/1 560/16/1
f 561/13/1 562/14/1 563/15/1 564/16/1
f 565/13/1 566/14/1 567/15/1 568/16/1
f 569/13/1 570/14/1 571/15/1 572/16/1
f 573/13/1 574/14/1 575/15/1 576/16/1
f 577/13/1 578/14/1 579/15/1 580/16/1
f 581/13/1 582/14/1 583/15/1 584/16/1
f 585/13/1 586/14/1 587/15/1 588/16/1
f 589/13/1 590/14/1 591/15/1 592/16/1
f 593/13/1 594/14/1 595/15/1 596/16/1
f 597/13/1 598/14/1 599/15/1 600/16/1
f 601/13/1 602/14/1 603/15/1 604/16/1
f 605/13/1 606/14/1 607/15/1 608/16/1
f 609/13/1 610/14/1 611/15/1 612/16/1
f 613/13/1 614/14/1 615/15/1 616/16/1
f 617/13/1 618/14/1 619/15/1 620/16/1
f 621/13/1 622/14/1 623/15/1 624/16/1
f 625/17/1 626/18/1 627/19/1 628/20/1

