# Tiled2Unity generated file. Do not modify by hand.
# Wavefront file for 'WorldMap_mesh_0008.obj'

# Vertices (Count = 480)
v -59.73334 -80.00001 0
v -60.8 -80.00001 0
v -60.8 -78.93333 0
v -59.73334 -78.93333 0
v -58.66667 -80.00001 0
v -59.73334 -80.00001 0
v -59.73334 -78.93333 0
v -58.66667 -78.93333 0
v -57.6 -80.00001 0
v -58.66667 -80.00001 0
v -58.66667 -78.93333 0
v -57.6 -78.93333 0
v -56.53334 -80.00001 0
v -57.6 -80.00001 0
v -57.6 -78.93333 0
v -56.53334 -78.93333 0
v -55.46667 -80.00001 0
v -56.53334 -80.00001 0
v -56.53334 -78.93333 0
v -55.46667 -78.93333 0
v -54.4 -80.00001 0
v -55.46667 -80.00001 0
v -55.46667 -78.93333 0
v -54.4 -78.93333 0
v -53.33334 -80.00001 0
v -54.4 -80.00001 0
v -54.4 -78.93333 0
v -53.33334 -78.93333 0
v -52.26667 -80.00001 0
v -53.33334 -80.00001 0
v -53.33334 -78.93333 0
v -52.26667 -78.93333 0
v -51.2 -80.00001 0
v -52.26667 -80.00001 0
v -52.26667 -78.93333 0
v -51.2 -78.93333 0
v -50.13334 -80.00001 0
v -51.2 -80.00001 0
v -51.2 -78.93333 0
v -50.13334 -78.93333 0
v -49.06667 -80.00001 0
v -50.13334 -80.00001 0
v -50.13334 -78.93333 0
v -49.06667 -78.93333 0
v -48 -80.00001 0
v -49.06667 -80.00001 0
v -49.06667 -78.93333 0
v -48 -78.93333 0
v -46.93333 -80.00001 0
v -48 -80.00001 0
v -48 -78.93333 0
v -46.93333 -78.93333 0
v -45.86667 -80.00001 0
v -46.93333 -80.00001 0
v -46.93333 -78.93333 0
v -45.86667 -78.93333 0
v -44.8 -80.00001 0
v -45.86667 -80.00001 0
v -45.86667 -78.93333 0
v -44.8 -78.93333 0
v -43.73334 -80.00001 0
v -44.8 -80.00001 0
v -44.8 -78.93333 0
v -43.73334 -78.93333 0
v -42.66667 -80.00001 0
v -43.73334 -80.00001 0
v -43.73334 -78.93333 0
v -42.66667 -78.93333 0
v -41.6 -80.00001 0
v -42.66667 -80.00001 0
v -42.66667 -78.93333 0
v -41.6 -78.93333 0
v -40.53334 -80.00001 0
v -41.6 -80.00001 0
v -41.6 -78.93333 0
v -40.53334 -78.93333 0
v -39.46667 -80.00001 0
v -40.53334 -80.00001 0
v -40.53334 -78.93333 0
v -39.46667 -78.93333 0
v -38.4 -80.00001 0
v -39.46667 -80.00001 0
v -39.46667 -78.93333 0
v -38.4 -78.93333 0
v -37.33334 -80.00001 0
v -38.4 -80.00001 0
v -38.4 -78.93333 0
v -37.33334 -78.93333 0
v -36.26667 -80.00001 0
v -37.33334 -80.00001 0
v -37.33334 -78.93333 0
v -36.26667 -78.93333 0
v -35.2 -80.00001 0
v -36.26667 -80.00001 0
v -36.26667 -78.93333 0
v -35.2 -78.93333 0
v -34.13334 -80.00001 0
v -35.2 -80.00001 0
v -35.2 -78.93333 0
v -34.13334 -78.93333 0
v -33.06667 -80.00001 0
v -34.13334 -80.00001 0
v -34.13334 -78.93333 0
v -33.06667 -78.93333 0
v -59.73334 -81.06667 0
v -60.8 -81.06667 0
v -60.8 -80.00001 0
v -59.73334 -80.00001 0
v -58.66667 -81.06667 0
v -59.73334 -81.06667 0
v -59.73334 -80.00001 0
v -58.66667 -80.00001 0
v -57.6 -81.06667 0
v -58.66667 -81.06667 0
v -58.66667 -80.00001 0
v -57.6 -80.00001 0
v -56.53334 -81.06667 0
v -57.6 -81.06667 0
v -57.6 -80.00001 0
v -56.53334 -80.00001 0
v -55.46667 -81.06667 0
v -56.53334 -81.06667 0
v -56.53334 -80.00001 0
v -55.46667 -80.00001 0
v -54.4 -81.06667 0
v -55.46667 -81.06667 0
v -55.46667 -80.00001 0
v -54.4 -80.00001 0
v -53.33334 -81.06667 0
v -54.4 -81.06667 0
v -54.4 -80.00001 0
v -53.33334 -80.00001 0
v -52.26667 -81.06667 0
v -53.33334 -81.06667 0
v -53.33334 -80.00001 0
v -52.26667 -80.00001 0
v -51.2 -81.06667 0
v -52.26667 -81.06667 0
v -52.26667 -80.00001 0
v -51.2 -80.00001 0
v -50.13334 -81.06667 0
v -51.2 -81.06667 0
v -51.2 -80.00001 0
v -50.13334 -80.00001 0
v -49.06667 -81.06667 0
v -50.13334 -81.06667 0
v -50.13334 -80.00001 0
v -49.06667 -80.00001 0
v -48 -81.06667 0
v -49.06667 -81.06667 0
v -49.06667 -80.00001 0
v -48 -80.00001 0
v -46.93333 -81.06667 0
v -48 -81.06667 0
v -48 -80.00001 0
v -46.93333 -80.00001 0
v -45.86667 -81.06667 0
v -46.93333 -81.06667 0
v -46.93333 -80.00001 0
v -45.86667 -80.00001 0
v -44.8 -81.06667 0
v -45.86667 -81.06667 0
v -45.86667 -80.00001 0
v -44.8 -80.00001 0
v -43.73334 -81.06667 0
v -44.8 -81.06667 0
v -44.8 -80.00001 0
v -43.73334 -80.00001 0
v -42.66667 -81.06667 0
v -43.73334 -81.06667 0
v -43.73334 -80.00001 0
v -42.66667 -80.00001 0
v -41.6 -81.06667 0
v -42.66667 -81.06667 0
v -42.66667 -80.00001 0
v -41.6 -80.00001 0
v -40.53334 -81.06667 0
v -41.6 -81.06667 0
v -41.6 -80.00001 0
v -40.53334 -80.00001 0
v -39.46667 -81.06667 0
v -40.53334 -81.06667 0
v -40.53334 -80.00001 0
v -39.46667 -80.00001 0
v -38.4 -81.06667 0
v -39.46667 -81.06667 0
v -39.46667 -80.00001 0
v -38.4 -80.00001 0
v -37.33334 -81.06667 0
v -38.4 -81.06667 0
v -38.4 -80.00001 0
v -37.33334 -80.00001 0
v -36.26667 -81.06667 0
v -37.33334 -81.06667 0
v -37.33334 -80.00001 0
v -36.26667 -80.00001 0
v -35.2 -81.06667 0
v -36.26667 -81.06667 0
v -36.26667 -80.00001 0
v -35.2 -80.00001 0
v -34.13334 -81.06667 0
v -35.2 -81.06667 0
v -35.2 -80.00001 0
v -34.13334 -80.00001 0
v -33.06667 -81.06667 0
v -34.13334 -81.06667 0
v -34.13334 -80.00001 0
v -33.06667 -80.00001 0
v -59.73334 -82.13334 0
v -60.8 -82.13334 0
v -60.8 -81.06667 0
v -59.73334 -81.06667 0
v -58.66667 -82.13334 0
v -59.73334 -82.13334 0
v -59.73334 -81.06667 0
v -58.66667 -81.06667 0
v -57.6 -82.13334 0
v -58.66667 -82.13334 0
v -58.66667 -81.06667 0
v -57.6 -81.06667 0
v -56.53334 -82.13334 0
v -57.6 -82.13334 0
v -57.6 -81.06667 0
v -56.53334 -81.06667 0
v -55.46667 -82.13334 0
v -56.53334 -82.13334 0
v -56.53334 -81.06667 0
v -55.46667 -81.06667 0
v -54.4 -82.13334 0
v -55.46667 -82.13334 0
v -55.46667 -81.06667 0
v -54.4 -81.06667 0
v -53.33334 -82.13334 0
v -54.4 -82.13334 0
v -54.4 -81.06667 0
v -53.33334 -81.06667 0
v -52.26667 -82.13334 0
v -53.33334 -82.13334 0
v -53.33334 -81.06667 0
v -52.26667 -81.06667 0
v -51.2 -82.13334 0
v -52.26667 -82.13334 0
v -52.26667 -81.06667 0
v -51.2 -81.06667 0
v -50.13334 -82.13334 0
v -51.2 -82.13334 0
v -51.2 -81.06667 0
v -50.13334 -81.06667 0
v -49.06667 -82.13334 0
v -50.13334 -82.13334 0
v -50.13334 -81.06667 0
v -49.06667 -81.06667 0
v -48 -82.13334 0
v -49.06667 -82.13334 0
v -49.06667 -81.06667 0
v -48 -81.06667 0
v -46.93333 -82.13334 0
v -48 -82.13334 0
v -48 -81.06667 0
v -46.93333 -81.06667 0
v -45.86667 -82.13334 0
v -46.93333 -82.13334 0
v -46.93333 -81.06667 0
v -45.86667 -81.06667 0
v -44.8 -82.13334 0
v -45.86667 -82.13334 0
v -45.86667 -81.06667 0
v -44.8 -81.06667 0
v -43.73334 -82.13334 0
v -44.8 -82.13334 0
v -44.8 -81.06667 0
v -43.73334 -81.06667 0
v -42.66667 -82.13334 0
v -43.73334 -82.13334 0
v -43.73334 -81.06667 0
v -42.66667 -81.06667 0
v -41.6 -82.13334 0
v -42.66667 -82.13334 0
v -42.66667 -81.06667 0
v -41.6 -81.06667 0
v -40.53334 -82.13334 0
v -41.6 -82.13334 0
v -41.6 -81.06667 0
v -40.53334 -81.06667 0
v -39.46667 -82.13334 0
v -40.53334 -82.13334 0
v -40.53334 -81.06667 0
v -39.46667 -81.06667 0
v -38.4 -82.13334 0
v -39.46667 -82.13334 0
v -39.46667 -81.06667 0
v -38.4 -81.06667 0
v -37.33334 -82.13334 0
v -38.4 -82.13334 0
v -38.4 -81.06667 0
v -37.33334 -81.06667 0
v -36.26667 -82.13334 0
v -37.33334 -82.13334 0
v -37.33334 -81.06667 0
v -36.26667 -81.06667 0
v -35.2 -82.13334 0
v -36.26667 -82.13334 0
v -36.26667 -81.06667 0
v -35.2 -81.06667 0
v -34.13334 -82.13334 0
v -35.2 -82.13334 0
v -35.2 -81.06667 0
v -34.13334 -81.06667 0
v -33.06667 -82.13334 0
v -34.13334 -82.13334 0
v -34.13334 -81.06667 0
v -33.06667 -81.06667 0
v -59.73334 -83.2 0
v -60.8 -83.2 0
v -60.8 -82.13334 0
v -59.73334 -82.13334 0
v -58.66667 -83.2 0
v -59.73334 -83.2 0
v -59.73334 -82.13334 0
v -58.66667 -82.13334 0
v -57.6 -83.2 0
v -58.66667 -83.2 0
v -58.66667 -82.13334 0
v -57.6 -82.13334 0
v -56.53334 -83.2 0
v -57.6 -83.2 0
v -57.6 -82.13334 0
v -56.53334 -82.13334 0
v -55.46667 -83.2 0
v -56.53334 -83.2 0
v -56.53334 -82.13334 0
v -55.46667 -82.13334 0
v -54.4 -83.2 0
v -55.46667 -83.2 0
v -55.46667 -82.13334 0
v -54.4 -82.13334 0
v -53.33334 -83.2 0
v -54.4 -83.2 0
v -54.4 -82.13334 0
v -53.33334 -82.13334 0
v -52.26667 -83.2 0
v -53.33334 -83.2 0
v -53.33334 -82.13334 0
v -52.26667 -82.13334 0
v -51.2 -83.2 0
v -52.26667 -83.2 0
v -52.26667 -82.13334 0
v -51.2 -82.13334 0
v -50.13334 -83.2 0
v -51.2 -83.2 0
v -51.2 -82.13334 0
v -50.13334 -82.13334 0
v -49.06667 -83.2 0
v -50.13334 -83.2 0
v -50.13334 -82.13334 0
v -49.06667 -82.13334 0
v -48 -83.2 0
v -49.06667 -83.2 0
v -49.06667 -82.13334 0
v -48 -82.13334 0
v -46.93333 -83.2 0
v -48 -83.2 0
v -48 -82.13334 0
v -46.93333 -82.13334 0
v -45.86667 -83.2 0
v -46.93333 -83.2 0
v -46.93333 -82.13334 0
v -45.86667 -82.13334 0
v -44.8 -83.2 0
v -45.86667 -83.2 0
v -45.86667 -82.13334 0
v -44.8 -82.13334 0
v -43.73334 -83.2 0
v -44.8 -83.2 0
v -44.8 -82.13334 0
v -43.73334 -82.13334 0
v -42.66667 -83.2 0
v -43.73334 -83.2 0
v -43.73334 -82.13334 0
v -42.66667 -82.13334 0
v -41.6 -83.2 0
v -42.66667 -83.2 0
v -42.66667 -82.13334 0
v -41.6 -82.13334 0
v -40.53334 -83.2 0
v -41.6 -83.2 0
v -41.6 -82.13334 0
v -40.53334 -82.13334 0
v -39.46667 -83.2 0
v -40.53334 -83.2 0
v -40.53334 -82.13334 0
v -39.46667 -82.13334 0
v -38.4 -83.2 0
v -39.46667 -83.2 0
v -39.46667 -82.13334 0
v -38.4 -82.13334 0
v -37.33334 -83.2 0
v -38.4 -83.2 0
v -38.4 -82.13334 0
v -37.33334 -82.13334 0
v -36.26667 -83.2 0
v -37.33334 -83.2 0
v -37.33334 -82.13334 0
v -36.26667 -82.13334 0
v -35.2 -83.2 0
v -36.26667 -83.2 0
v -36.26667 -82.13334 0
v -35.2 -82.13334 0
v -34.13334 -83.2 0
v -35.2 -83.2 0
v -35.2 -82.13334 0
v -34.13334 -82.13334 0
v -33.06667 -83.2 0
v -34.13334 -83.2 0
v -34.13334 -82.13334 0
v -33.06667 -82.13334 0
v -59.73334 -84.26667 0
v -60.8 -84.26667 0
v -60.8 -83.2 0
v -59.73334 -83.2 0
v -58.66667 -84.26667 0
v -59.73334 -84.26667 0
v -59.73334 -83.2 0
v -58.66667 -83.2 0
v -57.6 -84.26667 0
v -58.66667 -84.26667 0
v -58.66667 -83.2 0
v -57.6 -83.2 0
v -56.53334 -84.26667 0
v -57.6 -84.26667 0
v -57.6 -83.2 0
v -56.53334 -83.2 0
v -59.73334 -85.33334 0
v -60.8 -85.33334 0
v -60.8 -84.26667 0
v -59.73334 -84.26667 0
v -58.66667 -85.33334 0
v -59.73334 -85.33334 0
v -59.73334 -84.26667 0
v -58.66667 -84.26667 0
v -57.6 -85.33334 0
v -58.66667 -85.33334 0
v -58.66667 -84.26667 0
v -57.6 -84.26667 0
v -56.53334 -85.33334 0
v -57.6 -85.33334 0
v -57.6 -84.26667 0
v -56.53334 -84.26667 0
v -59.73334 -86.4 0
v -60.8 -86.4 0
v -60.8 -85.33334 0
v -59.73334 -85.33334 0
v -58.66667 -86.4 0
v -59.73334 -86.4 0
v -59.73334 -85.33334 0
v -58.66667 -85.33334 0
v -57.6 -86.4 0
v -58.66667 -86.4 0
v -58.66667 -85.33334 0
v -57.6 -85.33334 0
v -56.53334 -86.4 0
v -57.6 -86.4 0
v -57.6 -85.33334 0
v -56.53334 -85.33334 0
v -59.73334 -87.46667 0
v -60.8 -87.46667 0
v -60.8 -86.4 0
v -59.73334 -86.4 0
v -58.66667 -87.46667 0
v -59.73334 -87.46667 0
v -59.73334 -86.4 0
v -58.66667 -86.4 0
v -57.6 -87.46667 0
v -58.66667 -87.46667 0
v -58.66667 -86.4 0
v -57.6 -86.4 0
v -56.53334 -87.46667 0
v -57.6 -87.46667 0
v -57.6 -86.4 0
v -56.53334 -86.4 0

# Texture cooridinates (Count = 48)
vt 0.433121 0.2147368
vt 0.4585987 0.2147368
vt 0.4585987 0.2484211
vt 0.433121 0.2484211
vt 0.4872611 0.1789474
vt 0.5127388 0.1789474
vt 0.5127388 0.2126316
vt 0.4872611 0.2126316
vt 0.406051 0.2147368
vt 0.4315287 0.2147368
vt 0.4315287 0.2484211
vt 0.406051 0.2484211
vt 0.4601911 0.2147368
vt 0.4856688 0.2147368
vt 0.4856688 0.2484211
vt 0.4601911 0.2484211
vt 0.2977707 0.2863158
vt 0.3232484 0.2863158
vt 0.3232484 0.32
vt 0.2977707 0.32
vt 0.2707006 0.2863158
vt 0.2961783 0.2863158
vt 0.2961783 0.32
vt 0.2707006 0.32
vt 0.4872611 0.2147368
vt 0.5127388 0.2147368
vt 0.5127388 0.2484211
vt 0.4872611 0.2484211
vt 0.2707006 0.2147368
vt 0.2961783 0.2147368
vt 0.2961783 0.2484211
vt 0.2707006 0.2484211
vt 0.2436306 0.2147368
vt 0.2691083 0.2147368
vt 0.2691083 0.2484211
vt 0.2436306 0.2484211
vt 0.2707006 0.2505263
vt 0.2961783 0.2505263
vt 0.2961783 0.2842105
vt 0.2707006 0.2842105
vt 0.4601911 0.1789474
vt 0.4856688 0.1789474
vt 0.4856688 0.2126316
vt 0.4601911 0.2126316
vt 0.406051 0.1789474
vt 0.4315287 0.1789474
vt 0.4315287 0.2126316
vt 0.406051 0.2126316

# Normal
vn 0 0 -1

# Mesh description
g WorldMap_mesh_0008

# Faces
f 1/1/1 2/2/1 3/3/1 4/4/1
f 5/5/1 6/6/1 7/7/1 8/8/1
f 9/5/1 10/6/1 11/7/1 12/8/1
f 13/5/1 14/6/1 15/7/1 16/8/1
f 17/5/1 18/6/1 19/7/1 20/8/1
f 21/5/1 22/6/1 23/7/1 24/8/1
f 25/5/1 26/6/1 27/7/1 28/8/1
f 29/5/1 30/6/1 31/7/1 32/8/1
f 33/5/1 34/6/1 35/7/1 36/8/1
f 37/5/1 38/6/1 39/7/1 40/8/1
f 41/5/1 42/6/1 43/7/1 44/8/1
f 45/5/1 46/6/1 47/7/1 48/8/1
f 49/5/1 50/6/1 51/7/1 52/8/1
f 53/5/1 54/6/1 55/7/1 56/8/1
f 57/5/1 58/6/1 59/7/1 60/8/1
f 61/5/1 62/6/1 63/7/1 64/8/1
f 65/5/1 66/6/1 67/7/1 68/8/1
f 69/5/1 70/6/1 71/7/1 72/8/1
f 73/5/1 74/6/1 75/7/1 76/8/1
f 77/5/1 78/6/1 79/7/1 80/8/1
f 81/5/1 82/6/1 83/7/1 84/8/1
f 85/5/1 86/6/1 87/7/1 88/8/1
f 89/5/1 90/6/1 91/7/1 92/8/1
f 93/5/1 94/6/1 95/7/1 96/8/1
f 97/5/1 98/6/1 99/7/1 100/8/1
f 101/9/1 102/10/1 103/11/1 104/12/1
f 105/13/1 106/14/1 107/15/1 108/16/1
f 109/17/1 110/18/1 111/19/1 112/20/1
f 113/17/1 114/18/1 115/19/1 116/20/1
f 117/17/1 118/18/1 119/19/1 120/20/1
f 121/21/1 122/22/1 123/23/1 124/24/1
f 125/21/1 126/22/1 127/23/1 128/24/1
f 129/21/1 130/22/1 131/23/1 132/24/1
f 133/21/1 134/22/1 135/23/1 136/24/1
f 137/21/1 138/22/1 139/23/1 140/24/1
f 141/21/1 142/22/1 143/23/1 144/24/1
f 145/21/1 146/22/1 147/23/1 148/24/1
f 149/21/1 150/22/1 151/23/1 152/24/1
f 153/21/1 154/22/1 155/23/1 156/24/1
f 157/21/1 158/22/1 159/23/1 160/24/1
f 161/21/1 162/22/1 163/23/1 164/24/1
f 165/21/1 166/22/1 167/23/1 168/24/1
f 169/21/1 170/22/1 171/23/1 172/24/1
f 173/21/1 174/22/1 175/23/1 176/24/1
f 177/21/1 178/22/1 179/23/1 180/24/1
f 181/21/1 182/22/1 183/23/1 184/24/1
f 185/21/1 186/22/1 187/23/1 188/24/1
f 189/21/1 190/22/1 191/23/1 192/24/1
f 193/21/1 194/22/1 195/23/1 196/24/1
f 197/21/1 198/22/1 199/23/1 200/24/1
f 201/21/1 202/22/1 203/23/1 204/24/1
f 205/25/1 206/26/1 207/27/1 208/28/1
f 209/13/1 210/14/1 211/15/1 212/16/1
f 213/29/1 214/30/1 215/31/1 216/32/1
f 217/33/1 218/34/1 219/35/1 220/36/1
f 221/17/1 222/18/1 223/19/1 224/20/1
f 225/37/1 226/38/1 227/39/1 228/40/1
f 229/37/1 230/38/1 231/39/1 232/40/1
f 233/37/1 234/38/1 235/39/1 236/40/1
f 237/37/1 238/38/1 239/39/1 240/40/1
f 241/37/1 242/38/1 243/39/1 244/40/1
f 245/37/1 246/38/1 247/39/1 248/40/1
f 249/37/1 250/38/1 251/39/1 252/40/1
f 253/37/1 254/38/1 255/39/1 256/40/1
f 257/37/1 258/38/1 259/39/1 260/40/1
f 261/37/1 262/38/1 263/39/1 264/40/1
f 265/37/1 266/38/1 267/39/1 268/40/1
f 269/37/1 270/38/1 271/39/1 272/40/1
f 273/37/1 274/38/1 275/39/1 276/40/1
f 277/37/1 278/38/1 279/39/1 280/40/1
f 281/37/1 282/38/1 283/39/1 284/40/1
f 285/37/1 286/38/1 287/39/1 288/40/1
f 289/37/1 290/38/1 291/39/1 292/40/1
f 293/37/1 294/38/1 295/39/1 296/40/1
f 297/37/1 298/38/1 299/39/1 300/40/1
f 301/37/1 302/38/1 303/39/1 304/40/1
f 305/37/1 306/38/1 307/39/1 308/40/1
f 309/25/1 310/26/1 311/27/1 312/28/1
f 313/13/1 314/14/1 315/15/1 316/16/1
f 317/29/1 318/30/1 319/31/1 320/32/1
f 321/33/1 322/34/1 323/35/1 324/36/1
f 325/17/1 326/18/1 327/19/1 328/20/1
f 329/41/1 330/42/1 331/43/1 332/44/1
f 333/41/1 334/42/1 335/43/1 336/44/1
f 337/41/1 338/42/1 339/43/1 340/44/1
f 341/41/1 342/42/1 343/43/1 344/44/1
f 345/41/1 346/42/1 347/43/1 348/44/1
f 349/41/1 350/42/1 351/43/1 352/44/1
f 353/41/1 354/42/1 355/43/1 356/44/1
f 357/41/1 358/42/1 359/43/1 360/44/1
f 361/41/1 362/42/1 363/43/1 364/44/1
f 365/41/1 366/42/1 367/43/1 368/44/1
f 369/41/1 370/42/1 371/43/1 372/44/1
f 373/41/1 374/42/1 375/43/1 376/44/1
f 377/41/1 378/42/1 379/43/1 380/44/1
f 381/41/1 382/42/1 383/43/1 384/44/1
f 385/41/1 386/42/1 387/43/1 388/44/1
f 389/41/1 390/42/1 391/43/1 392/44/1
f 393/41/1 394/42/1 395/43/1 396/44/1
f 397/41/1 398/42/1 399/43/1 400/44/1
f 401/41/1 402/42/1 403/43/1 404/44/1
f 405/41/1 406/42/1 407/43/1 408/44/1
f 409/41/1 410/42/1 411/43/1 412/44/1
f 413/45/1 414/46/1 415/47/1 416/48/1
f 417/17/1 418/18/1 419/19/1 420/20/1
f 421/29/1 422/30/1 423/31/1 424/32/1
f 425/33/1 426/34/1 427/35/1 428/36/1
f 429/25/1 430/26/1 431/27/1 432/28/1
f 433/17/1 434/18/1 435/19/1 436/20/1
f 437/29/1 438/30/1 439/31/1 440/32/1
f 441/33/1 442/34/1 443/35/1 444/36/1
f 445/25/1 446/26/1 447/27/1 448/28/1
f 449/17/1 450/18/1 451/19/1 452/20/1
f 453/17/1 454/18/1 455/19/1 456/20/1
f 457/17/1 458/18/1 459/19/1 460/20/1
f 461/25/1 462/26/1 463/27/1 464/28/1
f 465/41/1 466/42/1 467/43/1 468/44/1
f 469/41/1 470/42/1 471/43/1 472/44/1
f 473/41/1 474/42/1 475/43/1 476/44/1
f 477/45/1 478/46/1 479/47/1 480/48/1

