# Tiled2Unity generated file. Do not modify by hand.
# Wavefront file for 'CS_mesh_0013.obj'

# Vertices (Count = 76)
v -113.0667 -149.3333 0
v -114.1333 -149.3333 0
v -114.1333 -148.2667 0
v -113.0667 -148.2667 0
v -115.2 -150.4 0
v -116.2667 -150.4 0
v -116.2667 -149.3333 0
v -115.2 -149.3333 0
v -116.2667 -151.4667 0
v -117.3333 -151.4667 0
v -117.3333 -150.4 0
v -116.2667 -150.4 0
v -114.1333 -151.4667 0
v -115.2 -151.4667 0
v -115.2 -150.4 0
v -114.1333 -150.4 0
v -113.0667 -152.5333 0
v -114.1333 -152.5333 0
v -114.1333 -151.4667 0
v -113.0667 -151.4667 0
v -115.2 -153.6 0
v -116.2667 -153.6 0
v -116.2667 -152.5333 0
v -115.2 -152.5333 0
v -114.1333 -153.6 0
v -115.2 -153.6 0
v -115.2 -152.5333 0
v -114.1333 -152.5333 0
v -113.0667 -153.6 0
v -114.1333 -153.6 0
v -114.1333 -152.5333 0
v -113.0667 -152.5333 0
v -116.2667 -154.6667 0
v -117.3333 -154.6667 0
v -117.3333 -153.6 0
v -116.2667 -153.6 0
v -114.1333 -154.6667 0
v -115.2 -154.6667 0
v -115.2 -153.6 0
v -114.1333 -153.6 0
v -113.0667 -154.6667 0
v -114.1333 -154.6667 0
v -114.1333 -153.6 0
v -113.0667 -153.6 0
v -115.2 -155.7333 0
v -116.2667 -155.7333 0
v -116.2667 -154.6667 0
v -115.2 -154.6667 0
v -113.0667 -155.7333 0
v -114.1333 -155.7333 0
v -114.1333 -154.6667 0
v -113.0667 -154.6667 0
v -116.2667 -156.8 0
v -117.3333 -156.8 0
v -117.3333 -155.7333 0
v -116.2667 -155.7333 0
v -114.1333 -156.8 0
v -115.2 -156.8 0
v -115.2 -155.7333 0
v -114.1333 -155.7333 0
v -109.8667 -158.9333 0
v -110.9333 -158.9333 0
v -110.9333 -157.8667 0
v -109.8667 -157.8667 0
v -105.6 -158.9333 0
v -106.6667 -158.9333 0
v -106.6667 -157.8667 0
v -105.6 -157.8667 0
v -109.8667 -163.2 0
v -110.9333 -163.2 0
v -110.9333 -162.1333 0
v -109.8667 -162.1333 0
v -105.6 -163.2 0
v -106.6667 -163.2 0
v -106.6667 -162.1333 0
v -105.6 -162.1333 0

# Texture cooridinates (Count = 52)
vt 0.3688017 0.7756654
vt 0.3853306 0.7756654
vt 0.3853306 0.8060837
vt 0.3688017 0.8060837
vt 0.4917355 0.9372624
vt 0.5082645 0.9372624
vt 0.5082645 0.9676806
vt 0.4917355 0.9676806
vt 0.4380165 0.838403
vt 0.4214876 0.838403
vt 0.4214876 0.8079848
vt 0.4380165 0.8079848
vt 0.5092975 0.8726236
vt 0.5258265 0.8726236
vt 0.5258265 0.9030418
vt 0.5092975 0.9030418
vt 0.5258265 1
vt 0.5092975 1
vt 0.5092975 0.9695817
vt 0.5258265 0.9695817
vt 0.4555785 0.8079848
vt 0.4555785 0.838403
vt 0.4390496 0.838403
vt 0.4390496 0.8079848
vt 0.5092975 0.8403042
vt 0.5258265 0.8403042
vt 0.5258265 0.8707224
vt 0.5092975 0.8707224
vt 0.3863636 0.838403
vt 0.3863636 0.8079848
vt 0.4028926 0.8079848
vt 0.4028926 0.838403
vt 0.4917355 0.8707224
vt 0.4917355 0.8403042
vt 0.5082645 0.8403042
vt 0.5082645 0.8707224
vt 0.4917355 0.9030418
vt 0.4917355 0.8726236
vt 0.5082645 0.8726236
vt 0.5082645 0.9030418
vt 0.3853306 0.838403
vt 0.3688017 0.838403
vt 0.3688017 0.8079848
vt 0.3853306 0.8079848
vt 0.3336777 0.838403
vt 0.3336777 0.8079848
vt 0.3502066 0.8079848
vt 0.3502066 0.838403
vt 0.6146694 0.3231939
vt 0.6311983 0.3231939
vt 0.6311983 0.3536122
vt 0.6146694 0.3536122

# Normal
vn 0 0 -1

# Mesh description
g CS_mesh_0013

# Faces
f 1/1/1 2/2/1 3/3/1 4/4/1
f 5/5/1 6/6/1 7/7/1 8/8/1
f 9/1/1 10/2/1 11/3/1 12/4/1
f 13/9/1 14/10/1 15/11/1 16/12/1
f 17/13/1 18/14/1 19/15/1 20/16/1
f 21/17/1 22/18/1 23/19/1 24/20/1
f 25/21/1 26/22/1 27/23/1 28/24/1
f 29/25/1 30/26/1 31/27/1 32/28/1
f 33/29/1 34/30/1 35/31/1 36/32/1
f 37/33/1 38/34/1 39/35/1 40/36/1
f 41/37/1 42/38/1 43/39/1 44/40/1
f 45/41/1 46/42/1 47/43/1 48/44/1
f 49/1/1 50/2/1 51/3/1 52/4/1
f 53/9/1 54/10/1 55/11/1 56/12/1
f 57/45/1 58/46/1 59/47/1 60/48/1
f 61/49/1 62/50/1 63/51/1 64/52/1
f 65/49/1 66/50/1 67/51/1 68/52/1
f 69/49/1 70/50/1 71/51/1 72/52/1
f 73/49/1 74/50/1 75/51/1 76/52/1

