# Tiled2Unity generated file. Do not modify by hand.
# Wavefront file for 'CS_mesh_0016.obj'

# Vertices (Count = 8)
v -90.66667 -162.1333 0
v -91.73334 -162.1333 0
v -91.73334 -161.0667 0
v -90.66667 -161.0667 0
v -89.60001 -162.1333 0
v -90.66667 -162.1333 0
v -90.66667 -161.0667 0
v -89.60001 -161.0667 0

# Texture cooridinates (Count = 8)
vt 0.5795454 0.7756654
vt 0.5960744 0.7756654
vt 0.5960744 0.8060837
vt 0.5795454 0.8060837
vt 0.5619835 0.7756654
vt 0.5785124 0.7756654
vt 0.5785124 0.8060837
vt 0.5619835 0.8060837

# Normal
vn 0 0 -1

# Mesh description
g CS_mesh_0016

# Faces
f 1/1/1 2/2/1 3/3/1 4/4/1
f 5/5/1 6/6/1 7/7/1 8/8/1

