# Tiled2Unity generated file. Do not modify by hand.
# Wavefront file for 'CS_mesh_0014.obj'

# Vertices (Count = 32)
v -108.8 -119.4667 0
v -109.8667 -119.4667 0
v -109.8667 -118.4 0
v -108.8 -118.4 0
v -105.6 -119.4667 0
v -106.6667 -119.4667 0
v -106.6667 -118.4 0
v -105.6 -118.4 0
v -101.3333 -119.4667 0
v -102.4 -119.4667 0
v -102.4 -118.4 0
v -101.3333 -118.4 0
v -98.13334 -119.4667 0
v -99.2 -119.4667 0
v -99.2 -118.4 0
v -98.13334 -118.4 0
v -94.93334 -121.6 0
v -96.00001 -121.6 0
v -96.00001 -120.5333 0
v -94.93334 -120.5333 0
v -91.73334 -124.8 0
v -92.8 -124.8 0
v -92.8 -123.7333 0
v -91.73334 -123.7333 0
v -88.53334 -128 0
v -89.60001 -128 0
v -89.60001 -126.9333 0
v -88.53334 -126.9333 0
v -85.33334 -131.2 0
v -86.4 -131.2 0
v -86.4 -130.1333 0
v -85.33334 -130.1333 0

# Texture cooridinates (Count = 4)
vt 0.2985537 0.7110266
vt 0.3150826 0.7110266
vt 0.3150826 0.7414448
vt 0.2985537 0.7414448

# Normal
vn 0 0 -1

# Mesh description
g CS_mesh_0014

# Faces
f 1/1/1 2/2/1 3/3/1 4/4/1
f 5/1/1 6/2/1 7/3/1 8/4/1
f 9/1/1 10/2/1 11/3/1 12/4/1
f 13/1/1 14/2/1 15/3/1 16/4/1
f 17/1/1 18/2/1 19/3/1 20/4/1
f 21/1/1 22/2/1 23/3/1 24/4/1
f 25/1/1 26/2/1 27/3/1 28/4/1
f 29/1/1 30/2/1 31/3/1 32/4/1

