# Tiled2Unity generated file. Do not modify by hand.
# Wavefront file for 'CS_mesh_0011.obj'

# Vertices (Count = 48)
v -80.00001 -120.5333 0
v -81.06667 -120.5333 0
v -81.06667 -119.4667 0
v -80.00001 -119.4667 0
v -80.00001 -123.7333 0
v -81.06667 -123.7333 0
v -81.06667 -122.6667 0
v -80.00001 -122.6667 0
v -80.00001 -126.9333 0
v -81.06667 -126.9333 0
v -81.06667 -125.8667 0
v -80.00001 -125.8667 0
v -80.00001 -130.1333 0
v -81.06667 -130.1333 0
v -81.06667 -129.0667 0
v -80.00001 -129.0667 0
v -80.00001 -133.3333 0
v -81.06667 -133.3333 0
v -81.06667 -132.2667 0
v -80.00001 -132.2667 0
v -80.00001 -136.5333 0
v -81.06667 -136.5333 0
v -81.06667 -135.4667 0
v -80.00001 -135.4667 0
v -82.13334 -139.7333 0
v -83.2 -139.7333 0
v -83.2 -138.6667 0
v -82.13334 -138.6667 0
v -81.06667 -139.7333 0
v -82.13334 -139.7333 0
v -82.13334 -138.6667 0
v -81.06667 -138.6667 0
v -82.13334 -142.9333 0
v -83.2 -142.9333 0
v -83.2 -141.8667 0
v -82.13334 -141.8667 0
v -81.06667 -142.9333 0
v -82.13334 -142.9333 0
v -82.13334 -141.8667 0
v -81.06667 -141.8667 0
v -82.13334 -146.1333 0
v -83.2 -146.1333 0
v -83.2 -145.0667 0
v -82.13334 -145.0667 0
v -81.06667 -146.1333 0
v -82.13334 -146.1333 0
v -82.13334 -145.0667 0
v -81.06667 -145.0667 0

# Texture cooridinates (Count = 8)
vt 0.7439825 0.557377
vt 0.7789934 0.557377
vt 0.7789934 0.6098361
vt 0.7439825 0.6098361
vt 0.7439825 0.6131147
vt 0.7789934 0.6131147
vt 0.7789934 0.6655738
vt 0.7439825 0.6655738

# Normal
vn 0 0 -1

# Mesh description
g CS_mesh_0011

# Faces
f 1/1/1 2/2/1 3/3/1 4/4/1
f 5/1/1 6/2/1 7/3/1 8/4/1
f 9/1/1 10/2/1 11/3/1 12/4/1
f 13/1/1 14/2/1 15/3/1 16/4/1
f 17/1/1 18/2/1 19/3/1 20/4/1
f 21/1/1 22/2/1 23/3/1 24/4/1
f 25/5/1 26/6/1 27/7/1 28/8/1
f 29/1/1 30/2/1 31/3/1 32/4/1
f 33/5/1 34/6/1 35/7/1 36/8/1
f 37/1/1 38/2/1 39/3/1 40/4/1
f 41/5/1 42/6/1 43/7/1 44/8/1
f 45/1/1 46/2/1 47/3/1 48/4/1

