# Tiled2Unity generated file. Do not modify by hand.
# Wavefront file for 'CS_mesh_0004.obj'

# Vertices (Count = 560)
v -110.9333 -118.4 0
v -112 -118.4 0
v -112 -117.3333 0
v -110.9333 -117.3333 0
v -109.8667 -118.4 0
v -110.9333 -118.4 0
v -110.9333 -117.3333 0
v -109.8667 -117.3333 0
v -108.8 -118.4 0
v -109.8667 -118.4 0
v -109.8667 -117.3333 0
v -108.8 -117.3333 0
v -107.7333 -118.4 0
v -108.8 -118.4 0
v -108.8 -117.3333 0
v -107.7333 -117.3333 0
v -106.6667 -118.4 0
v -107.7333 -118.4 0
v -107.7333 -117.3333 0
v -106.6667 -117.3333 0
v -105.6 -118.4 0
v -106.6667 -118.4 0
v -106.6667 -117.3333 0
v -105.6 -117.3333 0
v -101.3333 -118.4 0
v -102.4 -118.4 0
v -102.4 -117.3333 0
v -101.3333 -117.3333 0
v -100.2667 -118.4 0
v -101.3333 -118.4 0
v -101.3333 -117.3333 0
v -100.2667 -117.3333 0
v -99.2 -118.4 0
v -100.2667 -118.4 0
v -100.2667 -117.3333 0
v -99.2 -117.3333 0
v -98.13334 -118.4 0
v -99.2 -118.4 0
v -99.2 -117.3333 0
v -98.13334 -117.3333 0
v -97.06667 -118.4 0
v -98.13334 -118.4 0
v -98.13334 -117.3333 0
v -97.06667 -117.3333 0
v -96.00001 -118.4 0
v -97.06667 -118.4 0
v -97.06667 -117.3333 0
v -96.00001 -117.3333 0
v -110.9333 -119.4667 0
v -112 -119.4667 0
v -112 -118.4 0
v -110.9333 -118.4 0
v -109.8667 -119.4667 0
v -110.9333 -119.4667 0
v -110.9333 -118.4 0
v -109.8667 -118.4 0
v -108.8 -119.4667 0
v -109.8667 -119.4667 0
v -109.8667 -118.4 0
v -108.8 -118.4 0
v -107.7333 -119.4667 0
v -108.8 -119.4667 0
v -108.8 -118.4 0
v -107.7333 -118.4 0
v -106.6667 -119.4667 0
v -107.7333 -119.4667 0
v -107.7333 -118.4 0
v -106.6667 -118.4 0
v -105.6 -119.4667 0
v -106.6667 -119.4667 0
v -106.6667 -118.4 0
v -105.6 -118.4 0
v -101.3333 -119.4667 0
v -102.4 -119.4667 0
v -102.4 -118.4 0
v -101.3333 -118.4 0
v -100.2667 -119.4667 0
v -101.3333 -119.4667 0
v -101.3333 -118.4 0
v -100.2667 -118.4 0
v -99.2 -119.4667 0
v -100.2667 -119.4667 0
v -100.2667 -118.4 0
v -99.2 -118.4 0
v -98.13334 -119.4667 0
v -99.2 -119.4667 0
v -99.2 -118.4 0
v -98.13334 -118.4 0
v -97.06667 -119.4667 0
v -98.13334 -119.4667 0
v -98.13334 -118.4 0
v -97.06667 -118.4 0
v -96.00001 -119.4667 0
v -97.06667 -119.4667 0
v -97.06667 -118.4 0
v -96.00001 -118.4 0
v -94.93334 -119.4667 0
v -96.00001 -119.4667 0
v -96.00001 -118.4 0
v -94.93334 -118.4 0
v -109.8667 -120.5333 0
v -110.9333 -120.5333 0
v -110.9333 -119.4667 0
v -109.8667 -119.4667 0
v -108.8 -120.5333 0
v -109.8667 -120.5333 0
v -109.8667 -119.4667 0
v -108.8 -119.4667 0
v -107.7333 -120.5333 0
v -108.8 -120.5333 0
v -108.8 -119.4667 0
v -107.7333 -119.4667 0
v -106.6667 -120.5333 0
v -107.7333 -120.5333 0
v -107.7333 -119.4667 0
v -106.6667 -119.4667 0
v -105.6 -120.5333 0
v -106.6667 -120.5333 0
v -106.6667 -119.4667 0
v -105.6 -119.4667 0
v -101.3333 -120.5333 0
v -102.4 -120.5333 0
v -102.4 -119.4667 0
v -101.3333 -119.4667 0
v -100.2667 -120.5333 0
v -101.3333 -120.5333 0
v -101.3333 -119.4667 0
v -100.2667 -119.4667 0
v -99.2 -120.5333 0
v -100.2667 -120.5333 0
v -100.2667 -119.4667 0
v -99.2 -119.4667 0
v -98.13334 -120.5333 0
v -99.2 -120.5333 0
v -99.2 -119.4667 0
v -98.13334 -119.4667 0
v -97.06667 -120.5333 0
v -98.13334 -120.5333 0
v -98.13334 -119.4667 0
v -97.06667 -119.4667 0
v -96.00001 -120.5333 0
v -97.06667 -120.5333 0
v -97.06667 -119.4667 0
v -96.00001 -119.4667 0
v -94.93334 -120.5333 0
v -96.00001 -120.5333 0
v -96.00001 -119.4667 0
v -94.93334 -119.4667 0
v -93.86667 -120.5333 0
v -94.93334 -120.5333 0
v -94.93334 -119.4667 0
v -93.86667 -119.4667 0
v -96.00001 -121.6 0
v -97.06667 -121.6 0
v -97.06667 -120.5333 0
v -96.00001 -120.5333 0
v -94.93334 -121.6 0
v -96.00001 -121.6 0
v -96.00001 -120.5333 0
v -94.93334 -120.5333 0
v -93.86667 -121.6 0
v -94.93334 -121.6 0
v -94.93334 -120.5333 0
v -93.86667 -120.5333 0
v -92.8 -121.6 0
v -93.86667 -121.6 0
v -93.86667 -120.5333 0
v -92.8 -120.5333 0
v -94.93334 -122.6667 0
v -96.00001 -122.6667 0
v -96.00001 -121.6 0
v -94.93334 -121.6 0
v -93.86667 -122.6667 0
v -94.93334 -122.6667 0
v -94.93334 -121.6 0
v -93.86667 -121.6 0
v -92.8 -122.6667 0
v -93.86667 -122.6667 0
v -93.86667 -121.6 0
v -92.8 -121.6 0
v -91.73334 -122.6667 0
v -92.8 -122.6667 0
v -92.8 -121.6 0
v -91.73334 -121.6 0
v -93.86667 -123.7333 0
v -94.93334 -123.7333 0
v -94.93334 -122.6667 0
v -93.86667 -122.6667 0
v -92.8 -123.7333 0
v -93.86667 -123.7333 0
v -93.86667 -122.6667 0
v -92.8 -122.6667 0
v -91.73334 -123.7333 0
v -92.8 -123.7333 0
v -92.8 -122.6667 0
v -91.73334 -122.6667 0
v -90.66667 -123.7333 0
v -91.73334 -123.7333 0
v -91.73334 -122.6667 0
v -90.66667 -122.6667 0
v -92.8 -124.8 0
v -93.86667 -124.8 0
v -93.86667 -123.7333 0
v -92.8 -123.7333 0
v -91.73334 -124.8 0
v -92.8 -124.8 0
v -92.8 -123.7333 0
v -91.73334 -123.7333 0
v -90.66667 -124.8 0
v -91.73334 -124.8 0
v -91.73334 -123.7333 0
v -90.66667 -123.7333 0
v -89.60001 -124.8 0
v -90.66667 -124.8 0
v -90.66667 -123.7333 0
v -89.60001 -123.7333 0
v -91.73334 -125.8667 0
v -92.8 -125.8667 0
v -92.8 -124.8 0
v -91.73334 -124.8 0
v -90.66667 -125.8667 0
v -91.73334 -125.8667 0
v -91.73334 -124.8 0
v -90.66667 -124.8 0
v -89.60001 -125.8667 0
v -90.66667 -125.8667 0
v -90.66667 -124.8 0
v -89.60001 -124.8 0
v -88.53334 -125.8667 0
v -89.60001 -125.8667 0
v -89.60001 -124.8 0
v -88.53334 -124.8 0
v -90.66667 -126.9333 0
v -91.73334 -126.9333 0
v -91.73334 -125.8667 0
v -90.66667 -125.8667 0
v -89.60001 -126.9333 0
v -90.66667 -126.9333 0
v -90.66667 -125.8667 0
v -89.60001 -125.8667 0
v -88.53334 -126.9333 0
v -89.60001 -126.9333 0
v -89.60001 -125.8667 0
v -88.53334 -125.8667 0
v -87.46667 -126.9333 0
v -88.53334 -126.9333 0
v -88.53334 -125.8667 0
v -87.46667 -125.8667 0
v -89.60001 -128 0
v -90.66667 -128 0
v -90.66667 -126.9333 0
v -89.60001 -126.9333 0
v -88.53334 -128 0
v -89.60001 -128 0
v -89.60001 -126.9333 0
v -88.53334 -126.9333 0
v -87.46667 -128 0
v -88.53334 -128 0
v -88.53334 -126.9333 0
v -87.46667 -126.9333 0
v -86.4 -128 0
v -87.46667 -128 0
v -87.46667 -126.9333 0
v -86.4 -126.9333 0
v -88.53334 -129.0667 0
v -89.60001 -129.0667 0
v -89.60001 -128 0
v -88.53334 -128 0
v -87.46667 -129.0667 0
v -88.53334 -129.0667 0
v -88.53334 -128 0
v -87.46667 -128 0
v -86.4 -129.0667 0
v -87.46667 -129.0667 0
v -87.46667 -128 0
v -86.4 -128 0
v -85.33334 -129.0667 0
v -86.4 -129.0667 0
v -86.4 -128 0
v -85.33334 -128 0
v -87.46667 -130.1333 0
v -88.53334 -130.1333 0
v -88.53334 -129.0667 0
v -87.46667 -129.0667 0
v -86.4 -130.1333 0
v -87.46667 -130.1333 0
v -87.46667 -129.0667 0
v -86.4 -129.0667 0
v -85.33334 -130.1333 0
v -86.4 -130.1333 0
v -86.4 -129.0667 0
v -85.33334 -129.0667 0
v -84.26667 -130.1333 0
v -85.33334 -130.1333 0
v -85.33334 -129.0667 0
v -84.26667 -129.0667 0
v -86.4 -131.2 0
v -87.46667 -131.2 0
v -87.46667 -130.1333 0
v -86.4 -130.1333 0
v -85.33334 -131.2 0
v -86.4 -131.2 0
v -86.4 -130.1333 0
v -85.33334 -130.1333 0
v -84.26667 -131.2 0
v -85.33334 -131.2 0
v -85.33334 -130.1333 0
v -84.26667 -130.1333 0
v -83.2 -131.2 0
v -84.26667 -131.2 0
v -84.26667 -130.1333 0
v -83.2 -130.1333 0
v -85.33334 -132.2667 0
v -86.4 -132.2667 0
v -86.4 -131.2 0
v -85.33334 -131.2 0
v -84.26667 -132.2667 0
v -85.33334 -132.2667 0
v -85.33334 -131.2 0
v -84.26667 -131.2 0
v -83.2 -132.2667 0
v -84.26667 -132.2667 0
v -84.26667 -131.2 0
v -83.2 -131.2 0
v -84.26667 -133.3333 0
v -85.33334 -133.3333 0
v -85.33334 -132.2667 0
v -84.26667 -132.2667 0
v -83.2 -133.3333 0
v -84.26667 -133.3333 0
v -84.26667 -132.2667 0
v -83.2 -132.2667 0
v -83.2 -134.4 0
v -84.26667 -134.4 0
v -84.26667 -133.3333 0
v -83.2 -133.3333 0
v -83.2 -135.4667 0
v -84.26667 -135.4667 0
v -84.26667 -134.4 0
v -83.2 -134.4 0
v -83.2 -136.5333 0
v -84.26667 -136.5333 0
v -84.26667 -135.4667 0
v -83.2 -135.4667 0
v -83.2 -137.6 0
v -84.26667 -137.6 0
v -84.26667 -136.5333 0
v -83.2 -136.5333 0
v -112 -149.3333 0
v -113.0667 -149.3333 0
v -113.0667 -148.2667 0
v -112 -148.2667 0
v -73.60001 -149.3333 0
v -74.66667 -149.3333 0
v -74.66667 -148.2667 0
v -73.60001 -148.2667 0
v -112 -150.4 0
v -113.0667 -150.4 0
v -113.0667 -149.3333 0
v -112 -149.3333 0
v -73.60001 -150.4 0
v -74.66667 -150.4 0
v -74.66667 -149.3333 0
v -73.60001 -149.3333 0
v -112 -151.4667 0
v -113.0667 -151.4667 0
v -113.0667 -150.4 0
v -112 -150.4 0
v -73.60001 -151.4667 0
v -74.66667 -151.4667 0
v -74.66667 -150.4 0
v -73.60001 -150.4 0
v -114.1333 -152.5333 0
v -115.2 -152.5333 0
v -115.2 -151.4667 0
v -114.1333 -151.4667 0
v -113.0667 -152.5333 0
v -114.1333 -152.5333 0
v -114.1333 -151.4667 0
v -113.0667 -151.4667 0
v -112 -152.5333 0
v -113.0667 -152.5333 0
v -113.0667 -151.4667 0
v -112 -151.4667 0
v -73.60001 -152.5333 0
v -74.66667 -152.5333 0
v -74.66667 -151.4667 0
v -73.60001 -151.4667 0
v -73.60001 -153.6 0
v -74.66667 -153.6 0
v -74.66667 -152.5333 0
v -73.60001 -152.5333 0
v -112 -154.6667 0
v -113.0667 -154.6667 0
v -113.0667 -153.6 0
v -112 -153.6 0
v -73.60001 -154.6667 0
v -74.66667 -154.6667 0
v -74.66667 -153.6 0
v -73.60001 -153.6 0
v -112 -155.7333 0
v -113.0667 -155.7333 0
v -113.0667 -154.6667 0
v -112 -154.6667 0
v -73.60001 -155.7333 0
v -74.66667 -155.7333 0
v -74.66667 -154.6667 0
v -73.60001 -154.6667 0
v -112 -156.8 0
v -113.0667 -156.8 0
v -113.0667 -155.7333 0
v -112 -155.7333 0
v -109.8667 -156.8 0
v -110.9333 -156.8 0
v -110.9333 -155.7333 0
v -109.8667 -155.7333 0
v -105.6 -156.8 0
v -106.6667 -156.8 0
v -106.6667 -155.7333 0
v -105.6 -155.7333 0
v -73.60001 -156.8 0
v -74.66667 -156.8 0
v -74.66667 -155.7333 0
v -73.60001 -155.7333 0
v -112 -157.8667 0
v -113.0667 -157.8667 0
v -113.0667 -156.8 0
v -112 -156.8 0
v -109.8667 -157.8667 0
v -110.9333 -157.8667 0
v -110.9333 -156.8 0
v -109.8667 -156.8 0
v -105.6 -157.8667 0
v -106.6667 -157.8667 0
v -106.6667 -156.8 0
v -105.6 -156.8 0
v -73.60001 -157.8667 0
v -74.66667 -157.8667 0
v -74.66667 -156.8 0
v -73.60001 -156.8 0
v -112 -158.9333 0
v -113.0667 -158.9333 0
v -113.0667 -157.8667 0
v -112 -157.8667 0
v -73.60001 -158.9333 0
v -74.66667 -158.9333 0
v -74.66667 -157.8667 0
v -73.60001 -157.8667 0
v -112 -160 0
v -113.0667 -160 0
v -113.0667 -158.9333 0
v -112 -158.9333 0
v -73.60001 -160 0
v -74.66667 -160 0
v -74.66667 -158.9333 0
v -73.60001 -158.9333 0
v -112 -161.0667 0
v -113.0667 -161.0667 0
v -113.0667 -160 0
v -112 -160 0
v -109.8667 -161.0667 0
v -110.9333 -161.0667 0
v -110.9333 -160 0
v -109.8667 -160 0
v -105.6 -161.0667 0
v -106.6667 -161.0667 0
v -106.6667 -160 0
v -105.6 -160 0
v -73.60001 -161.0667 0
v -74.66667 -161.0667 0
v -74.66667 -160 0
v -73.60001 -160 0
v -112 -162.1333 0
v -113.0667 -162.1333 0
v -113.0667 -161.0667 0
v -112 -161.0667 0
v -109.8667 -162.1333 0
v -110.9333 -162.1333 0
v -110.9333 -161.0667 0
v -109.8667 -161.0667 0
v -105.6 -162.1333 0
v -106.6667 -162.1333 0
v -106.6667 -161.0667 0
v -105.6 -161.0667 0
v -81.06667 -162.1333 0
v -82.13334 -162.1333 0
v -82.13334 -161.0667 0
v -81.06667 -161.0667 0
v -80.00001 -162.1333 0
v -81.06667 -162.1333 0
v -81.06667 -161.0667 0
v -80.00001 -161.0667 0
v -78.93333 -162.1333 0
v -80.00001 -162.1333 0
v -80.00001 -161.0667 0
v -78.93333 -161.0667 0
v -77.86667 -162.1333 0
v -78.93333 -162.1333 0
v -78.93333 -161.0667 0
v -77.86667 -161.0667 0
v -76.8 -162.1333 0
v -77.86667 -162.1333 0
v -77.86667 -161.0667 0
v -76.8 -161.0667 0
v -75.73334 -162.1333 0
v -76.8 -162.1333 0
v -76.8 -161.0667 0
v -75.73334 -161.0667 0
v -74.66667 -162.1333 0
v -75.73334 -162.1333 0
v -75.73334 -161.0667 0
v -74.66667 -161.0667 0
v -73.60001 -162.1333 0
v -74.66667 -162.1333 0
v -74.66667 -161.0667 0
v -73.60001 -161.0667 0
v -112 -163.2 0
v -113.0667 -163.2 0
v -113.0667 -162.1333 0
v -112 -162.1333 0
v -80.00001 -163.2 0
v -81.06667 -163.2 0
v -81.06667 -162.1333 0
v -80.00001 -162.1333 0
v -78.93333 -163.2 0
v -80.00001 -163.2 0
v -80.00001 -162.1333 0
v -78.93333 -162.1333 0
v -77.86667 -163.2 0
v -78.93333 -163.2 0
v -78.93333 -162.1333 0
v -77.86667 -162.1333 0
v -76.8 -163.2 0
v -77.86667 -163.2 0
v -77.86667 -162.1333 0
v -76.8 -162.1333 0
v -75.73334 -163.2 0
v -76.8 -163.2 0
v -76.8 -162.1333 0
v -75.73334 -162.1333 0
v -74.66667 -163.2 0
v -75.73334 -163.2 0
v -75.73334 -162.1333 0
v -74.66667 -162.1333 0
v -73.60001 -163.2 0
v -74.66667 -163.2 0
v -74.66667 -162.1333 0
v -73.60001 -162.1333 0
v -112 -164.2667 0
v -113.0667 -164.2667 0
v -113.0667 -163.2 0
v -112 -163.2 0
v -112 -165.3333 0
v -113.0667 -165.3333 0
v -113.0667 -164.2667 0
v -112 -164.2667 0
v -112 -166.4 0
v -113.0667 -166.4 0
v -113.0667 -165.3333 0
v -112 -165.3333 0

# Texture cooridinates (Count = 84)
vt 0.6322314 0.5817491
vt 0.6487603 0.5817491
vt 0.6487603 0.6121673
vt 0.6322314 0.6121673
vt 0.6146694 0.5817491
vt 0.6311983 0.5817491
vt 0.6311983 0.6121673
vt 0.6146694 0.6121673
vt 0.5971074 0.5817491
vt 0.6136364 0.5817491
vt 0.6136364 0.6121673
vt 0.5971074 0.6121673
vt 0.6497934 0.5817491
vt 0.6663223 0.5817491
vt 0.6663223 0.6121673
vt 0.6497934 0.6121673
vt 0.7024794 0.4847909
vt 0.7190083 0.4847909
vt 0.7190083 0.5152091
vt 0.7024794 0.5152091
vt 0.6849173 0.4847909
vt 0.7014463 0.4847909
vt 0.7014463 0.5152091
vt 0.6849173 0.5152091
vt 0.6673554 0.4847909
vt 0.6838843 0.4847909
vt 0.6838843 0.5152091
vt 0.6673554 0.5152091
vt 0.6673554 0.5494297
vt 0.6838843 0.5494297
vt 0.6838843 0.5798479
vt 0.6673554 0.5798479
vt 0.5971074 0.4847909
vt 0.6136364 0.4847909
vt 0.6136364 0.5152091
vt 0.5971074 0.5152091
vt 0.6146694 0.4847909
vt 0.6311983 0.4847909
vt 0.6311983 0.5152091
vt 0.6146694 0.5152091
vt 0.6497934 0.4847909
vt 0.6663223 0.4847909
vt 0.6663223 0.5152091
vt 0.6497934 0.5152091
vt 0.6322314 0.5494297
vt 0.6487603 0.5494297
vt 0.6487603 0.5798479
vt 0.6322314 0.5798479
vt 0.5971074 0.5494297
vt 0.6136364 0.5494297
vt 0.6136364 0.5798479
vt 0.5971074 0.5798479
vt 0.5971074 0.5171102
vt 0.6136364 0.5171102
vt 0.6136364 0.5475285
vt 0.5971074 0.5475285
vt 0.5268595 0.8707224
vt 0.5268595 0.8403042
vt 0.5433884 0.8403042
vt 0.5433884 0.8707224
vt 0.5268595 0.9030418
vt 0.5268595 0.8726236
vt 0.5433884 0.8726236
vt 0.5433884 0.9030418
vt 0.6322314 0.4847909
vt 0.6487603 0.4847909
vt 0.6487603 0.5152091
vt 0.6322314 0.5152091
vt 0.5971074 0.3231939
vt 0.6136364 0.3231939
vt 0.6136364 0.3536122
vt 0.5971074 0.3536122
vt 0.5971074 0.3555133
vt 0.6136364 0.3555133
vt 0.6136364 0.3859316
vt 0.5971074 0.3859316
vt 0.6146694 0.3555133
vt 0.6311983 0.3555133
vt 0.6311983 0.3859316
vt 0.6146694 0.3859316
vt 0.6497934 0.5494297
vt 0.6663223 0.5494297
vt 0.6663223 0.5798479
vt 0.6497934 0.5798479

# Normal
vn 0 0 -1

# Mesh description
g CS_mesh_0004

# Faces
f 1/1/1 2/2/1 3/3/1 4/4/1
f 5/5/1 6/6/1 7/7/1 8/8/1
f 9/5/1 10/6/1 11/7/1 12/8/1
f 13/5/1 14/6/1 15/7/1 16/8/1
f 17/5/1 18/6/1 19/7/1 20/8/1
f 21/9/1 22/10/1 23/11/1 24/12/1
f 25/1/1 26/2/1 27/3/1 28/4/1
f 29/5/1 30/6/1 31/7/1 32/8/1
f 33/5/1 34/6/1 35/7/1 36/8/1
f 37/5/1 38/6/1 39/7/1 40/8/1
f 41/5/1 42/6/1 43/7/1 44/8/1
f 45/13/1 46/14/1 47/15/1 48/16/1
f 49/17/1 50/18/1 51/19/1 52/20/1
f 53/21/1 54/22/1 55/23/1 56/24/1
f 57/21/1 58/22/1 59/23/1 60/24/1
f 61/21/1 62/22/1 63/23/1 64/24/1
f 65/21/1 66/22/1 67/23/1 68/24/1
f 69/25/1 70/26/1 71/27/1 72/28/1
f 73/17/1 74/18/1 75/19/1 76/20/1
f 77/21/1 78/22/1 79/23/1 80/24/1
f 81/21/1 82/22/1 83/23/1 84/24/1
f 85/21/1 86/22/1 87/23/1 88/24/1
f 89/21/1 90/22/1 91/23/1 92/24/1
f 93/29/1 94/30/1 95/31/1 96/32/1
f 97/13/1 98/14/1 99/15/1 100/16/1
f 101/33/1 102/34/1 103/35/1 104/36/1
f 105/33/1 106/34/1 107/35/1 108/36/1
f 109/33/1 110/34/1 111/35/1 112/36/1
f 113/33/1 114/34/1 115/35/1 116/36/1
f 117/37/1 118/38/1 119/39/1 120/40/1
f 121/41/1 122/42/1 123/43/1 124/44/1
f 125/33/1 126/34/1 127/35/1 128/36/1
f 129/33/1 130/34/1 131/35/1 132/36/1
f 133/33/1 134/34/1 135/35/1 136/36/1
f 137/33/1 138/34/1 139/35/1 140/36/1
f 141/17/1 142/18/1 143/19/1 144/20/1
f 145/29/1 146/30/1 147/31/1 148/32/1
f 149/13/1 150/14/1 151/15/1 152/16/1
f 153/41/1 154/42/1 155/43/1 156/44/1
f 157/17/1 158/18/1 159/19/1 160/20/1
f 161/29/1 162/30/1 163/31/1 164/32/1
f 165/13/1 166/14/1 167/15/1 168/16/1
f 169/41/1 170/42/1 171/43/1 172/44/1
f 173/17/1 174/18/1 175/19/1 176/20/1
f 177/29/1 178/30/1 179/31/1 180/32/1
f 181/13/1 182/14/1 183/15/1 184/16/1
f 185/41/1 186/42/1 187/43/1 188/44/1
f 189/17/1 190/18/1 191/19/1 192/20/1
f 193/29/1 194/30/1 195/31/1 196/32/1
f 197/13/1 198/14/1 199/15/1 200/16/1
f 201/41/1 202/42/1 203/43/1 204/44/1
f 205/17/1 206/18/1 207/19/1 208/20/1
f 209/29/1 210/30/1 211/31/1 212/32/1
f 213/13/1 214/14/1 215/15/1 216/16/1
f 217/41/1 218/42/1 219/43/1 220/44/1
f 221/17/1 222/18/1 223/19/1 224/20/1
f 225/29/1 226/30/1 227/31/1 228/32/1
f 229/13/1 230/14/1 231/15/1 232/16/1
f 233/41/1 234/42/1 235/43/1 236/44/1
f 237/17/1 238/18/1 239/19/1 240/20/1
f 241/29/1 242/30/1 243/31/1 244/32/1
f 245/13/1 246/14/1 247/15/1 248/16/1
f 249/41/1 250/42/1 251/43/1 252/44/1
f 253/17/1 254/18/1 255/19/1 256/20/1
f 257/29/1 258/30/1 259/31/1 260/32/1
f 261/13/1 262/14/1 263/15/1 264/16/1
f 265/41/1 266/42/1 267/43/1 268/44/1
f 269/17/1 270/18/1 271/19/1 272/20/1
f 273/29/1 274/30/1 275/31/1 276/32/1
f 277/13/1 278/14/1 279/15/1 280/16/1
f 281/41/1 282/42/1 283/43/1 284/44/1
f 285/17/1 286/18/1 287/19/1 288/20/1
f 289/29/1 290/30/1 291/31/1 292/32/1
f 293/13/1 294/14/1 295/15/1 296/16/1
f 297/41/1 298/42/1 299/43/1 300/44/1
f 301/17/1 302/18/1 303/19/1 304/20/1
f 305/29/1 306/30/1 307/31/1 308/32/1
f 309/13/1 310/14/1 311/15/1 312/16/1
f 313/41/1 314/42/1 315/43/1 316/44/1
f 317/17/1 318/18/1 319/19/1 320/20/1
f 321/45/1 322/46/1 323/47/1 324/48/1
f 325/41/1 326/42/1 327/43/1 328/44/1
f 329/45/1 330/46/1 331/47/1 332/48/1
f 333/45/1 334/46/1 335/47/1 336/48/1
f 337/45/1 338/46/1 339/47/1 340/48/1
f 341/45/1 342/46/1 343/47/1 344/48/1
f 345/45/1 346/46/1 347/47/1 348/48/1
f 349/49/1 350/50/1 351/51/1 352/52/1
f 353/49/1 354/50/1 355/51/1 356/52/1
f 357/45/1 358/46/1 359/47/1 360/48/1
f 361/45/1 362/46/1 363/47/1 364/48/1
f 365/53/1 366/54/1 367/55/1 368/56/1
f 369/45/1 370/46/1 371/47/1 372/48/1
f 373/57/1 374/58/1 375/59/1 376/60/1
f 377/61/1 378/62/1 379/63/1 380/64/1
f 381/65/1 382/66/1 383/67/1 384/68/1
f 385/45/1 386/46/1 387/47/1 388/48/1
f 389/45/1 390/46/1 391/47/1 392/48/1
f 393/49/1 394/50/1 395/51/1 396/52/1
f 397/45/1 398/46/1 399/47/1 400/48/1
f 401/45/1 402/46/1 403/47/1 404/48/1
f 405/45/1 406/46/1 407/47/1 408/48/1
f 409/45/1 410/46/1 411/47/1 412/48/1
f 413/69/1 414/70/1 415/71/1 416/72/1
f 417/69/1 418/70/1 419/71/1 420/72/1
f 421/45/1 422/46/1 423/47/1 424/48/1
f 425/45/1 426/46/1 427/47/1 428/48/1
f 429/73/1 430/74/1 431/75/1 432/76/1
f 433/77/1 434/78/1 435/79/1 436/80/1
f 437/45/1 438/46/1 439/47/1 440/48/1
f 441/45/1 442/46/1 443/47/1 444/48/1
f 445/45/1 446/46/1 447/47/1 448/48/1
f 449/45/1 450/46/1 451/47/1 452/48/1
f 453/45/1 454/46/1 455/47/1 456/48/1
f 457/45/1 458/46/1 459/47/1 460/48/1
f 461/69/1 462/70/1 463/71/1 464/72/1
f 465/69/1 466/70/1 467/71/1 468/72/1
f 469/45/1 470/46/1 471/47/1 472/48/1
f 473/45/1 474/46/1 475/47/1 476/48/1
f 477/77/1 478/78/1 479/79/1 480/80/1
f 481/73/1 482/74/1 483/75/1 484/76/1
f 485/5/1 486/6/1 487/7/1 488/8/1
f 489/5/1 490/6/1 491/7/1 492/8/1
f 493/5/1 494/6/1 495/7/1 496/8/1
f 497/5/1 498/6/1 499/7/1 500/8/1
f 501/5/1 502/6/1 503/7/1 504/8/1
f 505/5/1 506/6/1 507/7/1 508/8/1
f 509/5/1 510/6/1 511/7/1 512/8/1
f 513/81/1 514/82/1 515/83/1 516/84/1
f 517/45/1 518/46/1 519/47/1 520/48/1
f 521/33/1 522/34/1 523/35/1 524/36/1
f 525/33/1 526/34/1 527/35/1 528/36/1
f 529/33/1 530/34/1 531/35/1 532/36/1
f 533/33/1 534/34/1 535/35/1 536/36/1
f 537/33/1 538/34/1 539/35/1 540/36/1
f 541/33/1 542/34/1 543/35/1 544/36/1
f 545/37/1 546/38/1 547/39/1 548/40/1
f 549/45/1 550/46/1 551/47/1 552/48/1
f 553/45/1 554/46/1 555/47/1 556/48/1
f 557/45/1 558/46/1 559/47/1 560/48/1

