# Tiled2Unity generated file. Do not modify by hand.
# Wavefront file for 'CS_mesh_0002.obj'

# Vertices (Count = 220)
v -110.9333 -119.4667 0
v -112 -119.4667 0
v -112 -118.4 0
v -110.9333 -118.4 0
v -109.8667 -119.4667 0
v -110.9333 -119.4667 0
v -110.9333 -118.4 0
v -109.8667 -118.4 0
v -108.8 -119.4667 0
v -109.8667 -119.4667 0
v -109.8667 -118.4 0
v -108.8 -118.4 0
v -107.7333 -119.4667 0
v -108.8 -119.4667 0
v -108.8 -118.4 0
v -107.7333 -118.4 0
v -106.6667 -119.4667 0
v -107.7333 -119.4667 0
v -107.7333 -118.4 0
v -106.6667 -118.4 0
v -105.6 -119.4667 0
v -106.6667 -119.4667 0
v -106.6667 -118.4 0
v -105.6 -118.4 0
v -101.3333 -119.4667 0
v -102.4 -119.4667 0
v -102.4 -118.4 0
v -101.3333 -118.4 0
v -100.2667 -119.4667 0
v -101.3333 -119.4667 0
v -101.3333 -118.4 0
v -100.2667 -118.4 0
v -99.2 -119.4667 0
v -100.2667 -119.4667 0
v -100.2667 -118.4 0
v -99.2 -118.4 0
v -98.13334 -119.4667 0
v -99.2 -119.4667 0
v -99.2 -118.4 0
v -98.13334 -118.4 0
v -97.06667 -119.4667 0
v -98.13334 -119.4667 0
v -98.13334 -118.4 0
v -97.06667 -118.4 0
v -110.9333 -120.5333 0
v -112 -120.5333 0
v -112 -119.4667 0
v -110.9333 -119.4667 0
v -109.8667 -120.5333 0
v -110.9333 -120.5333 0
v -110.9333 -119.4667 0
v -109.8667 -119.4667 0
v -108.8 -120.5333 0
v -109.8667 -120.5333 0
v -109.8667 -119.4667 0
v -108.8 -119.4667 0
v -107.7333 -120.5333 0
v -108.8 -120.5333 0
v -108.8 -119.4667 0
v -107.7333 -119.4667 0
v -106.6667 -120.5333 0
v -107.7333 -120.5333 0
v -107.7333 -119.4667 0
v -106.6667 -119.4667 0
v -105.6 -120.5333 0
v -106.6667 -120.5333 0
v -106.6667 -119.4667 0
v -105.6 -119.4667 0
v -101.3333 -120.5333 0
v -102.4 -120.5333 0
v -102.4 -119.4667 0
v -101.3333 -119.4667 0
v -100.2667 -120.5333 0
v -101.3333 -120.5333 0
v -101.3333 -119.4667 0
v -100.2667 -119.4667 0
v -99.2 -120.5333 0
v -100.2667 -120.5333 0
v -100.2667 -119.4667 0
v -99.2 -119.4667 0
v -98.13334 -120.5333 0
v -99.2 -120.5333 0
v -99.2 -119.4667 0
v -98.13334 -119.4667 0
v -97.06667 -120.5333 0
v -98.13334 -120.5333 0
v -98.13334 -119.4667 0
v -97.06667 -119.4667 0
v -96.00001 -120.5333 0
v -97.06667 -120.5333 0
v -97.06667 -119.4667 0
v -96.00001 -119.4667 0
v -96.00001 -121.6 0
v -97.06667 -121.6 0
v -97.06667 -120.5333 0
v -96.00001 -120.5333 0
v -94.93334 -121.6 0
v -96.00001 -121.6 0
v -96.00001 -120.5333 0
v -94.93334 -120.5333 0
v -94.93334 -122.6667 0
v -96.00001 -122.6667 0
v -96.00001 -121.6 0
v -94.93334 -121.6 0
v -93.86667 -122.6667 0
v -94.93334 -122.6667 0
v -94.93334 -121.6 0
v -93.86667 -121.6 0
v -93.86667 -123.7333 0
v -94.93334 -123.7333 0
v -94.93334 -122.6667 0
v -93.86667 -122.6667 0
v -92.8 -123.7333 0
v -93.86667 -123.7333 0
v -93.86667 -122.6667 0
v -92.8 -122.6667 0
v -92.8 -124.8 0
v -93.86667 -124.8 0
v -93.86667 -123.7333 0
v -92.8 -123.7333 0
v -91.73334 -124.8 0
v -92.8 -124.8 0
v -92.8 -123.7333 0
v -91.73334 -123.7333 0
v -91.73334 -125.8667 0
v -92.8 -125.8667 0
v -92.8 -124.8 0
v -91.73334 -124.8 0
v -90.66667 -125.8667 0
v -91.73334 -125.8667 0
v -91.73334 -124.8 0
v -90.66667 -124.8 0
v -90.66667 -126.9333 0
v -91.73334 -126.9333 0
v -91.73334 -125.8667 0
v -90.66667 -125.8667 0
v -89.60001 -126.9333 0
v -90.66667 -126.9333 0
v -90.66667 -125.8667 0
v -89.60001 -125.8667 0
v -89.60001 -128 0
v -90.66667 -128 0
v -90.66667 -126.9333 0
v -89.60001 -126.9333 0
v -88.53334 -128 0
v -89.60001 -128 0
v -89.60001 -126.9333 0
v -88.53334 -126.9333 0
v -88.53334 -129.0667 0
v -89.60001 -129.0667 0
v -89.60001 -128 0
v -88.53334 -128 0
v -87.46667 -129.0667 0
v -88.53334 -129.0667 0
v -88.53334 -128 0
v -87.46667 -128 0
v -87.46667 -130.1333 0
v -88.53334 -130.1333 0
v -88.53334 -129.0667 0
v -87.46667 -129.0667 0
v -86.4 -130.1333 0
v -87.46667 -130.1333 0
v -87.46667 -129.0667 0
v -86.4 -129.0667 0
v -86.4 -131.2 0
v -87.46667 -131.2 0
v -87.46667 -130.1333 0
v -86.4 -130.1333 0
v -85.33334 -131.2 0
v -86.4 -131.2 0
v -86.4 -130.1333 0
v -85.33334 -130.1333 0
v -85.33334 -132.2667 0
v -86.4 -132.2667 0
v -86.4 -131.2 0
v -85.33334 -131.2 0
v -84.26667 -132.2667 0
v -85.33334 -132.2667 0
v -85.33334 -131.2 0
v -84.26667 -131.2 0
v -84.26667 -133.3333 0
v -85.33334 -133.3333 0
v -85.33334 -132.2667 0
v -84.26667 -132.2667 0
v -112 -152.5333 0
v -113.0667 -152.5333 0
v -113.0667 -151.4667 0
v -112 -151.4667 0
v -81.06667 -163.2 0
v -82.13334 -163.2 0
v -82.13334 -162.1333 0
v -81.06667 -162.1333 0
v -80.00001 -163.2 0
v -81.06667 -163.2 0
v -81.06667 -162.1333 0
v -80.00001 -162.1333 0
v -78.93333 -163.2 0
v -80.00001 -163.2 0
v -80.00001 -162.1333 0
v -78.93333 -162.1333 0
v -77.86667 -163.2 0
v -78.93333 -163.2 0
v -78.93333 -162.1333 0
v -77.86667 -162.1333 0
v -76.8 -163.2 0
v -77.86667 -163.2 0
v -77.86667 -162.1333 0
v -76.8 -162.1333 0
v -75.73334 -163.2 0
v -76.8 -163.2 0
v -76.8 -162.1333 0
v -75.73334 -162.1333 0
v -74.66667 -163.2 0
v -75.73334 -163.2 0
v -75.73334 -162.1333 0
v -74.66667 -162.1333 0
v -73.60001 -163.2 0
v -74.66667 -163.2 0
v -74.66667 -162.1333 0
v -73.60001 -162.1333 0

# Texture cooridinates (Count = 28)
vt 0.6849173 0.4847909
vt 0.7014463 0.4847909
vt 0.7014463 0.5152091
vt 0.6849173 0.5152091
vt 0.6673554 0.4847909
vt 0.6838843 0.4847909
vt 0.6838843 0.5152091
vt 0.6673554 0.5152091
vt 0.7024794 0.4847909
vt 0.7190083 0.4847909
vt 0.7190083 0.5152091
vt 0.7024794 0.5152091
vt 0.6497934 0.4847909
vt 0.6663223 0.4847909
vt 0.6663223 0.5152091
vt 0.6497934 0.5152091
vt 0.5971074 0.4847909
vt 0.6136364 0.4847909
vt 0.6136364 0.5152091
vt 0.5971074 0.5152091
vt 0.6146694 0.4847909
vt 0.6311983 0.4847909
vt 0.6311983 0.5152091
vt 0.6146694 0.5152091
vt 0.6322314 0.4847909
vt 0.6487603 0.4847909
vt 0.6487603 0.5152091
vt 0.6322314 0.5152091

# Normal
vn 0 0 -1

# Mesh description
g CS_mesh_0002

# Faces
f 1/1/1 2/2/1 3/3/1 4/4/1
f 5/1/1 6/2/1 7/3/1 8/4/1
f 9/1/1 10/2/1 11/3/1 12/4/1
f 13/1/1 14/2/1 15/3/1 16/4/1
f 17/1/1 18/2/1 19/3/1 20/4/1
f 21/5/1 22/6/1 23/7/1 24/8/1
f 25/9/1 26/10/1 27/11/1 28/12/1
f 29/1/1 30/2/1 31/3/1 32/4/1
f 33/1/1 34/2/1 35/3/1 36/4/1
f 37/1/1 38/2/1 39/3/1 40/4/1
f 41/1/1 42/2/1 43/3/1 44/4/1
f 45/13/1 46/14/1 47/15/1 48/16/1
f 49/17/1 50/18/1 51/19/1 52/20/1
f 53/17/1 54/18/1 55/19/1 56/20/1
f 57/17/1 58/18/1 59/19/1 60/20/1
f 61/17/1 62/18/1 63/19/1 64/20/1
f 65/21/1 66/22/1 67/23/1 68/24/1
f 69/13/1 70/14/1 71/15/1 72/16/1
f 73/17/1 74/18/1 75/19/1 76/20/1
f 77/17/1 78/18/1 79/19/1 80/20/1
f 81/17/1 82/18/1 83/19/1 84/20/1
f 85/17/1 86/18/1 87/19/1 88/20/1
f 89/9/1 90/10/1 91/11/1 92/12/1
f 93/13/1 94/14/1 95/15/1 96/16/1
f 97/9/1 98/10/1 99/11/1 100/12/1
f 101/13/1 102/14/1 103/15/1 104/16/1
f 105/9/1 106/10/1 107/11/1 108/12/1
f 109/13/1 110/14/1 111/15/1 112/16/1
f 113/9/1 114/10/1 115/11/1 116/12/1
f 117/13/1 118/14/1 119/15/1 120/16/1
f 121/9/1 122/10/1 123/11/1 124/12/1
f 125/13/1 126/14/1 127/15/1 128/16/1
f 129/9/1 130/10/1 131/11/1 132/12/1
f 133/13/1 134/14/1 135/15/1 136/16/1
f 137/9/1 138/10/1 139/11/1 140/12/1
f 141/13/1 142/14/1 143/15/1 144/16/1
f 145/9/1 146/10/1 147/11/1 148/12/1
f 149/13/1 150/14/1 151/15/1 152/16/1
f 153/9/1 154/10/1 155/11/1 156/12/1
f 157/13/1 158/14/1 159/15/1 160/16/1
f 161/9/1 162/10/1 163/11/1 164/12/1
f 165/13/1 166/14/1 167/15/1 168/16/1
f 169/9/1 170/10/1 171/11/1 172/12/1
f 173/13/1 174/14/1 175/15/1 176/16/1
f 177/9/1 178/10/1 179/11/1 180/12/1
f 181/13/1 182/14/1 183/15/1 184/16/1
f 185/25/1 186/26/1 187/27/1 188/28/1
f 189/17/1 190/18/1 191/19/1 192/20/1
f 193/17/1 194/18/1 195/19/1 196/20/1
f 197/17/1 198/18/1 199/19/1 200/20/1
f 201/17/1 202/18/1 203/19/1 204/20/1
f 205/17/1 206/18/1 207/19/1 208/20/1
f 209/17/1 210/18/1 211/19/1 212/20/1
f 213/17/1 214/18/1 215/19/1 216/20/1
f 217/21/1 218/22/1 219/23/1 220/24/1

