# Tiled2Unity generated file. Do not modify by hand.
# Wavefront file for 'CS_mesh_0008.obj'

# Vertices (Count = 80)
v -90.66667 -109.8667 0
v -91.73334 -109.8667 0
v -91.73334 -108.8 0
v -90.66667 -108.8 0
v -87.46667 -109.8667 0
v -88.53334 -109.8667 0
v -88.53334 -108.8 0
v -87.46667 -108.8 0
v -103.4667 -110.9333 0
v -104.5333 -110.9333 0
v -104.5333 -109.8667 0
v -103.4667 -109.8667 0
v -93.86667 -110.9333 0
v -94.93334 -110.9333 0
v -94.93334 -109.8667 0
v -93.86667 -109.8667 0
v -106.6667 -112 0
v -107.7333 -112 0
v -107.7333 -110.9333 0
v -106.6667 -110.9333 0
v -100.2667 -112 0
v -101.3333 -112 0
v -101.3333 -110.9333 0
v -100.2667 -110.9333 0
v -97.06667 -112 0
v -98.13334 -112 0
v -98.13334 -110.9333 0
v -97.06667 -110.9333 0
v -84.26667 -112 0
v -85.33334 -112 0
v -85.33334 -110.9333 0
v -84.26667 -110.9333 0
v -108.8 -114.1333 0
v -109.8667 -114.1333 0
v -109.8667 -113.0667 0
v -108.8 -113.0667 0
v -81.06667 -115.2 0
v -82.13334 -115.2 0
v -82.13334 -114.1333 0
v -81.06667 -114.1333 0
v -108.8 -149.3333 0
v -109.8667 -149.3333 0
v -109.8667 -148.2667 0
v -108.8 -148.2667 0
v -105.6 -149.3333 0
v -106.6667 -149.3333 0
v -106.6667 -148.2667 0
v -105.6 -148.2667 0
v -102.4 -149.3333 0
v -103.4667 -149.3333 0
v -103.4667 -148.2667 0
v -102.4 -148.2667 0
v -99.2 -149.3333 0
v -100.2667 -149.3333 0
v -100.2667 -148.2667 0
v -99.2 -148.2667 0
v -96.00001 -149.3333 0
v -97.06667 -149.3333 0
v -97.06667 -148.2667 0
v -96.00001 -148.2667 0
v -92.8 -149.3333 0
v -93.86667 -149.3333 0
v -93.86667 -148.2667 0
v -92.8 -148.2667 0
v -89.60001 -149.3333 0
v -90.66667 -149.3333 0
v -90.66667 -148.2667 0
v -89.60001 -148.2667 0
v -86.4 -149.3333 0
v -87.46667 -149.3333 0
v -87.46667 -148.2667 0
v -86.4 -148.2667 0
v -83.2 -149.3333 0
v -84.26667 -149.3333 0
v -84.26667 -148.2667 0
v -83.2 -148.2667 0
v -80.00001 -149.3333 0
v -81.06667 -149.3333 0
v -81.06667 -148.2667 0
v -80.00001 -148.2667 0

# Texture cooridinates (Count = 4)
vt 0.2985537 0.7110266
vt 0.3150826 0.7110266
vt 0.3150826 0.7414448
vt 0.2985537 0.7414448

# Normal
vn 0 0 -1

# Mesh description
g CS_mesh_0008

# Faces
f 1/1/1 2/2/1 3/3/1 4/4/1
f 5/1/1 6/2/1 7/3/1 8/4/1
f 9/1/1 10/2/1 11/3/1 12/4/1
f 13/1/1 14/2/1 15/3/1 16/4/1
f 17/1/1 18/2/1 19/3/1 20/4/1
f 21/1/1 22/2/1 23/3/1 24/4/1
f 25/1/1 26/2/1 27/3/1 28/4/1
f 29/1/1 30/2/1 31/3/1 32/4/1
f 33/1/1 34/2/1 35/3/1 36/4/1
f 37/1/1 38/2/1 39/3/1 40/4/1
f 41/1/1 42/2/1 43/3/1 44/4/1
f 45/1/1 46/2/1 47/3/1 48/4/1
f 49/1/1 50/2/1 51/3/1 52/4/1
f 53/1/1 54/2/1 55/3/1 56/4/1
f 57/1/1 58/2/1 59/3/1 60/4/1
f 61/1/1 62/2/1 63/3/1 64/4/1
f 65/1/1 66/2/1 67/3/1 68/4/1
f 69/1/1 70/2/1 71/3/1 72/4/1
f 73/1/1 74/2/1 75/3/1 76/4/1
f 77/1/1 78/2/1 79/3/1 80/4/1

