# Tiled2Unity generated file. Do not modify by hand.
# Wavefront file for 'Hes-East_mesh_0006.obj'

# Vertices (Count = 16)
v -75.73334 -68.26667 0
v -76.8 -68.26667 0
v -76.8 -67.2 0
v -75.73334 -67.2 0
v -75.73334 -69.33334 0
v -76.8 -69.33334 0
v -76.8 -68.26667 0
v -75.73334 -68.26667 0
v -76.8 -74.66667 0
v -77.86667 -74.66667 0
v -77.86667 -73.60001 0
v -76.8 -73.60001 0
v -76.8 -75.73334 0
v -77.86667 -75.73334 0
v -77.86667 -74.66667 0
v -76.8 -74.66667 0

# Texture cooridinates (Count = 8)
vt 0.2634298 0.6463878
vt 0.2799587 0.6463878
vt 0.2799587 0.6768061
vt 0.2634298 0.6768061
vt 0.2634298 0.6140684
vt 0.2799587 0.6140684
vt 0.2799587 0.6444867
vt 0.2634298 0.6444867

# Normal
vn 0 0 -1

# Mesh description
g Hes-East_mesh_0006

# Faces
f 1/1/1 2/2/1 3/3/1 4/4/1
f 5/5/1 6/6/1 7/7/1 8/8/1
f 9/1/1 10/2/1 11/3/1 12/4/1
f 13/5/1 14/6/1 15/7/1 16/8/1

