# Tiled2Unity generated file. Do not modify by hand.
# Wavefront file for 'Hes-East_mesh_0005.obj'

# Vertices (Count = 256)
v -80.00001 -60.8 0
v -81.06667 -60.8 0
v -81.06667 -59.73334 0
v -80.00001 -59.73334 0
v -85.33334 -61.86667 0
v -86.4 -61.86667 0
v -86.4 -60.8 0
v -85.33334 -60.8 0
v -85.33334 -62.93334 0
v -86.4 -62.93334 0
v -86.4 -61.86667 0
v -85.33334 -61.86667 0
v -83.2 -62.93334 0
v -84.26667 -62.93334 0
v -84.26667 -61.86667 0
v -83.2 -61.86667 0
v -81.06667 -62.93334 0
v -82.13334 -62.93334 0
v -82.13334 -61.86667 0
v -81.06667 -61.86667 0
v -72.53334 -62.93334 0
v -73.60001 -62.93334 0
v -73.60001 -61.86667 0
v -72.53334 -61.86667 0
v -70.4 -62.93334 0
v -71.46667 -62.93334 0
v -71.46667 -61.86667 0
v -70.4 -61.86667 0
v -83.2 -64 0
v -84.26667 -64 0
v -84.26667 -62.93334 0
v -83.2 -62.93334 0
v -81.06667 -64 0
v -82.13334 -64 0
v -82.13334 -62.93334 0
v -81.06667 -62.93334 0
v -70.4 -64 0
v -71.46667 -64 0
v -71.46667 -62.93334 0
v -70.4 -62.93334 0
v -86.4 -65.06667 0
v -87.46667 -65.06667 0
v -87.46667 -64 0
v -86.4 -64 0
v -68.26667 -65.06667 0
v -69.33334 -65.06667 0
v -69.33334 -64 0
v -68.26667 -64 0
v -88.53334 -66.13334 0
v -89.60001 -66.13334 0
v -89.60001 -65.06667 0
v -88.53334 -65.06667 0
v -86.4 -66.13334 0
v -87.46667 -66.13334 0
v -87.46667 -65.06667 0
v -86.4 -65.06667 0
v -70.4 -66.13334 0
v -71.46667 -66.13334 0
v -71.46667 -65.06667 0
v -70.4 -65.06667 0
v -68.26667 -66.13334 0
v -69.33334 -66.13334 0
v -69.33334 -65.06667 0
v -68.26667 -65.06667 0
v -88.53334 -67.2 0
v -89.60001 -67.2 0
v -89.60001 -66.13334 0
v -88.53334 -66.13334 0
v -84.26667 -67.2 0
v -85.33334 -67.2 0
v -85.33334 -66.13334 0
v -84.26667 -66.13334 0
v -74.66667 -67.2 0
v -75.73334 -67.2 0
v -75.73334 -66.13334 0
v -74.66667 -66.13334 0
v -70.4 -67.2 0
v -71.46667 -67.2 0
v -71.46667 -66.13334 0
v -70.4 -66.13334 0
v -75.73334 -68.26667 0
v -76.8 -68.26667 0
v -76.8 -67.2 0
v -75.73334 -67.2 0
v -74.66667 -68.26667 0
v -75.73334 -68.26667 0
v -75.73334 -67.2 0
v -74.66667 -67.2 0
v -66.13334 -68.26667 0
v -67.2 -68.26667 0
v -67.2 -67.2 0
v -66.13334 -67.2 0
v -75.73334 -69.33334 0
v -76.8 -69.33334 0
v -76.8 -68.26667 0
v -75.73334 -68.26667 0
v -74.66667 -69.33334 0
v -75.73334 -69.33334 0
v -75.73334 -68.26667 0
v -74.66667 -68.26667 0
v -69.33334 -69.33334 0
v -70.4 -69.33334 0
v -70.4 -68.26667 0
v -69.33334 -68.26667 0
v -66.13334 -69.33334 0
v -67.2 -69.33334 0
v -67.2 -68.26667 0
v -66.13334 -68.26667 0
v -82.13334 -70.4 0
v -83.2 -70.4 0
v -83.2 -69.33334 0
v -82.13334 -69.33334 0
v -80.00001 -70.4 0
v -81.06667 -70.4 0
v -81.06667 -69.33334 0
v -80.00001 -69.33334 0
v -74.66667 -70.4 0
v -75.73334 -70.4 0
v -75.73334 -69.33334 0
v -74.66667 -69.33334 0
v -71.46667 -70.4 0
v -72.53334 -70.4 0
v -72.53334 -69.33334 0
v -71.46667 -69.33334 0
v -69.33334 -70.4 0
v -70.4 -70.4 0
v -70.4 -69.33334 0
v -69.33334 -69.33334 0
v -82.13334 -71.46667 0
v -83.2 -71.46667 0
v -83.2 -70.4 0
v -82.13334 -70.4 0
v -80.00001 -71.46667 0
v -81.06667 -71.46667 0
v -81.06667 -70.4 0
v -80.00001 -70.4 0
v -89.60001 -72.53334 0
v -90.66667 -72.53334 0
v -90.66667 -71.46667 0
v -89.60001 -71.46667 0
v -78.93333 -72.53334 0
v -80.00001 -72.53334 0
v -80.00001 -71.46667 0
v -78.93333 -71.46667 0
v -77.86667 -72.53334 0
v -78.93333 -72.53334 0
v -78.93333 -71.46667 0
v -77.86667 -71.46667 0
v -66.13334 -72.53334 0
v -67.2 -72.53334 0
v -67.2 -71.46667 0
v -66.13334 -71.46667 0
v -89.60001 -73.60001 0
v -90.66667 -73.60001 0
v -90.66667 -72.53334 0
v -89.60001 -72.53334 0
v -86.4 -73.60001 0
v -87.46667 -73.60001 0
v -87.46667 -72.53334 0
v -86.4 -72.53334 0
v -77.86667 -73.60001 0
v -78.93333 -73.60001 0
v -78.93333 -72.53334 0
v -77.86667 -72.53334 0
v -76.8 -73.60001 0
v -77.86667 -73.60001 0
v -77.86667 -72.53334 0
v -76.8 -72.53334 0
v -68.26667 -73.60001 0
v -69.33334 -73.60001 0
v -69.33334 -72.53334 0
v -68.26667 -72.53334 0
v -66.13334 -73.60001 0
v -67.2 -73.60001 0
v -67.2 -72.53334 0
v -66.13334 -72.53334 0
v -88.53334 -74.66667 0
v -89.60001 -74.66667 0
v -89.60001 -73.60001 0
v -88.53334 -73.60001 0
v -76.8 -74.66667 0
v -77.86667 -74.66667 0
v -77.86667 -73.60001 0
v -76.8 -73.60001 0
v -68.26667 -74.66667 0
v -69.33334 -74.66667 0
v -69.33334 -73.60001 0
v -68.26667 -73.60001 0
v -88.53334 -75.73334 0
v -89.60001 -75.73334 0
v -89.60001 -74.66667 0
v -88.53334 -74.66667 0
v -75.73334 -75.73334 0
v -76.8 -75.73334 0
v -76.8 -74.66667 0
v -75.73334 -74.66667 0
v -87.46667 -76.8 0
v -88.53334 -76.8 0
v -88.53334 -75.73334 0
v -87.46667 -75.73334 0
v -86.4 -76.8 0
v -87.46667 -76.8 0
v -87.46667 -75.73334 0
v -86.4 -75.73334 0
v -75.73334 -76.8 0
v -76.8 -76.8 0
v -76.8 -75.73334 0
v -75.73334 -75.73334 0
v -87.46667 -77.86667 0
v -88.53334 -77.86667 0
v -88.53334 -76.8 0
v -87.46667 -76.8 0
v -86.4 -77.86667 0
v -87.46667 -77.86667 0
v -87.46667 -76.8 0
v -86.4 -76.8 0
v -84.26667 -77.86667 0
v -85.33334 -77.86667 0
v -85.33334 -76.8 0
v -84.26667 -76.8 0
v -80.00001 -77.86667 0
v -81.06667 -77.86667 0
v -81.06667 -76.8 0
v -80.00001 -76.8 0
v -74.66667 -77.86667 0
v -75.73334 -77.86667 0
v -75.73334 -76.8 0
v -74.66667 -76.8 0
v -72.53334 -77.86667 0
v -73.60001 -77.86667 0
v -73.60001 -76.8 0
v -72.53334 -76.8 0
v -84.26667 -78.93333 0
v -85.33334 -78.93333 0
v -85.33334 -77.86667 0
v -84.26667 -77.86667 0
v -80.00001 -78.93333 0
v -81.06667 -78.93333 0
v -81.06667 -77.86667 0
v -80.00001 -77.86667 0
v -77.86667 -78.93333 0
v -78.93333 -78.93333 0
v -78.93333 -77.86667 0
v -77.86667 -77.86667 0
v -74.66667 -78.93333 0
v -75.73334 -78.93333 0
v -75.73334 -77.86667 0
v -74.66667 -77.86667 0
v -72.53334 -78.93333 0
v -73.60001 -78.93333 0
v -73.60001 -77.86667 0
v -72.53334 -77.86667 0
v -68.26667 -78.93333 0
v -69.33334 -78.93333 0
v -69.33334 -77.86667 0
v -68.26667 -77.86667 0

# Texture cooridinates (Count = 20)
vt 0.4741735 0.6140684
vt 0.4907025 0.6140684
vt 0.4907025 0.6444867
vt 0.4741735 0.6444867
vt 0.2283058 0.6463878
vt 0.2448347 0.6463878
vt 0.2448347 0.6768061
vt 0.2283058 0.6768061
vt 0.2283058 0.6140684
vt 0.2448347 0.6140684
vt 0.2448347 0.6444867
vt 0.2283058 0.6444867
vt 0.2634298 0.6463878
vt 0.2799587 0.6463878
vt 0.2799587 0.6768061
vt 0.2634298 0.6768061
vt 0.2634298 0.6140684
vt 0.2799587 0.6140684
vt 0.2799587 0.6444867
vt 0.2634298 0.6444867

# Normal
vn 0 0 -1

# Mesh description
g Hes-East_mesh_0005

# Faces
f 1/1/1 2/2/1 3/3/1 4/4/1
f 5/5/1 6/6/1 7/7/1 8/8/1
f 9/9/1 10/10/1 11/11/1 12/12/1
f 13/13/1 14/14/1 15/15/1 16/16/1
f 17/13/1 18/14/1 19/15/1 20/16/1
f 21/1/1 22/2/1 23/3/1 24/4/1
f 25/13/1 26/14/1 27/15/1 28/16/1
f 29/17/1 30/18/1 31/19/1 32/20/1
f 33/17/1 34/18/1 35/19/1 36/20/1
f 37/17/1 38/18/1 39/19/1 40/20/1
f 41/13/1 42/14/1 43/15/1 44/16/1
f 45/13/1 46/14/1 47/15/1 48/16/1
f 49/5/1 50/6/1 51/7/1 52/8/1
f 53/17/1 54/18/1 55/19/1 56/20/1
f 57/5/1 58/6/1 59/7/1 60/8/1
f 61/17/1 62/18/1 63/19/1 64/20/1
f 65/9/1 66/10/1 67/11/1 68/12/1
f 69/1/1 70/2/1 71/3/1 72/4/1
f 73/13/1 74/14/1 75/15/1 76/16/1
f 77/9/1 78/10/1 79/11/1 80/12/1
f 81/1/1 82/2/1 83/3/1 84/4/1
f 85/17/1 86/18/1 87/19/1 88/20/1
f 89/5/1 90/6/1 91/7/1 92/8/1
f 93/9/1 94/10/1 95/11/1 96/12/1
f 97/13/1 98/14/1 99/15/1 100/16/1
f 101/13/1 102/14/1 103/15/1 104/16/1
f 105/9/1 106/10/1 107/11/1 108/12/1
f 109/5/1 110/6/1 111/7/1 112/8/1
f 113/13/1 114/14/1 115/15/1 116/16/1
f 117/17/1 118/18/1 119/19/1 120/20/1
f 121/1/1 122/2/1 123/3/1 124/4/1
f 125/17/1 126/18/1 127/19/1 128/20/1
f 129/9/1 130/10/1 131/11/1 132/12/1
f 133/17/1 134/18/1 135/19/1 136/20/1
f 137/13/1 138/14/1 139/15/1 140/16/1
f 141/1/1 142/2/1 143/3/1 144/4/1
f 145/5/1 146/6/1 147/7/1 148/8/1
f 149/13/1 150/14/1 151/15/1 152/16/1
f 153/17/1 154/18/1 155/19/1 156/20/1
f 157/1/1 158/2/1 159/3/1 160/4/1
f 161/9/1 162/10/1 163/11/1 164/12/1
f 165/5/1 166/6/1 167/7/1 168/8/1
f 169/5/1 170/6/1 171/7/1 172/8/1
f 173/17/1 174/18/1 175/19/1 176/20/1
f 177/5/1 178/6/1 179/7/1 180/8/1
f 181/9/1 182/10/1 183/11/1 184/12/1
f 185/9/1 186/10/1 187/11/1 188/12/1
f 189/9/1 190/10/1 191/11/1 192/12/1
f 193/5/1 194/6/1 195/7/1 196/8/1
f 197/13/1 198/14/1 199/15/1 200/16/1
f 201/5/1 202/6/1 203/7/1 204/8/1
f 205/9/1 206/10/1 207/11/1 208/12/1
f 209/17/1 210/18/1 211/19/1 212/20/1
f 213/9/1 214/10/1 215/11/1 216/12/1
f 217/5/1 218/6/1 219/7/1 220/8/1
f 221/13/1 222/14/1 223/15/1 224/16/1
f 225/13/1 226/14/1 227/15/1 228/16/1
f 229/5/1 230/6/1 231/7/1 232/8/1
f 233/9/1 234/10/1 235/11/1 236/12/1
f 237/17/1 238/18/1 239/19/1 240/20/1
f 241/1/1 242/2/1 243/3/1 244/4/1
f 245/17/1 246/18/1 247/19/1 248/20/1
f 249/9/1 250/10/1 251/11/1 252/12/1
f 253/1/1 254/2/1 255/3/1 256/4/1

