# Tiled2Unity generated file. Do not modify by hand.
# Wavefront file for 'Hes-East_mesh_0003.obj'

# Vertices (Count = 20)
v -75.73334 -68.26667 0
v -76.8 -68.26667 0
v -76.8 -67.2 0
v -75.73334 -67.2 0
v -74.66667 -68.26667 0
v -75.73334 -68.26667 0
v -75.73334 -67.2 0
v -74.66667 -67.2 0
v -75.73334 -69.33334 0
v -76.8 -69.33334 0
v -76.8 -68.26667 0
v -75.73334 -68.26667 0
v -74.66667 -69.33334 0
v -75.73334 -69.33334 0
v -75.73334 -68.26667 0
v -74.66667 -68.26667 0
v -74.66667 -70.4 0
v -75.73334 -70.4 0
v -75.73334 -69.33334 0
v -74.66667 -69.33334 0

# Texture cooridinates (Count = 4)
vt 0.05268595 0.4524715
vt 0.06921487 0.4524715
vt 0.06921487 0.4828897
vt 0.05268595 0.4828897

# Normal
vn 0 0 -1

# Mesh description
g Hes-East_mesh_0003

# Faces
f 1/1/1 2/2/1 3/3/1 4/4/1
f 5/1/1 6/2/1 7/3/1 8/4/1
f 9/1/1 10/2/1 11/3/1 12/4/1
f 13/1/1 14/2/1 15/3/1 16/4/1
f 17/1/1 18/2/1 19/3/1 20/4/1

