<?xml version="1.0" encoding="UTF-8" standalone="no"?>
<!DOCTYPE svg PUBLIC "-//W3C//DTD SVG 1.1//EN"
 "http://www.w3.org/Graphics/SVG/1.1/DTD/svg11.dtd">
<!-- Generated by graphviz version 2.38.0 (20140413.2041)
 -->
<!-- Title: SwitchPlayers Pages: 1 -->
<svg width="746pt" height="1140pt"
 viewBox="0.00 0.00 746.00 1140.00" xmlns="http://www.w3.org/2000/svg" xmlns:xlink="http://www.w3.org/1999/xlink">
<g id="graph0" class="graph" transform="scale(1 1) rotate(0) translate(4 1136)">
<title>SwitchPlayers</title>
<!-- Node2 -->
<g id="node1" class="node"><title>Node2</title>
<polygon fill="#bfbfbf" stroke="black" points="61,-0.5 61,-68.5 155,-68.5 155,-0.5 61,-0.5"/>
<text text-anchor="middle" x="108" y="-56.5" font-family="Helvetica,sans-Serif" font-size="10.00">SwitchPlayers</text>
<polyline fill="none" stroke="black" points="61,-49.5 155,-49.5 "/>
<text text-anchor="middle" x="108" y="-37.5" font-family="Helvetica,sans-Serif" font-size="10.00"> </text>
<polyline fill="none" stroke="black" points="61,-30.5 155,-30.5 "/>
<text text-anchor="start" x="69" y="-18.5" font-family="Helvetica,sans-Serif" font-size="10.00">+ SwitchPlayers()</text>
<text text-anchor="start" x="69" y="-7.5" font-family="Helvetica,sans-Serif" font-size="10.00">+ performMove()</text>
</g>
<!-- Node3 -->
<g id="node2" class="node"><title>Node3</title>
<g id="a_node2"><a xlink:href="class_character_move.html" target="_top" xlink:title="Astract base class for character moves ">
<polygon fill="none" stroke="black" points="49,-936.5 49,-1015.5 135,-1015.5 135,-936.5 49,-936.5"/>
<text text-anchor="middle" x="92" y="-1003.5" font-family="Helvetica,sans-Serif" font-size="10.00">CharacterMove</text>
<polyline fill="none" stroke="black" points="49,-996.5 135,-996.5 "/>
<text text-anchor="start" x="57" y="-984.5" font-family="Helvetica,sans-Serif" font-size="10.00">+ User</text>
<text text-anchor="start" x="57" y="-973.5" font-family="Helvetica,sans-Serif" font-size="10.00">+ Target</text>
<text text-anchor="start" x="57" y="-962.5" font-family="Helvetica,sans-Serif" font-size="10.00">+ Text</text>
<polyline fill="none" stroke="black" points="49,-955.5 135,-955.5 "/>
<text text-anchor="start" x="57" y="-943.5" font-family="Helvetica,sans-Serif" font-size="10.00">+ performMove()</text>
</a>
</g>
</g>
<!-- Node3&#45;&gt;Node2 -->
<g id="edge1" class="edge"><title>Node3&#45;&gt;Node2</title>
<path fill="none" stroke="midnightblue" d="M54.6645,-927.76C52.6413,-924.525 50.7315,-921.256 49,-918 17.5548,-858.868 0,-842.473 0,-775.5 0,-775.5 0,-775.5 0,-210 0,-154.064 40.6203,-101.105 72.0376,-68.51"/>
<polygon fill="none" stroke="midnightblue" points="51.812,-929.792 60.2405,-936.212 57.655,-925.937 51.812,-929.792"/>
</g>
<!-- Node7 -->
<g id="node6" class="node"><title>Node7</title>
<g id="a_node6"><a xlink:href="class_special_move.html" target="_top" xlink:title="Special move abstract base class that expands upon CharacterMove, adding magic properties ...">
<polygon fill="none" stroke="black" points="144,-729.5 144,-819.5 242,-819.5 242,-729.5 144,-729.5"/>
<text text-anchor="middle" x="193" y="-807.5" font-family="Helvetica,sans-Serif" font-size="10.00">SpecialMove</text>
<polyline fill="none" stroke="black" points="144,-800.5 242,-800.5 "/>
<text text-anchor="start" x="152" y="-788.5" font-family="Helvetica,sans-Serif" font-size="10.00">+ Magic</text>
<text text-anchor="start" x="152" y="-777.5" font-family="Helvetica,sans-Serif" font-size="10.00">+ Desc</text>
<polyline fill="none" stroke="black" points="144,-770.5 242,-770.5 "/>
<text text-anchor="start" x="152" y="-758.5" font-family="Helvetica,sans-Serif" font-size="10.00">+ setUp()</text>
<text text-anchor="start" x="152" y="-747.5" font-family="Helvetica,sans-Serif" font-size="10.00">+ decreaseMagic()</text>
<text text-anchor="start" x="152" y="-736.5" font-family="Helvetica,sans-Serif" font-size="10.00"># SpecialMove()</text>
</a>
</g>
</g>
<!-- Node3&#45;&gt;Node7 -->
<g id="edge7" class="edge"><title>Node3&#45;&gt;Node7</title>
<path fill="none" stroke="midnightblue" d="M116.236,-927.128C132.794,-894.423 154.57,-851.408 170.699,-819.55"/>
<polygon fill="none" stroke="midnightblue" points="113.108,-925.558 111.714,-936.061 119.353,-928.72 113.108,-925.558"/>
</g>
<!-- Node4 -->
<g id="node3" class="node"><title>Node4</title>
<polygon fill="none" stroke="#bfbfbf" points="249.5,-1074.5 249.5,-1131.5 290.5,-1131.5 290.5,-1074.5 249.5,-1074.5"/>
<text text-anchor="middle" x="270" y="-1119.5" font-family="Helvetica,sans-Serif" font-size="10.00">string</text>
<polyline fill="none" stroke="#bfbfbf" points="249.5,-1112.5 290.5,-1112.5 "/>
<text text-anchor="middle" x="270" y="-1100.5" font-family="Helvetica,sans-Serif" font-size="10.00"> </text>
<polyline fill="none" stroke="#bfbfbf" points="249.5,-1093.5 290.5,-1093.5 "/>
<text text-anchor="middle" x="270" y="-1081.5" font-family="Helvetica,sans-Serif" font-size="10.00"> </text>
</g>
<!-- Node4&#45;&gt;Node3 -->
<g id="edge2" class="edge"><title>Node4&#45;&gt;Node3</title>
<path fill="none" stroke="#404040" d="M249.14,-1095.86C226.74,-1088.63 190.765,-1075.13 164,-1056 151.611,-1047.14 139.767,-1035.85 129.39,-1024.59"/>
<polygon fill="none" stroke="#404040" points="129.379,-1024.57 122.402,-1022.75 121.401,-1015.61 128.378,-1017.43 129.379,-1024.57"/>
<text text-anchor="middle" x="176.5" y="-1042.5" font-family="Helvetica,sans-Serif" font-size="10.00"> #text</text>
</g>
<!-- Node5 -->
<g id="node4" class="node"><title>Node5</title>
<g id="a_node4"><a xlink:href="class_character.html" target="_top" xlink:title="Base abstract class for Enemy and Player to inherit from. Defines all shared variables, their constructor and their setters and getters ">
<polygon fill="none" stroke="black" points="226.5,-503.5 226.5,-670.5 321.5,-670.5 321.5,-503.5 226.5,-503.5"/>
<text text-anchor="middle" x="274" y="-658.5" font-family="Helvetica,sans-Serif" font-size="10.00">Character</text>
<polyline fill="none" stroke="black" points="226.5,-651.5 321.5,-651.5 "/>
<text text-anchor="start" x="234.5" y="-639.5" font-family="Helvetica,sans-Serif" font-size="10.00">+ Name</text>
<text text-anchor="start" x="234.5" y="-628.5" font-family="Helvetica,sans-Serif" font-size="10.00">+ Level</text>
<text text-anchor="start" x="234.5" y="-617.5" font-family="Helvetica,sans-Serif" font-size="10.00">+ Health</text>
<text text-anchor="start" x="234.5" y="-606.5" font-family="Helvetica,sans-Serif" font-size="10.00">+ Attack</text>
<text text-anchor="start" x="234.5" y="-595.5" font-family="Helvetica,sans-Serif" font-size="10.00">+ Defence</text>
<text text-anchor="start" x="234.5" y="-584.5" font-family="Helvetica,sans-Serif" font-size="10.00">+ MaximumMagic</text>
<text text-anchor="start" x="234.5" y="-573.5" font-family="Helvetica,sans-Serif" font-size="10.00">+ Magic</text>
<text text-anchor="start" x="234.5" y="-562.5" font-family="Helvetica,sans-Serif" font-size="10.00">+ Luck</text>
<text text-anchor="start" x="234.5" y="-551.5" font-family="Helvetica,sans-Serif" font-size="10.00">+ Speed</text>
<text text-anchor="start" x="234.5" y="-540.5" font-family="Helvetica,sans-Serif" font-size="10.00">+ Special1</text>
<text text-anchor="start" x="234.5" y="-529.5" font-family="Helvetica,sans-Serif" font-size="10.00">+ Special2</text>
<polyline fill="none" stroke="black" points="226.5,-522.5 321.5,-522.5 "/>
<text text-anchor="start" x="234.5" y="-510.5" font-family="Helvetica,sans-Serif" font-size="10.00"># Character()</text>
</a>
</g>
</g>
<!-- Node4&#45;&gt;Node5 -->
<g id="edge4" class="edge"><title>Node4&#45;&gt;Node5</title>
<path fill="none" stroke="#404040" d="M269.407,-1074.26C268.669,-1038.24 267.452,-973.429 267,-918 266.71,-882.446 266.502,-873.552 267,-838 267.717,-786.787 269.259,-729.691 270.714,-683.007"/>
<polygon fill="none" stroke="#404040" points="270.722,-682.746 266.914,-676.623 271.102,-670.752 274.91,-676.876 270.722,-682.746"/>
<text text-anchor="middle" x="283.5" y="-875.5" font-family="Helvetica,sans-Serif" font-size="10.00"> #name</text>
</g>
<!-- Node4&#45;&gt;Node7 -->
<g id="edge8" class="edge"><title>Node4&#45;&gt;Node7</title>
<path fill="none" stroke="#404040" d="M252.829,-1074.36C243.439,-1057.98 232.439,-1036.48 226,-1016 206.772,-954.846 198.743,-881.457 195.393,-831.962"/>
<polygon fill="none" stroke="#404040" points="195.389,-831.892 191.021,-826.154 194.638,-819.916 199.006,-825.654 195.389,-831.892"/>
<text text-anchor="middle" x="241" y="-973.5" font-family="Helvetica,sans-Serif" font-size="10.00"> #desc</text>
</g>
<!-- Node8 -->
<g id="node7" class="node"><title>Node8</title>
<g id="a_node7"><a xlink:href="class_battle_manager.html" target="_top" xlink:title="{BattleManager\n|+ Player\l+ Enemy\l+ WasCriticalHit\l|+ BattleManager()\l+ playerFirst()\l+ switchPlayers()\l+ isCriticalHit()\l+ ranAway()\l+ damageCalculation()\l+ enemyMove()\l+ enemySpecialMove()\l+ battleWon()\l+ playerFainted()\l&#45; characterFainted()\l}">
<polygon fill="none" stroke="black" points="342,-116.5 342,-305.5 458,-305.5 458,-116.5 342,-116.5"/>
<text text-anchor="middle" x="400" y="-293.5" font-family="Helvetica,sans-Serif" font-size="10.00">BattleManager</text>
<polyline fill="none" stroke="black" points="342,-286.5 458,-286.5 "/>
<text text-anchor="start" x="350" y="-274.5" font-family="Helvetica,sans-Serif" font-size="10.00">+ Player</text>
<text text-anchor="start" x="350" y="-263.5" font-family="Helvetica,sans-Serif" font-size="10.00">+ Enemy</text>
<text text-anchor="start" x="350" y="-252.5" font-family="Helvetica,sans-Serif" font-size="10.00">+ WasCriticalHit</text>
<polyline fill="none" stroke="black" points="342,-245.5 458,-245.5 "/>
<text text-anchor="start" x="350" y="-233.5" font-family="Helvetica,sans-Serif" font-size="10.00">+ BattleManager()</text>
<text text-anchor="start" x="350" y="-222.5" font-family="Helvetica,sans-Serif" font-size="10.00">+ playerFirst()</text>
<text text-anchor="start" x="350" y="-211.5" font-family="Helvetica,sans-Serif" font-size="10.00">+ switchPlayers()</text>
<text text-anchor="start" x="350" y="-200.5" font-family="Helvetica,sans-Serif" font-size="10.00">+ isCriticalHit()</text>
<text text-anchor="start" x="350" y="-189.5" font-family="Helvetica,sans-Serif" font-size="10.00">+ ranAway()</text>
<text text-anchor="start" x="350" y="-178.5" font-family="Helvetica,sans-Serif" font-size="10.00">+ damageCalculation()</text>
<text text-anchor="start" x="350" y="-167.5" font-family="Helvetica,sans-Serif" font-size="10.00">+ enemyMove()</text>
<text text-anchor="start" x="350" y="-156.5" font-family="Helvetica,sans-Serif" font-size="10.00">+ enemySpecialMove()</text>
<text text-anchor="start" x="350" y="-145.5" font-family="Helvetica,sans-Serif" font-size="10.00">+ battleWon()</text>
<text text-anchor="start" x="350" y="-134.5" font-family="Helvetica,sans-Serif" font-size="10.00">+ playerFainted()</text>
<text text-anchor="start" x="350" y="-123.5" font-family="Helvetica,sans-Serif" font-size="10.00">&#45; characterFainted()</text>
</a>
</g>
</g>
<!-- Node4&#45;&gt;Node8 -->
<g id="edge11" class="edge"><title>Node4&#45;&gt;Node8</title>
<path fill="none" stroke="#404040" d="M290.693,-1099.95C371.32,-1091.39 660,-1055.3 660,-977 660,-977 660,-977 660,-408.5 660,-312.839 546.595,-257.826 469.578,-231.495"/>
<polygon fill="none" stroke="#404040" points="469.416,-231.441 462.462,-233.349 458.025,-227.665 464.979,-225.756 469.416,-231.441"/>
<text text-anchor="middle" x="699" y="-697.5" font-family="Helvetica,sans-Serif" font-size="10.00"> +forceCriticalHits</text>
</g>
<!-- Node12 -->
<g id="node11" class="node"><title>Node12</title>
<g id="a_node11"><a xlink:href="class_item.html" target="_top" xlink:title="{Item\n|+ Name\l+ Desc\l|+ applyBuffs()\l+ revertBuffs()\l}">
<polygon fill="none" stroke="black" points="565.5,-838.5 565.5,-917.5 642.5,-917.5 642.5,-838.5 565.5,-838.5"/>
<text text-anchor="middle" x="604" y="-905.5" font-family="Helvetica,sans-Serif" font-size="10.00">Item</text>
<polyline fill="none" stroke="black" points="565.5,-898.5 642.5,-898.5 "/>
<text text-anchor="start" x="573.5" y="-886.5" font-family="Helvetica,sans-Serif" font-size="10.00">+ Name</text>
<text text-anchor="start" x="573.5" y="-875.5" font-family="Helvetica,sans-Serif" font-size="10.00">+ Desc</text>
<polyline fill="none" stroke="black" points="565.5,-868.5 642.5,-868.5 "/>
<text text-anchor="start" x="573.5" y="-856.5" font-family="Helvetica,sans-Serif" font-size="10.00">+ applyBuffs()</text>
<text text-anchor="start" x="573.5" y="-845.5" font-family="Helvetica,sans-Serif" font-size="10.00">+ revertBuffs()</text>
</a>
</g>
</g>
<!-- Node4&#45;&gt;Node12 -->
<g id="edge20" class="edge"><title>Node4&#45;&gt;Node12</title>
<path fill="none" stroke="#404040" d="M290.67,-1093.48C323.811,-1079.42 390.352,-1049.56 442,-1016 496.195,-980.78 507.912,-964.671 556.079,-922.299"/>
<polygon fill="none" stroke="#404040" points="556.123,-922.26 558.016,-915.302 565.167,-914.373 563.274,-921.331 556.123,-922.26"/>
<text text-anchor="middle" x="425" y="-1048" font-family="Helvetica,sans-Serif" font-size="10.00"> #desc</text>
<text text-anchor="middle" x="425" y="-1037" font-family="Helvetica,sans-Serif" font-size="10.00">#name</text>
</g>
<!-- Node5&#45;&gt;Node3 -->
<g id="edge3" class="edge"><title>Node5&#45;&gt;Node3</title>
<path fill="none" stroke="#404040" d="M226.154,-611.873C184.789,-635.406 127.585,-675.579 101,-729 70.2403,-790.81 74.7184,-872.573 82.2099,-924.492"/>
<polygon fill="none" stroke="#404040" points="82.2141,-924.519 87.0864,-929.835 84.0532,-936.377 79.1809,-931.061 82.2141,-924.519"/>
<text text-anchor="middle" x="118" y="-777.5" font-family="Helvetica,sans-Serif" font-size="10.00"> #target</text>
<text text-anchor="middle" x="118" y="-766.5" font-family="Helvetica,sans-Serif" font-size="10.00">#user</text>
</g>
<!-- Node9 -->
<g id="node8" class="node"><title>Node9</title>
<g id="a_node8"><a xlink:href="class_enemy.html" target="_top" xlink:title="Defines an AI controller enemy to fight in battle scenes">
<polygon fill="none" stroke="black" points="258.5,-381 258.5,-438 325.5,-438 325.5,-381 258.5,-381"/>
<text text-anchor="middle" x="292" y="-426" font-family="Helvetica,sans-Serif" font-size="10.00">Enemy</text>
<polyline fill="none" stroke="black" points="258.5,-419 325.5,-419 "/>
<text text-anchor="start" x="266.5" y="-407" font-family="Helvetica,sans-Serif" font-size="10.00">+ ExpGiven</text>
<polyline fill="none" stroke="black" points="258.5,-400 325.5,-400 "/>
<text text-anchor="start" x="266.5" y="-388" font-family="Helvetica,sans-Serif" font-size="10.00">+ Enemy()</text>
</a>
</g>
</g>
<!-- Node5&#45;&gt;Node9 -->
<g id="edge13" class="edge"><title>Node5&#45;&gt;Node9</title>
<path fill="none" stroke="midnightblue" d="M283.518,-493.202C285.577,-473.122 287.6,-453.396 289.154,-438.248"/>
<polygon fill="none" stroke="midnightblue" points="280.012,-493.084 282.473,-503.389 286.975,-493.798 280.012,-493.084"/>
</g>
<!-- Node11 -->
<g id="node10" class="node"><title>Node11</title>
<g id="a_node10"><a xlink:href="class_player.html" target="_top" xlink:title="Defines a playable character for use in battle scenes">
<polygon fill="none" stroke="black" points="344,-353.5 344,-465.5 456,-465.5 456,-353.5 344,-353.5"/>
<text text-anchor="middle" x="400" y="-453.5" font-family="Helvetica,sans-Serif" font-size="10.00">Player</text>
<polyline fill="none" stroke="black" points="344,-446.5 456,-446.5 "/>
<text text-anchor="start" x="352" y="-434.5" font-family="Helvetica,sans-Serif" font-size="10.00">+ Exp</text>
<text text-anchor="start" x="352" y="-423.5" font-family="Helvetica,sans-Serif" font-size="10.00">+ Item</text>
<text text-anchor="start" x="352" y="-412.5" font-family="Helvetica,sans-Serif" font-size="10.00">+ ExpToNextLevel</text>
<polyline fill="none" stroke="black" points="344,-405.5 456,-405.5 "/>
<text text-anchor="start" x="352" y="-393.5" font-family="Helvetica,sans-Serif" font-size="10.00">+ Player()</text>
<text text-anchor="start" x="352" y="-382.5" font-family="Helvetica,sans-Serif" font-size="10.00">+ gainExp()</text>
<text text-anchor="start" x="352" y="-371.5" font-family="Helvetica,sans-Serif" font-size="10.00">+ levelUp()</text>
<text text-anchor="start" x="352" y="-360.5" font-family="Helvetica,sans-Serif" font-size="10.00">&#45; setExpToNextLevel()</text>
</a>
</g>
</g>
<!-- Node5&#45;&gt;Node11 -->
<g id="edge18" class="edge"><title>Node5&#45;&gt;Node11</title>
<path fill="none" stroke="midnightblue" d="M327.703,-511.199C338.714,-495.863 350.111,-479.988 360.511,-465.503"/>
<polygon fill="none" stroke="midnightblue" points="324.624,-509.486 321.635,-519.651 330.31,-513.569 324.624,-509.486"/>
</g>
<!-- Node6 -->
<g id="node5" class="node"><title>Node6</title>
<polygon fill="none" stroke="#bfbfbf" points="404.5,-947.5 404.5,-1004.5 433.5,-1004.5 433.5,-947.5 404.5,-947.5"/>
<text text-anchor="middle" x="419" y="-992.5" font-family="Helvetica,sans-Serif" font-size="10.00">int</text>
<polyline fill="none" stroke="#bfbfbf" points="404.5,-985.5 433.5,-985.5 "/>
<text text-anchor="middle" x="419" y="-973.5" font-family="Helvetica,sans-Serif" font-size="10.00"> </text>
<polyline fill="none" stroke="#bfbfbf" points="404.5,-966.5 433.5,-966.5 "/>
<text text-anchor="middle" x="419" y="-954.5" font-family="Helvetica,sans-Serif" font-size="10.00"> </text>
</g>
<!-- Node6&#45;&gt;Node5 -->
<g id="edge5" class="edge"><title>Node6&#45;&gt;Node5</title>
<path fill="none" stroke="#404040" d="M413.214,-947.42C405.749,-917.505 390.23,-869.778 362,-838 351.163,-825.801 339.844,-833.014 330,-820 313.471,-798.149 299.075,-736.961 289.019,-682.909"/>
<polygon fill="none" stroke="#404040" points="288.962,-682.594 283.952,-677.407 286.813,-670.788 291.823,-675.975 288.962,-682.594"/>
<text text-anchor="middle" x="367.5" y="-810.5" font-family="Helvetica,sans-Serif" font-size="10.00"> #speed</text>
<text text-anchor="middle" x="367.5" y="-799.5" font-family="Helvetica,sans-Serif" font-size="10.00">#luck</text>
<text text-anchor="middle" x="367.5" y="-788.5" font-family="Helvetica,sans-Serif" font-size="10.00">#health</text>
<text text-anchor="middle" x="367.5" y="-777.5" font-family="Helvetica,sans-Serif" font-size="10.00">#magic</text>
<text text-anchor="middle" x="367.5" y="-766.5" font-family="Helvetica,sans-Serif" font-size="10.00">#maximumMagic</text>
<text text-anchor="middle" x="367.5" y="-755.5" font-family="Helvetica,sans-Serif" font-size="10.00">#attack</text>
<text text-anchor="middle" x="367.5" y="-744.5" font-family="Helvetica,sans-Serif" font-size="10.00">#defence</text>
<text text-anchor="middle" x="367.5" y="-733.5" font-family="Helvetica,sans-Serif" font-size="10.00">#level</text>
</g>
<!-- Node6&#45;&gt;Node7 -->
<g id="edge9" class="edge"><title>Node6&#45;&gt;Node7</title>
<path fill="none" stroke="#404040" d="M404.205,-969.776C383.78,-961.806 347.188,-944.665 327,-918 304.669,-888.504 326.944,-867.022 304,-838 290.7,-821.177 271.55,-808.131 252.889,-798.415"/>
<polygon fill="none" stroke="#404040" points="252.78,-798.361 245.632,-799.309 242.007,-793.075 249.156,-792.127 252.78,-798.361"/>
<text text-anchor="middle" x="344.5" y="-875.5" font-family="Helvetica,sans-Serif" font-size="10.00"> #magic</text>
</g>
<!-- Node6&#45;&gt;Node8 -->
<g id="edge15" class="edge"><title>Node6&#45;&gt;Node8</title>
<path fill="none" stroke="#404040" d="M431.704,-947.408C433.706,-943.521 435.834,-939.619 438,-936 443.069,-927.533 446.537,-926.802 451,-918 494.73,-831.754 501.785,-806.33 518,-711 546.03,-546.208 525,-502.147 527,-335 527.058,-330.111 529.012,-328.456 527,-324 514.402,-296.094 491.035,-272.356 467.745,-254.014"/>
<polygon fill="none" stroke="#404040" points="467.715,-253.992 460.517,-253.556 458.152,-246.744 465.349,-247.18 467.715,-253.992"/>
<text text-anchor="middle" x="551.5" y="-584.5" font-family="Helvetica,sans-Serif" font-size="10.00"> +money</text>
</g>
<!-- Node6&#45;&gt;Node9 -->
<g id="edge14" class="edge"><title>Node6&#45;&gt;Node9</title>
<path fill="none" stroke="#404040" d="M423.347,-947.408C429.496,-900.385 436.739,-802.661 405,-729 400.646,-718.894 393.414,-720.58 388,-711 340.782,-627.448 361.177,-593.766 330,-503 323.873,-485.163 316.103,-465.807 309.188,-449.434"/>
<polygon fill="none" stroke="#404040" points="309.061,-449.136 303.023,-445.193 304.34,-438.104 310.378,-442.046 309.061,-449.136"/>
<text text-anchor="middle" x="411" y="-697.5" font-family="Helvetica,sans-Serif" font-size="10.00"> &#45;expGiven</text>
</g>
<!-- Node6&#45;&gt;Node11 -->
<g id="edge21" class="edge"><title>Node6&#45;&gt;Node11</title>
<path fill="none" stroke="#404040" d="M427.138,-947.409C429.504,-938.148 431.778,-927.706 433,-918 452.781,-760.903 428.655,-574.865 412.43,-477.523"/>
<polygon fill="none" stroke="#404040" points="412.402,-477.36 407.455,-472.113 410.395,-465.529 415.342,-470.775 412.402,-477.36"/>
<text text-anchor="middle" x="476.5" y="-703" font-family="Helvetica,sans-Serif" font-size="10.00"> &#45;expToNextLevel</text>
<text text-anchor="middle" x="476.5" y="-692" font-family="Helvetica,sans-Serif" font-size="10.00">&#45;exp</text>
</g>
<!-- Node7&#45;&gt;Node5 -->
<g id="edge6" class="edge"><title>Node7&#45;&gt;Node5</title>
<path fill="none" stroke="#404040" d="M199.424,-729.214C202.137,-715.992 205.889,-701.656 211,-689 213.793,-682.083 217.051,-675.109 220.587,-668.232"/>
<polygon fill="none" stroke="#404040" points="220.661,-668.094 219.981,-660.915 226.346,-657.525 227.026,-664.704 220.661,-668.094"/>
<text text-anchor="middle" x="233.5" y="-703" font-family="Helvetica,sans-Serif" font-size="10.00"> #special1</text>
<text text-anchor="middle" x="233.5" y="-692" font-family="Helvetica,sans-Serif" font-size="10.00">#special2</text>
</g>
<!-- Node8&#45;&gt;Node2 -->
<g id="edge22" class="edge"><title>Node8&#45;&gt;Node2</title>
<path fill="none" stroke="#404040" d="M341.961,-175.316C290.875,-144.787 216.883,-100.569 165.853,-70.0732"/>
<polygon fill="none" stroke="#404040" points="165.63,-69.9397 158.427,-70.2954 155.329,-63.7839 162.531,-63.4282 165.63,-69.9397"/>
<text text-anchor="middle" x="233" y="-90" font-family="Helvetica,sans-Serif" font-size="10.00"> &#45;manager</text>
</g>
<!-- Node8&#45;&gt;Node3 -->
<g id="edge10" class="edge"><title>Node8&#45;&gt;Node3</title>
<path fill="none" stroke="#404040" d="M341.941,-217.764C241.512,-231.281 46,-274.77 46,-408.5 46,-775.5 46,-775.5 46,-775.5 46,-827.312 60.914,-884.801 73.7579,-924.705"/>
<polygon fill="none" stroke="#404040" points="73.8051,-924.848 79.4862,-929.289 77.5715,-936.242 71.8905,-931.8 73.8051,-924.848"/>
<text text-anchor="middle" x="69" y="-584.5" font-family="Helvetica,sans-Serif" font-size="10.00"> #manager</text>
</g>
<!-- Node9&#45;&gt;Node8 -->
<g id="edge12" class="edge"><title>Node9&#45;&gt;Node8</title>
<path fill="none" stroke="#404040" d="M307.245,-380.763C316.716,-363.53 329.55,-340.18 342.647,-316.35"/>
<polygon fill="none" stroke="#404040" points="342.689,-316.274 342.074,-309.089 348.469,-305.757 349.085,-312.942 342.689,-316.274"/>
<text text-anchor="middle" x="355" y="-327" font-family="Helvetica,sans-Serif" font-size="10.00"> &#45;enemy</text>
</g>
<!-- Node10 -->
<g id="node9" class="node"><title>Node10</title>
<polygon fill="none" stroke="#bfbfbf" points="474.5,-381 474.5,-438 509.5,-438 509.5,-381 474.5,-381"/>
<text text-anchor="middle" x="492" y="-426" font-family="Helvetica,sans-Serif" font-size="10.00">bool</text>
<polyline fill="none" stroke="#bfbfbf" points="474.5,-419 509.5,-419 "/>
<text text-anchor="middle" x="492" y="-407" font-family="Helvetica,sans-Serif" font-size="10.00"> </text>
<polyline fill="none" stroke="#bfbfbf" points="474.5,-400 509.5,-400 "/>
<text text-anchor="middle" x="492" y="-388" font-family="Helvetica,sans-Serif" font-size="10.00"> </text>
</g>
<!-- Node10&#45;&gt;Node8 -->
<g id="edge16" class="edge"><title>Node10&#45;&gt;Node8</title>
<path fill="none" stroke="#404040" d="M479.014,-380.763C470.982,-363.608 460.111,-340.39 449.006,-316.67"/>
<polygon fill="none" stroke="#404040" points="448.985,-316.625 442.818,-312.887 443.897,-305.757 450.063,-309.495 448.985,-316.625"/>
<text text-anchor="middle" x="490" y="-327" font-family="Helvetica,sans-Serif" font-size="10.00"> &#45;wasCriticalHit</text>
</g>
<!-- Node11&#45;&gt;Node8 -->
<g id="edge17" class="edge"><title>Node11&#45;&gt;Node8</title>
<path fill="none" stroke="#404040" d="M400,-353.241C400,-342.088 400,-330.014 400,-317.784"/>
<polygon fill="none" stroke="#404040" points="400,-317.53 396,-311.53 400,-305.53 404,-311.53 400,-317.53"/>
<text text-anchor="middle" x="416.5" y="-327" font-family="Helvetica,sans-Serif" font-size="10.00"> &#45;player</text>
</g>
<!-- Node12&#45;&gt;Node11 -->
<g id="edge19" class="edge"><title>Node12&#45;&gt;Node11</title>
<path fill="none" stroke="#404040" d="M604.841,-838.228C606.45,-747.872 608.19,-528.978 588,-503 555.158,-460.743 519.834,-489.229 466.901,-466.038"/>
<polygon fill="none" stroke="#404040" points="466.827,-466.002 459.675,-466.922 456.075,-460.674 463.227,-459.754 466.827,-466.002"/>
<text text-anchor="middle" x="617.5" y="-697.5" font-family="Helvetica,sans-Serif" font-size="10.00"> &#45;item</text>
</g>
</g>
</svg>
