<?xml version="1.0" encoding="UTF-8" standalone="no"?>
<!DOCTYPE svg PUBLIC "-//W3C//DTD SVG 1.1//EN"
 "http://www.w3.org/Graphics/SVG/1.1/DTD/svg11.dtd">
<!-- Generated by graphviz version 2.38.0 (20140413.2041)
 -->
<!-- Title: MenuScript Pages: 1 -->
<svg width="458pt" height="237pt"
 viewBox="0.00 0.00 457.50 237.00" xmlns="http://www.w3.org/2000/svg" xmlns:xlink="http://www.w3.org/1999/xlink">
<g id="graph0" class="graph" transform="scale(1 1) rotate(0) translate(4 233)">
<title>MenuScript</title>
<!-- Node2 -->
<g id="node1" class="node"><title>Node2</title>
<polygon fill="#bfbfbf" stroke="black" points="207,-0.5 207,-112.5 282,-112.5 282,-0.5 207,-0.5"/>
<text text-anchor="middle" x="244.5" y="-100.5" font-family="Helvetica,sans-Serif" font-size="10.00">MenuScript</text>
<polyline fill="none" stroke="black" points="207,-93.5 282,-93.5 "/>
<text text-anchor="middle" x="244.5" y="-81.5" font-family="Helvetica,sans-Serif" font-size="10.00"> </text>
<polyline fill="none" stroke="black" points="207,-74.5 282,-74.5 "/>
<text text-anchor="start" x="215" y="-62.5" font-family="Helvetica,sans-Serif" font-size="10.00">+ ExitPress()</text>
<text text-anchor="start" x="215" y="-51.5" font-family="Helvetica,sans-Serif" font-size="10.00">+ NoPress()</text>
<text text-anchor="start" x="215" y="-40.5" font-family="Helvetica,sans-Serif" font-size="10.00">+ StartLevel()</text>
<text text-anchor="start" x="215" y="-29.5" font-family="Helvetica,sans-Serif" font-size="10.00">+ ExitGame()</text>
<text text-anchor="start" x="215" y="-18.5" font-family="Helvetica,sans-Serif" font-size="10.00">+ sound()</text>
<text text-anchor="start" x="215" y="-7.5" font-family="Helvetica,sans-Serif" font-size="10.00">&#45; Start()</text>
</g>
<!-- Node3 -->
<g id="node2" class="node"><title>Node3</title>
<g id="a_node2"><a xlink:href="class_mono_behaviour.html" target="_top" xlink:title="{MonoBehaviour\n||}">
<polygon fill="none" stroke="black" points="0,-171.5 0,-228.5 83,-228.5 83,-171.5 0,-171.5"/>
<text text-anchor="middle" x="41.5" y="-216.5" font-family="Helvetica,sans-Serif" font-size="10.00">MonoBehaviour</text>
<polyline fill="none" stroke="black" points="0,-209.5 83,-209.5 "/>
<text text-anchor="middle" x="41.5" y="-197.5" font-family="Helvetica,sans-Serif" font-size="10.00"> </text>
<polyline fill="none" stroke="black" points="0,-190.5 83,-190.5 "/>
<text text-anchor="middle" x="41.5" y="-178.5" font-family="Helvetica,sans-Serif" font-size="10.00"> </text>
</a>
</g>
</g>
<!-- Node3&#45;&gt;Node2 -->
<g id="edge1" class="edge"><title>Node3&#45;&gt;Node2</title>
<path fill="none" stroke="midnightblue" d="M89.4837,-165.553C125.307,-140.583 173.587,-106.93 206.694,-83.8526"/>
<polygon fill="none" stroke="midnightblue" points="87.3246,-162.792 81.1223,-171.381 91.3275,-168.534 87.3246,-162.792"/>
</g>
<!-- Node4 -->
<g id="node3" class="node"><title>Node4</title>
<polygon fill="none" stroke="#bfbfbf" points="101,-171.5 101,-228.5 172,-228.5 172,-171.5 101,-171.5"/>
<text text-anchor="middle" x="136.5" y="-216.5" font-family="Helvetica,sans-Serif" font-size="10.00">GameObject</text>
<polyline fill="none" stroke="#bfbfbf" points="101,-209.5 172,-209.5 "/>
<text text-anchor="middle" x="136.5" y="-197.5" font-family="Helvetica,sans-Serif" font-size="10.00"> </text>
<polyline fill="none" stroke="#bfbfbf" points="101,-190.5 172,-190.5 "/>
<text text-anchor="middle" x="136.5" y="-178.5" font-family="Helvetica,sans-Serif" font-size="10.00"> </text>
</g>
<!-- Node4&#45;&gt;Node2 -->
<g id="edge2" class="edge"><title>Node4&#45;&gt;Node2</title>
<path fill="none" stroke="#404040" d="M147.832,-171.363C153.704,-158.531 161.527,-143.406 170.5,-131 178.626,-119.766 188.511,-108.677 198.376,-98.6506"/>
<polygon fill="none" stroke="#404040" points="198.458,-98.5695 199.916,-91.5073 206.996,-90.1366 205.538,-97.1988 198.458,-98.5695"/>
<text text-anchor="middle" x="187" y="-139.5" font-family="Helvetica,sans-Serif" font-size="10.00"> &#45;player</text>
</g>
<!-- Node5 -->
<g id="node4" class="node"><title>Node5</title>
<polygon fill="none" stroke="#bfbfbf" points="190.5,-171.5 190.5,-228.5 238.5,-228.5 238.5,-171.5 190.5,-171.5"/>
<text text-anchor="middle" x="214.5" y="-216.5" font-family="Helvetica,sans-Serif" font-size="10.00">Canvas</text>
<polyline fill="none" stroke="#bfbfbf" points="190.5,-209.5 238.5,-209.5 "/>
<text text-anchor="middle" x="214.5" y="-197.5" font-family="Helvetica,sans-Serif" font-size="10.00"> </text>
<polyline fill="none" stroke="#bfbfbf" points="190.5,-190.5 238.5,-190.5 "/>
<text text-anchor="middle" x="214.5" y="-178.5" font-family="Helvetica,sans-Serif" font-size="10.00"> </text>
</g>
<!-- Node5&#45;&gt;Node2 -->
<g id="edge3" class="edge"><title>Node5&#45;&gt;Node2</title>
<path fill="none" stroke="#404040" d="M208.803,-171.264C207.181,-158.825 206.552,-144.047 209.5,-131 210.014,-128.725 210.607,-126.439 211.267,-124.151"/>
<polygon fill="none" stroke="#404040" points="211.271,-124.137 209.374,-117.18 215.066,-112.753 216.963,-119.71 211.271,-124.137"/>
<text text-anchor="middle" x="234" y="-139.5" font-family="Helvetica,sans-Serif" font-size="10.00"> +quitMenu</text>
</g>
<!-- Node6 -->
<g id="node5" class="node"><title>Node6</title>
<polygon fill="none" stroke="#bfbfbf" points="263,-171.5 263,-228.5 298,-228.5 298,-171.5 263,-171.5"/>
<text text-anchor="middle" x="280.5" y="-216.5" font-family="Helvetica,sans-Serif" font-size="10.00">bool</text>
<polyline fill="none" stroke="#bfbfbf" points="263,-209.5 298,-209.5 "/>
<text text-anchor="middle" x="280.5" y="-197.5" font-family="Helvetica,sans-Serif" font-size="10.00"> </text>
<polyline fill="none" stroke="#bfbfbf" points="263,-190.5 298,-190.5 "/>
<text text-anchor="middle" x="280.5" y="-178.5" font-family="Helvetica,sans-Serif" font-size="10.00"> </text>
</g>
<!-- Node6&#45;&gt;Node2 -->
<g id="edge4" class="edge"><title>Node6&#45;&gt;Node2</title>
<path fill="none" stroke="#404040" d="M273.473,-171.381C270.049,-157.92 265.767,-141.089 261.554,-124.531"/>
<polygon fill="none" stroke="#404040" points="261.471,-124.204 256.115,-119.376 258.512,-112.575 263.868,-117.403 261.471,-124.204"/>
<text text-anchor="middle" x="291.5" y="-139.5" font-family="Helvetica,sans-Serif" font-size="10.00"> &#45;soundOn</text>
</g>
<!-- Node7 -->
<g id="node6" class="node"><title>Node7</title>
<polygon fill="none" stroke="#bfbfbf" points="332,-171.5 332,-228.5 367,-228.5 367,-171.5 332,-171.5"/>
<text text-anchor="middle" x="349.5" y="-216.5" font-family="Helvetica,sans-Serif" font-size="10.00">Text</text>
<polyline fill="none" stroke="#bfbfbf" points="332,-209.5 367,-209.5 "/>
<text text-anchor="middle" x="349.5" y="-197.5" font-family="Helvetica,sans-Serif" font-size="10.00"> </text>
<polyline fill="none" stroke="#bfbfbf" points="332,-190.5 367,-190.5 "/>
<text text-anchor="middle" x="349.5" y="-178.5" font-family="Helvetica,sans-Serif" font-size="10.00"> </text>
</g>
<!-- Node7&#45;&gt;Node2 -->
<g id="edge5" class="edge"><title>Node7&#45;&gt;Node2</title>
<path fill="none" stroke="#404040" d="M339.543,-171.314C334.272,-158.471 327.1,-143.351 318.5,-131 310.577,-119.622 300.773,-108.475 290.923,-98.4382"/>
<polygon fill="none" stroke="#404040" points="290.84,-98.3568 283.76,-96.9882 282.3,-89.9264 289.381,-91.2949 290.84,-98.3568"/>
<text text-anchor="middle" x="356" y="-139.5" font-family="Helvetica,sans-Serif" font-size="10.00"> &#45;audioText</text>
</g>
<!-- Node8 -->
<g id="node7" class="node"><title>Node8</title>
<polygon fill="none" stroke="#bfbfbf" points="399,-171.5 399,-228.5 444,-228.5 444,-171.5 399,-171.5"/>
<text text-anchor="middle" x="421.5" y="-216.5" font-family="Helvetica,sans-Serif" font-size="10.00">Button</text>
<polyline fill="none" stroke="#bfbfbf" points="399,-209.5 444,-209.5 "/>
<text text-anchor="middle" x="421.5" y="-197.5" font-family="Helvetica,sans-Serif" font-size="10.00"> </text>
<polyline fill="none" stroke="#bfbfbf" points="399,-190.5 444,-190.5 "/>
<text text-anchor="middle" x="421.5" y="-178.5" font-family="Helvetica,sans-Serif" font-size="10.00"> </text>
</g>
<!-- Node8&#45;&gt;Node2 -->
<g id="edge6" class="edge"><title>Node8&#45;&gt;Node2</title>
<path fill="none" stroke="#404040" d="M410.995,-171.4C404.837,-157.968 395.989,-142.319 384.5,-131 358.778,-105.657 322.527,-86.9528 293.358,-74.7557"/>
<polygon fill="none" stroke="#404040" points="293.288,-74.7275 286.228,-76.1949 282.158,-70.2421 289.218,-68.7747 293.288,-74.7275"/>
<text text-anchor="middle" x="425.5" y="-145" font-family="Helvetica,sans-Serif" font-size="10.00"> +startText</text>
<text text-anchor="middle" x="425.5" y="-134" font-family="Helvetica,sans-Serif" font-size="10.00">+exitText</text>
</g>
</g>
</svg>
