<?xml version="1.0" encoding="UTF-8" standalone="no"?>
<!DOCTYPE svg PUBLIC "-//W3C//DTD SVG 1.1//EN"
 "http://www.w3.org/Graphics/SVG/1.1/DTD/svg11.dtd">
<!-- Generated by graphviz version 2.38.0 (20140413.2041)
 -->
<!-- Title: Player Pages: 1 -->
<!--zoomable 1265 -->
<svg id="main" version="1.1" xmlns="http://www.w3.org/2000/svg" xmlns:xlink="http://www.w3.org/1999/xlink" xml:space="preserve" onload="init(evt)">
<style type="text/css"><![CDATA[
.edge:hover path { stroke: red; }
.edge:hover polygon { stroke: red; fill: red; }
]]></style>
<script type="text/javascript"><![CDATA[
var edges = document.getElementsByTagName('g');
if (edges && edges.length) {
  for (var i=0;i<edges.length;i++) {
    if (edges[i].id.substr(0,4)=='edge') {
      edges[i].setAttribute('class','edge');
    }
  }
}
]]></script>
        <defs>
                <circle id="rim" cx="0" cy="0" r="7"/>
                <circle id="rim2" cx="0" cy="0" r="3.5"/>
                <g id="zoomPlus">
                        <use xlink:href="#rim" fill="#404040">
                                <set attributeName="fill" to="#808080" begin="zoomplus.mouseover" end="zoomplus.mouseout"/>
                        </use>
                        <path d="M-4,0h8M0,-4v8" fill="none" stroke="white" stroke-width="1.5" pointer-events="none"/>
                </g>
                <g id="zoomMin">
                        <use xlink:href="#rim" fill="#404040">
                                <set attributeName="fill" to="#808080" begin="zoomminus.mouseover" end="zoomminus.mouseout"/>
                        </use>
                        <path d="M-4,0h8" fill="none" stroke="white" stroke-width="1.5" pointer-events="none"/>
                </g>
                <g id="dirArrow">
                        <path fill="none" stroke="white" stroke-width="1.5" d="M0,-3.0v7 M-2.5,-0.5L0,-3.0L2.5,-0.5"/>
                </g>
               <g id="resetDef">
                       <use xlink:href="#rim2" fill="#404040">
                               <set attributeName="fill" to="#808080" begin="reset.mouseover" end="reset.mouseout"/>
                       </use>
               </g>
        </defs>

<script type="text/javascript">
var viewWidth = 615;
var viewHeight = 1265;
var sectionId = 'dynsection-1';
</script>
<script xlink:href="svgpan.js"/>
<svg id="graph" class="graph">
<g id="viewport">
<title>Player</title>
<!-- Node2 -->
<g id="node1" class="node"><title>Node2</title>
<polygon fill="#bfbfbf" stroke="black" points="414,-890.5 414,-1002.5 526,-1002.5 526,-890.5 414,-890.5"/>
<text text-anchor="middle" x="470" y="-990.5" font-family="Helvetica,sans-Serif" font-size="10.00">Player</text>
<polyline fill="none" stroke="black" points="414,-983.5 526,-983.5 "/>
<text text-anchor="start" x="422" y="-971.5" font-family="Helvetica,sans-Serif" font-size="10.00">+ Exp</text>
<text text-anchor="start" x="422" y="-960.5" font-family="Helvetica,sans-Serif" font-size="10.00">+ Item</text>
<text text-anchor="start" x="422" y="-949.5" font-family="Helvetica,sans-Serif" font-size="10.00">+ ExpToNextLevel</text>
<polyline fill="none" stroke="black" points="414,-942.5 526,-942.5 "/>
<text text-anchor="start" x="422" y="-930.5" font-family="Helvetica,sans-Serif" font-size="10.00">+ Player()</text>
<text text-anchor="start" x="422" y="-919.5" font-family="Helvetica,sans-Serif" font-size="10.00">+ gainExp()</text>
<text text-anchor="start" x="422" y="-908.5" font-family="Helvetica,sans-Serif" font-size="10.00">+ levelUp()</text>
<text text-anchor="start" x="422" y="-897.5" font-family="Helvetica,sans-Serif" font-size="10.00">&#45; setExpToNextLevel()</text>
</g>
<!-- Node8 -->
<g id="node7" class="node"><title>Node8</title>
<g id="a_node7"><a xlink:href="class_battle_manager.html" target="_top" xlink:title="{BattleManager\n|+ Player\l+ Enemy\l+ WasCriticalHit\l|+ BattleManager()\l+ playerFirst()\l+ switchPlayers()\l+ isCriticalHit()\l+ ranAway()\l+ damageCalculation()\l+ enemyMove()\l+ enemySpecialMove()\l+ battleWon()\l+ playerFainted()\l&#45; characterFainted()\l}">
<polygon fill="none" stroke="black" points="327,-653.5 327,-842.5 443,-842.5 443,-653.5 327,-653.5"/>
<text text-anchor="middle" x="385" y="-830.5" font-family="Helvetica,sans-Serif" font-size="10.00">BattleManager</text>
<polyline fill="none" stroke="black" points="327,-823.5 443,-823.5 "/>
<text text-anchor="start" x="335" y="-811.5" font-family="Helvetica,sans-Serif" font-size="10.00">+ Player</text>
<text text-anchor="start" x="335" y="-800.5" font-family="Helvetica,sans-Serif" font-size="10.00">+ Enemy</text>
<text text-anchor="start" x="335" y="-789.5" font-family="Helvetica,sans-Serif" font-size="10.00">+ WasCriticalHit</text>
<polyline fill="none" stroke="black" points="327,-782.5 443,-782.5 "/>
<text text-anchor="start" x="335" y="-770.5" font-family="Helvetica,sans-Serif" font-size="10.00">+ BattleManager()</text>
<text text-anchor="start" x="335" y="-759.5" font-family="Helvetica,sans-Serif" font-size="10.00">+ playerFirst()</text>
<text text-anchor="start" x="335" y="-748.5" font-family="Helvetica,sans-Serif" font-size="10.00">+ switchPlayers()</text>
<text text-anchor="start" x="335" y="-737.5" font-family="Helvetica,sans-Serif" font-size="10.00">+ isCriticalHit()</text>
<text text-anchor="start" x="335" y="-726.5" font-family="Helvetica,sans-Serif" font-size="10.00">+ ranAway()</text>
<text text-anchor="start" x="335" y="-715.5" font-family="Helvetica,sans-Serif" font-size="10.00">+ damageCalculation()</text>
<text text-anchor="start" x="335" y="-704.5" font-family="Helvetica,sans-Serif" font-size="10.00">+ enemyMove()</text>
<text text-anchor="start" x="335" y="-693.5" font-family="Helvetica,sans-Serif" font-size="10.00">+ enemySpecialMove()</text>
<text text-anchor="start" x="335" y="-682.5" font-family="Helvetica,sans-Serif" font-size="10.00">+ battleWon()</text>
<text text-anchor="start" x="335" y="-671.5" font-family="Helvetica,sans-Serif" font-size="10.00">+ playerFainted()</text>
<text text-anchor="start" x="335" y="-660.5" font-family="Helvetica,sans-Serif" font-size="10.00">&#45; characterFainted()</text>
</a>
</g>
</g>
<!-- Node2&#45;&gt;Node8 -->
<g id="edge15" class="edge"><title>Node2&#45;&gt;Node8</title>
<path fill="none" stroke="#404040" d="M441.555,-890.384C438.583,-884.221 435.675,-878.003 433,-872 430.376,-866.111 427.749,-860.032 425.151,-853.875"/>
<polygon fill="none" stroke="#404040" points="425.125,-853.811 419.127,-849.809 420.515,-842.732 426.513,-846.735 425.125,-853.811"/>
<text text-anchor="middle" x="449.5" y="-864" font-family="Helvetica,sans-Serif" font-size="10.00"> &#45;player</text>
</g>
<!-- Node3 -->
<g id="node2" class="node"><title>Node3</title>
<g id="a_node2"><a xlink:href="class_character.html" target="_top" xlink:title="Base abstract class for Enemy and Player to inherit from. Defines all shared variables, their constructor and their setters and getters ">
<polygon fill="none" stroke="black" points="221.5,-95.5 221.5,-262.5 316.5,-262.5 316.5,-95.5 221.5,-95.5"/>
<text text-anchor="middle" x="269" y="-250.5" font-family="Helvetica,sans-Serif" font-size="10.00">Character</text>
<polyline fill="none" stroke="black" points="221.5,-243.5 316.5,-243.5 "/>
<text text-anchor="start" x="229.5" y="-231.5" font-family="Helvetica,sans-Serif" font-size="10.00">+ Name</text>
<text text-anchor="start" x="229.5" y="-220.5" font-family="Helvetica,sans-Serif" font-size="10.00">+ Level</text>
<text text-anchor="start" x="229.5" y="-209.5" font-family="Helvetica,sans-Serif" font-size="10.00">+ Health</text>
<text text-anchor="start" x="229.5" y="-198.5" font-family="Helvetica,sans-Serif" font-size="10.00">+ Attack</text>
<text text-anchor="start" x="229.5" y="-187.5" font-family="Helvetica,sans-Serif" font-size="10.00">+ Defence</text>
<text text-anchor="start" x="229.5" y="-176.5" font-family="Helvetica,sans-Serif" font-size="10.00">+ MaximumMagic</text>
<text text-anchor="start" x="229.5" y="-165.5" font-family="Helvetica,sans-Serif" font-size="10.00">+ Magic</text>
<text text-anchor="start" x="229.5" y="-154.5" font-family="Helvetica,sans-Serif" font-size="10.00">+ Luck</text>
<text text-anchor="start" x="229.5" y="-143.5" font-family="Helvetica,sans-Serif" font-size="10.00">+ Speed</text>
<text text-anchor="start" x="229.5" y="-132.5" font-family="Helvetica,sans-Serif" font-size="10.00">+ Special1</text>
<text text-anchor="start" x="229.5" y="-121.5" font-family="Helvetica,sans-Serif" font-size="10.00">+ Special2</text>
<polyline fill="none" stroke="black" points="221.5,-114.5 316.5,-114.5 "/>
<text text-anchor="start" x="229.5" y="-102.5" font-family="Helvetica,sans-Serif" font-size="10.00"># Character()</text>
</a>
</g>
</g>
<!-- Node3&#45;&gt;Node2 -->
<g id="edge1" class="edge"><title>Node3&#45;&gt;Node2</title>
<path fill="none" stroke="midnightblue" d="M325.994,-201.348C388.485,-228.892 480,-283.267 480,-365.5 480,-749 480,-749 480,-749 480,-796.822 477.009,-851.107 474.299,-890.483"/>
<polygon fill="none" stroke="midnightblue" points="327.185,-198.05 316.616,-197.318 324.421,-204.482 327.185,-198.05"/>
</g>
<!-- Node7 -->
<g id="node6" class="node"><title>Node7</title>
<g id="a_node6"><a xlink:href="class_character_move.html" target="_top" xlink:title="Astract base class for character moves ">
<polygon fill="none" stroke="black" points="217,-449.5 217,-528.5 303,-528.5 303,-449.5 217,-449.5"/>
<text text-anchor="middle" x="260" y="-516.5" font-family="Helvetica,sans-Serif" font-size="10.00">CharacterMove</text>
<polyline fill="none" stroke="black" points="217,-509.5 303,-509.5 "/>
<text text-anchor="start" x="225" y="-497.5" font-family="Helvetica,sans-Serif" font-size="10.00">+ User</text>
<text text-anchor="start" x="225" y="-486.5" font-family="Helvetica,sans-Serif" font-size="10.00">+ Target</text>
<text text-anchor="start" x="225" y="-475.5" font-family="Helvetica,sans-Serif" font-size="10.00">+ Text</text>
<polyline fill="none" stroke="black" points="217,-468.5 303,-468.5 "/>
<text text-anchor="start" x="225" y="-456.5" font-family="Helvetica,sans-Serif" font-size="10.00">+ performMove()</text>
</a>
</g>
</g>
<!-- Node3&#45;&gt;Node7 -->
<g id="edge7" class="edge"><title>Node3&#45;&gt;Node7</title>
<path fill="none" stroke="#404040" d="M266.589,-262.502C264.964,-318.132 262.871,-389.762 261.485,-437.195"/>
<polygon fill="none" stroke="#404040" points="261.481,-437.309 265.304,-443.423 261.131,-449.303 257.308,-443.189 261.481,-437.309"/>
<text text-anchor="middle" x="282" y="-369.5" font-family="Helvetica,sans-Serif" font-size="10.00"> #target</text>
<text text-anchor="middle" x="282" y="-358.5" font-family="Helvetica,sans-Serif" font-size="10.00">#user</text>
</g>
<!-- Node9 -->
<g id="node8" class="node"><title>Node9</title>
<g id="a_node8"><a xlink:href="class_enemy.html" target="_top" xlink:title="Defines an AI controller enemy to fight in battle scenes">
<polygon fill="none" stroke="black" points="235.5,-0.5 235.5,-57.5 302.5,-57.5 302.5,-0.5 235.5,-0.5"/>
<text text-anchor="middle" x="269" y="-45.5" font-family="Helvetica,sans-Serif" font-size="10.00">Enemy</text>
<polyline fill="none" stroke="black" points="235.5,-38.5 302.5,-38.5 "/>
<text text-anchor="start" x="243.5" y="-26.5" font-family="Helvetica,sans-Serif" font-size="10.00">+ ExpGiven</text>
<polyline fill="none" stroke="black" points="235.5,-19.5 302.5,-19.5 "/>
<text text-anchor="start" x="243.5" y="-7.5" font-family="Helvetica,sans-Serif" font-size="10.00">+ Enemy()</text>
</a>
</g>
</g>
<!-- Node3&#45;&gt;Node9 -->
<g id="edge11" class="edge"><title>Node3&#45;&gt;Node9</title>
<path fill="none" stroke="midnightblue" d="M269,-85.2199C269,-75.2276 269,-65.7244 269,-57.507"/>
<polygon fill="none" stroke="midnightblue" points="265.5,-85.3457 269,-95.3458 272.5,-85.3458 265.5,-85.3457"/>
</g>
<!-- Node4 -->
<g id="node3" class="node"><title>Node4</title>
<polygon fill="none" stroke="#bfbfbf" points="127.5,-1199.5 127.5,-1256.5 168.5,-1256.5 168.5,-1199.5 127.5,-1199.5"/>
<text text-anchor="middle" x="148" y="-1244.5" font-family="Helvetica,sans-Serif" font-size="10.00">string</text>
<polyline fill="none" stroke="#bfbfbf" points="127.5,-1237.5 168.5,-1237.5 "/>
<text text-anchor="middle" x="148" y="-1225.5" font-family="Helvetica,sans-Serif" font-size="10.00"> </text>
<polyline fill="none" stroke="#bfbfbf" points="127.5,-1218.5 168.5,-1218.5 "/>
<text text-anchor="middle" x="148" y="-1206.5" font-family="Helvetica,sans-Serif" font-size="10.00"> </text>
</g>
<!-- Node4&#45;&gt;Node3 -->
<g id="edge2" class="edge"><title>Node4&#45;&gt;Node3</title>
<path fill="none" stroke="#404040" d="M127.421,-1220.48C86.7549,-1206.17 0,-1167.92 0,-1102 0,-1102 0,-1102 0,-365.5 0,-264.462 130.207,-214.225 209.443,-193.008"/>
<polygon fill="none" stroke="#404040" points="209.599,-192.967 214.409,-187.594 221.218,-189.967 216.409,-195.34 209.599,-192.967"/>
<text text-anchor="middle" x="16.5" y="-745.5" font-family="Helvetica,sans-Serif" font-size="10.00"> #name</text>
</g>
<!-- Node6 -->
<g id="node5" class="node"><title>Node6</title>
<g id="a_node5"><a xlink:href="class_special_move.html" target="_top" xlink:title="Special move abstract base class that expands upon CharacterMove, adding magic properties ...">
<polygon fill="none" stroke="black" points="135,-321.5 135,-411.5 233,-411.5 233,-321.5 135,-321.5"/>
<text text-anchor="middle" x="184" y="-399.5" font-family="Helvetica,sans-Serif" font-size="10.00">SpecialMove</text>
<polyline fill="none" stroke="black" points="135,-392.5 233,-392.5 "/>
<text text-anchor="start" x="143" y="-380.5" font-family="Helvetica,sans-Serif" font-size="10.00">+ Magic</text>
<text text-anchor="start" x="143" y="-369.5" font-family="Helvetica,sans-Serif" font-size="10.00">+ Desc</text>
<polyline fill="none" stroke="black" points="135,-362.5 233,-362.5 "/>
<text text-anchor="start" x="143" y="-350.5" font-family="Helvetica,sans-Serif" font-size="10.00">+ setUp()</text>
<text text-anchor="start" x="143" y="-339.5" font-family="Helvetica,sans-Serif" font-size="10.00">+ decreaseMagic()</text>
<text text-anchor="start" x="143" y="-328.5" font-family="Helvetica,sans-Serif" font-size="10.00"># SpecialMove()</text>
</a>
</g>
</g>
<!-- Node4&#45;&gt;Node6 -->
<g id="edge16" class="edge"><title>Node4&#45;&gt;Node6</title>
<path fill="none" stroke="#404040" d="M127.382,-1211.27C101.655,-1189.69 61,-1148.27 61,-1102 61,-1102 61,-1102 61,-488 61,-449.056 92.852,-418.543 124.138,-397.965"/>
<polygon fill="none" stroke="#404040" points="124.507,-397.735 127.472,-391.161 134.68,-391.37 131.715,-397.943 124.507,-397.735"/>
<text text-anchor="middle" x="76" y="-864" font-family="Helvetica,sans-Serif" font-size="10.00"> #desc</text>
</g>
<!-- Node4&#45;&gt;Node7 -->
<g id="edge6" class="edge"><title>Node4&#45;&gt;Node7</title>
<path fill="none" stroke="#404040" d="M148,-1199.2C148,-1173.87 148,-1135.42 148,-1102 148,-1102 148,-1102 148,-747 148,-669.3 191.556,-588.564 224.344,-538.796"/>
<polygon fill="none" stroke="#404040" points="224.463,-538.617 224.49,-531.406 231.157,-528.658 231.13,-535.869 224.463,-538.617"/>
<text text-anchor="middle" x="160.5" y="-944" font-family="Helvetica,sans-Serif" font-size="10.00"> #text</text>
</g>
<!-- Node4&#45;&gt;Node8 -->
<g id="edge9" class="edge"><title>Node4&#45;&gt;Node8</title>
<path fill="none" stroke="#404040" d="M168.691,-1226.49C221.909,-1224.17 365.615,-1211.34 455,-1141 510.711,-1097.16 516.591,-1071.46 535,-1003 548.041,-954.501 554.934,-936.097 535,-890 518.03,-850.757 484.166,-817.402 452.903,-793"/>
<polygon fill="none" stroke="#404040" points="452.865,-792.971 445.667,-792.531 443.305,-785.718 450.503,-786.158 452.865,-792.971"/>
<text text-anchor="middle" x="568" y="-1029.5" font-family="Helvetica,sans-Serif" font-size="10.00"> +forceCriticalHits</text>
</g>
<!-- Node11 -->
<g id="node10" class="node"><title>Node11</title>
<g id="a_node10"><a xlink:href="class_item.html" target="_top" xlink:title="{Item\n|+ Name\l+ Desc\l|+ applyBuffs()\l+ revertBuffs()\l}">
<polygon fill="none" stroke="black" points="369.5,-1061.5 369.5,-1140.5 446.5,-1140.5 446.5,-1061.5 369.5,-1061.5"/>
<text text-anchor="middle" x="408" y="-1128.5" font-family="Helvetica,sans-Serif" font-size="10.00">Item</text>
<polyline fill="none" stroke="black" points="369.5,-1121.5 446.5,-1121.5 "/>
<text text-anchor="start" x="377.5" y="-1109.5" font-family="Helvetica,sans-Serif" font-size="10.00">+ Name</text>
<text text-anchor="start" x="377.5" y="-1098.5" font-family="Helvetica,sans-Serif" font-size="10.00">+ Desc</text>
<polyline fill="none" stroke="black" points="369.5,-1091.5 446.5,-1091.5 "/>
<text text-anchor="start" x="377.5" y="-1079.5" font-family="Helvetica,sans-Serif" font-size="10.00">+ applyBuffs()</text>
<text text-anchor="start" x="377.5" y="-1068.5" font-family="Helvetica,sans-Serif" font-size="10.00">+ revertBuffs()</text>
</a>
</g>
</g>
<!-- Node4&#45;&gt;Node11 -->
<g id="edge19" class="edge"><title>Node4&#45;&gt;Node11</title>
<path fill="none" stroke="#404040" d="M168.837,-1216.98C209.62,-1197.38 300.986,-1153.45 358.243,-1125.92"/>
<polygon fill="none" stroke="#404040" points="358.4,-1125.85 362.074,-1119.64 369.215,-1120.65 365.54,-1126.85 358.4,-1125.85"/>
<text text-anchor="middle" x="301" y="-1173" font-family="Helvetica,sans-Serif" font-size="10.00"> #desc</text>
<text text-anchor="middle" x="301" y="-1162" font-family="Helvetica,sans-Serif" font-size="10.00">#name</text>
</g>
<!-- Node5 -->
<g id="node4" class="node"><title>Node5</title>
<polygon fill="none" stroke="#bfbfbf" points="242.5,-1072.5 242.5,-1129.5 271.5,-1129.5 271.5,-1072.5 242.5,-1072.5"/>
<text text-anchor="middle" x="257" y="-1117.5" font-family="Helvetica,sans-Serif" font-size="10.00">int</text>
<polyline fill="none" stroke="#bfbfbf" points="242.5,-1110.5 271.5,-1110.5 "/>
<text text-anchor="middle" x="257" y="-1098.5" font-family="Helvetica,sans-Serif" font-size="10.00"> </text>
<polyline fill="none" stroke="#bfbfbf" points="242.5,-1091.5 271.5,-1091.5 "/>
<text text-anchor="middle" x="257" y="-1079.5" font-family="Helvetica,sans-Serif" font-size="10.00"> </text>
</g>
<!-- Node5&#45;&gt;Node2 -->
<g id="edge20" class="edge"><title>Node5&#45;&gt;Node2</title>
<path fill="none" stroke="#404040" d="M271.694,-1094.57C293.98,-1085.9 337.009,-1067.37 368,-1043 378.155,-1035.01 377.921,-1030.19 387,-1021 392.634,-1015.3 398.632,-1009.5 404.727,-1003.8"/>
<polygon fill="none" stroke="#404040" points="404.873,-1003.66 406.572,-996.655 413.694,-995.527 411.996,-1002.54 404.873,-1003.66"/>
<text text-anchor="middle" x="424.5" y="-1035" font-family="Helvetica,sans-Serif" font-size="10.00"> &#45;expToNextLevel</text>
<text text-anchor="middle" x="424.5" y="-1024" font-family="Helvetica,sans-Serif" font-size="10.00">&#45;exp</text>
</g>
<!-- Node5&#45;&gt;Node3 -->
<g id="edge3" class="edge"><title>Node5&#45;&gt;Node3</title>
<path fill="none" stroke="#404040" d="M255.937,-1072.28C251.873,-963.172 238.304,-568.305 254,-547 270.009,-525.27 295.991,-550.73 312,-529 333.089,-500.374 313.248,-484.534 312,-449 309.999,-392.006 311.714,-377.36 303,-321 300.654,-305.83 297.498,-289.889 294.05,-274.405"/>
<polygon fill="none" stroke="#404040" points="294.042,-274.371 288.804,-269.415 291.365,-262.674 296.602,-267.63 294.042,-274.371"/>
<text text-anchor="middle" x="291.5" y="-627" font-family="Helvetica,sans-Serif" font-size="10.00"> #speed</text>
<text text-anchor="middle" x="291.5" y="-616" font-family="Helvetica,sans-Serif" font-size="10.00">#luck</text>
<text text-anchor="middle" x="291.5" y="-605" font-family="Helvetica,sans-Serif" font-size="10.00">#health</text>
<text text-anchor="middle" x="291.5" y="-594" font-family="Helvetica,sans-Serif" font-size="10.00">#magic</text>
<text text-anchor="middle" x="291.5" y="-583" font-family="Helvetica,sans-Serif" font-size="10.00">#maximumMagic</text>
<text text-anchor="middle" x="291.5" y="-572" font-family="Helvetica,sans-Serif" font-size="10.00">#attack</text>
<text text-anchor="middle" x="291.5" y="-561" font-family="Helvetica,sans-Serif" font-size="10.00">#defence</text>
<text text-anchor="middle" x="291.5" y="-550" font-family="Helvetica,sans-Serif" font-size="10.00">#level</text>
</g>
<!-- Node5&#45;&gt;Node6 -->
<g id="edge17" class="edge"><title>Node5&#45;&gt;Node6</title>
<path fill="none" stroke="#404040" d="M249.786,-1072.25C247.482,-1062.98 245.011,-1052.57 243,-1043 224.449,-954.688 218.071,-932.676 208,-843 191.057,-692.137 186.072,-512.995 184.607,-423.803"/>
<polygon fill="none" stroke="#404040" points="184.604,-423.567 180.512,-417.629 184.42,-411.569 188.511,-417.506 184.604,-423.567"/>
<text text-anchor="middle" x="225.5" y="-745.5" font-family="Helvetica,sans-Serif" font-size="10.00"> #magic</text>
</g>
<!-- Node5&#45;&gt;Node8 -->
<g id="edge13" class="edge"><title>Node5&#45;&gt;Node8</title>
<path fill="none" stroke="#404040" d="M271.575,-1084.44C287.85,-1066.25 313.885,-1034.59 329,-1003 351.096,-956.815 364.604,-901.717 372.797,-854.66"/>
<polygon fill="none" stroke="#404040" points="372.841,-854.402 369.884,-847.824 374.818,-842.566 377.775,-849.143 372.841,-854.402"/>
<text text-anchor="middle" x="385.5" y="-944" font-family="Helvetica,sans-Serif" font-size="10.00"> +money</text>
</g>
<!-- Node5&#45;&gt;Node9 -->
<g id="edge12" class="edge"><title>Node5&#45;&gt;Node9</title>
<path fill="none" stroke="#404040" d="M242.176,-1094.23C213.634,-1082.23 151.606,-1051.56 126,-1003 72.7931,-902.09 107,-604.078 107,-490 107,-490 107,-490 107,-178 107,-114.166 176.408,-70.488 224.361,-47.9291"/>
<polygon fill="none" stroke="#404040" points="224.503,-47.8645 228.317,-41.7445 235.433,-42.9112 231.62,-49.0312 224.503,-47.8645"/>
<text text-anchor="middle" x="130" y="-486.5" font-family="Helvetica,sans-Serif" font-size="10.00"> &#45;expGiven</text>
</g>
<!-- Node6&#45;&gt;Node3 -->
<g id="edge4" class="edge"><title>Node6&#45;&gt;Node3</title>
<path fill="none" stroke="#404040" d="M195.484,-321.38C199.478,-308.164 204.386,-293.79 210,-281 211.875,-276.729 213.888,-272.411 216,-268.09"/>
<polygon fill="none" stroke="#404040" points="216.009,-268.07 215.151,-260.91 221.429,-257.364 222.288,-264.524 216.009,-268.07"/>
<text text-anchor="middle" x="232.5" y="-295" font-family="Helvetica,sans-Serif" font-size="10.00"> #special1</text>
<text text-anchor="middle" x="232.5" y="-284" font-family="Helvetica,sans-Serif" font-size="10.00">#special2</text>
</g>
<!-- Node7&#45;&gt;Node6 -->
<g id="edge5" class="edge"><title>Node7&#45;&gt;Node6</title>
<path fill="none" stroke="midnightblue" d="M230.109,-440.607C224.094,-431.07 217.795,-421.083 211.853,-411.661"/>
<polygon fill="none" stroke="midnightblue" points="227.24,-442.619 235.535,-449.21 233.16,-438.884 227.24,-442.619"/>
</g>
<!-- Node8&#45;&gt;Node7 -->
<g id="edge8" class="edge"><title>Node8&#45;&gt;Node7</title>
<path fill="none" stroke="#404040" d="M360.74,-653.364C347.285,-601.485 333.205,-547.312 333,-547 327.417,-538.499 320.137,-530.719 312.338,-523.823"/>
<polygon fill="none" stroke="#404040" points="312.278,-523.774 305.104,-523.046 303.017,-516.144 310.191,-516.872 312.278,-523.774"/>
<text text-anchor="middle" x="378" y="-588.5" font-family="Helvetica,sans-Serif" font-size="10.00"> #manager</text>
</g>
<!-- Node9&#45;&gt;Node8 -->
<g id="edge10" class="edge"><title>Node9&#45;&gt;Node8</title>
<path fill="none" stroke="#404040" d="M302.725,-45.4612C346.124,-67.949 416,-114.081 416,-178 416,-490 416,-490 416,-490 416,-540.025 410.139,-595.135 403.514,-641.451"/>
<polygon fill="none" stroke="#404040" points="403.512,-641.464 406.599,-647.981 401.77,-653.337 398.684,-646.819 403.512,-641.464"/>
<text text-anchor="middle" x="434" y="-364" font-family="Helvetica,sans-Serif" font-size="10.00"> &#45;enemy</text>
</g>
<!-- Node10 -->
<g id="node9" class="node"><title>Node10</title>
<polygon fill="none" stroke="#bfbfbf" points="285.5,-918 285.5,-975 320.5,-975 320.5,-918 285.5,-918"/>
<text text-anchor="middle" x="303" y="-963" font-family="Helvetica,sans-Serif" font-size="10.00">bool</text>
<polyline fill="none" stroke="#bfbfbf" points="285.5,-956 320.5,-956 "/>
<text text-anchor="middle" x="303" y="-944" font-family="Helvetica,sans-Serif" font-size="10.00"> </text>
<polyline fill="none" stroke="#bfbfbf" points="285.5,-937 320.5,-937 "/>
<text text-anchor="middle" x="303" y="-925" font-family="Helvetica,sans-Serif" font-size="10.00"> </text>
</g>
<!-- Node10&#45;&gt;Node8 -->
<g id="edge14" class="edge"><title>Node10&#45;&gt;Node8</title>
<path fill="none" stroke="#404040" d="M295.601,-917.758C292.421,-900.908 290.703,-879.208 297,-861 302.185,-846.008 310.297,-831.497 319.544,-818.168"/>
<polygon fill="none" stroke="#404040" points="319.732,-817.909 320.038,-810.705 326.806,-808.216 326.5,-815.421 319.732,-817.909"/>
<text text-anchor="middle" x="330" y="-864" font-family="Helvetica,sans-Serif" font-size="10.00"> &#45;wasCriticalHit</text>
</g>
<!-- Node11&#45;&gt;Node2 -->
<g id="edge18" class="edge"><title>Node11&#45;&gt;Node2</title>
<path fill="none" stroke="#404040" d="M446.645,-1070.25C454.4,-1062.29 461.53,-1053.06 466,-1043 469.884,-1034.26 472.221,-1024.61 473.511,-1014.9"/>
<polygon fill="none" stroke="#404040" points="473.539,-1014.6 470.097,-1008.26 474.623,-1002.65 478.065,-1008.98 473.539,-1014.6"/>
<text text-anchor="middle" x="485.5" y="-1029.5" font-family="Helvetica,sans-Serif" font-size="10.00"> &#45;item</text>
</g>
</g>
</svg>
        <g id="navigator" transform="translate(0 0)" fill="#404254">
                <rect fill="#f2f5e9" fill-opacity="0.5" stroke="#606060" stroke-width=".5" x="0" y="0" width="60" height="60"/>
                <use id="zoomplus" xlink:href="#zoomPlus" x="17" y="9" onmousedown="handleZoom(evt,'in')"/>
                <use id="zoomminus" xlink:href="#zoomMin" x="42" y="9" onmousedown="handleZoom(evt,'out')"/>
                <use id="reset" xlink:href="#resetDef" x="30" y="36" onmousedown="handleReset()"/>
                <g id="arrowUp" xlink:href="#dirArrow" transform="translate(30 24)" onmousedown="handlePan(0,-1)">
                  <use xlink:href="#rim" fill="#404040">
                        <set attributeName="fill" to="#808080" begin="arrowUp.mouseover" end="arrowUp.mouseout"/>
                  </use>
                  <path fill="none" stroke="white" stroke-width="1.5" d="M0,-3.0v7 M-2.5,-0.5L0,-3.0L2.5,-0.5"/>
                </g>
                <g id="arrowRight" xlink:href="#dirArrow" transform="rotate(90) translate(36 -43)" onmousedown="handlePan(1,0)">
                  <use xlink:href="#rim" fill="#404040">
                        <set attributeName="fill" to="#808080" begin="arrowRight.mouseover" end="arrowRight.mouseout"/>
                  </use>
                  <path fill="none" stroke="white" stroke-width="1.5" d="M0,-3.0v7 M-2.5,-0.5L0,-3.0L2.5,-0.5"/>
                </g>
                <g id="arrowDown" xlink:href="#dirArrow" transform="rotate(180) translate(-30 -48)" onmousedown="handlePan(0,1)">
                  <use xlink:href="#rim" fill="#404040">
                        <set attributeName="fill" to="#808080" begin="arrowDown.mouseover" end="arrowDown.mouseout"/>
                  </use>
                  <path fill="none" stroke="white" stroke-width="1.5" d="M0,-3.0v7 M-2.5,-0.5L0,-3.0L2.5,-0.5"/>
                </g>
                <g id="arrowLeft" xlink:href="#dirArrow" transform="rotate(270) translate(-36 17)" onmousedown="handlePan(-1,0)">
                  <use xlink:href="#rim" fill="#404040">
                        <set attributeName="fill" to="#808080" begin="arrowLeft.mouseover" end="arrowLeft.mouseout"/>
                  </use>
                  <path fill="none" stroke="white" stroke-width="1.5" d="M0,-3.0v7 M-2.5,-0.5L0,-3.0L2.5,-0.5"/>
                </g>
        </g>
        <svg viewBox="0 0 15 15" width="100%" height="30px" preserveAspectRatio="xMaxYMin meet">
         <g id="arrow_out" transform="scale(0.3 0.3)">
          <a xlink:href="class_player__coll__graph_org.svg" target="_base">
           <rect id="button" ry="5" rx="5" y="6" x="6" height="38" width="38"
                fill="#f2f5e9" fill-opacity="0.5" stroke="#606060" stroke-width="1.0"/>
           <path id="arrow"
             d="M 11.500037,31.436501 C 11.940474,20.09759 22.043105,11.32322 32.158766,21.979434 L 37.068811,17.246167 C 37.068811,17.246167 37.088388,32 37.088388,32 L 22.160133,31.978069 C 22.160133,31.978069 26.997745,27.140456 26.997745,27.140456 C 18.528582,18.264221 13.291696,25.230495 11.500037,31.436501 z"
             style="fill:#404040;"/>
          </a>
         </g>
        </svg>
</svg>
