<?xml version="1.0" encoding="UTF-8" standalone="no"?>
<!DOCTYPE svg PUBLIC "-//W3C//DTD SVG 1.1//EN"
 "http://www.w3.org/Graphics/SVG/1.1/DTD/svg11.dtd">
<!-- Generated by graphviz version 2.38.0 (20140413.2041)
 -->
<!-- Title: CharacterMove Pages: 1 -->
<!--zoomable 1035 -->
<svg id="main" version="1.1" xmlns="http://www.w3.org/2000/svg" xmlns:xlink="http://www.w3.org/1999/xlink" xml:space="preserve" onload="init(evt)">
<style type="text/css"><![CDATA[
.edge:hover path { stroke: red; }
.edge:hover polygon { stroke: red; fill: red; }
]]></style>
<script type="text/javascript"><![CDATA[
var edges = document.getElementsByTagName('g');
if (edges && edges.length) {
  for (var i=0;i<edges.length;i++) {
    if (edges[i].id.substr(0,4)=='edge') {
      edges[i].setAttribute('class','edge');
    }
  }
}
]]></script>
        <defs>
                <circle id="rim" cx="0" cy="0" r="7"/>
                <circle id="rim2" cx="0" cy="0" r="3.5"/>
                <g id="zoomPlus">
                        <use xlink:href="#rim" fill="#404040">
                                <set attributeName="fill" to="#808080" begin="zoomplus.mouseover" end="zoomplus.mouseout"/>
                        </use>
                        <path d="M-4,0h8M0,-4v8" fill="none" stroke="white" stroke-width="1.5" pointer-events="none"/>
                </g>
                <g id="zoomMin">
                        <use xlink:href="#rim" fill="#404040">
                                <set attributeName="fill" to="#808080" begin="zoomminus.mouseover" end="zoomminus.mouseout"/>
                        </use>
                        <path d="M-4,0h8" fill="none" stroke="white" stroke-width="1.5" pointer-events="none"/>
                </g>
                <g id="dirArrow">
                        <path fill="none" stroke="white" stroke-width="1.5" d="M0,-3.0v7 M-2.5,-0.5L0,-3.0L2.5,-0.5"/>
                </g>
               <g id="resetDef">
                       <use xlink:href="#rim2" fill="#404040">
                               <set attributeName="fill" to="#808080" begin="reset.mouseover" end="reset.mouseout"/>
                       </use>
               </g>
        </defs>

<script type="text/javascript">
var viewWidth = 795;
var viewHeight = 1035;
var sectionId = 'dynsection-1';
</script>
<script xlink:href="svgpan.js"/>
<svg id="graph" class="graph">
<g id="viewport">
<title>CharacterMove</title>
<!-- Node11 -->
<g id="node1" class="node"><title>Node11</title>
<polygon fill="#bfbfbf" stroke="black" points="140,-831.5 140,-910.5 226,-910.5 226,-831.5 140,-831.5"/>
<text text-anchor="middle" x="183" y="-898.5" font-family="Helvetica,sans-Serif" font-size="10.00">CharacterMove</text>
<polyline fill="none" stroke="black" points="140,-891.5 226,-891.5 "/>
<text text-anchor="start" x="148" y="-879.5" font-family="Helvetica,sans-Serif" font-size="10.00">+ User</text>
<text text-anchor="start" x="148" y="-868.5" font-family="Helvetica,sans-Serif" font-size="10.00">+ Target</text>
<text text-anchor="start" x="148" y="-857.5" font-family="Helvetica,sans-Serif" font-size="10.00">+ Text</text>
<polyline fill="none" stroke="black" points="140,-850.5 226,-850.5 "/>
<text text-anchor="start" x="148" y="-838.5" font-family="Helvetica,sans-Serif" font-size="10.00">+ performMove()</text>
</g>
<!-- Node15 -->
<g id="node5" class="node"><title>Node15</title>
<g id="a_node5"><a xlink:href="class_special_move.html" target="_top" xlink:title="Special move abstract base class that expands upon CharacterMove, adding magic properties ...">
<polygon fill="none" stroke="black" points="315,-624.5 315,-714.5 413,-714.5 413,-624.5 315,-624.5"/>
<text text-anchor="middle" x="364" y="-702.5" font-family="Helvetica,sans-Serif" font-size="10.00">SpecialMove</text>
<polyline fill="none" stroke="black" points="315,-695.5 413,-695.5 "/>
<text text-anchor="start" x="323" y="-683.5" font-family="Helvetica,sans-Serif" font-size="10.00">+ Magic</text>
<text text-anchor="start" x="323" y="-672.5" font-family="Helvetica,sans-Serif" font-size="10.00">+ Desc</text>
<polyline fill="none" stroke="black" points="315,-665.5 413,-665.5 "/>
<text text-anchor="start" x="323" y="-653.5" font-family="Helvetica,sans-Serif" font-size="10.00">+ setUp()</text>
<text text-anchor="start" x="323" y="-642.5" font-family="Helvetica,sans-Serif" font-size="10.00">+ decreaseMagic()</text>
<text text-anchor="start" x="323" y="-631.5" font-family="Helvetica,sans-Serif" font-size="10.00"># SpecialMove()</text>
</a>
</g>
</g>
<!-- Node11&#45;&gt;Node15 -->
<g id="edge6" class="edge"><title>Node11&#45;&gt;Node15</title>
<path fill="none" stroke="midnightblue" d="M216.32,-823.198C236.667,-795.822 263.909,-761.211 291,-733 298.396,-725.298 306.656,-717.541 314.887,-710.238"/>
<polygon fill="none" stroke="midnightblue" points="213.355,-821.322 210.235,-831.447 218.988,-825.477 213.355,-821.322"/>
</g>
<!-- Node12 -->
<g id="node2" class="node"><title>Node12</title>
<polygon fill="none" stroke="#bfbfbf" points="162.5,-969.5 162.5,-1026.5 203.5,-1026.5 203.5,-969.5 162.5,-969.5"/>
<text text-anchor="middle" x="183" y="-1014.5" font-family="Helvetica,sans-Serif" font-size="10.00">string</text>
<polyline fill="none" stroke="#bfbfbf" points="162.5,-1007.5 203.5,-1007.5 "/>
<text text-anchor="middle" x="183" y="-995.5" font-family="Helvetica,sans-Serif" font-size="10.00"> </text>
<polyline fill="none" stroke="#bfbfbf" points="162.5,-988.5 203.5,-988.5 "/>
<text text-anchor="middle" x="183" y="-976.5" font-family="Helvetica,sans-Serif" font-size="10.00"> </text>
</g>
<!-- Node12&#45;&gt;Node11 -->
<g id="edge1" class="edge"><title>Node12&#45;&gt;Node11</title>
<path fill="none" stroke="#404040" d="M183,-969.258C183,-955.637 183,-938.787 183,-922.96"/>
<polygon fill="none" stroke="#404040" points="183,-922.567 179,-916.567 183,-910.567 187,-916.567 183,-922.567"/>
<text text-anchor="middle" x="195.5" y="-937.5" font-family="Helvetica,sans-Serif" font-size="10.00"> #text</text>
</g>
<!-- Node13 -->
<g id="node3" class="node"><title>Node13</title>
<g id="a_node3"><a xlink:href="class_character.html" target="_top" xlink:title="Base abstract class for Enemy and Player to inherit from. Defines all shared variables, their constructor and their setters and getters ">
<polygon fill="none" stroke="black" points="316.5,-387.5 316.5,-565.5 411.5,-565.5 411.5,-387.5 316.5,-387.5"/>
<text text-anchor="middle" x="364" y="-553.5" font-family="Helvetica,sans-Serif" font-size="10.00">Character</text>
<polyline fill="none" stroke="black" points="316.5,-546.5 411.5,-546.5 "/>
<text text-anchor="start" x="324.5" y="-534.5" font-family="Helvetica,sans-Serif" font-size="10.00">+ Name</text>
<text text-anchor="start" x="324.5" y="-523.5" font-family="Helvetica,sans-Serif" font-size="10.00">+ Level</text>
<text text-anchor="start" x="324.5" y="-512.5" font-family="Helvetica,sans-Serif" font-size="10.00">+ Health</text>
<text text-anchor="start" x="324.5" y="-501.5" font-family="Helvetica,sans-Serif" font-size="10.00">+ Attack</text>
<text text-anchor="start" x="324.5" y="-490.5" font-family="Helvetica,sans-Serif" font-size="10.00">+ Defence</text>
<text text-anchor="start" x="324.5" y="-479.5" font-family="Helvetica,sans-Serif" font-size="10.00">+ MaximumMagic</text>
<text text-anchor="start" x="324.5" y="-468.5" font-family="Helvetica,sans-Serif" font-size="10.00">+ Magic</text>
<text text-anchor="start" x="324.5" y="-457.5" font-family="Helvetica,sans-Serif" font-size="10.00">+ Luck</text>
<text text-anchor="start" x="324.5" y="-446.5" font-family="Helvetica,sans-Serif" font-size="10.00">+ Speed</text>
<text text-anchor="start" x="324.5" y="-435.5" font-family="Helvetica,sans-Serif" font-size="10.00">+ Special1</text>
<text text-anchor="start" x="324.5" y="-424.5" font-family="Helvetica,sans-Serif" font-size="10.00">+ Special2</text>
<text text-anchor="start" x="324.5" y="-413.5" font-family="Helvetica,sans-Serif" font-size="10.00">+ Image</text>
<polyline fill="none" stroke="black" points="316.5,-406.5 411.5,-406.5 "/>
<text text-anchor="start" x="324.5" y="-394.5" font-family="Helvetica,sans-Serif" font-size="10.00"># Character()</text>
</a>
</g>
</g>
<!-- Node12&#45;&gt;Node13 -->
<g id="edge3" class="edge"><title>Node12&#45;&gt;Node13</title>
<path fill="none" stroke="#404040" d="M163.402,-969.43C131.86,-921.595 75.7136,-819.999 100,-733 121.444,-656.183 140.1,-636.656 200,-584 232.301,-555.606 272.792,-529.234 305.459,-509.837"/>
<polygon fill="none" stroke="#404040" points="305.862,-509.601 309.015,-503.116 316.214,-503.533 313.061,-510.018 305.862,-509.601"/>
<text text-anchor="middle" x="116.5" y="-770.5" font-family="Helvetica,sans-Serif" font-size="10.00"> #name</text>
</g>
<!-- Node12&#45;&gt;Node15 -->
<g id="edge7" class="edge"><title>Node12&#45;&gt;Node15</title>
<path fill="none" stroke="#404040" d="M200.666,-969.383C204.451,-963.352 208.395,-956.984 212,-951 222.582,-933.434 225.041,-928.927 235,-911 270.189,-847.657 309.372,-774.166 335.219,-725.257"/>
<polygon fill="none" stroke="#404040" points="335.245,-725.209 334.509,-718.035 340.847,-714.597 341.583,-721.77 335.245,-725.209"/>
<text text-anchor="middle" x="293" y="-868.5" font-family="Helvetica,sans-Serif" font-size="10.00"> #desc</text>
</g>
<!-- Node17 -->
<g id="node7" class="node"><title>Node17</title>
<g id="a_node7"><a xlink:href="class_battle_manager.html" target="_top" xlink:title="Holds current Player and Enemy objects in battle and provides functions for MainBattle and other obje...">
<polygon fill="none" stroke="black" points="472,-0.5 472,-189.5 588,-189.5 588,-0.5 472,-0.5"/>
<text text-anchor="middle" x="530" y="-177.5" font-family="Helvetica,sans-Serif" font-size="10.00">BattleManager</text>
<polyline fill="none" stroke="black" points="472,-170.5 588,-170.5 "/>
<text text-anchor="start" x="480" y="-158.5" font-family="Helvetica,sans-Serif" font-size="10.00">+ Player</text>
<text text-anchor="start" x="480" y="-147.5" font-family="Helvetica,sans-Serif" font-size="10.00">+ Enemy</text>
<text text-anchor="start" x="480" y="-136.5" font-family="Helvetica,sans-Serif" font-size="10.00">+ WasCriticalHit</text>
<polyline fill="none" stroke="black" points="472,-129.5 588,-129.5 "/>
<text text-anchor="start" x="480" y="-117.5" font-family="Helvetica,sans-Serif" font-size="10.00">+ BattleManager()</text>
<text text-anchor="start" x="480" y="-106.5" font-family="Helvetica,sans-Serif" font-size="10.00">+ playerFirst()</text>
<text text-anchor="start" x="480" y="-95.5" font-family="Helvetica,sans-Serif" font-size="10.00">+ switchPlayers()</text>
<text text-anchor="start" x="480" y="-84.5" font-family="Helvetica,sans-Serif" font-size="10.00">+ isCriticalHit()</text>
<text text-anchor="start" x="480" y="-73.5" font-family="Helvetica,sans-Serif" font-size="10.00">+ ranAway()</text>
<text text-anchor="start" x="480" y="-62.5" font-family="Helvetica,sans-Serif" font-size="10.00">+ damageCalculation()</text>
<text text-anchor="start" x="480" y="-51.5" font-family="Helvetica,sans-Serif" font-size="10.00">+ enemyMove()</text>
<text text-anchor="start" x="480" y="-40.5" font-family="Helvetica,sans-Serif" font-size="10.00">+ enemySpecialMove()</text>
<text text-anchor="start" x="480" y="-29.5" font-family="Helvetica,sans-Serif" font-size="10.00">+ battleWon()</text>
<text text-anchor="start" x="480" y="-18.5" font-family="Helvetica,sans-Serif" font-size="10.00">+ playerFainted()</text>
<text text-anchor="start" x="480" y="-7.5" font-family="Helvetica,sans-Serif" font-size="10.00">&#45; characterFainted()</text>
</a>
</g>
</g>
<!-- Node12&#45;&gt;Node17 -->
<g id="edge11" class="edge"><title>Node12&#45;&gt;Node17</title>
<path fill="none" stroke="#404040" d="M162.363,-993.112C114.504,-982.778 0,-949.912 0,-872 0,-872 0,-872 0,-292.5 0,-195.595 315.43,-131.26 459.607,-106.915"/>
<polygon fill="none" stroke="#404040" points="459.928,-106.861 465.189,-101.929 471.765,-104.888 466.504,-109.82 459.928,-106.861"/>
<text text-anchor="middle" x="42" y="-598" font-family="Helvetica,sans-Serif" font-size="10.00"> +forceEnemyMove</text>
<text text-anchor="middle" x="42" y="-587" font-family="Helvetica,sans-Serif" font-size="10.00">+forceCriticalHits</text>
</g>
<!-- Node21 -->
<g id="node11" class="node"><title>Node21</title>
<g id="a_node11"><a xlink:href="class_item.html" target="_top" xlink:title="Abstract class for items that can be equipped to a player, increasing some of their stats ...">
<polygon fill="none" stroke="black" points="700.5,-733.5 700.5,-812.5 777.5,-812.5 777.5,-733.5 700.5,-733.5"/>
<text text-anchor="middle" x="739" y="-800.5" font-family="Helvetica,sans-Serif" font-size="10.00">Item</text>
<polyline fill="none" stroke="black" points="700.5,-793.5 777.5,-793.5 "/>
<text text-anchor="start" x="708.5" y="-781.5" font-family="Helvetica,sans-Serif" font-size="10.00">+ Name</text>
<text text-anchor="start" x="708.5" y="-770.5" font-family="Helvetica,sans-Serif" font-size="10.00">+ Desc</text>
<polyline fill="none" stroke="black" points="700.5,-763.5 777.5,-763.5 "/>
<text text-anchor="start" x="708.5" y="-751.5" font-family="Helvetica,sans-Serif" font-size="10.00">+ applyBuffs()</text>
<text text-anchor="start" x="708.5" y="-740.5" font-family="Helvetica,sans-Serif" font-size="10.00">+ revertBuffs()</text>
</a>
</g>
</g>
<!-- Node12&#45;&gt;Node21 -->
<g id="edge20" class="edge"><title>Node12&#45;&gt;Node21</title>
<path fill="none" stroke="#404040" d="M203.675,-995.863C263.927,-991.858 443.407,-974.964 575,-911 620.553,-888.858 664.162,-851.369 694.945,-821.199"/>
<polygon fill="none" stroke="#404040" points="695.174,-820.971 696.602,-813.902 703.675,-812.501 702.248,-819.569 695.174,-820.971"/>
<text text-anchor="middle" x="548" y="-943" font-family="Helvetica,sans-Serif" font-size="10.00"> #desc</text>
<text text-anchor="middle" x="548" y="-932" font-family="Helvetica,sans-Serif" font-size="10.00">#name</text>
</g>
<!-- Node13&#45;&gt;Node11 -->
<g id="edge2" class="edge"><title>Node13&#45;&gt;Node11</title>
<path fill="none" stroke="#404040" d="M316.38,-502.845C275.221,-527.66 218.325,-569.632 192,-624 161.975,-686.009 166.196,-767.472 173.438,-819.298"/>
<polygon fill="none" stroke="#404040" points="173.487,-819.62 178.336,-824.957 175.274,-831.486 170.425,-826.148 173.487,-819.62"/>
<text text-anchor="middle" x="209" y="-672.5" font-family="Helvetica,sans-Serif" font-size="10.00"> #target</text>
<text text-anchor="middle" x="209" y="-661.5" font-family="Helvetica,sans-Serif" font-size="10.00">#user</text>
</g>
<!-- Node18 -->
<g id="node8" class="node"><title>Node18</title>
<g id="a_node8"><a xlink:href="class_enemy.html" target="_top" xlink:title="Defines an AI controller enemy to fight in battle scenes">
<polygon fill="none" stroke="black" points="448.5,-265 448.5,-322 515.5,-322 515.5,-265 448.5,-265"/>
<text text-anchor="middle" x="482" y="-310" font-family="Helvetica,sans-Serif" font-size="10.00">Enemy</text>
<polyline fill="none" stroke="black" points="448.5,-303 515.5,-303 "/>
<text text-anchor="start" x="456.5" y="-291" font-family="Helvetica,sans-Serif" font-size="10.00">+ ExpGiven</text>
<polyline fill="none" stroke="black" points="448.5,-284 515.5,-284 "/>
<text text-anchor="start" x="456.5" y="-272" font-family="Helvetica,sans-Serif" font-size="10.00">+ Enemy()</text>
</a>
</g>
</g>
<!-- Node13&#45;&gt;Node18 -->
<g id="edge13" class="edge"><title>Node13&#45;&gt;Node18</title>
<path fill="none" stroke="midnightblue" d="M417.001,-386.564C421.003,-380.245 425.03,-374.003 429,-368 439.24,-352.516 451.3,-335.69 461.328,-322.049"/>
<polygon fill="none" stroke="midnightblue" points="413.923,-384.885 411.565,-395.214 419.849,-388.609 413.923,-384.885"/>
</g>
<!-- Node20 -->
<g id="node10" class="node"><title>Node20</title>
<g id="a_node10"><a xlink:href="class_player.html" target="_top" xlink:title="Defines a playable character for use in battle scenes">
<polygon fill="none" stroke="black" points="534,-237.5 534,-349.5 646,-349.5 646,-237.5 534,-237.5"/>
<text text-anchor="middle" x="590" y="-337.5" font-family="Helvetica,sans-Serif" font-size="10.00">Player</text>
<polyline fill="none" stroke="black" points="534,-330.5 646,-330.5 "/>
<text text-anchor="start" x="542" y="-318.5" font-family="Helvetica,sans-Serif" font-size="10.00">+ Exp</text>
<text text-anchor="start" x="542" y="-307.5" font-family="Helvetica,sans-Serif" font-size="10.00">+ Item</text>
<text text-anchor="start" x="542" y="-296.5" font-family="Helvetica,sans-Serif" font-size="10.00">+ ExpToNextLevel</text>
<polyline fill="none" stroke="black" points="534,-289.5 646,-289.5 "/>
<text text-anchor="start" x="542" y="-277.5" font-family="Helvetica,sans-Serif" font-size="10.00">+ Player()</text>
<text text-anchor="start" x="542" y="-266.5" font-family="Helvetica,sans-Serif" font-size="10.00">+ gainExp()</text>
<text text-anchor="start" x="542" y="-255.5" font-family="Helvetica,sans-Serif" font-size="10.00">+ levelUp()</text>
<text text-anchor="start" x="542" y="-244.5" font-family="Helvetica,sans-Serif" font-size="10.00">&#45; setExpToNextLevel()</text>
</a>
</g>
</g>
<!-- Node13&#45;&gt;Node20 -->
<g id="edge18" class="edge"><title>Node13&#45;&gt;Node20</title>
<path fill="none" stroke="midnightblue" d="M419.679,-432.575C450.608,-408.544 489.664,-377.89 524,-350 527.254,-347.357 530.585,-344.628 533.939,-341.864"/>
<polygon fill="none" stroke="midnightblue" points="417.345,-429.956 411.592,-438.852 421.637,-435.486 417.345,-429.956"/>
</g>
<!-- Node14 -->
<g id="node4" class="node"><title>Node14</title>
<polygon fill="none" stroke="#bfbfbf" points="537.5,-842.5 537.5,-899.5 566.5,-899.5 566.5,-842.5 537.5,-842.5"/>
<text text-anchor="middle" x="552" y="-887.5" font-family="Helvetica,sans-Serif" font-size="10.00">int</text>
<polyline fill="none" stroke="#bfbfbf" points="537.5,-880.5 566.5,-880.5 "/>
<text text-anchor="middle" x="552" y="-868.5" font-family="Helvetica,sans-Serif" font-size="10.00"> </text>
<polyline fill="none" stroke="#bfbfbf" points="537.5,-861.5 566.5,-861.5 "/>
<text text-anchor="middle" x="552" y="-849.5" font-family="Helvetica,sans-Serif" font-size="10.00"> </text>
</g>
<!-- Node14&#45;&gt;Node13 -->
<g id="edge4" class="edge"><title>Node14&#45;&gt;Node13</title>
<path fill="none" stroke="#404040" d="M537.417,-847.238C518.752,-817.547 486.074,-763.642 463,-715 436.291,-658.695 437.148,-641.45 413,-584 412.014,-581.655 411.008,-579.284 409.985,-576.897"/>
<polygon fill="none" stroke="#404040" points="409.874,-576.642 403.817,-572.73 405.098,-565.633 411.156,-569.545 409.874,-576.642"/>
<text text-anchor="middle" x="500.5" y="-705.5" font-family="Helvetica,sans-Serif" font-size="10.00"> #speed</text>
<text text-anchor="middle" x="500.5" y="-694.5" font-family="Helvetica,sans-Serif" font-size="10.00">#luck</text>
<text text-anchor="middle" x="500.5" y="-683.5" font-family="Helvetica,sans-Serif" font-size="10.00">#health</text>
<text text-anchor="middle" x="500.5" y="-672.5" font-family="Helvetica,sans-Serif" font-size="10.00">#magic</text>
<text text-anchor="middle" x="500.5" y="-661.5" font-family="Helvetica,sans-Serif" font-size="10.00">#maximumMagic</text>
<text text-anchor="middle" x="500.5" y="-650.5" font-family="Helvetica,sans-Serif" font-size="10.00">#attack</text>
<text text-anchor="middle" x="500.5" y="-639.5" font-family="Helvetica,sans-Serif" font-size="10.00">#defence</text>
<text text-anchor="middle" x="500.5" y="-628.5" font-family="Helvetica,sans-Serif" font-size="10.00">#level</text>
</g>
<!-- Node14&#45;&gt;Node15 -->
<g id="edge8" class="edge"><title>Node14&#45;&gt;Node15</title>
<path fill="none" stroke="#404040" d="M537.399,-868.907C507.073,-865.829 437.015,-854.383 400,-813 379.012,-789.535 369.892,-755.591 366.076,-726.717"/>
<polygon fill="none" stroke="#404040" points="366.066,-726.625 361.43,-721.102 364.746,-714.698 369.382,-720.222 366.066,-726.625"/>
<text text-anchor="middle" x="417.5" y="-770.5" font-family="Helvetica,sans-Serif" font-size="10.00"> #magic</text>
</g>
<!-- Node14&#45;&gt;Node17 -->
<g id="edge15" class="edge"><title>Node14&#45;&gt;Node17</title>
<path fill="none" stroke="#404040" d="M564.586,-842.337C566.606,-838.46 568.77,-834.58 571,-831 576.359,-822.398 579.99,-821.81 585,-813 633.832,-727.12 647.682,-703.08 666,-606 696.422,-444.772 715.63,-389.459 655,-237 642.458,-205.463 619.553,-176.33 596.743,-152.833"/>
<polygon fill="none" stroke="#404040" points="596.509,-152.599 589.439,-151.181 588.027,-144.11 595.098,-145.527 596.509,-152.599"/>
<text text-anchor="middle" x="713.5" y="-474" font-family="Helvetica,sans-Serif" font-size="10.00"> +money</text>
</g>
<!-- Node14&#45;&gt;Node18 -->
<g id="edge14" class="edge"><title>Node14&#45;&gt;Node18</title>
<path fill="none" stroke="#404040" d="M551.428,-842.246C550.262,-796.593 546.916,-702.85 538,-624 526.076,-518.544 502.605,-395.584 490.174,-333.961"/>
<polygon fill="none" stroke="#404040" points="490.158,-333.884 485.044,-328.8 487.769,-322.124 492.884,-327.207 490.158,-333.884"/>
<text text-anchor="middle" x="559" y="-592.5" font-family="Helvetica,sans-Serif" font-size="10.00"> &#45;expGiven</text>
</g>
<!-- Node14&#45;&gt;Node20 -->
<g id="edge21" class="edge"><title>Node14&#45;&gt;Node20</title>
<path fill="none" stroke="#404040" d="M559.93,-842.381C562.282,-833.118 564.601,-822.682 566,-813 589.211,-652.42 591.644,-461.238 591.045,-361.932"/>
<polygon fill="none" stroke="#404040" points="591.044,-361.704 586.998,-355.734 590.953,-349.704 594.998,-355.674 591.044,-361.704"/>
<text text-anchor="middle" x="624.5" y="-598" font-family="Helvetica,sans-Serif" font-size="10.00"> &#45;expToNextLevel</text>
<text text-anchor="middle" x="624.5" y="-587" font-family="Helvetica,sans-Serif" font-size="10.00">&#45;exp</text>
</g>
<!-- Node15&#45;&gt;Node13 -->
<g id="edge5" class="edge"><title>Node15&#45;&gt;Node13</title>
<path fill="none" stroke="#404040" d="M364,-624.201C364,-610.238 364,-594.202 364,-577.973"/>
<polygon fill="none" stroke="#404040" points="364,-577.557 360,-571.557 364,-565.557 368,-571.557 364,-577.557"/>
<text text-anchor="middle" x="386.5" y="-598" font-family="Helvetica,sans-Serif" font-size="10.00"> #special1</text>
<text text-anchor="middle" x="386.5" y="-587" font-family="Helvetica,sans-Serif" font-size="10.00">#special2</text>
</g>
<!-- Node16 -->
<g id="node6" class="node"><title>Node16</title>
<polygon fill="none" stroke="#bfbfbf" points="235.5,-641 235.5,-698 296.5,-698 296.5,-641 235.5,-641"/>
<text text-anchor="middle" x="266" y="-686" font-family="Helvetica,sans-Serif" font-size="10.00">Texture2D</text>
<polyline fill="none" stroke="#bfbfbf" points="235.5,-679 296.5,-679 "/>
<text text-anchor="middle" x="266" y="-667" font-family="Helvetica,sans-Serif" font-size="10.00"> </text>
<polyline fill="none" stroke="#bfbfbf" points="235.5,-660 296.5,-660 "/>
<text text-anchor="middle" x="266" y="-648" font-family="Helvetica,sans-Serif" font-size="10.00"> </text>
</g>
<!-- Node16&#45;&gt;Node13 -->
<g id="edge9" class="edge"><title>Node16&#45;&gt;Node13</title>
<path fill="none" stroke="#404040" d="M280.25,-640.727C289.089,-623.5 301.036,-600.216 313.134,-576.636"/>
<polygon fill="none" stroke="#404040" points="313.215,-576.478 312.395,-569.314 318.693,-565.802 319.513,-572.966 313.215,-576.478"/>
<text text-anchor="middle" x="327.5" y="-592.5" font-family="Helvetica,sans-Serif" font-size="10.00"> #image</text>
</g>
<!-- Node17&#45;&gt;Node11 -->
<g id="edge10" class="edge"><title>Node17&#45;&gt;Node11</title>
<path fill="none" stroke="#404040" d="M471.588,-98.9886C362.111,-108.067 137,-144.703 137,-292.5 137,-596 137,-596 137,-596 137,-693.244 144.054,-718.039 165,-813 165.474,-815.149 165.993,-817.333 166.546,-819.531"/>
<polygon fill="none" stroke="#404040" points="166.602,-819.735 172.044,-824.466 169.771,-831.309 164.328,-826.578 166.602,-819.735"/>
<text text-anchor="middle" x="160" y="-474" font-family="Helvetica,sans-Serif" font-size="10.00"> #manager</text>
</g>
<!-- Node18&#45;&gt;Node17 -->
<g id="edge12" class="edge"><title>Node18&#45;&gt;Node17</title>
<path fill="none" stroke="#404040" d="M488.775,-264.763C492.909,-247.839 498.485,-225.016 504.197,-201.632"/>
<polygon fill="none" stroke="#404040" points="504.25,-201.414 501.788,-194.637 507.097,-189.757 509.559,-196.535 504.25,-201.414"/>
<text text-anchor="middle" x="520" y="-211" font-family="Helvetica,sans-Serif" font-size="10.00"> &#45;enemy</text>
</g>
<!-- Node19 -->
<g id="node9" class="node"><title>Node19</title>
<polygon fill="none" stroke="#bfbfbf" points="705.5,-265 705.5,-322 740.5,-322 740.5,-265 705.5,-265"/>
<text text-anchor="middle" x="723" y="-310" font-family="Helvetica,sans-Serif" font-size="10.00">bool</text>
<polyline fill="none" stroke="#bfbfbf" points="705.5,-303 740.5,-303 "/>
<text text-anchor="middle" x="723" y="-291" font-family="Helvetica,sans-Serif" font-size="10.00"> </text>
<polyline fill="none" stroke="#bfbfbf" points="705.5,-284 740.5,-284 "/>
<text text-anchor="middle" x="723" y="-272" font-family="Helvetica,sans-Serif" font-size="10.00"> </text>
</g>
<!-- Node19&#45;&gt;Node17 -->
<g id="edge16" class="edge"><title>Node19&#45;&gt;Node17</title>
<path fill="none" stroke="#404040" d="M717.041,-264.903C712.213,-247.283 704.026,-224.697 691,-208 666.35,-176.403 630.336,-150.186 598.616,-131.081"/>
<polygon fill="none" stroke="#404040" points="598.396,-130.951 591.196,-131.364 588.047,-124.877 595.246,-124.464 598.396,-130.951"/>
<text text-anchor="middle" x="730" y="-211" font-family="Helvetica,sans-Serif" font-size="10.00"> &#45;wasCriticalHit</text>
</g>
<!-- Node20&#45;&gt;Node17 -->
<g id="edge17" class="edge"><title>Node20&#45;&gt;Node17</title>
<path fill="none" stroke="#404040" d="M573.127,-237.241C569.651,-225.856 565.881,-213.511 562.067,-201.02"/>
<polygon fill="none" stroke="#404040" points="562.063,-201.007 556.485,-196.437 558.559,-189.53 564.137,-194.101 562.063,-201.007"/>
<text text-anchor="middle" x="584.5" y="-211" font-family="Helvetica,sans-Serif" font-size="10.00"> &#45;player</text>
</g>
<!-- Node21&#45;&gt;Node20 -->
<g id="edge19" class="edge"><title>Node21&#45;&gt;Node20</title>
<path fill="none" stroke="#404040" d="M747.545,-733.262C761.483,-660.334 781.776,-499.855 720,-387 705.865,-361.178 681.063,-340.854 656.885,-325.914"/>
<polygon fill="none" stroke="#404040" points="656.568,-325.727 649.368,-326.127 646.229,-319.634 653.43,-319.234 656.568,-325.727"/>
<text text-anchor="middle" x="774.5" y="-592.5" font-family="Helvetica,sans-Serif" font-size="10.00"> &#45;item</text>
</g>
</g>
</svg>
        <g id="navigator" transform="translate(0 0)" fill="#404254">
                <rect fill="#f2f5e9" fill-opacity="0.5" stroke="#606060" stroke-width=".5" x="0" y="0" width="60" height="60"/>
                <use id="zoomplus" xlink:href="#zoomPlus" x="17" y="9" onmousedown="handleZoom(evt,'in')"/>
                <use id="zoomminus" xlink:href="#zoomMin" x="42" y="9" onmousedown="handleZoom(evt,'out')"/>
                <use id="reset" xlink:href="#resetDef" x="30" y="36" onmousedown="handleReset()"/>
                <g id="arrowUp" xlink:href="#dirArrow" transform="translate(30 24)" onmousedown="handlePan(0,-1)">
                  <use xlink:href="#rim" fill="#404040">
                        <set attributeName="fill" to="#808080" begin="arrowUp.mouseover" end="arrowUp.mouseout"/>
                  </use>
                  <path fill="none" stroke="white" stroke-width="1.5" d="M0,-3.0v7 M-2.5,-0.5L0,-3.0L2.5,-0.5"/>
                </g>
                <g id="arrowRight" xlink:href="#dirArrow" transform="rotate(90) translate(36 -43)" onmousedown="handlePan(1,0)">
                  <use xlink:href="#rim" fill="#404040">
                        <set attributeName="fill" to="#808080" begin="arrowRight.mouseover" end="arrowRight.mouseout"/>
                  </use>
                  <path fill="none" stroke="white" stroke-width="1.5" d="M0,-3.0v7 M-2.5,-0.5L0,-3.0L2.5,-0.5"/>
                </g>
                <g id="arrowDown" xlink:href="#dirArrow" transform="rotate(180) translate(-30 -48)" onmousedown="handlePan(0,1)">
                  <use xlink:href="#rim" fill="#404040">
                        <set attributeName="fill" to="#808080" begin="arrowDown.mouseover" end="arrowDown.mouseout"/>
                  </use>
                  <path fill="none" stroke="white" stroke-width="1.5" d="M0,-3.0v7 M-2.5,-0.5L0,-3.0L2.5,-0.5"/>
                </g>
                <g id="arrowLeft" xlink:href="#dirArrow" transform="rotate(270) translate(-36 17)" onmousedown="handlePan(-1,0)">
                  <use xlink:href="#rim" fill="#404040">
                        <set attributeName="fill" to="#808080" begin="arrowLeft.mouseover" end="arrowLeft.mouseout"/>
                  </use>
                  <path fill="none" stroke="white" stroke-width="1.5" d="M0,-3.0v7 M-2.5,-0.5L0,-3.0L2.5,-0.5"/>
                </g>
        </g>
        <svg viewBox="0 0 15 15" width="100%" height="30px" preserveAspectRatio="xMaxYMin meet">
         <g id="arrow_out" transform="scale(0.3 0.3)">
          <a xlink:href="class_character_move__coll__graph_org.svg" target="_base">
           <rect id="button" ry="5" rx="5" y="6" x="6" height="38" width="38"
                fill="#f2f5e9" fill-opacity="0.5" stroke="#606060" stroke-width="1.0"/>
           <path id="arrow"
             d="M 11.500037,31.436501 C 11.940474,20.09759 22.043105,11.32322 32.158766,21.979434 L 37.068811,17.246167 C 37.068811,17.246167 37.088388,32 37.088388,32 L 22.160133,31.978069 C 22.160133,31.978069 26.997745,27.140456 26.997745,27.140456 C 18.528582,18.264221 13.291696,25.230495 11.500037,31.436501 z"
             style="fill:#404040;"/>
          </a>
         </g>
        </svg>
</svg>
