<?xml version="1.0" encoding="UTF-8" standalone="no"?>
<!DOCTYPE svg PUBLIC "-//W3C//DTD SVG 1.1//EN"
 "http://www.w3.org/Graphics/SVG/1.1/DTD/svg11.dtd">
<!-- Generated by graphviz version 2.38.0 (20140413.2041)
 -->
<!-- Title: AttackButton Pages: 1 -->
<svg width="272pt" height="193pt"
 viewBox="0.00 0.00 271.50 193.00" xmlns="http://www.w3.org/2000/svg" xmlns:xlink="http://www.w3.org/1999/xlink">
<g id="graph0" class="graph" transform="scale(1 1) rotate(0) translate(4 189)">
<title>AttackButton</title>
<!-- Node2 -->
<g id="node1" class="node"><title>Node2</title>
<polygon fill="#bfbfbf" stroke="black" points="88.5,-0.5 88.5,-79.5 184.5,-79.5 184.5,-0.5 88.5,-0.5"/>
<text text-anchor="middle" x="136.5" y="-67.5" font-family="Helvetica,sans-Serif" font-size="10.00">AttackButton</text>
<polyline fill="none" stroke="black" points="88.5,-60.5 184.5,-60.5 "/>
<text text-anchor="middle" x="136.5" y="-48.5" font-family="Helvetica,sans-Serif" font-size="10.00"> </text>
<polyline fill="none" stroke="black" points="88.5,-41.5 184.5,-41.5 "/>
<text text-anchor="start" x="96.5" y="-29.5" font-family="Helvetica,sans-Serif" font-size="10.00">+ setPanelActive()</text>
<text text-anchor="start" x="96.5" y="-18.5" font-family="Helvetica,sans-Serif" font-size="10.00">&#45; Start()</text>
<text text-anchor="start" x="96.5" y="-7.5" font-family="Helvetica,sans-Serif" font-size="10.00">&#45; Update()</text>
</g>
<!-- Node3 -->
<g id="node2" class="node"><title>Node3</title>
<g id="a_node2"><a xlink:href="class_mono_behaviour.html" target="_top" xlink:title="{MonoBehaviour\n||}">
<polygon fill="none" stroke="black" points="0,-127.5 0,-184.5 83,-184.5 83,-127.5 0,-127.5"/>
<text text-anchor="middle" x="41.5" y="-172.5" font-family="Helvetica,sans-Serif" font-size="10.00">MonoBehaviour</text>
<polyline fill="none" stroke="black" points="0,-165.5 83,-165.5 "/>
<text text-anchor="middle" x="41.5" y="-153.5" font-family="Helvetica,sans-Serif" font-size="10.00"> </text>
<polyline fill="none" stroke="black" points="0,-146.5 83,-146.5 "/>
<text text-anchor="middle" x="41.5" y="-134.5" font-family="Helvetica,sans-Serif" font-size="10.00"> </text>
</a>
</g>
</g>
<!-- Node3&#45;&gt;Node2 -->
<g id="edge1" class="edge"><title>Node3&#45;&gt;Node2</title>
<path fill="none" stroke="midnightblue" d="M70.8994,-119.721C81.5143,-106.983 93.5472,-92.5434 104.383,-79.5406"/>
<polygon fill="none" stroke="midnightblue" points="68.2099,-117.481 64.4969,-127.404 73.5875,-121.962 68.2099,-117.481"/>
</g>
<!-- Node4 -->
<g id="node3" class="node"><title>Node4</title>
<polygon fill="none" stroke="#bfbfbf" points="101,-127.5 101,-184.5 172,-184.5 172,-127.5 101,-127.5"/>
<text text-anchor="middle" x="136.5" y="-172.5" font-family="Helvetica,sans-Serif" font-size="10.00">GameObject</text>
<polyline fill="none" stroke="#bfbfbf" points="101,-165.5 172,-165.5 "/>
<text text-anchor="middle" x="136.5" y="-153.5" font-family="Helvetica,sans-Serif" font-size="10.00"> </text>
<polyline fill="none" stroke="#bfbfbf" points="101,-146.5 172,-146.5 "/>
<text text-anchor="middle" x="136.5" y="-134.5" font-family="Helvetica,sans-Serif" font-size="10.00"> </text>
</g>
<!-- Node4&#45;&gt;Node2 -->
<g id="edge2" class="edge"><title>Node4&#45;&gt;Node2</title>
<path fill="none" stroke="#404040" d="M136.5,-127.404C136.5,-116.63 136.5,-103.926 136.5,-91.6231"/>
<polygon fill="none" stroke="#404040" points="136.5,-91.5406 132.5,-85.5406 136.5,-79.5406 140.5,-85.5405 136.5,-91.5406"/>
<text text-anchor="middle" x="168.5" y="-101" font-family="Helvetica,sans-Serif" font-size="10.00"> &#45;attacksPanel</text>
</g>
<!-- Node5 -->
<g id="node4" class="node"><title>Node5</title>
<polygon fill="none" stroke="#bfbfbf" points="206,-127.5 206,-184.5 241,-184.5 241,-127.5 206,-127.5"/>
<text text-anchor="middle" x="223.5" y="-172.5" font-family="Helvetica,sans-Serif" font-size="10.00">bool</text>
<polyline fill="none" stroke="#bfbfbf" points="206,-165.5 241,-165.5 "/>
<text text-anchor="middle" x="223.5" y="-153.5" font-family="Helvetica,sans-Serif" font-size="10.00"> </text>
<polyline fill="none" stroke="#bfbfbf" points="206,-146.5 241,-146.5 "/>
<text text-anchor="middle" x="223.5" y="-134.5" font-family="Helvetica,sans-Serif" font-size="10.00"> </text>
</g>
<!-- Node5&#45;&gt;Node2 -->
<g id="edge3" class="edge"><title>Node5&#45;&gt;Node2</title>
<path fill="none" stroke="#404040" d="M215.817,-127.276C212.352,-117.509 207.634,-106.784 201.5,-98 198.943,-94.3391 196.103,-90.7593 193.08,-87.2912"/>
<polygon fill="none" stroke="#404040" points="192.936,-87.1376 185.912,-85.5044 184.718,-78.3928 191.742,-80.026 192.936,-87.1376"/>
<text text-anchor="middle" x="235.5" y="-101" font-family="Helvetica,sans-Serif" font-size="10.00"> &#45;panelActive</text>
</g>
</g>
</svg>
