<?xml version="1.0" encoding="UTF-8" standalone="no"?>
<!DOCTYPE svg PUBLIC "-//W3C//DTD SVG 1.1//EN"
 "http://www.w3.org/Graphics/SVG/1.1/DTD/svg11.dtd">
<!-- Generated by graphviz version 2.38.0 (20140413.2041)
 -->
<!-- Title: MagicAttack Pages: 1 -->
<!--zoomable 1045 -->
<svg id="main" version="1.1" xmlns="http://www.w3.org/2000/svg" xmlns:xlink="http://www.w3.org/1999/xlink" xml:space="preserve" onload="init(evt)">
<style type="text/css"><![CDATA[
.edge:hover path { stroke: red; }
.edge:hover polygon { stroke: red; fill: red; }
]]></style>
<script type="text/javascript"><![CDATA[
var edges = document.getElementsByTagName('g');
if (edges && edges.length) {
  for (var i=0;i<edges.length;i++) {
    if (edges[i].id.substr(0,4)=='edge') {
      edges[i].setAttribute('class','edge');
    }
  }
}
]]></script>
        <defs>
                <circle id="rim" cx="0" cy="0" r="7"/>
                <circle id="rim2" cx="0" cy="0" r="3.5"/>
                <g id="zoomPlus">
                        <use xlink:href="#rim" fill="#404040">
                                <set attributeName="fill" to="#808080" begin="zoomplus.mouseover" end="zoomplus.mouseout"/>
                        </use>
                        <path d="M-4,0h8M0,-4v8" fill="none" stroke="white" stroke-width="1.5" pointer-events="none"/>
                </g>
                <g id="zoomMin">
                        <use xlink:href="#rim" fill="#404040">
                                <set attributeName="fill" to="#808080" begin="zoomminus.mouseover" end="zoomminus.mouseout"/>
                        </use>
                        <path d="M-4,0h8" fill="none" stroke="white" stroke-width="1.5" pointer-events="none"/>
                </g>
                <g id="dirArrow">
                        <path fill="none" stroke="white" stroke-width="1.5" d="M0,-3.0v7 M-2.5,-0.5L0,-3.0L2.5,-0.5"/>
                </g>
               <g id="resetDef">
                       <use xlink:href="#rim2" fill="#404040">
                               <set attributeName="fill" to="#808080" begin="reset.mouseover" end="reset.mouseout"/>
                       </use>
               </g>
        </defs>

<script type="text/javascript">
var viewWidth = 743;
var viewHeight = 1045;
var sectionId = 'dynsection-1';
</script>
<script xlink:href="svgpan.js"/>
<svg id="graph" class="graph">
<g id="viewport">
<title>MagicAttack</title>
<!-- Node3 -->
<g id="node1" class="node"><title>Node3</title>
<polygon fill="#bfbfbf" stroke="black" points="247,-590.5 247,-658.5 333,-658.5 333,-590.5 247,-590.5"/>
<text text-anchor="middle" x="290" y="-646.5" font-family="Helvetica,sans-Serif" font-size="10.00">MagicAttack</text>
<polyline fill="none" stroke="black" points="247,-639.5 333,-639.5 "/>
<text text-anchor="middle" x="290" y="-627.5" font-family="Helvetica,sans-Serif" font-size="10.00"> </text>
<polyline fill="none" stroke="black" points="247,-620.5 333,-620.5 "/>
<text text-anchor="start" x="255" y="-608.5" font-family="Helvetica,sans-Serif" font-size="10.00">+ MagicAttack()</text>
<text text-anchor="start" x="255" y="-597.5" font-family="Helvetica,sans-Serif" font-size="10.00">+ performMove()</text>
</g>
<!-- Node4 -->
<g id="node2" class="node"><title>Node4</title>
<g id="a_node2"><a xlink:href="class_special_move.html" target="_top" xlink:title="Special move abstract base class that expands upon CharacterMove, adding magic properties ...">
<polygon fill="none" stroke="black" points="115,-830.5 115,-920.5 213,-920.5 213,-830.5 115,-830.5"/>
<text text-anchor="middle" x="164" y="-908.5" font-family="Helvetica,sans-Serif" font-size="10.00">SpecialMove</text>
<polyline fill="none" stroke="black" points="115,-901.5 213,-901.5 "/>
<text text-anchor="start" x="123" y="-889.5" font-family="Helvetica,sans-Serif" font-size="10.00">+ Magic</text>
<text text-anchor="start" x="123" y="-878.5" font-family="Helvetica,sans-Serif" font-size="10.00">+ Desc</text>
<polyline fill="none" stroke="black" points="115,-871.5 213,-871.5 "/>
<text text-anchor="start" x="123" y="-859.5" font-family="Helvetica,sans-Serif" font-size="10.00">+ setUp()</text>
<text text-anchor="start" x="123" y="-848.5" font-family="Helvetica,sans-Serif" font-size="10.00">+ decreaseMagic()</text>
<text text-anchor="start" x="123" y="-837.5" font-family="Helvetica,sans-Serif" font-size="10.00"># SpecialMove()</text>
</a>
</g>
</g>
<!-- Node4&#45;&gt;Node3 -->
<g id="edge1" class="edge"><title>Node4&#45;&gt;Node3</title>
<path fill="none" stroke="midnightblue" d="M178.847,-820.624C189.381,-783.504 202.573,-739.552 208,-732 215.99,-720.882 223.573,-723.929 233,-714 248.604,-697.566 262.465,-676.289 272.61,-658.716"/>
<polygon fill="none" stroke="midnightblue" points="175.441,-819.807 176.095,-830.381 182.178,-821.707 175.441,-819.807"/>
</g>
<!-- Node7 -->
<g id="node5" class="node"><title>Node7</title>
<g id="a_node5"><a xlink:href="class_character.html" target="_top" xlink:title="Base abstract class for Enemy and Player to inherit from. Defines all shared variables, their constructor and their setters and getters ">
<polygon fill="none" stroke="black" points="351.5,-535.5 351.5,-713.5 446.5,-713.5 446.5,-535.5 351.5,-535.5"/>
<text text-anchor="middle" x="399" y="-701.5" font-family="Helvetica,sans-Serif" font-size="10.00">Character</text>
<polyline fill="none" stroke="black" points="351.5,-694.5 446.5,-694.5 "/>
<text text-anchor="start" x="359.5" y="-682.5" font-family="Helvetica,sans-Serif" font-size="10.00">+ Name</text>
<text text-anchor="start" x="359.5" y="-671.5" font-family="Helvetica,sans-Serif" font-size="10.00">+ Level</text>
<text text-anchor="start" x="359.5" y="-660.5" font-family="Helvetica,sans-Serif" font-size="10.00">+ Health</text>
<text text-anchor="start" x="359.5" y="-649.5" font-family="Helvetica,sans-Serif" font-size="10.00">+ Attack</text>
<text text-anchor="start" x="359.5" y="-638.5" font-family="Helvetica,sans-Serif" font-size="10.00">+ Defence</text>
<text text-anchor="start" x="359.5" y="-627.5" font-family="Helvetica,sans-Serif" font-size="10.00">+ MaximumMagic</text>
<text text-anchor="start" x="359.5" y="-616.5" font-family="Helvetica,sans-Serif" font-size="10.00">+ Magic</text>
<text text-anchor="start" x="359.5" y="-605.5" font-family="Helvetica,sans-Serif" font-size="10.00">+ Luck</text>
<text text-anchor="start" x="359.5" y="-594.5" font-family="Helvetica,sans-Serif" font-size="10.00">+ Speed</text>
<text text-anchor="start" x="359.5" y="-583.5" font-family="Helvetica,sans-Serif" font-size="10.00">+ Special1</text>
<text text-anchor="start" x="359.5" y="-572.5" font-family="Helvetica,sans-Serif" font-size="10.00">+ Special2</text>
<text text-anchor="start" x="359.5" y="-561.5" font-family="Helvetica,sans-Serif" font-size="10.00">+ Image</text>
<polyline fill="none" stroke="black" points="351.5,-554.5 446.5,-554.5 "/>
<text text-anchor="start" x="359.5" y="-542.5" font-family="Helvetica,sans-Serif" font-size="10.00"># Character()</text>
</a>
</g>
</g>
<!-- Node4&#45;&gt;Node7 -->
<g id="edge7" class="edge"><title>Node4&#45;&gt;Node7</title>
<path fill="none" stroke="#404040" d="M195.25,-830.372C198.822,-824.353 202.185,-818.133 205,-812 220.431,-778.376 200.277,-756.498 228,-732 263.81,-700.356 294.544,-736.36 340.78,-713.133"/>
<polygon fill="none" stroke="#404040" points="340.864,-713.084 344.017,-706.598 351.216,-707.014 348.064,-713.499 340.864,-713.084"/>
<text text-anchor="middle" x="250.5" y="-775" font-family="Helvetica,sans-Serif" font-size="10.00"> #special1</text>
<text text-anchor="middle" x="250.5" y="-764" font-family="Helvetica,sans-Serif" font-size="10.00">#special2</text>
</g>
<!-- Node5 -->
<g id="node3" class="node"><title>Node5</title>
<g id="a_node3"><a xlink:href="class_character_move.html" target="_top" xlink:title="Astract base class for character moves ">
<polygon fill="none" stroke="black" points="118,-0.5 118,-79.5 204,-79.5 204,-0.5 118,-0.5"/>
<text text-anchor="middle" x="161" y="-67.5" font-family="Helvetica,sans-Serif" font-size="10.00">CharacterMove</text>
<polyline fill="none" stroke="black" points="118,-60.5 204,-60.5 "/>
<text text-anchor="start" x="126" y="-48.5" font-family="Helvetica,sans-Serif" font-size="10.00">+ User</text>
<text text-anchor="start" x="126" y="-37.5" font-family="Helvetica,sans-Serif" font-size="10.00">+ Target</text>
<text text-anchor="start" x="126" y="-26.5" font-family="Helvetica,sans-Serif" font-size="10.00">+ Text</text>
<polyline fill="none" stroke="black" points="118,-19.5 204,-19.5 "/>
<text text-anchor="start" x="126" y="-7.5" font-family="Helvetica,sans-Serif" font-size="10.00">+ performMove()</text>
</a>
</g>
</g>
<!-- Node5&#45;&gt;Node4 -->
<g id="edge2" class="edge"><title>Node5&#45;&gt;Node4</title>
<path fill="none" stroke="midnightblue" d="M156.428,-89.9854C151.234,-148.296 143.08,-248.646 140,-335 139.651,-344.772 138.297,-347.372 140,-357 154.669,-439.934 190.331,-452.066 205,-535 218.856,-613.34 239.068,-642.108 205,-714 199.59,-725.416 189.154,-720.967 183,-732 166.282,-761.971 162.042,-800.856 161.698,-830.433"/>
<polygon fill="none" stroke="midnightblue" points="159.92,-90.2223 157.329,-79.9492 152.949,-89.5958 159.92,-90.2223"/>
</g>
<!-- Node6 -->
<g id="node4" class="node"><title>Node6</title>
<polygon fill="none" stroke="#bfbfbf" points="66.5,-979.5 66.5,-1036.5 107.5,-1036.5 107.5,-979.5 66.5,-979.5"/>
<text text-anchor="middle" x="87" y="-1024.5" font-family="Helvetica,sans-Serif" font-size="10.00">string</text>
<polyline fill="none" stroke="#bfbfbf" points="66.5,-1017.5 107.5,-1017.5 "/>
<text text-anchor="middle" x="87" y="-1005.5" font-family="Helvetica,sans-Serif" font-size="10.00"> </text>
<polyline fill="none" stroke="#bfbfbf" points="66.5,-998.5 107.5,-998.5 "/>
<text text-anchor="middle" x="87" y="-986.5" font-family="Helvetica,sans-Serif" font-size="10.00"> </text>
</g>
<!-- Node6&#45;&gt;Node4 -->
<g id="edge21" class="edge"><title>Node6&#45;&gt;Node4</title>
<path fill="none" stroke="#404040" d="M107.547,-980.765C112.18,-974.433 116.927,-967.589 121,-961 126.784,-951.643 132.478,-941.413 137.735,-931.403"/>
<polygon fill="none" stroke="#404040" points="137.762,-931.35 136.95,-924.185 143.252,-920.68 144.064,-927.845 137.762,-931.35"/>
<text text-anchor="middle" x="148" y="-947.5" font-family="Helvetica,sans-Serif" font-size="10.00"> #desc</text>
</g>
<!-- Node6&#45;&gt;Node5 -->
<g id="edge3" class="edge"><title>Node6&#45;&gt;Node5</title>
<path fill="none" stroke="#404040" d="M66.3822,-990.385C40.6551,-967.637 0,-924.151 0,-876.5 0,-876.5 0,-876.5 0,-221 0,-155.126 60.6448,-102.309 107.494,-71.3355"/>
<polygon fill="none" stroke="#404040" points="107.756,-71.1677 110.645,-64.5606 117.855,-64.6864 114.966,-71.2934 107.756,-71.1677"/>
<text text-anchor="middle" x="12.5" y="-509" font-family="Helvetica,sans-Serif" font-size="10.00"> #text</text>
</g>
<!-- Node6&#45;&gt;Node7 -->
<g id="edge5" class="edge"><title>Node6&#45;&gt;Node7</title>
<path fill="none" stroke="#404040" d="M107.708,-1007.13C140.278,-1006.12 203.047,-998.993 235,-961 272.789,-916.067 224.079,-881.646 252,-830 257.846,-819.186 264.731,-821.096 273,-812 308.832,-772.585 312.238,-758.179 342,-714 342.862,-712.721 343.728,-711.43 344.599,-710.13"/>
<polygon fill="none" stroke="#404040" points="344.684,-710.001 344.674,-702.79 351.327,-700.007 351.337,-707.218 344.684,-710.001"/>
<text text-anchor="middle" x="268.5" y="-873" font-family="Helvetica,sans-Serif" font-size="10.00"> #name</text>
</g>
<!-- Node10 -->
<g id="node8" class="node"><title>Node10</title>
<g id="a_node8"><a xlink:href="class_battle_manager.html" target="_top" xlink:title="Holds current Player and Enemy objects in battle and provides functions for MainBattle and other obje...">
<polygon fill="none" stroke="black" points="295,-127.5 295,-316.5 411,-316.5 411,-127.5 295,-127.5"/>
<text text-anchor="middle" x="353" y="-304.5" font-family="Helvetica,sans-Serif" font-size="10.00">BattleManager</text>
<polyline fill="none" stroke="black" points="295,-297.5 411,-297.5 "/>
<text text-anchor="start" x="303" y="-285.5" font-family="Helvetica,sans-Serif" font-size="10.00">+ Player</text>
<text text-anchor="start" x="303" y="-274.5" font-family="Helvetica,sans-Serif" font-size="10.00">+ Enemy</text>
<text text-anchor="start" x="303" y="-263.5" font-family="Helvetica,sans-Serif" font-size="10.00">+ WasCriticalHit</text>
<polyline fill="none" stroke="black" points="295,-256.5 411,-256.5 "/>
<text text-anchor="start" x="303" y="-244.5" font-family="Helvetica,sans-Serif" font-size="10.00">+ BattleManager()</text>
<text text-anchor="start" x="303" y="-233.5" font-family="Helvetica,sans-Serif" font-size="10.00">+ playerFirst()</text>
<text text-anchor="start" x="303" y="-222.5" font-family="Helvetica,sans-Serif" font-size="10.00">+ switchPlayers()</text>
<text text-anchor="start" x="303" y="-211.5" font-family="Helvetica,sans-Serif" font-size="10.00">+ isCriticalHit()</text>
<text text-anchor="start" x="303" y="-200.5" font-family="Helvetica,sans-Serif" font-size="10.00">+ ranAway()</text>
<text text-anchor="start" x="303" y="-189.5" font-family="Helvetica,sans-Serif" font-size="10.00">+ damageCalculation()</text>
<text text-anchor="start" x="303" y="-178.5" font-family="Helvetica,sans-Serif" font-size="10.00">+ enemyMove()</text>
<text text-anchor="start" x="303" y="-167.5" font-family="Helvetica,sans-Serif" font-size="10.00">+ enemySpecialMove()</text>
<text text-anchor="start" x="303" y="-156.5" font-family="Helvetica,sans-Serif" font-size="10.00">+ battleWon()</text>
<text text-anchor="start" x="303" y="-145.5" font-family="Helvetica,sans-Serif" font-size="10.00">+ playerFainted()</text>
<text text-anchor="start" x="303" y="-134.5" font-family="Helvetica,sans-Serif" font-size="10.00">&#45; characterFainted()</text>
</a>
</g>
</g>
<!-- Node6&#45;&gt;Node10 -->
<g id="edge10" class="edge"><title>Node6&#45;&gt;Node10</title>
<path fill="none" stroke="#404040" d="M76.8476,-979.392C51.1385,-905.077 -10.6027,-695.58 46,-535 88.5521,-414.281 208.013,-317.351 284.755,-265.165"/>
<polygon fill="none" stroke="#404040" points="284.858,-265.096 287.611,-258.431 294.823,-258.409 292.07,-265.073 284.858,-265.096"/>
<text text-anchor="middle" x="88" y="-627.5" font-family="Helvetica,sans-Serif" font-size="10.00"> +forceEnemyMove</text>
<text text-anchor="middle" x="88" y="-616.5" font-family="Helvetica,sans-Serif" font-size="10.00">+forceCriticalHits</text>
</g>
<!-- Node14 -->
<g id="node12" class="node"><title>Node14</title>
<g id="a_node12"><a xlink:href="class_item.html" target="_top" xlink:title="Abstract class for items that can be equipped to a player, increasing some of their stats ...">
<polygon fill="none" stroke="black" points="66.5,-732.5 66.5,-811.5 143.5,-811.5 143.5,-732.5 66.5,-732.5"/>
<text text-anchor="middle" x="105" y="-799.5" font-family="Helvetica,sans-Serif" font-size="10.00">Item</text>
<polyline fill="none" stroke="black" points="66.5,-792.5 143.5,-792.5 "/>
<text text-anchor="start" x="74.5" y="-780.5" font-family="Helvetica,sans-Serif" font-size="10.00">+ Name</text>
<text text-anchor="start" x="74.5" y="-769.5" font-family="Helvetica,sans-Serif" font-size="10.00">+ Desc</text>
<polyline fill="none" stroke="black" points="66.5,-762.5 143.5,-762.5 "/>
<text text-anchor="start" x="74.5" y="-750.5" font-family="Helvetica,sans-Serif" font-size="10.00">+ applyBuffs()</text>
<text text-anchor="start" x="74.5" y="-739.5" font-family="Helvetica,sans-Serif" font-size="10.00">+ revertBuffs()</text>
</a>
</g>
</g>
<!-- Node6&#45;&gt;Node14 -->
<g id="edge19" class="edge"><title>Node6&#45;&gt;Node14</title>
<path fill="none" stroke="#404040" d="M86.3225,-979.191C86.1971,-966.869 86.2863,-952.203 87,-939 89.0952,-900.243 93.9227,-856.617 98.0512,-823.818"/>
<polygon fill="none" stroke="#404040" points="98.0647,-823.713 94.8609,-817.253 99.5922,-811.811 102.796,-818.271 98.0647,-823.713"/>
<text text-anchor="middle" x="102" y="-953" font-family="Helvetica,sans-Serif" font-size="10.00"> #desc</text>
<text text-anchor="middle" x="102" y="-942" font-family="Helvetica,sans-Serif" font-size="10.00">#name</text>
</g>
<!-- Node7&#45;&gt;Node5 -->
<g id="edge4" class="edge"><title>Node7&#45;&gt;Node5</title>
<path fill="none" stroke="#404040" d="M351.464,-545.994C348.39,-542.177 345.229,-538.486 342,-535 318.502,-509.633 299.272,-516.71 280,-488 195.661,-362.355 171.007,-179.491 163.868,-91.7181"/>
<polygon fill="none" stroke="#404040" points="163.866,-91.6933 159.422,-86.0145 162.954,-79.7279 167.398,-85.4067 163.866,-91.6933"/>
<text text-anchor="middle" x="233" y="-349" font-family="Helvetica,sans-Serif" font-size="10.00"> #target</text>
<text text-anchor="middle" x="233" y="-338" font-family="Helvetica,sans-Serif" font-size="10.00">#user</text>
</g>
<!-- Node11 -->
<g id="node9" class="node"><title>Node11</title>
<g id="a_node9"><a xlink:href="class_enemy.html" target="_top" xlink:title="Defines an AI controller enemy to fight in battle scenes">
<polygon fill="none" stroke="black" points="620.5,-403 620.5,-460 687.5,-460 687.5,-403 620.5,-403"/>
<text text-anchor="middle" x="654" y="-448" font-family="Helvetica,sans-Serif" font-size="10.00">Enemy</text>
<polyline fill="none" stroke="black" points="620.5,-441 687.5,-441 "/>
<text text-anchor="start" x="628.5" y="-429" font-family="Helvetica,sans-Serif" font-size="10.00">+ ExpGiven</text>
<polyline fill="none" stroke="black" points="620.5,-422 687.5,-422 "/>
<text text-anchor="start" x="628.5" y="-410" font-family="Helvetica,sans-Serif" font-size="10.00">+ Enemy()</text>
</a>
</g>
</g>
<!-- Node7&#45;&gt;Node11 -->
<g id="edge12" class="edge"><title>Node7&#45;&gt;Node11</title>
<path fill="none" stroke="midnightblue" d="M454.894,-581.634C505.464,-543.757 578.273,-489.221 620.398,-457.668"/>
<polygon fill="none" stroke="midnightblue" points="452.57,-579.002 446.664,-587.798 456.766,-584.605 452.57,-579.002"/>
</g>
<!-- Node13 -->
<g id="node11" class="node"><title>Node13</title>
<g id="a_node11"><a xlink:href="class_player.html" target="_top" xlink:title="Defines a playable character for use in battle scenes">
<polygon fill="none" stroke="black" points="343,-375.5 343,-487.5 455,-487.5 455,-375.5 343,-375.5"/>
<text text-anchor="middle" x="399" y="-475.5" font-family="Helvetica,sans-Serif" font-size="10.00">Player</text>
<polyline fill="none" stroke="black" points="343,-468.5 455,-468.5 "/>
<text text-anchor="start" x="351" y="-456.5" font-family="Helvetica,sans-Serif" font-size="10.00">+ Exp</text>
<text text-anchor="start" x="351" y="-445.5" font-family="Helvetica,sans-Serif" font-size="10.00">+ Item</text>
<text text-anchor="start" x="351" y="-434.5" font-family="Helvetica,sans-Serif" font-size="10.00">+ ExpToNextLevel</text>
<polyline fill="none" stroke="black" points="343,-427.5 455,-427.5 "/>
<text text-anchor="start" x="351" y="-415.5" font-family="Helvetica,sans-Serif" font-size="10.00">+ Player()</text>
<text text-anchor="start" x="351" y="-404.5" font-family="Helvetica,sans-Serif" font-size="10.00">+ gainExp()</text>
<text text-anchor="start" x="351" y="-393.5" font-family="Helvetica,sans-Serif" font-size="10.00">+ levelUp()</text>
<text text-anchor="start" x="351" y="-382.5" font-family="Helvetica,sans-Serif" font-size="10.00">&#45; setExpToNextLevel()</text>
</a>
</g>
</g>
<!-- Node7&#45;&gt;Node13 -->
<g id="edge17" class="edge"><title>Node7&#45;&gt;Node13</title>
<path fill="none" stroke="midnightblue" d="M399,-524.981C399,-512.15 399,-499.392 399,-487.635"/>
<polygon fill="none" stroke="midnightblue" points="395.5,-525.268 399,-535.268 402.5,-525.268 395.5,-525.268"/>
</g>
<!-- Node8 -->
<g id="node6" class="node"><title>Node8</title>
<polygon fill="none" stroke="#bfbfbf" points="502.5,-979.5 502.5,-1036.5 531.5,-1036.5 531.5,-979.5 502.5,-979.5"/>
<text text-anchor="middle" x="517" y="-1024.5" font-family="Helvetica,sans-Serif" font-size="10.00">int</text>
<polyline fill="none" stroke="#bfbfbf" points="502.5,-1017.5 531.5,-1017.5 "/>
<text text-anchor="middle" x="517" y="-1005.5" font-family="Helvetica,sans-Serif" font-size="10.00"> </text>
<polyline fill="none" stroke="#bfbfbf" points="502.5,-998.5 531.5,-998.5 "/>
<text text-anchor="middle" x="517" y="-986.5" font-family="Helvetica,sans-Serif" font-size="10.00"> </text>
</g>
<!-- Node8&#45;&gt;Node3 -->
<g id="edge23" class="edge"><title>Node8&#45;&gt;Node3</title>
<path fill="none" stroke="#404040" d="M502.359,-1005.2C465.92,-999.86 370.931,-980.604 327,-921 272.473,-847.02 275.829,-733.309 282.975,-670.708"/>
<polygon fill="none" stroke="#404040" points="283.009,-670.436 279.779,-663.989 284.488,-658.528 287.718,-664.975 283.009,-670.436"/>
<text text-anchor="middle" x="343" y="-873" font-family="Helvetica,sans-Serif" font-size="10.00"> &#45;power</text>
</g>
<!-- Node8&#45;&gt;Node4 -->
<g id="edge22" class="edge"><title>Node8&#45;&gt;Node4</title>
<path fill="none" stroke="#404040" d="M502.274,-1006.75C462.682,-1005.56 351.374,-998.83 269,-961 251.039,-952.751 233.499,-940.746 218.058,-928.362"/>
<polygon fill="none" stroke="#404040" points="217.97,-928.289 210.797,-927.541 208.73,-920.632 215.902,-921.381 217.97,-928.289"/>
<text text-anchor="middle" x="286.5" y="-947.5" font-family="Helvetica,sans-Serif" font-size="10.00"> #magic</text>
</g>
<!-- Node8&#45;&gt;Node7 -->
<g id="edge6" class="edge"><title>Node8&#45;&gt;Node7</title>
<path fill="none" stroke="#404040" d="M503.476,-979.235C495.791,-962.633 486.446,-940.952 480,-921 453.547,-839.118 462.181,-814.582 438,-732 437.336,-729.732 436.649,-727.443 435.941,-725.14"/>
<polygon fill="none" stroke="#404040" points="435.888,-724.972 430.26,-720.464 432.257,-713.535 437.885,-718.043 435.888,-724.972"/>
<text text-anchor="middle" x="517.5" y="-911.5" font-family="Helvetica,sans-Serif" font-size="10.00"> #speed</text>
<text text-anchor="middle" x="517.5" y="-900.5" font-family="Helvetica,sans-Serif" font-size="10.00">#luck</text>
<text text-anchor="middle" x="517.5" y="-889.5" font-family="Helvetica,sans-Serif" font-size="10.00">#health</text>
<text text-anchor="middle" x="517.5" y="-878.5" font-family="Helvetica,sans-Serif" font-size="10.00">#magic</text>
<text text-anchor="middle" x="517.5" y="-867.5" font-family="Helvetica,sans-Serif" font-size="10.00">#maximumMagic</text>
<text text-anchor="middle" x="517.5" y="-856.5" font-family="Helvetica,sans-Serif" font-size="10.00">#attack</text>
<text text-anchor="middle" x="517.5" y="-845.5" font-family="Helvetica,sans-Serif" font-size="10.00">#defence</text>
<text text-anchor="middle" x="517.5" y="-834.5" font-family="Helvetica,sans-Serif" font-size="10.00">#level</text>
</g>
<!-- Node8&#45;&gt;Node10 -->
<g id="edge14" class="edge"><title>Node8&#45;&gt;Node10</title>
<path fill="none" stroke="#404040" d="M531.67,-996.012C542.068,-987.51 555.612,-974.874 564,-961 617.08,-873.208 610.697,-833.053 593,-732 563.897,-565.822 543.212,-523.956 464,-375 451.036,-350.622 434.538,-325.778 418.25,-303.431"/>
<polygon fill="none" stroke="#404040" points="418.178,-303.333 411.395,-300.886 411.045,-293.683 417.829,-296.131 418.178,-303.333"/>
<text text-anchor="middle" x="609.5" y="-622" font-family="Helvetica,sans-Serif" font-size="10.00"> +money</text>
</g>
<!-- Node8&#45;&gt;Node11 -->
<g id="edge13" class="edge"><title>Node8&#45;&gt;Node11</title>
<path fill="none" stroke="#404040" d="M531.745,-1005.26C555.109,-1001.65 600.126,-990.971 621,-961 727.475,-808.123 686.057,-566.103 664.17,-471.871"/>
<polygon fill="none" stroke="#404040" points="664.145,-471.766 658.859,-466.86 661.355,-460.094 666.64,-465 664.145,-471.766"/>
<text text-anchor="middle" x="712" y="-769.5" font-family="Helvetica,sans-Serif" font-size="10.00"> &#45;expGiven</text>
</g>
<!-- Node8&#45;&gt;Node13 -->
<g id="edge20" class="edge"><title>Node8&#45;&gt;Node13</title>
<path fill="none" stroke="#404040" d="M531.605,-984.507C552.621,-949.016 585.67,-879.027 555,-830 545.301,-814.497 529.368,-826.324 518,-812 439.516,-713.103 499.693,-653.08 455,-535 450.384,-522.803 444.552,-510.266 438.408,-498.328"/>
<polygon fill="none" stroke="#404040" points="438.322,-498.165 431.978,-494.736 432.703,-487.561 439.047,-490.99 438.322,-498.165"/>
<text text-anchor="middle" x="555.5" y="-775" font-family="Helvetica,sans-Serif" font-size="10.00"> &#45;expToNextLevel</text>
<text text-anchor="middle" x="555.5" y="-764" font-family="Helvetica,sans-Serif" font-size="10.00">&#45;exp</text>
</g>
<!-- Node9 -->
<g id="node7" class="node"><title>Node9</title>
<polygon fill="none" stroke="#bfbfbf" points="368.5,-847 368.5,-904 429.5,-904 429.5,-847 368.5,-847"/>
<text text-anchor="middle" x="399" y="-892" font-family="Helvetica,sans-Serif" font-size="10.00">Texture2D</text>
<polyline fill="none" stroke="#bfbfbf" points="368.5,-885 429.5,-885 "/>
<text text-anchor="middle" x="399" y="-873" font-family="Helvetica,sans-Serif" font-size="10.00"> </text>
<polyline fill="none" stroke="#bfbfbf" points="368.5,-866 429.5,-866 "/>
<text text-anchor="middle" x="399" y="-854" font-family="Helvetica,sans-Serif" font-size="10.00"> </text>
</g>
<!-- Node9&#45;&gt;Node7 -->
<g id="edge8" class="edge"><title>Node9&#45;&gt;Node7</title>
<path fill="none" stroke="#404040" d="M399,-846.901C399,-817.619 399,-769.621 399,-725.787"/>
<polygon fill="none" stroke="#404040" points="399,-725.554 395,-719.554 399,-713.554 403,-719.554 399,-725.554"/>
<text text-anchor="middle" x="416.5" y="-769.5" font-family="Helvetica,sans-Serif" font-size="10.00"> #image</text>
</g>
<!-- Node10&#45;&gt;Node5 -->
<g id="edge9" class="edge"><title>Node10&#45;&gt;Node5</title>
<path fill="none" stroke="#404040" d="M294.873,-166.506C268.116,-141.422 236.686,-111.955 211.005,-87.88"/>
<polygon fill="none" stroke="#404040" points="210.933,-87.8123 203.82,-86.6268 202.179,-79.605 209.292,-80.7905 210.933,-87.8123"/>
<text text-anchor="middle" x="252" y="-101" font-family="Helvetica,sans-Serif" font-size="10.00"> #manager</text>
</g>
<!-- Node11&#45;&gt;Node10 -->
<g id="edge11" class="edge"><title>Node11&#45;&gt;Node10</title>
<path fill="none" stroke="#404040" d="M645.743,-402.672C638.297,-381.728 625.486,-353.554 606,-335 554.631,-286.087 478.345,-256.338 422.979,-239.918"/>
<polygon fill="none" stroke="#404040" points="422.681,-239.832 415.809,-242.019 411.148,-236.517 418.019,-234.33 422.681,-239.832"/>
<text text-anchor="middle" x="640" y="-343.5" font-family="Helvetica,sans-Serif" font-size="10.00"> &#45;enemy</text>
</g>
<!-- Node12 -->
<g id="node10" class="node"><title>Node12</title>
<polygon fill="none" stroke="#bfbfbf" points="289.5,-403 289.5,-460 324.5,-460 324.5,-403 289.5,-403"/>
<text text-anchor="middle" x="307" y="-448" font-family="Helvetica,sans-Serif" font-size="10.00">bool</text>
<polyline fill="none" stroke="#bfbfbf" points="289.5,-441 324.5,-441 "/>
<text text-anchor="middle" x="307" y="-429" font-family="Helvetica,sans-Serif" font-size="10.00"> </text>
<polyline fill="none" stroke="#bfbfbf" points="289.5,-422 324.5,-422 "/>
<text text-anchor="middle" x="307" y="-410" font-family="Helvetica,sans-Serif" font-size="10.00"> </text>
</g>
<!-- Node12&#45;&gt;Node10 -->
<g id="edge15" class="edge"><title>Node12&#45;&gt;Node10</title>
<path fill="none" stroke="#404040" d="M305.44,-402.637C304.957,-383.438 305.475,-357.44 310,-335 310.436,-332.835 310.911,-330.658 311.418,-328.473"/>
<polygon fill="none" stroke="#404040" points="311.448,-328.359 309.067,-321.552 314.434,-316.736 316.815,-323.543 311.448,-328.359"/>
<text text-anchor="middle" x="343" y="-343.5" font-family="Helvetica,sans-Serif" font-size="10.00"> &#45;wasCriticalHit</text>
</g>
<!-- Node13&#45;&gt;Node10 -->
<g id="edge16" class="edge"><title>Node13&#45;&gt;Node10</title>
<path fill="none" stroke="#404040" d="M386.794,-375.439C383.581,-360.946 380.005,-344.815 376.415,-328.623"/>
<polygon fill="none" stroke="#404040" points="376.401,-328.56 371.198,-323.568 373.804,-316.845 379.008,-321.837 376.401,-328.56"/>
<text text-anchor="middle" x="398.5" y="-343.5" font-family="Helvetica,sans-Serif" font-size="10.00"> &#45;player</text>
</g>
<!-- Node14&#45;&gt;Node13 -->
<g id="edge18" class="edge"><title>Node14&#45;&gt;Node13</title>
<path fill="none" stroke="#404040" d="M125.099,-732.201C128.137,-726.136 131.191,-719.918 134,-714 171.286,-635.44 150.223,-595.174 213,-535 251.765,-497.842 280.039,-514.767 331.923,-487.843"/>
<polygon fill="none" stroke="#404040" points="332.157,-487.712 335.435,-481.289 342.624,-481.845 339.346,-488.268 332.157,-487.712"/>
<text text-anchor="middle" x="225.5" y="-622" font-family="Helvetica,sans-Serif" font-size="10.00"> &#45;item</text>
</g>
</g>
</svg>
        <g id="navigator" transform="translate(0 0)" fill="#404254">
                <rect fill="#f2f5e9" fill-opacity="0.5" stroke="#606060" stroke-width=".5" x="0" y="0" width="60" height="60"/>
                <use id="zoomplus" xlink:href="#zoomPlus" x="17" y="9" onmousedown="handleZoom(evt,'in')"/>
                <use id="zoomminus" xlink:href="#zoomMin" x="42" y="9" onmousedown="handleZoom(evt,'out')"/>
                <use id="reset" xlink:href="#resetDef" x="30" y="36" onmousedown="handleReset()"/>
                <g id="arrowUp" xlink:href="#dirArrow" transform="translate(30 24)" onmousedown="handlePan(0,-1)">
                  <use xlink:href="#rim" fill="#404040">
                        <set attributeName="fill" to="#808080" begin="arrowUp.mouseover" end="arrowUp.mouseout"/>
                  </use>
                  <path fill="none" stroke="white" stroke-width="1.5" d="M0,-3.0v7 M-2.5,-0.5L0,-3.0L2.5,-0.5"/>
                </g>
                <g id="arrowRight" xlink:href="#dirArrow" transform="rotate(90) translate(36 -43)" onmousedown="handlePan(1,0)">
                  <use xlink:href="#rim" fill="#404040">
                        <set attributeName="fill" to="#808080" begin="arrowRight.mouseover" end="arrowRight.mouseout"/>
                  </use>
                  <path fill="none" stroke="white" stroke-width="1.5" d="M0,-3.0v7 M-2.5,-0.5L0,-3.0L2.5,-0.5"/>
                </g>
                <g id="arrowDown" xlink:href="#dirArrow" transform="rotate(180) translate(-30 -48)" onmousedown="handlePan(0,1)">
                  <use xlink:href="#rim" fill="#404040">
                        <set attributeName="fill" to="#808080" begin="arrowDown.mouseover" end="arrowDown.mouseout"/>
                  </use>
                  <path fill="none" stroke="white" stroke-width="1.5" d="M0,-3.0v7 M-2.5,-0.5L0,-3.0L2.5,-0.5"/>
                </g>
                <g id="arrowLeft" xlink:href="#dirArrow" transform="rotate(270) translate(-36 17)" onmousedown="handlePan(-1,0)">
                  <use xlink:href="#rim" fill="#404040">
                        <set attributeName="fill" to="#808080" begin="arrowLeft.mouseover" end="arrowLeft.mouseout"/>
                  </use>
                  <path fill="none" stroke="white" stroke-width="1.5" d="M0,-3.0v7 M-2.5,-0.5L0,-3.0L2.5,-0.5"/>
                </g>
        </g>
        <svg viewBox="0 0 15 15" width="100%" height="30px" preserveAspectRatio="xMaxYMin meet">
         <g id="arrow_out" transform="scale(0.3 0.3)">
          <a xlink:href="class_magic_attack__coll__graph_org.svg" target="_base">
           <rect id="button" ry="5" rx="5" y="6" x="6" height="38" width="38"
                fill="#f2f5e9" fill-opacity="0.5" stroke="#606060" stroke-width="1.0"/>
           <path id="arrow"
             d="M 11.500037,31.436501 C 11.940474,20.09759 22.043105,11.32322 32.158766,21.979434 L 37.068811,17.246167 C 37.068811,17.246167 37.088388,32 37.088388,32 L 22.160133,31.978069 C 22.160133,31.978069 26.997745,27.140456 26.997745,27.140456 C 18.528582,18.264221 13.291696,25.230495 11.500037,31.436501 z"
             style="fill:#404040;"/>
          </a>
         </g>
        </svg>
</svg>
