<?xml version="1.0" encoding="UTF-8" standalone="no"?>
<!DOCTYPE svg PUBLIC "-//W3C//DTD SVG 1.1//EN"
 "http://www.w3.org/Graphics/SVG/1.1/DTD/svg11.dtd">
<!-- Generated by graphviz version 2.38.0 (20140413.2041)
 -->
<!-- Title: ItemObjects Pages: 1 -->
<svg width="206pt" height="182pt"
 viewBox="0.00 0.00 205.50 182.00" xmlns="http://www.w3.org/2000/svg" xmlns:xlink="http://www.w3.org/1999/xlink">
<g id="graph0" class="graph" transform="scale(1 1) rotate(0) translate(4 178)">
<title>ItemObjects</title>
<!-- Node2 -->
<g id="node1" class="node"><title>Node2</title>
<polygon fill="#bfbfbf" stroke="black" points="61,-0.5 61,-57.5 130,-57.5 130,-0.5 61,-0.5"/>
<text text-anchor="middle" x="95.5" y="-45.5" font-family="Helvetica,sans-Serif" font-size="10.00">ItemObjects</text>
<polyline fill="none" stroke="black" points="61,-38.5 130,-38.5 "/>
<text text-anchor="middle" x="95.5" y="-26.5" font-family="Helvetica,sans-Serif" font-size="10.00"> </text>
<polyline fill="none" stroke="black" points="61,-19.5 130,-19.5 "/>
<text text-anchor="start" x="69" y="-7.5" font-family="Helvetica,sans-Serif" font-size="10.00">&#45; Start()</text>
</g>
<!-- Node3 -->
<g id="node2" class="node"><title>Node3</title>
<g id="a_node2"><a xlink:href="class_mono_behaviour.html" target="_top" xlink:title="{MonoBehaviour\n||}">
<polygon fill="none" stroke="black" points="0,-111 0,-168 83,-168 83,-111 0,-111"/>
<text text-anchor="middle" x="41.5" y="-156" font-family="Helvetica,sans-Serif" font-size="10.00">MonoBehaviour</text>
<polyline fill="none" stroke="black" points="0,-149 83,-149 "/>
<text text-anchor="middle" x="41.5" y="-137" font-family="Helvetica,sans-Serif" font-size="10.00"> </text>
<polyline fill="none" stroke="black" points="0,-130 83,-130 "/>
<text text-anchor="middle" x="41.5" y="-118" font-family="Helvetica,sans-Serif" font-size="10.00"> </text>
</a>
</g>
</g>
<!-- Node3&#45;&gt;Node2 -->
<g id="edge1" class="edge"><title>Node3&#45;&gt;Node2</title>
<path fill="none" stroke="midnightblue" d="M59.8268,-101.677C67.0049,-87.2541 75.098,-70.993 81.7589,-57.6094"/>
<polygon fill="none" stroke="midnightblue" points="56.5885,-100.328 55.2662,-110.84 62.8553,-103.447 56.5885,-100.328"/>
</g>
<!-- Node4 -->
<g id="node3" class="node"><title>Node4</title>
<polygon fill="none" stroke="#bfbfbf" points="101.5,-105.5 101.5,-173.5 197.5,-173.5 197.5,-105.5 101.5,-105.5"/>
<text text-anchor="start" x="109.5" y="-161.5" font-family="Helvetica,sans-Serif" font-size="10.00">Dictionary&lt; string,</text>
<text text-anchor="middle" x="149.5" y="-150.5" font-family="Helvetica,sans-Serif" font-size="10.00"> Item &gt;</text>
<polyline fill="none" stroke="#bfbfbf" points="101.5,-143.5 197.5,-143.5 "/>
<text text-anchor="middle" x="149.5" y="-131.5" font-family="Helvetica,sans-Serif" font-size="10.00"> </text>
<polyline fill="none" stroke="#bfbfbf" points="101.5,-124.5 197.5,-124.5 "/>
<text text-anchor="middle" x="149.5" y="-112.5" font-family="Helvetica,sans-Serif" font-size="10.00"> </text>
</g>
<!-- Node4&#45;&gt;Node2 -->
<g id="edge2" class="edge"><title>Node4&#45;&gt;Node2</title>
<path fill="none" stroke="#404040" d="M133.005,-105.357C127.27,-93.8335 120.785,-80.8049 114.841,-68.8612"/>
<polygon fill="none" stroke="#404040" points="114.696,-68.57 108.442,-64.9807 109.349,-57.827 115.604,-61.4162 114.696,-68.57"/>
<text text-anchor="middle" x="139.5" y="-79" font-family="Helvetica,sans-Serif" font-size="10.00"> +items</text>
</g>
</g>
</svg>
