<?xml version="1.0" encoding="UTF-8" standalone="no"?>
<!DOCTYPE svg PUBLIC "-//W3C//DTD SVG 1.1//EN"
 "http://www.w3.org/Graphics/SVG/1.1/DTD/svg11.dtd">
<!-- Generated by graphviz version 2.38.0 (20140413.2041)
 -->
<!-- Title: SpecialMove Pages: 1 -->
<svg width="700pt" height="1045pt"
 viewBox="0.00 0.00 700.00 1045.00" xmlns="http://www.w3.org/2000/svg" xmlns:xlink="http://www.w3.org/1999/xlink">
<g id="graph0" class="graph" transform="scale(1 1) rotate(0) translate(4 1041)">
<title>SpecialMove</title>
<!-- Node9 -->
<g id="node1" class="node"><title>Node9</title>
<polygon fill="#bfbfbf" stroke="black" points="181,-830.5 181,-920.5 279,-920.5 279,-830.5 181,-830.5"/>
<text text-anchor="middle" x="230" y="-908.5" font-family="Helvetica,sans-Serif" font-size="10.00">SpecialMove</text>
<polyline fill="none" stroke="black" points="181,-901.5 279,-901.5 "/>
<text text-anchor="start" x="189" y="-889.5" font-family="Helvetica,sans-Serif" font-size="10.00">+ Magic</text>
<text text-anchor="start" x="189" y="-878.5" font-family="Helvetica,sans-Serif" font-size="10.00">+ Desc</text>
<polyline fill="none" stroke="black" points="181,-871.5 279,-871.5 "/>
<text text-anchor="start" x="189" y="-859.5" font-family="Helvetica,sans-Serif" font-size="10.00">+ setUp()</text>
<text text-anchor="start" x="189" y="-848.5" font-family="Helvetica,sans-Serif" font-size="10.00">+ decreaseMagic()</text>
<text text-anchor="start" x="189" y="-837.5" font-family="Helvetica,sans-Serif" font-size="10.00"># SpecialMove()</text>
</g>
<!-- Node12 -->
<g id="node4" class="node"><title>Node12</title>
<g id="a_node4"><a xlink:href="class_character.html" target="_top" xlink:title="Base abstract class for Enemy and Player to inherit from. Defines all shared variables, their constructor and their setters and getters ">
<polygon fill="none" stroke="black" points="385.5,-535.5 385.5,-713.5 480.5,-713.5 480.5,-535.5 385.5,-535.5"/>
<text text-anchor="middle" x="433" y="-701.5" font-family="Helvetica,sans-Serif" font-size="10.00">Character</text>
<polyline fill="none" stroke="black" points="385.5,-694.5 480.5,-694.5 "/>
<text text-anchor="start" x="393.5" y="-682.5" font-family="Helvetica,sans-Serif" font-size="10.00">+ Name</text>
<text text-anchor="start" x="393.5" y="-671.5" font-family="Helvetica,sans-Serif" font-size="10.00">+ Level</text>
<text text-anchor="start" x="393.5" y="-660.5" font-family="Helvetica,sans-Serif" font-size="10.00">+ Health</text>
<text text-anchor="start" x="393.5" y="-649.5" font-family="Helvetica,sans-Serif" font-size="10.00">+ Attack</text>
<text text-anchor="start" x="393.5" y="-638.5" font-family="Helvetica,sans-Serif" font-size="10.00">+ Defence</text>
<text text-anchor="start" x="393.5" y="-627.5" font-family="Helvetica,sans-Serif" font-size="10.00">+ MaximumMagic</text>
<text text-anchor="start" x="393.5" y="-616.5" font-family="Helvetica,sans-Serif" font-size="10.00">+ Magic</text>
<text text-anchor="start" x="393.5" y="-605.5" font-family="Helvetica,sans-Serif" font-size="10.00">+ Luck</text>
<text text-anchor="start" x="393.5" y="-594.5" font-family="Helvetica,sans-Serif" font-size="10.00">+ Speed</text>
<text text-anchor="start" x="393.5" y="-583.5" font-family="Helvetica,sans-Serif" font-size="10.00">+ Special1</text>
<text text-anchor="start" x="393.5" y="-572.5" font-family="Helvetica,sans-Serif" font-size="10.00">+ Special2</text>
<text text-anchor="start" x="393.5" y="-561.5" font-family="Helvetica,sans-Serif" font-size="10.00">+ Image</text>
<polyline fill="none" stroke="black" points="385.5,-554.5 480.5,-554.5 "/>
<text text-anchor="start" x="393.5" y="-542.5" font-family="Helvetica,sans-Serif" font-size="10.00"># Character()</text>
</a>
</g>
</g>
<!-- Node9&#45;&gt;Node12 -->
<g id="edge6" class="edge"><title>Node9&#45;&gt;Node12</title>
<path fill="none" stroke="#404040" d="M279.019,-871.176C320.289,-865.607 377.484,-850.859 409,-812 420.177,-798.218 426.19,-762.51 429.408,-725.983"/>
<polygon fill="none" stroke="#404040" points="429.442,-725.556 425.931,-719.257 430.396,-713.594 433.906,-719.893 429.442,-725.556"/>
<text text-anchor="middle" x="451.5" y="-775" font-family="Helvetica,sans-Serif" font-size="10.00"> #special1</text>
<text text-anchor="middle" x="451.5" y="-764" font-family="Helvetica,sans-Serif" font-size="10.00">#special2</text>
</g>
<!-- Node10 -->
<g id="node2" class="node"><title>Node10</title>
<g id="a_node2"><a xlink:href="class_character_move.html" target="_top" xlink:title="Astract base class for character moves ">
<polygon fill="none" stroke="black" points="102,-0.5 102,-79.5 188,-79.5 188,-0.5 102,-0.5"/>
<text text-anchor="middle" x="145" y="-67.5" font-family="Helvetica,sans-Serif" font-size="10.00">CharacterMove</text>
<polyline fill="none" stroke="black" points="102,-60.5 188,-60.5 "/>
<text text-anchor="start" x="110" y="-48.5" font-family="Helvetica,sans-Serif" font-size="10.00">+ User</text>
<text text-anchor="start" x="110" y="-37.5" font-family="Helvetica,sans-Serif" font-size="10.00">+ Target</text>
<text text-anchor="start" x="110" y="-26.5" font-family="Helvetica,sans-Serif" font-size="10.00">+ Text</text>
<polyline fill="none" stroke="black" points="102,-19.5 188,-19.5 "/>
<text text-anchor="start" x="110" y="-7.5" font-family="Helvetica,sans-Serif" font-size="10.00">+ performMove()</text>
</a>
</g>
</g>
<!-- Node10&#45;&gt;Node9 -->
<g id="edge1" class="edge"><title>Node10&#45;&gt;Node9</title>
<path fill="none" stroke="midnightblue" d="M141.765,-89.5256C138.056,-147.79 132.206,-248.485 130,-335 125.681,-504.421 133.044,-549.063 172,-714 181.535,-754.369 197.987,-798.585 210.939,-830.368"/>
<polygon fill="none" stroke="midnightblue" points="145.26,-89.7057 142.408,-79.502 138.275,-89.2571 145.26,-89.7057"/>
</g>
<!-- Node11 -->
<g id="node3" class="node"><title>Node11</title>
<polygon fill="none" stroke="#bfbfbf" points="63.5,-979.5 63.5,-1036.5 104.5,-1036.5 104.5,-979.5 63.5,-979.5"/>
<text text-anchor="middle" x="84" y="-1024.5" font-family="Helvetica,sans-Serif" font-size="10.00">string</text>
<polyline fill="none" stroke="#bfbfbf" points="63.5,-1017.5 104.5,-1017.5 "/>
<text text-anchor="middle" x="84" y="-1005.5" font-family="Helvetica,sans-Serif" font-size="10.00"> </text>
<polyline fill="none" stroke="#bfbfbf" points="63.5,-998.5 104.5,-998.5 "/>
<text text-anchor="middle" x="84" y="-986.5" font-family="Helvetica,sans-Serif" font-size="10.00"> </text>
</g>
<!-- Node11&#45;&gt;Node9 -->
<g id="edge20" class="edge"><title>Node11&#45;&gt;Node9</title>
<path fill="none" stroke="#404040" d="M104.766,-992.059C116.552,-983.34 131.417,-971.933 144,-961 155.47,-951.034 167.351,-939.925 178.486,-929.123"/>
<polygon fill="none" stroke="#404040" points="178.662,-928.951 180.15,-921.895 187.235,-920.554 185.748,-927.61 178.662,-928.951"/>
<text text-anchor="middle" x="182" y="-947.5" font-family="Helvetica,sans-Serif" font-size="10.00"> #desc</text>
</g>
<!-- Node11&#45;&gt;Node10 -->
<g id="edge2" class="edge"><title>Node11&#45;&gt;Node10</title>
<path fill="none" stroke="#404040" d="M63.2359,-989.441C38.3611,-966.322 0,-923.113 0,-876.5 0,-876.5 0,-876.5 0,-221 0,-160.26 50.6921,-108.419 92.1308,-76.189"/>
<polygon fill="none" stroke="#404040" points="92.3115,-76.0526 94.6891,-69.2447 101.888,-68.821 99.5102,-75.6289 92.3115,-76.0526"/>
<text text-anchor="middle" x="12.5" y="-509" font-family="Helvetica,sans-Serif" font-size="10.00"> #text</text>
</g>
<!-- Node11&#45;&gt;Node12 -->
<g id="edge4" class="edge"><title>Node11&#45;&gt;Node12</title>
<path fill="none" stroke="#404040" d="M104.706,-981.385C109.01,-975.027 113.109,-968.016 116,-961 138.518,-906.344 107.025,-879.718 139,-830 188.279,-753.376 233.266,-766.1 308,-714 330.126,-698.575 354.343,-681.48 375.52,-666.459"/>
<polygon fill="none" stroke="#404040" points="375.547,-666.44 378.124,-659.705 385.332,-659.493 382.755,-666.228 375.547,-666.44"/>
<text text-anchor="middle" x="155.5" y="-873" font-family="Helvetica,sans-Serif" font-size="10.00"> #name</text>
</g>
<!-- Node15 -->
<g id="node7" class="node"><title>Node15</title>
<g id="a_node7"><a xlink:href="class_battle_manager.html" target="_top" xlink:title="Holds current Player and Enemy objects in battle and provides functions for MainBattle and other obje...">
<polygon fill="none" stroke="black" points="171,-127.5 171,-316.5 287,-316.5 287,-127.5 171,-127.5"/>
<text text-anchor="middle" x="229" y="-304.5" font-family="Helvetica,sans-Serif" font-size="10.00">BattleManager</text>
<polyline fill="none" stroke="black" points="171,-297.5 287,-297.5 "/>
<text text-anchor="start" x="179" y="-285.5" font-family="Helvetica,sans-Serif" font-size="10.00">+ Player</text>
<text text-anchor="start" x="179" y="-274.5" font-family="Helvetica,sans-Serif" font-size="10.00">+ Enemy</text>
<text text-anchor="start" x="179" y="-263.5" font-family="Helvetica,sans-Serif" font-size="10.00">+ WasCriticalHit</text>
<polyline fill="none" stroke="black" points="171,-256.5 287,-256.5 "/>
<text text-anchor="start" x="179" y="-244.5" font-family="Helvetica,sans-Serif" font-size="10.00">+ BattleManager()</text>
<text text-anchor="start" x="179" y="-233.5" font-family="Helvetica,sans-Serif" font-size="10.00">+ playerFirst()</text>
<text text-anchor="start" x="179" y="-222.5" font-family="Helvetica,sans-Serif" font-size="10.00">+ switchPlayers()</text>
<text text-anchor="start" x="179" y="-211.5" font-family="Helvetica,sans-Serif" font-size="10.00">+ isCriticalHit()</text>
<text text-anchor="start" x="179" y="-200.5" font-family="Helvetica,sans-Serif" font-size="10.00">+ ranAway()</text>
<text text-anchor="start" x="179" y="-189.5" font-family="Helvetica,sans-Serif" font-size="10.00">+ damageCalculation()</text>
<text text-anchor="start" x="179" y="-178.5" font-family="Helvetica,sans-Serif" font-size="10.00">+ enemyMove()</text>
<text text-anchor="start" x="179" y="-167.5" font-family="Helvetica,sans-Serif" font-size="10.00">+ enemySpecialMove()</text>
<text text-anchor="start" x="179" y="-156.5" font-family="Helvetica,sans-Serif" font-size="10.00">+ battleWon()</text>
<text text-anchor="start" x="179" y="-145.5" font-family="Helvetica,sans-Serif" font-size="10.00">+ playerFainted()</text>
<text text-anchor="start" x="179" y="-134.5" font-family="Helvetica,sans-Serif" font-size="10.00">&#45; characterFainted()</text>
</a>
</g>
</g>
<!-- Node11&#45;&gt;Node15 -->
<g id="edge9" class="edge"><title>Node11&#45;&gt;Node15</title>
<path fill="none" stroke="#404040" d="M75.2959,-979.259C53.5163,-905.471 1.49967,-698.827 46,-535 58.086,-490.506 116.518,-394.4 164.151,-320.532"/>
<polygon fill="none" stroke="#404040" points="164.276,-320.34 164.177,-313.129 170.795,-310.265 170.894,-317.475 164.276,-320.34"/>
<text text-anchor="middle" x="88" y="-627.5" font-family="Helvetica,sans-Serif" font-size="10.00"> +forceEnemyMove</text>
<text text-anchor="middle" x="88" y="-616.5" font-family="Helvetica,sans-Serif" font-size="10.00">+forceCriticalHits</text>
</g>
<!-- Node19 -->
<g id="node11" class="node"><title>Node19</title>
<g id="a_node11"><a xlink:href="class_item.html" target="_top" xlink:title="Abstract class for items that can be equipped to a player, increasing some of their stats ...">
<polygon fill="none" stroke="black" points="63.5,-732.5 63.5,-811.5 140.5,-811.5 140.5,-732.5 63.5,-732.5"/>
<text text-anchor="middle" x="102" y="-799.5" font-family="Helvetica,sans-Serif" font-size="10.00">Item</text>
<polyline fill="none" stroke="black" points="63.5,-792.5 140.5,-792.5 "/>
<text text-anchor="start" x="71.5" y="-780.5" font-family="Helvetica,sans-Serif" font-size="10.00">+ Name</text>
<text text-anchor="start" x="71.5" y="-769.5" font-family="Helvetica,sans-Serif" font-size="10.00">+ Desc</text>
<polyline fill="none" stroke="black" points="63.5,-762.5 140.5,-762.5 "/>
<text text-anchor="start" x="71.5" y="-750.5" font-family="Helvetica,sans-Serif" font-size="10.00">+ applyBuffs()</text>
<text text-anchor="start" x="71.5" y="-739.5" font-family="Helvetica,sans-Serif" font-size="10.00">+ revertBuffs()</text>
</a>
</g>
</g>
<!-- Node11&#45;&gt;Node19 -->
<g id="edge18" class="edge"><title>Node11&#45;&gt;Node19</title>
<path fill="none" stroke="#404040" d="M84.3992,-979.19C84.684,-966.868 85.1705,-952.202 86,-939 88.4389,-900.182 92.7241,-856.392 96.2462,-823.538"/>
<polygon fill="none" stroke="#404040" points="96.2563,-823.445 92.9282,-817.048 97.5533,-811.515 100.881,-817.913 96.2563,-823.445"/>
<text text-anchor="middle" x="101" y="-953" font-family="Helvetica,sans-Serif" font-size="10.00"> #desc</text>
<text text-anchor="middle" x="101" y="-942" font-family="Helvetica,sans-Serif" font-size="10.00">#name</text>
</g>
<!-- Node12&#45;&gt;Node10 -->
<g id="edge3" class="edge"><title>Node12&#45;&gt;Node10</title>
<path fill="none" stroke="#404040" d="M435.928,-535.259C435.522,-477.215 430.501,-400.211 411,-335 380.735,-233.795 370.219,-202.165 296,-127 268.626,-99.277 230.444,-77.6392 199.325,-63.0019"/>
<polygon fill="none" stroke="#404040" points="199.128,-62.9122 192.008,-64.0586 188.212,-57.9277 195.332,-56.7813 199.128,-62.9122"/>
<text text-anchor="middle" x="434" y="-349" font-family="Helvetica,sans-Serif" font-size="10.00"> #target</text>
<text text-anchor="middle" x="434" y="-338" font-family="Helvetica,sans-Serif" font-size="10.00">#user</text>
</g>
<!-- Node16 -->
<g id="node8" class="node"><title>Node16</title>
<g id="a_node8"><a xlink:href="class_enemy.html" target="_top" xlink:title="Defines an AI controller enemy to fight in battle scenes">
<polygon fill="none" stroke="black" points="461.5,-403 461.5,-460 528.5,-460 528.5,-403 461.5,-403"/>
<text text-anchor="middle" x="495" y="-448" font-family="Helvetica,sans-Serif" font-size="10.00">Enemy</text>
<polyline fill="none" stroke="black" points="461.5,-441 528.5,-441 "/>
<text text-anchor="start" x="469.5" y="-429" font-family="Helvetica,sans-Serif" font-size="10.00">+ ExpGiven</text>
<polyline fill="none" stroke="black" points="461.5,-422 528.5,-422 "/>
<text text-anchor="start" x="469.5" y="-410" font-family="Helvetica,sans-Serif" font-size="10.00">+ Enemy()</text>
</a>
</g>
</g>
<!-- Node12&#45;&gt;Node16 -->
<g id="edge11" class="edge"><title>Node12&#45;&gt;Node16</title>
<path fill="none" stroke="midnightblue" d="M464.748,-525.697C472.553,-501.652 480.294,-477.803 485.992,-460.249"/>
<polygon fill="none" stroke="midnightblue" points="461.399,-524.676 461.641,-535.268 468.057,-526.837 461.399,-524.676"/>
</g>
<!-- Node18 -->
<g id="node10" class="node"><title>Node18</title>
<g id="a_node10"><a xlink:href="class_player.html" target="_top" xlink:title="Defines a playable character for use in battle scenes">
<polygon fill="none" stroke="black" points="293,-375.5 293,-487.5 405,-487.5 405,-375.5 293,-375.5"/>
<text text-anchor="middle" x="349" y="-475.5" font-family="Helvetica,sans-Serif" font-size="10.00">Player</text>
<polyline fill="none" stroke="black" points="293,-468.5 405,-468.5 "/>
<text text-anchor="start" x="301" y="-456.5" font-family="Helvetica,sans-Serif" font-size="10.00">+ Exp</text>
<text text-anchor="start" x="301" y="-445.5" font-family="Helvetica,sans-Serif" font-size="10.00">+ Item</text>
<text text-anchor="start" x="301" y="-434.5" font-family="Helvetica,sans-Serif" font-size="10.00">+ ExpToNextLevel</text>
<polyline fill="none" stroke="black" points="293,-427.5 405,-427.5 "/>
<text text-anchor="start" x="301" y="-415.5" font-family="Helvetica,sans-Serif" font-size="10.00">+ Player()</text>
<text text-anchor="start" x="301" y="-404.5" font-family="Helvetica,sans-Serif" font-size="10.00">+ gainExp()</text>
<text text-anchor="start" x="301" y="-393.5" font-family="Helvetica,sans-Serif" font-size="10.00">+ levelUp()</text>
<text text-anchor="start" x="301" y="-382.5" font-family="Helvetica,sans-Serif" font-size="10.00">&#45; setExpToNextLevel()</text>
</a>
</g>
</g>
<!-- Node12&#45;&gt;Node18 -->
<g id="edge16" class="edge"><title>Node12&#45;&gt;Node18</title>
<path fill="none" stroke="midnightblue" d="M390.007,-525.743C384.252,-512.656 378.521,-499.625 373.248,-487.635"/>
<polygon fill="none" stroke="midnightblue" points="386.967,-527.523 394.196,-535.268 393.374,-524.705 386.967,-527.523"/>
</g>
<!-- Node13 -->
<g id="node5" class="node"><title>Node13</title>
<polygon fill="none" stroke="#bfbfbf" points="330.5,-979.5 330.5,-1036.5 359.5,-1036.5 359.5,-979.5 330.5,-979.5"/>
<text text-anchor="middle" x="345" y="-1024.5" font-family="Helvetica,sans-Serif" font-size="10.00">int</text>
<polyline fill="none" stroke="#bfbfbf" points="330.5,-1017.5 359.5,-1017.5 "/>
<text text-anchor="middle" x="345" y="-1005.5" font-family="Helvetica,sans-Serif" font-size="10.00"> </text>
<polyline fill="none" stroke="#bfbfbf" points="330.5,-998.5 359.5,-998.5 "/>
<text text-anchor="middle" x="345" y="-986.5" font-family="Helvetica,sans-Serif" font-size="10.00"> </text>
</g>
<!-- Node13&#45;&gt;Node9 -->
<g id="edge21" class="edge"><title>Node13&#45;&gt;Node9</title>
<path fill="none" stroke="#404040" d="M330.182,-1002.95C310.876,-996.94 277.312,-983.826 258,-961 250.965,-952.685 245.681,-942.544 241.718,-932.212"/>
<polygon fill="none" stroke="#404040" points="241.62,-931.924 235.911,-927.519 237.781,-920.554 243.49,-924.959 241.62,-931.924"/>
<text text-anchor="middle" x="275.5" y="-947.5" font-family="Helvetica,sans-Serif" font-size="10.00"> #magic</text>
</g>
<!-- Node13&#45;&gt;Node12 -->
<g id="edge5" class="edge"><title>Node13&#45;&gt;Node12</title>
<path fill="none" stroke="#404040" d="M358.191,-979.196C376.432,-942.51 411.914,-877.088 454,-830 462.65,-820.322 471.315,-823.669 477,-812 490.063,-785.189 488.581,-754.285 481.139,-725.443"/>
<polygon fill="none" stroke="#404040" points="481.065,-725.186 475.562,-720.527 477.746,-713.655 483.25,-718.314 481.065,-725.186"/>
<text text-anchor="middle" x="491.5" y="-911.5" font-family="Helvetica,sans-Serif" font-size="10.00"> #speed</text>
<text text-anchor="middle" x="491.5" y="-900.5" font-family="Helvetica,sans-Serif" font-size="10.00">#luck</text>
<text text-anchor="middle" x="491.5" y="-889.5" font-family="Helvetica,sans-Serif" font-size="10.00">#health</text>
<text text-anchor="middle" x="491.5" y="-878.5" font-family="Helvetica,sans-Serif" font-size="10.00">#magic</text>
<text text-anchor="middle" x="491.5" y="-867.5" font-family="Helvetica,sans-Serif" font-size="10.00">#maximumMagic</text>
<text text-anchor="middle" x="491.5" y="-856.5" font-family="Helvetica,sans-Serif" font-size="10.00">#attack</text>
<text text-anchor="middle" x="491.5" y="-845.5" font-family="Helvetica,sans-Serif" font-size="10.00">#defence</text>
<text text-anchor="middle" x="491.5" y="-834.5" font-family="Helvetica,sans-Serif" font-size="10.00">#level</text>
</g>
<!-- Node13&#45;&gt;Node15 -->
<g id="edge13" class="edge"><title>Node13&#45;&gt;Node15</title>
<path fill="none" stroke="#404040" d="M338.897,-979.286C337.592,-973.261 336.235,-966.92 335,-961 331.296,-943.252 330.498,-938.789 327,-921 308.923,-829.058 300.335,-806.748 287,-714 262.921,-546.519 275.336,-502.443 251,-335 250.701,-332.944 250.39,-330.869 250.068,-328.779"/>
<polygon fill="none" stroke="#404040" points="250.028,-328.534 245.122,-323.248 248.114,-316.687 253.02,-321.972 250.028,-328.534"/>
<text text-anchor="middle" x="306.5" y="-622" font-family="Helvetica,sans-Serif" font-size="10.00"> +money</text>
</g>
<!-- Node13&#45;&gt;Node16 -->
<g id="edge12" class="edge"><title>Node13&#45;&gt;Node16</title>
<path fill="none" stroke="#404040" d="M359.684,-1007.55C405.753,-1008.36 547.934,-1003.84 608,-921 710.995,-778.96 581.76,-557.769 522.133,-470.112"/>
<polygon fill="none" stroke="#404040" points="522.04,-469.977 515.341,-467.308 515.227,-460.098 521.927,-462.766 522.04,-469.977"/>
<text text-anchor="middle" x="669" y="-769.5" font-family="Helvetica,sans-Serif" font-size="10.00"> &#45;expGiven</text>
</g>
<!-- Node13&#45;&gt;Node18 -->
<g id="edge19" class="edge"><title>Node13&#45;&gt;Node18</title>
<path fill="none" stroke="#404040" d="M342.193,-979.268C338.523,-941.49 332.293,-871.715 330,-812 325.803,-702.725 335.009,-575.841 342.019,-499.974"/>
<polygon fill="none" stroke="#404040" points="342.041,-499.737 338.622,-493.388 343.167,-487.789 346.586,-494.138 342.041,-499.737"/>
<text text-anchor="middle" x="367.5" y="-775" font-family="Helvetica,sans-Serif" font-size="10.00"> &#45;expToNextLevel</text>
<text text-anchor="middle" x="367.5" y="-764" font-family="Helvetica,sans-Serif" font-size="10.00">&#45;exp</text>
</g>
<!-- Node14 -->
<g id="node6" class="node"><title>Node14</title>
<polygon fill="none" stroke="#bfbfbf" points="538.5,-847 538.5,-904 599.5,-904 599.5,-847 538.5,-847"/>
<text text-anchor="middle" x="569" y="-892" font-family="Helvetica,sans-Serif" font-size="10.00">Texture2D</text>
<polyline fill="none" stroke="#bfbfbf" points="538.5,-885 599.5,-885 "/>
<text text-anchor="middle" x="569" y="-873" font-family="Helvetica,sans-Serif" font-size="10.00"> </text>
<polyline fill="none" stroke="#bfbfbf" points="538.5,-866 599.5,-866 "/>
<text text-anchor="middle" x="569" y="-854" font-family="Helvetica,sans-Serif" font-size="10.00"> </text>
</g>
<!-- Node14&#45;&gt;Node12 -->
<g id="edge7" class="edge"><title>Node14&#45;&gt;Node12</title>
<path fill="none" stroke="#404040" d="M558.208,-846.765C546.455,-817.539 526.449,-770.499 505,-732 499.518,-722.16 493.399,-712.061 487.108,-702.187"/>
<polygon fill="none" stroke="#404040" points="487.032,-702.071 480.413,-699.209 480.508,-691.999 487.127,-694.86 487.032,-702.071"/>
<text text-anchor="middle" x="560.5" y="-769.5" font-family="Helvetica,sans-Serif" font-size="10.00"> #image</text>
</g>
<!-- Node15&#45;&gt;Node10 -->
<g id="edge8" class="edge"><title>Node15&#45;&gt;Node10</title>
<path fill="none" stroke="#404040" d="M185.278,-127.31C179.418,-114.752 173.602,-102.291 168.289,-90.9057"/>
<polygon fill="none" stroke="#404040" points="168.235,-90.7895 162.073,-87.044 163.16,-79.9153 169.323,-83.6608 168.235,-90.7895"/>
<text text-anchor="middle" x="198" y="-101" font-family="Helvetica,sans-Serif" font-size="10.00"> #manager</text>
</g>
<!-- Node16&#45;&gt;Node15 -->
<g id="edge10" class="edge"><title>Node16&#45;&gt;Node15</title>
<path fill="none" stroke="#404040" d="M461.136,-405.416C446.926,-395.391 430.008,-384.093 414,-375 397.4,-365.571 390.89,-367.581 375,-357 347.322,-338.569 319.733,-314.954 296.11,-292.697"/>
<polygon fill="none" stroke="#404040" points="295.938,-292.534 288.836,-291.284 287.259,-284.247 294.361,-285.497 295.938,-292.534"/>
<text text-anchor="middle" x="393" y="-343.5" font-family="Helvetica,sans-Serif" font-size="10.00"> &#45;enemy</text>
</g>
<!-- Node17 -->
<g id="node9" class="node"><title>Node17</title>
<polygon fill="none" stroke="#bfbfbf" points="172.5,-403 172.5,-460 207.5,-460 207.5,-403 172.5,-403"/>
<text text-anchor="middle" x="190" y="-448" font-family="Helvetica,sans-Serif" font-size="10.00">bool</text>
<polyline fill="none" stroke="#bfbfbf" points="172.5,-441 207.5,-441 "/>
<text text-anchor="middle" x="190" y="-429" font-family="Helvetica,sans-Serif" font-size="10.00"> </text>
<polyline fill="none" stroke="#bfbfbf" points="172.5,-422 207.5,-422 "/>
<text text-anchor="middle" x="190" y="-410" font-family="Helvetica,sans-Serif" font-size="10.00"> </text>
</g>
<!-- Node17&#45;&gt;Node15 -->
<g id="edge14" class="edge"><title>Node17&#45;&gt;Node15</title>
<path fill="none" stroke="#404040" d="M187.681,-402.95C186.634,-389.163 185.517,-372.211 185,-357 184.668,-347.228 183.181,-344.607 185,-335 185.412,-332.824 185.866,-330.636 186.356,-328.441"/>
<polygon fill="none" stroke="#404040" points="186.391,-328.3 183.972,-321.507 189.311,-316.661 191.731,-323.454 186.391,-328.3"/>
<text text-anchor="middle" x="218" y="-343.5" font-family="Helvetica,sans-Serif" font-size="10.00"> &#45;wasCriticalHit</text>
</g>
<!-- Node18&#45;&gt;Node15 -->
<g id="edge15" class="edge"><title>Node18&#45;&gt;Node15</title>
<path fill="none" stroke="#404040" d="M317.157,-375.439C308.614,-360.665 299.085,-344.188 289.538,-327.68"/>
<polygon fill="none" stroke="#404040" points="289.279,-327.233 282.813,-324.041 283.272,-316.845 289.738,-320.036 289.279,-327.233"/>
<text text-anchor="middle" x="320.5" y="-343.5" font-family="Helvetica,sans-Serif" font-size="10.00"> &#45;player</text>
</g>
<!-- Node19&#45;&gt;Node18 -->
<g id="edge17" class="edge"><title>Node19&#45;&gt;Node18</title>
<path fill="none" stroke="#404040" d="M124.243,-732.265C127.586,-726.191 130.937,-719.954 134,-714 174.203,-635.856 163.235,-603.729 218,-535 236.106,-512.278 260.214,-491.583 282.811,-474.833"/>
<polygon fill="none" stroke="#404040" points="282.997,-474.698 285.513,-467.94 292.718,-467.662 290.203,-474.42 282.997,-474.698"/>
<text text-anchor="middle" x="230.5" y="-622" font-family="Helvetica,sans-Serif" font-size="10.00"> &#45;item</text>
</g>
</g>
</svg>
