<?xml version="1.0" encoding="UTF-8" standalone="no"?>
<!DOCTYPE svg PUBLIC "-//W3C//DTD SVG 1.1//EN"
 "http://www.w3.org/Graphics/SVG/1.1/DTD/svg11.dtd">
<!-- Generated by graphviz version 2.38.0 (20140413.2041)
 -->
<!-- Title: SceneChanger Pages: 1 -->
<svg width="688pt" height="452pt"
 viewBox="0.00 0.00 687.50 452.00" xmlns="http://www.w3.org/2000/svg" xmlns:xlink="http://www.w3.org/1999/xlink">
<g id="graph0" class="graph" transform="scale(1 1) rotate(0) translate(4 448)">
<title>SceneChanger</title>
<!-- Node2 -->
<g id="node1" class="node"><title>Node2</title>
<polygon fill="#bfbfbf" stroke="black" points="213.5,-0.5 213.5,-134.5 311.5,-134.5 311.5,-0.5 213.5,-0.5"/>
<text text-anchor="middle" x="262.5" y="-122.5" font-family="Helvetica,sans-Serif" font-size="10.00">SceneChanger</text>
<polyline fill="none" stroke="black" points="213.5,-115.5 311.5,-115.5 "/>
<text text-anchor="middle" x="262.5" y="-103.5" font-family="Helvetica,sans-Serif" font-size="10.00"> </text>
<polyline fill="none" stroke="black" points="213.5,-96.5 311.5,-96.5 "/>
<text text-anchor="start" x="221.5" y="-84.5" font-family="Helvetica,sans-Serif" font-size="10.00">+ hidePlayer()</text>
<text text-anchor="start" x="221.5" y="-73.5" font-family="Helvetica,sans-Serif" font-size="10.00">+ loadLevel()</text>
<text text-anchor="start" x="221.5" y="-62.5" font-family="Helvetica,sans-Serif" font-size="10.00">+ loadLevel()</text>
<text text-anchor="start" x="221.5" y="-51.5" font-family="Helvetica,sans-Serif" font-size="10.00">+ changePosition()</text>
<text text-anchor="start" x="221.5" y="-40.5" font-family="Helvetica,sans-Serif" font-size="10.00">&#45; Awake()</text>
<text text-anchor="start" x="221.5" y="-29.5" font-family="Helvetica,sans-Serif" font-size="10.00">&#45; OnDisable()</text>
<text text-anchor="start" x="221.5" y="-18.5" font-family="Helvetica,sans-Serif" font-size="10.00">&#45; sceneChanged()</text>
<text text-anchor="start" x="221.5" y="-7.5" font-family="Helvetica,sans-Serif" font-size="10.00">&#45; changeScene()</text>
</g>
<!-- Node2&#45;&gt;Node2 -->
<g id="edge2" class="edge"><title>Node2&#45;&gt;Node2</title>
<path fill="none" stroke="#404040" d="M311.58,-83.8301C321.986,-82.1719 329.5,-76.7285 329.5,-67.5 329.5,-62.1648 326.989,-58.0946 322.859,-55.2896"/>
<polygon fill="none" stroke="#404040" points="322.852,-55.2871 315.844,-56.9857 311.58,-51.1699 318.589,-49.4713 322.852,-55.2871"/>
<text text-anchor="middle" x="352.5" y="-65" font-family="Helvetica,sans-Serif" font-size="10.00"> +instance</text>
</g>
<!-- Node3 -->
<g id="node2" class="node"><title>Node3</title>
<g id="a_node2"><a xlink:href="class_mono_behaviour.html" target="_top" xlink:title="{MonoBehaviour\n||}">
<polygon fill="none" stroke="black" points="0,-386.5 0,-443.5 83,-443.5 83,-386.5 0,-386.5"/>
<text text-anchor="middle" x="41.5" y="-431.5" font-family="Helvetica,sans-Serif" font-size="10.00">MonoBehaviour</text>
<polyline fill="none" stroke="black" points="0,-424.5 83,-424.5 "/>
<text text-anchor="middle" x="41.5" y="-412.5" font-family="Helvetica,sans-Serif" font-size="10.00"> </text>
<polyline fill="none" stroke="black" points="0,-405.5 83,-405.5 "/>
<text text-anchor="middle" x="41.5" y="-393.5" font-family="Helvetica,sans-Serif" font-size="10.00"> </text>
</a>
</g>
</g>
<!-- Node3&#45;&gt;Node2 -->
<g id="edge1" class="edge"><title>Node3&#45;&gt;Node2</title>
<path fill="none" stroke="midnightblue" d="M41.1703,-375.903C42.282,-327.937 49.3881,-244.284 82.5,-182 109.38,-131.438 169.697,-100.495 213.106,-83.9497"/>
<polygon fill="none" stroke="midnightblue" points="37.667,-376.096 41.0123,-386.149 44.6662,-376.204 37.667,-376.096"/>
</g>
<!-- Node7 -->
<g id="node6" class="node"><title>Node7</title>
<g id="a_node6"><a xlink:href="class_player_movement.html" target="_top" xlink:title="A script to control the movement and animations of the player">
<polygon fill="none" stroke="black" points="263,-182.5 263,-316.5 368,-316.5 368,-182.5 263,-182.5"/>
<text text-anchor="middle" x="315.5" y="-304.5" font-family="Helvetica,sans-Serif" font-size="10.00">PlayerMovement</text>
<polyline fill="none" stroke="black" points="263,-297.5 368,-297.5 "/>
<text text-anchor="middle" x="315.5" y="-285.5" font-family="Helvetica,sans-Serif" font-size="10.00"> </text>
<polyline fill="none" stroke="black" points="263,-278.5 368,-278.5 "/>
<text text-anchor="start" x="271" y="-266.5" font-family="Helvetica,sans-Serif" font-size="10.00">+ move()</text>
<text text-anchor="start" x="271" y="-255.5" font-family="Helvetica,sans-Serif" font-size="10.00">+ setCanMove()</text>
<text text-anchor="start" x="271" y="-244.5" font-family="Helvetica,sans-Serif" font-size="10.00">&#45; Start()</text>
<text text-anchor="start" x="271" y="-233.5" font-family="Helvetica,sans-Serif" font-size="10.00">&#45; FixedUpdate()</text>
<text text-anchor="start" x="271" y="-222.5" font-family="Helvetica,sans-Serif" font-size="10.00">&#45; explorationMenu()</text>
<text text-anchor="start" x="271" y="-211.5" font-family="Helvetica,sans-Serif" font-size="10.00">&#45; randomEncounter()</text>
<text text-anchor="start" x="271" y="-200.5" font-family="Helvetica,sans-Serif" font-size="10.00">&#45; walkAnimation()</text>
<text text-anchor="start" x="271" y="-189.5" font-family="Helvetica,sans-Serif" font-size="10.00">&#45; setIdle()</text>
</a>
</g>
</g>
<!-- Node3&#45;&gt;Node7 -->
<g id="edge7" class="edge"><title>Node3&#45;&gt;Node7</title>
<path fill="none" stroke="midnightblue" d="M74.5001,-379.286C91.7418,-363.253 114.099,-345.486 137.5,-335 185.112,-313.666 207.397,-341.424 253.5,-317 256.708,-315.3 259.84,-313.37 262.884,-311.263"/>
<polygon fill="none" stroke="midnightblue" points="71.7648,-377.058 66.9528,-386.497 76.6008,-382.119 71.7648,-377.058"/>
</g>
<!-- Node4 -->
<g id="node3" class="node"><title>Node4</title>
<polygon fill="none" stroke="#bfbfbf" points="101,-386.5 101,-443.5 142,-443.5 142,-386.5 101,-386.5"/>
<text text-anchor="middle" x="121.5" y="-431.5" font-family="Helvetica,sans-Serif" font-size="10.00">string</text>
<polyline fill="none" stroke="#bfbfbf" points="101,-424.5 142,-424.5 "/>
<text text-anchor="middle" x="121.5" y="-412.5" font-family="Helvetica,sans-Serif" font-size="10.00"> </text>
<polyline fill="none" stroke="#bfbfbf" points="101,-405.5 142,-405.5 "/>
<text text-anchor="middle" x="121.5" y="-393.5" font-family="Helvetica,sans-Serif" font-size="10.00"> </text>
</g>
<!-- Node4&#45;&gt;Node2 -->
<g id="edge3" class="edge"><title>Node4&#45;&gt;Node2</title>
<path fill="none" stroke="#404040" d="M110.484,-386.433C94.1932,-341.007 69.1066,-248.809 103.5,-182 124.251,-141.692 166.682,-112.533 202.495,-93.8693"/>
<polygon fill="none" stroke="#404040" points="202.641,-93.7963 206.209,-87.5299 213.366,-88.4134 209.797,-94.6799 202.641,-93.7963"/>
<text text-anchor="middle" x="134" y="-247" font-family="Helvetica,sans-Serif" font-size="10.00"> +menuScene</text>
</g>
<!-- Node4&#45;&gt;Node7 -->
<g id="edge8" class="edge"><title>Node4&#45;&gt;Node7</title>
<path fill="none" stroke="#404040" d="M130.969,-386.138C138.282,-368.818 150.123,-347.535 167.5,-335 196.325,-314.207 215.742,-332.24 251.635,-316.706"/>
<polygon fill="none" stroke="#404040" points="252.07,-316.486 255.61,-310.203 262.771,-311.055 259.23,-317.337 252.07,-316.486"/>
<text text-anchor="middle" x="190" y="-349" font-family="Helvetica,sans-Serif" font-size="10.00"> &#45;lastMove</text>
</g>
<!-- Node5 -->
<g id="node4" class="node"><title>Node5</title>
<polygon fill="none" stroke="#bfbfbf" points="174,-221 174,-278 245,-278 245,-221 174,-221"/>
<text text-anchor="middle" x="209.5" y="-266" font-family="Helvetica,sans-Serif" font-size="10.00">GameObject</text>
<polyline fill="none" stroke="#bfbfbf" points="174,-259 245,-259 "/>
<text text-anchor="middle" x="209.5" y="-247" font-family="Helvetica,sans-Serif" font-size="10.00"> </text>
<polyline fill="none" stroke="#bfbfbf" points="174,-240 245,-240 "/>
<text text-anchor="middle" x="209.5" y="-228" font-family="Helvetica,sans-Serif" font-size="10.00"> </text>
</g>
<!-- Node5&#45;&gt;Node2 -->
<g id="edge4" class="edge"><title>Node5&#45;&gt;Node2</title>
<path fill="none" stroke="#404040" d="M216.693,-220.828C221.745,-201.714 228.775,-175.739 235.5,-153 236.128,-150.877 236.77,-148.726 237.424,-146.557"/>
<polygon fill="none" stroke="#404040" points="237.497,-146.316 235.425,-139.409 241.003,-134.839 243.076,-141.746 237.497,-146.316"/>
<text text-anchor="middle" x="252" y="-156" font-family="Helvetica,sans-Serif" font-size="10.00"> &#45;player</text>
</g>
<!-- Node6 -->
<g id="node5" class="node"><title>Node6</title>
<polygon fill="none" stroke="#bfbfbf" points="413.5,-386.5 413.5,-443.5 463.5,-443.5 463.5,-386.5 413.5,-386.5"/>
<text text-anchor="middle" x="438.5" y="-431.5" font-family="Helvetica,sans-Serif" font-size="10.00">Vector2</text>
<polyline fill="none" stroke="#bfbfbf" points="413.5,-424.5 463.5,-424.5 "/>
<text text-anchor="middle" x="438.5" y="-412.5" font-family="Helvetica,sans-Serif" font-size="10.00"> </text>
<polyline fill="none" stroke="#bfbfbf" points="413.5,-405.5 463.5,-405.5 "/>
<text text-anchor="middle" x="438.5" y="-393.5" font-family="Helvetica,sans-Serif" font-size="10.00"> </text>
</g>
<!-- Node6&#45;&gt;Node2 -->
<g id="edge5" class="edge"><title>Node6&#45;&gt;Node2</title>
<path fill="none" stroke="#404040" d="M446.927,-386.432C450.439,-371.188 452.98,-351.956 449.5,-335 431.805,-248.793 425.326,-222.624 371.5,-153 357.661,-135.099 339.186,-118.899 321.383,-105.584"/>
<polygon fill="none" stroke="#404040" points="321.313,-105.533 314.107,-105.251 311.596,-98.4916 318.802,-98.7736 321.313,-105.533"/>
<text text-anchor="middle" x="478.5" y="-247" font-family="Helvetica,sans-Serif" font-size="10.00"> +startPosition</text>
</g>
<!-- Node6&#45;&gt;Node7 -->
<g id="edge11" class="edge"><title>Node6&#45;&gt;Node7</title>
<path fill="none" stroke="#404040" d="M413.247,-400.62C399.84,-392.554 383.839,-381.275 372.5,-368 362.233,-355.979 353.33,-341.79 345.81,-327.505"/>
<polygon fill="none" stroke="#404040" points="345.717,-327.319 339.449,-323.754 340.329,-316.597 346.597,-320.162 345.717,-327.319"/>
<text text-anchor="middle" x="411" y="-349" font-family="Helvetica,sans-Serif" font-size="10.00"> &#45;previousPosition</text>
</g>
<!-- Node7&#45;&gt;Node2 -->
<g id="edge6" class="edge"><title>Node7&#45;&gt;Node2</title>
<path fill="none" stroke="#404040" d="M296.066,-182.497C292.631,-170.833 289.026,-158.589 285.505,-146.629"/>
<polygon fill="none" stroke="#404040" points="285.41,-146.308 279.878,-141.682 282.021,-134.796 287.552,-139.422 285.41,-146.308"/>
<text text-anchor="middle" x="329.5" y="-156" font-family="Helvetica,sans-Serif" font-size="10.00"> &#45;movementScript</text>
</g>
<!-- Node8 -->
<g id="node7" class="node"><title>Node8</title>
<polygon fill="none" stroke="#bfbfbf" points="237.5,-386.5 237.5,-443.5 293.5,-443.5 293.5,-386.5 237.5,-386.5"/>
<text text-anchor="middle" x="265.5" y="-431.5" font-family="Helvetica,sans-Serif" font-size="10.00">Animator</text>
<polyline fill="none" stroke="#bfbfbf" points="237.5,-424.5 293.5,-424.5 "/>
<text text-anchor="middle" x="265.5" y="-412.5" font-family="Helvetica,sans-Serif" font-size="10.00"> </text>
<polyline fill="none" stroke="#bfbfbf" points="237.5,-405.5 293.5,-405.5 "/>
<text text-anchor="middle" x="265.5" y="-393.5" font-family="Helvetica,sans-Serif" font-size="10.00"> </text>
</g>
<!-- Node8&#45;&gt;Node7 -->
<g id="edge9" class="edge"><title>Node8&#45;&gt;Node7</title>
<path fill="none" stroke="#404040" d="M270.331,-386.304C273.278,-371.022 277.449,-351.794 282.5,-335 283.18,-332.738 283.894,-330.45 284.636,-328.149"/>
<polygon fill="none" stroke="#404040" points="284.705,-327.942 282.832,-320.978 288.54,-316.571 290.413,-323.535 284.705,-327.942"/>
<text text-anchor="middle" x="296.5" y="-349" font-family="Helvetica,sans-Serif" font-size="10.00"> &#45;anim</text>
</g>
<!-- Node9 -->
<g id="node8" class="node"><title>Node9</title>
<polygon fill="none" stroke="#bfbfbf" points="312,-386.5 312,-443.5 347,-443.5 347,-386.5 312,-386.5"/>
<text text-anchor="middle" x="329.5" y="-431.5" font-family="Helvetica,sans-Serif" font-size="10.00">float</text>
<polyline fill="none" stroke="#bfbfbf" points="312,-424.5 347,-424.5 "/>
<text text-anchor="middle" x="329.5" y="-412.5" font-family="Helvetica,sans-Serif" font-size="10.00"> </text>
<polyline fill="none" stroke="#bfbfbf" points="312,-405.5 347,-405.5 "/>
<text text-anchor="middle" x="329.5" y="-393.5" font-family="Helvetica,sans-Serif" font-size="10.00"> </text>
</g>
<!-- Node9&#45;&gt;Node7 -->
<g id="edge10" class="edge"><title>Node9&#45;&gt;Node7</title>
<path fill="none" stroke="#404040" d="M320.317,-386.037C318.744,-380.142 317.345,-373.915 316.5,-368 314.706,-355.451 313.725,-342.071 313.266,-329.002"/>
<polygon fill="none" stroke="#404040" points="313.257,-328.603 309.118,-322.697 312.978,-316.606 317.116,-322.511 313.257,-328.603"/>
<text text-anchor="middle" x="333" y="-349" font-family="Helvetica,sans-Serif" font-size="10.00"> &#45;speed</text>
</g>
<!-- Node10 -->
<g id="node9" class="node"><title>Node10</title>
<polygon fill="none" stroke="#bfbfbf" points="504,-386.5 504,-443.5 539,-443.5 539,-386.5 504,-386.5"/>
<text text-anchor="middle" x="521.5" y="-431.5" font-family="Helvetica,sans-Serif" font-size="10.00">bool</text>
<polyline fill="none" stroke="#bfbfbf" points="504,-424.5 539,-424.5 "/>
<text text-anchor="middle" x="521.5" y="-412.5" font-family="Helvetica,sans-Serif" font-size="10.00"> </text>
<polyline fill="none" stroke="#bfbfbf" points="504,-405.5 539,-405.5 "/>
<text text-anchor="middle" x="521.5" y="-393.5" font-family="Helvetica,sans-Serif" font-size="10.00"> </text>
</g>
<!-- Node10&#45;&gt;Node2 -->
<g id="edge14" class="edge"><title>Node10&#45;&gt;Node2</title>
<path fill="none" stroke="#404040" d="M539.2,-409.884C559.097,-404.206 590.452,-391.847 604.5,-368 644.534,-300.041 602.407,-260.848 514.5,-182 459.093,-132.302 378.309,-101.16 323.245,-84.3324"/>
<polygon fill="none" stroke="#404040" points="323.061,-84.278 316.17,-86.402 311.559,-80.8579 318.45,-78.7338 323.061,-84.278"/>
<text text-anchor="middle" x="649.5" y="-252.5" font-family="Helvetica,sans-Serif" font-size="10.00"> +movePlayer</text>
<text text-anchor="middle" x="649.5" y="-241.5" font-family="Helvetica,sans-Serif" font-size="10.00">+menuOpen</text>
</g>
<!-- Node10&#45;&gt;Node7 -->
<g id="edge12" class="edge"><title>Node10&#45;&gt;Node7</title>
<path fill="none" stroke="#404040" d="M503.879,-389.791C491.062,-373.186 472.662,-351.296 453.5,-335 430.85,-315.737 403.341,-297.959 378.862,-283.73"/>
<polygon fill="none" stroke="#404040" points="378.64,-283.604 371.446,-284.102 368.219,-277.654 375.413,-277.155 378.64,-283.604"/>
<text text-anchor="middle" x="543.5" y="-360" font-family="Helvetica,sans-Serif" font-size="10.00"> &#45;playerExists</text>
<text text-anchor="middle" x="543.5" y="-349" font-family="Helvetica,sans-Serif" font-size="10.00">+pseudoEscapeKeyPress</text>
<text text-anchor="middle" x="543.5" y="-338" font-family="Helvetica,sans-Serif" font-size="10.00">&#45;canMove</text>
</g>
<!-- Node11 -->
<g id="node10" class="node"><title>Node11</title>
<polygon fill="none" stroke="#bfbfbf" points="160,-386.5 160,-443.5 219,-443.5 219,-386.5 160,-386.5"/>
<text text-anchor="middle" x="189.5" y="-431.5" font-family="Helvetica,sans-Serif" font-size="10.00">Transform</text>
<polyline fill="none" stroke="#bfbfbf" points="160,-424.5 219,-424.5 "/>
<text text-anchor="middle" x="189.5" y="-412.5" font-family="Helvetica,sans-Serif" font-size="10.00"> </text>
<polyline fill="none" stroke="#bfbfbf" points="160,-405.5 219,-405.5 "/>
<text text-anchor="middle" x="189.5" y="-393.5" font-family="Helvetica,sans-Serif" font-size="10.00"> </text>
</g>
<!-- Node11&#45;&gt;Node7 -->
<g id="edge13" class="edge"><title>Node11&#45;&gt;Node7</title>
<path fill="none" stroke="#404040" d="M204.438,-386.437C213.326,-370.848 225.235,-351.278 237.5,-335 238.591,-333.552 245.346,-326.119 254.461,-316.216"/>
<polygon fill="none" stroke="#404040" points="254.464,-316.213 255.593,-309.09 262.601,-307.393 261.473,-314.515 254.464,-316.213"/>
<text text-anchor="middle" x="254" y="-349" font-family="Helvetica,sans-Serif" font-size="10.00"> &#45;player</text>
</g>
</g>
</svg>
