<?xml version="1.0" encoding="UTF-8" standalone="no"?>
<!DOCTYPE svg PUBLIC "-//W3C//DTD SVG 1.1//EN"
 "http://www.w3.org/Graphics/SVG/1.1/DTD/svg11.dtd">
<!-- Generated by graphviz version 2.38.0 (20140413.2041)
 -->
<!-- Title: DataManager Pages: 1 -->
<!--zoomable 1265 -->
<svg id="main" version="1.1" xmlns="http://www.w3.org/2000/svg" xmlns:xlink="http://www.w3.org/1999/xlink" xml:space="preserve" onload="init(evt)">
<style type="text/css"><![CDATA[
.edge:hover path { stroke: red; }
.edge:hover polygon { stroke: red; fill: red; }
]]></style>
<script type="text/javascript"><![CDATA[
var edges = document.getElementsByTagName('g');
if (edges && edges.length) {
  for (var i=0;i<edges.length;i++) {
    if (edges[i].id.substr(0,4)=='edge') {
      edges[i].setAttribute('class','edge');
    }
  }
}
]]></script>
        <defs>
                <circle id="rim" cx="0" cy="0" r="7"/>
                <circle id="rim2" cx="0" cy="0" r="3.5"/>
                <g id="zoomPlus">
                        <use xlink:href="#rim" fill="#404040">
                                <set attributeName="fill" to="#808080" begin="zoomplus.mouseover" end="zoomplus.mouseout"/>
                        </use>
                        <path d="M-4,0h8M0,-4v8" fill="none" stroke="white" stroke-width="1.5" pointer-events="none"/>
                </g>
                <g id="zoomMin">
                        <use xlink:href="#rim" fill="#404040">
                                <set attributeName="fill" to="#808080" begin="zoomminus.mouseover" end="zoomminus.mouseout"/>
                        </use>
                        <path d="M-4,0h8" fill="none" stroke="white" stroke-width="1.5" pointer-events="none"/>
                </g>
                <g id="dirArrow">
                        <path fill="none" stroke="white" stroke-width="1.5" d="M0,-3.0v7 M-2.5,-0.5L0,-3.0L2.5,-0.5"/>
                </g>
               <g id="resetDef">
                       <use xlink:href="#rim2" fill="#404040">
                               <set attributeName="fill" to="#808080" begin="reset.mouseover" end="reset.mouseout"/>
                       </use>
               </g>
        </defs>

<script type="text/javascript">
var viewWidth = 738;
var viewHeight = 1265;
var sectionId = 'dynsection-0';
</script>
<script xlink:href="svgpan.js"/>
<svg id="graph" class="graph">
<g id="viewport">
<title>DataManager</title>
<!-- Node1 -->
<g id="node1" class="node"><title>Node1</title>
<polygon fill="#bfbfbf" stroke="black" points="181,-681 181,-815 273,-815 273,-681 181,-681"/>
<text text-anchor="middle" x="227" y="-803" font-family="Helvetica,sans-Serif" font-size="10.00">DataManager</text>
<polyline fill="none" stroke="black" points="181,-796 273,-796 "/>
<text text-anchor="start" x="189" y="-784" font-family="Helvetica,sans-Serif" font-size="10.00">+ Players</text>
<text text-anchor="start" x="189" y="-773" font-family="Helvetica,sans-Serif" font-size="10.00">+ Alive</text>
<text text-anchor="start" x="189" y="-762" font-family="Helvetica,sans-Serif" font-size="10.00">+ Items</text>
<text text-anchor="start" x="189" y="-751" font-family="Helvetica,sans-Serif" font-size="10.00">+ Money</text>
<polyline fill="none" stroke="black" points="181,-744 273,-744 "/>
<text text-anchor="start" x="189" y="-732" font-family="Helvetica,sans-Serif" font-size="10.00">+ DataManager()</text>
<text text-anchor="start" x="189" y="-721" font-family="Helvetica,sans-Serif" font-size="10.00">+ getFirstPlayer()</text>
<text text-anchor="start" x="189" y="-710" font-family="Helvetica,sans-Serif" font-size="10.00">+ addPlayer()</text>
<text text-anchor="start" x="189" y="-699" font-family="Helvetica,sans-Serif" font-size="10.00">+ swapPlayers()</text>
<text text-anchor="start" x="189" y="-688" font-family="Helvetica,sans-Serif" font-size="10.00">+ addItem()</text>
</g>
<!-- Node2 -->
<g id="node2" class="node"><title>Node2</title>
<polygon fill="none" stroke="#bfbfbf" points="165.5,-918 165.5,-975 234.5,-975 234.5,-918 165.5,-918"/>
<text text-anchor="middle" x="200" y="-963" font-family="Helvetica,sans-Serif" font-size="10.00">List&lt; Item &gt;</text>
<polyline fill="none" stroke="#bfbfbf" points="165.5,-956 234.5,-956 "/>
<text text-anchor="middle" x="200" y="-944" font-family="Helvetica,sans-Serif" font-size="10.00"> </text>
<polyline fill="none" stroke="#bfbfbf" points="165.5,-937 234.5,-937 "/>
<text text-anchor="middle" x="200" y="-925" font-family="Helvetica,sans-Serif" font-size="10.00"> </text>
</g>
<!-- Node2&#45;&gt;Node1 -->
<g id="edge1" class="edge"><title>Node2&#45;&gt;Node1</title>
<path fill="none" stroke="#404040" d="M203.811,-917.763C207.046,-894.217 211.851,-859.252 216.249,-827.245"/>
<polygon fill="none" stroke="#404040" points="216.277,-827.041 213.131,-820.552 217.91,-815.153 221.056,-821.641 216.277,-827.041"/>
<text text-anchor="middle" x="227.5" y="-864" font-family="Helvetica,sans-Serif" font-size="10.00"> &#45;items</text>
</g>
<!-- Node3 -->
<g id="node3" class="node"><title>Node3</title>
<polygon fill="none" stroke="#bfbfbf" points="339.5,-1072.5 339.5,-1129.5 368.5,-1129.5 368.5,-1072.5 339.5,-1072.5"/>
<text text-anchor="middle" x="354" y="-1117.5" font-family="Helvetica,sans-Serif" font-size="10.00">int</text>
<polyline fill="none" stroke="#bfbfbf" points="339.5,-1110.5 368.5,-1110.5 "/>
<text text-anchor="middle" x="354" y="-1098.5" font-family="Helvetica,sans-Serif" font-size="10.00"> </text>
<polyline fill="none" stroke="#bfbfbf" points="339.5,-1091.5 368.5,-1091.5 "/>
<text text-anchor="middle" x="354" y="-1079.5" font-family="Helvetica,sans-Serif" font-size="10.00"> </text>
</g>
<!-- Node3&#45;&gt;Node1 -->
<g id="edge2" class="edge"><title>Node3&#45;&gt;Node1</title>
<path fill="none" stroke="#404040" d="M339.33,-1083.74C323.58,-1065.42 298.948,-1034.12 285,-1003 271.073,-971.931 253.468,-889.562 241.327,-826.975"/>
<polygon fill="none" stroke="#404040" points="241.317,-826.923 236.256,-821.787 239.05,-815.139 244.112,-820.275 241.317,-826.923"/>
<text text-anchor="middle" x="303" y="-949.5" font-family="Helvetica,sans-Serif" font-size="10.00"> &#45;money</text>
<text text-anchor="middle" x="303" y="-938.5" font-family="Helvetica,sans-Serif" font-size="10.00">&#45;alive</text>
</g>
<!-- Node4 -->
<g id="node4" class="node"><title>Node4</title>
<g id="a_node4"><a xlink:href="class_player.html" target="_top" xlink:title="Defines a playable character for use in battle scenes">
<polygon fill="none" stroke="black" points="401,-890.5 401,-1002.5 513,-1002.5 513,-890.5 401,-890.5"/>
<text text-anchor="middle" x="457" y="-990.5" font-family="Helvetica,sans-Serif" font-size="10.00">Player</text>
<polyline fill="none" stroke="black" points="401,-983.5 513,-983.5 "/>
<text text-anchor="start" x="409" y="-971.5" font-family="Helvetica,sans-Serif" font-size="10.00">+ Exp</text>
<text text-anchor="start" x="409" y="-960.5" font-family="Helvetica,sans-Serif" font-size="10.00">+ Item</text>
<text text-anchor="start" x="409" y="-949.5" font-family="Helvetica,sans-Serif" font-size="10.00">+ ExpToNextLevel</text>
<polyline fill="none" stroke="black" points="401,-942.5 513,-942.5 "/>
<text text-anchor="start" x="409" y="-930.5" font-family="Helvetica,sans-Serif" font-size="10.00">+ Player()</text>
<text text-anchor="start" x="409" y="-919.5" font-family="Helvetica,sans-Serif" font-size="10.00">+ gainExp()</text>
<text text-anchor="start" x="409" y="-908.5" font-family="Helvetica,sans-Serif" font-size="10.00">+ levelUp()</text>
<text text-anchor="start" x="409" y="-897.5" font-family="Helvetica,sans-Serif" font-size="10.00">&#45; setExpToNextLevel()</text>
</a>
</g>
</g>
<!-- Node3&#45;&gt;Node4 -->
<g id="edge23" class="edge"><title>Node3&#45;&gt;Node4</title>
<path fill="none" stroke="#404040" d="M368.527,-1075.48C378.031,-1059.72 390.889,-1038.92 403,-1021 404.912,-1018.17 406.885,-1015.3 408.895,-1012.41"/>
<polygon fill="none" stroke="#404040" points="408.927,-1012.36 409.113,-1005.15 415.838,-1002.55 415.653,-1009.76 408.927,-1012.36"/>
<text text-anchor="middle" x="440.5" y="-1035" font-family="Helvetica,sans-Serif" font-size="10.00"> &#45;expToNextLevel</text>
<text text-anchor="middle" x="440.5" y="-1024" font-family="Helvetica,sans-Serif" font-size="10.00">&#45;exp</text>
</g>
<!-- Node5 -->
<g id="node5" class="node"><title>Node5</title>
<g id="a_node5"><a xlink:href="class_character.html" target="_top" xlink:title="Base abstract class for Enemy and Player to inherit from. Defines all shared variables, their constructor and their setters and getters ">
<polygon fill="none" stroke="black" points="258.5,-95.5 258.5,-262.5 353.5,-262.5 353.5,-95.5 258.5,-95.5"/>
<text text-anchor="middle" x="306" y="-250.5" font-family="Helvetica,sans-Serif" font-size="10.00">Character</text>
<polyline fill="none" stroke="black" points="258.5,-243.5 353.5,-243.5 "/>
<text text-anchor="start" x="266.5" y="-231.5" font-family="Helvetica,sans-Serif" font-size="10.00">+ Name</text>
<text text-anchor="start" x="266.5" y="-220.5" font-family="Helvetica,sans-Serif" font-size="10.00">+ Level</text>
<text text-anchor="start" x="266.5" y="-209.5" font-family="Helvetica,sans-Serif" font-size="10.00">+ Health</text>
<text text-anchor="start" x="266.5" y="-198.5" font-family="Helvetica,sans-Serif" font-size="10.00">+ Attack</text>
<text text-anchor="start" x="266.5" y="-187.5" font-family="Helvetica,sans-Serif" font-size="10.00">+ Defence</text>
<text text-anchor="start" x="266.5" y="-176.5" font-family="Helvetica,sans-Serif" font-size="10.00">+ MaximumMagic</text>
<text text-anchor="start" x="266.5" y="-165.5" font-family="Helvetica,sans-Serif" font-size="10.00">+ Magic</text>
<text text-anchor="start" x="266.5" y="-154.5" font-family="Helvetica,sans-Serif" font-size="10.00">+ Luck</text>
<text text-anchor="start" x="266.5" y="-143.5" font-family="Helvetica,sans-Serif" font-size="10.00">+ Speed</text>
<text text-anchor="start" x="266.5" y="-132.5" font-family="Helvetica,sans-Serif" font-size="10.00">+ Special1</text>
<text text-anchor="start" x="266.5" y="-121.5" font-family="Helvetica,sans-Serif" font-size="10.00">+ Special2</text>
<polyline fill="none" stroke="black" points="258.5,-114.5 353.5,-114.5 "/>
<text text-anchor="start" x="266.5" y="-102.5" font-family="Helvetica,sans-Serif" font-size="10.00"># Character()</text>
</a>
</g>
</g>
<!-- Node3&#45;&gt;Node5 -->
<g id="edge6" class="edge"><title>Node3&#45;&gt;Node5</title>
<path fill="none" stroke="#404040" d="M356.119,-1072.18C363.287,-970.813 383.825,-611.919 340,-321 337.713,-305.821 334.588,-289.875 331.152,-274.389"/>
<polygon fill="none" stroke="#404040" points="331.145,-274.356 325.91,-269.397 328.474,-262.657 333.709,-267.616 331.145,-274.356"/>
<text text-anchor="middle" x="403.5" y="-627" font-family="Helvetica,sans-Serif" font-size="10.00"> #speed</text>
<text text-anchor="middle" x="403.5" y="-616" font-family="Helvetica,sans-Serif" font-size="10.00">#luck</text>
<text text-anchor="middle" x="403.5" y="-605" font-family="Helvetica,sans-Serif" font-size="10.00">#health</text>
<text text-anchor="middle" x="403.5" y="-594" font-family="Helvetica,sans-Serif" font-size="10.00">#magic</text>
<text text-anchor="middle" x="403.5" y="-583" font-family="Helvetica,sans-Serif" font-size="10.00">#maximumMagic</text>
<text text-anchor="middle" x="403.5" y="-572" font-family="Helvetica,sans-Serif" font-size="10.00">#attack</text>
<text text-anchor="middle" x="403.5" y="-561" font-family="Helvetica,sans-Serif" font-size="10.00">#defence</text>
<text text-anchor="middle" x="403.5" y="-550" font-family="Helvetica,sans-Serif" font-size="10.00">#level</text>
</g>
<!-- Node7 -->
<g id="node7" class="node"><title>Node7</title>
<g id="a_node7"><a xlink:href="class_special_move.html" target="_top" xlink:title="Special move abstract base class that expands upon CharacterMove, adding magic properties ...">
<polygon fill="none" stroke="black" points="172,-321.5 172,-411.5 270,-411.5 270,-321.5 172,-321.5"/>
<text text-anchor="middle" x="221" y="-399.5" font-family="Helvetica,sans-Serif" font-size="10.00">SpecialMove</text>
<polyline fill="none" stroke="black" points="172,-392.5 270,-392.5 "/>
<text text-anchor="start" x="180" y="-380.5" font-family="Helvetica,sans-Serif" font-size="10.00">+ Magic</text>
<text text-anchor="start" x="180" y="-369.5" font-family="Helvetica,sans-Serif" font-size="10.00">+ Desc</text>
<polyline fill="none" stroke="black" points="172,-362.5 270,-362.5 "/>
<text text-anchor="start" x="180" y="-350.5" font-family="Helvetica,sans-Serif" font-size="10.00">+ setUp()</text>
<text text-anchor="start" x="180" y="-339.5" font-family="Helvetica,sans-Serif" font-size="10.00">+ decreaseMagic()</text>
<text text-anchor="start" x="180" y="-328.5" font-family="Helvetica,sans-Serif" font-size="10.00"># SpecialMove()</text>
</a>
</g>
</g>
<!-- Node3&#45;&gt;Node7 -->
<g id="edge20" class="edge"><title>Node3&#45;&gt;Node7</title>
<path fill="none" stroke="#404040" d="M349.739,-1072.47C343.512,-1032.33 331.52,-955.405 321,-890 304.047,-784.605 306.361,-756.933 282,-653 268.846,-596.88 256.546,-585.259 244,-529 236.272,-494.348 230.598,-454.907 226.819,-423.676"/>
<polygon fill="none" stroke="#404040" points="226.812,-423.622 222.14,-418.129 225.413,-411.704 230.086,-417.196 226.812,-423.622"/>
<text text-anchor="middle" x="331.5" y="-745.5" font-family="Helvetica,sans-Serif" font-size="10.00"> #magic</text>
</g>
<!-- Node9 -->
<g id="node9" class="node"><title>Node9</title>
<g id="a_node9"><a xlink:href="class_battle_manager.html" target="_top" xlink:title="{BattleManager\n|+ Player\l+ Enemy\l+ WasCriticalHit\l|+ BattleManager()\l+ playerFirst()\l+ switchPlayers()\l+ isCriticalHit()\l+ ranAway()\l+ damageCalculation()\l+ enemyMove()\l+ enemySpecialMove()\l+ battleWon()\l+ playerFainted()\l&#45; characterFainted()\l}">
<polygon fill="none" stroke="black" points="492,-653.5 492,-842.5 608,-842.5 608,-653.5 492,-653.5"/>
<text text-anchor="middle" x="550" y="-830.5" font-family="Helvetica,sans-Serif" font-size="10.00">BattleManager</text>
<polyline fill="none" stroke="black" points="492,-823.5 608,-823.5 "/>
<text text-anchor="start" x="500" y="-811.5" font-family="Helvetica,sans-Serif" font-size="10.00">+ Player</text>
<text text-anchor="start" x="500" y="-800.5" font-family="Helvetica,sans-Serif" font-size="10.00">+ Enemy</text>
<text text-anchor="start" x="500" y="-789.5" font-family="Helvetica,sans-Serif" font-size="10.00">+ WasCriticalHit</text>
<polyline fill="none" stroke="black" points="492,-782.5 608,-782.5 "/>
<text text-anchor="start" x="500" y="-770.5" font-family="Helvetica,sans-Serif" font-size="10.00">+ BattleManager()</text>
<text text-anchor="start" x="500" y="-759.5" font-family="Helvetica,sans-Serif" font-size="10.00">+ playerFirst()</text>
<text text-anchor="start" x="500" y="-748.5" font-family="Helvetica,sans-Serif" font-size="10.00">+ switchPlayers()</text>
<text text-anchor="start" x="500" y="-737.5" font-family="Helvetica,sans-Serif" font-size="10.00">+ isCriticalHit()</text>
<text text-anchor="start" x="500" y="-726.5" font-family="Helvetica,sans-Serif" font-size="10.00">+ ranAway()</text>
<text text-anchor="start" x="500" y="-715.5" font-family="Helvetica,sans-Serif" font-size="10.00">+ damageCalculation()</text>
<text text-anchor="start" x="500" y="-704.5" font-family="Helvetica,sans-Serif" font-size="10.00">+ enemyMove()</text>
<text text-anchor="start" x="500" y="-693.5" font-family="Helvetica,sans-Serif" font-size="10.00">+ enemySpecialMove()</text>
<text text-anchor="start" x="500" y="-682.5" font-family="Helvetica,sans-Serif" font-size="10.00">+ battleWon()</text>
<text text-anchor="start" x="500" y="-671.5" font-family="Helvetica,sans-Serif" font-size="10.00">+ playerFainted()</text>
<text text-anchor="start" x="500" y="-660.5" font-family="Helvetica,sans-Serif" font-size="10.00">&#45; characterFainted()</text>
</a>
</g>
</g>
<!-- Node3&#45;&gt;Node9 -->
<g id="edge16" class="edge"><title>Node3&#45;&gt;Node9</title>
<path fill="none" stroke="#404040" d="M368.591,-1086.33C378.633,-1077.7 392.698,-1067.07 407,-1061 450.989,-1042.33 468.458,-1060.31 513,-1043 543.567,-1031.12 555.322,-1029.23 575,-1003 614.274,-950.645 630.798,-924.256 614,-861 613.386,-858.687 612.711,-856.371 611.982,-854.058"/>
<polygon fill="none" stroke="#404040" points="611.908,-853.846 606.139,-849.518 607.916,-842.53 613.684,-846.857 611.908,-853.846"/>
<text text-anchor="middle" x="640.5" y="-944" font-family="Helvetica,sans-Serif" font-size="10.00"> +money</text>
</g>
<!-- Node10 -->
<g id="node10" class="node"><title>Node10</title>
<g id="a_node10"><a xlink:href="class_enemy.html" target="_top" xlink:title="Defines an AI controller enemy to fight in battle scenes">
<polygon fill="none" stroke="black" points="272.5,-0.5 272.5,-57.5 339.5,-57.5 339.5,-0.5 272.5,-0.5"/>
<text text-anchor="middle" x="306" y="-45.5" font-family="Helvetica,sans-Serif" font-size="10.00">Enemy</text>
<polyline fill="none" stroke="black" points="272.5,-38.5 339.5,-38.5 "/>
<text text-anchor="start" x="280.5" y="-26.5" font-family="Helvetica,sans-Serif" font-size="10.00">+ ExpGiven</text>
<polyline fill="none" stroke="black" points="272.5,-19.5 339.5,-19.5 "/>
<text text-anchor="start" x="280.5" y="-7.5" font-family="Helvetica,sans-Serif" font-size="10.00">+ Enemy()</text>
</a>
</g>
</g>
<!-- Node3&#45;&gt;Node10 -->
<g id="edge15" class="edge"><title>Node3&#45;&gt;Node10</title>
<path fill="none" stroke="#404040" d="M339.23,-1097.41C301.954,-1090.04 203.653,-1065.34 156,-1003 136.349,-977.29 46,-463.36 46,-431 46,-431 46,-431 46,-178 46,-80.6609 185.338,-46.5229 260.006,-35.2172"/>
<polygon fill="none" stroke="#404040" points="260.395,-35.1621 265.774,-30.359 272.276,-33.4765 266.897,-38.2797 260.395,-35.1621"/>
<text text-anchor="middle" x="84" y="-486.5" font-family="Helvetica,sans-Serif" font-size="10.00"> &#45;expGiven</text>
</g>
<!-- Node4&#45;&gt;Node1 -->
<g id="edge3" class="edge"><title>Node4&#45;&gt;Node1</title>
<path fill="none" stroke="#404040" d="M400.899,-920.015C365.433,-902.006 320.193,-875.356 287,-843 281.318,-837.461 275.918,-831.287 270.854,-824.822"/>
<polygon fill="none" stroke="#404040" points="270.846,-824.811 264.055,-822.384 263.683,-815.183 270.474,-817.609 270.846,-824.811"/>
<text text-anchor="middle" x="340" y="-864" font-family="Helvetica,sans-Serif" font-size="10.00"> &#45;players</text>
</g>
<!-- Node4&#45;&gt;Node9 -->
<g id="edge18" class="edge"><title>Node4&#45;&gt;Node9</title>
<path fill="none" stroke="#404040" d="M483.153,-890.241C488.597,-878.739 494.503,-866.259 500.477,-853.637"/>
<polygon fill="none" stroke="#404040" points="500.6,-853.377 499.551,-846.242 505.734,-842.53 506.782,-849.665 500.6,-853.377"/>
<text text-anchor="middle" x="512.5" y="-864" font-family="Helvetica,sans-Serif" font-size="10.00"> &#45;player</text>
</g>
<!-- Node5&#45;&gt;Node4 -->
<g id="edge4" class="edge"><title>Node5&#45;&gt;Node4</title>
<path fill="none" stroke="midnightblue" d="M361.924,-216.434C405.269,-249.542 458,-302.721 458,-365.5 458,-749 458,-749 458,-749 458,-796.761 457.701,-851.051 457.43,-890.445"/>
<polygon fill="none" stroke="midnightblue" points="363.786,-213.457 353.677,-210.285 359.602,-219.069 363.786,-213.457"/>
</g>
<!-- Node8 -->
<g id="node8" class="node"><title>Node8</title>
<g id="a_node8"><a xlink:href="class_character_move.html" target="_top" xlink:title="Astract base class for character moves ">
<polygon fill="none" stroke="black" points="253,-449.5 253,-528.5 339,-528.5 339,-449.5 253,-449.5"/>
<text text-anchor="middle" x="296" y="-516.5" font-family="Helvetica,sans-Serif" font-size="10.00">CharacterMove</text>
<polyline fill="none" stroke="black" points="253,-509.5 339,-509.5 "/>
<text text-anchor="start" x="261" y="-497.5" font-family="Helvetica,sans-Serif" font-size="10.00">+ User</text>
<text text-anchor="start" x="261" y="-486.5" font-family="Helvetica,sans-Serif" font-size="10.00">+ Target</text>
<text text-anchor="start" x="261" y="-475.5" font-family="Helvetica,sans-Serif" font-size="10.00">+ Text</text>
<polyline fill="none" stroke="black" points="253,-468.5 339,-468.5 "/>
<text text-anchor="start" x="261" y="-456.5" font-family="Helvetica,sans-Serif" font-size="10.00">+ performMove()</text>
</a>
</g>
</g>
<!-- Node5&#45;&gt;Node8 -->
<g id="edge10" class="edge"><title>Node5&#45;&gt;Node8</title>
<path fill="none" stroke="#404040" d="M303.321,-262.502C301.515,-318.132 299.19,-389.762 297.649,-437.195"/>
<polygon fill="none" stroke="#404040" points="297.646,-437.31 301.449,-443.436 297.256,-449.303 293.453,-443.177 297.646,-437.31"/>
<text text-anchor="middle" x="319" y="-369.5" font-family="Helvetica,sans-Serif" font-size="10.00"> #target</text>
<text text-anchor="middle" x="319" y="-358.5" font-family="Helvetica,sans-Serif" font-size="10.00">#user</text>
</g>
<!-- Node5&#45;&gt;Node10 -->
<g id="edge14" class="edge"><title>Node5&#45;&gt;Node10</title>
<path fill="none" stroke="midnightblue" d="M306,-85.2199C306,-75.2276 306,-65.7244 306,-57.507"/>
<polygon fill="none" stroke="midnightblue" points="302.5,-85.3457 306,-95.3458 309.5,-85.3458 302.5,-85.3457"/>
</g>
<!-- Node6 -->
<g id="node6" class="node"><title>Node6</title>
<polygon fill="none" stroke="#bfbfbf" points="63.5,-1199.5 63.5,-1256.5 104.5,-1256.5 104.5,-1199.5 63.5,-1199.5"/>
<text text-anchor="middle" x="84" y="-1244.5" font-family="Helvetica,sans-Serif" font-size="10.00">string</text>
<polyline fill="none" stroke="#bfbfbf" points="63.5,-1237.5 104.5,-1237.5 "/>
<text text-anchor="middle" x="84" y="-1225.5" font-family="Helvetica,sans-Serif" font-size="10.00"> </text>
<polyline fill="none" stroke="#bfbfbf" points="63.5,-1218.5 104.5,-1218.5 "/>
<text text-anchor="middle" x="84" y="-1206.5" font-family="Helvetica,sans-Serif" font-size="10.00"> </text>
</g>
<!-- Node6&#45;&gt;Node5 -->
<g id="edge5" class="edge"><title>Node6&#45;&gt;Node5</title>
<path fill="none" stroke="#404040" d="M63.2359,-1210.37C38.3611,-1188.42 0,-1147.23 0,-1102 0,-1102 0,-1102 0,-590 0,-425.795 159.587,-284.931 248.264,-219.333"/>
<polygon fill="none" stroke="#404040" points="248.496,-219.164 250.983,-212.395 258.188,-212.087 255.701,-218.856 248.496,-219.164"/>
<text text-anchor="middle" x="16.5" y="-745.5" font-family="Helvetica,sans-Serif" font-size="10.00"> #name</text>
</g>
<!-- Node6&#45;&gt;Node7 -->
<g id="edge19" class="edge"><title>Node6&#45;&gt;Node7</title>
<path fill="none" stroke="#404040" d="M81.2576,-1199.29C80.7544,-1193.27 80.2955,-1186.92 80,-1181 68.2873,-946.195 49.7357,-879.702 112,-653 134.545,-570.914 171.646,-479.575 196.202,-422.826"/>
<polygon fill="none" stroke="#404040" points="196.298,-422.606 195.026,-415.507 201.089,-411.604 202.361,-418.702 196.298,-422.606"/>
<text text-anchor="middle" x="86" y="-864" font-family="Helvetica,sans-Serif" font-size="10.00"> #desc</text>
</g>
<!-- Node6&#45;&gt;Node8 -->
<g id="edge9" class="edge"><title>Node6&#45;&gt;Node8</title>
<path fill="none" stroke="#404040" d="M83.3407,-1199.32C82.3092,-1114 86.6439,-848.948 172,-653 190.659,-610.164 222.835,-568.357 249.734,-537.808"/>
<polygon fill="none" stroke="#404040" points="249.885,-537.639 250.909,-530.501 257.892,-528.7 256.868,-535.838 249.885,-537.639"/>
<text text-anchor="middle" x="119.5" y="-944" font-family="Helvetica,sans-Serif" font-size="10.00"> #text</text>
</g>
<!-- Node6&#45;&gt;Node9 -->
<g id="edge12" class="edge"><title>Node6&#45;&gt;Node9</title>
<path fill="none" stroke="#404040" d="M104.78,-1227.68C196.237,-1229.35 562.856,-1222.03 664,-1003 685.055,-957.405 680.746,-937.348 664,-890 653.944,-861.569 635.45,-834.671 616.241,-812.14"/>
<polygon fill="none" stroke="#404040" points="616.203,-812.097 609.237,-810.231 608.281,-803.083 615.246,-804.949 616.203,-812.097"/>
<text text-anchor="middle" x="691" y="-1029.5" font-family="Helvetica,sans-Serif" font-size="10.00"> +forceCriticalHits</text>
</g>
<!-- Node12 -->
<g id="node12" class="node"><title>Node12</title>
<g id="a_node12"><a xlink:href="class_item.html" target="_top" xlink:title="{Item\n|+ Name\l+ Desc\l|+ applyBuffs()\l+ revertBuffs()\l}">
<polygon fill="none" stroke="black" points="416.5,-1061.5 416.5,-1140.5 493.5,-1140.5 493.5,-1061.5 416.5,-1061.5"/>
<text text-anchor="middle" x="455" y="-1128.5" font-family="Helvetica,sans-Serif" font-size="10.00">Item</text>
<polyline fill="none" stroke="black" points="416.5,-1121.5 493.5,-1121.5 "/>
<text text-anchor="start" x="424.5" y="-1109.5" font-family="Helvetica,sans-Serif" font-size="10.00">+ Name</text>
<text text-anchor="start" x="424.5" y="-1098.5" font-family="Helvetica,sans-Serif" font-size="10.00">+ Desc</text>
<polyline fill="none" stroke="black" points="416.5,-1091.5 493.5,-1091.5 "/>
<text text-anchor="start" x="424.5" y="-1079.5" font-family="Helvetica,sans-Serif" font-size="10.00">+ applyBuffs()</text>
<text text-anchor="start" x="424.5" y="-1068.5" font-family="Helvetica,sans-Serif" font-size="10.00">+ revertBuffs()</text>
</a>
</g>
</g>
<!-- Node6&#45;&gt;Node12 -->
<g id="edge22" class="edge"><title>Node6&#45;&gt;Node12</title>
<path fill="none" stroke="#404040" d="M104.667,-1222.28C153.145,-1210.92 277.584,-1180.08 377,-1141 386.316,-1137.34 396.023,-1132.97 405.297,-1128.49"/>
<polygon fill="none" stroke="#404040" points="405.584,-1128.35 409.189,-1122.11 416.34,-1123.03 412.735,-1129.28 405.584,-1128.35"/>
<text text-anchor="middle" x="338" y="-1173" font-family="Helvetica,sans-Serif" font-size="10.00"> #desc</text>
<text text-anchor="middle" x="338" y="-1162" font-family="Helvetica,sans-Serif" font-size="10.00">#name</text>
</g>
<!-- Node7&#45;&gt;Node5 -->
<g id="edge7" class="edge"><title>Node7&#45;&gt;Node5</title>
<path fill="none" stroke="#404040" d="M232.484,-321.38C236.478,-308.164 241.386,-293.79 247,-281 248.875,-276.729 250.888,-272.411 253,-268.09"/>
<polygon fill="none" stroke="#404040" points="253.009,-268.07 252.151,-260.91 258.429,-257.364 259.288,-264.524 253.009,-268.07"/>
<text text-anchor="middle" x="269.5" y="-295" font-family="Helvetica,sans-Serif" font-size="10.00"> #special1</text>
<text text-anchor="middle" x="269.5" y="-284" font-family="Helvetica,sans-Serif" font-size="10.00">#special2</text>
</g>
<!-- Node8&#45;&gt;Node7 -->
<g id="edge8" class="edge"><title>Node8&#45;&gt;Node7</title>
<path fill="none" stroke="midnightblue" d="M266.502,-440.607C260.567,-431.07 254.35,-421.083 248.486,-411.661"/>
<polygon fill="none" stroke="midnightblue" points="263.601,-442.569 271.857,-449.21 269.544,-438.87 263.601,-442.569"/>
</g>
<!-- Node9&#45;&gt;Node8 -->
<g id="edge11" class="edge"><title>Node9&#45;&gt;Node8</title>
<path fill="none" stroke="#404040" d="M501.387,-653.214C498.207,-647.052 495.056,-640.938 492,-635 471.9,-595.94 479.748,-576.279 447,-547 420.168,-523.01 382.247,-508.744 351.119,-500.484"/>
<polygon fill="none" stroke="#404040" points="350.77,-500.397 343.983,-502.832 339.125,-497.503 345.912,-495.068 350.77,-500.397"/>
<text text-anchor="middle" x="515" y="-588.5" font-family="Helvetica,sans-Serif" font-size="10.00"> #manager</text>
</g>
<!-- Node10&#45;&gt;Node9 -->
<g id="edge13" class="edge"><title>Node10&#45;&gt;Node9</title>
<path fill="none" stroke="#404040" d="M339.689,-34.3964C407.063,-45.2755 552,-80.0608 552,-178 552,-490 552,-490 552,-490 552,-539.663 551.622,-594.723 551.195,-641.098"/>
<polygon fill="none" stroke="#404040" points="551.193,-641.313 555.136,-647.351 551.079,-653.313 547.136,-647.275 551.193,-641.313"/>
<text text-anchor="middle" x="570" y="-364" font-family="Helvetica,sans-Serif" font-size="10.00"> &#45;enemy</text>
</g>
<!-- Node11 -->
<g id="node11" class="node"><title>Node11</title>
<polygon fill="none" stroke="#bfbfbf" points="531.5,-918 531.5,-975 566.5,-975 566.5,-918 531.5,-918"/>
<text text-anchor="middle" x="549" y="-963" font-family="Helvetica,sans-Serif" font-size="10.00">bool</text>
<polyline fill="none" stroke="#bfbfbf" points="531.5,-956 566.5,-956 "/>
<text text-anchor="middle" x="549" y="-944" font-family="Helvetica,sans-Serif" font-size="10.00"> </text>
<polyline fill="none" stroke="#bfbfbf" points="531.5,-937 566.5,-937 "/>
<text text-anchor="middle" x="549" y="-925" font-family="Helvetica,sans-Serif" font-size="10.00"> </text>
</g>
<!-- Node11&#45;&gt;Node9 -->
<g id="edge17" class="edge"><title>Node11&#45;&gt;Node9</title>
<path fill="none" stroke="#404040" d="M548.536,-917.928C548.327,-904.136 548.103,-887.186 548,-872 547.962,-866.357 547.952,-860.569 547.967,-854.725"/>
<polygon fill="none" stroke="#404040" points="547.967,-854.682 543.998,-848.662 548.028,-842.682 551.997,-848.702 547.967,-854.682"/>
<text text-anchor="middle" x="581" y="-864" font-family="Helvetica,sans-Serif" font-size="10.00"> &#45;wasCriticalHit</text>
</g>
<!-- Node12&#45;&gt;Node4 -->
<g id="edge21" class="edge"><title>Node12&#45;&gt;Node4</title>
<path fill="none" stroke="#404040" d="M476.098,-1061.26C478.533,-1055.29 480.631,-1049.09 482,-1043 484.075,-1033.77 484.094,-1024.08 482.845,-1014.56"/>
<polygon fill="none" stroke="#404040" points="482.823,-1014.44 477.801,-1009.26 480.646,-1002.64 485.668,-1007.81 482.823,-1014.44"/>
<text text-anchor="middle" x="496.5" y="-1029.5" font-family="Helvetica,sans-Serif" font-size="10.00"> &#45;item</text>
</g>
</g>
</svg>
        <g id="navigator" transform="translate(0 0)" fill="#404254">
                <rect fill="#f2f5e9" fill-opacity="0.5" stroke="#606060" stroke-width=".5" x="0" y="0" width="60" height="60"/>
                <use id="zoomplus" xlink:href="#zoomPlus" x="17" y="9" onmousedown="handleZoom(evt,'in')"/>
                <use id="zoomminus" xlink:href="#zoomMin" x="42" y="9" onmousedown="handleZoom(evt,'out')"/>
                <use id="reset" xlink:href="#resetDef" x="30" y="36" onmousedown="handleReset()"/>
                <g id="arrowUp" xlink:href="#dirArrow" transform="translate(30 24)" onmousedown="handlePan(0,-1)">
                  <use xlink:href="#rim" fill="#404040">
                        <set attributeName="fill" to="#808080" begin="arrowUp.mouseover" end="arrowUp.mouseout"/>
                  </use>
                  <path fill="none" stroke="white" stroke-width="1.5" d="M0,-3.0v7 M-2.5,-0.5L0,-3.0L2.5,-0.5"/>
                </g>
                <g id="arrowRight" xlink:href="#dirArrow" transform="rotate(90) translate(36 -43)" onmousedown="handlePan(1,0)">
                  <use xlink:href="#rim" fill="#404040">
                        <set attributeName="fill" to="#808080" begin="arrowRight.mouseover" end="arrowRight.mouseout"/>
                  </use>
                  <path fill="none" stroke="white" stroke-width="1.5" d="M0,-3.0v7 M-2.5,-0.5L0,-3.0L2.5,-0.5"/>
                </g>
                <g id="arrowDown" xlink:href="#dirArrow" transform="rotate(180) translate(-30 -48)" onmousedown="handlePan(0,1)">
                  <use xlink:href="#rim" fill="#404040">
                        <set attributeName="fill" to="#808080" begin="arrowDown.mouseover" end="arrowDown.mouseout"/>
                  </use>
                  <path fill="none" stroke="white" stroke-width="1.5" d="M0,-3.0v7 M-2.5,-0.5L0,-3.0L2.5,-0.5"/>
                </g>
                <g id="arrowLeft" xlink:href="#dirArrow" transform="rotate(270) translate(-36 17)" onmousedown="handlePan(-1,0)">
                  <use xlink:href="#rim" fill="#404040">
                        <set attributeName="fill" to="#808080" begin="arrowLeft.mouseover" end="arrowLeft.mouseout"/>
                  </use>
                  <path fill="none" stroke="white" stroke-width="1.5" d="M0,-3.0v7 M-2.5,-0.5L0,-3.0L2.5,-0.5"/>
                </g>
        </g>
        <svg viewBox="0 0 15 15" width="100%" height="30px" preserveAspectRatio="xMaxYMin meet">
         <g id="arrow_out" transform="scale(0.3 0.3)">
          <a xlink:href="class_data_manager__coll__graph_org.svg" target="_base">
           <rect id="button" ry="5" rx="5" y="6" x="6" height="38" width="38"
                fill="#f2f5e9" fill-opacity="0.5" stroke="#606060" stroke-width="1.0"/>
           <path id="arrow"
             d="M 11.500037,31.436501 C 11.940474,20.09759 22.043105,11.32322 32.158766,21.979434 L 37.068811,17.246167 C 37.068811,17.246167 37.088388,32 37.088388,32 L 22.160133,31.978069 C 22.160133,31.978069 26.997745,27.140456 26.997745,27.140456 C 18.528582,18.264221 13.291696,25.230495 11.500037,31.436501 z"
             style="fill:#404040;"/>
          </a>
         </g>
        </svg>
</svg>
