<?xml version="1.0" encoding="UTF-8" standalone="no"?>
<!DOCTYPE svg PUBLIC "-//W3C//DTD SVG 1.1//EN"
 "http://www.w3.org/Graphics/SVG/1.1/DTD/svg11.dtd">
<!-- Generated by graphviz version 2.38.0 (20140413.2041)
 -->
<!-- Title: Player Pages: 1 -->
<!--zoomable 1276 -->
<svg id="main" version="1.1" xmlns="http://www.w3.org/2000/svg" xmlns:xlink="http://www.w3.org/1999/xlink" xml:space="preserve" onload="init(evt)">
<style type="text/css"><![CDATA[
.edge:hover path { stroke: red; }
.edge:hover polygon { stroke: red; fill: red; }
]]></style>
<script type="text/javascript"><![CDATA[
var edges = document.getElementsByTagName('g');
if (edges && edges.length) {
  for (var i=0;i<edges.length;i++) {
    if (edges[i].id.substr(0,4)=='edge') {
      edges[i].setAttribute('class','edge');
    }
  }
}
]]></script>
        <defs>
                <circle id="rim" cx="0" cy="0" r="7"/>
                <circle id="rim2" cx="0" cy="0" r="3.5"/>
                <g id="zoomPlus">
                        <use xlink:href="#rim" fill="#404040">
                                <set attributeName="fill" to="#808080" begin="zoomplus.mouseover" end="zoomplus.mouseout"/>
                        </use>
                        <path d="M-4,0h8M0,-4v8" fill="none" stroke="white" stroke-width="1.5" pointer-events="none"/>
                </g>
                <g id="zoomMin">
                        <use xlink:href="#rim" fill="#404040">
                                <set attributeName="fill" to="#808080" begin="zoomminus.mouseover" end="zoomminus.mouseout"/>
                        </use>
                        <path d="M-4,0h8" fill="none" stroke="white" stroke-width="1.5" pointer-events="none"/>
                </g>
                <g id="dirArrow">
                        <path fill="none" stroke="white" stroke-width="1.5" d="M0,-3.0v7 M-2.5,-0.5L0,-3.0L2.5,-0.5"/>
                </g>
               <g id="resetDef">
                       <use xlink:href="#rim2" fill="#404040">
                               <set attributeName="fill" to="#808080" begin="reset.mouseover" end="reset.mouseout"/>
                       </use>
               </g>
        </defs>

<script type="text/javascript">
var viewWidth = 681;
var viewHeight = 1276;
var sectionId = 'dynsection-1';
</script>
<script xlink:href="svgpan.js"/>
<svg id="graph" class="graph">
<g id="viewport">
<title>Player</title>
<!-- Node2 -->
<g id="node1" class="node"><title>Node2</title>
<polygon fill="#bfbfbf" stroke="black" points="418,-901.5 418,-1013.5 530,-1013.5 530,-901.5 418,-901.5"/>
<text text-anchor="middle" x="474" y="-1001.5" font-family="Helvetica,sans-Serif" font-size="10.00">Player</text>
<polyline fill="none" stroke="black" points="418,-994.5 530,-994.5 "/>
<text text-anchor="start" x="426" y="-982.5" font-family="Helvetica,sans-Serif" font-size="10.00">+ Exp</text>
<text text-anchor="start" x="426" y="-971.5" font-family="Helvetica,sans-Serif" font-size="10.00">+ Item</text>
<text text-anchor="start" x="426" y="-960.5" font-family="Helvetica,sans-Serif" font-size="10.00">+ ExpToNextLevel</text>
<polyline fill="none" stroke="black" points="418,-953.5 530,-953.5 "/>
<text text-anchor="start" x="426" y="-941.5" font-family="Helvetica,sans-Serif" font-size="10.00">+ Player()</text>
<text text-anchor="start" x="426" y="-930.5" font-family="Helvetica,sans-Serif" font-size="10.00">+ gainExp()</text>
<text text-anchor="start" x="426" y="-919.5" font-family="Helvetica,sans-Serif" font-size="10.00">+ levelUp()</text>
<text text-anchor="start" x="426" y="-908.5" font-family="Helvetica,sans-Serif" font-size="10.00">&#45; setExpToNextLevel()</text>
</g>
<!-- Node8 -->
<g id="node7" class="node"><title>Node8</title>
<g id="a_node7"><a xlink:href="class_battle_manager.html" target="_top" xlink:title="Holds current Player and Enemy objects in battle and provides functions for MainBattle and other obje...">
<polygon fill="none" stroke="black" points="440,-664.5 440,-853.5 556,-853.5 556,-664.5 440,-664.5"/>
<text text-anchor="middle" x="498" y="-841.5" font-family="Helvetica,sans-Serif" font-size="10.00">BattleManager</text>
<polyline fill="none" stroke="black" points="440,-834.5 556,-834.5 "/>
<text text-anchor="start" x="448" y="-822.5" font-family="Helvetica,sans-Serif" font-size="10.00">+ Player</text>
<text text-anchor="start" x="448" y="-811.5" font-family="Helvetica,sans-Serif" font-size="10.00">+ Enemy</text>
<text text-anchor="start" x="448" y="-800.5" font-family="Helvetica,sans-Serif" font-size="10.00">+ WasCriticalHit</text>
<polyline fill="none" stroke="black" points="440,-793.5 556,-793.5 "/>
<text text-anchor="start" x="448" y="-781.5" font-family="Helvetica,sans-Serif" font-size="10.00">+ BattleManager()</text>
<text text-anchor="start" x="448" y="-770.5" font-family="Helvetica,sans-Serif" font-size="10.00">+ playerFirst()</text>
<text text-anchor="start" x="448" y="-759.5" font-family="Helvetica,sans-Serif" font-size="10.00">+ switchPlayers()</text>
<text text-anchor="start" x="448" y="-748.5" font-family="Helvetica,sans-Serif" font-size="10.00">+ isCriticalHit()</text>
<text text-anchor="start" x="448" y="-737.5" font-family="Helvetica,sans-Serif" font-size="10.00">+ ranAway()</text>
<text text-anchor="start" x="448" y="-726.5" font-family="Helvetica,sans-Serif" font-size="10.00">+ damageCalculation()</text>
<text text-anchor="start" x="448" y="-715.5" font-family="Helvetica,sans-Serif" font-size="10.00">+ enemyMove()</text>
<text text-anchor="start" x="448" y="-704.5" font-family="Helvetica,sans-Serif" font-size="10.00">+ enemySpecialMove()</text>
<text text-anchor="start" x="448" y="-693.5" font-family="Helvetica,sans-Serif" font-size="10.00">+ battleWon()</text>
<text text-anchor="start" x="448" y="-682.5" font-family="Helvetica,sans-Serif" font-size="10.00">+ playerFainted()</text>
<text text-anchor="start" x="448" y="-671.5" font-family="Helvetica,sans-Serif" font-size="10.00">&#45; characterFainted()</text>
</a>
</g>
</g>
<!-- Node2&#45;&gt;Node8 -->
<g id="edge15" class="edge"><title>Node2&#45;&gt;Node8</title>
<path fill="none" stroke="#404040" d="M492.233,-901.49C493.752,-895.307 495.063,-889.055 496,-883 496.873,-877.361 497.585,-871.559 498.161,-865.69"/>
<polygon fill="none" stroke="#404040" points="498.173,-865.538 494.68,-859.229 499.159,-853.578 502.653,-859.887 498.173,-865.538"/>
<text text-anchor="middle" x="514.5" y="-875" font-family="Helvetica,sans-Serif" font-size="10.00"> &#45;player</text>
</g>
<!-- Node3 -->
<g id="node2" class="node"><title>Node3</title>
<g id="a_node2"><a xlink:href="class_character.html" target="_top" xlink:title="Base abstract class for Enemy and Player to inherit from. Defines all shared variables, their constructor and their setters and getters ">
<polygon fill="none" stroke="black" points="206.5,-95.5 206.5,-273.5 301.5,-273.5 301.5,-95.5 206.5,-95.5"/>
<text text-anchor="middle" x="254" y="-261.5" font-family="Helvetica,sans-Serif" font-size="10.00">Character</text>
<polyline fill="none" stroke="black" points="206.5,-254.5 301.5,-254.5 "/>
<text text-anchor="start" x="214.5" y="-242.5" font-family="Helvetica,sans-Serif" font-size="10.00">+ Name</text>
<text text-anchor="start" x="214.5" y="-231.5" font-family="Helvetica,sans-Serif" font-size="10.00">+ Level</text>
<text text-anchor="start" x="214.5" y="-220.5" font-family="Helvetica,sans-Serif" font-size="10.00">+ Health</text>
<text text-anchor="start" x="214.5" y="-209.5" font-family="Helvetica,sans-Serif" font-size="10.00">+ Attack</text>
<text text-anchor="start" x="214.5" y="-198.5" font-family="Helvetica,sans-Serif" font-size="10.00">+ Defence</text>
<text text-anchor="start" x="214.5" y="-187.5" font-family="Helvetica,sans-Serif" font-size="10.00">+ MaximumMagic</text>
<text text-anchor="start" x="214.5" y="-176.5" font-family="Helvetica,sans-Serif" font-size="10.00">+ Magic</text>
<text text-anchor="start" x="214.5" y="-165.5" font-family="Helvetica,sans-Serif" font-size="10.00">+ Luck</text>
<text text-anchor="start" x="214.5" y="-154.5" font-family="Helvetica,sans-Serif" font-size="10.00">+ Speed</text>
<text text-anchor="start" x="214.5" y="-143.5" font-family="Helvetica,sans-Serif" font-size="10.00">+ Special1</text>
<text text-anchor="start" x="214.5" y="-132.5" font-family="Helvetica,sans-Serif" font-size="10.00">+ Special2</text>
<text text-anchor="start" x="214.5" y="-121.5" font-family="Helvetica,sans-Serif" font-size="10.00">+ Image</text>
<polyline fill="none" stroke="black" points="206.5,-114.5 301.5,-114.5 "/>
<text text-anchor="start" x="214.5" y="-102.5" font-family="Helvetica,sans-Serif" font-size="10.00"># Character()</text>
</a>
</g>
</g>
<!-- Node3&#45;&gt;Node2 -->
<g id="edge1" class="edge"><title>Node3&#45;&gt;Node2</title>
<path fill="none" stroke="midnightblue" d="M309.948,-224.104C342.676,-250.275 380.998,-288.038 399,-332 445.421,-445.367 374.057,-767.901 416,-883 418.282,-889.262 421.32,-895.403 424.815,-901.302"/>
<polygon fill="none" stroke="midnightblue" points="311.798,-221.107 301.764,-217.704 307.485,-226.621 311.798,-221.107"/>
</g>
<!-- Node7 -->
<g id="node6" class="node"><title>Node7</title>
<g id="a_node6"><a xlink:href="class_character_move.html" target="_top" xlink:title="Astract base class for character moves ">
<polygon fill="none" stroke="black" points="268,-460.5 268,-539.5 354,-539.5 354,-460.5 268,-460.5"/>
<text text-anchor="middle" x="311" y="-527.5" font-family="Helvetica,sans-Serif" font-size="10.00">CharacterMove</text>
<polyline fill="none" stroke="black" points="268,-520.5 354,-520.5 "/>
<text text-anchor="start" x="276" y="-508.5" font-family="Helvetica,sans-Serif" font-size="10.00">+ User</text>
<text text-anchor="start" x="276" y="-497.5" font-family="Helvetica,sans-Serif" font-size="10.00">+ Target</text>
<text text-anchor="start" x="276" y="-486.5" font-family="Helvetica,sans-Serif" font-size="10.00">+ Text</text>
<polyline fill="none" stroke="black" points="268,-479.5 354,-479.5 "/>
<text text-anchor="start" x="276" y="-467.5" font-family="Helvetica,sans-Serif" font-size="10.00">+ performMove()</text>
</a>
</g>
</g>
<!-- Node3&#45;&gt;Node7 -->
<g id="edge7" class="edge"><title>Node3&#45;&gt;Node7</title>
<path fill="none" stroke="#404040" d="M261.968,-273.609C267.025,-318.655 274.772,-374.139 286,-423 287.946,-431.469 290.434,-440.338 293.083,-448.905"/>
<polygon fill="none" stroke="#404040" points="293.085,-448.911 298.73,-453.398 296.759,-460.335 291.114,-455.848 293.085,-448.911"/>
<text text-anchor="middle" x="303" y="-380.5" font-family="Helvetica,sans-Serif" font-size="10.00"> #target</text>
<text text-anchor="middle" x="303" y="-369.5" font-family="Helvetica,sans-Serif" font-size="10.00">#user</text>
</g>
<!-- Node9 -->
<g id="node8" class="node"><title>Node9</title>
<g id="a_node8"><a xlink:href="class_enemy.html" target="_top" xlink:title="Defines an AI controller enemy to fight in battle scenes">
<polygon fill="none" stroke="black" points="220.5,-0.5 220.5,-57.5 287.5,-57.5 287.5,-0.5 220.5,-0.5"/>
<text text-anchor="middle" x="254" y="-45.5" font-family="Helvetica,sans-Serif" font-size="10.00">Enemy</text>
<polyline fill="none" stroke="black" points="220.5,-38.5 287.5,-38.5 "/>
<text text-anchor="start" x="228.5" y="-26.5" font-family="Helvetica,sans-Serif" font-size="10.00">+ ExpGiven</text>
<polyline fill="none" stroke="black" points="220.5,-19.5 287.5,-19.5 "/>
<text text-anchor="start" x="228.5" y="-7.5" font-family="Helvetica,sans-Serif" font-size="10.00">+ Enemy()</text>
</a>
</g>
</g>
<!-- Node3&#45;&gt;Node9 -->
<g id="edge11" class="edge"><title>Node3&#45;&gt;Node9</title>
<path fill="none" stroke="midnightblue" d="M254,-85.0224C254,-75.0956 254,-65.6973 254,-57.5701"/>
<polygon fill="none" stroke="midnightblue" points="250.5,-85.0978 254,-95.0978 257.5,-85.0979 250.5,-85.0978"/>
</g>
<!-- Node4 -->
<g id="node3" class="node"><title>Node4</title>
<polygon fill="none" stroke="#bfbfbf" points="300.5,-1210.5 300.5,-1267.5 341.5,-1267.5 341.5,-1210.5 300.5,-1210.5"/>
<text text-anchor="middle" x="321" y="-1255.5" font-family="Helvetica,sans-Serif" font-size="10.00">string</text>
<polyline fill="none" stroke="#bfbfbf" points="300.5,-1248.5 341.5,-1248.5 "/>
<text text-anchor="middle" x="321" y="-1236.5" font-family="Helvetica,sans-Serif" font-size="10.00"> </text>
<polyline fill="none" stroke="#bfbfbf" points="300.5,-1229.5 341.5,-1229.5 "/>
<text text-anchor="middle" x="321" y="-1217.5" font-family="Helvetica,sans-Serif" font-size="10.00"> </text>
</g>
<!-- Node4&#45;&gt;Node3 -->
<g id="edge2" class="edge"><title>Node4&#45;&gt;Node3</title>
<path fill="none" stroke="#404040" d="M300.366,-1237.15C241.002,-1233.48 74,-1214.17 74,-1113 74,-1113 74,-1113 74,-376.5 74,-304.246 143.066,-248.219 195.634,-216.039"/>
<polygon fill="none" stroke="#404040" points="195.924,-215.867 199.034,-209.361 206.236,-209.73 203.125,-216.236 195.924,-215.867"/>
<text text-anchor="middle" x="90.5" y="-756.5" font-family="Helvetica,sans-Serif" font-size="10.00"> #name</text>
</g>
<!-- Node6 -->
<g id="node5" class="node"><title>Node6</title>
<g id="a_node5"><a xlink:href="class_special_move.html" target="_top" xlink:title="Special move abstract base class that expands upon CharacterMove, adding magic properties ...">
<polygon fill="none" stroke="black" points="105,-332.5 105,-422.5 203,-422.5 203,-332.5 105,-332.5"/>
<text text-anchor="middle" x="154" y="-410.5" font-family="Helvetica,sans-Serif" font-size="10.00">SpecialMove</text>
<polyline fill="none" stroke="black" points="105,-403.5 203,-403.5 "/>
<text text-anchor="start" x="113" y="-391.5" font-family="Helvetica,sans-Serif" font-size="10.00">+ Magic</text>
<text text-anchor="start" x="113" y="-380.5" font-family="Helvetica,sans-Serif" font-size="10.00">+ Desc</text>
<polyline fill="none" stroke="black" points="105,-373.5 203,-373.5 "/>
<text text-anchor="start" x="113" y="-361.5" font-family="Helvetica,sans-Serif" font-size="10.00">+ setUp()</text>
<text text-anchor="start" x="113" y="-350.5" font-family="Helvetica,sans-Serif" font-size="10.00">+ decreaseMagic()</text>
<text text-anchor="start" x="113" y="-339.5" font-family="Helvetica,sans-Serif" font-size="10.00"># SpecialMove()</text>
</a>
</g>
</g>
<!-- Node4&#45;&gt;Node6 -->
<g id="edge16" class="edge"><title>Node4&#45;&gt;Node6</title>
<path fill="none" stroke="#404040" d="M300.384,-1234.3C251.957,-1224.3 135,-1191.98 135,-1113 135,-1113 135,-1113 135,-499 135,-477.766 137.914,-454.682 141.46,-434.454"/>
<polygon fill="none" stroke="#404040" points="141.472,-434.388 138.636,-427.758 143.666,-422.59 146.502,-429.221 141.472,-434.388"/>
<text text-anchor="middle" x="150" y="-875" font-family="Helvetica,sans-Serif" font-size="10.00"> #desc</text>
</g>
<!-- Node4&#45;&gt;Node7 -->
<g id="edge6" class="edge"><title>Node4&#45;&gt;Node7</title>
<path fill="none" stroke="#404040" d="M321,-1210.2C321,-1184.87 321,-1146.42 321,-1113 321,-1113 321,-1113 321,-758 321,-686.43 317.08,-603.734 314.148,-551.9"/>
<polygon fill="none" stroke="#404040" points="314.138,-551.712 309.799,-545.953 313.446,-539.732 317.785,-545.492 314.138,-551.712"/>
<text text-anchor="middle" x="333.5" y="-955" font-family="Helvetica,sans-Serif" font-size="10.00"> #text</text>
</g>
<!-- Node4&#45;&gt;Node8 -->
<g id="edge9" class="edge"><title>Node4&#45;&gt;Node8</title>
<path fill="none" stroke="#404040" d="M341.682,-1229.99C397.782,-1206.89 551.721,-1134.03 598,-1014 616.068,-967.14 613.246,-948.852 598,-901 590.484,-877.41 577.427,-854.38 563.18,-834.001"/>
<polygon fill="none" stroke="#404040" points="563.139,-833.944 556.383,-831.424 556.11,-824.218 562.867,-826.738 563.139,-833.944"/>
<text text-anchor="middle" x="631" y="-1046" font-family="Helvetica,sans-Serif" font-size="10.00"> +forceEnemyMove</text>
<text text-anchor="middle" x="631" y="-1035" font-family="Helvetica,sans-Serif" font-size="10.00">+forceCriticalHits</text>
</g>
<!-- Node12 -->
<g id="node11" class="node"><title>Node12</title>
<g id="a_node11"><a xlink:href="class_item.html" target="_top" xlink:title="Abstract class for items that can be equipped to a player, increasing some of their stats ...">
<polygon fill="none" stroke="black" points="387.5,-1072.5 387.5,-1151.5 464.5,-1151.5 464.5,-1072.5 387.5,-1072.5"/>
<text text-anchor="middle" x="426" y="-1139.5" font-family="Helvetica,sans-Serif" font-size="10.00">Item</text>
<polyline fill="none" stroke="black" points="387.5,-1132.5 464.5,-1132.5 "/>
<text text-anchor="start" x="395.5" y="-1120.5" font-family="Helvetica,sans-Serif" font-size="10.00">+ Name</text>
<text text-anchor="start" x="395.5" y="-1109.5" font-family="Helvetica,sans-Serif" font-size="10.00">+ Desc</text>
<polyline fill="none" stroke="black" points="387.5,-1102.5 464.5,-1102.5 "/>
<text text-anchor="start" x="395.5" y="-1090.5" font-family="Helvetica,sans-Serif" font-size="10.00">+ applyBuffs()</text>
<text text-anchor="start" x="395.5" y="-1079.5" font-family="Helvetica,sans-Serif" font-size="10.00">+ revertBuffs()</text>
</a>
</g>
</g>
<!-- Node4&#45;&gt;Node12 -->
<g id="edge20" class="edge"><title>Node4&#45;&gt;Node12</title>
<path fill="none" stroke="#404040" d="M341.745,-1213.3C354.15,-1198.54 370.344,-1179.26 385.216,-1161.55"/>
<polygon fill="none" stroke="#404040" points="385.592,-1161.1 386.388,-1153.94 393.31,-1151.92 392.514,-1159.08 385.592,-1161.1"/>
<text text-anchor="middle" x="392" y="-1184" font-family="Helvetica,sans-Serif" font-size="10.00"> #desc</text>
<text text-anchor="middle" x="392" y="-1173" font-family="Helvetica,sans-Serif" font-size="10.00">#name</text>
</g>
<!-- Node5 -->
<g id="node4" class="node"><title>Node5</title>
<polygon fill="none" stroke="#bfbfbf" points="229.5,-1083.5 229.5,-1140.5 258.5,-1140.5 258.5,-1083.5 229.5,-1083.5"/>
<text text-anchor="middle" x="244" y="-1128.5" font-family="Helvetica,sans-Serif" font-size="10.00">int</text>
<polyline fill="none" stroke="#bfbfbf" points="229.5,-1121.5 258.5,-1121.5 "/>
<text text-anchor="middle" x="244" y="-1109.5" font-family="Helvetica,sans-Serif" font-size="10.00"> </text>
<polyline fill="none" stroke="#bfbfbf" points="229.5,-1102.5 258.5,-1102.5 "/>
<text text-anchor="middle" x="244" y="-1090.5" font-family="Helvetica,sans-Serif" font-size="10.00"> </text>
</g>
<!-- Node5&#45;&gt;Node2 -->
<g id="edge21" class="edge"><title>Node5&#45;&gt;Node2</title>
<path fill="none" stroke="#404040" d="M258.53,-1100.43C280.908,-1084.42 325.474,-1053.6 366,-1032 381.401,-1023.79 388.579,-1024.26 407.57,-1013.65"/>
<polygon fill="none" stroke="#404040" points="407.629,-1013.61 410.728,-1007.1 417.93,-1007.46 414.831,-1013.97 407.629,-1013.61"/>
<text text-anchor="middle" x="403.5" y="-1046" font-family="Helvetica,sans-Serif" font-size="10.00"> &#45;expToNextLevel</text>
<text text-anchor="middle" x="403.5" y="-1035" font-family="Helvetica,sans-Serif" font-size="10.00">&#45;exp</text>
</g>
<!-- Node5&#45;&gt;Node3 -->
<g id="edge3" class="edge"><title>Node5&#45;&gt;Node3</title>
<path fill="none" stroke="#404040" d="M242.846,-1083.38C239.634,-1002.56 231.133,-759.577 236,-558 238.228,-465.723 243.557,-360.701 247.842,-285.746"/>
<polygon fill="none" stroke="#404040" points="247.856,-285.494 244.208,-279.274 248.547,-273.514 252.195,-279.735 247.856,-285.494"/>
<text text-anchor="middle" x="273.5" y="-638" font-family="Helvetica,sans-Serif" font-size="10.00"> #speed</text>
<text text-anchor="middle" x="273.5" y="-627" font-family="Helvetica,sans-Serif" font-size="10.00">#luck</text>
<text text-anchor="middle" x="273.5" y="-616" font-family="Helvetica,sans-Serif" font-size="10.00">#health</text>
<text text-anchor="middle" x="273.5" y="-605" font-family="Helvetica,sans-Serif" font-size="10.00">#magic</text>
<text text-anchor="middle" x="273.5" y="-594" font-family="Helvetica,sans-Serif" font-size="10.00">#maximumMagic</text>
<text text-anchor="middle" x="273.5" y="-583" font-family="Helvetica,sans-Serif" font-size="10.00">#attack</text>
<text text-anchor="middle" x="273.5" y="-572" font-family="Helvetica,sans-Serif" font-size="10.00">#defence</text>
<text text-anchor="middle" x="273.5" y="-561" font-family="Helvetica,sans-Serif" font-size="10.00">#level</text>
</g>
<!-- Node5&#45;&gt;Node6 -->
<g id="edge17" class="edge"><title>Node5&#45;&gt;Node6</title>
<path fill="none" stroke="#404040" d="M229.388,-1090.4C210.777,-1062.09 181,-1008.92 181,-958.5 181,-958.5 181,-958.5 181,-499 181,-477.595 176.893,-454.557 171.883,-434.416"/>
<polygon fill="none" stroke="#404040" points="171.829,-434.211 166.429,-429.431 168.764,-422.609 174.164,-427.388 171.829,-434.211"/>
<text text-anchor="middle" x="198.5" y="-756.5" font-family="Helvetica,sans-Serif" font-size="10.00"> #magic</text>
</g>
<!-- Node5&#45;&gt;Node8 -->
<g id="edge13" class="edge"><title>Node5&#45;&gt;Node8</title>
<path fill="none" stroke="#404040" d="M258.735,-1106.15C283.265,-1098.2 334.118,-1082.27 378,-1072 422.398,-1061.61 436.693,-1071.01 479,-1054 508.737,-1042.05 523.877,-1042.26 539,-1014 563.193,-968.794 557.448,-913.062 543.748,-865.331"/>
<polygon fill="none" stroke="#404040" points="543.702,-865.178 538.129,-860.602 540.209,-853.698 545.782,-858.274 543.702,-865.178"/>
<text text-anchor="middle" x="574.5" y="-955" font-family="Helvetica,sans-Serif" font-size="10.00"> +money</text>
</g>
<!-- Node5&#45;&gt;Node9 -->
<g id="edge12" class="edge"><title>Node5&#45;&gt;Node9</title>
<path fill="none" stroke="#404040" d="M229.467,-1109.12C176.939,-1101.42 0,-1067.4 0,-958.5 0,-958.5 0,-958.5 0,-183.5 0,-87.3046 135.095,-49.7767 208.237,-36.5079"/>
<polygon fill="none" stroke="#404040" points="208.444,-36.4725 213.68,-31.5149 220.271,-34.442 215.034,-39.3996 208.444,-36.4725"/>
<text text-anchor="middle" x="23" y="-497.5" font-family="Helvetica,sans-Serif" font-size="10.00"> &#45;expGiven</text>
</g>
<!-- Node6&#45;&gt;Node3 -->
<g id="edge4" class="edge"><title>Node6&#45;&gt;Node3</title>
<path fill="none" stroke="#404040" d="M159.568,-332.317C162.256,-318.962 166.21,-304.526 172,-292 179.091,-276.66 188.733,-261.476 198.914,-247.587"/>
<polygon fill="none" stroke="#404040" points="199.146,-247.282 199.583,-240.085 206.395,-237.72 205.958,-244.917 199.146,-247.282"/>
<text text-anchor="middle" x="194.5" y="-306" font-family="Helvetica,sans-Serif" font-size="10.00"> #special1</text>
<text text-anchor="middle" x="194.5" y="-295" font-family="Helvetica,sans-Serif" font-size="10.00">#special2</text>
</g>
<!-- Node7&#45;&gt;Node6 -->
<g id="edge5" class="edge"><title>Node7&#45;&gt;Node6</title>
<path fill="none" stroke="midnightblue" d="M259.541,-459.505C241.45,-445.619 221.175,-430.058 203.269,-416.314"/>
<polygon fill="none" stroke="midnightblue" points="257.62,-462.442 267.683,-465.754 261.882,-456.889 257.62,-462.442"/>
</g>
<!-- Node8&#45;&gt;Node7 -->
<g id="edge8" class="edge"><title>Node8&#45;&gt;Node7</title>
<path fill="none" stroke="#404040" d="M439.857,-678.092C409.183,-635.935 372.554,-585.596 346.204,-549.381"/>
<polygon fill="none" stroke="#404040" points="346.118,-549.263 339.353,-546.765 339.057,-539.56 345.822,-542.058 346.118,-549.263"/>
<text text-anchor="middle" x="439" y="-599.5" font-family="Helvetica,sans-Serif" font-size="10.00"> #manager</text>
</g>
<!-- Node9&#45;&gt;Node8 -->
<g id="edge10" class="edge"><title>Node9&#45;&gt;Node8</title>
<path fill="none" stroke="#404040" d="M287.984,-36.5196C351.31,-50.8525 481,-91.4438 481,-183.5 481,-501 481,-501 481,-501 481,-550.77 484.214,-605.844 487.846,-652.201"/>
<polygon fill="none" stroke="#404040" points="487.866,-652.448 492.334,-658.108 488.828,-664.41 484.36,-658.75 487.866,-652.448"/>
<text text-anchor="middle" x="499" y="-375" font-family="Helvetica,sans-Serif" font-size="10.00"> &#45;enemy</text>
</g>
<!-- Node10 -->
<g id="node9" class="node"><title>Node10</title>
<polygon fill="none" stroke="#bfbfbf" points="364.5,-929 364.5,-986 399.5,-986 399.5,-929 364.5,-929"/>
<text text-anchor="middle" x="382" y="-974" font-family="Helvetica,sans-Serif" font-size="10.00">bool</text>
<polyline fill="none" stroke="#bfbfbf" points="364.5,-967 399.5,-967 "/>
<text text-anchor="middle" x="382" y="-955" font-family="Helvetica,sans-Serif" font-size="10.00"> </text>
<polyline fill="none" stroke="#bfbfbf" points="364.5,-948 399.5,-948 "/>
<text text-anchor="middle" x="382" y="-936" font-family="Helvetica,sans-Serif" font-size="10.00"> </text>
</g>
<!-- Node10&#45;&gt;Node8 -->
<g id="edge14" class="edge"><title>Node10&#45;&gt;Node8</title>
<path fill="none" stroke="#404040" d="M394.905,-928.905C399.239,-919.931 404.196,-909.974 409,-901 416.457,-887.069 424.781,-872.668 433.262,-858.632"/>
<polygon fill="none" stroke="#404040" points="433.512,-858.223 433.226,-851.018 439.767,-847.982 440.053,-855.188 433.512,-858.223"/>
<text text-anchor="middle" x="458" y="-875" font-family="Helvetica,sans-Serif" font-size="10.00"> &#45;wasCriticalHit</text>
</g>
<!-- Node11 -->
<g id="node10" class="node"><title>Node11</title>
<polygon fill="none" stroke="#bfbfbf" points="329.5,-349 329.5,-406 390.5,-406 390.5,-349 329.5,-349"/>
<text text-anchor="middle" x="360" y="-394" font-family="Helvetica,sans-Serif" font-size="10.00">Texture2D</text>
<polyline fill="none" stroke="#bfbfbf" points="329.5,-387 390.5,-387 "/>
<text text-anchor="middle" x="360" y="-375" font-family="Helvetica,sans-Serif" font-size="10.00"> </text>
<polyline fill="none" stroke="#bfbfbf" points="329.5,-368 390.5,-368 "/>
<text text-anchor="middle" x="360" y="-356" font-family="Helvetica,sans-Serif" font-size="10.00"> </text>
</g>
<!-- Node11&#45;&gt;Node3 -->
<g id="edge18" class="edge"><title>Node11&#45;&gt;Node3</title>
<path fill="none" stroke="#404040" d="M344.587,-348.727C334.639,-330.802 321.051,-306.318 307.426,-281.767"/>
<polygon fill="none" stroke="#404040" points="307.418,-281.752 301.008,-278.447 301.594,-271.26 308.003,-274.565 307.418,-281.752"/>
<text text-anchor="middle" x="340.5" y="-300.5" font-family="Helvetica,sans-Serif" font-size="10.00"> #image</text>
</g>
<!-- Node12&#45;&gt;Node2 -->
<g id="edge19" class="edge"><title>Node12&#45;&gt;Node2</title>
<path fill="none" stroke="#404040" d="M438.237,-1072.12C442.729,-1057.85 447.952,-1041.26 452.996,-1025.23"/>
<polygon fill="none" stroke="#404040" points="453.021,-1025.15 451.007,-1018.23 456.624,-1013.71 458.638,-1020.63 453.021,-1025.15"/>
<text text-anchor="middle" x="462.5" y="-1040.5" font-family="Helvetica,sans-Serif" font-size="10.00"> &#45;item</text>
</g>
</g>
</svg>
        <g id="navigator" transform="translate(0 0)" fill="#404254">
                <rect fill="#f2f5e9" fill-opacity="0.5" stroke="#606060" stroke-width=".5" x="0" y="0" width="60" height="60"/>
                <use id="zoomplus" xlink:href="#zoomPlus" x="17" y="9" onmousedown="handleZoom(evt,'in')"/>
                <use id="zoomminus" xlink:href="#zoomMin" x="42" y="9" onmousedown="handleZoom(evt,'out')"/>
                <use id="reset" xlink:href="#resetDef" x="30" y="36" onmousedown="handleReset()"/>
                <g id="arrowUp" xlink:href="#dirArrow" transform="translate(30 24)" onmousedown="handlePan(0,-1)">
                  <use xlink:href="#rim" fill="#404040">
                        <set attributeName="fill" to="#808080" begin="arrowUp.mouseover" end="arrowUp.mouseout"/>
                  </use>
                  <path fill="none" stroke="white" stroke-width="1.5" d="M0,-3.0v7 M-2.5,-0.5L0,-3.0L2.5,-0.5"/>
                </g>
                <g id="arrowRight" xlink:href="#dirArrow" transform="rotate(90) translate(36 -43)" onmousedown="handlePan(1,0)">
                  <use xlink:href="#rim" fill="#404040">
                        <set attributeName="fill" to="#808080" begin="arrowRight.mouseover" end="arrowRight.mouseout"/>
                  </use>
                  <path fill="none" stroke="white" stroke-width="1.5" d="M0,-3.0v7 M-2.5,-0.5L0,-3.0L2.5,-0.5"/>
                </g>
                <g id="arrowDown" xlink:href="#dirArrow" transform="rotate(180) translate(-30 -48)" onmousedown="handlePan(0,1)">
                  <use xlink:href="#rim" fill="#404040">
                        <set attributeName="fill" to="#808080" begin="arrowDown.mouseover" end="arrowDown.mouseout"/>
                  </use>
                  <path fill="none" stroke="white" stroke-width="1.5" d="M0,-3.0v7 M-2.5,-0.5L0,-3.0L2.5,-0.5"/>
                </g>
                <g id="arrowLeft" xlink:href="#dirArrow" transform="rotate(270) translate(-36 17)" onmousedown="handlePan(-1,0)">
                  <use xlink:href="#rim" fill="#404040">
                        <set attributeName="fill" to="#808080" begin="arrowLeft.mouseover" end="arrowLeft.mouseout"/>
                  </use>
                  <path fill="none" stroke="white" stroke-width="1.5" d="M0,-3.0v7 M-2.5,-0.5L0,-3.0L2.5,-0.5"/>
                </g>
        </g>
        <svg viewBox="0 0 15 15" width="100%" height="30px" preserveAspectRatio="xMaxYMin meet">
         <g id="arrow_out" transform="scale(0.3 0.3)">
          <a xlink:href="class_player__coll__graph_org.svg" target="_base">
           <rect id="button" ry="5" rx="5" y="6" x="6" height="38" width="38"
                fill="#f2f5e9" fill-opacity="0.5" stroke="#606060" stroke-width="1.0"/>
           <path id="arrow"
             d="M 11.500037,31.436501 C 11.940474,20.09759 22.043105,11.32322 32.158766,21.979434 L 37.068811,17.246167 C 37.068811,17.246167 37.088388,32 37.088388,32 L 22.160133,31.978069 C 22.160133,31.978069 26.997745,27.140456 26.997745,27.140456 C 18.528582,18.264221 13.291696,25.230495 11.500037,31.436501 z"
             style="fill:#404040;"/>
          </a>
         </g>
        </svg>
</svg>
