<?xml version="1.0" encoding="UTF-8" standalone="no"?>
<!DOCTYPE svg PUBLIC "-//W3C//DTD SVG 1.1//EN"
 "http://www.w3.org/Graphics/SVG/1.1/DTD/svg11.dtd">
<!-- Generated by graphviz version 2.38.0 (20140413.2041)
 -->
<!-- Title: DragAndDropCell Pages: 1 -->
<svg width="182pt" height="303pt"
 viewBox="0.00 0.00 181.50 303.00" xmlns="http://www.w3.org/2000/svg" xmlns:xlink="http://www.w3.org/1999/xlink">
<g id="graph0" class="graph" transform="scale(1 1) rotate(0) translate(4 299)">
<title>DragAndDropCell</title>
<!-- Node0 -->
<g id="node1" class="node"><title>Node0</title>
<polygon fill="#bfbfbf" stroke="black" points="30,-0.5 30,-200.5 149,-200.5 149,-0.5 30,-0.5"/>
<text text-anchor="middle" x="89.5" y="-188.5" font-family="Helvetica,sans-Serif" font-size="10.00">DragAndDropCell</text>
<polyline fill="none" stroke="black" points="30,-181.5 149,-181.5 "/>
<text text-anchor="start" x="38" y="-169.5" font-family="Helvetica,sans-Serif" font-size="10.00">+ cellType</text>
<text text-anchor="start" x="38" y="-158.5" font-family="Helvetica,sans-Serif" font-size="10.00">+ empty</text>
<text text-anchor="start" x="38" y="-147.5" font-family="Helvetica,sans-Serif" font-size="10.00">+ full</text>
<polyline fill="none" stroke="black" points="30,-140.5 149,-140.5 "/>
<text text-anchor="start" x="38" y="-128.5" font-family="Helvetica,sans-Serif" font-size="10.00">+ OnDrop()</text>
<text text-anchor="start" x="38" y="-117.5" font-family="Helvetica,sans-Serif" font-size="10.00">+ RemoveItem()</text>
<text text-anchor="start" x="38" y="-106.5" font-family="Helvetica,sans-Serif" font-size="10.00">+ PlaceItem()</text>
<text text-anchor="start" x="38" y="-95.5" font-family="Helvetica,sans-Serif" font-size="10.00">+ GetItem()</text>
<text text-anchor="start" x="38" y="-84.5" font-family="Helvetica,sans-Serif" font-size="10.00">+ SwapItems()</text>
<text text-anchor="start" x="38" y="-73.5" font-family="Helvetica,sans-Serif" font-size="10.00">&#45; OnEnable()</text>
<text text-anchor="start" x="38" y="-62.5" font-family="Helvetica,sans-Serif" font-size="10.00">&#45; OnDisable()</text>
<text text-anchor="start" x="38" y="-51.5" font-family="Helvetica,sans-Serif" font-size="10.00">&#45; Start()</text>
<text text-anchor="start" x="38" y="-40.5" font-family="Helvetica,sans-Serif" font-size="10.00">&#45; OnAnyItemDragStart()</text>
<text text-anchor="start" x="38" y="-29.5" font-family="Helvetica,sans-Serif" font-size="10.00">&#45; OnAnyItemDragEnd()</text>
<text text-anchor="start" x="38" y="-18.5" font-family="Helvetica,sans-Serif" font-size="10.00">&#45; SetBackgroundState()</text>
<text text-anchor="start" x="38" y="-7.5" font-family="Helvetica,sans-Serif" font-size="10.00">&#45; NotifyOnDragEnd()</text>
</g>
<!-- Node1 -->
<g id="node2" class="node"><title>Node1</title>
<g id="a_node2"><a xlink:href="class_mono_behaviour.html" target="_top" xlink:title="{MonoBehaviour\n||}">
<polygon fill="none" stroke="black" points="0,-237.5 0,-294.5 83,-294.5 83,-237.5 0,-237.5"/>
<text text-anchor="middle" x="41.5" y="-282.5" font-family="Helvetica,sans-Serif" font-size="10.00">MonoBehaviour</text>
<polyline fill="none" stroke="black" points="0,-275.5 83,-275.5 "/>
<text text-anchor="middle" x="41.5" y="-263.5" font-family="Helvetica,sans-Serif" font-size="10.00"> </text>
<polyline fill="none" stroke="black" points="0,-256.5 83,-256.5 "/>
<text text-anchor="middle" x="41.5" y="-244.5" font-family="Helvetica,sans-Serif" font-size="10.00"> </text>
</a>
</g>
</g>
<!-- Node1&#45;&gt;Node0 -->
<g id="edge1" class="edge"><title>Node1&#45;&gt;Node0</title>
<path fill="none" stroke="midnightblue" d="M52.4827,-227.59C54.9249,-219.271 57.6249,-210.074 60.4213,-200.549"/>
<polygon fill="none" stroke="midnightblue" points="49.1012,-226.683 49.6425,-237.264 55.8178,-228.655 49.1012,-226.683"/>
</g>
<!-- Node2 -->
<g id="node3" class="node"><title>Node2</title>
<g id="a_node3"><a xlink:href="class_i_drop_handler.html" target="_top" xlink:title="{IDropHandler\n||}">
<polygon fill="none" stroke="black" points="101.5,-237.5 101.5,-294.5 173.5,-294.5 173.5,-237.5 101.5,-237.5"/>
<text text-anchor="middle" x="137.5" y="-282.5" font-family="Helvetica,sans-Serif" font-size="10.00">IDropHandler</text>
<polyline fill="none" stroke="black" points="101.5,-275.5 173.5,-275.5 "/>
<text text-anchor="middle" x="137.5" y="-263.5" font-family="Helvetica,sans-Serif" font-size="10.00"> </text>
<polyline fill="none" stroke="black" points="101.5,-256.5 173.5,-256.5 "/>
<text text-anchor="middle" x="137.5" y="-244.5" font-family="Helvetica,sans-Serif" font-size="10.00"> </text>
</a>
</g>
</g>
<!-- Node2&#45;&gt;Node0 -->
<g id="edge2" class="edge"><title>Node2&#45;&gt;Node0</title>
<path fill="none" stroke="midnightblue" d="M126.517,-227.59C124.075,-219.271 121.375,-210.074 118.579,-200.549"/>
<polygon fill="none" stroke="midnightblue" points="123.182,-228.655 129.357,-237.264 129.899,-226.683 123.182,-228.655"/>
</g>
</g>
</svg>
