<?xml version="1.0" encoding="UTF-8" standalone="no"?>
<!DOCTYPE svg PUBLIC "-//W3C//DTD SVG 1.1//EN"
 "http://www.w3.org/Graphics/SVG/1.1/DTD/svg11.dtd">
<!-- Generated by graphviz version 2.38.0 (20140413.2041)
 -->
<!-- Title: RaiseDefence Pages: 1 -->
<svg width="721pt" height="1034pt"
 viewBox="0.00 0.00 721.00 1034.00" xmlns="http://www.w3.org/2000/svg" xmlns:xlink="http://www.w3.org/1999/xlink">
<g id="graph0" class="graph" transform="scale(1 1) rotate(0) translate(4 1030)">
<title>RaiseDefence</title>
<!-- Node3 -->
<g id="node1" class="node"><title>Node3</title>
<polygon fill="#bfbfbf" stroke="black" points="454,-585 454,-653 546,-653 546,-585 454,-585"/>
<text text-anchor="middle" x="500" y="-641" font-family="Helvetica,sans-Serif" font-size="10.00">RaiseDefence</text>
<polyline fill="none" stroke="black" points="454,-634 546,-634 "/>
<text text-anchor="middle" x="500" y="-622" font-family="Helvetica,sans-Serif" font-size="10.00"> </text>
<polyline fill="none" stroke="black" points="454,-615 546,-615 "/>
<text text-anchor="start" x="462" y="-603" font-family="Helvetica,sans-Serif" font-size="10.00">+ RaiseDefence()</text>
<text text-anchor="start" x="462" y="-592" font-family="Helvetica,sans-Serif" font-size="10.00">+ performMove()</text>
</g>
<!-- Node4 -->
<g id="node2" class="node"><title>Node4</title>
<g id="a_node2"><a xlink:href="class_special_move.html" target="_top" xlink:title="Special move abstract base class that expands upon CharacterMove, adding magic properties ...">
<polygon fill="none" stroke="black" points="401,-819.5 401,-909.5 499,-909.5 499,-819.5 401,-819.5"/>
<text text-anchor="middle" x="450" y="-897.5" font-family="Helvetica,sans-Serif" font-size="10.00">SpecialMove</text>
<polyline fill="none" stroke="black" points="401,-890.5 499,-890.5 "/>
<text text-anchor="start" x="409" y="-878.5" font-family="Helvetica,sans-Serif" font-size="10.00">+ Magic</text>
<text text-anchor="start" x="409" y="-867.5" font-family="Helvetica,sans-Serif" font-size="10.00">+ Desc</text>
<polyline fill="none" stroke="black" points="401,-860.5 499,-860.5 "/>
<text text-anchor="start" x="409" y="-848.5" font-family="Helvetica,sans-Serif" font-size="10.00">+ setUp()</text>
<text text-anchor="start" x="409" y="-837.5" font-family="Helvetica,sans-Serif" font-size="10.00">+ decreaseMagic()</text>
<text text-anchor="start" x="409" y="-826.5" font-family="Helvetica,sans-Serif" font-size="10.00"># SpecialMove()</text>
</a>
</g>
</g>
<!-- Node4&#45;&gt;Node3 -->
<g id="edge1" class="edge"><title>Node4&#45;&gt;Node3</title>
<path fill="none" stroke="midnightblue" d="M461.082,-809.53C470.9,-761.718 484.92,-693.439 493.179,-653.219"/>
<polygon fill="none" stroke="midnightblue" points="457.638,-808.904 459.055,-819.404 464.495,-810.312 457.638,-808.904"/>
</g>
<!-- Node7 -->
<g id="node5" class="node"><title>Node7</title>
<g id="a_node5"><a xlink:href="class_character.html" target="_top" xlink:title="Base abstract class for Enemy and Player to inherit from. Defines all shared variables, their constructor and their setters and getters ">
<polygon fill="none" stroke="black" points="188.5,-535.5 188.5,-702.5 283.5,-702.5 283.5,-535.5 188.5,-535.5"/>
<text text-anchor="middle" x="236" y="-690.5" font-family="Helvetica,sans-Serif" font-size="10.00">Character</text>
<polyline fill="none" stroke="black" points="188.5,-683.5 283.5,-683.5 "/>
<text text-anchor="start" x="196.5" y="-671.5" font-family="Helvetica,sans-Serif" font-size="10.00">+ Name</text>
<text text-anchor="start" x="196.5" y="-660.5" font-family="Helvetica,sans-Serif" font-size="10.00">+ Level</text>
<text text-anchor="start" x="196.5" y="-649.5" font-family="Helvetica,sans-Serif" font-size="10.00">+ Health</text>
<text text-anchor="start" x="196.5" y="-638.5" font-family="Helvetica,sans-Serif" font-size="10.00">+ Attack</text>
<text text-anchor="start" x="196.5" y="-627.5" font-family="Helvetica,sans-Serif" font-size="10.00">+ Defence</text>
<text text-anchor="start" x="196.5" y="-616.5" font-family="Helvetica,sans-Serif" font-size="10.00">+ MaximumMagic</text>
<text text-anchor="start" x="196.5" y="-605.5" font-family="Helvetica,sans-Serif" font-size="10.00">+ Magic</text>
<text text-anchor="start" x="196.5" y="-594.5" font-family="Helvetica,sans-Serif" font-size="10.00">+ Luck</text>
<text text-anchor="start" x="196.5" y="-583.5" font-family="Helvetica,sans-Serif" font-size="10.00">+ Speed</text>
<text text-anchor="start" x="196.5" y="-572.5" font-family="Helvetica,sans-Serif" font-size="10.00">+ Special1</text>
<text text-anchor="start" x="196.5" y="-561.5" font-family="Helvetica,sans-Serif" font-size="10.00">+ Special2</text>
<polyline fill="none" stroke="black" points="188.5,-554.5 283.5,-554.5 "/>
<text text-anchor="start" x="196.5" y="-542.5" font-family="Helvetica,sans-Serif" font-size="10.00"># Character()</text>
</a>
</g>
</g>
<!-- Node4&#45;&gt;Node7 -->
<g id="edge7" class="edge"><title>Node4&#45;&gt;Node7</title>
<path fill="none" stroke="#404040" d="M400.996,-845.207C379.265,-837.126 353.374,-827.541 330,-819 307.816,-810.894 295.632,-818.705 280,-801 255.879,-773.68 270.544,-756.429 262,-721 261.481,-718.849 260.953,-716.674 260.417,-714.481"/>
<polygon fill="none" stroke="#404040" points="260.367,-714.277 255.045,-709.411 257.49,-702.627 262.812,-707.493 260.367,-714.277"/>
<text text-anchor="middle" x="302.5" y="-764" font-family="Helvetica,sans-Serif" font-size="10.00"> #special1</text>
<text text-anchor="middle" x="302.5" y="-753" font-family="Helvetica,sans-Serif" font-size="10.00">#special2</text>
</g>
<!-- Node5 -->
<g id="node3" class="node"><title>Node5</title>
<g id="a_node3"><a xlink:href="class_character_move.html" target="_top" xlink:title="Astract base class for character moves ">
<polygon fill="none" stroke="black" points="358,-0.5 358,-79.5 444,-79.5 444,-0.5 358,-0.5"/>
<text text-anchor="middle" x="401" y="-67.5" font-family="Helvetica,sans-Serif" font-size="10.00">CharacterMove</text>
<polyline fill="none" stroke="black" points="358,-60.5 444,-60.5 "/>
<text text-anchor="start" x="366" y="-48.5" font-family="Helvetica,sans-Serif" font-size="10.00">+ User</text>
<text text-anchor="start" x="366" y="-37.5" font-family="Helvetica,sans-Serif" font-size="10.00">+ Target</text>
<text text-anchor="start" x="366" y="-26.5" font-family="Helvetica,sans-Serif" font-size="10.00">+ Text</text>
<polyline fill="none" stroke="black" points="358,-19.5 444,-19.5 "/>
<text text-anchor="start" x="366" y="-7.5" font-family="Helvetica,sans-Serif" font-size="10.00">+ performMove()</text>
</a>
</g>
</g>
<!-- Node5&#45;&gt;Node4 -->
<g id="edge2" class="edge"><title>Node5&#45;&gt;Node4</title>
<path fill="none" stroke="midnightblue" d="M411.526,-90C418.359,-126.052 426,-176.348 426,-221 426,-512.5 426,-512.5 426,-512.5 426,-623.054 437.997,-752.74 445.027,-819.239"/>
<polygon fill="none" stroke="midnightblue" points="414.879,-88.907 409.534,-79.7592 408.007,-90.2435 414.879,-88.907"/>
</g>
<!-- Node6 -->
<g id="node4" class="node"><title>Node6</title>
<polygon fill="none" stroke="#bfbfbf" points="429.5,-968.5 429.5,-1025.5 470.5,-1025.5 470.5,-968.5 429.5,-968.5"/>
<text text-anchor="middle" x="450" y="-1013.5" font-family="Helvetica,sans-Serif" font-size="10.00">string</text>
<polyline fill="none" stroke="#bfbfbf" points="429.5,-1006.5 470.5,-1006.5 "/>
<text text-anchor="middle" x="450" y="-994.5" font-family="Helvetica,sans-Serif" font-size="10.00"> </text>
<polyline fill="none" stroke="#bfbfbf" points="429.5,-987.5 470.5,-987.5 "/>
<text text-anchor="middle" x="450" y="-975.5" font-family="Helvetica,sans-Serif" font-size="10.00"> </text>
</g>
<!-- Node6&#45;&gt;Node4 -->
<g id="edge20" class="edge"><title>Node6&#45;&gt;Node4</title>
<path fill="none" stroke="#404040" d="M450,-968.324C450,-954.731 450,-937.837 450,-921.696"/>
<polygon fill="none" stroke="#404040" points="450,-921.568 446,-915.568 450,-909.568 454,-915.568 450,-921.568"/>
<text text-anchor="middle" x="465" y="-936.5" font-family="Helvetica,sans-Serif" font-size="10.00"> #desc</text>
</g>
<!-- Node6&#45;&gt;Node5 -->
<g id="edge3" class="edge"><title>Node6&#45;&gt;Node5</title>
<path fill="none" stroke="#404040" d="M470.705,-994.419C528.609,-988.762 688,-964.223 688,-865.5 688,-865.5 688,-865.5 688,-221 688,-112.667 539.427,-67.0431 456.076,-49.9714"/>
<polygon fill="none" stroke="#404040" points="456.053,-49.9668 449.395,-52.7364 444.278,-47.6557 450.936,-44.8862 456.053,-49.9668"/>
<text text-anchor="middle" x="700.5" y="-509" font-family="Helvetica,sans-Serif" font-size="10.00"> #text</text>
</g>
<!-- Node6&#45;&gt;Node7 -->
<g id="edge5" class="edge"><title>Node6&#45;&gt;Node7</title>
<path fill="none" stroke="#404040" d="M429.292,-995.283C398.258,-993.066 339.832,-984.277 307,-950 265.233,-906.396 288.553,-876.773 271,-819 268.549,-810.931 267.007,-809.19 265,-801 258.204,-773.267 252.61,-742.74 248.209,-714.785"/>
<polygon fill="none" stroke="#404040" points="248.154,-714.422 243.29,-709.098 246.334,-702.56 251.198,-707.885 248.154,-714.422"/>
<text text-anchor="middle" x="300.5" y="-862" font-family="Helvetica,sans-Serif" font-size="10.00"> #name</text>
</g>
<!-- Node9 -->
<g id="node7" class="node"><title>Node9</title>
<g id="a_node7"><a xlink:href="class_battle_manager.html" target="_top" xlink:title="{BattleManager\n|+ Player\l+ Enemy\l+ WasCriticalHit\l|+ BattleManager()\l+ playerFirst()\l+ switchPlayers()\l+ isCriticalHit()\l+ ranAway()\l+ damageCalculation()\l+ enemyMove()\l+ enemySpecialMove()\l+ battleWon()\l+ playerFainted()\l&#45; characterFainted()\l}">
<polygon fill="none" stroke="black" points="125,-127.5 125,-316.5 241,-316.5 241,-127.5 125,-127.5"/>
<text text-anchor="middle" x="183" y="-304.5" font-family="Helvetica,sans-Serif" font-size="10.00">BattleManager</text>
<polyline fill="none" stroke="black" points="125,-297.5 241,-297.5 "/>
<text text-anchor="start" x="133" y="-285.5" font-family="Helvetica,sans-Serif" font-size="10.00">+ Player</text>
<text text-anchor="start" x="133" y="-274.5" font-family="Helvetica,sans-Serif" font-size="10.00">+ Enemy</text>
<text text-anchor="start" x="133" y="-263.5" font-family="Helvetica,sans-Serif" font-size="10.00">+ WasCriticalHit</text>
<polyline fill="none" stroke="black" points="125,-256.5 241,-256.5 "/>
<text text-anchor="start" x="133" y="-244.5" font-family="Helvetica,sans-Serif" font-size="10.00">+ BattleManager()</text>
<text text-anchor="start" x="133" y="-233.5" font-family="Helvetica,sans-Serif" font-size="10.00">+ playerFirst()</text>
<text text-anchor="start" x="133" y="-222.5" font-family="Helvetica,sans-Serif" font-size="10.00">+ switchPlayers()</text>
<text text-anchor="start" x="133" y="-211.5" font-family="Helvetica,sans-Serif" font-size="10.00">+ isCriticalHit()</text>
<text text-anchor="start" x="133" y="-200.5" font-family="Helvetica,sans-Serif" font-size="10.00">+ ranAway()</text>
<text text-anchor="start" x="133" y="-189.5" font-family="Helvetica,sans-Serif" font-size="10.00">+ damageCalculation()</text>
<text text-anchor="start" x="133" y="-178.5" font-family="Helvetica,sans-Serif" font-size="10.00">+ enemyMove()</text>
<text text-anchor="start" x="133" y="-167.5" font-family="Helvetica,sans-Serif" font-size="10.00">+ enemySpecialMove()</text>
<text text-anchor="start" x="133" y="-156.5" font-family="Helvetica,sans-Serif" font-size="10.00">+ battleWon()</text>
<text text-anchor="start" x="133" y="-145.5" font-family="Helvetica,sans-Serif" font-size="10.00">+ playerFainted()</text>
<text text-anchor="start" x="133" y="-134.5" font-family="Helvetica,sans-Serif" font-size="10.00">&#45; characterFainted()</text>
</a>
</g>
</g>
<!-- Node6&#45;&gt;Node9 -->
<g id="edge9" class="edge"><title>Node6&#45;&gt;Node9</title>
<path fill="none" stroke="#404040" d="M470.75,-986.715C496.983,-973.733 541.117,-947.469 561,-910 600.068,-836.38 592.845,-609.256 555,-535 546.139,-517.613 355.372,-362.065 250.558,-277.378"/>
<polygon fill="none" stroke="#404040" points="250.337,-277.2 243.156,-276.542 241.001,-269.66 248.182,-270.318 250.337,-277.2"/>
<text text-anchor="middle" x="626" y="-616.5" font-family="Helvetica,sans-Serif" font-size="10.00"> +forceCriticalHits</text>
</g>
<!-- Node13 -->
<g id="node11" class="node"><title>Node13</title>
<g id="a_node11"><a xlink:href="class_item.html" target="_top" xlink:title="{Item\n|+ Name\l+ Desc\l|+ applyBuffs()\l+ revertBuffs()\l}">
<polygon fill="none" stroke="black" points="334.5,-721.5 334.5,-800.5 411.5,-800.5 411.5,-721.5 334.5,-721.5"/>
<text text-anchor="middle" x="373" y="-788.5" font-family="Helvetica,sans-Serif" font-size="10.00">Item</text>
<polyline fill="none" stroke="black" points="334.5,-781.5 411.5,-781.5 "/>
<text text-anchor="start" x="342.5" y="-769.5" font-family="Helvetica,sans-Serif" font-size="10.00">+ Name</text>
<text text-anchor="start" x="342.5" y="-758.5" font-family="Helvetica,sans-Serif" font-size="10.00">+ Desc</text>
<polyline fill="none" stroke="black" points="334.5,-751.5 411.5,-751.5 "/>
<text text-anchor="start" x="342.5" y="-739.5" font-family="Helvetica,sans-Serif" font-size="10.00">+ applyBuffs()</text>
<text text-anchor="start" x="342.5" y="-728.5" font-family="Helvetica,sans-Serif" font-size="10.00">+ revertBuffs()</text>
</a>
</g>
</g>
<!-- Node6&#45;&gt;Node13 -->
<g id="edge18" class="edge"><title>Node6&#45;&gt;Node13</title>
<path fill="none" stroke="#404040" d="M429.297,-972.637C416.131,-956.299 400.089,-933.308 392,-910 381.198,-878.875 376.439,-842.148 374.386,-813.067"/>
<polygon fill="none" stroke="#404040" points="374.362,-812.681 370.009,-806.932 373.641,-800.702 377.994,-806.451 374.362,-812.681"/>
<text text-anchor="middle" x="428" y="-942" font-family="Helvetica,sans-Serif" font-size="10.00"> #desc</text>
<text text-anchor="middle" x="428" y="-931" font-family="Helvetica,sans-Serif" font-size="10.00">#name</text>
</g>
<!-- Node7&#45;&gt;Node5 -->
<g id="edge4" class="edge"><title>Node7&#45;&gt;Node5</title>
<path fill="none" stroke="#404040" d="M274.854,-535.287C281.403,-519.763 287.765,-503.529 293,-488 340.413,-347.354 375.919,-175.25 391.807,-91.5489"/>
<polygon fill="none" stroke="#404040" points="391.834,-91.4075 389.013,-84.7712 394.053,-79.6145 396.875,-86.2508 391.834,-91.4075"/>
<text text-anchor="middle" x="354" y="-349" font-family="Helvetica,sans-Serif" font-size="10.00"> #target</text>
<text text-anchor="middle" x="354" y="-338" font-family="Helvetica,sans-Serif" font-size="10.00">#user</text>
</g>
<!-- Node10 -->
<g id="node8" class="node"><title>Node10</title>
<g id="a_node8"><a xlink:href="class_enemy.html" target="_top" xlink:title="Defines an AI controller enemy to fight in battle scenes">
<polygon fill="none" stroke="black" points="84.5,-403 84.5,-460 151.5,-460 151.5,-403 84.5,-403"/>
<text text-anchor="middle" x="118" y="-448" font-family="Helvetica,sans-Serif" font-size="10.00">Enemy</text>
<polyline fill="none" stroke="black" points="84.5,-441 151.5,-441 "/>
<text text-anchor="start" x="92.5" y="-429" font-family="Helvetica,sans-Serif" font-size="10.00">+ ExpGiven</text>
<polyline fill="none" stroke="black" points="84.5,-422 151.5,-422 "/>
<text text-anchor="start" x="92.5" y="-410" font-family="Helvetica,sans-Serif" font-size="10.00">+ Enemy()</text>
</a>
</g>
</g>
<!-- Node7&#45;&gt;Node10 -->
<g id="edge11" class="edge"><title>Node7&#45;&gt;Node10</title>
<path fill="none" stroke="midnightblue" d="M182.873,-534.483C165.928,-507.844 148.329,-480.179 135.745,-460.395"/>
<polygon fill="none" stroke="midnightblue" points="180.025,-536.526 188.345,-543.085 185.931,-532.769 180.025,-536.526"/>
</g>
<!-- Node12 -->
<g id="node10" class="node"><title>Node12</title>
<g id="a_node10"><a xlink:href="class_player.html" target="_top" xlink:title="Defines a playable character for use in battle scenes">
<polygon fill="none" stroke="black" points="172,-375.5 172,-487.5 284,-487.5 284,-375.5 172,-375.5"/>
<text text-anchor="middle" x="228" y="-475.5" font-family="Helvetica,sans-Serif" font-size="10.00">Player</text>
<polyline fill="none" stroke="black" points="172,-468.5 284,-468.5 "/>
<text text-anchor="start" x="180" y="-456.5" font-family="Helvetica,sans-Serif" font-size="10.00">+ Exp</text>
<text text-anchor="start" x="180" y="-445.5" font-family="Helvetica,sans-Serif" font-size="10.00">+ Item</text>
<text text-anchor="start" x="180" y="-434.5" font-family="Helvetica,sans-Serif" font-size="10.00">+ ExpToNextLevel</text>
<polyline fill="none" stroke="black" points="172,-427.5 284,-427.5 "/>
<text text-anchor="start" x="180" y="-415.5" font-family="Helvetica,sans-Serif" font-size="10.00">+ Player()</text>
<text text-anchor="start" x="180" y="-404.5" font-family="Helvetica,sans-Serif" font-size="10.00">+ gainExp()</text>
<text text-anchor="start" x="180" y="-393.5" font-family="Helvetica,sans-Serif" font-size="10.00">+ levelUp()</text>
<text text-anchor="start" x="180" y="-382.5" font-family="Helvetica,sans-Serif" font-size="10.00">&#45; setExpToNextLevel()</text>
</a>
</g>
</g>
<!-- Node7&#45;&gt;Node12 -->
<g id="edge16" class="edge"><title>Node7&#45;&gt;Node12</title>
<path fill="none" stroke="midnightblue" d="M231.991,-525.04C231.439,-512.242 230.887,-499.449 230.378,-487.637"/>
<polygon fill="none" stroke="midnightblue" points="228.505,-525.447 232.433,-535.286 235.499,-525.145 228.505,-525.447"/>
</g>
<!-- Node8 -->
<g id="node6" class="node"><title>Node8</title>
<polygon fill="none" stroke="#bfbfbf" points="121.5,-968.5 121.5,-1025.5 150.5,-1025.5 150.5,-968.5 121.5,-968.5"/>
<text text-anchor="middle" x="136" y="-1013.5" font-family="Helvetica,sans-Serif" font-size="10.00">int</text>
<polyline fill="none" stroke="#bfbfbf" points="121.5,-1006.5 150.5,-1006.5 "/>
<text text-anchor="middle" x="136" y="-994.5" font-family="Helvetica,sans-Serif" font-size="10.00"> </text>
<polyline fill="none" stroke="#bfbfbf" points="121.5,-987.5 150.5,-987.5 "/>
<text text-anchor="middle" x="136" y="-975.5" font-family="Helvetica,sans-Serif" font-size="10.00"> </text>
</g>
<!-- Node8&#45;&gt;Node4 -->
<g id="edge21" class="edge"><title>Node8&#45;&gt;Node4</title>
<path fill="none" stroke="#404040" d="M150.724,-989.881C192.761,-972.41 315.096,-921.567 389.705,-890.559"/>
<polygon fill="none" stroke="#404040" points="389.72,-890.553 393.725,-884.557 400.801,-885.947 396.795,-891.944 389.72,-890.553"/>
<text text-anchor="middle" x="310.5" y="-936.5" font-family="Helvetica,sans-Serif" font-size="10.00"> #magic</text>
</g>
<!-- Node8&#45;&gt;Node7 -->
<g id="edge6" class="edge"><title>Node8&#45;&gt;Node7</title>
<path fill="none" stroke="#404040" d="M144.711,-968.329C159.416,-921.936 188.313,-832.218 196,-819 201.381,-809.747 207.545,-810.733 212,-801 224.178,-774.393 230.694,-743.439 234.048,-714.733"/>
<polygon fill="none" stroke="#404040" points="234.069,-714.525 230.705,-708.146 235.299,-702.588 238.663,-708.966 234.069,-714.525"/>
<text text-anchor="middle" x="233.5" y="-900.5" font-family="Helvetica,sans-Serif" font-size="10.00"> #speed</text>
<text text-anchor="middle" x="233.5" y="-889.5" font-family="Helvetica,sans-Serif" font-size="10.00">#luck</text>
<text text-anchor="middle" x="233.5" y="-878.5" font-family="Helvetica,sans-Serif" font-size="10.00">#health</text>
<text text-anchor="middle" x="233.5" y="-867.5" font-family="Helvetica,sans-Serif" font-size="10.00">#magic</text>
<text text-anchor="middle" x="233.5" y="-856.5" font-family="Helvetica,sans-Serif" font-size="10.00">#maximumMagic</text>
<text text-anchor="middle" x="233.5" y="-845.5" font-family="Helvetica,sans-Serif" font-size="10.00">#attack</text>
<text text-anchor="middle" x="233.5" y="-834.5" font-family="Helvetica,sans-Serif" font-size="10.00">#defence</text>
<text text-anchor="middle" x="233.5" y="-823.5" font-family="Helvetica,sans-Serif" font-size="10.00">#level</text>
</g>
<!-- Node8&#45;&gt;Node9 -->
<g id="edge13" class="edge"><title>Node8&#45;&gt;Node9</title>
<path fill="none" stroke="#404040" d="M121.446,-990.297C86.3613,-975.488 0,-932.255 0,-865.5 0,-865.5 0,-865.5 0,-430.5 0,-358.564 62.6319,-299.779 114.614,-263.378"/>
<polygon fill="none" stroke="#404040" points="114.932,-263.161 117.635,-256.475 124.846,-256.399 122.143,-263.085 114.932,-263.161"/>
<text text-anchor="middle" x="19.5" y="-616.5" font-family="Helvetica,sans-Serif" font-size="10.00"> +money</text>
</g>
<!-- Node8&#45;&gt;Node10 -->
<g id="edge12" class="edge"><title>Node8&#45;&gt;Node10</title>
<path fill="none" stroke="#404040" d="M123.032,-968.368C106.406,-931.271 78.477,-862.863 68,-801 47.8037,-681.748 83.9428,-539.691 104.781,-472.069"/>
<polygon fill="none" stroke="#404040" points="104.873,-471.777 102.859,-464.853 108.477,-460.331 110.49,-467.255 104.873,-471.777"/>
<text text-anchor="middle" x="91" y="-758.5" font-family="Helvetica,sans-Serif" font-size="10.00"> &#45;expGiven</text>
</g>
<!-- Node8&#45;&gt;Node12 -->
<g id="edge19" class="edge"><title>Node8&#45;&gt;Node12</title>
<path fill="none" stroke="#404040" d="M135.438,-968.231C134.704,-930.411 133.458,-860.589 133,-801 132.727,-765.445 128.7,-756.295 133,-721 143.298,-636.468 150.265,-615.163 179,-535 183.262,-523.111 188.458,-510.756 193.853,-498.912"/>
<polygon fill="none" stroke="#404040" points="193.989,-498.62 192.902,-491.492 199.064,-487.746 200.151,-494.875 193.989,-498.62"/>
<text text-anchor="middle" x="170.5" y="-764" font-family="Helvetica,sans-Serif" font-size="10.00"> &#45;expToNextLevel</text>
<text text-anchor="middle" x="170.5" y="-753" font-family="Helvetica,sans-Serif" font-size="10.00">&#45;exp</text>
</g>
<!-- Node9&#45;&gt;Node5 -->
<g id="edge8" class="edge"><title>Node9&#45;&gt;Node5</title>
<path fill="none" stroke="#404040" d="M241.165,-163.538C263.827,-142.144 290.456,-118.177 316,-98 325.932,-90.1549 336.918,-82.2623 347.603,-74.9561"/>
<polygon fill="none" stroke="#404040" points="347.756,-74.8532 350.499,-68.1843 357.71,-68.1516 354.967,-74.8205 347.756,-74.8532"/>
<text text-anchor="middle" x="339" y="-101" font-family="Helvetica,sans-Serif" font-size="10.00"> #manager</text>
</g>
<!-- Node10&#45;&gt;Node9 -->
<g id="edge10" class="edge"><title>Node10&#45;&gt;Node9</title>
<path fill="none" stroke="#404040" d="M126.631,-402.946C132.763,-383.373 141.419,-355.738 150.113,-327.985"/>
<polygon fill="none" stroke="#404040" points="150.115,-327.979 148.091,-321.058 153.702,-316.528 155.726,-323.449 150.115,-327.979"/>
<text text-anchor="middle" x="165" y="-343.5" font-family="Helvetica,sans-Serif" font-size="10.00"> &#45;enemy</text>
</g>
<!-- Node11 -->
<g id="node9" class="node"><title>Node11</title>
<polygon fill="none" stroke="#bfbfbf" points="31.5,-403 31.5,-460 66.5,-460 66.5,-403 31.5,-403"/>
<text text-anchor="middle" x="49" y="-448" font-family="Helvetica,sans-Serif" font-size="10.00">bool</text>
<polyline fill="none" stroke="#bfbfbf" points="31.5,-441 66.5,-441 "/>
<text text-anchor="middle" x="49" y="-429" font-family="Helvetica,sans-Serif" font-size="10.00"> </text>
<polyline fill="none" stroke="#bfbfbf" points="31.5,-422 66.5,-422 "/>
<text text-anchor="middle" x="49" y="-410" font-family="Helvetica,sans-Serif" font-size="10.00"> </text>
</g>
<!-- Node11&#45;&gt;Node9 -->
<g id="edge14" class="edge"><title>Node11&#45;&gt;Node9</title>
<path fill="none" stroke="#404040" d="M52.0378,-402.726C55.1226,-382.858 61.2054,-356.022 73,-335 84.1958,-315.045 99.8785,-296.134 115.901,-279.727"/>
<polygon fill="none" stroke="#404040" points="116.296,-279.334 117.735,-272.268 124.811,-270.879 123.372,-277.945 116.296,-279.334"/>
<text text-anchor="middle" x="106" y="-343.5" font-family="Helvetica,sans-Serif" font-size="10.00"> &#45;wasCriticalHit</text>
</g>
<!-- Node12&#45;&gt;Node9 -->
<g id="edge15" class="edge"><title>Node12&#45;&gt;Node9</title>
<path fill="none" stroke="#404040" d="M216.059,-375.439C212.916,-360.946 209.418,-344.815 205.906,-328.623"/>
<polygon fill="none" stroke="#404040" points="205.895,-328.572 200.714,-323.556 203.352,-316.845 208.533,-321.86 205.895,-328.572"/>
<text text-anchor="middle" x="227.5" y="-343.5" font-family="Helvetica,sans-Serif" font-size="10.00"> &#45;player</text>
</g>
<!-- Node13&#45;&gt;Node12 -->
<g id="edge17" class="edge"><title>Node13&#45;&gt;Node12</title>
<path fill="none" stroke="#404040" d="M361.786,-721.169C347.972,-675.499 322.545,-597.935 292,-535 286.049,-522.738 278.996,-510.098 271.784,-498.062"/>
<polygon fill="none" stroke="#404040" points="271.688,-497.904 265.146,-494.87 265.43,-487.665 271.972,-490.698 271.688,-497.904"/>
<text text-anchor="middle" x="368.5" y="-616.5" font-family="Helvetica,sans-Serif" font-size="10.00"> &#45;item</text>
</g>
<!-- Node14 -->
<g id="node12" class="node"><title>Node14</title>
<polygon fill="none" stroke="#bfbfbf" points="517.5,-836 517.5,-893 552.5,-893 552.5,-836 517.5,-836"/>
<text text-anchor="middle" x="535" y="-881" font-family="Helvetica,sans-Serif" font-size="10.00">float</text>
<polyline fill="none" stroke="#bfbfbf" points="517.5,-874 552.5,-874 "/>
<text text-anchor="middle" x="535" y="-862" font-family="Helvetica,sans-Serif" font-size="10.00"> </text>
<polyline fill="none" stroke="#bfbfbf" points="517.5,-855 552.5,-855 "/>
<text text-anchor="middle" x="535" y="-843" font-family="Helvetica,sans-Serif" font-size="10.00"> </text>
</g>
<!-- Node14&#45;&gt;Node3 -->
<g id="edge22" class="edge"><title>Node14&#45;&gt;Node3</title>
<path fill="none" stroke="#404040" d="M530.442,-835.829C528.689,-824.977 526.701,-812.412 525,-801 518.119,-754.831 510.888,-701.936 505.984,-665.301"/>
<polygon fill="none" stroke="#404040" points="505.937,-664.953 501.179,-659.535 504.35,-653.059 509.109,-658.477 505.937,-664.953"/>
<text text-anchor="middle" x="546.5" y="-758.5" font-family="Helvetica,sans-Serif" font-size="10.00"> &#45;increase</text>
</g>
</g>
</svg>
