<?xml version="1.0" encoding="UTF-8" standalone="no"?>
<!DOCTYPE svg PUBLIC "-//W3C//DTD SVG 1.1//EN"
 "http://www.w3.org/Graphics/SVG/1.1/DTD/svg11.dtd">
<!-- Generated by graphviz version 2.38.0 (20140413.2041)
 -->
<!-- Title: CharacterMove Pages: 1 -->
<svg width="721pt" height="1024pt"
 viewBox="0.00 0.00 721.00 1024.00" xmlns="http://www.w3.org/2000/svg" xmlns:xlink="http://www.w3.org/1999/xlink">
<g id="graph0" class="graph" transform="scale(1 1) rotate(0) translate(4 1020)">
<title>CharacterMove</title>
<!-- Node11 -->
<g id="node1" class="node"><title>Node11</title>
<polygon fill="#bfbfbf" stroke="black" points="134,-820.5 134,-899.5 220,-899.5 220,-820.5 134,-820.5"/>
<text text-anchor="middle" x="177" y="-887.5" font-family="Helvetica,sans-Serif" font-size="10.00">CharacterMove</text>
<polyline fill="none" stroke="black" points="134,-880.5 220,-880.5 "/>
<text text-anchor="start" x="142" y="-868.5" font-family="Helvetica,sans-Serif" font-size="10.00">+ User</text>
<text text-anchor="start" x="142" y="-857.5" font-family="Helvetica,sans-Serif" font-size="10.00">+ Target</text>
<text text-anchor="start" x="142" y="-846.5" font-family="Helvetica,sans-Serif" font-size="10.00">+ Text</text>
<polyline fill="none" stroke="black" points="134,-839.5 220,-839.5 "/>
<text text-anchor="start" x="142" y="-827.5" font-family="Helvetica,sans-Serif" font-size="10.00">+ performMove()</text>
</g>
<!-- Node15 -->
<g id="node5" class="node"><title>Node15</title>
<g id="a_node5"><a xlink:href="class_special_move.html" target="_top" xlink:title="Special move abstract base class that expands upon CharacterMove, adding magic properties ...">
<polygon fill="none" stroke="black" points="229,-613.5 229,-703.5 327,-703.5 327,-613.5 229,-613.5"/>
<text text-anchor="middle" x="278" y="-691.5" font-family="Helvetica,sans-Serif" font-size="10.00">SpecialMove</text>
<polyline fill="none" stroke="black" points="229,-684.5 327,-684.5 "/>
<text text-anchor="start" x="237" y="-672.5" font-family="Helvetica,sans-Serif" font-size="10.00">+ Magic</text>
<text text-anchor="start" x="237" y="-661.5" font-family="Helvetica,sans-Serif" font-size="10.00">+ Desc</text>
<polyline fill="none" stroke="black" points="229,-654.5 327,-654.5 "/>
<text text-anchor="start" x="237" y="-642.5" font-family="Helvetica,sans-Serif" font-size="10.00">+ setUp()</text>
<text text-anchor="start" x="237" y="-631.5" font-family="Helvetica,sans-Serif" font-size="10.00">+ decreaseMagic()</text>
<text text-anchor="start" x="237" y="-620.5" font-family="Helvetica,sans-Serif" font-size="10.00"># SpecialMove()</text>
</a>
</g>
</g>
<!-- Node11&#45;&gt;Node15 -->
<g id="edge6" class="edge"><title>Node11&#45;&gt;Node15</title>
<path fill="none" stroke="midnightblue" d="M201.236,-811.128C217.794,-778.423 239.57,-735.408 255.699,-703.55"/>
<polygon fill="none" stroke="midnightblue" points="198.108,-809.558 196.714,-820.061 204.353,-812.72 198.108,-809.558"/>
</g>
<!-- Node12 -->
<g id="node2" class="node"><title>Node12</title>
<polygon fill="none" stroke="#bfbfbf" points="156.5,-958.5 156.5,-1015.5 197.5,-1015.5 197.5,-958.5 156.5,-958.5"/>
<text text-anchor="middle" x="177" y="-1003.5" font-family="Helvetica,sans-Serif" font-size="10.00">string</text>
<polyline fill="none" stroke="#bfbfbf" points="156.5,-996.5 197.5,-996.5 "/>
<text text-anchor="middle" x="177" y="-984.5" font-family="Helvetica,sans-Serif" font-size="10.00"> </text>
<polyline fill="none" stroke="#bfbfbf" points="156.5,-977.5 197.5,-977.5 "/>
<text text-anchor="middle" x="177" y="-965.5" font-family="Helvetica,sans-Serif" font-size="10.00"> </text>
</g>
<!-- Node12&#45;&gt;Node11 -->
<g id="edge1" class="edge"><title>Node12&#45;&gt;Node11</title>
<path fill="none" stroke="#404040" d="M177,-958.258C177,-944.637 177,-927.787 177,-911.96"/>
<polygon fill="none" stroke="#404040" points="177,-911.567 173,-905.567 177,-899.567 181,-905.567 177,-911.567"/>
<text text-anchor="middle" x="189.5" y="-926.5" font-family="Helvetica,sans-Serif" font-size="10.00"> #text</text>
</g>
<!-- Node13 -->
<g id="node3" class="node"><title>Node13</title>
<g id="a_node3"><a xlink:href="class_character.html" target="_top" xlink:title="Base abstract class for Enemy and Player to inherit from. Defines all shared variables, their constructor and their setters and getters ">
<polygon fill="none" stroke="black" points="251.5,-387.5 251.5,-554.5 346.5,-554.5 346.5,-387.5 251.5,-387.5"/>
<text text-anchor="middle" x="299" y="-542.5" font-family="Helvetica,sans-Serif" font-size="10.00">Character</text>
<polyline fill="none" stroke="black" points="251.5,-535.5 346.5,-535.5 "/>
<text text-anchor="start" x="259.5" y="-523.5" font-family="Helvetica,sans-Serif" font-size="10.00">+ Name</text>
<text text-anchor="start" x="259.5" y="-512.5" font-family="Helvetica,sans-Serif" font-size="10.00">+ Level</text>
<text text-anchor="start" x="259.5" y="-501.5" font-family="Helvetica,sans-Serif" font-size="10.00">+ Health</text>
<text text-anchor="start" x="259.5" y="-490.5" font-family="Helvetica,sans-Serif" font-size="10.00">+ Attack</text>
<text text-anchor="start" x="259.5" y="-479.5" font-family="Helvetica,sans-Serif" font-size="10.00">+ Defence</text>
<text text-anchor="start" x="259.5" y="-468.5" font-family="Helvetica,sans-Serif" font-size="10.00">+ MaximumMagic</text>
<text text-anchor="start" x="259.5" y="-457.5" font-family="Helvetica,sans-Serif" font-size="10.00">+ Magic</text>
<text text-anchor="start" x="259.5" y="-446.5" font-family="Helvetica,sans-Serif" font-size="10.00">+ Luck</text>
<text text-anchor="start" x="259.5" y="-435.5" font-family="Helvetica,sans-Serif" font-size="10.00">+ Speed</text>
<text text-anchor="start" x="259.5" y="-424.5" font-family="Helvetica,sans-Serif" font-size="10.00">+ Special1</text>
<text text-anchor="start" x="259.5" y="-413.5" font-family="Helvetica,sans-Serif" font-size="10.00">+ Special2</text>
<polyline fill="none" stroke="black" points="251.5,-406.5 346.5,-406.5 "/>
<text text-anchor="start" x="259.5" y="-394.5" font-family="Helvetica,sans-Serif" font-size="10.00"># Character()</text>
</a>
</g>
</g>
<!-- Node12&#45;&gt;Node13 -->
<g id="edge3" class="edge"><title>Node12&#45;&gt;Node13</title>
<path fill="none" stroke="#404040" d="M157.159,-958.36C125.251,-910.42 68.5666,-808.67 94,-722 118.847,-637.327 190.491,-562.367 242.082,-517.124"/>
<polygon fill="none" stroke="#404040" points="242.381,-516.866 244.31,-509.918 251.466,-509.026 249.537,-515.974 242.381,-516.866"/>
<text text-anchor="middle" x="110.5" y="-759.5" font-family="Helvetica,sans-Serif" font-size="10.00"> #name</text>
</g>
<!-- Node12&#45;&gt;Node15 -->
<g id="edge7" class="edge"><title>Node12&#45;&gt;Node15</title>
<path fill="none" stroke="#404040" d="M197.336,-958.285C208.306,-942.054 221.165,-920.727 229,-900 251.988,-839.188 264.98,-765.438 271.725,-715.771"/>
<polygon fill="none" stroke="#404040" points="271.749,-715.584 268.562,-709.116 273.308,-703.686 276.495,-710.154 271.749,-715.584"/>
<text text-anchor="middle" x="268" y="-857.5" font-family="Helvetica,sans-Serif" font-size="10.00"> #desc</text>
</g>
<!-- Node16 -->
<g id="node6" class="node"><title>Node16</title>
<g id="a_node6"><a xlink:href="class_battle_manager.html" target="_top" xlink:title="{BattleManager\n|+ Player\l+ Enemy\l+ WasCriticalHit\l|+ BattleManager()\l+ playerFirst()\l+ switchPlayers()\l+ isCriticalHit()\l+ ranAway()\l+ damageCalculation()\l+ enemyMove()\l+ enemySpecialMove()\l+ battleWon()\l+ playerFainted()\l&#45; characterFainted()\l}">
<polygon fill="none" stroke="black" points="305,-0.5 305,-189.5 421,-189.5 421,-0.5 305,-0.5"/>
<text text-anchor="middle" x="363" y="-177.5" font-family="Helvetica,sans-Serif" font-size="10.00">BattleManager</text>
<polyline fill="none" stroke="black" points="305,-170.5 421,-170.5 "/>
<text text-anchor="start" x="313" y="-158.5" font-family="Helvetica,sans-Serif" font-size="10.00">+ Player</text>
<text text-anchor="start" x="313" y="-147.5" font-family="Helvetica,sans-Serif" font-size="10.00">+ Enemy</text>
<text text-anchor="start" x="313" y="-136.5" font-family="Helvetica,sans-Serif" font-size="10.00">+ WasCriticalHit</text>
<polyline fill="none" stroke="black" points="305,-129.5 421,-129.5 "/>
<text text-anchor="start" x="313" y="-117.5" font-family="Helvetica,sans-Serif" font-size="10.00">+ BattleManager()</text>
<text text-anchor="start" x="313" y="-106.5" font-family="Helvetica,sans-Serif" font-size="10.00">+ playerFirst()</text>
<text text-anchor="start" x="313" y="-95.5" font-family="Helvetica,sans-Serif" font-size="10.00">+ switchPlayers()</text>
<text text-anchor="start" x="313" y="-84.5" font-family="Helvetica,sans-Serif" font-size="10.00">+ isCriticalHit()</text>
<text text-anchor="start" x="313" y="-73.5" font-family="Helvetica,sans-Serif" font-size="10.00">+ ranAway()</text>
<text text-anchor="start" x="313" y="-62.5" font-family="Helvetica,sans-Serif" font-size="10.00">+ damageCalculation()</text>
<text text-anchor="start" x="313" y="-51.5" font-family="Helvetica,sans-Serif" font-size="10.00">+ enemyMove()</text>
<text text-anchor="start" x="313" y="-40.5" font-family="Helvetica,sans-Serif" font-size="10.00">+ enemySpecialMove()</text>
<text text-anchor="start" x="313" y="-29.5" font-family="Helvetica,sans-Serif" font-size="10.00">+ battleWon()</text>
<text text-anchor="start" x="313" y="-18.5" font-family="Helvetica,sans-Serif" font-size="10.00">+ playerFainted()</text>
<text text-anchor="start" x="313" y="-7.5" font-family="Helvetica,sans-Serif" font-size="10.00">&#45; characterFainted()</text>
</a>
</g>
</g>
<!-- Node12&#45;&gt;Node16 -->
<g id="edge10" class="edge"><title>Node12&#45;&gt;Node16</title>
<path fill="none" stroke="#404040" d="M156.349,-981.723C109.659,-970.718 0,-936.803 0,-861 0,-861 0,-861 0,-292.5 0,-160.839 186.967,-116.949 292.537,-102.66"/>
<polygon fill="none" stroke="#404040" points="292.776,-102.63 298.216,-97.8971 304.678,-101.099 299.237,-105.832 292.776,-102.63"/>
<text text-anchor="middle" x="39" y="-581.5" font-family="Helvetica,sans-Serif" font-size="10.00"> +forceCriticalHits</text>
</g>
<!-- Node20 -->
<g id="node10" class="node"><title>Node20</title>
<g id="a_node10"><a xlink:href="class_item.html" target="_top" xlink:title="{Item\n|+ Name\l+ Desc\l|+ applyBuffs()\l+ revertBuffs()\l}">
<polygon fill="none" stroke="black" points="615.5,-722.5 615.5,-801.5 692.5,-801.5 692.5,-722.5 615.5,-722.5"/>
<text text-anchor="middle" x="654" y="-789.5" font-family="Helvetica,sans-Serif" font-size="10.00">Item</text>
<polyline fill="none" stroke="black" points="615.5,-782.5 692.5,-782.5 "/>
<text text-anchor="start" x="623.5" y="-770.5" font-family="Helvetica,sans-Serif" font-size="10.00">+ Name</text>
<text text-anchor="start" x="623.5" y="-759.5" font-family="Helvetica,sans-Serif" font-size="10.00">+ Desc</text>
<polyline fill="none" stroke="black" points="615.5,-752.5 692.5,-752.5 "/>
<text text-anchor="start" x="623.5" y="-740.5" font-family="Helvetica,sans-Serif" font-size="10.00">+ applyBuffs()</text>
<text text-anchor="start" x="623.5" y="-729.5" font-family="Helvetica,sans-Serif" font-size="10.00">+ revertBuffs()</text>
</a>
</g>
</g>
<!-- Node12&#45;&gt;Node20 -->
<g id="edge19" class="edge"><title>Node12&#45;&gt;Node20</title>
<path fill="none" stroke="#404040" d="M197.798,-983.335C249.552,-976.07 387.276,-952.822 489,-900 533.661,-876.809 577.156,-839.918 608.268,-810.257"/>
<polygon fill="none" stroke="#404040" points="608.483,-810.049 610.014,-803.002 617.108,-801.705 615.577,-808.752 608.483,-810.049"/>
<text text-anchor="middle" x="465" y="-932" font-family="Helvetica,sans-Serif" font-size="10.00"> #desc</text>
<text text-anchor="middle" x="465" y="-921" font-family="Helvetica,sans-Serif" font-size="10.00">#name</text>
</g>
<!-- Node13&#45;&gt;Node11 -->
<g id="edge2" class="edge"><title>Node13&#45;&gt;Node11</title>
<path fill="none" stroke="#404040" d="M251.253,-516.106C226.932,-541.769 199.67,-576.247 186,-613 162.12,-677.203 164.615,-757.445 169.819,-808.474"/>
<polygon fill="none" stroke="#404040" points="169.827,-808.547 174.463,-814.071 171.148,-820.475 166.512,-814.951 169.827,-808.547"/>
<text text-anchor="middle" x="203" y="-661.5" font-family="Helvetica,sans-Serif" font-size="10.00"> #target</text>
<text text-anchor="middle" x="203" y="-650.5" font-family="Helvetica,sans-Serif" font-size="10.00">#user</text>
</g>
<!-- Node17 -->
<g id="node7" class="node"><title>Node17</title>
<g id="a_node7"><a xlink:href="class_enemy.html" target="_top" xlink:title="Defines an AI controller enemy to fight in battle scenes">
<polygon fill="none" stroke="black" points="276.5,-265 276.5,-322 343.5,-322 343.5,-265 276.5,-265"/>
<text text-anchor="middle" x="310" y="-310" font-family="Helvetica,sans-Serif" font-size="10.00">Enemy</text>
<polyline fill="none" stroke="black" points="276.5,-303 343.5,-303 "/>
<text text-anchor="start" x="284.5" y="-291" font-family="Helvetica,sans-Serif" font-size="10.00">+ ExpGiven</text>
<polyline fill="none" stroke="black" points="276.5,-284 343.5,-284 "/>
<text text-anchor="start" x="284.5" y="-272" font-family="Helvetica,sans-Serif" font-size="10.00">+ Enemy()</text>
</a>
</g>
</g>
<!-- Node13&#45;&gt;Node17 -->
<g id="edge12" class="edge"><title>Node13&#45;&gt;Node17</title>
<path fill="none" stroke="midnightblue" d="M304.816,-377.202C306.075,-357.122 307.311,-337.396 308.261,-322.248"/>
<polygon fill="none" stroke="midnightblue" points="301.31,-377.19 304.178,-387.389 308.297,-377.628 301.31,-377.19"/>
</g>
<!-- Node19 -->
<g id="node9" class="node"><title>Node19</title>
<g id="a_node9"><a xlink:href="class_player.html" target="_top" xlink:title="Defines a playable character for use in battle scenes">
<polygon fill="none" stroke="black" points="362,-237.5 362,-349.5 474,-349.5 474,-237.5 362,-237.5"/>
<text text-anchor="middle" x="418" y="-337.5" font-family="Helvetica,sans-Serif" font-size="10.00">Player</text>
<polyline fill="none" stroke="black" points="362,-330.5 474,-330.5 "/>
<text text-anchor="start" x="370" y="-318.5" font-family="Helvetica,sans-Serif" font-size="10.00">+ Exp</text>
<text text-anchor="start" x="370" y="-307.5" font-family="Helvetica,sans-Serif" font-size="10.00">+ Item</text>
<text text-anchor="start" x="370" y="-296.5" font-family="Helvetica,sans-Serif" font-size="10.00">+ ExpToNextLevel</text>
<polyline fill="none" stroke="black" points="362,-289.5 474,-289.5 "/>
<text text-anchor="start" x="370" y="-277.5" font-family="Helvetica,sans-Serif" font-size="10.00">+ Player()</text>
<text text-anchor="start" x="370" y="-266.5" font-family="Helvetica,sans-Serif" font-size="10.00">+ gainExp()</text>
<text text-anchor="start" x="370" y="-255.5" font-family="Helvetica,sans-Serif" font-size="10.00">+ levelUp()</text>
<text text-anchor="start" x="370" y="-244.5" font-family="Helvetica,sans-Serif" font-size="10.00">&#45; setExpToNextLevel()</text>
</a>
</g>
</g>
<!-- Node13&#45;&gt;Node19 -->
<g id="edge17" class="edge"><title>Node13&#45;&gt;Node19</title>
<path fill="none" stroke="midnightblue" d="M352.162,-391.597C361.759,-377.444 371.578,-362.962 380.606,-349.648"/>
<polygon fill="none" stroke="midnightblue" points="349.26,-389.64 346.545,-399.881 355.054,-393.569 349.26,-389.64"/>
</g>
<!-- Node14 -->
<g id="node4" class="node"><title>Node14</title>
<polygon fill="none" stroke="#bfbfbf" points="451.5,-831.5 451.5,-888.5 480.5,-888.5 480.5,-831.5 451.5,-831.5"/>
<text text-anchor="middle" x="466" y="-876.5" font-family="Helvetica,sans-Serif" font-size="10.00">int</text>
<polyline fill="none" stroke="#bfbfbf" points="451.5,-869.5 480.5,-869.5 "/>
<text text-anchor="middle" x="466" y="-857.5" font-family="Helvetica,sans-Serif" font-size="10.00"> </text>
<polyline fill="none" stroke="#bfbfbf" points="451.5,-850.5 480.5,-850.5 "/>
<text text-anchor="middle" x="466" y="-838.5" font-family="Helvetica,sans-Serif" font-size="10.00"> </text>
</g>
<!-- Node14&#45;&gt;Node13 -->
<g id="edge4" class="edge"><title>Node14&#45;&gt;Node13</title>
<path fill="none" stroke="#404040" d="M451.391,-837.233C432.249,-807.964 398.585,-753.829 377,-704 352.802,-648.14 356.617,-630.628 337,-573 336.198,-570.645 335.377,-568.262 334.541,-565.86"/>
<polygon fill="none" stroke="#404040" points="334.534,-565.839 328.764,-561.514 330.536,-554.525 336.307,-558.849 334.534,-565.839"/>
<text text-anchor="middle" x="414.5" y="-694.5" font-family="Helvetica,sans-Serif" font-size="10.00"> #speed</text>
<text text-anchor="middle" x="414.5" y="-683.5" font-family="Helvetica,sans-Serif" font-size="10.00">#luck</text>
<text text-anchor="middle" x="414.5" y="-672.5" font-family="Helvetica,sans-Serif" font-size="10.00">#health</text>
<text text-anchor="middle" x="414.5" y="-661.5" font-family="Helvetica,sans-Serif" font-size="10.00">#magic</text>
<text text-anchor="middle" x="414.5" y="-650.5" font-family="Helvetica,sans-Serif" font-size="10.00">#maximumMagic</text>
<text text-anchor="middle" x="414.5" y="-639.5" font-family="Helvetica,sans-Serif" font-size="10.00">#attack</text>
<text text-anchor="middle" x="414.5" y="-628.5" font-family="Helvetica,sans-Serif" font-size="10.00">#defence</text>
<text text-anchor="middle" x="414.5" y="-617.5" font-family="Helvetica,sans-Serif" font-size="10.00">#level</text>
</g>
<!-- Node14&#45;&gt;Node15 -->
<g id="edge8" class="edge"><title>Node14&#45;&gt;Node15</title>
<path fill="none" stroke="#404040" d="M451.399,-857.907C421.073,-854.829 351.015,-843.383 314,-802 293.012,-778.535 283.892,-744.591 280.076,-715.717"/>
<polygon fill="none" stroke="#404040" points="280.066,-715.625 275.43,-710.102 278.746,-703.698 283.382,-709.222 280.066,-715.625"/>
<text text-anchor="middle" x="331.5" y="-759.5" font-family="Helvetica,sans-Serif" font-size="10.00"> #magic</text>
</g>
<!-- Node14&#45;&gt;Node16 -->
<g id="edge14" class="edge"><title>Node14&#45;&gt;Node16</title>
<path fill="none" stroke="#404040" d="M478.586,-831.337C480.606,-827.46 482.77,-823.58 485,-820 490.359,-811.398 493.074,-810.222 499,-802 543.507,-740.251 594,-735.617 594,-659.5 594,-659.5 594,-659.5 594,-292.5 594,-206.716 500.431,-150.531 432.396,-121.016"/>
<polygon fill="none" stroke="#404040" points="432.349,-120.996 425.266,-122.351 421.291,-116.335 428.374,-114.98 432.349,-120.996"/>
<text text-anchor="middle" x="613.5" y="-468.5" font-family="Helvetica,sans-Serif" font-size="10.00"> +money</text>
</g>
<!-- Node14&#45;&gt;Node17 -->
<g id="edge13" class="edge"><title>Node14&#45;&gt;Node17</title>
<path fill="none" stroke="#404040" d="M468.004,-831.497C470.577,-785.42 472.529,-690.093 452,-613 449.698,-604.357 446.744,-603.123 443,-595 400.978,-503.842 396.526,-478.385 355,-387 346.896,-369.166 337.476,-349.633 329.354,-333.131"/>
<polygon fill="none" stroke="#404040" points="329.292,-333.005 323.046,-329.401 323.972,-322.249 330.217,-325.854 329.292,-333.005"/>
<text text-anchor="middle" x="466" y="-581.5" font-family="Helvetica,sans-Serif" font-size="10.00"> &#45;expGiven</text>
</g>
<!-- Node14&#45;&gt;Node19 -->
<g id="edge20" class="edge"><title>Node14&#45;&gt;Node19</title>
<path fill="none" stroke="#404040" d="M474.138,-831.409C476.504,-822.148 478.778,-811.706 480,-802 504.158,-610.135 502.324,-553.883 449,-368 448.356,-365.754 447.661,-363.484 446.927,-361.204"/>
<polygon fill="none" stroke="#404040" points="446.895,-361.113 441.149,-356.757 442.961,-349.777 448.707,-354.133 446.895,-361.113"/>
<text text-anchor="middle" x="532.5" y="-587" font-family="Helvetica,sans-Serif" font-size="10.00"> &#45;expToNextLevel</text>
<text text-anchor="middle" x="532.5" y="-576" font-family="Helvetica,sans-Serif" font-size="10.00">&#45;exp</text>
</g>
<!-- Node15&#45;&gt;Node13 -->
<g id="edge5" class="edge"><title>Node15&#45;&gt;Node13</title>
<path fill="none" stroke="#404040" d="M283.03,-613.068C284.616,-599.06 286.433,-583.013 288.259,-566.879"/>
<polygon fill="none" stroke="#404040" points="288.304,-566.481 285.004,-560.069 289.654,-554.557 292.954,-560.969 288.304,-566.481"/>
<text text-anchor="middle" x="310.5" y="-587" font-family="Helvetica,sans-Serif" font-size="10.00"> #special1</text>
<text text-anchor="middle" x="310.5" y="-576" font-family="Helvetica,sans-Serif" font-size="10.00">#special2</text>
</g>
<!-- Node16&#45;&gt;Node11 -->
<g id="edge9" class="edge"><title>Node16&#45;&gt;Node11</title>
<path fill="none" stroke="#404040" d="M304.756,-116.139C236.033,-144.05 131,-201.58 131,-292.5 131,-585 131,-585 131,-585 131,-663.925 149.792,-753.894 163.354,-808.547"/>
<polygon fill="none" stroke="#404040" points="163.39,-808.688 168.738,-813.524 166.331,-820.321 160.982,-815.485 163.39,-808.688"/>
<text text-anchor="middle" x="154" y="-468.5" font-family="Helvetica,sans-Serif" font-size="10.00"> #manager</text>
</g>
<!-- Node17&#45;&gt;Node16 -->
<g id="edge11" class="edge"><title>Node17&#45;&gt;Node16</title>
<path fill="none" stroke="#404040" d="M317.481,-264.763C322.046,-247.839 328.202,-225.016 334.509,-201.632"/>
<polygon fill="none" stroke="#404040" points="334.587,-201.343 332.287,-194.509 337.712,-189.757 340.011,-196.592 334.587,-201.343"/>
<text text-anchor="middle" x="350" y="-211" font-family="Helvetica,sans-Serif" font-size="10.00"> &#45;enemy</text>
</g>
<!-- Node18 -->
<g id="node8" class="node"><title>Node18</title>
<polygon fill="none" stroke="#bfbfbf" points="492.5,-265 492.5,-322 527.5,-322 527.5,-265 492.5,-265"/>
<text text-anchor="middle" x="510" y="-310" font-family="Helvetica,sans-Serif" font-size="10.00">bool</text>
<polyline fill="none" stroke="#bfbfbf" points="492.5,-303 527.5,-303 "/>
<text text-anchor="middle" x="510" y="-291" font-family="Helvetica,sans-Serif" font-size="10.00"> </text>
<polyline fill="none" stroke="#bfbfbf" points="492.5,-284 527.5,-284 "/>
<text text-anchor="middle" x="510" y="-272" font-family="Helvetica,sans-Serif" font-size="10.00"> </text>
</g>
<!-- Node18&#45;&gt;Node16 -->
<g id="edge15" class="edge"><title>Node18&#45;&gt;Node16</title>
<path fill="none" stroke="#404040" d="M498.273,-264.934C493.94,-255.775 488.687,-245.7 483,-237 467.226,-212.869 447.776,-188.339 429.162,-166.653"/>
<polygon fill="none" stroke="#404040" points="429.118,-166.602 422.163,-164.695 421.248,-157.542 428.203,-159.449 429.118,-166.602"/>
<text text-anchor="middle" x="502" y="-211" font-family="Helvetica,sans-Serif" font-size="10.00"> &#45;wasCriticalHit</text>
</g>
<!-- Node19&#45;&gt;Node16 -->
<g id="edge16" class="edge"><title>Node19&#45;&gt;Node16</title>
<path fill="none" stroke="#404040" d="M402.533,-237.241C399.379,-225.972 395.962,-213.763 392.502,-201.402"/>
<polygon fill="none" stroke="#404040" points="392.414,-201.086 386.944,-196.386 389.179,-189.53 394.648,-194.23 392.414,-201.086"/>
<text text-anchor="middle" x="414.5" y="-211" font-family="Helvetica,sans-Serif" font-size="10.00"> &#45;player</text>
</g>
<!-- Node20&#45;&gt;Node19 -->
<g id="edge18" class="edge"><title>Node20&#45;&gt;Node19</title>
<path fill="none" stroke="#404040" d="M665.774,-722.35C685.813,-648.03 717.078,-483.983 637,-387 594.545,-335.582 550.615,-377.053 485.438,-350.263"/>
<polygon fill="none" stroke="#404040" points="485.24,-350.171 478.114,-351.278 474.352,-345.126 481.477,-344.019 485.24,-350.171"/>
<text text-anchor="middle" x="700.5" y="-581.5" font-family="Helvetica,sans-Serif" font-size="10.00"> &#45;item</text>
</g>
</g>
</svg>
