<?xml version="1.0" encoding="UTF-8" standalone="no"?>
<!DOCTYPE svg PUBLIC "-//W3C//DTD SVG 1.1//EN"
 "http://www.w3.org/Graphics/SVG/1.1/DTD/svg11.dtd">
<!-- Generated by graphviz version 2.38.0 (20140413.2041)
 -->
<!-- Title: IncreaseMoney Pages: 1 -->
<!--zoomable 1045 -->
<svg id="main" version="1.1" xmlns="http://www.w3.org/2000/svg" xmlns:xlink="http://www.w3.org/1999/xlink" xml:space="preserve" onload="init(evt)">
<style type="text/css"><![CDATA[
.edge:hover path { stroke: red; }
.edge:hover polygon { stroke: red; fill: red; }
]]></style>
<script type="text/javascript"><![CDATA[
var edges = document.getElementsByTagName('g');
if (edges && edges.length) {
  for (var i=0;i<edges.length;i++) {
    if (edges[i].id.substr(0,4)=='edge') {
      edges[i].setAttribute('class','edge');
    }
  }
}
]]></script>
        <defs>
                <circle id="rim" cx="0" cy="0" r="7"/>
                <circle id="rim2" cx="0" cy="0" r="3.5"/>
                <g id="zoomPlus">
                        <use xlink:href="#rim" fill="#404040">
                                <set attributeName="fill" to="#808080" begin="zoomplus.mouseover" end="zoomplus.mouseout"/>
                        </use>
                        <path d="M-4,0h8M0,-4v8" fill="none" stroke="white" stroke-width="1.5" pointer-events="none"/>
                </g>
                <g id="zoomMin">
                        <use xlink:href="#rim" fill="#404040">
                                <set attributeName="fill" to="#808080" begin="zoomminus.mouseover" end="zoomminus.mouseout"/>
                        </use>
                        <path d="M-4,0h8" fill="none" stroke="white" stroke-width="1.5" pointer-events="none"/>
                </g>
                <g id="dirArrow">
                        <path fill="none" stroke="white" stroke-width="1.5" d="M0,-3.0v7 M-2.5,-0.5L0,-3.0L2.5,-0.5"/>
                </g>
               <g id="resetDef">
                       <use xlink:href="#rim2" fill="#404040">
                               <set attributeName="fill" to="#808080" begin="reset.mouseover" end="reset.mouseout"/>
                       </use>
               </g>
        </defs>

<script type="text/javascript">
var viewWidth = 757;
var viewHeight = 1045;
var sectionId = 'dynsection-1';
</script>
<script xlink:href="svgpan.js"/>
<svg id="graph" class="graph">
<g id="viewport">
<title>IncreaseMoney</title>
<!-- Node3 -->
<g id="node1" class="node"><title>Node3</title>
<polygon fill="#bfbfbf" stroke="black" points="598,-590.5 598,-658.5 696,-658.5 696,-590.5 598,-590.5"/>
<text text-anchor="middle" x="647" y="-646.5" font-family="Helvetica,sans-Serif" font-size="10.00">IncreaseMoney</text>
<polyline fill="none" stroke="black" points="598,-639.5 696,-639.5 "/>
<text text-anchor="middle" x="647" y="-627.5" font-family="Helvetica,sans-Serif" font-size="10.00"> </text>
<polyline fill="none" stroke="black" points="598,-620.5 696,-620.5 "/>
<text text-anchor="start" x="606" y="-608.5" font-family="Helvetica,sans-Serif" font-size="10.00">+ IncreaseMoney()</text>
<text text-anchor="start" x="606" y="-597.5" font-family="Helvetica,sans-Serif" font-size="10.00">+ performMove()</text>
</g>
<!-- Node4 -->
<g id="node2" class="node"><title>Node4</title>
<g id="a_node2"><a xlink:href="class_special_move.html" target="_top" xlink:title="Special move abstract base class that expands upon CharacterMove, adding magic properties ...">
<polygon fill="none" stroke="black" points="521,-830.5 521,-920.5 619,-920.5 619,-830.5 521,-830.5"/>
<text text-anchor="middle" x="570" y="-908.5" font-family="Helvetica,sans-Serif" font-size="10.00">SpecialMove</text>
<polyline fill="none" stroke="black" points="521,-901.5 619,-901.5 "/>
<text text-anchor="start" x="529" y="-889.5" font-family="Helvetica,sans-Serif" font-size="10.00">+ Magic</text>
<text text-anchor="start" x="529" y="-878.5" font-family="Helvetica,sans-Serif" font-size="10.00">+ Desc</text>
<polyline fill="none" stroke="black" points="521,-871.5 619,-871.5 "/>
<text text-anchor="start" x="529" y="-859.5" font-family="Helvetica,sans-Serif" font-size="10.00">+ setUp()</text>
<text text-anchor="start" x="529" y="-848.5" font-family="Helvetica,sans-Serif" font-size="10.00">+ decreaseMagic()</text>
<text text-anchor="start" x="529" y="-837.5" font-family="Helvetica,sans-Serif" font-size="10.00"># SpecialMove()</text>
</a>
</g>
</g>
<!-- Node4&#45;&gt;Node3 -->
<g id="edge1" class="edge"><title>Node4&#45;&gt;Node3</title>
<path fill="none" stroke="midnightblue" d="M586.726,-820.413C601.968,-771.122 623.995,-699.893 636.77,-658.581"/>
<polygon fill="none" stroke="midnightblue" points="583.288,-819.683 583.677,-830.271 589.976,-821.751 583.288,-819.683"/>
</g>
<!-- Node7 -->
<g id="node5" class="node"><title>Node7</title>
<g id="a_node5"><a xlink:href="class_character.html" target="_top" xlink:title="Base abstract class for Enemy and Player to inherit from. Defines all shared variables, their constructor and their setters and getters ">
<polygon fill="none" stroke="black" points="302.5,-535.5 302.5,-713.5 397.5,-713.5 397.5,-535.5 302.5,-535.5"/>
<text text-anchor="middle" x="350" y="-701.5" font-family="Helvetica,sans-Serif" font-size="10.00">Character</text>
<polyline fill="none" stroke="black" points="302.5,-694.5 397.5,-694.5 "/>
<text text-anchor="start" x="310.5" y="-682.5" font-family="Helvetica,sans-Serif" font-size="10.00">+ Name</text>
<text text-anchor="start" x="310.5" y="-671.5" font-family="Helvetica,sans-Serif" font-size="10.00">+ Level</text>
<text text-anchor="start" x="310.5" y="-660.5" font-family="Helvetica,sans-Serif" font-size="10.00">+ Health</text>
<text text-anchor="start" x="310.5" y="-649.5" font-family="Helvetica,sans-Serif" font-size="10.00">+ Attack</text>
<text text-anchor="start" x="310.5" y="-638.5" font-family="Helvetica,sans-Serif" font-size="10.00">+ Defence</text>
<text text-anchor="start" x="310.5" y="-627.5" font-family="Helvetica,sans-Serif" font-size="10.00">+ MaximumMagic</text>
<text text-anchor="start" x="310.5" y="-616.5" font-family="Helvetica,sans-Serif" font-size="10.00">+ Magic</text>
<text text-anchor="start" x="310.5" y="-605.5" font-family="Helvetica,sans-Serif" font-size="10.00">+ Luck</text>
<text text-anchor="start" x="310.5" y="-594.5" font-family="Helvetica,sans-Serif" font-size="10.00">+ Speed</text>
<text text-anchor="start" x="310.5" y="-583.5" font-family="Helvetica,sans-Serif" font-size="10.00">+ Special1</text>
<text text-anchor="start" x="310.5" y="-572.5" font-family="Helvetica,sans-Serif" font-size="10.00">+ Special2</text>
<text text-anchor="start" x="310.5" y="-561.5" font-family="Helvetica,sans-Serif" font-size="10.00">+ Image</text>
<polyline fill="none" stroke="black" points="302.5,-554.5 397.5,-554.5 "/>
<text text-anchor="start" x="310.5" y="-542.5" font-family="Helvetica,sans-Serif" font-size="10.00"># Character()</text>
</a>
</g>
</g>
<!-- Node4&#45;&gt;Node7 -->
<g id="edge7" class="edge"><title>Node4&#45;&gt;Node7</title>
<path fill="none" stroke="#404040" d="M527.854,-830.341C522.147,-824.219 516.4,-817.981 511,-812 475.346,-772.509 436.331,-727.365 405.637,-691.384"/>
<polygon fill="none" stroke="#404040" points="405.398,-691.104 398.462,-689.13 397.617,-681.969 404.552,-683.942 405.398,-691.104"/>
<text text-anchor="middle" x="533.5" y="-775" font-family="Helvetica,sans-Serif" font-size="10.00"> #special1</text>
<text text-anchor="middle" x="533.5" y="-764" font-family="Helvetica,sans-Serif" font-size="10.00">#special2</text>
</g>
<!-- Node5 -->
<g id="node3" class="node"><title>Node5</title>
<g id="a_node3"><a xlink:href="class_character_move.html" target="_top" xlink:title="Astract base class for character moves ">
<polygon fill="none" stroke="black" points="470,-0.5 470,-79.5 556,-79.5 556,-0.5 470,-0.5"/>
<text text-anchor="middle" x="513" y="-67.5" font-family="Helvetica,sans-Serif" font-size="10.00">CharacterMove</text>
<polyline fill="none" stroke="black" points="470,-60.5 556,-60.5 "/>
<text text-anchor="start" x="478" y="-48.5" font-family="Helvetica,sans-Serif" font-size="10.00">+ User</text>
<text text-anchor="start" x="478" y="-37.5" font-family="Helvetica,sans-Serif" font-size="10.00">+ Target</text>
<text text-anchor="start" x="478" y="-26.5" font-family="Helvetica,sans-Serif" font-size="10.00">+ Text</text>
<polyline fill="none" stroke="black" points="470,-19.5 556,-19.5 "/>
<text text-anchor="start" x="478" y="-7.5" font-family="Helvetica,sans-Serif" font-size="10.00">+ performMove()</text>
</a>
</g>
</g>
<!-- Node5&#45;&gt;Node4 -->
<g id="edge2" class="edge"><title>Node5&#45;&gt;Node4</title>
<path fill="none" stroke="midnightblue" d="M536.9,-88.7328C552.505,-124.285 570,-174.51 570,-221 570,-625.5 570,-625.5 570,-625.5 570,-697.26 570,-780.654 570,-830.421"/>
<polygon fill="none" stroke="midnightblue" points="540.071,-87.2496 532.776,-79.5663 533.687,-90.1219 540.071,-87.2496"/>
</g>
<!-- Node6 -->
<g id="node4" class="node"><title>Node6</title>
<polygon fill="none" stroke="#bfbfbf" points="472.5,-979.5 472.5,-1036.5 513.5,-1036.5 513.5,-979.5 472.5,-979.5"/>
<text text-anchor="middle" x="493" y="-1024.5" font-family="Helvetica,sans-Serif" font-size="10.00">string</text>
<polyline fill="none" stroke="#bfbfbf" points="472.5,-1017.5 513.5,-1017.5 "/>
<text text-anchor="middle" x="493" y="-1005.5" font-family="Helvetica,sans-Serif" font-size="10.00"> </text>
<polyline fill="none" stroke="#bfbfbf" points="472.5,-998.5 513.5,-998.5 "/>
<text text-anchor="middle" x="493" y="-986.5" font-family="Helvetica,sans-Serif" font-size="10.00"> </text>
</g>
<!-- Node6&#45;&gt;Node4 -->
<g id="edge21" class="edge"><title>Node6&#45;&gt;Node4</title>
<path fill="none" stroke="#404040" d="M509.33,-979.324C517.586,-965.331 527.907,-947.84 537.681,-931.274"/>
<polygon fill="none" stroke="#404040" points="537.9,-930.903 537.504,-923.702 543.998,-920.568 544.394,-927.768 537.9,-930.903"/>
<text text-anchor="middle" x="547" y="-947.5" font-family="Helvetica,sans-Serif" font-size="10.00"> #desc</text>
</g>
<!-- Node6&#45;&gt;Node5 -->
<g id="edge3" class="edge"><title>Node6&#45;&gt;Node5</title>
<path fill="none" stroke="#404040" d="M513.907,-1005.11C570.77,-998.704 724,-972.538 724,-876.5 724,-876.5 724,-876.5 724,-221 724,-138.728 630.004,-86.0932 567.486,-60.184"/>
<polygon fill="none" stroke="#404040" points="567.344,-60.1272 560.286,-61.6036 556.208,-55.6561 563.267,-54.1797 567.344,-60.1272"/>
<text text-anchor="middle" x="736.5" y="-509" font-family="Helvetica,sans-Serif" font-size="10.00"> #text</text>
</g>
<!-- Node6&#45;&gt;Node7 -->
<g id="edge5" class="edge"><title>Node6&#45;&gt;Node7</title>
<path fill="none" stroke="#404040" d="M476.143,-979.406C466.491,-962.864 454.624,-941.184 446,-921 411.374,-839.956 413.446,-815.749 386,-732 385.259,-729.74 384.507,-727.453 383.747,-725.148"/>
<polygon fill="none" stroke="#404040" points="383.663,-724.894 377.979,-720.457 379.89,-713.503 385.574,-717.941 383.663,-724.894"/>
<text text-anchor="middle" x="462.5" y="-873" font-family="Helvetica,sans-Serif" font-size="10.00"> #name</text>
</g>
<!-- Node10 -->
<g id="node8" class="node"><title>Node10</title>
<g id="a_node8"><a xlink:href="class_battle_manager.html" target="_top" xlink:title="Holds current Player and Enemy objects in battle and provides functions for MainBattle and other obje...">
<polygon fill="none" stroke="black" points="209,-127.5 209,-316.5 325,-316.5 325,-127.5 209,-127.5"/>
<text text-anchor="middle" x="267" y="-304.5" font-family="Helvetica,sans-Serif" font-size="10.00">BattleManager</text>
<polyline fill="none" stroke="black" points="209,-297.5 325,-297.5 "/>
<text text-anchor="start" x="217" y="-285.5" font-family="Helvetica,sans-Serif" font-size="10.00">+ Player</text>
<text text-anchor="start" x="217" y="-274.5" font-family="Helvetica,sans-Serif" font-size="10.00">+ Enemy</text>
<text text-anchor="start" x="217" y="-263.5" font-family="Helvetica,sans-Serif" font-size="10.00">+ WasCriticalHit</text>
<polyline fill="none" stroke="black" points="209,-256.5 325,-256.5 "/>
<text text-anchor="start" x="217" y="-244.5" font-family="Helvetica,sans-Serif" font-size="10.00">+ BattleManager()</text>
<text text-anchor="start" x="217" y="-233.5" font-family="Helvetica,sans-Serif" font-size="10.00">+ playerFirst()</text>
<text text-anchor="start" x="217" y="-222.5" font-family="Helvetica,sans-Serif" font-size="10.00">+ switchPlayers()</text>
<text text-anchor="start" x="217" y="-211.5" font-family="Helvetica,sans-Serif" font-size="10.00">+ isCriticalHit()</text>
<text text-anchor="start" x="217" y="-200.5" font-family="Helvetica,sans-Serif" font-size="10.00">+ ranAway()</text>
<text text-anchor="start" x="217" y="-189.5" font-family="Helvetica,sans-Serif" font-size="10.00">+ damageCalculation()</text>
<text text-anchor="start" x="217" y="-178.5" font-family="Helvetica,sans-Serif" font-size="10.00">+ enemyMove()</text>
<text text-anchor="start" x="217" y="-167.5" font-family="Helvetica,sans-Serif" font-size="10.00">+ enemySpecialMove()</text>
<text text-anchor="start" x="217" y="-156.5" font-family="Helvetica,sans-Serif" font-size="10.00">+ battleWon()</text>
<text text-anchor="start" x="217" y="-145.5" font-family="Helvetica,sans-Serif" font-size="10.00">+ playerFainted()</text>
<text text-anchor="start" x="217" y="-134.5" font-family="Helvetica,sans-Serif" font-size="10.00">&#45; characterFainted()</text>
</a>
</g>
</g>
<!-- Node6&#45;&gt;Node10 -->
<g id="edge10" class="edge"><title>Node6&#45;&gt;Node10</title>
<path fill="none" stroke="#404040" d="M494.132,-979.37C495.618,-929.461 496.273,-821.172 479,-732 447.086,-567.242 419.434,-530.369 356,-375 348.983,-357.814 340.29,-340.232 331.11,-323.408"/>
<polygon fill="none" stroke="#404040" points="330.859,-322.957 324.445,-319.662 325.02,-312.474 331.434,-315.769 330.859,-322.957"/>
<text text-anchor="middle" x="518" y="-627.5" font-family="Helvetica,sans-Serif" font-size="10.00"> +forceEnemyMove</text>
<text text-anchor="middle" x="518" y="-616.5" font-family="Helvetica,sans-Serif" font-size="10.00">+forceCriticalHits</text>
</g>
<!-- Node14 -->
<g id="node12" class="node"><title>Node14</title>
<g id="a_node12"><a xlink:href="class_item.html" target="_top" xlink:title="Abstract class for items that can be equipped to a player, increasing some of their stats ...">
<polygon fill="none" stroke="black" points="216.5,-732.5 216.5,-811.5 293.5,-811.5 293.5,-732.5 216.5,-732.5"/>
<text text-anchor="middle" x="255" y="-799.5" font-family="Helvetica,sans-Serif" font-size="10.00">Item</text>
<polyline fill="none" stroke="black" points="216.5,-792.5 293.5,-792.5 "/>
<text text-anchor="start" x="224.5" y="-780.5" font-family="Helvetica,sans-Serif" font-size="10.00">+ Name</text>
<text text-anchor="start" x="224.5" y="-769.5" font-family="Helvetica,sans-Serif" font-size="10.00">+ Desc</text>
<polyline fill="none" stroke="black" points="216.5,-762.5 293.5,-762.5 "/>
<text text-anchor="start" x="224.5" y="-750.5" font-family="Helvetica,sans-Serif" font-size="10.00">+ applyBuffs()</text>
<text text-anchor="start" x="224.5" y="-739.5" font-family="Helvetica,sans-Serif" font-size="10.00">+ revertBuffs()</text>
</a>
</g>
</g>
<!-- Node6&#45;&gt;Node14 -->
<g id="edge19" class="edge"><title>Node6&#45;&gt;Node14</title>
<path fill="none" stroke="#404040" d="M472.421,-1007.84C435.886,-1008.16 359.546,-1003.32 317,-961 274.271,-918.503 302.762,-886.575 282,-830 281.131,-827.631 280.199,-825.226 279.223,-822.812"/>
<polygon fill="none" stroke="#404040" points="279.121,-822.573 273.085,-818.627 274.405,-811.538 280.441,-815.483 279.121,-822.573"/>
<text text-anchor="middle" x="332" y="-953" font-family="Helvetica,sans-Serif" font-size="10.00"> #desc</text>
<text text-anchor="middle" x="332" y="-942" font-family="Helvetica,sans-Serif" font-size="10.00">#name</text>
</g>
<!-- Node7&#45;&gt;Node5 -->
<g id="edge4" class="edge"><title>Node7&#45;&gt;Node5</title>
<path fill="none" stroke="#404040" d="M374.668,-535.347C409.312,-411.543 471.237,-190.244 498.936,-91.26"/>
<polygon fill="none" stroke="#404040" points="498.985,-91.0848 496.75,-84.2288 502.219,-79.5287 504.454,-86.3847 498.985,-91.0848"/>
<text text-anchor="middle" x="447" y="-349" font-family="Helvetica,sans-Serif" font-size="10.00"> #target</text>
<text text-anchor="middle" x="447" y="-338" font-family="Helvetica,sans-Serif" font-size="10.00">#user</text>
</g>
<!-- Node11 -->
<g id="node9" class="node"><title>Node11</title>
<g id="a_node9"><a xlink:href="class_enemy.html" target="_top" xlink:title="Defines an AI controller enemy to fight in battle scenes">
<polygon fill="none" stroke="black" points="280.5,-403 280.5,-460 347.5,-460 347.5,-403 280.5,-403"/>
<text text-anchor="middle" x="314" y="-448" font-family="Helvetica,sans-Serif" font-size="10.00">Enemy</text>
<polyline fill="none" stroke="black" points="280.5,-441 347.5,-441 "/>
<text text-anchor="start" x="288.5" y="-429" font-family="Helvetica,sans-Serif" font-size="10.00">+ ExpGiven</text>
<polyline fill="none" stroke="black" points="280.5,-422 347.5,-422 "/>
<text text-anchor="start" x="288.5" y="-410" font-family="Helvetica,sans-Serif" font-size="10.00">+ Enemy()</text>
</a>
</g>
</g>
<!-- Node7&#45;&gt;Node11 -->
<g id="edge12" class="edge"><title>Node7&#45;&gt;Node11</title>
<path fill="none" stroke="midnightblue" d="M331.506,-525.378C326.994,-501.441 322.524,-477.725 319.23,-460.249"/>
<polygon fill="none" stroke="midnightblue" points="328.078,-526.089 333.37,-535.268 334.957,-524.793 328.078,-526.089"/>
</g>
<!-- Node13 -->
<g id="node11" class="node"><title>Node13</title>
<g id="a_node11"><a xlink:href="class_player.html" target="_top" xlink:title="Defines a playable character for use in battle scenes">
<polygon fill="none" stroke="black" points="63,-375.5 63,-487.5 175,-487.5 175,-375.5 63,-375.5"/>
<text text-anchor="middle" x="119" y="-475.5" font-family="Helvetica,sans-Serif" font-size="10.00">Player</text>
<polyline fill="none" stroke="black" points="63,-468.5 175,-468.5 "/>
<text text-anchor="start" x="71" y="-456.5" font-family="Helvetica,sans-Serif" font-size="10.00">+ Exp</text>
<text text-anchor="start" x="71" y="-445.5" font-family="Helvetica,sans-Serif" font-size="10.00">+ Item</text>
<text text-anchor="start" x="71" y="-434.5" font-family="Helvetica,sans-Serif" font-size="10.00">+ ExpToNextLevel</text>
<polyline fill="none" stroke="black" points="63,-427.5 175,-427.5 "/>
<text text-anchor="start" x="71" y="-415.5" font-family="Helvetica,sans-Serif" font-size="10.00">+ Player()</text>
<text text-anchor="start" x="71" y="-404.5" font-family="Helvetica,sans-Serif" font-size="10.00">+ gainExp()</text>
<text text-anchor="start" x="71" y="-393.5" font-family="Helvetica,sans-Serif" font-size="10.00">+ levelUp()</text>
<text text-anchor="start" x="71" y="-382.5" font-family="Helvetica,sans-Serif" font-size="10.00">&#45; setExpToNextLevel()</text>
</a>
</g>
</g>
<!-- Node7&#45;&gt;Node13 -->
<g id="edge17" class="edge"><title>Node7&#45;&gt;Node13</title>
<path fill="none" stroke="midnightblue" d="M294.412,-577.537C258.271,-547.655 211.307,-508.823 175.071,-478.861"/>
<polygon fill="none" stroke="midnightblue" points="292.48,-580.481 302.417,-584.156 296.94,-575.087 292.48,-580.481"/>
</g>
<!-- Node8 -->
<g id="node6" class="node"><title>Node8</title>
<polygon fill="none" stroke="#bfbfbf" points="142.5,-979.5 142.5,-1036.5 171.5,-1036.5 171.5,-979.5 142.5,-979.5"/>
<text text-anchor="middle" x="157" y="-1024.5" font-family="Helvetica,sans-Serif" font-size="10.00">int</text>
<polyline fill="none" stroke="#bfbfbf" points="142.5,-1017.5 171.5,-1017.5 "/>
<text text-anchor="middle" x="157" y="-1005.5" font-family="Helvetica,sans-Serif" font-size="10.00"> </text>
<polyline fill="none" stroke="#bfbfbf" points="142.5,-998.5 171.5,-998.5 "/>
<text text-anchor="middle" x="157" y="-986.5" font-family="Helvetica,sans-Serif" font-size="10.00"> </text>
</g>
<!-- Node8&#45;&gt;Node4 -->
<g id="edge22" class="edge"><title>Node8&#45;&gt;Node4</title>
<path fill="none" stroke="#404040" d="M171.594,-1003.95C216.681,-994.319 357.429,-962.721 469,-921 482.39,-915.993 496.555,-910.124 509.904,-904.322"/>
<polygon fill="none" stroke="#404040" points="509.909,-904.32 513.788,-898.241 520.891,-899.484 517.012,-905.563 509.909,-904.32"/>
<text text-anchor="middle" x="428.5" y="-947.5" font-family="Helvetica,sans-Serif" font-size="10.00"> #magic</text>
</g>
<!-- Node8&#45;&gt;Node7 -->
<g id="edge6" class="edge"><title>Node8&#45;&gt;Node7</title>
<path fill="none" stroke="#404040" d="M164.86,-979.242C177.075,-940.787 204.112,-871.378 250,-830 265.997,-815.575 280.499,-827.928 295,-812 316.662,-788.206 329.818,-756.274 337.799,-725.563"/>
<polygon fill="none" stroke="#404040" points="337.805,-725.539 335.319,-718.77 340.611,-713.872 343.097,-720.641 337.805,-725.539"/>
<text text-anchor="middle" x="287.5" y="-911.5" font-family="Helvetica,sans-Serif" font-size="10.00"> #speed</text>
<text text-anchor="middle" x="287.5" y="-900.5" font-family="Helvetica,sans-Serif" font-size="10.00">#luck</text>
<text text-anchor="middle" x="287.5" y="-889.5" font-family="Helvetica,sans-Serif" font-size="10.00">#health</text>
<text text-anchor="middle" x="287.5" y="-878.5" font-family="Helvetica,sans-Serif" font-size="10.00">#magic</text>
<text text-anchor="middle" x="287.5" y="-867.5" font-family="Helvetica,sans-Serif" font-size="10.00">#maximumMagic</text>
<text text-anchor="middle" x="287.5" y="-856.5" font-family="Helvetica,sans-Serif" font-size="10.00">#attack</text>
<text text-anchor="middle" x="287.5" y="-845.5" font-family="Helvetica,sans-Serif" font-size="10.00">#defence</text>
<text text-anchor="middle" x="287.5" y="-834.5" font-family="Helvetica,sans-Serif" font-size="10.00">#level</text>
</g>
<!-- Node8&#45;&gt;Node10 -->
<g id="edge14" class="edge"><title>Node8&#45;&gt;Node10</title>
<path fill="none" stroke="#404040" d="M142.23,-1002.64C103.147,-990.104 0,-950.045 0,-876.5 0,-876.5 0,-876.5 0,-430.5 0,-330.481 118.256,-271.687 197.366,-243.545"/>
<polygon fill="none" stroke="#404040" points="197.394,-243.535 201.758,-237.794 208.736,-239.614 204.372,-245.355 197.394,-243.535"/>
<text text-anchor="middle" x="19.5" y="-622" font-family="Helvetica,sans-Serif" font-size="10.00"> +money</text>
</g>
<!-- Node8&#45;&gt;Node11 -->
<g id="edge13" class="edge"><title>Node8&#45;&gt;Node11</title>
<path fill="none" stroke="#404040" d="M153.3,-979.146C147.522,-928.881 139.134,-820.047 161,-732 186.133,-630.796 250.663,-525.035 287.388,-470.33"/>
<polygon fill="none" stroke="#404040" points="287.602,-470.014 287.663,-462.803 294.342,-460.086 294.282,-467.297 287.602,-470.014"/>
<text text-anchor="middle" x="184" y="-769.5" font-family="Helvetica,sans-Serif" font-size="10.00"> &#45;expGiven</text>
</g>
<!-- Node8&#45;&gt;Node13 -->
<g id="edge20" class="edge"><title>Node8&#45;&gt;Node13</title>
<path fill="none" stroke="#404040" d="M142.421,-983.837C121.089,-948.433 82.3497,-878.001 68,-812 44.472,-703.784 73.1611,-575.707 96.0715,-499.441"/>
<polygon fill="none" stroke="#404040" points="96.1675,-499.129 94.105,-492.219 99.69,-487.657 101.753,-494.567 96.1675,-499.129"/>
<text text-anchor="middle" x="105.5" y="-775" font-family="Helvetica,sans-Serif" font-size="10.00"> &#45;expToNextLevel</text>
<text text-anchor="middle" x="105.5" y="-764" font-family="Helvetica,sans-Serif" font-size="10.00">&#45;exp</text>
</g>
<!-- Node9 -->
<g id="node7" class="node"><title>Node9</title>
<polygon fill="none" stroke="#bfbfbf" points="334.5,-847 334.5,-904 395.5,-904 395.5,-847 334.5,-847"/>
<text text-anchor="middle" x="365" y="-892" font-family="Helvetica,sans-Serif" font-size="10.00">Texture2D</text>
<polyline fill="none" stroke="#bfbfbf" points="334.5,-885 395.5,-885 "/>
<text text-anchor="middle" x="365" y="-873" font-family="Helvetica,sans-Serif" font-size="10.00"> </text>
<polyline fill="none" stroke="#bfbfbf" points="334.5,-866 395.5,-866 "/>
<text text-anchor="middle" x="365" y="-854" font-family="Helvetica,sans-Serif" font-size="10.00"> </text>
</g>
<!-- Node9&#45;&gt;Node7 -->
<g id="edge8" class="edge"><title>Node9&#45;&gt;Node7</title>
<path fill="none" stroke="#404040" d="M357.432,-846.717C354.857,-835.96 352.302,-823.491 351,-812 347.855,-784.255 346.716,-754.038 346.587,-726.164"/>
<polygon fill="none" stroke="#404040" points="346.587,-725.959 342.59,-719.957 346.594,-713.959 350.59,-719.961 346.587,-725.959"/>
<text text-anchor="middle" x="368.5" y="-769.5" font-family="Helvetica,sans-Serif" font-size="10.00"> #image</text>
</g>
<!-- Node10&#45;&gt;Node5 -->
<g id="edge9" class="edge"><title>Node10&#45;&gt;Node5</title>
<path fill="none" stroke="#404040" d="M325.305,-158.056C346.359,-137.392 371.1,-115.31 396,-98 415.332,-84.5611 438.312,-72.6186 458.766,-63.1809"/>
<polygon fill="none" stroke="#404040" points="458.887,-63.1264 462.717,-57.0165 469.83,-58.2019 466,-64.3118 458.887,-63.1264"/>
<text text-anchor="middle" x="419" y="-101" font-family="Helvetica,sans-Serif" font-size="10.00"> #manager</text>
</g>
<!-- Node11&#45;&gt;Node10 -->
<g id="edge11" class="edge"><title>Node11&#45;&gt;Node10</title>
<path fill="none" stroke="#404040" d="M307.759,-402.946C303.345,-383.46 297.122,-355.983 290.864,-328.355"/>
<polygon fill="none" stroke="#404040" points="290.836,-328.231 285.609,-323.263 288.185,-316.528 293.411,-321.496 290.836,-328.231"/>
<text text-anchor="middle" x="315" y="-343.5" font-family="Helvetica,sans-Serif" font-size="10.00"> &#45;enemy</text>
</g>
<!-- Node12 -->
<g id="node10" class="node"><title>Node12</title>
<polygon fill="none" stroke="#bfbfbf" points="207.5,-403 207.5,-460 242.5,-460 242.5,-403 207.5,-403"/>
<text text-anchor="middle" x="225" y="-448" font-family="Helvetica,sans-Serif" font-size="10.00">bool</text>
<polyline fill="none" stroke="#bfbfbf" points="207.5,-441 242.5,-441 "/>
<text text-anchor="middle" x="225" y="-429" font-family="Helvetica,sans-Serif" font-size="10.00"> </text>
<polyline fill="none" stroke="#bfbfbf" points="207.5,-422 242.5,-422 "/>
<text text-anchor="middle" x="225" y="-410" font-family="Helvetica,sans-Serif" font-size="10.00"> </text>
</g>
<!-- Node12&#45;&gt;Node10 -->
<g id="edge15" class="edge"><title>Node12&#45;&gt;Node10</title>
<path fill="none" stroke="#404040" d="M222.821,-402.681C221.919,-383.502 221.888,-357.509 226,-335 226.395,-332.841 226.827,-330.668 227.293,-328.487"/>
<polygon fill="none" stroke="#404040" points="227.303,-328.442 224.804,-321.678 230.086,-316.769 232.585,-323.534 227.303,-328.442"/>
<text text-anchor="middle" x="259" y="-343.5" font-family="Helvetica,sans-Serif" font-size="10.00"> &#45;wasCriticalHit</text>
</g>
<!-- Node13&#45;&gt;Node10 -->
<g id="edge16" class="edge"><title>Node13&#45;&gt;Node10</title>
<path fill="none" stroke="#404040" d="M158.181,-375.445C167.614,-362.197 177.664,-348.091 187,-335 191.754,-328.334 196.669,-321.445 201.616,-314.514"/>
<polygon fill="none" stroke="#404040" points="201.9,-314.115 202.131,-306.908 208.872,-304.349 208.642,-311.556 201.9,-314.115"/>
<text text-anchor="middle" x="203.5" y="-343.5" font-family="Helvetica,sans-Serif" font-size="10.00"> &#45;player</text>
</g>
<!-- Node14&#45;&gt;Node13 -->
<g id="edge18" class="edge"><title>Node14&#45;&gt;Node13</title>
<path fill="none" stroke="#404040" d="M239.531,-732.499C216.713,-675.705 173.717,-568.689 145.727,-499.023"/>
<polygon fill="none" stroke="#404040" points="145.672,-498.885 139.723,-494.809 141.198,-487.75 147.146,-491.826 145.672,-498.885"/>
<text text-anchor="middle" x="243.5" y="-622" font-family="Helvetica,sans-Serif" font-size="10.00"> &#45;item</text>
</g>
<!-- Node15 -->
<g id="node13" class="node"><title>Node15</title>
<polygon fill="none" stroke="#bfbfbf" points="637.5,-847 637.5,-904 672.5,-904 672.5,-847 637.5,-847"/>
<text text-anchor="middle" x="655" y="-892" font-family="Helvetica,sans-Serif" font-size="10.00">float</text>
<polyline fill="none" stroke="#bfbfbf" points="637.5,-885 672.5,-885 "/>
<text text-anchor="middle" x="655" y="-873" font-family="Helvetica,sans-Serif" font-size="10.00"> </text>
<polyline fill="none" stroke="#bfbfbf" points="637.5,-866 672.5,-866 "/>
<text text-anchor="middle" x="655" y="-854" font-family="Helvetica,sans-Serif" font-size="10.00"> </text>
</g>
<!-- Node15&#45;&gt;Node3 -->
<g id="edge23" class="edge"><title>Node15&#45;&gt;Node3</title>
<path fill="none" stroke="#404040" d="M654.113,-846.901C652.745,-804.322 650.106,-722.169 648.455,-670.792"/>
<polygon fill="none" stroke="#404040" points="648.454,-670.744 644.263,-664.876 648.068,-658.75 652.259,-664.619 648.454,-670.744"/>
<text text-anchor="middle" x="674.5" y="-769.5" font-family="Helvetica,sans-Serif" font-size="10.00"> &#45;increase</text>
</g>
</g>
</svg>
        <g id="navigator" transform="translate(0 0)" fill="#404254">
                <rect fill="#f2f5e9" fill-opacity="0.5" stroke="#606060" stroke-width=".5" x="0" y="0" width="60" height="60"/>
                <use id="zoomplus" xlink:href="#zoomPlus" x="17" y="9" onmousedown="handleZoom(evt,'in')"/>
                <use id="zoomminus" xlink:href="#zoomMin" x="42" y="9" onmousedown="handleZoom(evt,'out')"/>
                <use id="reset" xlink:href="#resetDef" x="30" y="36" onmousedown="handleReset()"/>
                <g id="arrowUp" xlink:href="#dirArrow" transform="translate(30 24)" onmousedown="handlePan(0,-1)">
                  <use xlink:href="#rim" fill="#404040">
                        <set attributeName="fill" to="#808080" begin="arrowUp.mouseover" end="arrowUp.mouseout"/>
                  </use>
                  <path fill="none" stroke="white" stroke-width="1.5" d="M0,-3.0v7 M-2.5,-0.5L0,-3.0L2.5,-0.5"/>
                </g>
                <g id="arrowRight" xlink:href="#dirArrow" transform="rotate(90) translate(36 -43)" onmousedown="handlePan(1,0)">
                  <use xlink:href="#rim" fill="#404040">
                        <set attributeName="fill" to="#808080" begin="arrowRight.mouseover" end="arrowRight.mouseout"/>
                  </use>
                  <path fill="none" stroke="white" stroke-width="1.5" d="M0,-3.0v7 M-2.5,-0.5L0,-3.0L2.5,-0.5"/>
                </g>
                <g id="arrowDown" xlink:href="#dirArrow" transform="rotate(180) translate(-30 -48)" onmousedown="handlePan(0,1)">
                  <use xlink:href="#rim" fill="#404040">
                        <set attributeName="fill" to="#808080" begin="arrowDown.mouseover" end="arrowDown.mouseout"/>
                  </use>
                  <path fill="none" stroke="white" stroke-width="1.5" d="M0,-3.0v7 M-2.5,-0.5L0,-3.0L2.5,-0.5"/>
                </g>
                <g id="arrowLeft" xlink:href="#dirArrow" transform="rotate(270) translate(-36 17)" onmousedown="handlePan(-1,0)">
                  <use xlink:href="#rim" fill="#404040">
                        <set attributeName="fill" to="#808080" begin="arrowLeft.mouseover" end="arrowLeft.mouseout"/>
                  </use>
                  <path fill="none" stroke="white" stroke-width="1.5" d="M0,-3.0v7 M-2.5,-0.5L0,-3.0L2.5,-0.5"/>
                </g>
        </g>
        <svg viewBox="0 0 15 15" width="100%" height="30px" preserveAspectRatio="xMaxYMin meet">
         <g id="arrow_out" transform="scale(0.3 0.3)">
          <a xlink:href="class_increase_money__coll__graph_org.svg" target="_base">
           <rect id="button" ry="5" rx="5" y="6" x="6" height="38" width="38"
                fill="#f2f5e9" fill-opacity="0.5" stroke="#606060" stroke-width="1.0"/>
           <path id="arrow"
             d="M 11.500037,31.436501 C 11.940474,20.09759 22.043105,11.32322 32.158766,21.979434 L 37.068811,17.246167 C 37.068811,17.246167 37.088388,32 37.088388,32 L 22.160133,31.978069 C 22.160133,31.978069 26.997745,27.140456 26.997745,27.140456 C 18.528582,18.264221 13.291696,25.230495 11.500037,31.436501 z"
             style="fill:#404040;"/>
          </a>
         </g>
        </svg>
</svg>
