<?xml version="1.0" encoding="UTF-8" standalone="no"?>
<!DOCTYPE svg PUBLIC "-//W3C//DTD SVG 1.1//EN"
 "http://www.w3.org/Graphics/SVG/1.1/DTD/svg11.dtd">
<!-- Generated by graphviz version 2.38.0 (20140413.2041)
 -->
<!-- Title: ItemsMenuScript Pages: 1 -->
<!--zoomable 1287 -->
<svg id="main" version="1.1" xmlns="http://www.w3.org/2000/svg" xmlns:xlink="http://www.w3.org/1999/xlink" xml:space="preserve" onload="init(evt)">
<style type="text/css"><![CDATA[
.edge:hover path { stroke: red; }
.edge:hover polygon { stroke: red; fill: red; }
]]></style>
<script type="text/javascript"><![CDATA[
var edges = document.getElementsByTagName('g');
if (edges && edges.length) {
  for (var i=0;i<edges.length;i++) {
    if (edges[i].id.substr(0,4)=='edge') {
      edges[i].setAttribute('class','edge');
    }
  }
}
]]></script>
        <defs>
                <circle id="rim" cx="0" cy="0" r="7"/>
                <circle id="rim2" cx="0" cy="0" r="3.5"/>
                <g id="zoomPlus">
                        <use xlink:href="#rim" fill="#404040">
                                <set attributeName="fill" to="#808080" begin="zoomplus.mouseover" end="zoomplus.mouseout"/>
                        </use>
                        <path d="M-4,0h8M0,-4v8" fill="none" stroke="white" stroke-width="1.5" pointer-events="none"/>
                </g>
                <g id="zoomMin">
                        <use xlink:href="#rim" fill="#404040">
                                <set attributeName="fill" to="#808080" begin="zoomminus.mouseover" end="zoomminus.mouseout"/>
                        </use>
                        <path d="M-4,0h8" fill="none" stroke="white" stroke-width="1.5" pointer-events="none"/>
                </g>
                <g id="dirArrow">
                        <path fill="none" stroke="white" stroke-width="1.5" d="M0,-3.0v7 M-2.5,-0.5L0,-3.0L2.5,-0.5"/>
                </g>
               <g id="resetDef">
                       <use xlink:href="#rim2" fill="#404040">
                               <set attributeName="fill" to="#808080" begin="reset.mouseover" end="reset.mouseout"/>
                       </use>
               </g>
        </defs>

<script type="text/javascript">
var viewWidth = 1133;
var viewHeight = 1287;
var sectionId = 'dynsection-1';
</script>
<script xlink:href="svgpan.js"/>
<svg id="graph" class="graph">
<g id="viewport">
<title>ItemsMenuScript</title>
<!-- Node2 -->
<g id="node1" class="node"><title>Node2</title>
<polygon fill="#bfbfbf" stroke="black" points="194,-460.5 194,-550.5 285,-550.5 285,-460.5 194,-460.5"/>
<text text-anchor="middle" x="239.5" y="-538.5" font-family="Helvetica,sans-Serif" font-size="10.00">ItemsMenuScript</text>
<polyline fill="none" stroke="black" points="194,-531.5 285,-531.5 "/>
<text text-anchor="middle" x="239.5" y="-519.5" font-family="Helvetica,sans-Serif" font-size="10.00"> </text>
<polyline fill="none" stroke="black" points="194,-512.5 285,-512.5 "/>
<text text-anchor="start" x="202" y="-500.5" font-family="Helvetica,sans-Serif" font-size="10.00">+ OnItemPlace()</text>
<text text-anchor="start" x="202" y="-489.5" font-family="Helvetica,sans-Serif" font-size="10.00">+ back()</text>
<text text-anchor="start" x="202" y="-478.5" font-family="Helvetica,sans-Serif" font-size="10.00">&#45; Start()</text>
<text text-anchor="start" x="202" y="-467.5" font-family="Helvetica,sans-Serif" font-size="10.00">&#45; createItemCell()</text>
</g>
<!-- Node3 -->
<g id="node2" class="node"><title>Node3</title>
<g id="a_node2"><a xlink:href="class_mono_behaviour.html" target="_top" xlink:title="{MonoBehaviour\n||}">
<polygon fill="none" stroke="black" points="89,-741.5 89,-798.5 172,-798.5 172,-741.5 89,-741.5"/>
<text text-anchor="middle" x="130.5" y="-786.5" font-family="Helvetica,sans-Serif" font-size="10.00">MonoBehaviour</text>
<polyline fill="none" stroke="black" points="89,-779.5 172,-779.5 "/>
<text text-anchor="middle" x="130.5" y="-767.5" font-family="Helvetica,sans-Serif" font-size="10.00"> </text>
<polyline fill="none" stroke="black" points="89,-760.5 172,-760.5 "/>
<text text-anchor="middle" x="130.5" y="-748.5" font-family="Helvetica,sans-Serif" font-size="10.00"> </text>
</a>
</g>
</g>
<!-- Node3&#45;&gt;Node2 -->
<g id="edge1" class="edge"><title>Node3&#45;&gt;Node2</title>
<path fill="none" stroke="midnightblue" d="M136.057,-731.43C143.311,-689.833 158.516,-621.697 186.5,-569 189.836,-562.717 193.891,-556.505 198.257,-550.575"/>
<polygon fill="none" stroke="midnightblue" points="132.586,-730.967 134.381,-741.409 139.489,-732.127 132.586,-730.967"/>
</g>
<!-- Node4 -->
<g id="node3" class="node"><title>Node4</title>
<g id="a_node3"><a xlink:href="class_item.html" target="_top" xlink:title="Abstract class for items that can be equipped to a player, increasing some of their stats ...">
<polygon fill="none" stroke="black" points="294,-1083.5 294,-1162.5 371,-1162.5 371,-1083.5 294,-1083.5"/>
<text text-anchor="middle" x="332.5" y="-1150.5" font-family="Helvetica,sans-Serif" font-size="10.00">Item</text>
<polyline fill="none" stroke="black" points="294,-1143.5 371,-1143.5 "/>
<text text-anchor="start" x="302" y="-1131.5" font-family="Helvetica,sans-Serif" font-size="10.00">+ Name</text>
<text text-anchor="start" x="302" y="-1120.5" font-family="Helvetica,sans-Serif" font-size="10.00">+ Desc</text>
<polyline fill="none" stroke="black" points="294,-1113.5 371,-1113.5 "/>
<text text-anchor="start" x="302" y="-1101.5" font-family="Helvetica,sans-Serif" font-size="10.00">+ applyBuffs()</text>
<text text-anchor="start" x="302" y="-1090.5" font-family="Helvetica,sans-Serif" font-size="10.00">+ revertBuffs()</text>
</a>
</g>
</g>
<!-- Node4&#45;&gt;Node2 -->
<g id="edge2" class="edge"><title>Node4&#45;&gt;Node2</title>
<path fill="none" stroke="#404040" d="M309.312,-1083.22C281.562,-1034.34 236.69,-946.803 219.5,-865 197.43,-759.974 214.09,-634.071 227.369,-562.871"/>
<polygon fill="none" stroke="#404040" points="227.452,-562.439 224.655,-555.792 229.715,-550.654 232.512,-557.301 227.452,-562.439"/>
<text text-anchor="middle" x="242" y="-886" font-family="Helvetica,sans-Serif" font-size="10.00"> &#45;items</text>
</g>
<!-- Node8 -->
<g id="node7" class="node"><title>Node8</title>
<g id="a_node7"><a xlink:href="class_player.html" target="_top" xlink:title="Defines a playable character for use in battle scenes">
<polygon fill="none" stroke="black" points="442.5,-912.5 442.5,-1024.5 554.5,-1024.5 554.5,-912.5 442.5,-912.5"/>
<text text-anchor="middle" x="498.5" y="-1012.5" font-family="Helvetica,sans-Serif" font-size="10.00">Player</text>
<polyline fill="none" stroke="black" points="442.5,-1005.5 554.5,-1005.5 "/>
<text text-anchor="start" x="450.5" y="-993.5" font-family="Helvetica,sans-Serif" font-size="10.00">+ Exp</text>
<text text-anchor="start" x="450.5" y="-982.5" font-family="Helvetica,sans-Serif" font-size="10.00">+ Item</text>
<text text-anchor="start" x="450.5" y="-971.5" font-family="Helvetica,sans-Serif" font-size="10.00">+ ExpToNextLevel</text>
<polyline fill="none" stroke="black" points="442.5,-964.5 554.5,-964.5 "/>
<text text-anchor="start" x="450.5" y="-952.5" font-family="Helvetica,sans-Serif" font-size="10.00">+ Player()</text>
<text text-anchor="start" x="450.5" y="-941.5" font-family="Helvetica,sans-Serif" font-size="10.00">+ gainExp()</text>
<text text-anchor="start" x="450.5" y="-930.5" font-family="Helvetica,sans-Serif" font-size="10.00">+ levelUp()</text>
<text text-anchor="start" x="450.5" y="-919.5" font-family="Helvetica,sans-Serif" font-size="10.00">&#45; setExpToNextLevel()</text>
</a>
</g>
</g>
<!-- Node4&#45;&gt;Node8 -->
<g id="edge25" class="edge"><title>Node4&#45;&gt;Node8</title>
<path fill="none" stroke="#404040" d="M371.001,-1086.63C389.522,-1069.62 412.24,-1048.74 433.343,-1029.36"/>
<polygon fill="none" stroke="#404040" points="433.434,-1029.27 435.146,-1022.27 442.271,-1021.16 440.559,-1028.16 433.434,-1029.27"/>
<text text-anchor="middle" x="428" y="-1051.5" font-family="Helvetica,sans-Serif" font-size="10.00"> &#45;item</text>
</g>
<!-- Node17 -->
<g id="node16" class="node"><title>Node17</title>
<g id="a_node16"><a xlink:href="class_data_manager.html" target="_top" xlink:title="An object to store all player data including players, items and money and provide useful functions ...">
<polygon fill="none" stroke="black" points="346.5,-697.5 346.5,-842.5 438.5,-842.5 438.5,-697.5 346.5,-697.5"/>
<text text-anchor="middle" x="392.5" y="-830.5" font-family="Helvetica,sans-Serif" font-size="10.00">DataManager</text>
<polyline fill="none" stroke="black" points="346.5,-823.5 438.5,-823.5 "/>
<text text-anchor="start" x="354.5" y="-811.5" font-family="Helvetica,sans-Serif" font-size="10.00">+ Players</text>
<text text-anchor="start" x="354.5" y="-800.5" font-family="Helvetica,sans-Serif" font-size="10.00">+ Items</text>
<text text-anchor="start" x="354.5" y="-789.5" font-family="Helvetica,sans-Serif" font-size="10.00">+ Money</text>
<polyline fill="none" stroke="black" points="346.5,-782.5 438.5,-782.5 "/>
<text text-anchor="start" x="354.5" y="-770.5" font-family="Helvetica,sans-Serif" font-size="10.00">+ DataManager()</text>
<text text-anchor="start" x="354.5" y="-759.5" font-family="Helvetica,sans-Serif" font-size="10.00">+ getFirstPlayer()</text>
<text text-anchor="start" x="354.5" y="-748.5" font-family="Helvetica,sans-Serif" font-size="10.00">+ playersAlive()</text>
<text text-anchor="start" x="354.5" y="-737.5" font-family="Helvetica,sans-Serif" font-size="10.00">+ addPlayer()</text>
<text text-anchor="start" x="354.5" y="-726.5" font-family="Helvetica,sans-Serif" font-size="10.00">+ swapPlayers()</text>
<text text-anchor="start" x="354.5" y="-715.5" font-family="Helvetica,sans-Serif" font-size="10.00">+ addItem()</text>
<text text-anchor="start" x="354.5" y="-704.5" font-family="Helvetica,sans-Serif" font-size="10.00">+ countItems()</text>
</a>
</g>
</g>
<!-- Node4&#45;&gt;Node17 -->
<g id="edge28" class="edge"><title>Node4&#45;&gt;Node17</title>
<path fill="none" stroke="#404040" d="M328.826,-1083.23C325.776,-1040.74 323.629,-970.794 335.5,-912 339.413,-892.619 345.914,-872.512 353.154,-853.762"/>
<polygon fill="none" stroke="#404040" points="353.165,-853.735 351.675,-846.679 357.614,-842.59 359.104,-849.645 353.165,-853.735"/>
<text text-anchor="middle" x="351" y="-966" font-family="Helvetica,sans-Serif" font-size="10.00"> &#45;items</text>
</g>
<!-- Node5 -->
<g id="node4" class="node"><title>Node5</title>
<polygon fill="none" stroke="#bfbfbf" points="858,-1221.5 858,-1278.5 899,-1278.5 899,-1221.5 858,-1221.5"/>
<text text-anchor="middle" x="878.5" y="-1266.5" font-family="Helvetica,sans-Serif" font-size="10.00">string</text>
<polyline fill="none" stroke="#bfbfbf" points="858,-1259.5 899,-1259.5 "/>
<text text-anchor="middle" x="878.5" y="-1247.5" font-family="Helvetica,sans-Serif" font-size="10.00"> </text>
<polyline fill="none" stroke="#bfbfbf" points="858,-1240.5 899,-1240.5 "/>
<text text-anchor="middle" x="878.5" y="-1228.5" font-family="Helvetica,sans-Serif" font-size="10.00"> </text>
</g>
<!-- Node5&#45;&gt;Node4 -->
<g id="edge3" class="edge"><title>Node5&#45;&gt;Node4</title>
<path fill="none" stroke="#404040" d="M857.763,-1244.25C779.296,-1226.29 499.164,-1162.16 383.262,-1135.62"/>
<polygon fill="none" stroke="#404040" points="382.962,-1135.55 376.22,-1138.11 371.264,-1132.87 378.006,-1130.31 382.962,-1135.55"/>
<text text-anchor="middle" x="685.5" y="-1195" font-family="Helvetica,sans-Serif" font-size="10.00"> #desc</text>
<text text-anchor="middle" x="685.5" y="-1184" font-family="Helvetica,sans-Serif" font-size="10.00">#name</text>
</g>
<!-- Node9 -->
<g id="node8" class="node"><title>Node9</title>
<g id="a_node8"><a xlink:href="class_character.html" target="_top" xlink:title="Base abstract class for Enemy and Player to inherit from. Defines all shared variables, their constructor and their setters and getters ">
<polygon fill="none" stroke="black" points="721,-95.5 721,-273.5 816,-273.5 816,-95.5 721,-95.5"/>
<text text-anchor="middle" x="768.5" y="-261.5" font-family="Helvetica,sans-Serif" font-size="10.00">Character</text>
<polyline fill="none" stroke="black" points="721,-254.5 816,-254.5 "/>
<text text-anchor="start" x="729" y="-242.5" font-family="Helvetica,sans-Serif" font-size="10.00">+ Name</text>
<text text-anchor="start" x="729" y="-231.5" font-family="Helvetica,sans-Serif" font-size="10.00">+ Level</text>
<text text-anchor="start" x="729" y="-220.5" font-family="Helvetica,sans-Serif" font-size="10.00">+ Health</text>
<text text-anchor="start" x="729" y="-209.5" font-family="Helvetica,sans-Serif" font-size="10.00">+ Attack</text>
<text text-anchor="start" x="729" y="-198.5" font-family="Helvetica,sans-Serif" font-size="10.00">+ Defence</text>
<text text-anchor="start" x="729" y="-187.5" font-family="Helvetica,sans-Serif" font-size="10.00">+ MaximumMagic</text>
<text text-anchor="start" x="729" y="-176.5" font-family="Helvetica,sans-Serif" font-size="10.00">+ Magic</text>
<text text-anchor="start" x="729" y="-165.5" font-family="Helvetica,sans-Serif" font-size="10.00">+ Luck</text>
<text text-anchor="start" x="729" y="-154.5" font-family="Helvetica,sans-Serif" font-size="10.00">+ Speed</text>
<text text-anchor="start" x="729" y="-143.5" font-family="Helvetica,sans-Serif" font-size="10.00">+ Special1</text>
<text text-anchor="start" x="729" y="-132.5" font-family="Helvetica,sans-Serif" font-size="10.00">+ Special2</text>
<text text-anchor="start" x="729" y="-121.5" font-family="Helvetica,sans-Serif" font-size="10.00">+ Image</text>
<polyline fill="none" stroke="black" points="721,-114.5 816,-114.5 "/>
<text text-anchor="start" x="729" y="-102.5" font-family="Helvetica,sans-Serif" font-size="10.00"># Character()</text>
</a>
</g>
</g>
<!-- Node5&#45;&gt;Node9 -->
<g id="edge8" class="edge"><title>Node5&#45;&gt;Node9</title>
<path fill="none" stroke="#404040" d="M899.311,-1246.72C952.907,-1239.57 1091.5,-1212.54 1091.5,-1124 1091.5,-1124 1091.5,-1124 1091.5,-376.5 1091.5,-255.545 921.606,-209.572 828.249,-193.44"/>
<polygon fill="none" stroke="#404040" points="827.999,-193.399 821.428,-196.368 816.16,-191.443 822.731,-188.475 827.999,-193.399"/>
<text text-anchor="middle" x="1108" y="-767.5" font-family="Helvetica,sans-Serif" font-size="10.00"> #name</text>
</g>
<!-- Node11 -->
<g id="node10" class="node"><title>Node11</title>
<g id="a_node10"><a xlink:href="class_special_move.html" target="_top" xlink:title="Special move abstract base class that expands upon CharacterMove, adding magic properties ...">
<polygon fill="none" stroke="black" points="768.5,-332.5 768.5,-422.5 866.5,-422.5 866.5,-332.5 768.5,-332.5"/>
<text text-anchor="middle" x="817.5" y="-410.5" font-family="Helvetica,sans-Serif" font-size="10.00">SpecialMove</text>
<polyline fill="none" stroke="black" points="768.5,-403.5 866.5,-403.5 "/>
<text text-anchor="start" x="776.5" y="-391.5" font-family="Helvetica,sans-Serif" font-size="10.00">+ Magic</text>
<text text-anchor="start" x="776.5" y="-380.5" font-family="Helvetica,sans-Serif" font-size="10.00">+ Desc</text>
<polyline fill="none" stroke="black" points="768.5,-373.5 866.5,-373.5 "/>
<text text-anchor="start" x="776.5" y="-361.5" font-family="Helvetica,sans-Serif" font-size="10.00">+ setUp()</text>
<text text-anchor="start" x="776.5" y="-350.5" font-family="Helvetica,sans-Serif" font-size="10.00">+ decreaseMagic()</text>
<text text-anchor="start" x="776.5" y="-339.5" font-family="Helvetica,sans-Serif" font-size="10.00"># SpecialMove()</text>
</a>
</g>
</g>
<!-- Node5&#45;&gt;Node11 -->
<g id="edge22" class="edge"><title>Node5&#45;&gt;Node11</title>
<path fill="none" stroke="#404040" d="M860.791,-1221.29C835.441,-1180.18 789.355,-1099.85 766.5,-1025 749.355,-968.849 753.286,-952.588 749.5,-894 749.185,-889.121 748.967,-887.86 749.5,-883 750.394,-874.854 752.075,-873.07 753.5,-865 780.835,-710.161 802.021,-525.708 811.717,-434.828"/>
<polygon fill="none" stroke="#404040" points="811.744,-434.572 808.398,-428.184 813.008,-422.639 816.354,-429.027 811.744,-434.572"/>
<text text-anchor="middle" x="764.5" y="-886" font-family="Helvetica,sans-Serif" font-size="10.00"> #desc</text>
</g>
<!-- Node12 -->
<g id="node11" class="node"><title>Node12</title>
<g id="a_node11"><a xlink:href="class_character_move.html" target="_top" xlink:title="Astract base class for character moves ">
<polygon fill="none" stroke="black" points="847.5,-466 847.5,-545 933.5,-545 933.5,-466 847.5,-466"/>
<text text-anchor="middle" x="890.5" y="-533" font-family="Helvetica,sans-Serif" font-size="10.00">CharacterMove</text>
<polyline fill="none" stroke="black" points="847.5,-526 933.5,-526 "/>
<text text-anchor="start" x="855.5" y="-514" font-family="Helvetica,sans-Serif" font-size="10.00">+ User</text>
<text text-anchor="start" x="855.5" y="-503" font-family="Helvetica,sans-Serif" font-size="10.00">+ Target</text>
<text text-anchor="start" x="855.5" y="-492" font-family="Helvetica,sans-Serif" font-size="10.00">+ Text</text>
<polyline fill="none" stroke="black" points="847.5,-485 933.5,-485 "/>
<text text-anchor="start" x="855.5" y="-473" font-family="Helvetica,sans-Serif" font-size="10.00">+ performMove()</text>
</a>
</g>
</g>
<!-- Node5&#45;&gt;Node12 -->
<g id="edge12" class="edge"><title>Node5&#45;&gt;Node12</title>
<path fill="none" stroke="#404040" d="M878.5,-1221.2C878.5,-1195.87 878.5,-1157.42 878.5,-1124 878.5,-1124 878.5,-1124 878.5,-769 878.5,-695.301 883.279,-610.083 886.805,-557.234"/>
<polygon fill="none" stroke="#404040" points="886.811,-557.142 883.228,-550.885 887.626,-545.17 891.209,-551.428 886.811,-557.142"/>
<text text-anchor="middle" x="891" y="-966" font-family="Helvetica,sans-Serif" font-size="10.00"> #text</text>
</g>
<!-- Node13 -->
<g id="node12" class="node"><title>Node13</title>
<g id="a_node12"><a xlink:href="class_battle_manager.html" target="_top" xlink:title="Holds current Player and Enemy objects in battle and provides functions for MainBattle and other obje...">
<polygon fill="none" stroke="black" points="906.5,-675.5 906.5,-864.5 1022.5,-864.5 1022.5,-675.5 906.5,-675.5"/>
<text text-anchor="middle" x="964.5" y="-852.5" font-family="Helvetica,sans-Serif" font-size="10.00">BattleManager</text>
<polyline fill="none" stroke="black" points="906.5,-845.5 1022.5,-845.5 "/>
<text text-anchor="start" x="914.5" y="-833.5" font-family="Helvetica,sans-Serif" font-size="10.00">+ Player</text>
<text text-anchor="start" x="914.5" y="-822.5" font-family="Helvetica,sans-Serif" font-size="10.00">+ Enemy</text>
<text text-anchor="start" x="914.5" y="-811.5" font-family="Helvetica,sans-Serif" font-size="10.00">+ WasCriticalHit</text>
<polyline fill="none" stroke="black" points="906.5,-804.5 1022.5,-804.5 "/>
<text text-anchor="start" x="914.5" y="-792.5" font-family="Helvetica,sans-Serif" font-size="10.00">+ BattleManager()</text>
<text text-anchor="start" x="914.5" y="-781.5" font-family="Helvetica,sans-Serif" font-size="10.00">+ playerFirst()</text>
<text text-anchor="start" x="914.5" y="-770.5" font-family="Helvetica,sans-Serif" font-size="10.00">+ switchPlayers()</text>
<text text-anchor="start" x="914.5" y="-759.5" font-family="Helvetica,sans-Serif" font-size="10.00">+ isCriticalHit()</text>
<text text-anchor="start" x="914.5" y="-748.5" font-family="Helvetica,sans-Serif" font-size="10.00">+ ranAway()</text>
<text text-anchor="start" x="914.5" y="-737.5" font-family="Helvetica,sans-Serif" font-size="10.00">+ damageCalculation()</text>
<text text-anchor="start" x="914.5" y="-726.5" font-family="Helvetica,sans-Serif" font-size="10.00">+ enemyMove()</text>
<text text-anchor="start" x="914.5" y="-715.5" font-family="Helvetica,sans-Serif" font-size="10.00">+ enemySpecialMove()</text>
<text text-anchor="start" x="914.5" y="-704.5" font-family="Helvetica,sans-Serif" font-size="10.00">+ battleWon()</text>
<text text-anchor="start" x="914.5" y="-693.5" font-family="Helvetica,sans-Serif" font-size="10.00">+ playerFainted()</text>
<text text-anchor="start" x="914.5" y="-682.5" font-family="Helvetica,sans-Serif" font-size="10.00">&#45; characterFainted()</text>
</a>
</g>
</g>
<!-- Node5&#45;&gt;Node13 -->
<g id="edge15" class="edge"><title>Node5&#45;&gt;Node13</title>
<path fill="none" stroke="#404040" d="M892.407,-1221.19C912.488,-1179.64 949.098,-1098.38 966.5,-1025 979.991,-968.112 975.831,-952.405 978.5,-894 978.759,-888.327 978.816,-882.515 978.709,-876.653"/>
<polygon fill="none" stroke="#404040" points="978.706,-876.571 974.492,-870.72 978.272,-864.579 982.486,-870.43 978.706,-876.571"/>
<text text-anchor="middle" x="1003.5" y="-1057" font-family="Helvetica,sans-Serif" font-size="10.00"> +forceEnemyMove</text>
<text text-anchor="middle" x="1003.5" y="-1046" font-family="Helvetica,sans-Serif" font-size="10.00">+forceCriticalHits</text>
</g>
<!-- Node6 -->
<g id="node5" class="node"><title>Node6</title>
<polygon fill="none" stroke="#bfbfbf" points="228.5,-741.5 228.5,-798.5 328.5,-798.5 328.5,-741.5 228.5,-741.5"/>
<text text-anchor="middle" x="278.5" y="-786.5" font-family="Helvetica,sans-Serif" font-size="10.00">DragAndDropCell []</text>
<polyline fill="none" stroke="#bfbfbf" points="228.5,-779.5 328.5,-779.5 "/>
<text text-anchor="middle" x="278.5" y="-767.5" font-family="Helvetica,sans-Serif" font-size="10.00"> </text>
<polyline fill="none" stroke="#bfbfbf" points="228.5,-760.5 328.5,-760.5 "/>
<text text-anchor="middle" x="278.5" y="-748.5" font-family="Helvetica,sans-Serif" font-size="10.00"> </text>
</g>
<!-- Node6&#45;&gt;Node2 -->
<g id="edge4" class="edge"><title>Node6&#45;&gt;Node2</title>
<path fill="none" stroke="#404040" d="M274.4,-741.404C268.127,-699.184 256.018,-617.676 247.846,-562.672"/>
<polygon fill="none" stroke="#404040" points="247.827,-562.546 242.989,-557.199 246.063,-550.676 250.902,-556.023 247.827,-562.546"/>
<text text-anchor="middle" x="297.5" y="-610.5" font-family="Helvetica,sans-Serif" font-size="10.00"> &#45;itemContainers</text>
</g>
<!-- Node7 -->
<g id="node6" class="node"><title>Node7</title>
<polygon fill="none" stroke="#bfbfbf" points="0,-741.5 0,-798.5 71,-798.5 71,-741.5 0,-741.5"/>
<text text-anchor="middle" x="35.5" y="-786.5" font-family="Helvetica,sans-Serif" font-size="10.00">GameObject</text>
<polyline fill="none" stroke="#bfbfbf" points="0,-779.5 71,-779.5 "/>
<text text-anchor="middle" x="35.5" y="-767.5" font-family="Helvetica,sans-Serif" font-size="10.00"> </text>
<polyline fill="none" stroke="#bfbfbf" points="0,-760.5 71,-760.5 "/>
<text text-anchor="middle" x="35.5" y="-748.5" font-family="Helvetica,sans-Serif" font-size="10.00"> </text>
</g>
<!-- Node7&#45;&gt;Node2 -->
<g id="edge5" class="edge"><title>Node7&#45;&gt;Node2</title>
<path fill="none" stroke="#404040" d="M32.4854,-741.223C29.4893,-699.007 30.2004,-618.396 71.5,-569 98.7595,-536.397 144.743,-520.792 181.717,-513.329"/>
<polygon fill="none" stroke="#404040" points="182.068,-513.264 187.247,-508.246 193.87,-511.097 188.692,-516.115 182.068,-513.264"/>
<text text-anchor="middle" x="111" y="-616" font-family="Helvetica,sans-Serif" font-size="10.00"> &#45;playerContainers</text>
<text text-anchor="middle" x="111" y="-605" font-family="Helvetica,sans-Serif" font-size="10.00">&#45;player</text>
</g>
<!-- Node8&#45;&gt;Node2 -->
<g id="edge6" class="edge"><title>Node8&#45;&gt;Node2</title>
<path fill="none" stroke="#404040" d="M493,-912.313C482.122,-814.523 454.647,-616.622 406.5,-569 377.066,-539.887 332.811,-524.135 297.252,-515.729"/>
<polygon fill="none" stroke="#404040" points="296.796,-515.629 290.077,-518.248 285.076,-513.053 291.795,-510.434 296.796,-515.629"/>
<text text-anchor="middle" x="506.5" y="-767.5" font-family="Helvetica,sans-Serif" font-size="10.00"> &#45;players</text>
</g>
<!-- Node8&#45;&gt;Node13 -->
<g id="edge21" class="edge"><title>Node8&#45;&gt;Node13</title>
<path fill="none" stroke="#404040" d="M554.505,-958.938C613.398,-948.604 707.84,-928.209 783.5,-894 823.344,-875.985 863.946,-849.307 896.572,-825.397"/>
<polygon fill="none" stroke="#404040" points="896.795,-825.23 899.229,-818.442 906.431,-818.078 903.997,-824.866 896.795,-825.23"/>
<text text-anchor="middle" x="821" y="-886" font-family="Helvetica,sans-Serif" font-size="10.00"> &#45;player</text>
</g>
<!-- Node8&#45;&gt;Node17 -->
<g id="edge30" class="edge"><title>Node8&#45;&gt;Node17</title>
<path fill="none" stroke="#404040" d="M442.321,-920.602C434.828,-912.363 427.887,-903.395 422.5,-894 415.495,-881.785 410.117,-867.981 405.991,-854.148"/>
<polygon fill="none" stroke="#404040" points="405.986,-854.128 400.541,-849.4 402.811,-842.556 408.256,-847.284 405.986,-854.128"/>
<text text-anchor="middle" x="441.5" y="-886" font-family="Helvetica,sans-Serif" font-size="10.00"> &#45;players</text>
</g>
<!-- Node9&#45;&gt;Node8 -->
<g id="edge7" class="edge"><title>Node9&#45;&gt;Node8</title>
<path fill="none" stroke="midnightblue" d="M711.292,-204.88C643.755,-231.814 540.5,-287.541 540.5,-376.5 540.5,-771 540.5,-771 540.5,-771 540.5,-819.49 528.118,-873.254 516.8,-912.269"/>
<polygon fill="none" stroke="midnightblue" points="712.928,-207.999 720.981,-201.114 710.393,-201.474 712.928,-207.999"/>
</g>
<!-- Node9&#45;&gt;Node12 -->
<g id="edge13" class="edge"><title>Node9&#45;&gt;Node12</title>
<path fill="none" stroke="#404040" d="M816.052,-235.112C838.386,-261.668 862.835,-296.223 875.5,-332 889.393,-371.245 892.644,-418.513 892.702,-453.638"/>
<polygon fill="none" stroke="#404040" points="892.699,-453.992 896.645,-460.027 892.592,-465.991 888.646,-459.956 892.699,-453.992"/>
<text text-anchor="middle" x="908.5" y="-380.5" font-family="Helvetica,sans-Serif" font-size="10.00"> #target</text>
<text text-anchor="middle" x="908.5" y="-369.5" font-family="Helvetica,sans-Serif" font-size="10.00">#user</text>
</g>
<!-- Node14 -->
<g id="node13" class="node"><title>Node14</title>
<g id="a_node13"><a xlink:href="class_enemy.html" target="_top" xlink:title="Defines an AI controller enemy to fight in battle scenes">
<polygon fill="none" stroke="black" points="735,-0.5 735,-57.5 802,-57.5 802,-0.5 735,-0.5"/>
<text text-anchor="middle" x="768.5" y="-45.5" font-family="Helvetica,sans-Serif" font-size="10.00">Enemy</text>
<polyline fill="none" stroke="black" points="735,-38.5 802,-38.5 "/>
<text text-anchor="start" x="743" y="-26.5" font-family="Helvetica,sans-Serif" font-size="10.00">+ ExpGiven</text>
<polyline fill="none" stroke="black" points="735,-19.5 802,-19.5 "/>
<text text-anchor="start" x="743" y="-7.5" font-family="Helvetica,sans-Serif" font-size="10.00">+ Enemy()</text>
</a>
</g>
</g>
<!-- Node9&#45;&gt;Node14 -->
<g id="edge17" class="edge"><title>Node9&#45;&gt;Node14</title>
<path fill="none" stroke="midnightblue" d="M768.5,-85.0224C768.5,-75.0956 768.5,-65.6973 768.5,-57.5701"/>
<polygon fill="none" stroke="midnightblue" points="765,-85.0978 768.5,-95.0978 772,-85.0979 765,-85.0978"/>
</g>
<!-- Node10 -->
<g id="node9" class="node"><title>Node10</title>
<polygon fill="none" stroke="#bfbfbf" points="591,-1094.5 591,-1151.5 620,-1151.5 620,-1094.5 591,-1094.5"/>
<text text-anchor="middle" x="605.5" y="-1139.5" font-family="Helvetica,sans-Serif" font-size="10.00">int</text>
<polyline fill="none" stroke="#bfbfbf" points="591,-1132.5 620,-1132.5 "/>
<text text-anchor="middle" x="605.5" y="-1120.5" font-family="Helvetica,sans-Serif" font-size="10.00"> </text>
<polyline fill="none" stroke="#bfbfbf" points="591,-1113.5 620,-1113.5 "/>
<text text-anchor="middle" x="605.5" y="-1101.5" font-family="Helvetica,sans-Serif" font-size="10.00"> </text>
</g>
<!-- Node10&#45;&gt;Node8 -->
<g id="edge26" class="edge"><title>Node10&#45;&gt;Node8</title>
<path fill="none" stroke="#404040" d="M590.653,-1119.21C566.163,-1113.72 517.971,-1098.95 497.5,-1065 492.387,-1056.52 489.714,-1046.8 488.621,-1036.88"/>
<polygon fill="none" stroke="#404040" points="488.614,-1036.73 484.318,-1030.94 488.013,-1024.75 492.308,-1030.54 488.614,-1036.73"/>
<text text-anchor="middle" x="535" y="-1057" font-family="Helvetica,sans-Serif" font-size="10.00"> &#45;expToNextLevel</text>
<text text-anchor="middle" x="535" y="-1046" font-family="Helvetica,sans-Serif" font-size="10.00">&#45;exp</text>
</g>
<!-- Node10&#45;&gt;Node9 -->
<g id="edge9" class="edge"><title>Node10&#45;&gt;Node9</title>
<path fill="none" stroke="#404040" d="M606.152,-1094.42C609.342,-971.853 625.411,-476.308 679.5,-332 688.386,-308.292 701.196,-284.161 714.34,-262.507"/>
<polygon fill="none" stroke="#404040" points="714.477,-262.286 714.241,-255.079 720.803,-252.089 721.039,-259.296 714.477,-262.286"/>
<text text-anchor="middle" x="675" y="-649" font-family="Helvetica,sans-Serif" font-size="10.00"> #speed</text>
<text text-anchor="middle" x="675" y="-638" font-family="Helvetica,sans-Serif" font-size="10.00">#luck</text>
<text text-anchor="middle" x="675" y="-627" font-family="Helvetica,sans-Serif" font-size="10.00">#health</text>
<text text-anchor="middle" x="675" y="-616" font-family="Helvetica,sans-Serif" font-size="10.00">#magic</text>
<text text-anchor="middle" x="675" y="-605" font-family="Helvetica,sans-Serif" font-size="10.00">#maximumMagic</text>
<text text-anchor="middle" x="675" y="-594" font-family="Helvetica,sans-Serif" font-size="10.00">#attack</text>
<text text-anchor="middle" x="675" y="-583" font-family="Helvetica,sans-Serif" font-size="10.00">#defence</text>
<text text-anchor="middle" x="675" y="-572" font-family="Helvetica,sans-Serif" font-size="10.00">#level</text>
</g>
<!-- Node10&#45;&gt;Node11 -->
<g id="edge23" class="edge"><title>Node10&#45;&gt;Node11</title>
<path fill="none" stroke="#404040" d="M620.375,-1107.41C630.465,-1096.63 643.243,-1081.09 650.5,-1065 708.441,-936.54 702.73,-568.146 763.5,-441 764.826,-438.226 766.308,-435.479 767.911,-432.773"/>
<polygon fill="none" stroke="#404040" points="768.027,-432.598 767.982,-425.387 774.621,-422.572 774.666,-429.783 768.027,-432.598"/>
<text text-anchor="middle" x="732" y="-767.5" font-family="Helvetica,sans-Serif" font-size="10.00"> #magic</text>
</g>
<!-- Node10&#45;&gt;Node13 -->
<g id="edge19" class="edge"><title>Node10&#45;&gt;Node13</title>
<path fill="none" stroke="#404040" d="M620.002,-1118.38C644.79,-1111.57 695.794,-1094.8 728.5,-1065 786.65,-1012.02 766.463,-971.865 817.5,-912 825.696,-902.386 830.099,-902.439 839.5,-894 858.863,-876.618 879.229,-857.133 897.771,-838.887"/>
<polygon fill="none" stroke="#404040" points="897.898,-838.761 899.353,-831.698 906.432,-830.324 904.977,-837.387 897.898,-838.761"/>
<text text-anchor="middle" x="837" y="-966" font-family="Helvetica,sans-Serif" font-size="10.00"> +money</text>
</g>
<!-- Node10&#45;&gt;Node14 -->
<g id="edge18" class="edge"><title>Node10&#45;&gt;Node14</title>
<path fill="none" stroke="#404040" d="M599.953,-1094.3C594.345,-1063.84 586.5,-1013.39 586.5,-969.5 586.5,-969.5 586.5,-969.5 586.5,-183.5 586.5,-112.065 669.442,-67.1242 723.342,-45.461"/>
<polygon fill="none" stroke="#404040" points="723.503,-45.3989 727.654,-39.5027 734.694,-41.0671 730.542,-46.9633 723.503,-45.3989"/>
<text text-anchor="middle" x="609.5" y="-503" font-family="Helvetica,sans-Serif" font-size="10.00"> &#45;expGiven</text>
</g>
<!-- Node10&#45;&gt;Node17 -->
<g id="edge29" class="edge"><title>Node10&#45;&gt;Node17</title>
<path fill="none" stroke="#404040" d="M590.789,-1120.34C551.244,-1114.98 442.606,-1094.29 397.5,-1025 365.131,-975.276 365.4,-907.674 372.943,-854.713"/>
<polygon fill="none" stroke="#404040" points="372.98,-854.476 369.951,-847.932 374.826,-842.618 377.855,-849.162 372.98,-854.476"/>
<text text-anchor="middle" x="415.5" y="-966" font-family="Helvetica,sans-Serif" font-size="10.00"> &#45;money</text>
</g>
<!-- Node11&#45;&gt;Node9 -->
<g id="edge10" class="edge"><title>Node11&#45;&gt;Node9</title>
<path fill="none" stroke="#404040" d="M806.135,-332.201C802.518,-318.101 798.358,-301.887 794.153,-285.496"/>
<polygon fill="none" stroke="#404040" points="794.073,-285.181 788.707,-280.363 791.091,-273.557 796.456,-278.375 794.073,-285.181"/>
<text text-anchor="middle" x="822" y="-306" font-family="Helvetica,sans-Serif" font-size="10.00"> #special1</text>
<text text-anchor="middle" x="822" y="-295" font-family="Helvetica,sans-Serif" font-size="10.00">#special2</text>
</g>
<!-- Node12&#45;&gt;Node11 -->
<g id="edge11" class="edge"><title>Node12&#45;&gt;Node11</title>
<path fill="none" stroke="midnightblue" d="M862.898,-456.859C856.406,-445.653 849.514,-433.757 843.114,-422.71"/>
<polygon fill="none" stroke="midnightblue" points="859.96,-458.77 868.002,-465.668 866.017,-455.26 859.96,-458.77"/>
</g>
<!-- Node13&#45;&gt;Node12 -->
<g id="edge14" class="edge"><title>Node13&#45;&gt;Node12</title>
<path fill="none" stroke="#404040" d="M918.658,-675.351C916.39,-669.211 914.308,-663.06 912.5,-657 902.824,-624.563 897.322,-586.875 894.24,-557.328"/>
<polygon fill="none" stroke="#404040" points="894.222,-557.146 889.661,-551.561 893.062,-545.203 897.623,-550.788 894.222,-557.146"/>
<text text-anchor="middle" x="935.5" y="-610.5" font-family="Helvetica,sans-Serif" font-size="10.00"> #manager</text>
</g>
<!-- Node14&#45;&gt;Node13 -->
<g id="edge16" class="edge"><title>Node14&#45;&gt;Node13</title>
<path fill="none" stroke="#404040" d="M802.186,-38.555C860.128,-55.523 972.5,-99.2864 972.5,-183.5 972.5,-506.5 972.5,-506.5 972.5,-506.5 972.5,-558.09 970.937,-615.357 969.193,-663.203"/>
<polygon fill="none" stroke="#404040" points="969.183,-663.483 972.956,-669.628 968.734,-675.474 964.961,-669.329 969.183,-663.483"/>
<text text-anchor="middle" x="990.5" y="-375" font-family="Helvetica,sans-Serif" font-size="10.00"> &#45;enemy</text>
</g>
<!-- Node15 -->
<g id="node14" class="node"><title>Node15</title>
<polygon fill="none" stroke="#bfbfbf" points="922,-940 922,-997 957,-997 957,-940 922,-940"/>
<text text-anchor="middle" x="939.5" y="-985" font-family="Helvetica,sans-Serif" font-size="10.00">bool</text>
<polyline fill="none" stroke="#bfbfbf" points="922,-978 957,-978 "/>
<text text-anchor="middle" x="939.5" y="-966" font-family="Helvetica,sans-Serif" font-size="10.00"> </text>
<polyline fill="none" stroke="#bfbfbf" points="922,-959 957,-959 "/>
<text text-anchor="middle" x="939.5" y="-947" font-family="Helvetica,sans-Serif" font-size="10.00"> </text>
</g>
<!-- Node15&#45;&gt;Node13 -->
<g id="edge20" class="edge"><title>Node15&#45;&gt;Node13</title>
<path fill="none" stroke="#404040" d="M922.812,-939.687C914.999,-923.374 908.249,-902.249 912.5,-883 912.982,-880.818 913.51,-878.629 914.082,-876.435"/>
<polygon fill="none" stroke="#404040" points="914.147,-876.212 911.99,-869.331 917.513,-864.694 919.669,-871.575 914.147,-876.212"/>
<text text-anchor="middle" x="945.5" y="-886" font-family="Helvetica,sans-Serif" font-size="10.00"> &#45;wasCriticalHit</text>
</g>
<!-- Node16 -->
<g id="node15" class="node"><title>Node16</title>
<polygon fill="none" stroke="#bfbfbf" points="689,-349 689,-406 750,-406 750,-349 689,-349"/>
<text text-anchor="middle" x="719.5" y="-394" font-family="Helvetica,sans-Serif" font-size="10.00">Texture2D</text>
<polyline fill="none" stroke="#bfbfbf" points="689,-387 750,-387 "/>
<text text-anchor="middle" x="719.5" y="-375" font-family="Helvetica,sans-Serif" font-size="10.00"> </text>
<polyline fill="none" stroke="#bfbfbf" points="689,-368 750,-368 "/>
<text text-anchor="middle" x="719.5" y="-356" font-family="Helvetica,sans-Serif" font-size="10.00"> </text>
</g>
<!-- Node16&#45;&gt;Node9 -->
<g id="edge24" class="edge"><title>Node16&#45;&gt;Node9</title>
<path fill="none" stroke="#404040" d="M726.625,-348.727C730.985,-331.733 736.857,-308.844 742.822,-285.592"/>
<polygon fill="none" stroke="#404040" points="742.865,-285.425 740.481,-278.619 745.847,-273.802 748.23,-280.607 742.865,-285.425"/>
<text text-anchor="middle" x="759" y="-300.5" font-family="Helvetica,sans-Serif" font-size="10.00"> #image</text>
</g>
<!-- Node17&#45;&gt;Node2 -->
<g id="edge27" class="edge"><title>Node17&#45;&gt;Node2</title>
<path fill="none" stroke="#404040" d="M385.607,-697.294C378.726,-656.48 364.976,-606.234 337.5,-569 326.645,-554.29 311.2,-542.164 295.773,-532.636"/>
<polygon fill="none" stroke="#404040" points="295.524,-532.491 288.326,-532.93 285.153,-526.454 292.35,-526.015 295.524,-532.491"/>
<text text-anchor="middle" x="390" y="-610.5" font-family="Helvetica,sans-Serif" font-size="10.00"> &#45;data</text>
</g>
</g>
</svg>
        <g id="navigator" transform="translate(0 0)" fill="#404254">
                <rect fill="#f2f5e9" fill-opacity="0.5" stroke="#606060" stroke-width=".5" x="0" y="0" width="60" height="60"/>
                <use id="zoomplus" xlink:href="#zoomPlus" x="17" y="9" onmousedown="handleZoom(evt,'in')"/>
                <use id="zoomminus" xlink:href="#zoomMin" x="42" y="9" onmousedown="handleZoom(evt,'out')"/>
                <use id="reset" xlink:href="#resetDef" x="30" y="36" onmousedown="handleReset()"/>
                <g id="arrowUp" xlink:href="#dirArrow" transform="translate(30 24)" onmousedown="handlePan(0,-1)">
                  <use xlink:href="#rim" fill="#404040">
                        <set attributeName="fill" to="#808080" begin="arrowUp.mouseover" end="arrowUp.mouseout"/>
                  </use>
                  <path fill="none" stroke="white" stroke-width="1.5" d="M0,-3.0v7 M-2.5,-0.5L0,-3.0L2.5,-0.5"/>
                </g>
                <g id="arrowRight" xlink:href="#dirArrow" transform="rotate(90) translate(36 -43)" onmousedown="handlePan(1,0)">
                  <use xlink:href="#rim" fill="#404040">
                        <set attributeName="fill" to="#808080" begin="arrowRight.mouseover" end="arrowRight.mouseout"/>
                  </use>
                  <path fill="none" stroke="white" stroke-width="1.5" d="M0,-3.0v7 M-2.5,-0.5L0,-3.0L2.5,-0.5"/>
                </g>
                <g id="arrowDown" xlink:href="#dirArrow" transform="rotate(180) translate(-30 -48)" onmousedown="handlePan(0,1)">
                  <use xlink:href="#rim" fill="#404040">
                        <set attributeName="fill" to="#808080" begin="arrowDown.mouseover" end="arrowDown.mouseout"/>
                  </use>
                  <path fill="none" stroke="white" stroke-width="1.5" d="M0,-3.0v7 M-2.5,-0.5L0,-3.0L2.5,-0.5"/>
                </g>
                <g id="arrowLeft" xlink:href="#dirArrow" transform="rotate(270) translate(-36 17)" onmousedown="handlePan(-1,0)">
                  <use xlink:href="#rim" fill="#404040">
                        <set attributeName="fill" to="#808080" begin="arrowLeft.mouseover" end="arrowLeft.mouseout"/>
                  </use>
                  <path fill="none" stroke="white" stroke-width="1.5" d="M0,-3.0v7 M-2.5,-0.5L0,-3.0L2.5,-0.5"/>
                </g>
        </g>
        <svg viewBox="0 0 15 15" width="100%" height="30px" preserveAspectRatio="xMaxYMin meet">
         <g id="arrow_out" transform="scale(0.3 0.3)">
          <a xlink:href="class_items_menu_script__coll__graph_org.svg" target="_base">
           <rect id="button" ry="5" rx="5" y="6" x="6" height="38" width="38"
                fill="#f2f5e9" fill-opacity="0.5" stroke="#606060" stroke-width="1.0"/>
           <path id="arrow"
             d="M 11.500037,31.436501 C 11.940474,20.09759 22.043105,11.32322 32.158766,21.979434 L 37.068811,17.246167 C 37.068811,17.246167 37.088388,32 37.088388,32 L 22.160133,31.978069 C 22.160133,31.978069 26.997745,27.140456 26.997745,27.140456 C 18.528582,18.264221 13.291696,25.230495 11.500037,31.436501 z"
             style="fill:#404040;"/>
          </a>
         </g>
        </svg>
</svg>
