<?xml version="1.0" encoding="UTF-8" standalone="no"?>
<!DOCTYPE svg PUBLIC "-//W3C//DTD SVG 1.1//EN"
 "http://www.w3.org/Graphics/SVG/1.1/DTD/svg11.dtd">
<!-- Generated by graphviz version 2.38.0 (20140413.2041)
 -->
<!-- Title: CameraController Pages: 1 -->
<svg width="100pt" height="171pt"
 viewBox="0.00 0.00 100.00 171.00" xmlns="http://www.w3.org/2000/svg" xmlns:xlink="http://www.w3.org/1999/xlink">
<g id="graph0" class="graph" transform="scale(1 1) rotate(0) translate(4 167)">
<title>CameraController</title>
<!-- Node0 -->
<g id="node1" class="node"><title>Node0</title>
<polygon fill="#bfbfbf" stroke="black" points="0,-0.5 0,-68.5 92,-68.5 92,-0.5 0,-0.5"/>
<text text-anchor="middle" x="46" y="-56.5" font-family="Helvetica,sans-Serif" font-size="10.00">CameraController</text>
<polyline fill="none" stroke="black" points="0,-49.5 92,-49.5 "/>
<text text-anchor="start" x="8" y="-37.5" font-family="Helvetica,sans-Serif" font-size="10.00">&#45; target</text>
<polyline fill="none" stroke="black" points="0,-30.5 92,-30.5 "/>
<text text-anchor="start" x="8" y="-18.5" font-family="Helvetica,sans-Serif" font-size="10.00">&#45; Start()</text>
<text text-anchor="start" x="8" y="-7.5" font-family="Helvetica,sans-Serif" font-size="10.00">&#45; Update()</text>
</g>
<!-- Node1 -->
<g id="node2" class="node"><title>Node1</title>
<g id="a_node2"><a xlink:href="class_mono_behaviour.html" target="_top" xlink:title="{MonoBehaviour\n||}">
<polygon fill="none" stroke="black" points="4.5,-105.5 4.5,-162.5 87.5,-162.5 87.5,-105.5 4.5,-105.5"/>
<text text-anchor="middle" x="46" y="-150.5" font-family="Helvetica,sans-Serif" font-size="10.00">MonoBehaviour</text>
<polyline fill="none" stroke="black" points="4.5,-143.5 87.5,-143.5 "/>
<text text-anchor="middle" x="46" y="-131.5" font-family="Helvetica,sans-Serif" font-size="10.00"> </text>
<polyline fill="none" stroke="black" points="4.5,-124.5 87.5,-124.5 "/>
<text text-anchor="middle" x="46" y="-112.5" font-family="Helvetica,sans-Serif" font-size="10.00"> </text>
</a>
</g>
</g>
<!-- Node1&#45;&gt;Node0 -->
<g id="edge1" class="edge"><title>Node1&#45;&gt;Node0</title>
<path fill="none" stroke="midnightblue" d="M46,-95.0631C46,-86.3933 46,-77.2431 46,-68.7855"/>
<polygon fill="none" stroke="midnightblue" points="42.5001,-95.3212 46,-105.321 49.5001,-95.3212 42.5001,-95.3212"/>
</g>
</g>
</svg>
