<?xml version="1.0" encoding="UTF-8" standalone="no"?>
<!DOCTYPE svg PUBLIC "-//W3C//DTD SVG 1.1//EN"
 "http://www.w3.org/Graphics/SVG/1.1/DTD/svg11.dtd">
<!-- Generated by graphviz version 2.38.0 (20140413.2041)
 -->
<!-- Title: SwitchPlayers Pages: 1 -->
<svg width="846pt" height="1035pt"
 viewBox="0.00 0.00 846.00 1035.00" xmlns="http://www.w3.org/2000/svg" xmlns:xlink="http://www.w3.org/1999/xlink">
<g id="graph0" class="graph" transform="scale(1 1) rotate(0) translate(4 1031)">
<title>SwitchPlayers</title>
<!-- Node2 -->
<g id="node1" class="node"><title>Node2</title>
<polygon fill="#bfbfbf" stroke="black" points="28,-635.5 28,-703.5 122,-703.5 122,-635.5 28,-635.5"/>
<text text-anchor="middle" x="75" y="-691.5" font-family="Helvetica,sans-Serif" font-size="10.00">SwitchPlayers</text>
<polyline fill="none" stroke="black" points="28,-684.5 122,-684.5 "/>
<text text-anchor="middle" x="75" y="-672.5" font-family="Helvetica,sans-Serif" font-size="10.00"> </text>
<polyline fill="none" stroke="black" points="28,-665.5 122,-665.5 "/>
<text text-anchor="start" x="36" y="-653.5" font-family="Helvetica,sans-Serif" font-size="10.00">+ SwitchPlayers()</text>
<text text-anchor="start" x="36" y="-642.5" font-family="Helvetica,sans-Serif" font-size="10.00">+ performMove()</text>
</g>
<!-- Node3 -->
<g id="node2" class="node"><title>Node3</title>
<g id="a_node2"><a xlink:href="class_character_move.html" target="_top" xlink:title="Astract base class for character moves ">
<polygon fill="none" stroke="black" points="144,-831.5 144,-910.5 230,-910.5 230,-831.5 144,-831.5"/>
<text text-anchor="middle" x="187" y="-898.5" font-family="Helvetica,sans-Serif" font-size="10.00">CharacterMove</text>
<polyline fill="none" stroke="black" points="144,-891.5 230,-891.5 "/>
<text text-anchor="start" x="152" y="-879.5" font-family="Helvetica,sans-Serif" font-size="10.00">+ User</text>
<text text-anchor="start" x="152" y="-868.5" font-family="Helvetica,sans-Serif" font-size="10.00">+ Target</text>
<text text-anchor="start" x="152" y="-857.5" font-family="Helvetica,sans-Serif" font-size="10.00">+ Text</text>
<polyline fill="none" stroke="black" points="144,-850.5 230,-850.5 "/>
<text text-anchor="start" x="152" y="-838.5" font-family="Helvetica,sans-Serif" font-size="10.00">+ performMove()</text>
</a>
</g>
</g>
<!-- Node3&#45;&gt;Node2 -->
<g id="edge1" class="edge"><title>Node3&#45;&gt;Node2</title>
<path fill="none" stroke="midnightblue" d="M143.311,-823.516C140.714,-820.051 138.247,-816.528 136,-813 113.734,-778.046 96.1826,-733.579 85.7307,-703.693"/>
<polygon fill="none" stroke="midnightblue" points="140.636,-825.776 149.569,-831.473 146.138,-821.449 140.636,-825.776"/>
</g>
<!-- Node7 -->
<g id="node6" class="node"><title>Node7</title>
<g id="a_node6"><a xlink:href="class_special_move.html" target="_top" xlink:title="Special move abstract base class that expands upon CharacterMove, adding magic properties ...">
<polygon fill="none" stroke="black" points="366,-624.5 366,-714.5 464,-714.5 464,-624.5 366,-624.5"/>
<text text-anchor="middle" x="415" y="-702.5" font-family="Helvetica,sans-Serif" font-size="10.00">SpecialMove</text>
<polyline fill="none" stroke="black" points="366,-695.5 464,-695.5 "/>
<text text-anchor="start" x="374" y="-683.5" font-family="Helvetica,sans-Serif" font-size="10.00">+ Magic</text>
<text text-anchor="start" x="374" y="-672.5" font-family="Helvetica,sans-Serif" font-size="10.00">+ Desc</text>
<polyline fill="none" stroke="black" points="366,-665.5 464,-665.5 "/>
<text text-anchor="start" x="374" y="-653.5" font-family="Helvetica,sans-Serif" font-size="10.00">+ setUp()</text>
<text text-anchor="start" x="374" y="-642.5" font-family="Helvetica,sans-Serif" font-size="10.00">+ decreaseMagic()</text>
<text text-anchor="start" x="374" y="-631.5" font-family="Helvetica,sans-Serif" font-size="10.00"># SpecialMove()</text>
</a>
</g>
</g>
<!-- Node3&#45;&gt;Node7 -->
<g id="edge7" class="edge"><title>Node3&#45;&gt;Node7</title>
<path fill="none" stroke="midnightblue" d="M205.705,-821.858C206.829,-818.864 207.936,-815.893 209,-813 222.006,-777.646 207.998,-757.04 237,-733 278.182,-698.864 306.694,-735.74 356,-715 359.311,-713.607 362.604,-711.987 365.843,-710.205"/>
<polygon fill="none" stroke="midnightblue" points="202.348,-820.838 202.077,-831.429 208.894,-823.319 202.348,-820.838"/>
</g>
<!-- Node4 -->
<g id="node3" class="node"><title>Node4</title>
<polygon fill="none" stroke="#bfbfbf" points="237.5,-969.5 237.5,-1026.5 278.5,-1026.5 278.5,-969.5 237.5,-969.5"/>
<text text-anchor="middle" x="258" y="-1014.5" font-family="Helvetica,sans-Serif" font-size="10.00">string</text>
<polyline fill="none" stroke="#bfbfbf" points="237.5,-1007.5 278.5,-1007.5 "/>
<text text-anchor="middle" x="258" y="-995.5" font-family="Helvetica,sans-Serif" font-size="10.00"> </text>
<polyline fill="none" stroke="#bfbfbf" points="237.5,-988.5 278.5,-988.5 "/>
<text text-anchor="middle" x="258" y="-976.5" font-family="Helvetica,sans-Serif" font-size="10.00"> </text>
</g>
<!-- Node4&#45;&gt;Node3 -->
<g id="edge2" class="edge"><title>Node4&#45;&gt;Node3</title>
<path fill="none" stroke="#404040" d="M237.437,-975.633C230.988,-968.219 224.203,-959.6 219,-951 213.55,-941.991 208.657,-931.886 204.433,-921.992"/>
<polygon fill="none" stroke="#404040" points="204.303,-921.669 198.339,-917.615 199.789,-910.551 205.752,-914.605 204.303,-921.669"/>
<text text-anchor="middle" x="231.5" y="-937.5" font-family="Helvetica,sans-Serif" font-size="10.00"> #text</text>
</g>
<!-- Node5 -->
<g id="node4" class="node"><title>Node5</title>
<g id="a_node4"><a xlink:href="class_character.html" target="_top" xlink:title="Base abstract class for Enemy and Player to inherit from. Defines all shared variables, their constructor and their setters and getters ">
<polygon fill="none" stroke="black" points="367.5,-387.5 367.5,-565.5 462.5,-565.5 462.5,-387.5 367.5,-387.5"/>
<text text-anchor="middle" x="415" y="-553.5" font-family="Helvetica,sans-Serif" font-size="10.00">Character</text>
<polyline fill="none" stroke="black" points="367.5,-546.5 462.5,-546.5 "/>
<text text-anchor="start" x="375.5" y="-534.5" font-family="Helvetica,sans-Serif" font-size="10.00">+ Name</text>
<text text-anchor="start" x="375.5" y="-523.5" font-family="Helvetica,sans-Serif" font-size="10.00">+ Level</text>
<text text-anchor="start" x="375.5" y="-512.5" font-family="Helvetica,sans-Serif" font-size="10.00">+ Health</text>
<text text-anchor="start" x="375.5" y="-501.5" font-family="Helvetica,sans-Serif" font-size="10.00">+ Attack</text>
<text text-anchor="start" x="375.5" y="-490.5" font-family="Helvetica,sans-Serif" font-size="10.00">+ Defence</text>
<text text-anchor="start" x="375.5" y="-479.5" font-family="Helvetica,sans-Serif" font-size="10.00">+ MaximumMagic</text>
<text text-anchor="start" x="375.5" y="-468.5" font-family="Helvetica,sans-Serif" font-size="10.00">+ Magic</text>
<text text-anchor="start" x="375.5" y="-457.5" font-family="Helvetica,sans-Serif" font-size="10.00">+ Luck</text>
<text text-anchor="start" x="375.5" y="-446.5" font-family="Helvetica,sans-Serif" font-size="10.00">+ Speed</text>
<text text-anchor="start" x="375.5" y="-435.5" font-family="Helvetica,sans-Serif" font-size="10.00">+ Special1</text>
<text text-anchor="start" x="375.5" y="-424.5" font-family="Helvetica,sans-Serif" font-size="10.00">+ Special2</text>
<text text-anchor="start" x="375.5" y="-413.5" font-family="Helvetica,sans-Serif" font-size="10.00">+ Image</text>
<polyline fill="none" stroke="black" points="367.5,-406.5 462.5,-406.5 "/>
<text text-anchor="start" x="375.5" y="-394.5" font-family="Helvetica,sans-Serif" font-size="10.00"># Character()</text>
</a>
</g>
</g>
<!-- Node4&#45;&gt;Node5 -->
<g id="edge4" class="edge"><title>Node4&#45;&gt;Node5</title>
<path fill="none" stroke="#404040" d="M253.173,-969.347C243.314,-905.454 225.862,-743.878 277,-624 294.395,-583.223 328.444,-546.881 358.367,-520.593"/>
<polygon fill="none" stroke="#404040" points="358.388,-520.575 360.339,-513.633 367.498,-512.764 365.546,-519.706 358.388,-520.575"/>
<text text-anchor="middle" x="265.5" y="-770.5" font-family="Helvetica,sans-Serif" font-size="10.00"> #name</text>
</g>
<!-- Node4&#45;&gt;Node7 -->
<g id="edge8" class="edge"><title>Node4&#45;&gt;Node7</title>
<path fill="none" stroke="#404040" d="M271.25,-969.444C297.074,-915.741 354.572,-796.167 388.504,-725.601"/>
<polygon fill="none" stroke="#404040" points="388.539,-725.528 387.534,-718.388 393.74,-714.714 394.744,-721.854 388.539,-725.528"/>
<text text-anchor="middle" x="352" y="-868.5" font-family="Helvetica,sans-Serif" font-size="10.00"> #desc</text>
</g>
<!-- Node9 -->
<g id="node8" class="node"><title>Node9</title>
<g id="a_node8"><a xlink:href="class_battle_manager.html" target="_top" xlink:title="Holds current Player and Enemy objects in battle and provides functions for MainBattle and other obje...">
<polygon fill="none" stroke="black" points="523,-0.5 523,-189.5 639,-189.5 639,-0.5 523,-0.5"/>
<text text-anchor="middle" x="581" y="-177.5" font-family="Helvetica,sans-Serif" font-size="10.00">BattleManager</text>
<polyline fill="none" stroke="black" points="523,-170.5 639,-170.5 "/>
<text text-anchor="start" x="531" y="-158.5" font-family="Helvetica,sans-Serif" font-size="10.00">+ Player</text>
<text text-anchor="start" x="531" y="-147.5" font-family="Helvetica,sans-Serif" font-size="10.00">+ Enemy</text>
<text text-anchor="start" x="531" y="-136.5" font-family="Helvetica,sans-Serif" font-size="10.00">+ WasCriticalHit</text>
<polyline fill="none" stroke="black" points="523,-129.5 639,-129.5 "/>
<text text-anchor="start" x="531" y="-117.5" font-family="Helvetica,sans-Serif" font-size="10.00">+ BattleManager()</text>
<text text-anchor="start" x="531" y="-106.5" font-family="Helvetica,sans-Serif" font-size="10.00">+ playerFirst()</text>
<text text-anchor="start" x="531" y="-95.5" font-family="Helvetica,sans-Serif" font-size="10.00">+ switchPlayers()</text>
<text text-anchor="start" x="531" y="-84.5" font-family="Helvetica,sans-Serif" font-size="10.00">+ isCriticalHit()</text>
<text text-anchor="start" x="531" y="-73.5" font-family="Helvetica,sans-Serif" font-size="10.00">+ ranAway()</text>
<text text-anchor="start" x="531" y="-62.5" font-family="Helvetica,sans-Serif" font-size="10.00">+ damageCalculation()</text>
<text text-anchor="start" x="531" y="-51.5" font-family="Helvetica,sans-Serif" font-size="10.00">+ enemyMove()</text>
<text text-anchor="start" x="531" y="-40.5" font-family="Helvetica,sans-Serif" font-size="10.00">+ enemySpecialMove()</text>
<text text-anchor="start" x="531" y="-29.5" font-family="Helvetica,sans-Serif" font-size="10.00">+ battleWon()</text>
<text text-anchor="start" x="531" y="-18.5" font-family="Helvetica,sans-Serif" font-size="10.00">+ playerFainted()</text>
<text text-anchor="start" x="531" y="-7.5" font-family="Helvetica,sans-Serif" font-size="10.00">&#45; characterFainted()</text>
</a>
</g>
</g>
<!-- Node4&#45;&gt;Node9 -->
<g id="edge12" class="edge"><title>Node4&#45;&gt;Node9</title>
<path fill="none" stroke="#404040" d="M237.323,-996.524C176.1,-993.917 0,-977.268 0,-872 0,-872 0,-872 0,-292.5 0,-185.781 356.2,-125.713 510.794,-104.668"/>
<polygon fill="none" stroke="#404040" points="511.006,-104.639 516.421,-99.877 522.9,-103.044 517.485,-107.806 511.006,-104.639"/>
<text text-anchor="middle" x="42" y="-598" font-family="Helvetica,sans-Serif" font-size="10.00"> +forceEnemyMove</text>
<text text-anchor="middle" x="42" y="-587" font-family="Helvetica,sans-Serif" font-size="10.00">+forceCriticalHits</text>
</g>
<!-- Node13 -->
<g id="node12" class="node"><title>Node13</title>
<g id="a_node12"><a xlink:href="class_item.html" target="_top" xlink:title="Abstract class for items that can be equipped to a player, increasing some of their stats ...">
<polygon fill="none" stroke="black" points="751.5,-733.5 751.5,-812.5 828.5,-812.5 828.5,-733.5 751.5,-733.5"/>
<text text-anchor="middle" x="790" y="-800.5" font-family="Helvetica,sans-Serif" font-size="10.00">Item</text>
<polyline fill="none" stroke="black" points="751.5,-793.5 828.5,-793.5 "/>
<text text-anchor="start" x="759.5" y="-781.5" font-family="Helvetica,sans-Serif" font-size="10.00">+ Name</text>
<text text-anchor="start" x="759.5" y="-770.5" font-family="Helvetica,sans-Serif" font-size="10.00">+ Desc</text>
<polyline fill="none" stroke="black" points="751.5,-763.5 828.5,-763.5 "/>
<text text-anchor="start" x="759.5" y="-751.5" font-family="Helvetica,sans-Serif" font-size="10.00">+ applyBuffs()</text>
<text text-anchor="start" x="759.5" y="-740.5" font-family="Helvetica,sans-Serif" font-size="10.00">+ revertBuffs()</text>
</a>
</g>
</g>
<!-- Node4&#45;&gt;Node13 -->
<g id="edge21" class="edge"><title>Node4&#45;&gt;Node13</title>
<path fill="none" stroke="#404040" d="M278.642,-995.479C336.388,-990.549 503.377,-971.639 626,-911 671.25,-888.623 714.73,-851.33 745.537,-821.298"/>
<polygon fill="none" stroke="#404040" points="745.754,-821.083 747.202,-814.019 754.279,-812.638 752.832,-819.703 745.754,-821.083"/>
<text text-anchor="middle" x="595" y="-943" font-family="Helvetica,sans-Serif" font-size="10.00"> #desc</text>
<text text-anchor="middle" x="595" y="-932" font-family="Helvetica,sans-Serif" font-size="10.00">#name</text>
</g>
<!-- Node5&#45;&gt;Node3 -->
<g id="edge3" class="edge"><title>Node5&#45;&gt;Node3</title>
<path fill="none" stroke="#404040" d="M367.26,-494.278C316.026,-515.351 238.201,-557.085 210,-624 183.298,-687.356 181.017,-767.812 183.043,-819.118"/>
<polygon fill="none" stroke="#404040" points="183.047,-819.203 187.33,-825.004 183.621,-831.189 179.339,-825.387 183.047,-819.203"/>
<text text-anchor="middle" x="227" y="-672.5" font-family="Helvetica,sans-Serif" font-size="10.00"> #target</text>
<text text-anchor="middle" x="227" y="-661.5" font-family="Helvetica,sans-Serif" font-size="10.00">#user</text>
</g>
<!-- Node10 -->
<g id="node9" class="node"><title>Node10</title>
<g id="a_node9"><a xlink:href="class_enemy.html" target="_top" xlink:title="Defines an AI controller enemy to fight in battle scenes">
<polygon fill="none" stroke="black" points="499.5,-265 499.5,-322 566.5,-322 566.5,-265 499.5,-265"/>
<text text-anchor="middle" x="533" y="-310" font-family="Helvetica,sans-Serif" font-size="10.00">Enemy</text>
<polyline fill="none" stroke="black" points="499.5,-303 566.5,-303 "/>
<text text-anchor="start" x="507.5" y="-291" font-family="Helvetica,sans-Serif" font-size="10.00">+ ExpGiven</text>
<polyline fill="none" stroke="black" points="499.5,-284 566.5,-284 "/>
<text text-anchor="start" x="507.5" y="-272" font-family="Helvetica,sans-Serif" font-size="10.00">+ Enemy()</text>
</a>
</g>
</g>
<!-- Node5&#45;&gt;Node10 -->
<g id="edge14" class="edge"><title>Node5&#45;&gt;Node10</title>
<path fill="none" stroke="midnightblue" d="M468.307,-393.732C485.068,-368.023 502.447,-341.366 514.966,-322.162"/>
<polygon fill="none" stroke="midnightblue" points="465.184,-392.114 462.655,-402.402 471.048,-395.937 465.184,-392.114"/>
</g>
<!-- Node12 -->
<g id="node11" class="node"><title>Node12</title>
<g id="a_node11"><a xlink:href="class_player.html" target="_top" xlink:title="Defines a playable character for use in battle scenes">
<polygon fill="none" stroke="black" points="585,-237.5 585,-349.5 697,-349.5 697,-237.5 585,-237.5"/>
<text text-anchor="middle" x="641" y="-337.5" font-family="Helvetica,sans-Serif" font-size="10.00">Player</text>
<polyline fill="none" stroke="black" points="585,-330.5 697,-330.5 "/>
<text text-anchor="start" x="593" y="-318.5" font-family="Helvetica,sans-Serif" font-size="10.00">+ Exp</text>
<text text-anchor="start" x="593" y="-307.5" font-family="Helvetica,sans-Serif" font-size="10.00">+ Item</text>
<text text-anchor="start" x="593" y="-296.5" font-family="Helvetica,sans-Serif" font-size="10.00">+ ExpToNextLevel</text>
<polyline fill="none" stroke="black" points="585,-289.5 697,-289.5 "/>
<text text-anchor="start" x="593" y="-277.5" font-family="Helvetica,sans-Serif" font-size="10.00">+ Player()</text>
<text text-anchor="start" x="593" y="-266.5" font-family="Helvetica,sans-Serif" font-size="10.00">+ gainExp()</text>
<text text-anchor="start" x="593" y="-255.5" font-family="Helvetica,sans-Serif" font-size="10.00">+ levelUp()</text>
<text text-anchor="start" x="593" y="-244.5" font-family="Helvetica,sans-Serif" font-size="10.00">&#45; setExpToNextLevel()</text>
</a>
</g>
</g>
<!-- Node5&#45;&gt;Node12 -->
<g id="edge19" class="edge"><title>Node5&#45;&gt;Node12</title>
<path fill="none" stroke="midnightblue" d="M470.679,-432.575C501.608,-408.544 540.664,-377.89 575,-350 578.254,-347.357 581.585,-344.628 584.939,-341.864"/>
<polygon fill="none" stroke="midnightblue" points="468.345,-429.956 462.592,-438.852 472.637,-435.486 468.345,-429.956"/>
</g>
<!-- Node6 -->
<g id="node5" class="node"><title>Node6</title>
<polygon fill="none" stroke="#bfbfbf" points="588.5,-842.5 588.5,-899.5 617.5,-899.5 617.5,-842.5 588.5,-842.5"/>
<text text-anchor="middle" x="603" y="-887.5" font-family="Helvetica,sans-Serif" font-size="10.00">int</text>
<polyline fill="none" stroke="#bfbfbf" points="588.5,-880.5 617.5,-880.5 "/>
<text text-anchor="middle" x="603" y="-868.5" font-family="Helvetica,sans-Serif" font-size="10.00"> </text>
<polyline fill="none" stroke="#bfbfbf" points="588.5,-861.5 617.5,-861.5 "/>
<text text-anchor="middle" x="603" y="-849.5" font-family="Helvetica,sans-Serif" font-size="10.00"> </text>
</g>
<!-- Node6&#45;&gt;Node5 -->
<g id="edge5" class="edge"><title>Node6&#45;&gt;Node5</title>
<path fill="none" stroke="#404040" d="M588.417,-847.238C569.752,-817.547 537.074,-763.642 514,-715 487.291,-658.695 488.148,-641.45 464,-584 463.014,-581.655 462.008,-579.284 460.985,-576.897"/>
<polygon fill="none" stroke="#404040" points="460.874,-576.642 454.817,-572.73 456.098,-565.633 462.156,-569.545 460.874,-576.642"/>
<text text-anchor="middle" x="551.5" y="-705.5" font-family="Helvetica,sans-Serif" font-size="10.00"> #speed</text>
<text text-anchor="middle" x="551.5" y="-694.5" font-family="Helvetica,sans-Serif" font-size="10.00">#luck</text>
<text text-anchor="middle" x="551.5" y="-683.5" font-family="Helvetica,sans-Serif" font-size="10.00">#health</text>
<text text-anchor="middle" x="551.5" y="-672.5" font-family="Helvetica,sans-Serif" font-size="10.00">#magic</text>
<text text-anchor="middle" x="551.5" y="-661.5" font-family="Helvetica,sans-Serif" font-size="10.00">#maximumMagic</text>
<text text-anchor="middle" x="551.5" y="-650.5" font-family="Helvetica,sans-Serif" font-size="10.00">#attack</text>
<text text-anchor="middle" x="551.5" y="-639.5" font-family="Helvetica,sans-Serif" font-size="10.00">#defence</text>
<text text-anchor="middle" x="551.5" y="-628.5" font-family="Helvetica,sans-Serif" font-size="10.00">#level</text>
</g>
<!-- Node6&#45;&gt;Node7 -->
<g id="edge9" class="edge"><title>Node6&#45;&gt;Node7</title>
<path fill="none" stroke="#404040" d="M588.399,-868.907C558.073,-865.829 488.015,-854.383 451,-813 430.012,-789.535 420.892,-755.591 417.076,-726.717"/>
<polygon fill="none" stroke="#404040" points="417.066,-726.625 412.43,-721.102 415.746,-714.698 420.382,-720.222 417.066,-726.625"/>
<text text-anchor="middle" x="468.5" y="-770.5" font-family="Helvetica,sans-Serif" font-size="10.00"> #magic</text>
</g>
<!-- Node6&#45;&gt;Node9 -->
<g id="edge16" class="edge"><title>Node6&#45;&gt;Node9</title>
<path fill="none" stroke="#404040" d="M615.586,-842.337C617.606,-838.46 619.77,-834.58 622,-831 627.359,-822.398 630.99,-821.81 636,-813 684.832,-727.12 698.682,-703.08 717,-606 747.422,-444.772 766.63,-389.459 706,-237 693.458,-205.463 670.553,-176.33 647.743,-152.833"/>
<polygon fill="none" stroke="#404040" points="647.509,-152.599 640.439,-151.181 639.027,-144.11 646.098,-145.527 647.509,-152.599"/>
<text text-anchor="middle" x="764.5" y="-474" font-family="Helvetica,sans-Serif" font-size="10.00"> +money</text>
</g>
<!-- Node6&#45;&gt;Node10 -->
<g id="edge15" class="edge"><title>Node6&#45;&gt;Node10</title>
<path fill="none" stroke="#404040" d="M602.428,-842.246C601.262,-796.593 597.916,-702.85 589,-624 577.076,-518.544 553.605,-395.584 541.174,-333.961"/>
<polygon fill="none" stroke="#404040" points="541.158,-333.884 536.044,-328.8 538.769,-322.124 543.884,-327.207 541.158,-333.884"/>
<text text-anchor="middle" x="610" y="-592.5" font-family="Helvetica,sans-Serif" font-size="10.00"> &#45;expGiven</text>
</g>
<!-- Node6&#45;&gt;Node12 -->
<g id="edge22" class="edge"><title>Node6&#45;&gt;Node12</title>
<path fill="none" stroke="#404040" d="M610.93,-842.381C613.282,-833.118 615.601,-822.682 617,-813 640.211,-652.42 642.644,-461.238 642.045,-361.932"/>
<polygon fill="none" stroke="#404040" points="642.044,-361.704 637.998,-355.734 641.953,-349.704 645.998,-355.674 642.044,-361.704"/>
<text text-anchor="middle" x="675.5" y="-598" font-family="Helvetica,sans-Serif" font-size="10.00"> &#45;expToNextLevel</text>
<text text-anchor="middle" x="675.5" y="-587" font-family="Helvetica,sans-Serif" font-size="10.00">&#45;exp</text>
</g>
<!-- Node7&#45;&gt;Node5 -->
<g id="edge6" class="edge"><title>Node7&#45;&gt;Node5</title>
<path fill="none" stroke="#404040" d="M415,-624.201C415,-610.238 415,-594.202 415,-577.973"/>
<polygon fill="none" stroke="#404040" points="415,-577.557 411,-571.557 415,-565.557 419,-571.557 415,-577.557"/>
<text text-anchor="middle" x="437.5" y="-598" font-family="Helvetica,sans-Serif" font-size="10.00"> #special1</text>
<text text-anchor="middle" x="437.5" y="-587" font-family="Helvetica,sans-Serif" font-size="10.00">#special2</text>
</g>
<!-- Node8 -->
<g id="node7" class="node"><title>Node8</title>
<polygon fill="none" stroke="#bfbfbf" points="286.5,-641 286.5,-698 347.5,-698 347.5,-641 286.5,-641"/>
<text text-anchor="middle" x="317" y="-686" font-family="Helvetica,sans-Serif" font-size="10.00">Texture2D</text>
<polyline fill="none" stroke="#bfbfbf" points="286.5,-679 347.5,-679 "/>
<text text-anchor="middle" x="317" y="-667" font-family="Helvetica,sans-Serif" font-size="10.00"> </text>
<polyline fill="none" stroke="#bfbfbf" points="286.5,-660 347.5,-660 "/>
<text text-anchor="middle" x="317" y="-648" font-family="Helvetica,sans-Serif" font-size="10.00"> </text>
</g>
<!-- Node8&#45;&gt;Node5 -->
<g id="edge10" class="edge"><title>Node8&#45;&gt;Node5</title>
<path fill="none" stroke="#404040" d="M331.25,-640.727C340.089,-623.5 352.036,-600.216 364.134,-576.636"/>
<polygon fill="none" stroke="#404040" points="364.215,-576.478 363.395,-569.314 369.693,-565.802 370.513,-572.966 364.215,-576.478"/>
<text text-anchor="middle" x="378.5" y="-592.5" font-family="Helvetica,sans-Serif" font-size="10.00"> #image</text>
</g>
<!-- Node9&#45;&gt;Node3 -->
<g id="edge11" class="edge"><title>Node9&#45;&gt;Node3</title>
<path fill="none" stroke="#404040" d="M522.873,-96.6857C405.229,-101.463 150,-130.495 150,-292.5 150,-670.5 150,-670.5 150,-670.5 150,-721.897 162.019,-779.512 172.357,-819.562"/>
<polygon fill="none" stroke="#404040" points="172.42,-819.802 177.824,-824.576 175.496,-831.401 170.092,-826.626 172.42,-819.802"/>
<text text-anchor="middle" x="173" y="-474" font-family="Helvetica,sans-Serif" font-size="10.00"> #manager</text>
</g>
<!-- Node10&#45;&gt;Node9 -->
<g id="edge13" class="edge"><title>Node10&#45;&gt;Node9</title>
<path fill="none" stroke="#404040" d="M539.775,-264.763C543.909,-247.839 549.485,-225.016 555.197,-201.632"/>
<polygon fill="none" stroke="#404040" points="555.25,-201.414 552.788,-194.637 558.097,-189.757 560.559,-196.535 555.25,-201.414"/>
<text text-anchor="middle" x="571" y="-211" font-family="Helvetica,sans-Serif" font-size="10.00"> &#45;enemy</text>
</g>
<!-- Node11 -->
<g id="node10" class="node"><title>Node11</title>
<polygon fill="none" stroke="#bfbfbf" points="756.5,-265 756.5,-322 791.5,-322 791.5,-265 756.5,-265"/>
<text text-anchor="middle" x="774" y="-310" font-family="Helvetica,sans-Serif" font-size="10.00">bool</text>
<polyline fill="none" stroke="#bfbfbf" points="756.5,-303 791.5,-303 "/>
<text text-anchor="middle" x="774" y="-291" font-family="Helvetica,sans-Serif" font-size="10.00"> </text>
<polyline fill="none" stroke="#bfbfbf" points="756.5,-284 791.5,-284 "/>
<text text-anchor="middle" x="774" y="-272" font-family="Helvetica,sans-Serif" font-size="10.00"> </text>
</g>
<!-- Node11&#45;&gt;Node9 -->
<g id="edge17" class="edge"><title>Node11&#45;&gt;Node9</title>
<path fill="none" stroke="#404040" d="M768.041,-264.903C763.213,-247.283 755.026,-224.697 742,-208 717.35,-176.403 681.336,-150.186 649.616,-131.081"/>
<polygon fill="none" stroke="#404040" points="649.396,-130.951 642.196,-131.364 639.047,-124.877 646.246,-124.464 649.396,-130.951"/>
<text text-anchor="middle" x="781" y="-211" font-family="Helvetica,sans-Serif" font-size="10.00"> &#45;wasCriticalHit</text>
</g>
<!-- Node12&#45;&gt;Node9 -->
<g id="edge18" class="edge"><title>Node12&#45;&gt;Node9</title>
<path fill="none" stroke="#404040" d="M624.127,-237.241C620.651,-225.856 616.881,-213.511 613.067,-201.02"/>
<polygon fill="none" stroke="#404040" points="613.063,-201.007 607.485,-196.437 609.559,-189.53 615.137,-194.101 613.063,-201.007"/>
<text text-anchor="middle" x="635.5" y="-211" font-family="Helvetica,sans-Serif" font-size="10.00"> &#45;player</text>
</g>
<!-- Node13&#45;&gt;Node12 -->
<g id="edge20" class="edge"><title>Node13&#45;&gt;Node12</title>
<path fill="none" stroke="#404040" d="M798.545,-733.262C812.483,-660.334 832.776,-499.855 771,-387 756.865,-361.178 732.063,-340.854 707.885,-325.914"/>
<polygon fill="none" stroke="#404040" points="707.568,-325.727 700.368,-326.127 697.229,-319.634 704.43,-319.234 707.568,-325.727"/>
<text text-anchor="middle" x="825.5" y="-592.5" font-family="Helvetica,sans-Serif" font-size="10.00"> &#45;item</text>
</g>
</g>
</svg>
