<?xml version="1.0" encoding="UTF-8" standalone="no"?>
<!DOCTYPE svg PUBLIC "-//W3C//DTD SVG 1.1//EN"
 "http://www.w3.org/Graphics/SVG/1.1/DTD/svg11.dtd">
<!-- Generated by graphviz version 2.38.0 (20140413.2041)
 -->
<!-- Title: PlayerMenu Pages: 1 -->
<svg width="96pt" height="193pt"
 viewBox="0.00 0.00 96.00 193.00" xmlns="http://www.w3.org/2000/svg" xmlns:xlink="http://www.w3.org/1999/xlink">
<g id="graph0" class="graph" transform="scale(1 1) rotate(0) translate(4 189)">
<title>PlayerMenu</title>
<!-- Node0 -->
<g id="node1" class="node"><title>Node0</title>
<polygon fill="#bfbfbf" stroke="black" points="0,-0.5 0,-90.5 88,-90.5 88,-0.5 0,-0.5"/>
<text text-anchor="middle" x="44" y="-78.5" font-family="Helvetica,sans-Serif" font-size="10.00">PlayerMenu</text>
<polyline fill="none" stroke="black" points="0,-71.5 88,-71.5 "/>
<text text-anchor="start" x="8" y="-59.5" font-family="Helvetica,sans-Serif" font-size="10.00">&#45; players</text>
<text text-anchor="start" x="8" y="-48.5" font-family="Helvetica,sans-Serif" font-size="10.00">&#45; player</text>
<polyline fill="none" stroke="black" points="0,-41.5 88,-41.5 "/>
<text text-anchor="start" x="8" y="-29.5" font-family="Helvetica,sans-Serif" font-size="10.00">+ OnItemPlace()</text>
<text text-anchor="start" x="8" y="-18.5" font-family="Helvetica,sans-Serif" font-size="10.00">+ back()</text>
<text text-anchor="start" x="8" y="-7.5" font-family="Helvetica,sans-Serif" font-size="10.00">&#45; Start()</text>
</g>
<!-- Node1 -->
<g id="node2" class="node"><title>Node1</title>
<g id="a_node2"><a xlink:href="class_mono_behaviour.html" target="_top" xlink:title="{MonoBehaviour\n||}">
<polygon fill="none" stroke="black" points="2.5,-127.5 2.5,-184.5 85.5,-184.5 85.5,-127.5 2.5,-127.5"/>
<text text-anchor="middle" x="44" y="-172.5" font-family="Helvetica,sans-Serif" font-size="10.00">MonoBehaviour</text>
<polyline fill="none" stroke="black" points="2.5,-165.5 85.5,-165.5 "/>
<text text-anchor="middle" x="44" y="-153.5" font-family="Helvetica,sans-Serif" font-size="10.00"> </text>
<polyline fill="none" stroke="black" points="2.5,-146.5 85.5,-146.5 "/>
<text text-anchor="middle" x="44" y="-134.5" font-family="Helvetica,sans-Serif" font-size="10.00"> </text>
</a>
</g>
</g>
<!-- Node1&#45;&gt;Node0 -->
<g id="edge1" class="edge"><title>Node1&#45;&gt;Node0</title>
<path fill="none" stroke="midnightblue" d="M44,-117.214C44,-108.609 44,-99.3943 44,-90.5541"/>
<polygon fill="none" stroke="midnightblue" points="40.5001,-117.34 44,-127.34 47.5001,-117.34 40.5001,-117.34"/>
</g>
</g>
</svg>
