<?xml version="1.0" encoding="UTF-8" standalone="no"?>
<!DOCTYPE svg PUBLIC "-//W3C//DTD SVG 1.1//EN"
 "http://www.w3.org/Graphics/SVG/1.1/DTD/svg11.dtd">
<!-- Generated by graphviz version 2.38.0 (20140413.2041)
 -->
<!-- Title: SceneChanger Pages: 1 -->
<svg width="491pt" height="419pt"
 viewBox="0.00 0.00 490.50 419.00" xmlns="http://www.w3.org/2000/svg" xmlns:xlink="http://www.w3.org/1999/xlink">
<g id="graph0" class="graph" transform="scale(1 1) rotate(0) translate(4 415)">
<title>SceneChanger</title>
<!-- Node2 -->
<g id="node1" class="node"><title>Node2</title>
<polygon fill="#bfbfbf" stroke="black" points="125.5,-0.5 125.5,-134.5 223.5,-134.5 223.5,-0.5 125.5,-0.5"/>
<text text-anchor="middle" x="174.5" y="-122.5" font-family="Helvetica,sans-Serif" font-size="10.00">SceneChanger</text>
<polyline fill="none" stroke="black" points="125.5,-115.5 223.5,-115.5 "/>
<text text-anchor="middle" x="174.5" y="-103.5" font-family="Helvetica,sans-Serif" font-size="10.00"> </text>
<polyline fill="none" stroke="black" points="125.5,-96.5 223.5,-96.5 "/>
<text text-anchor="start" x="133.5" y="-84.5" font-family="Helvetica,sans-Serif" font-size="10.00">+ loadLevel()</text>
<text text-anchor="start" x="133.5" y="-73.5" font-family="Helvetica,sans-Serif" font-size="10.00">+ loadLevel()</text>
<text text-anchor="start" x="133.5" y="-62.5" font-family="Helvetica,sans-Serif" font-size="10.00">+ changePosition()</text>
<text text-anchor="start" x="133.5" y="-51.5" font-family="Helvetica,sans-Serif" font-size="10.00">&#45; Awake()</text>
<text text-anchor="start" x="133.5" y="-40.5" font-family="Helvetica,sans-Serif" font-size="10.00">&#45; OnDisable()</text>
<text text-anchor="start" x="133.5" y="-29.5" font-family="Helvetica,sans-Serif" font-size="10.00">&#45; sceneChanged()</text>
<text text-anchor="start" x="133.5" y="-18.5" font-family="Helvetica,sans-Serif" font-size="10.00">&#45; Update()</text>
<text text-anchor="start" x="133.5" y="-7.5" font-family="Helvetica,sans-Serif" font-size="10.00">&#45; changeScene()</text>
</g>
<!-- Node2&#45;&gt;Node2 -->
<g id="edge2" class="edge"><title>Node2&#45;&gt;Node2</title>
<path fill="none" stroke="#404040" d="M223.58,-83.8301C233.986,-82.1719 241.5,-76.7285 241.5,-67.5 241.5,-62.1648 238.989,-58.0946 234.859,-55.2896"/>
<polygon fill="none" stroke="#404040" points="234.852,-55.2871 227.844,-56.9857 223.58,-51.1699 230.589,-49.4713 234.852,-55.2871"/>
<text text-anchor="middle" x="264.5" y="-65" font-family="Helvetica,sans-Serif" font-size="10.00"> +instance</text>
</g>
<!-- Node3 -->
<g id="node2" class="node"><title>Node3</title>
<g id="a_node2"><a xlink:href="class_mono_behaviour.html" target="_top" xlink:title="{MonoBehaviour\n||}">
<polygon fill="none" stroke="black" points="0,-353.5 0,-410.5 83,-410.5 83,-353.5 0,-353.5"/>
<text text-anchor="middle" x="41.5" y="-398.5" font-family="Helvetica,sans-Serif" font-size="10.00">MonoBehaviour</text>
<polyline fill="none" stroke="black" points="0,-391.5 83,-391.5 "/>
<text text-anchor="middle" x="41.5" y="-379.5" font-family="Helvetica,sans-Serif" font-size="10.00"> </text>
<polyline fill="none" stroke="black" points="0,-372.5 83,-372.5 "/>
<text text-anchor="middle" x="41.5" y="-360.5" font-family="Helvetica,sans-Serif" font-size="10.00"> </text>
</a>
</g>
</g>
<!-- Node3&#45;&gt;Node2 -->
<g id="edge1" class="edge"><title>Node3&#45;&gt;Node2</title>
<path fill="none" stroke="midnightblue" d="M34.9872,-343.396C29.5964,-301.81 26.2596,-233.841 50.5,-182 66.5085,-147.764 98.0517,-119.121 125.316,-99.1738"/>
<polygon fill="none" stroke="midnightblue" points="31.5316,-343.957 36.3865,-353.374 38.4638,-342.985 31.5316,-343.957"/>
</g>
<!-- Node6 -->
<g id="node5" class="node"><title>Node6</title>
<g id="a_node5"><a xlink:href="class_player_movement.html" target="_top" xlink:title="{PlayerMovement\n||+ move()\l+ setCanMove()\l&#45; Start()\l&#45; FixedUpdate()\l&#45; walkAnimation()\l&#45; setIdle()\l}">
<polygon fill="none" stroke="black" points="217.5,-182.5 217.5,-294.5 309.5,-294.5 309.5,-182.5 217.5,-182.5"/>
<text text-anchor="middle" x="263.5" y="-282.5" font-family="Helvetica,sans-Serif" font-size="10.00">PlayerMovement</text>
<polyline fill="none" stroke="black" points="217.5,-275.5 309.5,-275.5 "/>
<text text-anchor="middle" x="263.5" y="-263.5" font-family="Helvetica,sans-Serif" font-size="10.00"> </text>
<polyline fill="none" stroke="black" points="217.5,-256.5 309.5,-256.5 "/>
<text text-anchor="start" x="225.5" y="-244.5" font-family="Helvetica,sans-Serif" font-size="10.00">+ move()</text>
<text text-anchor="start" x="225.5" y="-233.5" font-family="Helvetica,sans-Serif" font-size="10.00">+ setCanMove()</text>
<text text-anchor="start" x="225.5" y="-222.5" font-family="Helvetica,sans-Serif" font-size="10.00">&#45; Start()</text>
<text text-anchor="start" x="225.5" y="-211.5" font-family="Helvetica,sans-Serif" font-size="10.00">&#45; FixedUpdate()</text>
<text text-anchor="start" x="225.5" y="-200.5" font-family="Helvetica,sans-Serif" font-size="10.00">&#45; walkAnimation()</text>
<text text-anchor="start" x="225.5" y="-189.5" font-family="Helvetica,sans-Serif" font-size="10.00">&#45; setIdle()</text>
</a>
</g>
</g>
<!-- Node3&#45;&gt;Node6 -->
<g id="edge6" class="edge"><title>Node3&#45;&gt;Node6</title>
<path fill="none" stroke="midnightblue" d="M86.3806,-347.407C104.111,-335.293 125.098,-322.324 145.5,-313 171.985,-300.895 183.435,-309.825 208.5,-295 211.536,-293.204 214.522,-291.201 217.438,-289.051"/>
<polygon fill="none" stroke="midnightblue" points="84.1672,-344.683 77.955,-353.266 88.1635,-350.431 84.1672,-344.683"/>
</g>
<!-- Node4 -->
<g id="node3" class="node"><title>Node4</title>
<polygon fill="none" stroke="#bfbfbf" points="60,-210 60,-267 131,-267 131,-210 60,-210"/>
<text text-anchor="middle" x="95.5" y="-255" font-family="Helvetica,sans-Serif" font-size="10.00">GameObject</text>
<polyline fill="none" stroke="#bfbfbf" points="60,-248 131,-248 "/>
<text text-anchor="middle" x="95.5" y="-236" font-family="Helvetica,sans-Serif" font-size="10.00"> </text>
<polyline fill="none" stroke="#bfbfbf" points="60,-229 131,-229 "/>
<text text-anchor="middle" x="95.5" y="-217" font-family="Helvetica,sans-Serif" font-size="10.00"> </text>
</g>
<!-- Node4&#45;&gt;Node2 -->
<g id="edge3" class="edge"><title>Node4&#45;&gt;Node2</title>
<path fill="none" stroke="#404040" d="M108.369,-209.971C116.56,-192.449 127.61,-168.808 138.332,-145.873"/>
<polygon fill="none" stroke="#404040" points="138.473,-145.571 137.39,-138.442 143.554,-134.7 144.637,-141.83 138.473,-145.571"/>
<text text-anchor="middle" x="152" y="-156" font-family="Helvetica,sans-Serif" font-size="10.00"> &#45;player</text>
</g>
<!-- Node5 -->
<g id="node4" class="node"><title>Node5</title>
<polygon fill="none" stroke="#bfbfbf" points="149.5,-210 149.5,-267 199.5,-267 199.5,-210 149.5,-210"/>
<text text-anchor="middle" x="174.5" y="-255" font-family="Helvetica,sans-Serif" font-size="10.00">Vector2</text>
<polyline fill="none" stroke="#bfbfbf" points="149.5,-248 199.5,-248 "/>
<text text-anchor="middle" x="174.5" y="-236" font-family="Helvetica,sans-Serif" font-size="10.00"> </text>
<polyline fill="none" stroke="#bfbfbf" points="149.5,-229 199.5,-229 "/>
<text text-anchor="middle" x="174.5" y="-217" font-family="Helvetica,sans-Serif" font-size="10.00"> </text>
</g>
<!-- Node5&#45;&gt;Node2 -->
<g id="edge4" class="edge"><title>Node5&#45;&gt;Node2</title>
<path fill="none" stroke="#404040" d="M174.5,-209.971C174.5,-192.687 174.5,-169.452 174.5,-146.811"/>
<polygon fill="none" stroke="#404040" points="174.5,-146.7 170.5,-140.7 174.5,-134.7 178.5,-140.7 174.5,-146.7"/>
<text text-anchor="middle" x="206.5" y="-156" font-family="Helvetica,sans-Serif" font-size="10.00"> +startPosition</text>
</g>
<!-- Node6&#45;&gt;Node2 -->
<g id="edge5" class="edge"><title>Node6&#45;&gt;Node2</title>
<path fill="none" stroke="#404040" d="M251.862,-182.227C248.812,-172.236 245.063,-162.108 240.5,-153 237.53,-147.071 234.108,-141.156 230.418,-135.365"/>
<polygon fill="none" stroke="#404040" points="230.215,-135.063 223.55,-132.312 223.526,-125.101 230.192,-127.852 230.215,-135.063"/>
<text text-anchor="middle" x="283.5" y="-156" font-family="Helvetica,sans-Serif" font-size="10.00"> &#45;movementScript</text>
</g>
<!-- Node7 -->
<g id="node6" class="node"><title>Node7</title>
<polygon fill="none" stroke="#bfbfbf" points="106,-353.5 106,-410.5 147,-410.5 147,-353.5 106,-353.5"/>
<text text-anchor="middle" x="126.5" y="-398.5" font-family="Helvetica,sans-Serif" font-size="10.00">string</text>
<polyline fill="none" stroke="#bfbfbf" points="106,-391.5 147,-391.5 "/>
<text text-anchor="middle" x="126.5" y="-379.5" font-family="Helvetica,sans-Serif" font-size="10.00"> </text>
<polyline fill="none" stroke="#bfbfbf" points="106,-372.5 147,-372.5 "/>
<text text-anchor="middle" x="126.5" y="-360.5" font-family="Helvetica,sans-Serif" font-size="10.00"> </text>
</g>
<!-- Node7&#45;&gt;Node6 -->
<g id="edge7" class="edge"><title>Node7&#45;&gt;Node6</title>
<path fill="none" stroke="#404040" d="M138.227,-353.4C145.125,-339.804 154.97,-324.011 167.5,-313 180.23,-301.813 189.115,-304.796 207.131,-294.834"/>
<polygon fill="none" stroke="#404040" points="207.314,-294.718 210.245,-288.129 217.454,-288.3 214.523,-294.889 207.314,-294.718"/>
<text text-anchor="middle" x="190" y="-321.5" font-family="Helvetica,sans-Serif" font-size="10.00"> &#45;lastMove</text>
</g>
<!-- Node8 -->
<g id="node7" class="node"><title>Node8</title>
<polygon fill="none" stroke="#bfbfbf" points="165.5,-353.5 165.5,-410.5 221.5,-410.5 221.5,-353.5 165.5,-353.5"/>
<text text-anchor="middle" x="193.5" y="-398.5" font-family="Helvetica,sans-Serif" font-size="10.00">Animator</text>
<polyline fill="none" stroke="#bfbfbf" points="165.5,-391.5 221.5,-391.5 "/>
<text text-anchor="middle" x="193.5" y="-379.5" font-family="Helvetica,sans-Serif" font-size="10.00"> </text>
<polyline fill="none" stroke="#bfbfbf" points="165.5,-372.5 221.5,-372.5 "/>
<text text-anchor="middle" x="193.5" y="-360.5" font-family="Helvetica,sans-Serif" font-size="10.00"> </text>
</g>
<!-- Node8&#45;&gt;Node6 -->
<g id="edge8" class="edge"><title>Node8&#45;&gt;Node6</title>
<path fill="none" stroke="#404040" d="M206.736,-353.494C212.729,-341.1 219.929,-326.293 226.5,-313 227.683,-310.607 228.891,-308.171 230.113,-305.712"/>
<polygon fill="none" stroke="#404040" points="230.179,-305.58 229.276,-298.425 235.533,-294.841 236.436,-301.995 230.179,-305.58"/>
<text text-anchor="middle" x="240.5" y="-321.5" font-family="Helvetica,sans-Serif" font-size="10.00"> &#45;anim</text>
</g>
<!-- Node9 -->
<g id="node8" class="node"><title>Node9</title>
<polygon fill="none" stroke="#bfbfbf" points="240,-353.5 240,-410.5 275,-410.5 275,-353.5 240,-353.5"/>
<text text-anchor="middle" x="257.5" y="-398.5" font-family="Helvetica,sans-Serif" font-size="10.00">float</text>
<polyline fill="none" stroke="#bfbfbf" points="240,-391.5 275,-391.5 "/>
<text text-anchor="middle" x="257.5" y="-379.5" font-family="Helvetica,sans-Serif" font-size="10.00"> </text>
<polyline fill="none" stroke="#bfbfbf" points="240,-372.5 275,-372.5 "/>
<text text-anchor="middle" x="257.5" y="-360.5" font-family="Helvetica,sans-Serif" font-size="10.00"> </text>
</g>
<!-- Node9&#45;&gt;Node6 -->
<g id="edge9" class="edge"><title>Node9&#45;&gt;Node6</title>
<path fill="none" stroke="#404040" d="M257.575,-353.2C257.694,-340.88 257.954,-326.212 258.5,-313 258.584,-310.979 258.676,-308.928 258.775,-306.857"/>
<polygon fill="none" stroke="#404040" points="258.776,-306.849 255.102,-300.644 259.417,-294.867 263.091,-301.072 258.776,-306.849"/>
<text text-anchor="middle" x="275" y="-321.5" font-family="Helvetica,sans-Serif" font-size="10.00"> &#45;speed</text>
</g>
<!-- Node10 -->
<g id="node9" class="node"><title>Node10</title>
<polygon fill="none" stroke="#bfbfbf" points="399,-353.5 399,-410.5 434,-410.5 434,-353.5 399,-353.5"/>
<text text-anchor="middle" x="416.5" y="-398.5" font-family="Helvetica,sans-Serif" font-size="10.00">bool</text>
<polyline fill="none" stroke="#bfbfbf" points="399,-391.5 434,-391.5 "/>
<text text-anchor="middle" x="416.5" y="-379.5" font-family="Helvetica,sans-Serif" font-size="10.00"> </text>
<polyline fill="none" stroke="#bfbfbf" points="399,-372.5 434,-372.5 "/>
<text text-anchor="middle" x="416.5" y="-360.5" font-family="Helvetica,sans-Serif" font-size="10.00"> </text>
</g>
<!-- Node10&#45;&gt;Node2 -->
<g id="edge12" class="edge"><title>Node10&#45;&gt;Node2</title>
<path fill="none" stroke="#404040" d="M427.127,-353.216C430.431,-340.768 432.321,-325.996 428.5,-313 404.642,-231.863 387.12,-210.926 325.5,-153 299.201,-128.278 264.327,-108.148 234.719,-93.7463"/>
<polygon fill="none" stroke="#404040" points="234.504,-93.6445 227.37,-94.6922 223.658,-88.5093 230.793,-87.4617 234.504,-93.6445"/>
<text text-anchor="middle" x="452.5" y="-236" font-family="Helvetica,sans-Serif" font-size="10.00"> +movePlayer</text>
</g>
<!-- Node10&#45;&gt;Node6 -->
<g id="edge10" class="edge"><title>Node10&#45;&gt;Node6</title>
<path fill="none" stroke="#404040" d="M398.949,-364.768C379.471,-346.755 347.058,-316.777 318.822,-290.664"/>
<polygon fill="none" stroke="#404040" points="318.633,-290.489 311.513,-289.352 309.823,-282.342 316.944,-283.479 318.633,-290.489"/>
<text text-anchor="middle" x="394" y="-327" font-family="Helvetica,sans-Serif" font-size="10.00"> &#45;playerExists</text>
<text text-anchor="middle" x="394" y="-316" font-family="Helvetica,sans-Serif" font-size="10.00">&#45;canMove</text>
</g>
<!-- Node11 -->
<g id="node10" class="node"><title>Node11</title>
<polygon fill="none" stroke="#bfbfbf" points="293,-353.5 293,-410.5 352,-410.5 352,-353.5 293,-353.5"/>
<text text-anchor="middle" x="322.5" y="-398.5" font-family="Helvetica,sans-Serif" font-size="10.00">Transform</text>
<polyline fill="none" stroke="#bfbfbf" points="293,-391.5 352,-391.5 "/>
<text text-anchor="middle" x="322.5" y="-379.5" font-family="Helvetica,sans-Serif" font-size="10.00"> </text>
<polyline fill="none" stroke="#bfbfbf" points="293,-372.5 352,-372.5 "/>
<text text-anchor="middle" x="322.5" y="-360.5" font-family="Helvetica,sans-Serif" font-size="10.00"> </text>
</g>
<!-- Node11&#45;&gt;Node6 -->
<g id="edge11" class="edge"><title>Node11&#45;&gt;Node6</title>
<path fill="none" stroke="#404040" d="M310.984,-353.381C305.317,-339.789 298.217,-322.762 291.248,-306.049"/>
<polygon fill="none" stroke="#404040" points="291.082,-305.651 285.081,-301.652 286.464,-294.575 292.465,-298.573 291.082,-305.651"/>
<text text-anchor="middle" x="319" y="-321.5" font-family="Helvetica,sans-Serif" font-size="10.00"> &#45;player</text>
</g>
</g>
</svg>
