<?xml version="1.0" encoding="UTF-8" standalone="no"?>
<!DOCTYPE svg PUBLIC "-//W3C//DTD SVG 1.1//EN"
 "http://www.w3.org/Graphics/SVG/1.1/DTD/svg11.dtd">
<!-- Generated by graphviz version 2.38.0 (20140413.2041)
 -->
<!-- Title: PlayerMovement Pages: 1 -->
<svg width="583pt" height="270pt"
 viewBox="0.00 0.00 583.00 270.00" xmlns="http://www.w3.org/2000/svg" xmlns:xlink="http://www.w3.org/1999/xlink">
<g id="graph0" class="graph" transform="scale(1 1) rotate(0) translate(4 266)">
<title>PlayerMovement</title>
<!-- Node2 -->
<g id="node1" class="node"><title>Node2</title>
<polygon fill="#bfbfbf" stroke="black" points="200,-0.5 200,-134.5 305,-134.5 305,-0.5 200,-0.5"/>
<text text-anchor="middle" x="252.5" y="-122.5" font-family="Helvetica,sans-Serif" font-size="10.00">PlayerMovement</text>
<polyline fill="none" stroke="black" points="200,-115.5 305,-115.5 "/>
<text text-anchor="middle" x="252.5" y="-103.5" font-family="Helvetica,sans-Serif" font-size="10.00"> </text>
<polyline fill="none" stroke="black" points="200,-96.5 305,-96.5 "/>
<text text-anchor="start" x="208" y="-84.5" font-family="Helvetica,sans-Serif" font-size="10.00">+ move()</text>
<text text-anchor="start" x="208" y="-73.5" font-family="Helvetica,sans-Serif" font-size="10.00">+ setCanMove()</text>
<text text-anchor="start" x="208" y="-62.5" font-family="Helvetica,sans-Serif" font-size="10.00">&#45; Start()</text>
<text text-anchor="start" x="208" y="-51.5" font-family="Helvetica,sans-Serif" font-size="10.00">&#45; FixedUpdate()</text>
<text text-anchor="start" x="208" y="-40.5" font-family="Helvetica,sans-Serif" font-size="10.00">&#45; explorationMenu()</text>
<text text-anchor="start" x="208" y="-29.5" font-family="Helvetica,sans-Serif" font-size="10.00">&#45; randomEncounter()</text>
<text text-anchor="start" x="208" y="-18.5" font-family="Helvetica,sans-Serif" font-size="10.00">&#45; walkAnimation()</text>
<text text-anchor="start" x="208" y="-7.5" font-family="Helvetica,sans-Serif" font-size="10.00">&#45; setIdle()</text>
</g>
<!-- Node3 -->
<g id="node2" class="node"><title>Node3</title>
<g id="a_node2"><a xlink:href="class_mono_behaviour.html" target="_top" xlink:title="{MonoBehaviour\n||}">
<polygon fill="none" stroke="black" points="0,-204.5 0,-261.5 83,-261.5 83,-204.5 0,-204.5"/>
<text text-anchor="middle" x="41.5" y="-249.5" font-family="Helvetica,sans-Serif" font-size="10.00">MonoBehaviour</text>
<polyline fill="none" stroke="black" points="0,-242.5 83,-242.5 "/>
<text text-anchor="middle" x="41.5" y="-230.5" font-family="Helvetica,sans-Serif" font-size="10.00"> </text>
<polyline fill="none" stroke="black" points="0,-223.5 83,-223.5 "/>
<text text-anchor="middle" x="41.5" y="-211.5" font-family="Helvetica,sans-Serif" font-size="10.00"> </text>
</a>
</g>
</g>
<!-- Node3&#45;&gt;Node2 -->
<g id="edge1" class="edge"><title>Node3&#45;&gt;Node2</title>
<path fill="none" stroke="midnightblue" d="M81.0911,-197.621C97.6743,-183.512 117.296,-167.192 135.5,-153 156.15,-136.901 179.436,-119.865 199.767,-105.34"/>
<polygon fill="none" stroke="midnightblue" points="78.5438,-195.194 73.2139,-204.351 83.0906,-200.516 78.5438,-195.194"/>
</g>
<!-- Node4 -->
<g id="node3" class="node"><title>Node4</title>
<polygon fill="none" stroke="#bfbfbf" points="101,-204.5 101,-261.5 142,-261.5 142,-204.5 101,-204.5"/>
<text text-anchor="middle" x="121.5" y="-249.5" font-family="Helvetica,sans-Serif" font-size="10.00">string</text>
<polyline fill="none" stroke="#bfbfbf" points="101,-242.5 142,-242.5 "/>
<text text-anchor="middle" x="121.5" y="-230.5" font-family="Helvetica,sans-Serif" font-size="10.00"> </text>
<polyline fill="none" stroke="#bfbfbf" points="101,-223.5 142,-223.5 "/>
<text text-anchor="middle" x="121.5" y="-211.5" font-family="Helvetica,sans-Serif" font-size="10.00"> </text>
</g>
<!-- Node4&#45;&gt;Node2 -->
<g id="edge2" class="edge"><title>Node4&#45;&gt;Node2</title>
<path fill="none" stroke="#404040" d="M131.337,-204.177C137.7,-188.319 146.95,-168.569 158.5,-153 167.773,-140.501 179.122,-128.442 190.686,-117.539"/>
<polygon fill="none" stroke="#404040" points="190.687,-117.538 192.413,-110.537 199.54,-109.438 197.814,-116.439 190.687,-117.538"/>
<text text-anchor="middle" x="181" y="-167" font-family="Helvetica,sans-Serif" font-size="10.00"> &#45;lastMove</text>
</g>
<!-- Node5 -->
<g id="node4" class="node"><title>Node5</title>
<polygon fill="none" stroke="#bfbfbf" points="160.5,-204.5 160.5,-261.5 216.5,-261.5 216.5,-204.5 160.5,-204.5"/>
<text text-anchor="middle" x="188.5" y="-249.5" font-family="Helvetica,sans-Serif" font-size="10.00">Animator</text>
<polyline fill="none" stroke="#bfbfbf" points="160.5,-242.5 216.5,-242.5 "/>
<text text-anchor="middle" x="188.5" y="-230.5" font-family="Helvetica,sans-Serif" font-size="10.00"> </text>
<polyline fill="none" stroke="#bfbfbf" points="160.5,-223.5 216.5,-223.5 "/>
<text text-anchor="middle" x="188.5" y="-211.5" font-family="Helvetica,sans-Serif" font-size="10.00"> </text>
</g>
<!-- Node5&#45;&gt;Node2 -->
<g id="edge3" class="edge"><title>Node5&#45;&gt;Node2</title>
<path fill="none" stroke="#404040" d="M199.357,-204.264C205.705,-188.047 214.063,-166.695 222.265,-145.74"/>
<polygon fill="none" stroke="#404040" points="222.286,-145.686 220.749,-138.641 226.66,-134.512 228.198,-141.557 222.286,-145.686"/>
<text text-anchor="middle" x="233.5" y="-167" font-family="Helvetica,sans-Serif" font-size="10.00"> &#45;anim</text>
</g>
<!-- Node6 -->
<g id="node5" class="node"><title>Node6</title>
<polygon fill="none" stroke="#bfbfbf" points="235,-204.5 235,-261.5 270,-261.5 270,-204.5 235,-204.5"/>
<text text-anchor="middle" x="252.5" y="-249.5" font-family="Helvetica,sans-Serif" font-size="10.00">float</text>
<polyline fill="none" stroke="#bfbfbf" points="235,-242.5 270,-242.5 "/>
<text text-anchor="middle" x="252.5" y="-230.5" font-family="Helvetica,sans-Serif" font-size="10.00"> </text>
<polyline fill="none" stroke="#bfbfbf" points="235,-223.5 270,-223.5 "/>
<text text-anchor="middle" x="252.5" y="-211.5" font-family="Helvetica,sans-Serif" font-size="10.00"> </text>
</g>
<!-- Node6&#45;&gt;Node2 -->
<g id="edge4" class="edge"><title>Node6&#45;&gt;Node2</title>
<path fill="none" stroke="#404040" d="M252.5,-204.264C252.5,-188.271 252.5,-167.284 252.5,-146.609"/>
<polygon fill="none" stroke="#404040" points="252.5,-146.512 248.5,-140.512 252.5,-134.512 256.5,-140.512 252.5,-146.512"/>
<text text-anchor="middle" x="269" y="-167" font-family="Helvetica,sans-Serif" font-size="10.00"> &#45;speed</text>
</g>
<!-- Node7 -->
<g id="node6" class="node"><title>Node7</title>
<polygon fill="none" stroke="#bfbfbf" points="288.5,-204.5 288.5,-261.5 338.5,-261.5 338.5,-204.5 288.5,-204.5"/>
<text text-anchor="middle" x="313.5" y="-249.5" font-family="Helvetica,sans-Serif" font-size="10.00">Vector2</text>
<polyline fill="none" stroke="#bfbfbf" points="288.5,-242.5 338.5,-242.5 "/>
<text text-anchor="middle" x="313.5" y="-230.5" font-family="Helvetica,sans-Serif" font-size="10.00"> </text>
<polyline fill="none" stroke="#bfbfbf" points="288.5,-223.5 338.5,-223.5 "/>
<text text-anchor="middle" x="313.5" y="-211.5" font-family="Helvetica,sans-Serif" font-size="10.00"> </text>
</g>
<!-- Node7&#45;&gt;Node2 -->
<g id="edge5" class="edge"><title>Node7&#45;&gt;Node2</title>
<path fill="none" stroke="#404040" d="M304.485,-204.452C299.399,-189.215 292.813,-169.982 286.5,-153 285.673,-150.777 284.827,-148.524 283.966,-146.253"/>
<polygon fill="none" stroke="#404040" points="283.867,-145.995 277.981,-141.829 279.562,-134.793 285.448,-138.959 283.867,-145.995"/>
<text text-anchor="middle" x="337" y="-167" font-family="Helvetica,sans-Serif" font-size="10.00"> &#45;previousPosition</text>
</g>
<!-- Node8 -->
<g id="node7" class="node"><title>Node8</title>
<polygon fill="none" stroke="#bfbfbf" points="391,-204.5 391,-261.5 426,-261.5 426,-204.5 391,-204.5"/>
<text text-anchor="middle" x="408.5" y="-249.5" font-family="Helvetica,sans-Serif" font-size="10.00">bool</text>
<polyline fill="none" stroke="#bfbfbf" points="391,-242.5 426,-242.5 "/>
<text text-anchor="middle" x="408.5" y="-230.5" font-family="Helvetica,sans-Serif" font-size="10.00"> </text>
<polyline fill="none" stroke="#bfbfbf" points="391,-223.5 426,-223.5 "/>
<text text-anchor="middle" x="408.5" y="-211.5" font-family="Helvetica,sans-Serif" font-size="10.00"> </text>
</g>
<!-- Node8&#45;&gt;Node2 -->
<g id="edge6" class="edge"><title>Node8&#45;&gt;Node2</title>
<path fill="none" stroke="#404040" d="M402.887,-204.264C398.556,-188.053 391.261,-167.914 379.5,-153 362.512,-131.458 338.476,-113.513 315.878,-99.7822"/>
<polygon fill="none" stroke="#404040" points="315.639,-99.6421 308.44,-100.062 305.284,-93.5779 312.483,-93.1583 315.639,-99.6421"/>
<text text-anchor="middle" x="454.5" y="-178" font-family="Helvetica,sans-Serif" font-size="10.00"> &#45;playerExists</text>
<text text-anchor="middle" x="454.5" y="-167" font-family="Helvetica,sans-Serif" font-size="10.00">+pseudoEscapeKeyPress</text>
<text text-anchor="middle" x="454.5" y="-156" font-family="Helvetica,sans-Serif" font-size="10.00">&#45;canMove</text>
</g>
<!-- Node9 -->
<g id="node8" class="node"><title>Node9</title>
<polygon fill="none" stroke="#bfbfbf" points="516,-204.5 516,-261.5 575,-261.5 575,-204.5 516,-204.5"/>
<text text-anchor="middle" x="545.5" y="-249.5" font-family="Helvetica,sans-Serif" font-size="10.00">Transform</text>
<polyline fill="none" stroke="#bfbfbf" points="516,-242.5 575,-242.5 "/>
<text text-anchor="middle" x="545.5" y="-230.5" font-family="Helvetica,sans-Serif" font-size="10.00"> </text>
<polyline fill="none" stroke="#bfbfbf" points="516,-223.5 575,-223.5 "/>
<text text-anchor="middle" x="545.5" y="-211.5" font-family="Helvetica,sans-Serif" font-size="10.00"> </text>
</g>
<!-- Node9&#45;&gt;Node2 -->
<g id="edge7" class="edge"><title>Node9&#45;&gt;Node2</title>
<path fill="none" stroke="#404040" d="M541.268,-204.497C537.309,-187.545 529.758,-166.535 515.5,-153 461.432,-101.676 376.058,-81.5253 317.331,-73.6139"/>
<polygon fill="none" stroke="#404040" points="317.132,-73.5892 310.683,-76.8162 305.224,-72.1047 311.673,-68.8777 317.132,-73.5892"/>
<text text-anchor="middle" x="553" y="-167" font-family="Helvetica,sans-Serif" font-size="10.00"> &#45;player</text>
</g>
</g>
</svg>
