<?xml version="1.0" encoding="UTF-8" standalone="no"?>
<!DOCTYPE svg PUBLIC "-//W3C//DTD SVG 1.1//EN"
 "http://www.w3.org/Graphics/SVG/1.1/DTD/svg11.dtd">
<!-- Generated by graphviz version 2.38.0 (20140413.2041)
 -->
<!-- Title: CanvasScript Pages: 1 -->
<svg width="151pt" height="161pt"
 viewBox="0.00 0.00 150.50 161.00" xmlns="http://www.w3.org/2000/svg" xmlns:xlink="http://www.w3.org/1999/xlink">
<g id="graph0" class="graph" transform="scale(1 1) rotate(0) translate(4 157)">
<title>CanvasScript</title>
<!-- Node2 -->
<g id="node1" class="node"><title>Node2</title>
<polygon fill="#bfbfbf" stroke="black" points="4.5,-0.5 4.5,-57.5 78.5,-57.5 78.5,-0.5 4.5,-0.5"/>
<text text-anchor="middle" x="41.5" y="-45.5" font-family="Helvetica,sans-Serif" font-size="10.00">CanvasScript</text>
<polyline fill="none" stroke="black" points="4.5,-38.5 78.5,-38.5 "/>
<text text-anchor="middle" x="41.5" y="-26.5" font-family="Helvetica,sans-Serif" font-size="10.00"> </text>
<polyline fill="none" stroke="black" points="4.5,-19.5 78.5,-19.5 "/>
<text text-anchor="start" x="12.5" y="-7.5" font-family="Helvetica,sans-Serif" font-size="10.00">&#45; Start()</text>
</g>
<!-- Node2&#45;&gt;Node2 -->
<g id="edge2" class="edge"><title>Node2&#45;&gt;Node2</title>
<path fill="none" stroke="#404040" d="M78.5153,-37.5724C88.7097,-37.1582 96.5,-34.3008 96.5,-29 96.5,-26.1011 94.1701,-23.933 90.3913,-22.4956"/>
<polygon fill="none" stroke="#404040" points="90.3374,-22.4863 83.7401,-25.3977 78.5153,-20.4276 85.1126,-17.5163 90.3374,-22.4863"/>
<text text-anchor="middle" x="119.5" y="-26.5" font-family="Helvetica,sans-Serif" font-size="10.00"> +instance</text>
</g>
<!-- Node3 -->
<g id="node2" class="node"><title>Node3</title>
<g id="a_node2"><a xlink:href="class_mono_behaviour.html" target="_top" xlink:title="{MonoBehaviour\n||}">
<polygon fill="none" stroke="black" points="0,-95.5 0,-152.5 83,-152.5 83,-95.5 0,-95.5"/>
<text text-anchor="middle" x="41.5" y="-140.5" font-family="Helvetica,sans-Serif" font-size="10.00">MonoBehaviour</text>
<polyline fill="none" stroke="black" points="0,-133.5 83,-133.5 "/>
<text text-anchor="middle" x="41.5" y="-121.5" font-family="Helvetica,sans-Serif" font-size="10.00"> </text>
<polyline fill="none" stroke="black" points="0,-114.5 83,-114.5 "/>
<text text-anchor="middle" x="41.5" y="-102.5" font-family="Helvetica,sans-Serif" font-size="10.00"> </text>
</a>
</g>
</g>
<!-- Node3&#45;&gt;Node2 -->
<g id="edge1" class="edge"><title>Node3&#45;&gt;Node2</title>
<path fill="none" stroke="midnightblue" d="M41.5,-85.2352C41.5,-76.0276 41.5,-66.3459 41.5,-57.7053"/>
<polygon fill="none" stroke="midnightblue" points="38.0001,-85.3487 41.5,-95.3487 45.0001,-85.3488 38.0001,-85.3487"/>
</g>
</g>
</svg>
