<?xml version="1.0" encoding="UTF-8" standalone="no"?>
<!DOCTYPE svg PUBLIC "-//W3C//DTD SVG 1.1//EN"
 "http://www.w3.org/Graphics/SVG/1.1/DTD/svg11.dtd">
<!-- Generated by graphviz version 2.38.0 (20140413.2041)
 -->
<!-- Title: PlayerData Pages: 1 -->
<!--zoomable 1265 -->
<svg id="main" version="1.1" xmlns="http://www.w3.org/2000/svg" xmlns:xlink="http://www.w3.org/1999/xlink" xml:space="preserve" onload="init(evt)">
<style type="text/css"><![CDATA[
.edge:hover path { stroke: red; }
.edge:hover polygon { stroke: red; fill: red; }
]]></style>
<script type="text/javascript"><![CDATA[
var edges = document.getElementsByTagName('g');
if (edges && edges.length) {
  for (var i=0;i<edges.length;i++) {
    if (edges[i].id.substr(0,4)=='edge') {
      edges[i].setAttribute('class','edge');
    }
  }
}
]]></script>
        <defs>
                <circle id="rim" cx="0" cy="0" r="7"/>
                <circle id="rim2" cx="0" cy="0" r="3.5"/>
                <g id="zoomPlus">
                        <use xlink:href="#rim" fill="#404040">
                                <set attributeName="fill" to="#808080" begin="zoomplus.mouseover" end="zoomplus.mouseout"/>
                        </use>
                        <path d="M-4,0h8M0,-4v8" fill="none" stroke="white" stroke-width="1.5" pointer-events="none"/>
                </g>
                <g id="zoomMin">
                        <use xlink:href="#rim" fill="#404040">
                                <set attributeName="fill" to="#808080" begin="zoomminus.mouseover" end="zoomminus.mouseout"/>
                        </use>
                        <path d="M-4,0h8" fill="none" stroke="white" stroke-width="1.5" pointer-events="none"/>
                </g>
                <g id="dirArrow">
                        <path fill="none" stroke="white" stroke-width="1.5" d="M0,-3.0v7 M-2.5,-0.5L0,-3.0L2.5,-0.5"/>
                </g>
               <g id="resetDef">
                       <use xlink:href="#rim2" fill="#404040">
                               <set attributeName="fill" to="#808080" begin="reset.mouseover" end="reset.mouseout"/>
                       </use>
               </g>
        </defs>

<script type="text/javascript">
var viewWidth = 843;
var viewHeight = 1265;
var sectionId = 'dynsection-1';
</script>
<script xlink:href="svgpan.js"/>
<svg id="graph" class="graph">
<g id="viewport">
<title>PlayerData</title>
<!-- Node2 -->
<g id="node1" class="node"><title>Node2</title>
<polygon fill="#bfbfbf" stroke="black" points="118.905,-455 118.905,-523 183.905,-523 183.905,-455 118.905,-455"/>
<text text-anchor="middle" x="151.405" y="-511" font-family="Helvetica,sans-Serif" font-size="10.00">PlayerData</text>
<polyline fill="none" stroke="black" points="118.905,-504 183.905,-504 "/>
<text text-anchor="middle" x="151.405" y="-492" font-family="Helvetica,sans-Serif" font-size="10.00"> </text>
<polyline fill="none" stroke="black" points="118.905,-485 183.905,-485 "/>
<text text-anchor="start" x="126.905" y="-473" font-family="Helvetica,sans-Serif" font-size="10.00">&#45; Awake()</text>
<text text-anchor="start" x="126.905" y="-462" font-family="Helvetica,sans-Serif" font-size="10.00">&#45; Update()</text>
</g>
<!-- Node2&#45;&gt;Node2 -->
<g id="edge2" class="edge"><title>Node2&#45;&gt;Node2</title>
<path fill="none" stroke="#404040" d="M183.947,-499.864C194.006,-499.645 201.905,-496.023 201.905,-489 201.905,-485.159 199.542,-482.336 195.756,-480.529"/>
<polygon fill="none" stroke="#404040" points="195.708,-480.52 189.033,-483.248 183.947,-478.136 190.622,-475.407 195.708,-480.52"/>
<text text-anchor="middle" x="224.905" y="-486.5" font-family="Helvetica,sans-Serif" font-size="10.00"> +instance</text>
</g>
<!-- Node3 -->
<g id="node2" class="node"><title>Node3</title>
<g id="a_node2"><a xlink:href="class_mono_behaviour.html" target="_top" xlink:title="{MonoBehaviour\n||}">
<polygon fill="none" stroke="black" points="104.905,-719.5 104.905,-776.5 187.905,-776.5 187.905,-719.5 104.905,-719.5"/>
<text text-anchor="middle" x="146.405" y="-764.5" font-family="Helvetica,sans-Serif" font-size="10.00">MonoBehaviour</text>
<polyline fill="none" stroke="black" points="104.905,-757.5 187.905,-757.5 "/>
<text text-anchor="middle" x="146.405" y="-745.5" font-family="Helvetica,sans-Serif" font-size="10.00"> </text>
<polyline fill="none" stroke="black" points="104.905,-738.5 187.905,-738.5 "/>
<text text-anchor="middle" x="146.405" y="-726.5" font-family="Helvetica,sans-Serif" font-size="10.00"> </text>
</a>
</g>
</g>
<!-- Node3&#45;&gt;Node2 -->
<g id="edge1" class="edge"><title>Node3&#45;&gt;Node2</title>
<path fill="none" stroke="midnightblue" d="M147.136,-709.398C148.112,-659.253 149.824,-571.257 150.756,-523.359"/>
<polygon fill="none" stroke="midnightblue" points="143.635,-709.43 146.94,-719.496 150.634,-709.567 143.635,-709.43"/>
</g>
<!-- Node4 -->
<g id="node3" class="node"><title>Node4</title>
<g id="a_node3"><a xlink:href="class_data_manager.html" target="_top" xlink:title="{DataManager\n|+ Players\l+ Alive\l+ Items\l+ Money\l|+ DataManager()\l+ getFirstPlayer()\l+ addPlayer()\l+ swapPlayers()\l+ addItem()\l}">
<polygon fill="none" stroke="black" points="206.405,-681 206.405,-815 298.405,-815 298.405,-681 206.405,-681"/>
<text text-anchor="middle" x="252.405" y="-803" font-family="Helvetica,sans-Serif" font-size="10.00">DataManager</text>
<polyline fill="none" stroke="black" points="206.405,-796 298.405,-796 "/>
<text text-anchor="start" x="214.405" y="-784" font-family="Helvetica,sans-Serif" font-size="10.00">+ Players</text>
<text text-anchor="start" x="214.405" y="-773" font-family="Helvetica,sans-Serif" font-size="10.00">+ Alive</text>
<text text-anchor="start" x="214.405" y="-762" font-family="Helvetica,sans-Serif" font-size="10.00">+ Items</text>
<text text-anchor="start" x="214.405" y="-751" font-family="Helvetica,sans-Serif" font-size="10.00">+ Money</text>
<polyline fill="none" stroke="black" points="206.405,-744 298.405,-744 "/>
<text text-anchor="start" x="214.405" y="-732" font-family="Helvetica,sans-Serif" font-size="10.00">+ DataManager()</text>
<text text-anchor="start" x="214.405" y="-721" font-family="Helvetica,sans-Serif" font-size="10.00">+ getFirstPlayer()</text>
<text text-anchor="start" x="214.405" y="-710" font-family="Helvetica,sans-Serif" font-size="10.00">+ addPlayer()</text>
<text text-anchor="start" x="214.405" y="-699" font-family="Helvetica,sans-Serif" font-size="10.00">+ swapPlayers()</text>
<text text-anchor="start" x="214.405" y="-688" font-family="Helvetica,sans-Serif" font-size="10.00">+ addItem()</text>
</a>
</g>
</g>
<!-- Node4&#45;&gt;Node2 -->
<g id="edge3" class="edge"><title>Node4&#45;&gt;Node2</title>
<path fill="none" stroke="#404040" d="M226.395,-680.816C208.308,-634.793 184.69,-574.697 168.835,-534.352"/>
<polygon fill="none" stroke="#404040" points="168.769,-534.183 162.851,-530.062 164.379,-523.015 170.297,-527.136 168.769,-534.183"/>
<text text-anchor="middle" x="222.405" y="-588.5" font-family="Helvetica,sans-Serif" font-size="10.00"> +data</text>
</g>
<!-- Node5 -->
<g id="node4" class="node"><title>Node5</title>
<polygon fill="none" stroke="#bfbfbf" points="156.905,-918 156.905,-975 225.905,-975 225.905,-918 156.905,-918"/>
<text text-anchor="middle" x="191.405" y="-963" font-family="Helvetica,sans-Serif" font-size="10.00">List&lt; Item &gt;</text>
<polyline fill="none" stroke="#bfbfbf" points="156.905,-956 225.905,-956 "/>
<text text-anchor="middle" x="191.405" y="-944" font-family="Helvetica,sans-Serif" font-size="10.00"> </text>
<polyline fill="none" stroke="#bfbfbf" points="156.905,-937 225.905,-937 "/>
<text text-anchor="middle" x="191.405" y="-925" font-family="Helvetica,sans-Serif" font-size="10.00"> </text>
</g>
<!-- Node5&#45;&gt;Node4 -->
<g id="edge4" class="edge"><title>Node5&#45;&gt;Node4</title>
<path fill="none" stroke="#404040" d="M199.923,-917.708C204.984,-901.22 211.54,-879.912 217.405,-861 220.867,-849.836 224.535,-838.051 228.143,-826.483"/>
<polygon fill="none" stroke="#404040" points="228.146,-826.474 226.115,-819.554 231.721,-815.019 233.752,-821.938 228.146,-826.474"/>
<text text-anchor="middle" x="232.905" y="-864" font-family="Helvetica,sans-Serif" font-size="10.00"> &#45;items</text>
</g>
<!-- Node6 -->
<g id="node5" class="node"><title>Node6</title>
<polygon fill="none" stroke="#bfbfbf" points="368.905,-1072.5 368.905,-1129.5 397.905,-1129.5 397.905,-1072.5 368.905,-1072.5"/>
<text text-anchor="middle" x="383.405" y="-1117.5" font-family="Helvetica,sans-Serif" font-size="10.00">int</text>
<polyline fill="none" stroke="#bfbfbf" points="368.905,-1110.5 397.905,-1110.5 "/>
<text text-anchor="middle" x="383.405" y="-1098.5" font-family="Helvetica,sans-Serif" font-size="10.00"> </text>
<polyline fill="none" stroke="#bfbfbf" points="368.905,-1091.5 397.905,-1091.5 "/>
<text text-anchor="middle" x="383.405" y="-1079.5" font-family="Helvetica,sans-Serif" font-size="10.00"> </text>
</g>
<!-- Node6&#45;&gt;Node4 -->
<g id="edge5" class="edge"><title>Node6&#45;&gt;Node4</title>
<path fill="none" stroke="#404040" d="M368.776,-1092.24C344.173,-1078.24 295.346,-1046.17 276.405,-1003 263.014,-972.485 257.073,-890.091 254.451,-827.347"/>
<polygon fill="none" stroke="#404040" points="254.44,-827.072 250.208,-821.233 253.97,-815.081 258.202,-820.92 254.44,-827.072"/>
<text text-anchor="middle" x="294.405" y="-949.5" font-family="Helvetica,sans-Serif" font-size="10.00"> &#45;money</text>
<text text-anchor="middle" x="294.405" y="-938.5" font-family="Helvetica,sans-Serif" font-size="10.00">&#45;alive</text>
</g>
<!-- Node7 -->
<g id="node6" class="node"><title>Node7</title>
<g id="a_node6"><a xlink:href="class_player.html" target="_top" xlink:title="Defines a playable character for use in battle scenes">
<polygon fill="none" stroke="black" points="505.405,-890.5 505.405,-1002.5 617.405,-1002.5 617.405,-890.5 505.405,-890.5"/>
<text text-anchor="middle" x="561.405" y="-990.5" font-family="Helvetica,sans-Serif" font-size="10.00">Player</text>
<polyline fill="none" stroke="black" points="505.405,-983.5 617.405,-983.5 "/>
<text text-anchor="start" x="513.405" y="-971.5" font-family="Helvetica,sans-Serif" font-size="10.00">+ Exp</text>
<text text-anchor="start" x="513.405" y="-960.5" font-family="Helvetica,sans-Serif" font-size="10.00">+ Item</text>
<text text-anchor="start" x="513.405" y="-949.5" font-family="Helvetica,sans-Serif" font-size="10.00">+ ExpToNextLevel</text>
<polyline fill="none" stroke="black" points="505.405,-942.5 617.405,-942.5 "/>
<text text-anchor="start" x="513.405" y="-930.5" font-family="Helvetica,sans-Serif" font-size="10.00">+ Player()</text>
<text text-anchor="start" x="513.405" y="-919.5" font-family="Helvetica,sans-Serif" font-size="10.00">+ gainExp()</text>
<text text-anchor="start" x="513.405" y="-908.5" font-family="Helvetica,sans-Serif" font-size="10.00">+ levelUp()</text>
<text text-anchor="start" x="513.405" y="-897.5" font-family="Helvetica,sans-Serif" font-size="10.00">&#45; setExpToNextLevel()</text>
</a>
</g>
</g>
<!-- Node6&#45;&gt;Node7 -->
<g id="edge26" class="edge"><title>Node6&#45;&gt;Node7</title>
<path fill="none" stroke="#404040" d="M398.053,-1089.74C413.629,-1078.66 438.808,-1060.28 459.405,-1043 471.549,-1032.81 484.139,-1021.6 496.156,-1010.56"/>
<polygon fill="none" stroke="#404040" points="496.415,-1010.32 498.097,-1003.31 505.217,-1002.16 503.534,-1009.18 496.415,-1010.32"/>
<text text-anchor="middle" x="520.905" y="-1035" font-family="Helvetica,sans-Serif" font-size="10.00"> &#45;expToNextLevel</text>
<text text-anchor="middle" x="520.905" y="-1024" font-family="Helvetica,sans-Serif" font-size="10.00">&#45;exp</text>
</g>
<!-- Node8 -->
<g id="node7" class="node"><title>Node8</title>
<g id="a_node7"><a xlink:href="class_character.html" target="_top" xlink:title="Base abstract class for Enemy and Player to inherit from. Defines all shared variables, their constructor and their setters and getters ">
<polygon fill="none" stroke="black" points="387.905,-95.5 387.905,-262.5 482.905,-262.5 482.905,-95.5 387.905,-95.5"/>
<text text-anchor="middle" x="435.405" y="-250.5" font-family="Helvetica,sans-Serif" font-size="10.00">Character</text>
<polyline fill="none" stroke="black" points="387.905,-243.5 482.905,-243.5 "/>
<text text-anchor="start" x="395.905" y="-231.5" font-family="Helvetica,sans-Serif" font-size="10.00">+ Name</text>
<text text-anchor="start" x="395.905" y="-220.5" font-family="Helvetica,sans-Serif" font-size="10.00">+ Level</text>
<text text-anchor="start" x="395.905" y="-209.5" font-family="Helvetica,sans-Serif" font-size="10.00">+ Health</text>
<text text-anchor="start" x="395.905" y="-198.5" font-family="Helvetica,sans-Serif" font-size="10.00">+ Attack</text>
<text text-anchor="start" x="395.905" y="-187.5" font-family="Helvetica,sans-Serif" font-size="10.00">+ Defence</text>
<text text-anchor="start" x="395.905" y="-176.5" font-family="Helvetica,sans-Serif" font-size="10.00">+ MaximumMagic</text>
<text text-anchor="start" x="395.905" y="-165.5" font-family="Helvetica,sans-Serif" font-size="10.00">+ Magic</text>
<text text-anchor="start" x="395.905" y="-154.5" font-family="Helvetica,sans-Serif" font-size="10.00">+ Luck</text>
<text text-anchor="start" x="395.905" y="-143.5" font-family="Helvetica,sans-Serif" font-size="10.00">+ Speed</text>
<text text-anchor="start" x="395.905" y="-132.5" font-family="Helvetica,sans-Serif" font-size="10.00">+ Special1</text>
<text text-anchor="start" x="395.905" y="-121.5" font-family="Helvetica,sans-Serif" font-size="10.00">+ Special2</text>
<polyline fill="none" stroke="black" points="387.905,-114.5 482.905,-114.5 "/>
<text text-anchor="start" x="395.905" y="-102.5" font-family="Helvetica,sans-Serif" font-size="10.00"># Character()</text>
</a>
</g>
</g>
<!-- Node6&#45;&gt;Node8 -->
<g id="edge9" class="edge"><title>Node6&#45;&gt;Node8</title>
<path fill="none" stroke="#404040" d="M388.25,-1072.29C401.159,-995.981 435.405,-776.181 435.405,-592 435.405,-592 435.405,-592 435.405,-365.5 435.405,-336.053 435.405,-303.976 435.405,-274.905"/>
<polygon fill="none" stroke="#404040" points="435.405,-274.646 431.405,-268.646 435.405,-262.646 439.405,-268.646 435.405,-274.646"/>
<text text-anchor="middle" x="472.905" y="-627" font-family="Helvetica,sans-Serif" font-size="10.00"> #speed</text>
<text text-anchor="middle" x="472.905" y="-616" font-family="Helvetica,sans-Serif" font-size="10.00">#luck</text>
<text text-anchor="middle" x="472.905" y="-605" font-family="Helvetica,sans-Serif" font-size="10.00">#health</text>
<text text-anchor="middle" x="472.905" y="-594" font-family="Helvetica,sans-Serif" font-size="10.00">#magic</text>
<text text-anchor="middle" x="472.905" y="-583" font-family="Helvetica,sans-Serif" font-size="10.00">#maximumMagic</text>
<text text-anchor="middle" x="472.905" y="-572" font-family="Helvetica,sans-Serif" font-size="10.00">#attack</text>
<text text-anchor="middle" x="472.905" y="-561" font-family="Helvetica,sans-Serif" font-size="10.00">#defence</text>
<text text-anchor="middle" x="472.905" y="-550" font-family="Helvetica,sans-Serif" font-size="10.00">#level</text>
</g>
<!-- Node10 -->
<g id="node9" class="node"><title>Node10</title>
<g id="a_node9"><a xlink:href="class_special_move.html" target="_top" xlink:title="Special move abstract base class that expands upon CharacterMove, adding magic properties ...">
<polygon fill="none" stroke="black" points="309.405,-321.5 309.405,-411.5 407.405,-411.5 407.405,-321.5 309.405,-321.5"/>
<text text-anchor="middle" x="358.405" y="-399.5" font-family="Helvetica,sans-Serif" font-size="10.00">SpecialMove</text>
<polyline fill="none" stroke="black" points="309.405,-392.5 407.405,-392.5 "/>
<text text-anchor="start" x="317.405" y="-380.5" font-family="Helvetica,sans-Serif" font-size="10.00">+ Magic</text>
<text text-anchor="start" x="317.405" y="-369.5" font-family="Helvetica,sans-Serif" font-size="10.00">+ Desc</text>
<polyline fill="none" stroke="black" points="309.405,-362.5 407.405,-362.5 "/>
<text text-anchor="start" x="317.405" y="-350.5" font-family="Helvetica,sans-Serif" font-size="10.00">+ setUp()</text>
<text text-anchor="start" x="317.405" y="-339.5" font-family="Helvetica,sans-Serif" font-size="10.00">+ decreaseMagic()</text>
<text text-anchor="start" x="317.405" y="-328.5" font-family="Helvetica,sans-Serif" font-size="10.00"># SpecialMove()</text>
</a>
</g>
</g>
<!-- Node6&#45;&gt;Node10 -->
<g id="edge23" class="edge"><title>Node6&#45;&gt;Node10</title>
<path fill="none" stroke="#404040" d="M382.455,-1072.18C378.768,-964.134 365.353,-571.074 360.325,-423.763"/>
<polygon fill="none" stroke="#404040" points="360.317,-423.516 356.114,-417.656 359.907,-411.523 364.11,-417.383 360.317,-423.516"/>
<text text-anchor="middle" x="392.905" y="-745.5" font-family="Helvetica,sans-Serif" font-size="10.00"> #magic</text>
</g>
<!-- Node12 -->
<g id="node11" class="node"><title>Node12</title>
<g id="a_node11"><a xlink:href="class_battle_manager.html" target="_top" xlink:title="{BattleManager\n|+ Player\l+ Enemy\l+ WasCriticalHit\l|+ BattleManager()\l+ playerFirst()\l+ switchPlayers()\l+ isCriticalHit()\l+ ranAway()\l+ damageCalculation()\l+ enemyMove()\l+ enemySpecialMove()\l+ battleWon()\l+ playerFainted()\l&#45; characterFainted()\l}">
<polygon fill="none" stroke="black" points="653.405,-653.5 653.405,-842.5 769.405,-842.5 769.405,-653.5 653.405,-653.5"/>
<text text-anchor="middle" x="711.405" y="-830.5" font-family="Helvetica,sans-Serif" font-size="10.00">BattleManager</text>
<polyline fill="none" stroke="black" points="653.405,-823.5 769.405,-823.5 "/>
<text text-anchor="start" x="661.405" y="-811.5" font-family="Helvetica,sans-Serif" font-size="10.00">+ Player</text>
<text text-anchor="start" x="661.405" y="-800.5" font-family="Helvetica,sans-Serif" font-size="10.00">+ Enemy</text>
<text text-anchor="start" x="661.405" y="-789.5" font-family="Helvetica,sans-Serif" font-size="10.00">+ WasCriticalHit</text>
<polyline fill="none" stroke="black" points="653.405,-782.5 769.405,-782.5 "/>
<text text-anchor="start" x="661.405" y="-770.5" font-family="Helvetica,sans-Serif" font-size="10.00">+ BattleManager()</text>
<text text-anchor="start" x="661.405" y="-759.5" font-family="Helvetica,sans-Serif" font-size="10.00">+ playerFirst()</text>
<text text-anchor="start" x="661.405" y="-748.5" font-family="Helvetica,sans-Serif" font-size="10.00">+ switchPlayers()</text>
<text text-anchor="start" x="661.405" y="-737.5" font-family="Helvetica,sans-Serif" font-size="10.00">+ isCriticalHit()</text>
<text text-anchor="start" x="661.405" y="-726.5" font-family="Helvetica,sans-Serif" font-size="10.00">+ ranAway()</text>
<text text-anchor="start" x="661.405" y="-715.5" font-family="Helvetica,sans-Serif" font-size="10.00">+ damageCalculation()</text>
<text text-anchor="start" x="661.405" y="-704.5" font-family="Helvetica,sans-Serif" font-size="10.00">+ enemyMove()</text>
<text text-anchor="start" x="661.405" y="-693.5" font-family="Helvetica,sans-Serif" font-size="10.00">+ enemySpecialMove()</text>
<text text-anchor="start" x="661.405" y="-682.5" font-family="Helvetica,sans-Serif" font-size="10.00">+ battleWon()</text>
<text text-anchor="start" x="661.405" y="-671.5" font-family="Helvetica,sans-Serif" font-size="10.00">+ playerFainted()</text>
<text text-anchor="start" x="661.405" y="-660.5" font-family="Helvetica,sans-Serif" font-size="10.00">&#45; characterFainted()</text>
</a>
</g>
</g>
<!-- Node6&#45;&gt;Node12 -->
<g id="edge19" class="edge"><title>Node6&#45;&gt;Node12</title>
<path fill="none" stroke="#404040" d="M398.069,-1077.99C404.414,-1067.7 411.495,-1055.08 416.405,-1043 447.83,-965.712 408.794,-924.929 462.405,-861 507.901,-806.747 585.08,-777.674 641.478,-762.868"/>
<polygon fill="none" stroke="#404040" points="641.542,-762.852 646.383,-757.508 653.179,-759.921 648.337,-765.266 641.542,-762.852"/>
<text text-anchor="middle" x="462.905" y="-944" font-family="Helvetica,sans-Serif" font-size="10.00"> +money</text>
</g>
<!-- Node13 -->
<g id="node12" class="node"><title>Node13</title>
<g id="a_node12"><a xlink:href="class_enemy.html" target="_top" xlink:title="Defines an AI controller enemy to fight in battle scenes">
<polygon fill="none" stroke="black" points="401.905,-0.5 401.905,-57.5 468.905,-57.5 468.905,-0.5 401.905,-0.5"/>
<text text-anchor="middle" x="435.405" y="-45.5" font-family="Helvetica,sans-Serif" font-size="10.00">Enemy</text>
<polyline fill="none" stroke="black" points="401.905,-38.5 468.905,-38.5 "/>
<text text-anchor="start" x="409.905" y="-26.5" font-family="Helvetica,sans-Serif" font-size="10.00">+ ExpGiven</text>
<polyline fill="none" stroke="black" points="401.905,-19.5 468.905,-19.5 "/>
<text text-anchor="start" x="409.905" y="-7.5" font-family="Helvetica,sans-Serif" font-size="10.00">+ Enemy()</text>
</a>
</g>
</g>
<!-- Node6&#45;&gt;Node13 -->
<g id="edge18" class="edge"><title>Node6&#45;&gt;Node13</title>
<path fill="none" stroke="#404040" d="M378.444,-1072.37C357.102,-951.744 275.293,-470.728 300.405,-321 317.98,-216.205 325.043,-186.888 378.405,-95 384.106,-85.1824 391.414,-75.4918 398.883,-66.7101"/>
<polygon fill="none" stroke="#404040" points="399.02,-66.5547 400.007,-59.4114 406.98,-57.5749 405.994,-64.7182 399.02,-66.5547"/>
<text text-anchor="middle" x="325.405" y="-486.5" font-family="Helvetica,sans-Serif" font-size="10.00"> &#45;expGiven</text>
</g>
<!-- Node7&#45;&gt;Node4 -->
<g id="edge6" class="edge"><title>Node7&#45;&gt;Node4</title>
<path fill="none" stroke="#404040" d="M505.243,-898.339C500.683,-895.332 496.042,-892.51 491.405,-890 433.31,-858.559 406.954,-877.141 350.405,-843 335.318,-833.892 320.687,-822.088 307.531,-809.94"/>
<polygon fill="none" stroke="#404040" points="307.361,-809.779 300.258,-808.538 298.671,-801.504 305.774,-802.744 307.361,-809.779"/>
<text text-anchor="middle" x="462.405" y="-864" font-family="Helvetica,sans-Serif" font-size="10.00"> &#45;players</text>
</g>
<!-- Node7&#45;&gt;Node12 -->
<g id="edge21" class="edge"><title>Node7&#45;&gt;Node12</title>
<path fill="none" stroke="#404040" d="M603.587,-890.241C616.722,-873.034 631.529,-853.637 645.868,-834.853"/>
<polygon fill="none" stroke="#404040" points="646.031,-834.64 646.492,-827.444 653.312,-825.102 652.851,-832.298 646.031,-834.64"/>
<text text-anchor="middle" x="639.905" y="-864" font-family="Helvetica,sans-Serif" font-size="10.00"> &#45;player</text>
</g>
<!-- Node8&#45;&gt;Node7 -->
<g id="edge7" class="edge"><title>Node8&#45;&gt;Node7</title>
<path fill="none" stroke="midnightblue" d="M489.418,-238.466C515.576,-272.829 541.405,-318.627 541.405,-365.5 541.405,-749 541.405,-749 541.405,-749 541.405,-796.836 547.344,-850.887 552.749,-890.175"/>
<polygon fill="none" stroke="midnightblue" points="492.05,-236.15 483.133,-230.428 486.535,-240.462 492.05,-236.15"/>
</g>
<!-- Node11 -->
<g id="node10" class="node"><title>Node11</title>
<g id="a_node10"><a xlink:href="class_character_move.html" target="_top" xlink:title="Astract base class for character moves ">
<polygon fill="none" stroke="black" points="573.405,-449.5 573.405,-528.5 659.405,-528.5 659.405,-449.5 573.405,-449.5"/>
<text text-anchor="middle" x="616.405" y="-516.5" font-family="Helvetica,sans-Serif" font-size="10.00">CharacterMove</text>
<polyline fill="none" stroke="black" points="573.405,-509.5 659.405,-509.5 "/>
<text text-anchor="start" x="581.405" y="-497.5" font-family="Helvetica,sans-Serif" font-size="10.00">+ User</text>
<text text-anchor="start" x="581.405" y="-486.5" font-family="Helvetica,sans-Serif" font-size="10.00">+ Target</text>
<text text-anchor="start" x="581.405" y="-475.5" font-family="Helvetica,sans-Serif" font-size="10.00">+ Text</text>
<polyline fill="none" stroke="black" points="573.405,-468.5 659.405,-468.5 "/>
<text text-anchor="start" x="581.405" y="-456.5" font-family="Helvetica,sans-Serif" font-size="10.00">+ performMove()</text>
</a>
</g>
</g>
<!-- Node8&#45;&gt;Node11 -->
<g id="edge13" class="edge"><title>Node8&#45;&gt;Node11</title>
<path fill="none" stroke="#404040" d="M483.184,-210.107C507.969,-227.957 536.858,-252.621 555.405,-281 586.692,-328.873 602.356,-393.254 609.904,-437.434"/>
<polygon fill="none" stroke="#404040" points="609.912,-437.483 614.817,-442.769 611.824,-449.329 606.919,-444.044 609.912,-437.483"/>
<text text-anchor="middle" x="622.405" y="-369.5" font-family="Helvetica,sans-Serif" font-size="10.00"> #target</text>
<text text-anchor="middle" x="622.405" y="-358.5" font-family="Helvetica,sans-Serif" font-size="10.00">#user</text>
</g>
<!-- Node8&#45;&gt;Node13 -->
<g id="edge17" class="edge"><title>Node8&#45;&gt;Node13</title>
<path fill="none" stroke="midnightblue" d="M435.405,-85.2199C435.405,-75.2276 435.405,-65.7244 435.405,-57.507"/>
<polygon fill="none" stroke="midnightblue" points="431.905,-85.3457 435.405,-95.3458 438.905,-85.3458 431.905,-85.3457"/>
</g>
<!-- Node9 -->
<g id="node8" class="node"><title>Node9</title>
<polygon fill="none" stroke="#bfbfbf" points="558.905,-1199.5 558.905,-1256.5 599.905,-1256.5 599.905,-1199.5 558.905,-1199.5"/>
<text text-anchor="middle" x="579.405" y="-1244.5" font-family="Helvetica,sans-Serif" font-size="10.00">string</text>
<polyline fill="none" stroke="#bfbfbf" points="558.905,-1237.5 599.905,-1237.5 "/>
<text text-anchor="middle" x="579.405" y="-1225.5" font-family="Helvetica,sans-Serif" font-size="10.00"> </text>
<polyline fill="none" stroke="#bfbfbf" points="558.905,-1218.5 599.905,-1218.5 "/>
<text text-anchor="middle" x="579.405" y="-1206.5" font-family="Helvetica,sans-Serif" font-size="10.00"> </text>
</g>
<!-- Node9&#45;&gt;Node8 -->
<g id="edge8" class="edge"><title>Node9&#45;&gt;Node8</title>
<path fill="none" stroke="#404040" d="M558.663,-1226.93C456.91,-1226.03 15.4047,-1215.58 15.4047,-1102 15.4047,-1102 15.4047,-1102 15.4047,-865.5 15.4047,-679.214 -40.5915,-604.223 62.4047,-449 148.517,-319.222 239.726,-362.674 359.405,-263 366.01,-257.498 372.591,-251.436 378.959,-245.168"/>
<polygon fill="none" stroke="#404040" points="379.061,-245.065 380.432,-237.985 387.494,-236.527 386.123,-243.607 379.061,-245.065"/>
<text text-anchor="middle" x="31.9047" y="-745.5" font-family="Helvetica,sans-Serif" font-size="10.00"> #name</text>
</g>
<!-- Node9&#45;&gt;Node10 -->
<g id="edge22" class="edge"><title>Node9&#45;&gt;Node10</title>
<path fill="none" stroke="#404040" d="M558.749,-1226.39C464.097,-1223.03 76.4047,-1203.12 76.4047,-1102 76.4047,-1102 76.4047,-1102 76.4047,-488 76.4047,-392.697 214.282,-371.756 297.22,-367.781"/>
<polygon fill="none" stroke="#404040" points="297.293,-367.778 303.13,-363.544 309.284,-367.303 303.447,-371.537 297.293,-367.778"/>
<text text-anchor="middle" x="91.4047" y="-864" font-family="Helvetica,sans-Serif" font-size="10.00"> #desc</text>
</g>
<!-- Node9&#45;&gt;Node11 -->
<g id="edge12" class="edge"><title>Node9&#45;&gt;Node11</title>
<path fill="none" stroke="#404040" d="M600.009,-1202.17C604.85,-1195.56 609.678,-1188.24 613.405,-1181 621.96,-1164.38 623.137,-1159.41 626.405,-1141 648.171,-1018.39 639.758,-985.479 636.405,-861 633.321,-746.492 624.891,-612.32 620.016,-540.869"/>
<polygon fill="none" stroke="#404040" points="620.003,-540.667 615.6,-534.956 619.179,-528.695 623.581,-534.406 620.003,-540.667"/>
<text text-anchor="middle" x="653.905" y="-944" font-family="Helvetica,sans-Serif" font-size="10.00"> #text</text>
</g>
<!-- Node9&#45;&gt;Node12 -->
<g id="edge15" class="edge"><title>Node9&#45;&gt;Node12</title>
<path fill="none" stroke="#404040" d="M600.152,-1220.79C619.835,-1213.93 649.055,-1201.13 667.405,-1181 765.71,-1073.16 757.874,-1016.47 778.405,-872 780.278,-858.821 778.286,-845.654 773.997,-833.096"/>
<polygon fill="none" stroke="#404040" points="773.915,-832.893 767.972,-828.809 769.457,-821.752 775.4,-825.837 773.915,-832.893"/>
<text text-anchor="middle" x="796.405" y="-1029.5" font-family="Helvetica,sans-Serif" font-size="10.00"> +forceCriticalHits</text>
</g>
<!-- Node15 -->
<g id="node14" class="node"><title>Node15</title>
<g id="a_node14"><a xlink:href="class_item.html" target="_top" xlink:title="{Item\n|+ Name\l+ Desc\l|+ applyBuffs()\l+ revertBuffs()\l}">
<polygon fill="none" stroke="black" points="540.905,-1061.5 540.905,-1140.5 617.905,-1140.5 617.905,-1061.5 540.905,-1061.5"/>
<text text-anchor="middle" x="579.405" y="-1128.5" font-family="Helvetica,sans-Serif" font-size="10.00">Item</text>
<polyline fill="none" stroke="black" points="540.905,-1121.5 617.905,-1121.5 "/>
<text text-anchor="start" x="548.905" y="-1109.5" font-family="Helvetica,sans-Serif" font-size="10.00">+ Name</text>
<text text-anchor="start" x="548.905" y="-1098.5" font-family="Helvetica,sans-Serif" font-size="10.00">+ Desc</text>
<polyline fill="none" stroke="black" points="540.905,-1091.5 617.905,-1091.5 "/>
<text text-anchor="start" x="548.905" y="-1079.5" font-family="Helvetica,sans-Serif" font-size="10.00">+ applyBuffs()</text>
<text text-anchor="start" x="548.905" y="-1068.5" font-family="Helvetica,sans-Serif" font-size="10.00">+ revertBuffs()</text>
</a>
</g>
</g>
<!-- Node9&#45;&gt;Node15 -->
<g id="edge25" class="edge"><title>Node9&#45;&gt;Node15</title>
<path fill="none" stroke="#404040" d="M579.405,-1199.26C579.405,-1185.64 579.405,-1168.79 579.405,-1152.96"/>
<polygon fill="none" stroke="#404040" points="579.405,-1152.57 575.405,-1146.57 579.405,-1140.57 583.405,-1146.57 579.405,-1152.57"/>
<text text-anchor="middle" x="594.405" y="-1173" font-family="Helvetica,sans-Serif" font-size="10.00"> #desc</text>
<text text-anchor="middle" x="594.405" y="-1162" font-family="Helvetica,sans-Serif" font-size="10.00">#name</text>
</g>
<!-- Node10&#45;&gt;Node8 -->
<g id="edge10" class="edge"><title>Node10&#45;&gt;Node8</title>
<path fill="none" stroke="#404040" d="M365.058,-321.305C367.779,-308.086 371.478,-293.729 376.405,-281 378.239,-276.26 380.28,-271.48 382.467,-266.716"/>
<polygon fill="none" stroke="#404040" points="382.593,-266.454 381.601,-259.312 387.812,-255.649 388.805,-262.791 382.593,-266.454"/>
<text text-anchor="middle" x="398.905" y="-295" font-family="Helvetica,sans-Serif" font-size="10.00"> #special1</text>
<text text-anchor="middle" x="398.905" y="-284" font-family="Helvetica,sans-Serif" font-size="10.00">#special2</text>
</g>
<!-- Node11&#45;&gt;Node10 -->
<g id="edge11" class="edge"><title>Node11&#45;&gt;Node10</title>
<path fill="none" stroke="midnightblue" d="M564.058,-463.551C518.264,-442.163 452.247,-411.33 407.458,-390.41"/>
<polygon fill="none" stroke="midnightblue" points="562.68,-466.77 573.221,-467.831 565.642,-460.428 562.68,-466.77"/>
</g>
<!-- Node12&#45;&gt;Node11 -->
<g id="edge14" class="edge"><title>Node12&#45;&gt;Node11</title>
<path fill="none" stroke="#404040" d="M666.467,-653.404C663.961,-647.224 661.581,-641.052 659.405,-635 645.727,-596.959 648.218,-585.66 636.405,-547 635.727,-544.781 635.016,-542.52 634.285,-540.24"/>
<polygon fill="none" stroke="#404040" points="634.269,-540.192 628.585,-535.754 630.495,-528.8 636.179,-533.238 634.269,-540.192"/>
<text text-anchor="middle" x="682.405" y="-588.5" font-family="Helvetica,sans-Serif" font-size="10.00"> #manager</text>
</g>
<!-- Node13&#45;&gt;Node12 -->
<g id="edge16" class="edge"><title>Node13&#45;&gt;Node12</title>
<path fill="none" stroke="#404040" d="M469.099,-32.0838C544.327,-38.7431 719.405,-66.2461 719.405,-178 719.405,-490 719.405,-490 719.405,-490 719.405,-539.686 717.892,-594.748 716.183,-641.12"/>
<polygon fill="none" stroke="#404040" points="716.175,-641.342 719.945,-647.489 715.721,-653.333 711.951,-647.186 716.175,-641.342"/>
<text text-anchor="middle" x="737.405" y="-364" font-family="Helvetica,sans-Serif" font-size="10.00"> &#45;enemy</text>
</g>
<!-- Node14 -->
<g id="node13" class="node"><title>Node14</title>
<polygon fill="none" stroke="#bfbfbf" points="696.905,-918 696.905,-975 731.905,-975 731.905,-918 696.905,-918"/>
<text text-anchor="middle" x="714.405" y="-963" font-family="Helvetica,sans-Serif" font-size="10.00">bool</text>
<polyline fill="none" stroke="#bfbfbf" points="696.905,-956 731.905,-956 "/>
<text text-anchor="middle" x="714.405" y="-944" font-family="Helvetica,sans-Serif" font-size="10.00"> </text>
<polyline fill="none" stroke="#bfbfbf" points="696.905,-937 731.905,-937 "/>
<text text-anchor="middle" x="714.405" y="-925" font-family="Helvetica,sans-Serif" font-size="10.00"> </text>
</g>
<!-- Node14&#45;&gt;Node12 -->
<g id="edge20" class="edge"><title>Node14&#45;&gt;Node12</title>
<path fill="none" stroke="#404040" d="M713.53,-917.93C713.124,-904.138 712.673,-887.188 712.405,-872 712.305,-866.359 712.215,-860.571 712.134,-854.729"/>
<polygon fill="none" stroke="#404040" points="712.134,-854.685 708.058,-848.737 711.981,-842.686 716.057,-848.635 712.134,-854.685"/>
<text text-anchor="middle" x="745.405" y="-864" font-family="Helvetica,sans-Serif" font-size="10.00"> &#45;wasCriticalHit</text>
</g>
<!-- Node15&#45;&gt;Node7 -->
<g id="edge24" class="edge"><title>Node15&#45;&gt;Node7</title>
<path fill="none" stroke="#404040" d="M574.816,-1061.12C573.148,-1046.99 571.211,-1030.58 569.336,-1014.7"/>
<polygon fill="none" stroke="#404040" points="569.327,-1014.62 564.652,-1009.13 567.921,-1002.71 572.597,-1008.19 569.327,-1014.62"/>
<text text-anchor="middle" x="585.905" y="-1029.5" font-family="Helvetica,sans-Serif" font-size="10.00"> &#45;item</text>
</g>
</g>
</svg>
        <g id="navigator" transform="translate(0 0)" fill="#404254">
                <rect fill="#f2f5e9" fill-opacity="0.5" stroke="#606060" stroke-width=".5" x="0" y="0" width="60" height="60"/>
                <use id="zoomplus" xlink:href="#zoomPlus" x="17" y="9" onmousedown="handleZoom(evt,'in')"/>
                <use id="zoomminus" xlink:href="#zoomMin" x="42" y="9" onmousedown="handleZoom(evt,'out')"/>
                <use id="reset" xlink:href="#resetDef" x="30" y="36" onmousedown="handleReset()"/>
                <g id="arrowUp" xlink:href="#dirArrow" transform="translate(30 24)" onmousedown="handlePan(0,-1)">
                  <use xlink:href="#rim" fill="#404040">
                        <set attributeName="fill" to="#808080" begin="arrowUp.mouseover" end="arrowUp.mouseout"/>
                  </use>
                  <path fill="none" stroke="white" stroke-width="1.5" d="M0,-3.0v7 M-2.5,-0.5L0,-3.0L2.5,-0.5"/>
                </g>
                <g id="arrowRight" xlink:href="#dirArrow" transform="rotate(90) translate(36 -43)" onmousedown="handlePan(1,0)">
                  <use xlink:href="#rim" fill="#404040">
                        <set attributeName="fill" to="#808080" begin="arrowRight.mouseover" end="arrowRight.mouseout"/>
                  </use>
                  <path fill="none" stroke="white" stroke-width="1.5" d="M0,-3.0v7 M-2.5,-0.5L0,-3.0L2.5,-0.5"/>
                </g>
                <g id="arrowDown" xlink:href="#dirArrow" transform="rotate(180) translate(-30 -48)" onmousedown="handlePan(0,1)">
                  <use xlink:href="#rim" fill="#404040">
                        <set attributeName="fill" to="#808080" begin="arrowDown.mouseover" end="arrowDown.mouseout"/>
                  </use>
                  <path fill="none" stroke="white" stroke-width="1.5" d="M0,-3.0v7 M-2.5,-0.5L0,-3.0L2.5,-0.5"/>
                </g>
                <g id="arrowLeft" xlink:href="#dirArrow" transform="rotate(270) translate(-36 17)" onmousedown="handlePan(-1,0)">
                  <use xlink:href="#rim" fill="#404040">
                        <set attributeName="fill" to="#808080" begin="arrowLeft.mouseover" end="arrowLeft.mouseout"/>
                  </use>
                  <path fill="none" stroke="white" stroke-width="1.5" d="M0,-3.0v7 M-2.5,-0.5L0,-3.0L2.5,-0.5"/>
                </g>
        </g>
        <svg viewBox="0 0 15 15" width="100%" height="30px" preserveAspectRatio="xMaxYMin meet">
         <g id="arrow_out" transform="scale(0.3 0.3)">
          <a xlink:href="class_player_data__coll__graph_org.svg" target="_base">
           <rect id="button" ry="5" rx="5" y="6" x="6" height="38" width="38"
                fill="#f2f5e9" fill-opacity="0.5" stroke="#606060" stroke-width="1.0"/>
           <path id="arrow"
             d="M 11.500037,31.436501 C 11.940474,20.09759 22.043105,11.32322 32.158766,21.979434 L 37.068811,17.246167 C 37.068811,17.246167 37.088388,32 37.088388,32 L 22.160133,31.978069 C 22.160133,31.978069 26.997745,27.140456 26.997745,27.140456 C 18.528582,18.264221 13.291696,25.230495 11.500037,31.436501 z"
             style="fill:#404040;"/>
          </a>
         </g>
        </svg>
</svg>
