<?xml version="1.0" encoding="UTF-8" standalone="no"?>
<!DOCTYPE svg PUBLIC "-//W3C//DTD SVG 1.1//EN"
 "http://www.w3.org/Graphics/SVG/1.1/DTD/svg11.dtd">
<!-- Generated by graphviz version 2.38.0 (20140413.2041)
 -->
<!-- Title: Character Pages: 1 -->
<svg width="622pt" height="1021pt"
 viewBox="0.00 0.00 622.00 1021.00" xmlns="http://www.w3.org/2000/svg" xmlns:xlink="http://www.w3.org/1999/xlink">
<g id="graph0" class="graph" transform="scale(1 1) rotate(0) translate(4 1017)">
<title>Character</title>
<!-- Node3 -->
<g id="node1" class="node"><title>Node3</title>
<polygon fill="#bfbfbf" stroke="black" points="319.5,-663.5 319.5,-830.5 414.5,-830.5 414.5,-663.5 319.5,-663.5"/>
<text text-anchor="middle" x="367" y="-818.5" font-family="Helvetica,sans-Serif" font-size="10.00">Character</text>
<polyline fill="none" stroke="black" points="319.5,-811.5 414.5,-811.5 "/>
<text text-anchor="start" x="327.5" y="-799.5" font-family="Helvetica,sans-Serif" font-size="10.00">+ Name</text>
<text text-anchor="start" x="327.5" y="-788.5" font-family="Helvetica,sans-Serif" font-size="10.00">+ Level</text>
<text text-anchor="start" x="327.5" y="-777.5" font-family="Helvetica,sans-Serif" font-size="10.00">+ Health</text>
<text text-anchor="start" x="327.5" y="-766.5" font-family="Helvetica,sans-Serif" font-size="10.00">+ Attack</text>
<text text-anchor="start" x="327.5" y="-755.5" font-family="Helvetica,sans-Serif" font-size="10.00">+ Defence</text>
<text text-anchor="start" x="327.5" y="-744.5" font-family="Helvetica,sans-Serif" font-size="10.00">+ MaximumMagic</text>
<text text-anchor="start" x="327.5" y="-733.5" font-family="Helvetica,sans-Serif" font-size="10.00">+ Magic</text>
<text text-anchor="start" x="327.5" y="-722.5" font-family="Helvetica,sans-Serif" font-size="10.00">+ Luck</text>
<text text-anchor="start" x="327.5" y="-711.5" font-family="Helvetica,sans-Serif" font-size="10.00">+ Speed</text>
<text text-anchor="start" x="327.5" y="-700.5" font-family="Helvetica,sans-Serif" font-size="10.00">+ Special1</text>
<text text-anchor="start" x="327.5" y="-689.5" font-family="Helvetica,sans-Serif" font-size="10.00">+ Special2</text>
<polyline fill="none" stroke="black" points="319.5,-682.5 414.5,-682.5 "/>
<text text-anchor="start" x="327.5" y="-670.5" font-family="Helvetica,sans-Serif" font-size="10.00"># Character()</text>
</g>
<!-- Node7 -->
<g id="node5" class="node"><title>Node7</title>
<g id="a_node5"><a xlink:href="class_character_move.html" target="_top" xlink:title="Astract base class for character moves ">
<polygon fill="none" stroke="black" points="331,-128.5 331,-207.5 417,-207.5 417,-128.5 331,-128.5"/>
<text text-anchor="middle" x="374" y="-195.5" font-family="Helvetica,sans-Serif" font-size="10.00">CharacterMove</text>
<polyline fill="none" stroke="black" points="331,-188.5 417,-188.5 "/>
<text text-anchor="start" x="339" y="-176.5" font-family="Helvetica,sans-Serif" font-size="10.00">+ User</text>
<text text-anchor="start" x="339" y="-165.5" font-family="Helvetica,sans-Serif" font-size="10.00">+ Target</text>
<text text-anchor="start" x="339" y="-154.5" font-family="Helvetica,sans-Serif" font-size="10.00">+ Text</text>
<polyline fill="none" stroke="black" points="331,-147.5 417,-147.5 "/>
<text text-anchor="start" x="339" y="-135.5" font-family="Helvetica,sans-Serif" font-size="10.00">+ performMove()</text>
</a>
</g>
</g>
<!-- Node3&#45;&gt;Node7 -->
<g id="edge6" class="edge"><title>Node3&#45;&gt;Node7</title>
<path fill="none" stroke="#404040" d="M397.936,-663.371C402.532,-647.838 406.546,-631.58 409,-616 420.028,-545.997 425.977,-306.051 405,-226 404.364,-223.574 403.605,-221.138 402.747,-218.714"/>
<polygon fill="none" stroke="#404040" points="402.705,-218.612 396.717,-214.594 398.123,-207.521 404.111,-211.539 402.705,-218.612"/>
<text text-anchor="middle" x="436" y="-477" font-family="Helvetica,sans-Serif" font-size="10.00"> #target</text>
<text text-anchor="middle" x="436" y="-466" font-family="Helvetica,sans-Serif" font-size="10.00">#user</text>
</g>
<!-- Node9 -->
<g id="node7" class="node"><title>Node9</title>
<g id="a_node7"><a xlink:href="class_enemy.html" target="_top" xlink:title="Defines an AI controller enemy to fight in battle scenes">
<polygon fill="none" stroke="black" points="333.5,-531 333.5,-588 400.5,-588 400.5,-531 333.5,-531"/>
<text text-anchor="middle" x="367" y="-576" font-family="Helvetica,sans-Serif" font-size="10.00">Enemy</text>
<polyline fill="none" stroke="black" points="333.5,-569 400.5,-569 "/>
<text text-anchor="start" x="341.5" y="-557" font-family="Helvetica,sans-Serif" font-size="10.00">+ ExpGiven</text>
<polyline fill="none" stroke="black" points="333.5,-550 400.5,-550 "/>
<text text-anchor="start" x="341.5" y="-538" font-family="Helvetica,sans-Serif" font-size="10.00">+ Enemy()</text>
</a>
</g>
</g>
<!-- Node3&#45;&gt;Node9 -->
<g id="edge10" class="edge"><title>Node3&#45;&gt;Node9</title>
<path fill="none" stroke="midnightblue" d="M367,-653.106C367,-629.311 367,-605.529 367,-588.024"/>
<polygon fill="none" stroke="midnightblue" points="363.5,-653.286 367,-663.286 370.5,-653.286 363.5,-653.286"/>
</g>
<!-- Node11 -->
<g id="node9" class="node"><title>Node11</title>
<g id="a_node9"><a xlink:href="class_player.html" target="_top" xlink:title="Defines a playable character for use in battle scenes">
<polygon fill="none" stroke="black" points="203,-503.5 203,-615.5 315,-615.5 315,-503.5 203,-503.5"/>
<text text-anchor="middle" x="259" y="-603.5" font-family="Helvetica,sans-Serif" font-size="10.00">Player</text>
<polyline fill="none" stroke="black" points="203,-596.5 315,-596.5 "/>
<text text-anchor="start" x="211" y="-584.5" font-family="Helvetica,sans-Serif" font-size="10.00">+ Exp</text>
<text text-anchor="start" x="211" y="-573.5" font-family="Helvetica,sans-Serif" font-size="10.00">+ Item</text>
<text text-anchor="start" x="211" y="-562.5" font-family="Helvetica,sans-Serif" font-size="10.00">+ ExpToNextLevel</text>
<polyline fill="none" stroke="black" points="203,-555.5 315,-555.5 "/>
<text text-anchor="start" x="211" y="-543.5" font-family="Helvetica,sans-Serif" font-size="10.00">+ Player()</text>
<text text-anchor="start" x="211" y="-532.5" font-family="Helvetica,sans-Serif" font-size="10.00">+ gainExp()</text>
<text text-anchor="start" x="211" y="-521.5" font-family="Helvetica,sans-Serif" font-size="10.00">+ levelUp()</text>
<text text-anchor="start" x="211" y="-510.5" font-family="Helvetica,sans-Serif" font-size="10.00">&#45; setExpToNextLevel()</text>
</a>
</g>
</g>
<!-- Node3&#45;&gt;Node11 -->
<g id="edge15" class="edge"><title>Node3&#45;&gt;Node11</title>
<path fill="none" stroke="midnightblue" d="M314.267,-655.426C306.326,-641.786 298.348,-628.084 291.022,-615.5"/>
<polygon fill="none" stroke="midnightblue" points="311.416,-657.486 319.472,-664.367 317.466,-653.964 311.416,-657.486"/>
</g>
<!-- Node4 -->
<g id="node2" class="node"><title>Node4</title>
<polygon fill="none" stroke="#bfbfbf" points="63.5,-955.5 63.5,-1012.5 104.5,-1012.5 104.5,-955.5 63.5,-955.5"/>
<text text-anchor="middle" x="84" y="-1000.5" font-family="Helvetica,sans-Serif" font-size="10.00">string</text>
<polyline fill="none" stroke="#bfbfbf" points="63.5,-993.5 104.5,-993.5 "/>
<text text-anchor="middle" x="84" y="-981.5" font-family="Helvetica,sans-Serif" font-size="10.00"> </text>
<polyline fill="none" stroke="#bfbfbf" points="63.5,-974.5 104.5,-974.5 "/>
<text text-anchor="middle" x="84" y="-962.5" font-family="Helvetica,sans-Serif" font-size="10.00"> </text>
</g>
<!-- Node4&#45;&gt;Node3 -->
<g id="edge1" class="edge"><title>Node4&#45;&gt;Node3</title>
<path fill="none" stroke="#404040" d="M104.635,-972.067C145.916,-949.534 240.253,-894.667 305,-831 306.98,-829.053 308.946,-827.039 310.894,-824.974"/>
<polygon fill="none" stroke="#404040" points="311.271,-824.555 312.308,-817.418 319.295,-815.632 318.257,-822.768 311.271,-824.555"/>
<text text-anchor="middle" x="300.5" y="-890.5" font-family="Helvetica,sans-Serif" font-size="10.00"> #name</text>
</g>
<!-- Node6 -->
<g id="node4" class="node"><title>Node6</title>
<g id="a_node4"><a xlink:href="class_special_move.html" target="_top" xlink:title="Special move abstract base class that expands upon CharacterMove, adding magic properties ...">
<polygon fill="none" stroke="black" points="396,-0.5 396,-90.5 494,-90.5 494,-0.5 396,-0.5"/>
<text text-anchor="middle" x="445" y="-78.5" font-family="Helvetica,sans-Serif" font-size="10.00">SpecialMove</text>
<polyline fill="none" stroke="black" points="396,-71.5 494,-71.5 "/>
<text text-anchor="start" x="404" y="-59.5" font-family="Helvetica,sans-Serif" font-size="10.00">+ Magic</text>
<text text-anchor="start" x="404" y="-48.5" font-family="Helvetica,sans-Serif" font-size="10.00">+ Desc</text>
<polyline fill="none" stroke="black" points="396,-41.5 494,-41.5 "/>
<text text-anchor="start" x="404" y="-29.5" font-family="Helvetica,sans-Serif" font-size="10.00">+ setUp()</text>
<text text-anchor="start" x="404" y="-18.5" font-family="Helvetica,sans-Serif" font-size="10.00">+ decreaseMagic()</text>
<text text-anchor="start" x="404" y="-7.5" font-family="Helvetica,sans-Serif" font-size="10.00"># SpecialMove()</text>
</a>
</g>
</g>
<!-- Node4&#45;&gt;Node6 -->
<g id="edge19" class="edge"><title>Node4&#45;&gt;Node6</title>
<path fill="none" stroke="#404040" d="M63.2449,-961.973C56.9133,-954.582 50.4556,-945.89 46,-937 7.26415,-859.712 0,-834.452 0,-748 0,-748 0,-748 0,-167 0,-88.4575 261.543,-59.5204 383.61,-50.292"/>
<polygon fill="none" stroke="#404040" points="383.709,-50.2849 389.401,-45.8579 395.677,-49.4097 389.985,-53.8366 383.709,-50.2849"/>
<text text-anchor="middle" x="15" y="-471.5" font-family="Helvetica,sans-Serif" font-size="10.00"> #desc</text>
</g>
<!-- Node4&#45;&gt;Node7 -->
<g id="edge5" class="edge"><title>Node4&#45;&gt;Node7</title>
<path fill="none" stroke="#404040" d="M71.7379,-955.166C69.5268,-949.262 67.463,-942.999 66,-937 45.9865,-854.936 46,-832.469 46,-748 46,-748 46,-748 46,-349 46,-226.07 225.258,-186.523 318.735,-174.258"/>
<polygon fill="none" stroke="#404040" points="318.873,-174.241 324.336,-169.534 330.782,-172.766 325.32,-177.473 318.873,-174.241"/>
<text text-anchor="middle" x="58.5" y="-557" font-family="Helvetica,sans-Serif" font-size="10.00"> #text</text>
</g>
<!-- Node8 -->
<g id="node6" class="node"><title>Node8</title>
<g id="a_node6"><a xlink:href="class_battle_manager.html" target="_top" xlink:title="{BattleManager\n|+ Player\l+ Enemy\l+ WasCriticalHit\l|+ BattleManager()\l+ playerFirst()\l+ switchPlayers()\l+ isCriticalHit()\l+ ranAway()\l+ damageCalculation()\l+ enemyMove()\l+ enemySpecialMove()\l+ battleWon()\l+ playerFainted()\l&#45; characterFainted()\l}">
<polygon fill="none" stroke="black" points="256,-255.5 256,-444.5 372,-444.5 372,-255.5 256,-255.5"/>
<text text-anchor="middle" x="314" y="-432.5" font-family="Helvetica,sans-Serif" font-size="10.00">BattleManager</text>
<polyline fill="none" stroke="black" points="256,-425.5 372,-425.5 "/>
<text text-anchor="start" x="264" y="-413.5" font-family="Helvetica,sans-Serif" font-size="10.00">+ Player</text>
<text text-anchor="start" x="264" y="-402.5" font-family="Helvetica,sans-Serif" font-size="10.00">+ Enemy</text>
<text text-anchor="start" x="264" y="-391.5" font-family="Helvetica,sans-Serif" font-size="10.00">+ WasCriticalHit</text>
<polyline fill="none" stroke="black" points="256,-384.5 372,-384.5 "/>
<text text-anchor="start" x="264" y="-372.5" font-family="Helvetica,sans-Serif" font-size="10.00">+ BattleManager()</text>
<text text-anchor="start" x="264" y="-361.5" font-family="Helvetica,sans-Serif" font-size="10.00">+ playerFirst()</text>
<text text-anchor="start" x="264" y="-350.5" font-family="Helvetica,sans-Serif" font-size="10.00">+ switchPlayers()</text>
<text text-anchor="start" x="264" y="-339.5" font-family="Helvetica,sans-Serif" font-size="10.00">+ isCriticalHit()</text>
<text text-anchor="start" x="264" y="-328.5" font-family="Helvetica,sans-Serif" font-size="10.00">+ ranAway()</text>
<text text-anchor="start" x="264" y="-317.5" font-family="Helvetica,sans-Serif" font-size="10.00">+ damageCalculation()</text>
<text text-anchor="start" x="264" y="-306.5" font-family="Helvetica,sans-Serif" font-size="10.00">+ enemyMove()</text>
<text text-anchor="start" x="264" y="-295.5" font-family="Helvetica,sans-Serif" font-size="10.00">+ enemySpecialMove()</text>
<text text-anchor="start" x="264" y="-284.5" font-family="Helvetica,sans-Serif" font-size="10.00">+ battleWon()</text>
<text text-anchor="start" x="264" y="-273.5" font-family="Helvetica,sans-Serif" font-size="10.00">+ playerFainted()</text>
<text text-anchor="start" x="264" y="-262.5" font-family="Helvetica,sans-Serif" font-size="10.00">&#45; characterFainted()</text>
</a>
</g>
</g>
<!-- Node4&#45;&gt;Node8 -->
<g id="edge8" class="edge"><title>Node4&#45;&gt;Node8</title>
<path fill="none" stroke="#404040" d="M79.3854,-955.321C67.8726,-877.098 45.2191,-650.525 140,-503 167.25,-460.586 209.683,-423.181 245.822,-396.091"/>
<polygon fill="none" stroke="#404040" points="246.165,-395.839 248.628,-389.061 255.831,-388.727 253.368,-395.505 246.165,-395.839"/>
<text text-anchor="middle" x="125" y="-637" font-family="Helvetica,sans-Serif" font-size="10.00"> +forceCriticalHits</text>
</g>
<!-- Node12 -->
<g id="node10" class="node"><title>Node12</title>
<g id="a_node10"><a xlink:href="class_item.html" target="_top" xlink:title="{Item\n|+ Name\l+ Desc\l|+ applyBuffs()\l+ revertBuffs()\l}">
<polygon fill="none" stroke="black" points="112.5,-707.5 112.5,-786.5 189.5,-786.5 189.5,-707.5 112.5,-707.5"/>
<text text-anchor="middle" x="151" y="-774.5" font-family="Helvetica,sans-Serif" font-size="10.00">Item</text>
<polyline fill="none" stroke="black" points="112.5,-767.5 189.5,-767.5 "/>
<text text-anchor="start" x="120.5" y="-755.5" font-family="Helvetica,sans-Serif" font-size="10.00">+ Name</text>
<text text-anchor="start" x="120.5" y="-744.5" font-family="Helvetica,sans-Serif" font-size="10.00">+ Desc</text>
<polyline fill="none" stroke="black" points="112.5,-737.5 189.5,-737.5 "/>
<text text-anchor="start" x="120.5" y="-725.5" font-family="Helvetica,sans-Serif" font-size="10.00">+ applyBuffs()</text>
<text text-anchor="start" x="120.5" y="-714.5" font-family="Helvetica,sans-Serif" font-size="10.00">+ revertBuffs()</text>
</a>
</g>
</g>
<!-- Node4&#45;&gt;Node12 -->
<g id="edge17" class="edge"><title>Node4&#45;&gt;Node12</title>
<path fill="none" stroke="#404040" d="M92.5386,-955.299C94.3656,-949.274 96.2666,-942.929 98,-937 111.676,-890.219 126.614,-836.718 137.134,-798.607"/>
<polygon fill="none" stroke="#404040" points="137.199,-798.371 134.937,-791.524 140.388,-786.802 142.65,-793.65 137.199,-798.371"/>
<text text-anchor="middle" x="139" y="-896" font-family="Helvetica,sans-Serif" font-size="10.00"> #desc</text>
<text text-anchor="middle" x="139" y="-885" font-family="Helvetica,sans-Serif" font-size="10.00">#name</text>
</g>
<!-- Node5 -->
<g id="node3" class="node"><title>Node5</title>
<polygon fill="none" stroke="#bfbfbf" points="436.5,-955.5 436.5,-1012.5 465.5,-1012.5 465.5,-955.5 436.5,-955.5"/>
<text text-anchor="middle" x="451" y="-1000.5" font-family="Helvetica,sans-Serif" font-size="10.00">int</text>
<polyline fill="none" stroke="#bfbfbf" points="436.5,-993.5 465.5,-993.5 "/>
<text text-anchor="middle" x="451" y="-981.5" font-family="Helvetica,sans-Serif" font-size="10.00"> </text>
<polyline fill="none" stroke="#bfbfbf" points="436.5,-974.5 465.5,-974.5 "/>
<text text-anchor="middle" x="451" y="-962.5" font-family="Helvetica,sans-Serif" font-size="10.00"> </text>
</g>
<!-- Node5&#45;&gt;Node3 -->
<g id="edge2" class="edge"><title>Node5&#45;&gt;Node3</title>
<path fill="none" stroke="#404040" d="M436.43,-980.315C415.667,-975.62 378.281,-963.742 362,-937 345.124,-909.28 342.029,-874.781 344.587,-842.874"/>
<polygon fill="none" stroke="#404040" points="344.602,-842.729 341.236,-836.351 345.828,-830.791 349.194,-837.169 344.602,-842.729"/>
<text text-anchor="middle" x="399.5" y="-929" font-family="Helvetica,sans-Serif" font-size="10.00"> #speed</text>
<text text-anchor="middle" x="399.5" y="-918" font-family="Helvetica,sans-Serif" font-size="10.00">#luck</text>
<text text-anchor="middle" x="399.5" y="-907" font-family="Helvetica,sans-Serif" font-size="10.00">#health</text>
<text text-anchor="middle" x="399.5" y="-896" font-family="Helvetica,sans-Serif" font-size="10.00">#magic</text>
<text text-anchor="middle" x="399.5" y="-885" font-family="Helvetica,sans-Serif" font-size="10.00">#maximumMagic</text>
<text text-anchor="middle" x="399.5" y="-874" font-family="Helvetica,sans-Serif" font-size="10.00">#attack</text>
<text text-anchor="middle" x="399.5" y="-863" font-family="Helvetica,sans-Serif" font-size="10.00">#defence</text>
<text text-anchor="middle" x="399.5" y="-852" font-family="Helvetica,sans-Serif" font-size="10.00">#level</text>
</g>
<!-- Node5&#45;&gt;Node6 -->
<g id="edge20" class="edge"><title>Node5&#45;&gt;Node6</title>
<path fill="none" stroke="#404040" d="M465.544,-971.786C475.947,-963.172 489.698,-950.494 499,-937 550.77,-861.9 579,-839.215 579,-748 579,-748 579,-748 579,-167 579,-124.186 540.711,-92.7125 505.067,-72.6891"/>
<polygon fill="none" stroke="#404040" points="504.717,-72.5021 497.54,-73.1996 494.136,-66.8427 501.313,-66.1452 504.717,-72.5021"/>
<text text-anchor="middle" x="596.5" y="-471.5" font-family="Helvetica,sans-Serif" font-size="10.00"> #magic</text>
</g>
<!-- Node5&#45;&gt;Node8 -->
<g id="edge12" class="edge"><title>Node5&#45;&gt;Node8</title>
<path fill="none" stroke="#404040" d="M463.116,-955.383C475.531,-925.43 493.979,-875.874 501,-831 526.461,-668.259 544.701,-602.432 457,-463 438.539,-433.65 409.556,-408.851 382.496,-390.107"/>
<polygon fill="none" stroke="#404040" points="382.207,-389.913 374.996,-389.889 372.245,-383.223 379.456,-383.248 382.207,-389.913"/>
<text text-anchor="middle" x="541.5" y="-637" font-family="Helvetica,sans-Serif" font-size="10.00"> +money</text>
</g>
<!-- Node5&#45;&gt;Node9 -->
<g id="edge11" class="edge"><title>Node5&#45;&gt;Node9</title>
<path fill="none" stroke="#404040" d="M452.335,-955.316C454.245,-898.948 454.558,-767.359 423,-663 416.18,-640.447 404.014,-617.25 392.76,-598.641"/>
<polygon fill="none" stroke="#404040" points="392.634,-598.438 386.066,-595.461 386.287,-588.254 392.855,-591.23 392.634,-598.438"/>
<text text-anchor="middle" x="474" y="-744.5" font-family="Helvetica,sans-Serif" font-size="10.00"> &#45;expGiven</text>
</g>
<!-- Node5&#45;&gt;Node11 -->
<g id="edge18" class="edge"><title>Node5&#45;&gt;Node11</title>
<path fill="none" stroke="#404040" d="M436.41,-982.058C392.917,-978.926 265.592,-967.283 240,-937 226.504,-921.03 229.758,-708.382 235,-663 236.331,-651.479 238.477,-639.372 240.951,-627.676"/>
<polygon fill="none" stroke="#404040" points="241.015,-627.392 238.418,-620.664 243.629,-615.68 246.226,-622.407 241.015,-627.392"/>
<text text-anchor="middle" x="272.5" y="-750" font-family="Helvetica,sans-Serif" font-size="10.00"> &#45;expToNextLevel</text>
<text text-anchor="middle" x="272.5" y="-739" font-family="Helvetica,sans-Serif" font-size="10.00">&#45;exp</text>
</g>
<!-- Node6&#45;&gt;Node3 -->
<g id="edge3" class="edge"><title>Node6&#45;&gt;Node3</title>
<path fill="none" stroke="#404040" d="M463.141,-90.635C470.809,-113.102 478,-141.08 478,-167 478,-560.5 478,-560.5 478,-560.5 478,-563.558 449.205,-611.623 420.947,-658.055"/>
<polygon fill="none" stroke="#404040" points="420.801,-658.294 421.095,-665.499 414.557,-668.542 414.263,-661.337 420.801,-658.294"/>
<text text-anchor="middle" x="500.5" y="-353" font-family="Helvetica,sans-Serif" font-size="10.00"> #special1</text>
<text text-anchor="middle" x="500.5" y="-342" font-family="Helvetica,sans-Serif" font-size="10.00">#special2</text>
</g>
<!-- Node7&#45;&gt;Node6 -->
<g id="edge4" class="edge"><title>Node7&#45;&gt;Node6</title>
<path fill="none" stroke="midnightblue" d="M402.096,-119.315C407.664,-109.867 413.485,-99.9867 418.98,-90.6615"/>
<polygon fill="none" stroke="midnightblue" points="398.917,-117.817 396.856,-128.21 404.948,-121.371 398.917,-117.817"/>
</g>
<!-- Node8&#45;&gt;Node7 -->
<g id="edge7" class="edge"><title>Node8&#45;&gt;Node7</title>
<path fill="none" stroke="#404040" d="M345.23,-255.31C349.329,-243.014 353.397,-230.81 357.127,-219.619"/>
<polygon fill="none" stroke="#404040" points="357.233,-219.3 355.336,-212.342 361.028,-207.915 362.926,-214.872 357.233,-219.3"/>
<text text-anchor="middle" x="378" y="-229" font-family="Helvetica,sans-Serif" font-size="10.00"> #manager</text>
</g>
<!-- Node9&#45;&gt;Node8 -->
<g id="edge9" class="edge"><title>Node9&#45;&gt;Node8</title>
<path fill="none" stroke="#404040" d="M359.962,-530.946C354.985,-511.46 347.967,-483.983 340.91,-456.355"/>
<polygon fill="none" stroke="#404040" points="340.859,-456.154 335.498,-451.331 337.889,-444.528 343.249,-449.351 340.859,-456.154"/>
<text text-anchor="middle" x="365" y="-471.5" font-family="Helvetica,sans-Serif" font-size="10.00"> &#45;enemy</text>
</g>
<!-- Node10 -->
<g id="node8" class="node"><title>Node10</title>
<polygon fill="none" stroke="#bfbfbf" points="149.5,-531 149.5,-588 184.5,-588 184.5,-531 149.5,-531"/>
<text text-anchor="middle" x="167" y="-576" font-family="Helvetica,sans-Serif" font-size="10.00">bool</text>
<polyline fill="none" stroke="#bfbfbf" points="149.5,-569 184.5,-569 "/>
<text text-anchor="middle" x="167" y="-557" font-family="Helvetica,sans-Serif" font-size="10.00"> </text>
<polyline fill="none" stroke="#bfbfbf" points="149.5,-550 184.5,-550 "/>
<text text-anchor="middle" x="167" y="-538" font-family="Helvetica,sans-Serif" font-size="10.00"> </text>
</g>
<!-- Node10&#45;&gt;Node8 -->
<g id="edge13" class="edge"><title>Node10&#45;&gt;Node8</title>
<path fill="none" stroke="#404040" d="M176.656,-530.933C184.222,-511.166 195.827,-484.364 210,-463 220.872,-446.611 234.166,-430.324 247.568,-415.454"/>
<polygon fill="none" stroke="#404040" points="247.782,-415.221 248.901,-408.097 255.907,-406.39 254.788,-413.514 247.782,-415.221"/>
<text text-anchor="middle" x="243" y="-471.5" font-family="Helvetica,sans-Serif" font-size="10.00"> &#45;wasCriticalHit</text>
</g>
<!-- Node11&#45;&gt;Node8 -->
<g id="edge14" class="edge"><title>Node11&#45;&gt;Node8</title>
<path fill="none" stroke="#404040" d="M273.595,-503.439C277.436,-488.946 281.712,-472.815 286.004,-456.623"/>
<polygon fill="none" stroke="#404040" points="286.051,-456.444 283.722,-449.619 289.126,-444.845 291.455,-451.669 286.051,-456.444"/>
<text text-anchor="middle" x="300.5" y="-471.5" font-family="Helvetica,sans-Serif" font-size="10.00"> &#45;player</text>
</g>
<!-- Node12&#45;&gt;Node11 -->
<g id="edge16" class="edge"><title>Node12&#45;&gt;Node11</title>
<path fill="none" stroke="#404040" d="M158.737,-707.311C164.35,-684.82 173.385,-656.557 187,-634 189.473,-629.902 192.218,-625.856 195.15,-621.898"/>
<polygon fill="none" stroke="#404040" points="195.332,-621.667 195.916,-614.479 202.775,-612.254 202.191,-619.442 195.332,-621.667"/>
<text text-anchor="middle" x="199.5" y="-637" font-family="Helvetica,sans-Serif" font-size="10.00"> &#45;item</text>
</g>
</g>
</svg>
