<?xml version="1.0" encoding="UTF-8" standalone="no"?>
<!DOCTYPE svg PUBLIC "-//W3C//DTD SVG 1.1//EN"
 "http://www.w3.org/Graphics/SVG/1.1/DTD/svg11.dtd">
<!-- Generated by graphviz version 2.38.0 (20140413.2041)
 -->
<!-- Title: Quit Pages: 1 -->
<svg width="91pt" height="171pt"
 viewBox="0.00 0.00 91.00 171.00" xmlns="http://www.w3.org/2000/svg" xmlns:xlink="http://www.w3.org/1999/xlink">
<g id="graph0" class="graph" transform="scale(1 1) rotate(0) translate(4 167)">
<title>Quit</title>
<!-- Node0 -->
<g id="node1" class="node"><title>Node0</title>
<polygon fill="#bfbfbf" stroke="black" points="12,-0.5 12,-68.5 71,-68.5 71,-0.5 12,-0.5"/>
<text text-anchor="middle" x="41.5" y="-56.5" font-family="Helvetica,sans-Serif" font-size="10.00">Quit</text>
<polyline fill="none" stroke="black" points="12,-49.5 71,-49.5 "/>
<text text-anchor="middle" x="41.5" y="-37.5" font-family="Helvetica,sans-Serif" font-size="10.00"> </text>
<polyline fill="none" stroke="black" points="12,-30.5 71,-30.5 "/>
<text text-anchor="start" x="20" y="-18.5" font-family="Helvetica,sans-Serif" font-size="10.00">&#45; Start()</text>
<text text-anchor="start" x="20" y="-7.5" font-family="Helvetica,sans-Serif" font-size="10.00">&#45; Update()</text>
</g>
<!-- Node1 -->
<g id="node2" class="node"><title>Node1</title>
<g id="a_node2"><a xlink:href="class_mono_behaviour.html" target="_top" xlink:title="{MonoBehaviour\n||}">
<polygon fill="none" stroke="black" points="0,-105.5 0,-162.5 83,-162.5 83,-105.5 0,-105.5"/>
<text text-anchor="middle" x="41.5" y="-150.5" font-family="Helvetica,sans-Serif" font-size="10.00">MonoBehaviour</text>
<polyline fill="none" stroke="black" points="0,-143.5 83,-143.5 "/>
<text text-anchor="middle" x="41.5" y="-131.5" font-family="Helvetica,sans-Serif" font-size="10.00"> </text>
<polyline fill="none" stroke="black" points="0,-124.5 83,-124.5 "/>
<text text-anchor="middle" x="41.5" y="-112.5" font-family="Helvetica,sans-Serif" font-size="10.00"> </text>
</a>
</g>
</g>
<!-- Node1&#45;&gt;Node0 -->
<g id="edge1" class="edge"><title>Node1&#45;&gt;Node0</title>
<path fill="none" stroke="midnightblue" d="M41.5,-95.0631C41.5,-86.3933 41.5,-77.2431 41.5,-68.7855"/>
<polygon fill="none" stroke="midnightblue" points="38.0001,-95.3212 41.5,-105.321 45.0001,-95.3212 38.0001,-95.3212"/>
</g>
</g>
</svg>
