<?xml version="1.0" encoding="UTF-8" standalone="no"?>
<!DOCTYPE svg PUBLIC "-//W3C//DTD SVG 1.1//EN"
 "http://www.w3.org/Graphics/SVG/1.1/DTD/svg11.dtd">
<!-- Generated by graphviz version 2.38.0 (20140413.2041)
 -->
<!-- Title: LowerSpeed Pages: 1 -->
<svg width="716pt" height="1034pt"
 viewBox="0.00 0.00 716.00 1034.00" xmlns="http://www.w3.org/2000/svg" xmlns:xlink="http://www.w3.org/1999/xlink">
<g id="graph0" class="graph" transform="scale(1 1) rotate(0) translate(4 1030)">
<title>LowerSpeed</title>
<!-- Node3 -->
<g id="node1" class="node"><title>Node3</title>
<polygon fill="#bfbfbf" stroke="black" points="455,-585 455,-653 541,-653 541,-585 455,-585"/>
<text text-anchor="middle" x="498" y="-641" font-family="Helvetica,sans-Serif" font-size="10.00">LowerSpeed</text>
<polyline fill="none" stroke="black" points="455,-634 541,-634 "/>
<text text-anchor="middle" x="498" y="-622" font-family="Helvetica,sans-Serif" font-size="10.00"> </text>
<polyline fill="none" stroke="black" points="455,-615 541,-615 "/>
<text text-anchor="start" x="463" y="-603" font-family="Helvetica,sans-Serif" font-size="10.00">+ LowerSpeed()</text>
<text text-anchor="start" x="463" y="-592" font-family="Helvetica,sans-Serif" font-size="10.00">+ performMove()</text>
</g>
<!-- Node4 -->
<g id="node2" class="node"><title>Node4</title>
<g id="a_node2"><a xlink:href="class_special_move.html" target="_top" xlink:title="Special move abstract base class that expands upon CharacterMove, adding magic properties ...">
<polygon fill="none" stroke="black" points="397,-819.5 397,-909.5 495,-909.5 495,-819.5 397,-819.5"/>
<text text-anchor="middle" x="446" y="-897.5" font-family="Helvetica,sans-Serif" font-size="10.00">SpecialMove</text>
<polyline fill="none" stroke="black" points="397,-890.5 495,-890.5 "/>
<text text-anchor="start" x="405" y="-878.5" font-family="Helvetica,sans-Serif" font-size="10.00">+ Magic</text>
<text text-anchor="start" x="405" y="-867.5" font-family="Helvetica,sans-Serif" font-size="10.00">+ Desc</text>
<polyline fill="none" stroke="black" points="397,-860.5 495,-860.5 "/>
<text text-anchor="start" x="405" y="-848.5" font-family="Helvetica,sans-Serif" font-size="10.00">+ setUp()</text>
<text text-anchor="start" x="405" y="-837.5" font-family="Helvetica,sans-Serif" font-size="10.00">+ decreaseMagic()</text>
<text text-anchor="start" x="405" y="-826.5" font-family="Helvetica,sans-Serif" font-size="10.00"># SpecialMove()</text>
</a>
</g>
</g>
<!-- Node4&#45;&gt;Node3 -->
<g id="edge1" class="edge"><title>Node4&#45;&gt;Node3</title>
<path fill="none" stroke="midnightblue" d="M457.526,-809.53C467.736,-761.718 482.317,-693.439 490.906,-653.219"/>
<polygon fill="none" stroke="midnightblue" points="454.082,-808.894 455.417,-819.404 460.928,-810.355 454.082,-808.894"/>
</g>
<!-- Node7 -->
<g id="node5" class="node"><title>Node7</title>
<g id="a_node5"><a xlink:href="class_character.html" target="_top" xlink:title="Base abstract class for Enemy and Player to inherit from. Defines all shared variables, their constructor and their setters and getters ">
<polygon fill="none" stroke="black" points="191.5,-535.5 191.5,-702.5 286.5,-702.5 286.5,-535.5 191.5,-535.5"/>
<text text-anchor="middle" x="239" y="-690.5" font-family="Helvetica,sans-Serif" font-size="10.00">Character</text>
<polyline fill="none" stroke="black" points="191.5,-683.5 286.5,-683.5 "/>
<text text-anchor="start" x="199.5" y="-671.5" font-family="Helvetica,sans-Serif" font-size="10.00">+ Name</text>
<text text-anchor="start" x="199.5" y="-660.5" font-family="Helvetica,sans-Serif" font-size="10.00">+ Level</text>
<text text-anchor="start" x="199.5" y="-649.5" font-family="Helvetica,sans-Serif" font-size="10.00">+ Health</text>
<text text-anchor="start" x="199.5" y="-638.5" font-family="Helvetica,sans-Serif" font-size="10.00">+ Attack</text>
<text text-anchor="start" x="199.5" y="-627.5" font-family="Helvetica,sans-Serif" font-size="10.00">+ Defence</text>
<text text-anchor="start" x="199.5" y="-616.5" font-family="Helvetica,sans-Serif" font-size="10.00">+ MaximumMagic</text>
<text text-anchor="start" x="199.5" y="-605.5" font-family="Helvetica,sans-Serif" font-size="10.00">+ Magic</text>
<text text-anchor="start" x="199.5" y="-594.5" font-family="Helvetica,sans-Serif" font-size="10.00">+ Luck</text>
<text text-anchor="start" x="199.5" y="-583.5" font-family="Helvetica,sans-Serif" font-size="10.00">+ Speed</text>
<text text-anchor="start" x="199.5" y="-572.5" font-family="Helvetica,sans-Serif" font-size="10.00">+ Special1</text>
<text text-anchor="start" x="199.5" y="-561.5" font-family="Helvetica,sans-Serif" font-size="10.00">+ Special2</text>
<polyline fill="none" stroke="black" points="191.5,-554.5 286.5,-554.5 "/>
<text text-anchor="start" x="199.5" y="-542.5" font-family="Helvetica,sans-Serif" font-size="10.00"># Character()</text>
</a>
</g>
</g>
<!-- Node4&#45;&gt;Node7 -->
<g id="edge7" class="edge"><title>Node4&#45;&gt;Node7</title>
<path fill="none" stroke="#404040" d="M396.98,-844.436C376.338,-836.476 352.038,-827.193 330,-819 307.862,-810.77 295.632,-818.705 280,-801 255.879,-773.68 270.046,-756.545 262,-721 261.515,-718.857 261.024,-716.688 260.528,-714.501"/>
<polygon fill="none" stroke="#404040" points="260.5,-714.377 255.272,-709.411 257.845,-702.675 263.073,-707.641 260.5,-714.377"/>
<text text-anchor="middle" x="302.5" y="-764" font-family="Helvetica,sans-Serif" font-size="10.00"> #special1</text>
<text text-anchor="middle" x="302.5" y="-753" font-family="Helvetica,sans-Serif" font-size="10.00">#special2</text>
</g>
<!-- Node5 -->
<g id="node3" class="node"><title>Node5</title>
<g id="a_node3"><a xlink:href="class_character_move.html" target="_top" xlink:title="Astract base class for character moves ">
<polygon fill="none" stroke="black" points="359,-0.5 359,-79.5 445,-79.5 445,-0.5 359,-0.5"/>
<text text-anchor="middle" x="402" y="-67.5" font-family="Helvetica,sans-Serif" font-size="10.00">CharacterMove</text>
<polyline fill="none" stroke="black" points="359,-60.5 445,-60.5 "/>
<text text-anchor="start" x="367" y="-48.5" font-family="Helvetica,sans-Serif" font-size="10.00">+ User</text>
<text text-anchor="start" x="367" y="-37.5" font-family="Helvetica,sans-Serif" font-size="10.00">+ Target</text>
<text text-anchor="start" x="367" y="-26.5" font-family="Helvetica,sans-Serif" font-size="10.00">+ Text</text>
<polyline fill="none" stroke="black" points="359,-19.5 445,-19.5 "/>
<text text-anchor="start" x="367" y="-7.5" font-family="Helvetica,sans-Serif" font-size="10.00">+ performMove()</text>
</a>
</g>
</g>
<!-- Node5&#45;&gt;Node4 -->
<g id="edge2" class="edge"><title>Node5&#45;&gt;Node4</title>
<path fill="none" stroke="midnightblue" d="M412.526,-90C419.359,-126.052 427,-176.348 427,-221 427,-620 427,-620 427,-620 427,-689.753 434.845,-770.405 440.453,-819.148"/>
<polygon fill="none" stroke="midnightblue" points="415.879,-88.907 410.534,-79.7592 409.007,-90.2435 415.879,-88.907"/>
</g>
<!-- Node6 -->
<g id="node4" class="node"><title>Node6</title>
<polygon fill="none" stroke="#bfbfbf" points="425.5,-968.5 425.5,-1025.5 466.5,-1025.5 466.5,-968.5 425.5,-968.5"/>
<text text-anchor="middle" x="446" y="-1013.5" font-family="Helvetica,sans-Serif" font-size="10.00">string</text>
<polyline fill="none" stroke="#bfbfbf" points="425.5,-1006.5 466.5,-1006.5 "/>
<text text-anchor="middle" x="446" y="-994.5" font-family="Helvetica,sans-Serif" font-size="10.00"> </text>
<polyline fill="none" stroke="#bfbfbf" points="425.5,-987.5 466.5,-987.5 "/>
<text text-anchor="middle" x="446" y="-975.5" font-family="Helvetica,sans-Serif" font-size="10.00"> </text>
</g>
<!-- Node6&#45;&gt;Node4 -->
<g id="edge20" class="edge"><title>Node6&#45;&gt;Node4</title>
<path fill="none" stroke="#404040" d="M446,-968.324C446,-954.731 446,-937.837 446,-921.696"/>
<polygon fill="none" stroke="#404040" points="446,-921.568 442,-915.568 446,-909.568 450,-915.568 446,-921.568"/>
<text text-anchor="middle" x="461" y="-936.5" font-family="Helvetica,sans-Serif" font-size="10.00"> #desc</text>
</g>
<!-- Node6&#45;&gt;Node5 -->
<g id="edge3" class="edge"><title>Node6&#45;&gt;Node5</title>
<path fill="none" stroke="#404040" d="M466.618,-994.387C524.278,-988.646 683,-963.904 683,-865.5 683,-865.5 683,-865.5 683,-221 683,-114.811 538.955,-68.4079 457.13,-50.6148"/>
<polygon fill="none" stroke="#404040" points="457.038,-50.5956 450.347,-53.286 445.29,-48.1449 451.981,-45.4546 457.038,-50.5956"/>
<text text-anchor="middle" x="695.5" y="-509" font-family="Helvetica,sans-Serif" font-size="10.00"> #text</text>
</g>
<!-- Node6&#45;&gt;Node7 -->
<g id="edge5" class="edge"><title>Node6&#45;&gt;Node7</title>
<path fill="none" stroke="#404040" d="M425.358,-995.058C395.051,-992.541 338.686,-983.358 307,-950 265.416,-906.221 288.553,-876.773 271,-819 268.549,-810.931 266.941,-809.206 265,-801 258.445,-773.281 253.291,-742.759 249.361,-714.803"/>
<polygon fill="none" stroke="#404040" points="249.316,-714.468 244.543,-709.063 247.697,-702.578 252.47,-707.983 249.316,-714.468"/>
<text text-anchor="middle" x="300.5" y="-862" font-family="Helvetica,sans-Serif" font-size="10.00"> #name</text>
</g>
<!-- Node9 -->
<g id="node7" class="node"><title>Node9</title>
<g id="a_node7"><a xlink:href="class_battle_manager.html" target="_top" xlink:title="{BattleManager\n|+ Player\l+ Enemy\l+ WasCriticalHit\l|+ BattleManager()\l+ playerFirst()\l+ switchPlayers()\l+ isCriticalHit()\l+ ranAway()\l+ damageCalculation()\l+ enemyMove()\l+ enemySpecialMove()\l+ battleWon()\l+ playerFainted()\l&#45; characterFainted()\l}">
<polygon fill="none" stroke="black" points="126,-127.5 126,-316.5 242,-316.5 242,-127.5 126,-127.5"/>
<text text-anchor="middle" x="184" y="-304.5" font-family="Helvetica,sans-Serif" font-size="10.00">BattleManager</text>
<polyline fill="none" stroke="black" points="126,-297.5 242,-297.5 "/>
<text text-anchor="start" x="134" y="-285.5" font-family="Helvetica,sans-Serif" font-size="10.00">+ Player</text>
<text text-anchor="start" x="134" y="-274.5" font-family="Helvetica,sans-Serif" font-size="10.00">+ Enemy</text>
<text text-anchor="start" x="134" y="-263.5" font-family="Helvetica,sans-Serif" font-size="10.00">+ WasCriticalHit</text>
<polyline fill="none" stroke="black" points="126,-256.5 242,-256.5 "/>
<text text-anchor="start" x="134" y="-244.5" font-family="Helvetica,sans-Serif" font-size="10.00">+ BattleManager()</text>
<text text-anchor="start" x="134" y="-233.5" font-family="Helvetica,sans-Serif" font-size="10.00">+ playerFirst()</text>
<text text-anchor="start" x="134" y="-222.5" font-family="Helvetica,sans-Serif" font-size="10.00">+ switchPlayers()</text>
<text text-anchor="start" x="134" y="-211.5" font-family="Helvetica,sans-Serif" font-size="10.00">+ isCriticalHit()</text>
<text text-anchor="start" x="134" y="-200.5" font-family="Helvetica,sans-Serif" font-size="10.00">+ ranAway()</text>
<text text-anchor="start" x="134" y="-189.5" font-family="Helvetica,sans-Serif" font-size="10.00">+ damageCalculation()</text>
<text text-anchor="start" x="134" y="-178.5" font-family="Helvetica,sans-Serif" font-size="10.00">+ enemyMove()</text>
<text text-anchor="start" x="134" y="-167.5" font-family="Helvetica,sans-Serif" font-size="10.00">+ enemySpecialMove()</text>
<text text-anchor="start" x="134" y="-156.5" font-family="Helvetica,sans-Serif" font-size="10.00">+ battleWon()</text>
<text text-anchor="start" x="134" y="-145.5" font-family="Helvetica,sans-Serif" font-size="10.00">+ playerFainted()</text>
<text text-anchor="start" x="134" y="-134.5" font-family="Helvetica,sans-Serif" font-size="10.00">&#45; characterFainted()</text>
</a>
</g>
</g>
<!-- Node6&#45;&gt;Node9 -->
<g id="edge9" class="edge"><title>Node6&#45;&gt;Node9</title>
<path fill="none" stroke="#404040" d="M466.803,-986.743C493.093,-973.791 537.288,-947.559 557,-910 595.733,-836.199 587.548,-609.411 550,-535 532.76,-500.834 352.499,-355.586 251.556,-275.883"/>
<polygon fill="none" stroke="#404040" points="251.465,-275.812 244.277,-275.237 242.043,-268.38 249.231,-268.955 251.465,-275.812"/>
<text text-anchor="middle" x="621" y="-616.5" font-family="Helvetica,sans-Serif" font-size="10.00"> +forceCriticalHits</text>
</g>
<!-- Node13 -->
<g id="node11" class="node"><title>Node13</title>
<g id="a_node11"><a xlink:href="class_item.html" target="_top" xlink:title="{Item\n|+ Name\l+ Desc\l|+ applyBuffs()\l+ revertBuffs()\l}">
<polygon fill="none" stroke="black" points="334.5,-721.5 334.5,-800.5 411.5,-800.5 411.5,-721.5 334.5,-721.5"/>
<text text-anchor="middle" x="373" y="-788.5" font-family="Helvetica,sans-Serif" font-size="10.00">Item</text>
<polyline fill="none" stroke="black" points="334.5,-781.5 411.5,-781.5 "/>
<text text-anchor="start" x="342.5" y="-769.5" font-family="Helvetica,sans-Serif" font-size="10.00">+ Name</text>
<text text-anchor="start" x="342.5" y="-758.5" font-family="Helvetica,sans-Serif" font-size="10.00">+ Desc</text>
<polyline fill="none" stroke="black" points="334.5,-751.5 411.5,-751.5 "/>
<text text-anchor="start" x="342.5" y="-739.5" font-family="Helvetica,sans-Serif" font-size="10.00">+ applyBuffs()</text>
<text text-anchor="start" x="342.5" y="-728.5" font-family="Helvetica,sans-Serif" font-size="10.00">+ revertBuffs()</text>
</a>
</g>
</g>
<!-- Node6&#45;&gt;Node13 -->
<g id="edge18" class="edge"><title>Node6&#45;&gt;Node13</title>
<path fill="none" stroke="#404040" d="M425.385,-973.062C412.077,-956.733 395.834,-933.585 388,-910 377.646,-878.829 373.877,-842.102 372.706,-813.033"/>
<polygon fill="none" stroke="#404040" points="372.696,-812.668 368.522,-806.788 372.344,-800.673 376.518,-806.554 372.696,-812.668"/>
<text text-anchor="middle" x="424" y="-942" font-family="Helvetica,sans-Serif" font-size="10.00"> #desc</text>
<text text-anchor="middle" x="424" y="-931" font-family="Helvetica,sans-Serif" font-size="10.00">#name</text>
</g>
<!-- Node7&#45;&gt;Node5 -->
<g id="edge4" class="edge"><title>Node7&#45;&gt;Node5</title>
<path fill="none" stroke="#404040" d="M276.402,-535.2C282.73,-519.684 288.894,-503.476 294,-488 340.499,-347.049 376.418,-175.083 392.602,-91.4804"/>
<polygon fill="none" stroke="#404040" points="392.628,-91.3451 389.831,-84.6983 394.891,-79.5604 397.688,-86.2072 392.628,-91.3451"/>
<text text-anchor="middle" x="355" y="-349" font-family="Helvetica,sans-Serif" font-size="10.00"> #target</text>
<text text-anchor="middle" x="355" y="-338" font-family="Helvetica,sans-Serif" font-size="10.00">#user</text>
</g>
<!-- Node10 -->
<g id="node8" class="node"><title>Node10</title>
<g id="a_node8"><a xlink:href="class_enemy.html" target="_top" xlink:title="Defines an AI controller enemy to fight in battle scenes">
<polygon fill="none" stroke="black" points="85.5,-403 85.5,-460 152.5,-460 152.5,-403 85.5,-403"/>
<text text-anchor="middle" x="119" y="-448" font-family="Helvetica,sans-Serif" font-size="10.00">Enemy</text>
<polyline fill="none" stroke="black" points="85.5,-441 152.5,-441 "/>
<text text-anchor="start" x="93.5" y="-429" font-family="Helvetica,sans-Serif" font-size="10.00">+ ExpGiven</text>
<polyline fill="none" stroke="black" points="85.5,-422 152.5,-422 "/>
<text text-anchor="start" x="93.5" y="-410" font-family="Helvetica,sans-Serif" font-size="10.00">+ Enemy()</text>
</a>
</g>
</g>
<!-- Node7&#45;&gt;Node10 -->
<g id="edge11" class="edge"><title>Node7&#45;&gt;Node10</title>
<path fill="none" stroke="midnightblue" d="M185.76,-535.7C168.28,-508.679 150.025,-480.46 137.031,-460.373"/>
<polygon fill="none" stroke="midnightblue" points="183.03,-537.924 191.4,-544.419 188.908,-534.122 183.03,-537.924"/>
</g>
<!-- Node12 -->
<g id="node10" class="node"><title>Node12</title>
<g id="a_node10"><a xlink:href="class_player.html" target="_top" xlink:title="Defines a playable character for use in battle scenes">
<polygon fill="none" stroke="black" points="173,-375.5 173,-487.5 285,-487.5 285,-375.5 173,-375.5"/>
<text text-anchor="middle" x="229" y="-475.5" font-family="Helvetica,sans-Serif" font-size="10.00">Player</text>
<polyline fill="none" stroke="black" points="173,-468.5 285,-468.5 "/>
<text text-anchor="start" x="181" y="-456.5" font-family="Helvetica,sans-Serif" font-size="10.00">+ Exp</text>
<text text-anchor="start" x="181" y="-445.5" font-family="Helvetica,sans-Serif" font-size="10.00">+ Item</text>
<text text-anchor="start" x="181" y="-434.5" font-family="Helvetica,sans-Serif" font-size="10.00">+ ExpToNextLevel</text>
<polyline fill="none" stroke="black" points="173,-427.5 285,-427.5 "/>
<text text-anchor="start" x="181" y="-415.5" font-family="Helvetica,sans-Serif" font-size="10.00">+ Player()</text>
<text text-anchor="start" x="181" y="-404.5" font-family="Helvetica,sans-Serif" font-size="10.00">+ gainExp()</text>
<text text-anchor="start" x="181" y="-393.5" font-family="Helvetica,sans-Serif" font-size="10.00">+ levelUp()</text>
<text text-anchor="start" x="181" y="-382.5" font-family="Helvetica,sans-Serif" font-size="10.00">&#45; setExpToNextLevel()</text>
</a>
</g>
</g>
<!-- Node7&#45;&gt;Node12 -->
<g id="edge16" class="edge"><title>Node7&#45;&gt;Node12</title>
<path fill="none" stroke="midnightblue" d="M233.989,-525.04C233.299,-512.242 232.609,-499.449 231.972,-487.637"/>
<polygon fill="none" stroke="midnightblue" points="230.508,-525.489 234.541,-535.286 237.498,-525.113 230.508,-525.489"/>
</g>
<!-- Node8 -->
<g id="node6" class="node"><title>Node8</title>
<polygon fill="none" stroke="#bfbfbf" points="121.5,-968.5 121.5,-1025.5 150.5,-1025.5 150.5,-968.5 121.5,-968.5"/>
<text text-anchor="middle" x="136" y="-1013.5" font-family="Helvetica,sans-Serif" font-size="10.00">int</text>
<polyline fill="none" stroke="#bfbfbf" points="121.5,-1006.5 150.5,-1006.5 "/>
<text text-anchor="middle" x="136" y="-994.5" font-family="Helvetica,sans-Serif" font-size="10.00"> </text>
<polyline fill="none" stroke="#bfbfbf" points="121.5,-987.5 150.5,-987.5 "/>
<text text-anchor="middle" x="136" y="-975.5" font-family="Helvetica,sans-Serif" font-size="10.00"> </text>
</g>
<!-- Node8&#45;&gt;Node4 -->
<g id="edge21" class="edge"><title>Node8&#45;&gt;Node4</title>
<path fill="none" stroke="#404040" d="M150.536,-989.881C191.839,-972.494 311.659,-922.053 385.411,-891.006"/>
<polygon fill="none" stroke="#404040" points="385.773,-890.853 389.751,-884.839 396.833,-886.198 392.855,-892.212 385.773,-890.853"/>
<text text-anchor="middle" x="308.5" y="-936.5" font-family="Helvetica,sans-Serif" font-size="10.00"> #magic</text>
</g>
<!-- Node8&#45;&gt;Node7 -->
<g id="edge6" class="edge"><title>Node8&#45;&gt;Node7</title>
<path fill="none" stroke="#404040" d="M144.711,-968.329C159.416,-921.936 188.313,-832.218 196,-819 201.381,-809.747 207.466,-810.696 212,-801 224.422,-774.432 231.396,-743.489 235.236,-714.781"/>
<polygon fill="none" stroke="#404040" points="235.264,-714.548 232.009,-708.114 236.697,-702.634 239.952,-709.069 235.264,-714.548"/>
<text text-anchor="middle" x="233.5" y="-900.5" font-family="Helvetica,sans-Serif" font-size="10.00"> #speed</text>
<text text-anchor="middle" x="233.5" y="-889.5" font-family="Helvetica,sans-Serif" font-size="10.00">#luck</text>
<text text-anchor="middle" x="233.5" y="-878.5" font-family="Helvetica,sans-Serif" font-size="10.00">#health</text>
<text text-anchor="middle" x="233.5" y="-867.5" font-family="Helvetica,sans-Serif" font-size="10.00">#magic</text>
<text text-anchor="middle" x="233.5" y="-856.5" font-family="Helvetica,sans-Serif" font-size="10.00">#maximumMagic</text>
<text text-anchor="middle" x="233.5" y="-845.5" font-family="Helvetica,sans-Serif" font-size="10.00">#attack</text>
<text text-anchor="middle" x="233.5" y="-834.5" font-family="Helvetica,sans-Serif" font-size="10.00">#defence</text>
<text text-anchor="middle" x="233.5" y="-823.5" font-family="Helvetica,sans-Serif" font-size="10.00">#level</text>
</g>
<!-- Node8&#45;&gt;Node9 -->
<g id="edge13" class="edge"><title>Node8&#45;&gt;Node9</title>
<path fill="none" stroke="#404040" d="M121.446,-990.297C86.3613,-975.488 0,-932.255 0,-865.5 0,-865.5 0,-865.5 0,-430.5 0,-358.128 63.4349,-299.207 115.812,-262.892"/>
<polygon fill="none" stroke="#404040" points="115.839,-262.874 118.57,-256.2 125.781,-256.155 123.05,-262.828 115.839,-262.874"/>
<text text-anchor="middle" x="19.5" y="-616.5" font-family="Helvetica,sans-Serif" font-size="10.00"> +money</text>
</g>
<!-- Node8&#45;&gt;Node10 -->
<g id="edge12" class="edge"><title>Node8&#45;&gt;Node10</title>
<path fill="none" stroke="#404040" d="M123.032,-968.368C106.406,-931.271 78.477,-862.863 68,-801 47.7963,-681.704 84.4744,-539.668 105.602,-472.059"/>
<polygon fill="none" stroke="#404040" points="105.699,-471.755 103.714,-464.823 109.349,-460.324 111.335,-467.256 105.699,-471.755"/>
<text text-anchor="middle" x="91" y="-758.5" font-family="Helvetica,sans-Serif" font-size="10.00"> &#45;expGiven</text>
</g>
<!-- Node8&#45;&gt;Node12 -->
<g id="edge19" class="edge"><title>Node8&#45;&gt;Node12</title>
<path fill="none" stroke="#404040" d="M135.438,-968.231C134.704,-930.411 133.458,-860.589 133,-801 132.727,-765.445 128.433,-756.261 133,-721 143.98,-636.221 153.188,-615.486 182,-535 186.25,-523.128 191.337,-510.74 196.57,-498.849"/>
<polygon fill="none" stroke="#404040" points="196.692,-498.579 195.503,-491.466 201.611,-487.633 202.8,-494.746 196.692,-498.579"/>
<text text-anchor="middle" x="170.5" y="-764" font-family="Helvetica,sans-Serif" font-size="10.00"> &#45;expToNextLevel</text>
<text text-anchor="middle" x="170.5" y="-753" font-family="Helvetica,sans-Serif" font-size="10.00">&#45;exp</text>
</g>
<!-- Node9&#45;&gt;Node5 -->
<g id="edge8" class="edge"><title>Node9&#45;&gt;Node5</title>
<path fill="none" stroke="#404040" d="M242.165,-163.538C264.827,-142.144 291.456,-118.177 317,-98 326.932,-90.1549 337.918,-82.2623 348.603,-74.9561"/>
<polygon fill="none" stroke="#404040" points="348.756,-74.8532 351.499,-68.1843 358.71,-68.1516 355.967,-74.8205 348.756,-74.8532"/>
<text text-anchor="middle" x="340" y="-101" font-family="Helvetica,sans-Serif" font-size="10.00"> #manager</text>
</g>
<!-- Node10&#45;&gt;Node9 -->
<g id="edge10" class="edge"><title>Node10&#45;&gt;Node9</title>
<path fill="none" stroke="#404040" d="M127.631,-402.946C133.763,-383.373 142.419,-355.738 151.113,-327.985"/>
<polygon fill="none" stroke="#404040" points="151.115,-327.979 149.091,-321.058 154.702,-316.528 156.726,-323.449 151.115,-327.979"/>
<text text-anchor="middle" x="166" y="-343.5" font-family="Helvetica,sans-Serif" font-size="10.00"> &#45;enemy</text>
</g>
<!-- Node11 -->
<g id="node9" class="node"><title>Node11</title>
<polygon fill="none" stroke="#bfbfbf" points="32.5,-403 32.5,-460 67.5,-460 67.5,-403 32.5,-403"/>
<text text-anchor="middle" x="50" y="-448" font-family="Helvetica,sans-Serif" font-size="10.00">bool</text>
<polyline fill="none" stroke="#bfbfbf" points="32.5,-441 67.5,-441 "/>
<text text-anchor="middle" x="50" y="-429" font-family="Helvetica,sans-Serif" font-size="10.00"> </text>
<polyline fill="none" stroke="#bfbfbf" points="32.5,-422 67.5,-422 "/>
<text text-anchor="middle" x="50" y="-410" font-family="Helvetica,sans-Serif" font-size="10.00"> </text>
</g>
<!-- Node11&#45;&gt;Node9 -->
<g id="edge14" class="edge"><title>Node11&#45;&gt;Node9</title>
<path fill="none" stroke="#404040" d="M53.0378,-402.726C56.1226,-382.858 62.2054,-356.022 74,-335 85.1958,-315.045 100.879,-296.134 116.901,-279.727"/>
<polygon fill="none" stroke="#404040" points="117.296,-279.334 118.735,-272.268 125.811,-270.879 124.372,-277.945 117.296,-279.334"/>
<text text-anchor="middle" x="107" y="-343.5" font-family="Helvetica,sans-Serif" font-size="10.00"> &#45;wasCriticalHit</text>
</g>
<!-- Node12&#45;&gt;Node9 -->
<g id="edge15" class="edge"><title>Node12&#45;&gt;Node9</title>
<path fill="none" stroke="#404040" d="M217.059,-375.439C213.916,-360.946 210.418,-344.815 206.906,-328.623"/>
<polygon fill="none" stroke="#404040" points="206.895,-328.572 201.714,-323.556 204.352,-316.845 209.533,-321.86 206.895,-328.572"/>
<text text-anchor="middle" x="228.5" y="-343.5" font-family="Helvetica,sans-Serif" font-size="10.00"> &#45;player</text>
</g>
<!-- Node13&#45;&gt;Node12 -->
<g id="edge17" class="edge"><title>Node13&#45;&gt;Node12</title>
<path fill="none" stroke="#404040" d="M362.69,-721.472C349.773,-675.759 325.573,-597.826 295,-535 289.019,-522.709 281.855,-510.096 274.486,-498.106"/>
<polygon fill="none" stroke="#404040" points="274.366,-497.915 267.787,-494.962 267.982,-487.753 274.561,-490.706 274.366,-497.915"/>
<text text-anchor="middle" x="369.5" y="-616.5" font-family="Helvetica,sans-Serif" font-size="10.00"> &#45;item</text>
</g>
<!-- Node14 -->
<g id="node12" class="node"><title>Node14</title>
<polygon fill="none" stroke="#bfbfbf" points="513.5,-836 513.5,-893 548.5,-893 548.5,-836 513.5,-836"/>
<text text-anchor="middle" x="531" y="-881" font-family="Helvetica,sans-Serif" font-size="10.00">float</text>
<polyline fill="none" stroke="#bfbfbf" points="513.5,-874 548.5,-874 "/>
<text text-anchor="middle" x="531" y="-862" font-family="Helvetica,sans-Serif" font-size="10.00"> </text>
<polyline fill="none" stroke="#bfbfbf" points="513.5,-855 548.5,-855 "/>
<text text-anchor="middle" x="531" y="-843" font-family="Helvetica,sans-Serif" font-size="10.00"> </text>
</g>
<!-- Node14&#45;&gt;Node3 -->
<g id="edge22" class="edge"><title>Node14&#45;&gt;Node3</title>
<path fill="none" stroke="#404040" d="M524.105,-835.944C521.583,-825.106 518.889,-812.522 517,-801 509.479,-755.118 504.327,-702.18 501.305,-665.457"/>
<polygon fill="none" stroke="#404040" points="501.28,-665.144 496.815,-659.481 500.324,-653.182 504.789,-658.844 501.28,-665.144"/>
<text text-anchor="middle" x="540" y="-758.5" font-family="Helvetica,sans-Serif" font-size="10.00"> &#45;decrease</text>
</g>
</g>
</svg>
