<?xml version="1.0" encoding="UTF-8" standalone="no"?>
<!DOCTYPE svg PUBLIC "-//W3C//DTD SVG 1.1//EN"
 "http://www.w3.org/Graphics/SVG/1.1/DTD/svg11.dtd">
<!-- Generated by graphviz version 2.38.0 (20140413.2041)
 -->
<!-- Title: BattleManager Pages: 1 -->
<svg width="729pt" height="1054pt"
 viewBox="0.00 0.00 728.50 1054.00" xmlns="http://www.w3.org/2000/svg" xmlns:xlink="http://www.w3.org/1999/xlink">
<g id="graph0" class="graph" transform="scale(1 1) rotate(0) translate(4 1050)">
<title>BattleManager</title>
<!-- Node1 -->
<g id="node1" class="node"><title>Node1</title>
<polygon fill="#bfbfbf" stroke="black" points="310.5,-740.5 310.5,-929.5 426.5,-929.5 426.5,-740.5 310.5,-740.5"/>
<text text-anchor="middle" x="368.5" y="-917.5" font-family="Helvetica,sans-Serif" font-size="10.00">BattleManager</text>
<polyline fill="none" stroke="black" points="310.5,-910.5 426.5,-910.5 "/>
<text text-anchor="start" x="318.5" y="-898.5" font-family="Helvetica,sans-Serif" font-size="10.00">+ Player</text>
<text text-anchor="start" x="318.5" y="-887.5" font-family="Helvetica,sans-Serif" font-size="10.00">+ Enemy</text>
<text text-anchor="start" x="318.5" y="-876.5" font-family="Helvetica,sans-Serif" font-size="10.00">+ WasCriticalHit</text>
<polyline fill="none" stroke="black" points="310.5,-869.5 426.5,-869.5 "/>
<text text-anchor="start" x="318.5" y="-857.5" font-family="Helvetica,sans-Serif" font-size="10.00">+ BattleManager()</text>
<text text-anchor="start" x="318.5" y="-846.5" font-family="Helvetica,sans-Serif" font-size="10.00">+ playerFirst()</text>
<text text-anchor="start" x="318.5" y="-835.5" font-family="Helvetica,sans-Serif" font-size="10.00">+ switchPlayers()</text>
<text text-anchor="start" x="318.5" y="-824.5" font-family="Helvetica,sans-Serif" font-size="10.00">+ isCriticalHit()</text>
<text text-anchor="start" x="318.5" y="-813.5" font-family="Helvetica,sans-Serif" font-size="10.00">+ ranAway()</text>
<text text-anchor="start" x="318.5" y="-802.5" font-family="Helvetica,sans-Serif" font-size="10.00">+ damageCalculation()</text>
<text text-anchor="start" x="318.5" y="-791.5" font-family="Helvetica,sans-Serif" font-size="10.00">+ enemyMove()</text>
<text text-anchor="start" x="318.5" y="-780.5" font-family="Helvetica,sans-Serif" font-size="10.00">+ enemySpecialMove()</text>
<text text-anchor="start" x="318.5" y="-769.5" font-family="Helvetica,sans-Serif" font-size="10.00">+ battleWon()</text>
<text text-anchor="start" x="318.5" y="-758.5" font-family="Helvetica,sans-Serif" font-size="10.00">+ playerFainted()</text>
<text text-anchor="start" x="318.5" y="-747.5" font-family="Helvetica,sans-Serif" font-size="10.00">&#45; characterFainted()</text>
</g>
<!-- Node7 -->
<g id="node7" class="node"><title>Node7</title>
<g id="a_node7"><a xlink:href="class_character_move.html" target="_top" xlink:title="Astract base class for character moves ">
<polygon fill="none" stroke="black" points="224.5,-540.5 224.5,-619.5 310.5,-619.5 310.5,-540.5 224.5,-540.5"/>
<text text-anchor="middle" x="267.5" y="-607.5" font-family="Helvetica,sans-Serif" font-size="10.00">CharacterMove</text>
<polyline fill="none" stroke="black" points="224.5,-600.5 310.5,-600.5 "/>
<text text-anchor="start" x="232.5" y="-588.5" font-family="Helvetica,sans-Serif" font-size="10.00">+ User</text>
<text text-anchor="start" x="232.5" y="-577.5" font-family="Helvetica,sans-Serif" font-size="10.00">+ Target</text>
<text text-anchor="start" x="232.5" y="-566.5" font-family="Helvetica,sans-Serif" font-size="10.00">+ Text</text>
<polyline fill="none" stroke="black" points="224.5,-559.5 310.5,-559.5 "/>
<text text-anchor="start" x="232.5" y="-547.5" font-family="Helvetica,sans-Serif" font-size="10.00">+ performMove()</text>
</a>
</g>
</g>
<!-- Node1&#45;&gt;Node7 -->
<g id="edge10" class="edge"><title>Node1&#45;&gt;Node7</title>
<path fill="none" stroke="#404040" d="M331.035,-740.152C316.25,-703.117 299.865,-662.074 287.438,-630.944"/>
<polygon fill="none" stroke="#404040" points="287.33,-630.673 281.39,-626.583 282.881,-619.528 288.82,-623.617 287.33,-630.673"/>
<text text-anchor="middle" x="344.5" y="-679.5" font-family="Helvetica,sans-Serif" font-size="10.00"> #manager</text>
</g>
<!-- Node2 -->
<g id="node2" class="node"><title>Node2</title>
<polygon fill="none" stroke="#bfbfbf" points="123,-988.5 123,-1045.5 164,-1045.5 164,-988.5 123,-988.5"/>
<text text-anchor="middle" x="143.5" y="-1033.5" font-family="Helvetica,sans-Serif" font-size="10.00">string</text>
<polyline fill="none" stroke="#bfbfbf" points="123,-1026.5 164,-1026.5 "/>
<text text-anchor="middle" x="143.5" y="-1014.5" font-family="Helvetica,sans-Serif" font-size="10.00"> </text>
<polyline fill="none" stroke="#bfbfbf" points="123,-1007.5 164,-1007.5 "/>
<text text-anchor="middle" x="143.5" y="-995.5" font-family="Helvetica,sans-Serif" font-size="10.00"> </text>
</g>
<!-- Node2&#45;&gt;Node1 -->
<g id="edge1" class="edge"><title>Node2&#45;&gt;Node1</title>
<path fill="none" stroke="#404040" d="M164.078,-1002C184.587,-988.108 217.042,-966.311 245.5,-948 258.257,-939.792 262.614,-939.426 274.5,-930 283.492,-922.869 292.538,-914.962 301.277,-906.849"/>
<polygon fill="none" stroke="#404040" points="301.545,-906.595 303.151,-899.565 310.258,-898.344 308.652,-905.374 301.545,-906.595"/>
<text text-anchor="middle" x="287.5" y="-962" font-family="Helvetica,sans-Serif" font-size="10.00"> +forceEnemyMove</text>
<text text-anchor="middle" x="287.5" y="-951" font-family="Helvetica,sans-Serif" font-size="10.00">+forceCriticalHits</text>
</g>
<!-- Node4 -->
<g id="node4" class="node"><title>Node4</title>
<g id="a_node4"><a xlink:href="class_character.html" target="_top" xlink:title="Base abstract class for Enemy and Player to inherit from. Defines all shared variables, their constructor and their setters and getters ">
<polygon fill="none" stroke="black" points="281,-150.5 281,-328.5 376,-328.5 376,-150.5 281,-150.5"/>
<text text-anchor="middle" x="328.5" y="-316.5" font-family="Helvetica,sans-Serif" font-size="10.00">Character</text>
<polyline fill="none" stroke="black" points="281,-309.5 376,-309.5 "/>
<text text-anchor="start" x="289" y="-297.5" font-family="Helvetica,sans-Serif" font-size="10.00">+ Name</text>
<text text-anchor="start" x="289" y="-286.5" font-family="Helvetica,sans-Serif" font-size="10.00">+ Level</text>
<text text-anchor="start" x="289" y="-275.5" font-family="Helvetica,sans-Serif" font-size="10.00">+ Health</text>
<text text-anchor="start" x="289" y="-264.5" font-family="Helvetica,sans-Serif" font-size="10.00">+ Attack</text>
<text text-anchor="start" x="289" y="-253.5" font-family="Helvetica,sans-Serif" font-size="10.00">+ Defence</text>
<text text-anchor="start" x="289" y="-242.5" font-family="Helvetica,sans-Serif" font-size="10.00">+ MaximumMagic</text>
<text text-anchor="start" x="289" y="-231.5" font-family="Helvetica,sans-Serif" font-size="10.00">+ Magic</text>
<text text-anchor="start" x="289" y="-220.5" font-family="Helvetica,sans-Serif" font-size="10.00">+ Luck</text>
<text text-anchor="start" x="289" y="-209.5" font-family="Helvetica,sans-Serif" font-size="10.00">+ Speed</text>
<text text-anchor="start" x="289" y="-198.5" font-family="Helvetica,sans-Serif" font-size="10.00">+ Special1</text>
<text text-anchor="start" x="289" y="-187.5" font-family="Helvetica,sans-Serif" font-size="10.00">+ Special2</text>
<text text-anchor="start" x="289" y="-176.5" font-family="Helvetica,sans-Serif" font-size="10.00">+ Image</text>
<polyline fill="none" stroke="black" points="281,-169.5 376,-169.5 "/>
<text text-anchor="start" x="289" y="-157.5" font-family="Helvetica,sans-Serif" font-size="10.00"># Character()</text>
</a>
</g>
</g>
<!-- Node2&#45;&gt;Node4 -->
<g id="edge4" class="edge"><title>Node2&#45;&gt;Node4</title>
<path fill="none" stroke="#404040" d="M130.499,-988.32C115.389,-953.556 92.5,-891.703 92.5,-836 92.5,-836 92.5,-836 92.5,-431.5 92.5,-340.628 199.533,-285.526 269.437,-259.23"/>
<polygon fill="none" stroke="#404040" points="269.469,-259.218 273.734,-253.404 280.742,-255.104 276.477,-260.919 269.469,-259.218"/>
<text text-anchor="middle" x="109" y="-577.5" font-family="Helvetica,sans-Serif" font-size="10.00"> #name</text>
</g>
<!-- Node6 -->
<g id="node6" class="node"><title>Node6</title>
<g id="a_node6"><a xlink:href="class_special_move.html" target="_top" xlink:title="Special move abstract base class that expands upon CharacterMove, adding magic properties ...">
<polygon fill="none" stroke="black" points="120.5,-387.5 120.5,-477.5 218.5,-477.5 218.5,-387.5 120.5,-387.5"/>
<text text-anchor="middle" x="169.5" y="-465.5" font-family="Helvetica,sans-Serif" font-size="10.00">SpecialMove</text>
<polyline fill="none" stroke="black" points="120.5,-458.5 218.5,-458.5 "/>
<text text-anchor="start" x="128.5" y="-446.5" font-family="Helvetica,sans-Serif" font-size="10.00">+ Magic</text>
<text text-anchor="start" x="128.5" y="-435.5" font-family="Helvetica,sans-Serif" font-size="10.00">+ Desc</text>
<polyline fill="none" stroke="black" points="120.5,-428.5 218.5,-428.5 "/>
<text text-anchor="start" x="128.5" y="-416.5" font-family="Helvetica,sans-Serif" font-size="10.00">+ setUp()</text>
<text text-anchor="start" x="128.5" y="-405.5" font-family="Helvetica,sans-Serif" font-size="10.00">+ decreaseMagic()</text>
<text text-anchor="start" x="128.5" y="-394.5" font-family="Helvetica,sans-Serif" font-size="10.00"># SpecialMove()</text>
</a>
</g>
</g>
<!-- Node2&#45;&gt;Node6 -->
<g id="edge11" class="edge"><title>Node2&#45;&gt;Node6</title>
<path fill="none" stroke="#404040" d="M142.471,-988.283C140.407,-926.204 136.603,-771.296 144.5,-642 147.666,-590.167 155.048,-531.466 160.975,-489.586"/>
<polygon fill="none" stroke="#404040" points="160.976,-489.576 157.87,-483.069 162.682,-477.698 165.789,-484.206 160.976,-489.576"/>
<text text-anchor="middle" x="159.5" y="-679.5" font-family="Helvetica,sans-Serif" font-size="10.00"> #desc</text>
</g>
<!-- Node2&#45;&gt;Node7 -->
<g id="edge8" class="edge"><title>Node2&#45;&gt;Node7</title>
<path fill="none" stroke="#404040" d="M152.44,-988.166C169.039,-936.131 205.395,-820.463 232.5,-722 240.714,-692.161 249.095,-658.532 255.596,-631.602"/>
<polygon fill="none" stroke="#404040" points="255.643,-631.406 253.153,-624.639 258.443,-619.738 260.932,-626.505 255.643,-631.406"/>
<text text-anchor="middle" x="239" y="-832.5" font-family="Helvetica,sans-Serif" font-size="10.00"> #text</text>
</g>
<!-- Node11 -->
<g id="node11" class="node"><title>Node11</title>
<g id="a_node11"><a xlink:href="class_item.html" target="_top" xlink:title="Abstract class for items that can be equipped to a player, increasing some of their stats ...">
<polygon fill="none" stroke="black" points="0,-642.5 0,-721.5 77,-721.5 77,-642.5 0,-642.5"/>
<text text-anchor="middle" x="38.5" y="-709.5" font-family="Helvetica,sans-Serif" font-size="10.00">Item</text>
<polyline fill="none" stroke="black" points="0,-702.5 77,-702.5 "/>
<text text-anchor="start" x="8" y="-690.5" font-family="Helvetica,sans-Serif" font-size="10.00">+ Name</text>
<text text-anchor="start" x="8" y="-679.5" font-family="Helvetica,sans-Serif" font-size="10.00">+ Desc</text>
<polyline fill="none" stroke="black" points="0,-672.5 77,-672.5 "/>
<text text-anchor="start" x="8" y="-660.5" font-family="Helvetica,sans-Serif" font-size="10.00">+ applyBuffs()</text>
<text text-anchor="start" x="8" y="-649.5" font-family="Helvetica,sans-Serif" font-size="10.00">+ revertBuffs()</text>
</a>
</g>
</g>
<!-- Node2&#45;&gt;Node11 -->
<g id="edge20" class="edge"><title>Node2&#45;&gt;Node11</title>
<path fill="none" stroke="#404040" d="M122.687,-1012.39C100.119,-1007.26 65.1028,-995.489 48.5,-970 2.03933,-898.673 13.1037,-794.827 25.6277,-733.566"/>
<polygon fill="none" stroke="#404040" points="25.6921,-733.266 23.045,-726.558 28.2186,-721.535 30.8657,-728.243 25.6921,-733.266"/>
<text text-anchor="middle" x="63.5" y="-962" font-family="Helvetica,sans-Serif" font-size="10.00"> #desc</text>
<text text-anchor="middle" x="63.5" y="-951" font-family="Helvetica,sans-Serif" font-size="10.00">#name</text>
</g>
<!-- Node3 -->
<g id="node3" class="node"><title>Node3</title>
<g id="a_node3"><a xlink:href="class_enemy.html" target="_top" xlink:title="Defines an AI controller enemy to fight in battle scenes">
<polygon fill="none" stroke="black" points="479,-28 479,-85 546,-85 546,-28 479,-28"/>
<text text-anchor="middle" x="512.5" y="-73" font-family="Helvetica,sans-Serif" font-size="10.00">Enemy</text>
<polyline fill="none" stroke="black" points="479,-66 546,-66 "/>
<text text-anchor="start" x="487" y="-54" font-family="Helvetica,sans-Serif" font-size="10.00">+ ExpGiven</text>
<polyline fill="none" stroke="black" points="479,-47 546,-47 "/>
<text text-anchor="start" x="487" y="-35" font-family="Helvetica,sans-Serif" font-size="10.00">+ Enemy()</text>
</a>
</g>
</g>
<!-- Node3&#45;&gt;Node1 -->
<g id="edge2" class="edge"><title>Node3&#45;&gt;Node1</title>
<path fill="none" stroke="#404040" d="M507.707,-85.0761C491.835,-176.118 439.276,-475.352 391.5,-722 391.104,-724.043 390.702,-726.107 390.295,-728.186"/>
<polygon fill="none" stroke="#404040" points="390.243,-728.453 393.005,-735.115 387.918,-740.226 385.156,-733.565 390.243,-728.453"/>
<text text-anchor="middle" x="472.5" y="-430" font-family="Helvetica,sans-Serif" font-size="10.00"> &#45;enemy</text>
</g>
<!-- Node4&#45;&gt;Node3 -->
<g id="edge3" class="edge"><title>Node4&#45;&gt;Node3</title>
<path fill="none" stroke="midnightblue" d="M383.745,-184.155C416.899,-151.543 457.673,-111.433 484.337,-85.204"/>
<polygon fill="none" stroke="midnightblue" points="381.038,-181.909 376.364,-191.417 385.947,-186.899 381.038,-181.909"/>
</g>
<!-- Node4&#45;&gt;Node7 -->
<g id="edge9" class="edge"><title>Node4&#45;&gt;Node7</title>
<path fill="none" stroke="#404040" d="M282.305,-328.772C274.515,-347.518 267.624,-367.537 263.5,-387 253.522,-434.09 256.071,-489.133 260.191,-528.181"/>
<polygon fill="none" stroke="#404040" points="260.209,-528.343 264.864,-533.851 261.57,-540.266 256.915,-534.758 260.209,-528.343"/>
<text text-anchor="middle" x="280.5" y="-435.5" font-family="Helvetica,sans-Serif" font-size="10.00"> #target</text>
<text text-anchor="middle" x="280.5" y="-424.5" font-family="Helvetica,sans-Serif" font-size="10.00">#user</text>
</g>
<!-- Node10 -->
<g id="node10" class="node"><title>Node10</title>
<g id="a_node10"><a xlink:href="class_player.html" target="_top" xlink:title="Defines a playable character for use in battle scenes">
<polygon fill="none" stroke="black" points="322.5,-0.5 322.5,-112.5 434.5,-112.5 434.5,-0.5 322.5,-0.5"/>
<text text-anchor="middle" x="378.5" y="-100.5" font-family="Helvetica,sans-Serif" font-size="10.00">Player</text>
<polyline fill="none" stroke="black" points="322.5,-93.5 434.5,-93.5 "/>
<text text-anchor="start" x="330.5" y="-81.5" font-family="Helvetica,sans-Serif" font-size="10.00">+ Exp</text>
<text text-anchor="start" x="330.5" y="-70.5" font-family="Helvetica,sans-Serif" font-size="10.00">+ Item</text>
<text text-anchor="start" x="330.5" y="-59.5" font-family="Helvetica,sans-Serif" font-size="10.00">+ ExpToNextLevel</text>
<polyline fill="none" stroke="black" points="322.5,-52.5 434.5,-52.5 "/>
<text text-anchor="start" x="330.5" y="-40.5" font-family="Helvetica,sans-Serif" font-size="10.00">+ Player()</text>
<text text-anchor="start" x="330.5" y="-29.5" font-family="Helvetica,sans-Serif" font-size="10.00">+ gainExp()</text>
<text text-anchor="start" x="330.5" y="-18.5" font-family="Helvetica,sans-Serif" font-size="10.00">+ levelUp()</text>
<text text-anchor="start" x="330.5" y="-7.5" font-family="Helvetica,sans-Serif" font-size="10.00">&#45; setExpToNextLevel()</text>
</a>
</g>
</g>
<!-- Node4&#45;&gt;Node10 -->
<g id="edge18" class="edge"><title>Node4&#45;&gt;Node10</title>
<path fill="none" stroke="midnightblue" d="M355.586,-140.447C358.215,-130.932 360.812,-121.529 363.262,-112.663"/>
<polygon fill="none" stroke="midnightblue" points="352.13,-139.815 352.841,-150.386 358.877,-141.679 352.13,-139.815"/>
</g>
<!-- Node5 -->
<g id="node5" class="node"><title>Node5</title>
<polygon fill="none" stroke="#bfbfbf" points="462,-988.5 462,-1045.5 491,-1045.5 491,-988.5 462,-988.5"/>
<text text-anchor="middle" x="476.5" y="-1033.5" font-family="Helvetica,sans-Serif" font-size="10.00">int</text>
<polyline fill="none" stroke="#bfbfbf" points="462,-1026.5 491,-1026.5 "/>
<text text-anchor="middle" x="476.5" y="-1014.5" font-family="Helvetica,sans-Serif" font-size="10.00"> </text>
<polyline fill="none" stroke="#bfbfbf" points="462,-1007.5 491,-1007.5 "/>
<text text-anchor="middle" x="476.5" y="-995.5" font-family="Helvetica,sans-Serif" font-size="10.00"> </text>
</g>
<!-- Node5&#45;&gt;Node1 -->
<g id="edge15" class="edge"><title>Node5&#45;&gt;Node1</title>
<path fill="none" stroke="#404040" d="M461.776,-1006.17C450.088,-997.733 434.017,-984.647 423.5,-970 416.968,-960.904 411.045,-950.917 405.716,-940.626"/>
<polygon fill="none" stroke="#404040" points="405.69,-940.574 399.447,-936.966 400.377,-929.815 406.62,-933.423 405.69,-940.574"/>
<text text-anchor="middle" x="443" y="-956.5" font-family="Helvetica,sans-Serif" font-size="10.00"> +money</text>
</g>
<!-- Node5&#45;&gt;Node3 -->
<g id="edge14" class="edge"><title>Node5&#45;&gt;Node3</title>
<path fill="none" stroke="#404040" d="M491.385,-1013.36C515.281,-1008.47 562.639,-996.038 593.5,-970 646.688,-925.124 674.5,-905.591 674.5,-836 674.5,-836 674.5,-836 674.5,-238.5 674.5,-167.536 604.505,-111.66 556.533,-81.6975"/>
<polygon fill="none" stroke="#404040" points="556.327,-81.5722 549.122,-81.8805 546.067,-75.3487 553.271,-75.0404 556.327,-81.5722"/>
<text text-anchor="middle" x="697.5" y="-504.5" font-family="Helvetica,sans-Serif" font-size="10.00"> &#45;expGiven</text>
</g>
<!-- Node5&#45;&gt;Node4 -->
<g id="edge5" class="edge"><title>Node5&#45;&gt;Node4</title>
<path fill="none" stroke="#404040" d="M478.842,-988.367C485.481,-898.669 499.334,-608.63 423.5,-387 414.225,-359.892 398.849,-332.832 383.142,-309.479"/>
<polygon fill="none" stroke="#404040" points="382.98,-309.245 376.281,-306.577 376.166,-299.367 382.866,-302.035 382.98,-309.245"/>
<text text-anchor="middle" x="511" y="-616" font-family="Helvetica,sans-Serif" font-size="10.00"> #speed</text>
<text text-anchor="middle" x="511" y="-605" font-family="Helvetica,sans-Serif" font-size="10.00">#luck</text>
<text text-anchor="middle" x="511" y="-594" font-family="Helvetica,sans-Serif" font-size="10.00">#health</text>
<text text-anchor="middle" x="511" y="-583" font-family="Helvetica,sans-Serif" font-size="10.00">#magic</text>
<text text-anchor="middle" x="511" y="-572" font-family="Helvetica,sans-Serif" font-size="10.00">#maximumMagic</text>
<text text-anchor="middle" x="511" y="-561" font-family="Helvetica,sans-Serif" font-size="10.00">#attack</text>
<text text-anchor="middle" x="511" y="-550" font-family="Helvetica,sans-Serif" font-size="10.00">#defence</text>
<text text-anchor="middle" x="511" y="-539" font-family="Helvetica,sans-Serif" font-size="10.00">#level</text>
</g>
<!-- Node5&#45;&gt;Node6 -->
<g id="edge12" class="edge"><title>Node5&#45;&gt;Node6</title>
<path fill="none" stroke="#404040" d="M461.604,-1012.24C434.724,-1005.25 376.53,-989.227 329.5,-970 309.629,-961.876 306.634,-955.446 286.5,-948 254.348,-936.11 233.84,-956.001 211.5,-930 204.39,-921.725 182.395,-618.035 173.397,-489.767"/>
<polygon fill="none" stroke="#404040" points="173.38,-489.524 168.971,-483.818 172.543,-477.554 176.952,-483.26 173.38,-489.524"/>
<text text-anchor="middle" x="208" y="-679.5" font-family="Helvetica,sans-Serif" font-size="10.00"> #magic</text>
</g>
<!-- Node5&#45;&gt;Node10 -->
<g id="edge21" class="edge"><title>Node5&#45;&gt;Node10</title>
<path fill="none" stroke="#404040" d="M489.195,-988.142C491.547,-982.24 493.796,-975.983 495.5,-970 548.794,-782.897 586.254,-727.595 552.5,-536 525.521,-382.86 453.459,-214.241 411.011,-123.727"/>
<polygon fill="none" stroke="#404040" points="410.983,-123.667 404.805,-119.949 405.86,-112.816 412.039,-116.534 410.983,-123.667"/>
<text text-anchor="middle" x="587" y="-510" font-family="Helvetica,sans-Serif" font-size="10.00"> &#45;expToNextLevel</text>
<text text-anchor="middle" x="587" y="-499" font-family="Helvetica,sans-Serif" font-size="10.00">&#45;exp</text>
</g>
<!-- Node6&#45;&gt;Node4 -->
<g id="edge6" class="edge"><title>Node6&#45;&gt;Node4</title>
<path fill="none" stroke="#404040" d="M177.813,-387.146C181.728,-373.494 187.389,-358.932 195.5,-347 214.953,-318.385 244.397,-293.684 270.64,-275.296"/>
<polygon fill="none" stroke="#404040" points="270.973,-275.068 273.68,-268.384 280.89,-268.312 278.184,-274.996 270.973,-275.068"/>
<text text-anchor="middle" x="218" y="-361" font-family="Helvetica,sans-Serif" font-size="10.00"> #special1</text>
<text text-anchor="middle" x="218" y="-350" font-family="Helvetica,sans-Serif" font-size="10.00">#special2</text>
</g>
<!-- Node7&#45;&gt;Node6 -->
<g id="edge7" class="edge"><title>Node7&#45;&gt;Node6</title>
<path fill="none" stroke="midnightblue" d="M235.866,-532.033C224.119,-514.593 210.844,-494.883 199.27,-477.699"/>
<polygon fill="none" stroke="midnightblue" points="233.006,-534.052 241.495,-540.391 238.812,-530.141 233.006,-534.052"/>
</g>
<!-- Node8 -->
<g id="node8" class="node"><title>Node8</title>
<polygon fill="none" stroke="#bfbfbf" points="307,-404 307,-461 368,-461 368,-404 307,-404"/>
<text text-anchor="middle" x="337.5" y="-449" font-family="Helvetica,sans-Serif" font-size="10.00">Texture2D</text>
<polyline fill="none" stroke="#bfbfbf" points="307,-442 368,-442 "/>
<text text-anchor="middle" x="337.5" y="-430" font-family="Helvetica,sans-Serif" font-size="10.00"> </text>
<polyline fill="none" stroke="#bfbfbf" points="307,-423 368,-423 "/>
<text text-anchor="middle" x="337.5" y="-411" font-family="Helvetica,sans-Serif" font-size="10.00"> </text>
</g>
<!-- Node8&#45;&gt;Node4 -->
<g id="edge13" class="edge"><title>Node8&#45;&gt;Node4</title>
<path fill="none" stroke="#404040" d="M336.191,-403.727C335.394,-386.811 334.322,-364.053 333.231,-340.91"/>
<polygon fill="none" stroke="#404040" points="333.226,-340.788 328.948,-334.983 332.661,-328.802 336.939,-334.607 333.226,-340.788"/>
<text text-anchor="middle" x="352" y="-355.5" font-family="Helvetica,sans-Serif" font-size="10.00"> #image</text>
</g>
<!-- Node9 -->
<g id="node9" class="node"><title>Node9</title>
<polygon fill="none" stroke="#bfbfbf" points="316,-988.5 316,-1045.5 351,-1045.5 351,-988.5 316,-988.5"/>
<text text-anchor="middle" x="333.5" y="-1033.5" font-family="Helvetica,sans-Serif" font-size="10.00">bool</text>
<polyline fill="none" stroke="#bfbfbf" points="316,-1026.5 351,-1026.5 "/>
<text text-anchor="middle" x="333.5" y="-1014.5" font-family="Helvetica,sans-Serif" font-size="10.00"> </text>
<polyline fill="none" stroke="#bfbfbf" points="316,-1007.5 351,-1007.5 "/>
<text text-anchor="middle" x="333.5" y="-995.5" font-family="Helvetica,sans-Serif" font-size="10.00"> </text>
</g>
<!-- Node9&#45;&gt;Node1 -->
<g id="edge16" class="edge"><title>Node9&#45;&gt;Node1</title>
<path fill="none" stroke="#404040" d="M332.163,-988.391C332.008,-975.976 332.444,-961.182 334.5,-948 334.838,-945.835 335.207,-943.654 335.605,-941.462"/>
<polygon fill="none" stroke="#404040" points="335.612,-941.426 332.879,-934.753 337.988,-929.663 340.721,-936.336 335.612,-941.426"/>
<text text-anchor="middle" x="367.5" y="-956.5" font-family="Helvetica,sans-Serif" font-size="10.00"> &#45;wasCriticalHit</text>
</g>
<!-- Node10&#45;&gt;Node1 -->
<g id="edge17" class="edge"><title>Node10&#45;&gt;Node1</title>
<path fill="none" stroke="#404040" d="M382.671,-112.743C383.432,-125.002 384.109,-137.937 384.5,-150 391.13,-354.637 381.578,-593.797 374.63,-728.218"/>
<polygon fill="none" stroke="#404040" points="374.614,-728.513 378.295,-734.714 373.987,-740.497 370.306,-734.296 374.614,-728.513"/>
<text text-anchor="middle" x="403" y="-430" font-family="Helvetica,sans-Serif" font-size="10.00"> &#45;player</text>
</g>
<!-- Node11&#45;&gt;Node10 -->
<g id="edge19" class="edge"><title>Node11&#45;&gt;Node10</title>
<path fill="none" stroke="#404040" d="M38.8526,-642.18C39.1405,-607.118 39.5,-554.104 39.5,-508 39.5,-508 39.5,-508 39.5,-238.5 39.5,-116.972 211.129,-76.7498 310.147,-63.657"/>
<polygon fill="none" stroke="#404040" points="310.233,-63.6463 315.69,-58.9323 322.141,-62.1564 316.684,-66.8704 310.233,-63.6463"/>
<text text-anchor="middle" x="52" y="-430" font-family="Helvetica,sans-Serif" font-size="10.00"> &#45;item</text>
</g>
</g>
</svg>
