<?xml version="1.0" encoding="UTF-8" standalone="no"?>
<!DOCTYPE svg PUBLIC "-//W3C//DTD SVG 1.1//EN"
 "http://www.w3.org/Graphics/SVG/1.1/DTD/svg11.dtd">
<!-- Generated by graphviz version 2.38.0 (20140413.2041)
 -->
<!-- Title: MenuScript Pages: 1 -->
<svg width="91pt" height="270pt"
 viewBox="0.00 0.00 91.00 270.00" xmlns="http://www.w3.org/2000/svg" xmlns:xlink="http://www.w3.org/1999/xlink">
<g id="graph0" class="graph" transform="scale(1 1) rotate(0) translate(4 266)">
<title>MenuScript</title>
<!-- Node0 -->
<g id="node1" class="node"><title>Node0</title>
<polygon fill="#bfbfbf" stroke="black" points="4,-0.5 4,-167.5 79,-167.5 79,-0.5 4,-0.5"/>
<text text-anchor="middle" x="41.5" y="-155.5" font-family="Helvetica,sans-Serif" font-size="10.00">MenuScript</text>
<polyline fill="none" stroke="black" points="4,-148.5 79,-148.5 "/>
<text text-anchor="start" x="12" y="-136.5" font-family="Helvetica,sans-Serif" font-size="10.00">+ quitMenu</text>
<text text-anchor="start" x="12" y="-125.5" font-family="Helvetica,sans-Serif" font-size="10.00">+ exitText</text>
<text text-anchor="start" x="12" y="-114.5" font-family="Helvetica,sans-Serif" font-size="10.00">+ startText</text>
<text text-anchor="start" x="12" y="-103.5" font-family="Helvetica,sans-Serif" font-size="10.00">&#45; player</text>
<text text-anchor="start" x="12" y="-92.5" font-family="Helvetica,sans-Serif" font-size="10.00">&#45; audioText</text>
<text text-anchor="start" x="12" y="-81.5" font-family="Helvetica,sans-Serif" font-size="10.00">&#45; soundOn</text>
<polyline fill="none" stroke="black" points="4,-74.5 79,-74.5 "/>
<text text-anchor="start" x="12" y="-62.5" font-family="Helvetica,sans-Serif" font-size="10.00">+ ExitPress()</text>
<text text-anchor="start" x="12" y="-51.5" font-family="Helvetica,sans-Serif" font-size="10.00">+ NoPress()</text>
<text text-anchor="start" x="12" y="-40.5" font-family="Helvetica,sans-Serif" font-size="10.00">+ StartLevel()</text>
<text text-anchor="start" x="12" y="-29.5" font-family="Helvetica,sans-Serif" font-size="10.00">+ ExitGame()</text>
<text text-anchor="start" x="12" y="-18.5" font-family="Helvetica,sans-Serif" font-size="10.00">+ sound()</text>
<text text-anchor="start" x="12" y="-7.5" font-family="Helvetica,sans-Serif" font-size="10.00">&#45; Start()</text>
</g>
<!-- Node1 -->
<g id="node2" class="node"><title>Node1</title>
<g id="a_node2"><a xlink:href="class_mono_behaviour.html" target="_top" xlink:title="{MonoBehaviour\n||}">
<polygon fill="none" stroke="black" points="0,-204.5 0,-261.5 83,-261.5 83,-204.5 0,-204.5"/>
<text text-anchor="middle" x="41.5" y="-249.5" font-family="Helvetica,sans-Serif" font-size="10.00">MonoBehaviour</text>
<polyline fill="none" stroke="black" points="0,-242.5 83,-242.5 "/>
<text text-anchor="middle" x="41.5" y="-230.5" font-family="Helvetica,sans-Serif" font-size="10.00"> </text>
<polyline fill="none" stroke="black" points="0,-223.5 83,-223.5 "/>
<text text-anchor="middle" x="41.5" y="-211.5" font-family="Helvetica,sans-Serif" font-size="10.00"> </text>
</a>
</g>
</g>
<!-- Node1&#45;&gt;Node0 -->
<g id="edge1" class="edge"><title>Node1&#45;&gt;Node0</title>
<path fill="none" stroke="midnightblue" d="M41.5,-194.35C41.5,-186.08 41.5,-177.008 41.5,-167.738"/>
<polygon fill="none" stroke="midnightblue" points="38.0001,-194.35 41.5,-204.35 45.0001,-194.35 38.0001,-194.35"/>
</g>
</g>
</svg>
