<?xml version="1.0" encoding="UTF-8" standalone="no"?>
<!DOCTYPE svg PUBLIC "-//W3C//DTD SVG 1.1//EN"
 "http://www.w3.org/Graphics/SVG/1.1/DTD/svg11.dtd">
<!-- Generated by graphviz version 2.38.0 (20140413.2041)
 -->
<!-- Title: PlayerMenu Pages: 1 -->
<svg width="831pt" height="1276pt"
 viewBox="0.00 0.00 830.50 1276.00" xmlns="http://www.w3.org/2000/svg" xmlns:xlink="http://www.w3.org/1999/xlink">
<g id="graph0" class="graph" transform="scale(1 1) rotate(0) translate(4 1272)">
<title>PlayerMenu</title>
<!-- Node2 -->
<g id="node1" class="node"><title>Node2</title>
<polygon fill="#bfbfbf" stroke="black" points="85.5,-719.5 85.5,-798.5 173.5,-798.5 173.5,-719.5 85.5,-719.5"/>
<text text-anchor="middle" x="129.5" y="-786.5" font-family="Helvetica,sans-Serif" font-size="10.00">PlayerMenu</text>
<polyline fill="none" stroke="black" points="85.5,-779.5 173.5,-779.5 "/>
<text text-anchor="middle" x="129.5" y="-767.5" font-family="Helvetica,sans-Serif" font-size="10.00"> </text>
<polyline fill="none" stroke="black" points="85.5,-760.5 173.5,-760.5 "/>
<text text-anchor="start" x="93.5" y="-748.5" font-family="Helvetica,sans-Serif" font-size="10.00">+ OnItemPlace()</text>
<text text-anchor="start" x="93.5" y="-737.5" font-family="Helvetica,sans-Serif" font-size="10.00">+ back()</text>
<text text-anchor="start" x="93.5" y="-726.5" font-family="Helvetica,sans-Serif" font-size="10.00">&#45; Start()</text>
</g>
<!-- Node3 -->
<g id="node2" class="node"><title>Node3</title>
<g id="a_node2"><a xlink:href="class_mono_behaviour.html" target="_top" xlink:title="{MonoBehaviour\n||}">
<polygon fill="none" stroke="black" points="89,-929 89,-986 172,-986 172,-929 89,-929"/>
<text text-anchor="middle" x="130.5" y="-974" font-family="Helvetica,sans-Serif" font-size="10.00">MonoBehaviour</text>
<polyline fill="none" stroke="black" points="89,-967 172,-967 "/>
<text text-anchor="middle" x="130.5" y="-955" font-family="Helvetica,sans-Serif" font-size="10.00"> </text>
<polyline fill="none" stroke="black" points="89,-948 172,-948 "/>
<text text-anchor="middle" x="130.5" y="-936" font-family="Helvetica,sans-Serif" font-size="10.00"> </text>
</a>
</g>
</g>
<!-- Node3&#45;&gt;Node2 -->
<g id="edge1" class="edge"><title>Node3&#45;&gt;Node2</title>
<path fill="none" stroke="midnightblue" d="M130.307,-918.621C130.132,-884.153 129.874,-833.497 129.697,-798.757"/>
<polygon fill="none" stroke="midnightblue" points="126.808,-918.781 130.359,-928.763 133.808,-918.745 126.808,-918.781"/>
</g>
<!-- Node4 -->
<g id="node3" class="node"><title>Node4</title>
<polygon fill="none" stroke="#bfbfbf" points="0,-929 0,-986 71,-986 71,-929 0,-929"/>
<text text-anchor="middle" x="35.5" y="-974" font-family="Helvetica,sans-Serif" font-size="10.00">GameObject</text>
<polyline fill="none" stroke="#bfbfbf" points="0,-967 71,-967 "/>
<text text-anchor="middle" x="35.5" y="-955" font-family="Helvetica,sans-Serif" font-size="10.00"> </text>
<polyline fill="none" stroke="#bfbfbf" points="0,-948 71,-948 "/>
<text text-anchor="middle" x="35.5" y="-936" font-family="Helvetica,sans-Serif" font-size="10.00"> </text>
</g>
<!-- Node4&#45;&gt;Node2 -->
<g id="edge2" class="edge"><title>Node4&#45;&gt;Node2</title>
<path fill="none" stroke="#404040" d="M48.7685,-928.763C63.4906,-897.988 87.5453,-847.703 105.575,-810.014"/>
<polygon fill="none" stroke="#404040" points="105.781,-809.582 104.762,-802.443 110.96,-798.757 111.979,-805.896 105.781,-809.582"/>
<text text-anchor="middle" x="91" y="-875" font-family="Helvetica,sans-Serif" font-size="10.00"> &#45;player</text>
</g>
<!-- Node5 -->
<g id="node4" class="node"><title>Node5</title>
<g id="a_node4"><a xlink:href="class_player.html" target="_top" xlink:title="Defines a playable character for use in battle scenes">
<polygon fill="none" stroke="black" points="229.5,-901.5 229.5,-1013.5 341.5,-1013.5 341.5,-901.5 229.5,-901.5"/>
<text text-anchor="middle" x="285.5" y="-1001.5" font-family="Helvetica,sans-Serif" font-size="10.00">Player</text>
<polyline fill="none" stroke="black" points="229.5,-994.5 341.5,-994.5 "/>
<text text-anchor="start" x="237.5" y="-982.5" font-family="Helvetica,sans-Serif" font-size="10.00">+ Exp</text>
<text text-anchor="start" x="237.5" y="-971.5" font-family="Helvetica,sans-Serif" font-size="10.00">+ Item</text>
<text text-anchor="start" x="237.5" y="-960.5" font-family="Helvetica,sans-Serif" font-size="10.00">+ ExpToNextLevel</text>
<polyline fill="none" stroke="black" points="229.5,-953.5 341.5,-953.5 "/>
<text text-anchor="start" x="237.5" y="-941.5" font-family="Helvetica,sans-Serif" font-size="10.00">+ Player()</text>
<text text-anchor="start" x="237.5" y="-930.5" font-family="Helvetica,sans-Serif" font-size="10.00">+ gainExp()</text>
<text text-anchor="start" x="237.5" y="-919.5" font-family="Helvetica,sans-Serif" font-size="10.00">+ levelUp()</text>
<text text-anchor="start" x="237.5" y="-908.5" font-family="Helvetica,sans-Serif" font-size="10.00">&#45; setExpToNextLevel()</text>
</a>
</g>
</g>
<!-- Node5&#45;&gt;Node2 -->
<g id="edge3" class="edge"><title>Node5&#45;&gt;Node2</title>
<path fill="none" stroke="#404040" d="M241.63,-901.241C218.413,-871.997 190.171,-836.422 167.839,-808.292"/>
<polygon fill="none" stroke="#404040" points="167.666,-808.074 160.802,-805.862 160.204,-798.675 167.068,-800.888 167.666,-808.074"/>
<text text-anchor="middle" x="245.5" y="-875" font-family="Helvetica,sans-Serif" font-size="10.00"> &#45;players</text>
</g>
<!-- Node11 -->
<g id="node10" class="node"><title>Node11</title>
<g id="a_node10"><a xlink:href="class_battle_manager.html" target="_top" xlink:title="Holds current Player and Enemy objects in battle and provides functions for MainBattle and other obje...">
<polygon fill="none" stroke="black" points="397.5,-664.5 397.5,-853.5 513.5,-853.5 513.5,-664.5 397.5,-664.5"/>
<text text-anchor="middle" x="455.5" y="-841.5" font-family="Helvetica,sans-Serif" font-size="10.00">BattleManager</text>
<polyline fill="none" stroke="black" points="397.5,-834.5 513.5,-834.5 "/>
<text text-anchor="start" x="405.5" y="-822.5" font-family="Helvetica,sans-Serif" font-size="10.00">+ Player</text>
<text text-anchor="start" x="405.5" y="-811.5" font-family="Helvetica,sans-Serif" font-size="10.00">+ Enemy</text>
<text text-anchor="start" x="405.5" y="-800.5" font-family="Helvetica,sans-Serif" font-size="10.00">+ WasCriticalHit</text>
<polyline fill="none" stroke="black" points="397.5,-793.5 513.5,-793.5 "/>
<text text-anchor="start" x="405.5" y="-781.5" font-family="Helvetica,sans-Serif" font-size="10.00">+ BattleManager()</text>
<text text-anchor="start" x="405.5" y="-770.5" font-family="Helvetica,sans-Serif" font-size="10.00">+ playerFirst()</text>
<text text-anchor="start" x="405.5" y="-759.5" font-family="Helvetica,sans-Serif" font-size="10.00">+ switchPlayers()</text>
<text text-anchor="start" x="405.5" y="-748.5" font-family="Helvetica,sans-Serif" font-size="10.00">+ isCriticalHit()</text>
<text text-anchor="start" x="405.5" y="-737.5" font-family="Helvetica,sans-Serif" font-size="10.00">+ ranAway()</text>
<text text-anchor="start" x="405.5" y="-726.5" font-family="Helvetica,sans-Serif" font-size="10.00">+ damageCalculation()</text>
<text text-anchor="start" x="405.5" y="-715.5" font-family="Helvetica,sans-Serif" font-size="10.00">+ enemyMove()</text>
<text text-anchor="start" x="405.5" y="-704.5" font-family="Helvetica,sans-Serif" font-size="10.00">+ enemySpecialMove()</text>
<text text-anchor="start" x="405.5" y="-693.5" font-family="Helvetica,sans-Serif" font-size="10.00">+ battleWon()</text>
<text text-anchor="start" x="405.5" y="-682.5" font-family="Helvetica,sans-Serif" font-size="10.00">+ playerFainted()</text>
<text text-anchor="start" x="405.5" y="-671.5" font-family="Helvetica,sans-Serif" font-size="10.00">&#45; characterFainted()</text>
</a>
</g>
</g>
<!-- Node5&#45;&gt;Node11 -->
<g id="edge18" class="edge"><title>Node5&#45;&gt;Node11</title>
<path fill="none" stroke="#404040" d="M333.307,-901.241C350.751,-881.078 370.798,-857.906 389.543,-836.239"/>
<polygon fill="none" stroke="#404040" points="389.634,-836.134 390.534,-828.979 397.485,-827.058 396.584,-834.213 389.634,-836.134"/>
<text text-anchor="middle" x="372" y="-875" font-family="Helvetica,sans-Serif" font-size="10.00"> &#45;player</text>
</g>
<!-- Node6 -->
<g id="node5" class="node"><title>Node6</title>
<g id="a_node5"><a xlink:href="class_character.html" target="_top" xlink:title="Base abstract class for Enemy and Player to inherit from. Defines all shared variables, their constructor and their setters and getters ">
<polygon fill="none" stroke="black" points="497,-95.5 497,-273.5 592,-273.5 592,-95.5 497,-95.5"/>
<text text-anchor="middle" x="544.5" y="-261.5" font-family="Helvetica,sans-Serif" font-size="10.00">Character</text>
<polyline fill="none" stroke="black" points="497,-254.5 592,-254.5 "/>
<text text-anchor="start" x="505" y="-242.5" font-family="Helvetica,sans-Serif" font-size="10.00">+ Name</text>
<text text-anchor="start" x="505" y="-231.5" font-family="Helvetica,sans-Serif" font-size="10.00">+ Level</text>
<text text-anchor="start" x="505" y="-220.5" font-family="Helvetica,sans-Serif" font-size="10.00">+ Health</text>
<text text-anchor="start" x="505" y="-209.5" font-family="Helvetica,sans-Serif" font-size="10.00">+ Attack</text>
<text text-anchor="start" x="505" y="-198.5" font-family="Helvetica,sans-Serif" font-size="10.00">+ Defence</text>
<text text-anchor="start" x="505" y="-187.5" font-family="Helvetica,sans-Serif" font-size="10.00">+ MaximumMagic</text>
<text text-anchor="start" x="505" y="-176.5" font-family="Helvetica,sans-Serif" font-size="10.00">+ Magic</text>
<text text-anchor="start" x="505" y="-165.5" font-family="Helvetica,sans-Serif" font-size="10.00">+ Luck</text>
<text text-anchor="start" x="505" y="-154.5" font-family="Helvetica,sans-Serif" font-size="10.00">+ Speed</text>
<text text-anchor="start" x="505" y="-143.5" font-family="Helvetica,sans-Serif" font-size="10.00">+ Special1</text>
<text text-anchor="start" x="505" y="-132.5" font-family="Helvetica,sans-Serif" font-size="10.00">+ Special2</text>
<text text-anchor="start" x="505" y="-121.5" font-family="Helvetica,sans-Serif" font-size="10.00">+ Image</text>
<polyline fill="none" stroke="black" points="497,-114.5 592,-114.5 "/>
<text text-anchor="start" x="505" y="-102.5" font-family="Helvetica,sans-Serif" font-size="10.00"># Character()</text>
</a>
</g>
</g>
<!-- Node6&#45;&gt;Node5 -->
<g id="edge4" class="edge"><title>Node6&#45;&gt;Node5</title>
<path fill="none" stroke="midnightblue" d="M486.862,-200.518C411.093,-224.145 287.5,-277.81 287.5,-376.5 287.5,-760 287.5,-760 287.5,-760 287.5,-807.763 286.902,-862.053 286.36,-901.446"/>
<polygon fill="none" stroke="midnightblue" points="488.208,-203.767 496.763,-197.516 486.177,-197.068 488.208,-203.767"/>
</g>
<!-- Node10 -->
<g id="node9" class="node"><title>Node10</title>
<g id="a_node9"><a xlink:href="class_character_move.html" target="_top" xlink:title="Astract base class for character moves ">
<polygon fill="none" stroke="black" points="675.5,-460.5 675.5,-539.5 761.5,-539.5 761.5,-460.5 675.5,-460.5"/>
<text text-anchor="middle" x="718.5" y="-527.5" font-family="Helvetica,sans-Serif" font-size="10.00">CharacterMove</text>
<polyline fill="none" stroke="black" points="675.5,-520.5 761.5,-520.5 "/>
<text text-anchor="start" x="683.5" y="-508.5" font-family="Helvetica,sans-Serif" font-size="10.00">+ User</text>
<text text-anchor="start" x="683.5" y="-497.5" font-family="Helvetica,sans-Serif" font-size="10.00">+ Target</text>
<text text-anchor="start" x="683.5" y="-486.5" font-family="Helvetica,sans-Serif" font-size="10.00">+ Text</text>
<polyline fill="none" stroke="black" points="675.5,-479.5 761.5,-479.5 "/>
<text text-anchor="start" x="683.5" y="-467.5" font-family="Helvetica,sans-Serif" font-size="10.00">+ performMove()</text>
</a>
</g>
</g>
<!-- Node6&#45;&gt;Node10 -->
<g id="edge10" class="edge"><title>Node6&#45;&gt;Node10</title>
<path fill="none" stroke="#404040" d="M592.018,-215.971C628.328,-242.064 676.152,-283.112 700.5,-332 718.447,-368.034 722.272,-413.767 721.987,-448.26"/>
<polygon fill="none" stroke="#404040" points="721.984,-448.424 725.848,-454.512 721.715,-460.421 717.85,-454.333 721.984,-448.424"/>
<text text-anchor="middle" x="738.5" y="-380.5" font-family="Helvetica,sans-Serif" font-size="10.00"> #target</text>
<text text-anchor="middle" x="738.5" y="-369.5" font-family="Helvetica,sans-Serif" font-size="10.00">#user</text>
</g>
<!-- Node12 -->
<g id="node11" class="node"><title>Node12</title>
<g id="a_node11"><a xlink:href="class_enemy.html" target="_top" xlink:title="Defines an AI controller enemy to fight in battle scenes">
<polygon fill="none" stroke="black" points="426,-0.5 426,-57.5 493,-57.5 493,-0.5 426,-0.5"/>
<text text-anchor="middle" x="459.5" y="-45.5" font-family="Helvetica,sans-Serif" font-size="10.00">Enemy</text>
<polyline fill="none" stroke="black" points="426,-38.5 493,-38.5 "/>
<text text-anchor="start" x="434" y="-26.5" font-family="Helvetica,sans-Serif" font-size="10.00">+ ExpGiven</text>
<polyline fill="none" stroke="black" points="426,-19.5 493,-19.5 "/>
<text text-anchor="start" x="434" y="-7.5" font-family="Helvetica,sans-Serif" font-size="10.00">+ Enemy()</text>
</a>
</g>
</g>
<!-- Node6&#45;&gt;Node12 -->
<g id="edge14" class="edge"><title>Node6&#45;&gt;Node12</title>
<path fill="none" stroke="midnightblue" d="M491.797,-88.3244C485.648,-77.2207 479.802,-66.6639 474.817,-57.6602"/>
<polygon fill="none" stroke="midnightblue" points="488.876,-90.2746 496.782,-97.3273 495,-86.8835 488.876,-90.2746"/>
</g>
<!-- Node7 -->
<g id="node6" class="node"><title>Node7</title>
<polygon fill="none" stroke="#bfbfbf" points="653,-1210.5 653,-1267.5 694,-1267.5 694,-1210.5 653,-1210.5"/>
<text text-anchor="middle" x="673.5" y="-1255.5" font-family="Helvetica,sans-Serif" font-size="10.00">string</text>
<polyline fill="none" stroke="#bfbfbf" points="653,-1248.5 694,-1248.5 "/>
<text text-anchor="middle" x="673.5" y="-1236.5" font-family="Helvetica,sans-Serif" font-size="10.00"> </text>
<polyline fill="none" stroke="#bfbfbf" points="653,-1229.5 694,-1229.5 "/>
<text text-anchor="middle" x="673.5" y="-1217.5" font-family="Helvetica,sans-Serif" font-size="10.00"> </text>
</g>
<!-- Node7&#45;&gt;Node6 -->
<g id="edge5" class="edge"><title>Node7&#45;&gt;Node6</title>
<path fill="none" stroke="#404040" d="M694.238,-1227.72C727.604,-1209.54 789.5,-1168.36 789.5,-1113 789.5,-1113 789.5,-1113 789.5,-376.5 789.5,-282.624 676.238,-228.107 603.733,-202.825"/>
<polygon fill="none" stroke="#404040" points="603.398,-202.712 596.434,-204.582 592.029,-198.872 598.993,-197.002 603.398,-202.712"/>
<text text-anchor="middle" x="806" y="-756.5" font-family="Helvetica,sans-Serif" font-size="10.00"> #name</text>
</g>
<!-- Node9 -->
<g id="node8" class="node"><title>Node9</title>
<g id="a_node8"><a xlink:href="class_special_move.html" target="_top" xlink:title="Special move abstract base class that expands upon CharacterMove, adding magic properties ...">
<polygon fill="none" stroke="black" points="593.5,-332.5 593.5,-422.5 691.5,-422.5 691.5,-332.5 593.5,-332.5"/>
<text text-anchor="middle" x="642.5" y="-410.5" font-family="Helvetica,sans-Serif" font-size="10.00">SpecialMove</text>
<polyline fill="none" stroke="black" points="593.5,-403.5 691.5,-403.5 "/>
<text text-anchor="start" x="601.5" y="-391.5" font-family="Helvetica,sans-Serif" font-size="10.00">+ Magic</text>
<text text-anchor="start" x="601.5" y="-380.5" font-family="Helvetica,sans-Serif" font-size="10.00">+ Desc</text>
<polyline fill="none" stroke="black" points="593.5,-373.5 691.5,-373.5 "/>
<text text-anchor="start" x="601.5" y="-361.5" font-family="Helvetica,sans-Serif" font-size="10.00">+ setUp()</text>
<text text-anchor="start" x="601.5" y="-350.5" font-family="Helvetica,sans-Serif" font-size="10.00">+ decreaseMagic()</text>
<text text-anchor="start" x="601.5" y="-339.5" font-family="Helvetica,sans-Serif" font-size="10.00"># SpecialMove()</text>
</a>
</g>
</g>
<!-- Node7&#45;&gt;Node9 -->
<g id="edge19" class="edge"><title>Node7&#45;&gt;Node9</title>
<path fill="none" stroke="#404040" d="M672.504,-1210.38C668.126,-1088.99 650.545,-601.56 644.53,-434.789"/>
<polygon fill="none" stroke="#404040" points="644.525,-434.643 640.311,-428.791 644.092,-422.65 648.306,-428.502 644.525,-434.643"/>
<text text-anchor="middle" x="676.5" y="-875" font-family="Helvetica,sans-Serif" font-size="10.00"> #desc</text>
</g>
<!-- Node7&#45;&gt;Node10 -->
<g id="edge9" class="edge"><title>Node7&#45;&gt;Node10</title>
<path fill="none" stroke="#404040" d="M688.663,-1210.1C700.693,-1185.34 715.5,-1147.8 715.5,-1113 715.5,-1113 715.5,-1113 715.5,-758 715.5,-686.479 716.676,-603.771 717.555,-551.921"/>
<polygon fill="none" stroke="#404040" points="717.558,-551.747 713.663,-545.678 717.766,-539.749 721.662,-545.817 717.558,-551.747"/>
<text text-anchor="middle" x="728" y="-955" font-family="Helvetica,sans-Serif" font-size="10.00"> #text</text>
</g>
<!-- Node7&#45;&gt;Node11 -->
<g id="edge12" class="edge"><title>Node7&#45;&gt;Node11</title>
<path fill="none" stroke="#404040" d="M655.327,-1210.2C633.237,-1175.18 596.336,-1112.47 575.5,-1054 547.82,-976.329 573.077,-947.31 539.5,-872 538.58,-869.937 531.111,-859.627 520.973,-846.033"/>
<polygon fill="none" stroke="#404040" points="520.77,-845.763 513.972,-843.359 513.576,-836.159 520.374,-838.563 520.77,-845.763"/>
<text text-anchor="middle" x="617.5" y="-1046" font-family="Helvetica,sans-Serif" font-size="10.00"> +forceEnemyMove</text>
<text text-anchor="middle" x="617.5" y="-1035" font-family="Helvetica,sans-Serif" font-size="10.00">+forceCriticalHits</text>
</g>
<!-- Node15 -->
<g id="node14" class="node"><title>Node15</title>
<g id="a_node14"><a xlink:href="class_item.html" target="_top" xlink:title="Abstract class for items that can be equipped to a player, increasing some of their stats ...">
<polygon fill="none" stroke="black" points="192,-1072.5 192,-1151.5 269,-1151.5 269,-1072.5 192,-1072.5"/>
<text text-anchor="middle" x="230.5" y="-1139.5" font-family="Helvetica,sans-Serif" font-size="10.00">Item</text>
<polyline fill="none" stroke="black" points="192,-1132.5 269,-1132.5 "/>
<text text-anchor="start" x="200" y="-1120.5" font-family="Helvetica,sans-Serif" font-size="10.00">+ Name</text>
<text text-anchor="start" x="200" y="-1109.5" font-family="Helvetica,sans-Serif" font-size="10.00">+ Desc</text>
<polyline fill="none" stroke="black" points="192,-1102.5 269,-1102.5 "/>
<text text-anchor="start" x="200" y="-1090.5" font-family="Helvetica,sans-Serif" font-size="10.00">+ applyBuffs()</text>
<text text-anchor="start" x="200" y="-1079.5" font-family="Helvetica,sans-Serif" font-size="10.00">+ revertBuffs()</text>
</a>
</g>
</g>
<!-- Node7&#45;&gt;Node15 -->
<g id="edge23" class="edge"><title>Node7&#45;&gt;Node15</title>
<path fill="none" stroke="#404040" d="M652.635,-1233.07C600.51,-1220.64 460.52,-1186.54 345.5,-1152 324.064,-1145.56 300.629,-1137.76 280.541,-1130.83"/>
<polygon fill="none" stroke="#404040" points="280.474,-1130.8 273.493,-1132.61 269.14,-1126.86 276.12,-1125.06 280.474,-1130.8"/>
<text text-anchor="middle" x="495.5" y="-1184" font-family="Helvetica,sans-Serif" font-size="10.00"> #desc</text>
<text text-anchor="middle" x="495.5" y="-1173" font-family="Helvetica,sans-Serif" font-size="10.00">#name</text>
</g>
<!-- Node8 -->
<g id="node7" class="node"><title>Node8</title>
<polygon fill="none" stroke="#bfbfbf" points="355,-1083.5 355,-1140.5 384,-1140.5 384,-1083.5 355,-1083.5"/>
<text text-anchor="middle" x="369.5" y="-1128.5" font-family="Helvetica,sans-Serif" font-size="10.00">int</text>
<polyline fill="none" stroke="#bfbfbf" points="355,-1121.5 384,-1121.5 "/>
<text text-anchor="middle" x="369.5" y="-1109.5" font-family="Helvetica,sans-Serif" font-size="10.00"> </text>
<polyline fill="none" stroke="#bfbfbf" points="355,-1102.5 384,-1102.5 "/>
<text text-anchor="middle" x="369.5" y="-1090.5" font-family="Helvetica,sans-Serif" font-size="10.00"> </text>
</g>
<!-- Node8&#45;&gt;Node5 -->
<g id="edge24" class="edge"><title>Node8&#45;&gt;Node5</title>
<path fill="none" stroke="#404040" d="M354.816,-1106.57C333.912,-1099.38 296.351,-1082.98 280.5,-1054 275.798,-1045.41 273.53,-1035.7 272.822,-1025.85"/>
<polygon fill="none" stroke="#404040" points="272.822,-1025.83 268.749,-1019.88 272.675,-1013.83 276.748,-1019.78 272.822,-1025.83"/>
<text text-anchor="middle" x="318" y="-1046" font-family="Helvetica,sans-Serif" font-size="10.00"> &#45;expToNextLevel</text>
<text text-anchor="middle" x="318" y="-1035" font-family="Helvetica,sans-Serif" font-size="10.00">&#45;exp</text>
</g>
<!-- Node8&#45;&gt;Node6 -->
<g id="edge6" class="edge"><title>Node8&#45;&gt;Node6</title>
<path fill="none" stroke="#404040" d="M369.5,-1083.45C369.5,-1052.91 369.5,-1002.18 369.5,-958.5 369.5,-958.5 369.5,-958.5 369.5,-376.5 369.5,-305.814 435.464,-249.929 486.395,-217.314"/>
<polygon fill="none" stroke="#404040" points="486.495,-217.252 489.473,-210.685 496.68,-210.908 493.702,-217.475 486.495,-217.252"/>
<text text-anchor="middle" x="407" y="-638" font-family="Helvetica,sans-Serif" font-size="10.00"> #speed</text>
<text text-anchor="middle" x="407" y="-627" font-family="Helvetica,sans-Serif" font-size="10.00">#luck</text>
<text text-anchor="middle" x="407" y="-616" font-family="Helvetica,sans-Serif" font-size="10.00">#health</text>
<text text-anchor="middle" x="407" y="-605" font-family="Helvetica,sans-Serif" font-size="10.00">#magic</text>
<text text-anchor="middle" x="407" y="-594" font-family="Helvetica,sans-Serif" font-size="10.00">#maximumMagic</text>
<text text-anchor="middle" x="407" y="-583" font-family="Helvetica,sans-Serif" font-size="10.00">#attack</text>
<text text-anchor="middle" x="407" y="-572" font-family="Helvetica,sans-Serif" font-size="10.00">#defence</text>
<text text-anchor="middle" x="407" y="-561" font-family="Helvetica,sans-Serif" font-size="10.00">#level</text>
</g>
<!-- Node8&#45;&gt;Node9 -->
<g id="edge20" class="edge"><title>Node8&#45;&gt;Node9</title>
<path fill="none" stroke="#404040" d="M384.18,-1106.02C414.566,-1094.88 484.21,-1064.85 516.5,-1014 625.719,-842.008 513.04,-755.393 563.5,-558 574.609,-514.542 595.206,-468.275 612.584,-433.6"/>
<polygon fill="none" stroke="#404040" points="612.654,-433.462 611.81,-426.3 618.096,-422.767 618.94,-429.929 612.654,-433.462"/>
<text text-anchor="middle" x="584" y="-756.5" font-family="Helvetica,sans-Serif" font-size="10.00"> #magic</text>
</g>
<!-- Node8&#45;&gt;Node11 -->
<g id="edge16" class="edge"><title>Node8&#45;&gt;Node11</title>
<path fill="none" stroke="#404040" d="M376.269,-1083.46C378.565,-1074.11 381.146,-1063.6 383.5,-1054 398.838,-991.462 415.988,-921.434 429.702,-865.415"/>
<polygon fill="none" stroke="#404040" points="429.721,-865.337 427.263,-858.558 432.575,-853.681 435.033,-860.461 429.721,-865.337"/>
<text text-anchor="middle" x="441" y="-955" font-family="Helvetica,sans-Serif" font-size="10.00"> +money</text>
</g>
<!-- Node8&#45;&gt;Node12 -->
<g id="edge15" class="edge"><title>Node8&#45;&gt;Node12</title>
<path fill="none" stroke="#404040" d="M354.885,-1105.9C314.012,-1090.61 201.5,-1041.02 201.5,-958.5 201.5,-958.5 201.5,-958.5 201.5,-183.5 201.5,-85.9463 339.418,-48.9876 413.579,-36.1659"/>
<polygon fill="none" stroke="#404040" points="413.928,-36.1091 419.205,-31.1947 425.771,-34.1759 420.494,-39.0903 413.928,-36.1091"/>
<text text-anchor="middle" x="224.5" y="-497.5" font-family="Helvetica,sans-Serif" font-size="10.00"> &#45;expGiven</text>
</g>
<!-- Node9&#45;&gt;Node6 -->
<g id="edge7" class="edge"><title>Node9&#45;&gt;Node6</title>
<path fill="none" stroke="#404040" d="M619.771,-332.201C612.396,-317.827 603.893,-301.257 595.317,-284.541"/>
<polygon fill="none" stroke="#404040" points="595.159,-284.234 588.861,-280.722 589.681,-273.557 595.979,-277.07 595.159,-284.234"/>
<text text-anchor="middle" x="631" y="-306" font-family="Helvetica,sans-Serif" font-size="10.00"> #special1</text>
<text text-anchor="middle" x="631" y="-295" font-family="Helvetica,sans-Serif" font-size="10.00">#special2</text>
</g>
<!-- Node10&#45;&gt;Node9 -->
<g id="edge8" class="edge"><title>Node10&#45;&gt;Node9</title>
<path fill="none" stroke="midnightblue" d="M688.609,-451.607C682.594,-442.07 676.295,-432.083 670.353,-422.661"/>
<polygon fill="none" stroke="midnightblue" points="685.74,-453.619 694.035,-460.21 691.66,-449.884 685.74,-453.619"/>
</g>
<!-- Node11&#45;&gt;Node10 -->
<g id="edge11" class="edge"><title>Node11&#45;&gt;Node10</title>
<path fill="none" stroke="#404040" d="M513.592,-679.487C518.17,-674.137 522.832,-668.922 527.5,-664 570.735,-618.418 625.823,-572.499 665.717,-541.069"/>
<polygon fill="none" stroke="#404040" points="665.811,-540.995 668.069,-534.147 675.26,-533.598 673.001,-540.446 665.811,-540.995"/>
<text text-anchor="middle" x="665.5" y="-599.5" font-family="Helvetica,sans-Serif" font-size="10.00"> #manager</text>
</g>
<!-- Node12&#45;&gt;Node11 -->
<g id="edge13" class="edge"><title>Node12&#45;&gt;Node11</title>
<path fill="none" stroke="#404040" d="M459.5,-57.7302C459.5,-88.4721 459.5,-139.529 459.5,-183.5 459.5,-501 459.5,-501 459.5,-501 459.5,-550.668 458.744,-605.728 457.889,-652.103"/>
<polygon fill="none" stroke="#404040" points="457.885,-652.319 461.771,-658.394 457.658,-664.317 453.772,-658.242 457.885,-652.319"/>
<text text-anchor="middle" x="477.5" y="-375" font-family="Helvetica,sans-Serif" font-size="10.00"> &#45;enemy</text>
</g>
<!-- Node13 -->
<g id="node12" class="node"><title>Node13</title>
<polygon fill="none" stroke="#bfbfbf" points="473,-929 473,-986 508,-986 508,-929 473,-929"/>
<text text-anchor="middle" x="490.5" y="-974" font-family="Helvetica,sans-Serif" font-size="10.00">bool</text>
<polyline fill="none" stroke="#bfbfbf" points="473,-967 508,-967 "/>
<text text-anchor="middle" x="490.5" y="-955" font-family="Helvetica,sans-Serif" font-size="10.00"> </text>
<polyline fill="none" stroke="#bfbfbf" points="473,-948 508,-948 "/>
<text text-anchor="middle" x="490.5" y="-936" font-family="Helvetica,sans-Serif" font-size="10.00"> </text>
</g>
<!-- Node13&#45;&gt;Node11 -->
<g id="edge17" class="edge"><title>Node13&#45;&gt;Node11</title>
<path fill="none" stroke="#404040" d="M481.428,-928.843C477.247,-915.177 472.547,-898.361 469.5,-883 468.383,-877.367 467.346,-871.571 466.386,-865.705"/>
<polygon fill="none" stroke="#404040" points="466.348,-865.46 461.48,-860.14 464.519,-853.601 469.387,-858.921 466.348,-865.46"/>
<text text-anchor="middle" x="502.5" y="-875" font-family="Helvetica,sans-Serif" font-size="10.00"> &#45;wasCriticalHit</text>
</g>
<!-- Node14 -->
<g id="node13" class="node"><title>Node14</title>
<polygon fill="none" stroke="#bfbfbf" points="514,-349 514,-406 575,-406 575,-349 514,-349"/>
<text text-anchor="middle" x="544.5" y="-394" font-family="Helvetica,sans-Serif" font-size="10.00">Texture2D</text>
<polyline fill="none" stroke="#bfbfbf" points="514,-387 575,-387 "/>
<text text-anchor="middle" x="544.5" y="-375" font-family="Helvetica,sans-Serif" font-size="10.00"> </text>
<polyline fill="none" stroke="#bfbfbf" points="514,-368 575,-368 "/>
<text text-anchor="middle" x="544.5" y="-356" font-family="Helvetica,sans-Serif" font-size="10.00"> </text>
</g>
<!-- Node14&#45;&gt;Node6 -->
<g id="edge21" class="edge"><title>Node14&#45;&gt;Node6</title>
<path fill="none" stroke="#404040" d="M544.5,-348.727C544.5,-331.811 544.5,-309.053 544.5,-285.91"/>
<polygon fill="none" stroke="#404040" points="544.5,-285.802 540.5,-279.802 544.5,-273.802 548.5,-279.802 544.5,-285.802"/>
<text text-anchor="middle" x="562" y="-300.5" font-family="Helvetica,sans-Serif" font-size="10.00"> #image</text>
</g>
<!-- Node15&#45;&gt;Node5 -->
<g id="edge22" class="edge"><title>Node15&#45;&gt;Node5</title>
<path fill="none" stroke="#404040" d="M226.939,-1072.43C226.907,-1059.3 228.206,-1044.74 232.5,-1032 233.357,-1029.46 234.336,-1026.93 235.415,-1024.42"/>
<polygon fill="none" stroke="#404040" points="235.444,-1024.36 234.499,-1017.21 240.735,-1013.59 241.679,-1020.74 235.444,-1024.36"/>
<text text-anchor="middle" x="245" y="-1040.5" font-family="Helvetica,sans-Serif" font-size="10.00"> &#45;item</text>
</g>
</g>
</svg>
