<?xml version="1.0" encoding="UTF-8" standalone="no"?>
<!DOCTYPE svg PUBLIC "-//W3C//DTD SVG 1.1//EN"
 "http://www.w3.org/Graphics/SVG/1.1/DTD/svg11.dtd">
<!-- Generated by graphviz version 2.38.0 (20140413.2041)
 -->
<!-- Title: SpecialMove Pages: 1 -->
<svg width="742pt" height="386pt"
 viewBox="0.00 0.00 742.00 386.00" xmlns="http://www.w3.org/2000/svg" xmlns:xlink="http://www.w3.org/1999/xlink">
<g id="graph0" class="graph" transform="scale(1 1) rotate(0) translate(4 382)">
<title>SpecialMove</title>
<!-- Node0 -->
<g id="node1" class="node"><title>Node0</title>
<polygon fill="#bfbfbf" stroke="black" points="324,-105.5 324,-217.5 422,-217.5 422,-105.5 324,-105.5"/>
<text text-anchor="middle" x="373" y="-205.5" font-family="Helvetica,sans-Serif" font-size="10.00">SpecialMove</text>
<polyline fill="none" stroke="black" points="324,-198.5 422,-198.5 "/>
<text text-anchor="start" x="332" y="-186.5" font-family="Helvetica,sans-Serif" font-size="10.00">+ Magic</text>
<text text-anchor="start" x="332" y="-175.5" font-family="Helvetica,sans-Serif" font-size="10.00">+ Desc</text>
<text text-anchor="start" x="332" y="-164.5" font-family="Helvetica,sans-Serif" font-size="10.00"># desc</text>
<text text-anchor="start" x="332" y="-153.5" font-family="Helvetica,sans-Serif" font-size="10.00"># magic</text>
<polyline fill="none" stroke="black" points="324,-146.5 422,-146.5 "/>
<text text-anchor="start" x="332" y="-134.5" font-family="Helvetica,sans-Serif" font-size="10.00">+ setUp()</text>
<text text-anchor="start" x="332" y="-123.5" font-family="Helvetica,sans-Serif" font-size="10.00">+ decreaseMagic()</text>
<text text-anchor="start" x="332" y="-112.5" font-family="Helvetica,sans-Serif" font-size="10.00"># SpecialMove()</text>
</g>
<!-- Node2 -->
<g id="node3" class="node"><title>Node2</title>
<g id="a_node3"><a xlink:href="class_healing_spell.html" target="_top" xlink:title="Heal a target by a set amount of health points">
<polygon fill="none" stroke="black" points="0,-0.5 0,-68.5 86,-68.5 86,-0.5 0,-0.5"/>
<text text-anchor="middle" x="43" y="-56.5" font-family="Helvetica,sans-Serif" font-size="10.00">HealingSpell</text>
<polyline fill="none" stroke="black" points="0,-49.5 86,-49.5 "/>
<text text-anchor="start" x="8" y="-37.5" font-family="Helvetica,sans-Serif" font-size="10.00">&#45; increase</text>
<polyline fill="none" stroke="black" points="0,-30.5 86,-30.5 "/>
<text text-anchor="start" x="8" y="-18.5" font-family="Helvetica,sans-Serif" font-size="10.00">+ HealingSpell()</text>
<text text-anchor="start" x="8" y="-7.5" font-family="Helvetica,sans-Serif" font-size="10.00">+ performMove()</text>
</a>
</g>
</g>
<!-- Node0&#45;&gt;Node2 -->
<g id="edge2" class="edge"><title>Node0&#45;&gt;Node2</title>
<path fill="none" stroke="midnightblue" d="M313.841,-145.74C256.386,-130.324 167.464,-103.571 95,-69 92.0922,-67.6128 89.1519,-66.0907 86.2265,-64.4843"/>
<polygon fill="none" stroke="midnightblue" points="313.277,-149.212 323.84,-148.394 315.072,-142.446 313.277,-149.212"/>
</g>
<!-- Node3 -->
<g id="node4" class="node"><title>Node3</title>
<g id="a_node4"><a xlink:href="class_increase_money.html" target="_top" xlink:title="Increases the money reward of a battle">
<polygon fill="none" stroke="black" points="104,-0.5 104,-68.5 202,-68.5 202,-0.5 104,-0.5"/>
<text text-anchor="middle" x="153" y="-56.5" font-family="Helvetica,sans-Serif" font-size="10.00">IncreaseMoney</text>
<polyline fill="none" stroke="black" points="104,-49.5 202,-49.5 "/>
<text text-anchor="start" x="112" y="-37.5" font-family="Helvetica,sans-Serif" font-size="10.00">&#45; increase</text>
<polyline fill="none" stroke="black" points="104,-30.5 202,-30.5 "/>
<text text-anchor="start" x="112" y="-18.5" font-family="Helvetica,sans-Serif" font-size="10.00">+ IncreaseMoney()</text>
<text text-anchor="start" x="112" y="-7.5" font-family="Helvetica,sans-Serif" font-size="10.00">+ performMove()</text>
</a>
</g>
</g>
<!-- Node0&#45;&gt;Node3 -->
<g id="edge3" class="edge"><title>Node0&#45;&gt;Node3</title>
<path fill="none" stroke="midnightblue" d="M314.75,-127.778C283.877,-110.39 245.335,-88.6118 211,-69 208.072,-67.3274 205.063,-65.6039 202.029,-63.8625"/>
<polygon fill="none" stroke="midnightblue" points="313.227,-130.937 323.658,-132.793 316.661,-124.837 313.227,-130.937"/>
</g>
<!-- Node4 -->
<g id="node5" class="node"><title>Node4</title>
<g id="a_node5"><a xlink:href="class_lower_defence.html" target="_top" xlink:title="Lower&#39;s the target&#39;s defence ">
<polygon fill="none" stroke="black" points="220,-0.5 220,-68.5 312,-68.5 312,-0.5 220,-0.5"/>
<text text-anchor="middle" x="266" y="-56.5" font-family="Helvetica,sans-Serif" font-size="10.00">LowerDefence</text>
<polyline fill="none" stroke="black" points="220,-49.5 312,-49.5 "/>
<text text-anchor="start" x="228" y="-37.5" font-family="Helvetica,sans-Serif" font-size="10.00">&#45; decrease</text>
<polyline fill="none" stroke="black" points="220,-30.5 312,-30.5 "/>
<text text-anchor="start" x="228" y="-18.5" font-family="Helvetica,sans-Serif" font-size="10.00">+ LowerDefence()</text>
<text text-anchor="start" x="228" y="-7.5" font-family="Helvetica,sans-Serif" font-size="10.00">+ performMove()</text>
</a>
</g>
</g>
<!-- Node0&#45;&gt;Node4 -->
<g id="edge4" class="edge"><title>Node0&#45;&gt;Node4</title>
<path fill="none" stroke="midnightblue" d="M319.179,-97.6252C310.561,-87.5574 301.954,-77.5026 294.253,-68.5058"/>
<polygon fill="none" stroke="midnightblue" points="316.595,-99.9885 325.757,-105.309 321.913,-95.4364 316.595,-99.9885"/>
</g>
<!-- Node5 -->
<g id="node6" class="node"><title>Node5</title>
<g id="a_node6"><a xlink:href="class_lower_speed.html" target="_top" xlink:title="Lower&#39;s the target&#39;s speed ">
<polygon fill="none" stroke="black" points="330,-0.5 330,-68.5 416,-68.5 416,-0.5 330,-0.5"/>
<text text-anchor="middle" x="373" y="-56.5" font-family="Helvetica,sans-Serif" font-size="10.00">LowerSpeed</text>
<polyline fill="none" stroke="black" points="330,-49.5 416,-49.5 "/>
<text text-anchor="start" x="338" y="-37.5" font-family="Helvetica,sans-Serif" font-size="10.00">&#45; decrease</text>
<polyline fill="none" stroke="black" points="330,-30.5 416,-30.5 "/>
<text text-anchor="start" x="338" y="-18.5" font-family="Helvetica,sans-Serif" font-size="10.00">+ LowerSpeed()</text>
<text text-anchor="start" x="338" y="-7.5" font-family="Helvetica,sans-Serif" font-size="10.00">+ performMove()</text>
</a>
</g>
</g>
<!-- Node0&#45;&gt;Node5 -->
<g id="edge5" class="edge"><title>Node0&#45;&gt;Node5</title>
<path fill="none" stroke="midnightblue" d="M373,-95.2571C373,-85.9867 373,-76.797 373,-68.5058"/>
<polygon fill="none" stroke="midnightblue" points="369.5,-95.3093 373,-105.309 376.5,-95.3094 369.5,-95.3093"/>
</g>
<!-- Node6 -->
<g id="node7" class="node"><title>Node6</title>
<g id="a_node7"><a xlink:href="class_magic_attack.html" target="_top" xlink:title="An attack move that uses magic ">
<polygon fill="none" stroke="black" points="434,-0.5 434,-68.5 520,-68.5 520,-0.5 434,-0.5"/>
<text text-anchor="middle" x="477" y="-56.5" font-family="Helvetica,sans-Serif" font-size="10.00">MagicAttack</text>
<polyline fill="none" stroke="black" points="434,-49.5 520,-49.5 "/>
<text text-anchor="start" x="442" y="-37.5" font-family="Helvetica,sans-Serif" font-size="10.00">&#45; power</text>
<polyline fill="none" stroke="black" points="434,-30.5 520,-30.5 "/>
<text text-anchor="start" x="442" y="-18.5" font-family="Helvetica,sans-Serif" font-size="10.00">+ MagicAttack()</text>
<text text-anchor="start" x="442" y="-7.5" font-family="Helvetica,sans-Serif" font-size="10.00">+ performMove()</text>
</a>
</g>
</g>
<!-- Node0&#45;&gt;Node6 -->
<g id="edge6" class="edge"><title>Node0&#45;&gt;Node6</title>
<path fill="none" stroke="midnightblue" d="M425.558,-97.3291C433.852,-87.3604 442.127,-77.4144 449.539,-68.5058"/>
<polygon fill="none" stroke="midnightblue" points="422.624,-95.3835 418.919,-105.309 428.005,-99.8606 422.624,-95.3835"/>
</g>
<!-- Node7 -->
<g id="node8" class="node"><title>Node7</title>
<g id="a_node8"><a xlink:href="class_raise_attack.html" target="_top" xlink:title="Raise the target&#39;s attack stat">
<polygon fill="none" stroke="black" points="538,-0.5 538,-68.5 624,-68.5 624,-0.5 538,-0.5"/>
<text text-anchor="middle" x="581" y="-56.5" font-family="Helvetica,sans-Serif" font-size="10.00">RaiseAttack</text>
<polyline fill="none" stroke="black" points="538,-49.5 624,-49.5 "/>
<text text-anchor="start" x="546" y="-37.5" font-family="Helvetica,sans-Serif" font-size="10.00">&#45; increase</text>
<polyline fill="none" stroke="black" points="538,-30.5 624,-30.5 "/>
<text text-anchor="start" x="546" y="-18.5" font-family="Helvetica,sans-Serif" font-size="10.00">+ RaiseAttack()</text>
<text text-anchor="start" x="546" y="-7.5" font-family="Helvetica,sans-Serif" font-size="10.00">+ performMove()</text>
</a>
</g>
</g>
<!-- Node0&#45;&gt;Node7 -->
<g id="edge7" class="edge"><title>Node0&#45;&gt;Node7</title>
<path fill="none" stroke="midnightblue" d="M431.072,-127.212C460.575,-110.105 496.885,-88.7511 529,-69 531.927,-67.1997 534.935,-65.3261 537.958,-63.4256"/>
<polygon fill="none" stroke="midnightblue" points="429.048,-124.339 422.146,-132.378 432.555,-130.398 429.048,-124.339"/>
</g>
<!-- Node8 -->
<g id="node9" class="node"><title>Node8</title>
<g id="a_node9"><a xlink:href="class_raise_defence.html" target="_top" xlink:title="Raises the target&#39;s defence stat">
<polygon fill="none" stroke="black" points="642,-0.5 642,-68.5 734,-68.5 734,-0.5 642,-0.5"/>
<text text-anchor="middle" x="688" y="-56.5" font-family="Helvetica,sans-Serif" font-size="10.00">RaiseDefence</text>
<polyline fill="none" stroke="black" points="642,-49.5 734,-49.5 "/>
<text text-anchor="start" x="650" y="-37.5" font-family="Helvetica,sans-Serif" font-size="10.00">&#45; increase</text>
<polyline fill="none" stroke="black" points="642,-30.5 734,-30.5 "/>
<text text-anchor="start" x="650" y="-18.5" font-family="Helvetica,sans-Serif" font-size="10.00">+ RaiseDefence()</text>
<text text-anchor="start" x="650" y="-7.5" font-family="Helvetica,sans-Serif" font-size="10.00">+ performMove()</text>
</a>
</g>
</g>
<!-- Node0&#45;&gt;Node8 -->
<g id="edge8" class="edge"><title>Node0&#45;&gt;Node8</title>
<path fill="none" stroke="midnightblue" d="M431.815,-143.657C485.441,-127.405 566.243,-100.651 633,-69 635.93,-67.611 638.901,-66.1067 641.868,-64.5312"/>
<polygon fill="none" stroke="midnightblue" points="430.697,-140.338 422.128,-146.568 432.712,-147.042 430.697,-140.338"/>
</g>
<!-- Node1 -->
<g id="node2" class="node"><title>Node1</title>
<g id="a_node2"><a xlink:href="class_character_move.html" target="_top" xlink:title="Astract base class for character moves ">
<polygon fill="none" stroke="black" points="330,-254.5 330,-377.5 416,-377.5 416,-254.5 330,-254.5"/>
<text text-anchor="middle" x="373" y="-365.5" font-family="Helvetica,sans-Serif" font-size="10.00">CharacterMove</text>
<polyline fill="none" stroke="black" points="330,-358.5 416,-358.5 "/>
<text text-anchor="start" x="338" y="-346.5" font-family="Helvetica,sans-Serif" font-size="10.00">+ User</text>
<text text-anchor="start" x="338" y="-335.5" font-family="Helvetica,sans-Serif" font-size="10.00">+ Target</text>
<text text-anchor="start" x="338" y="-324.5" font-family="Helvetica,sans-Serif" font-size="10.00">+ Text</text>
<text text-anchor="start" x="338" y="-313.5" font-family="Helvetica,sans-Serif" font-size="10.00"># manager</text>
<text text-anchor="start" x="338" y="-302.5" font-family="Helvetica,sans-Serif" font-size="10.00"># user</text>
<text text-anchor="start" x="338" y="-291.5" font-family="Helvetica,sans-Serif" font-size="10.00"># target</text>
<text text-anchor="start" x="338" y="-280.5" font-family="Helvetica,sans-Serif" font-size="10.00"># text</text>
<polyline fill="none" stroke="black" points="330,-273.5 416,-273.5 "/>
<text text-anchor="start" x="338" y="-261.5" font-family="Helvetica,sans-Serif" font-size="10.00">+ performMove()</text>
</a>
</g>
</g>
<!-- Node1&#45;&gt;Node0 -->
<g id="edge1" class="edge"><title>Node1&#45;&gt;Node0</title>
<path fill="none" stroke="midnightblue" d="M373,-244.246C373,-235.288 373,-226.228 373,-217.564"/>
<polygon fill="none" stroke="midnightblue" points="369.5,-244.29 373,-254.29 376.5,-244.29 369.5,-244.29"/>
</g>
</g>
</svg>
