<?xml version="1.0" encoding="UTF-8" standalone="no"?>
<!DOCTYPE svg PUBLIC "-//W3C//DTD SVG 1.1//EN"
 "http://www.w3.org/Graphics/SVG/1.1/DTD/svg11.dtd">
<!-- Generated by graphviz version 2.38.0 (20140413.2041)
 -->
<!-- Title: Fader Pages: 1 -->
<svg width="383pt" height="215pt"
 viewBox="0.00 0.00 382.50 215.00" xmlns="http://www.w3.org/2000/svg" xmlns:xlink="http://www.w3.org/1999/xlink">
<g id="graph0" class="graph" transform="scale(1 1) rotate(0) translate(4 211)">
<title>Fader</title>
<polygon fill="white" stroke="none" points="-4,4 -4,-211 378.5,-211 378.5,4 -4,4"/>
<!-- Node2 -->
<g id="node1" class="node"><title>Node2</title>
<polygon fill="#bfbfbf" stroke="black" points="132.5,-0.5 132.5,-90.5 266.5,-90.5 266.5,-0.5 132.5,-0.5"/>
<text text-anchor="middle" x="199.5" y="-78.5" font-family="Helvetica,sans-Serif" font-size="10.00">Fader</text>
<polyline fill="none" stroke="black" points="132.5,-71.5 266.5,-71.5 "/>
<text text-anchor="middle" x="199.5" y="-59.5" font-family="Helvetica,sans-Serif" font-size="10.00"> </text>
<polyline fill="none" stroke="black" points="132.5,-52.5 266.5,-52.5 "/>
<text text-anchor="start" x="140.5" y="-40.5" font-family="Helvetica,sans-Serif" font-size="10.00">&#45; OnEnable()</text>
<text text-anchor="start" x="140.5" y="-29.5" font-family="Helvetica,sans-Serif" font-size="10.00">&#45; OnDisable()</text>
<text text-anchor="start" x="140.5" y="-18.5" font-family="Helvetica,sans-Serif" font-size="10.00">&#45; OnGUI()</text>
<text text-anchor="start" x="140.5" y="-7.5" font-family="Helvetica,sans-Serif" font-size="10.00">&#45; OnLevelFinishedLoading()</text>
</g>
<!-- Node3 -->
<g id="node2" class="node"><title>Node3</title>
<g id="a_node2"><a xlink:href="class_mono_behaviour.html" target="_top" xlink:title="{MonoBehaviour\n||}">
<polygon fill="white" stroke="black" points="0,-149.5 0,-206.5 83,-206.5 83,-149.5 0,-149.5"/>
<text text-anchor="middle" x="41.5" y="-194.5" font-family="Helvetica,sans-Serif" font-size="10.00">MonoBehaviour</text>
<polyline fill="none" stroke="black" points="0,-187.5 83,-187.5 "/>
<text text-anchor="middle" x="41.5" y="-175.5" font-family="Helvetica,sans-Serif" font-size="10.00"> </text>
<polyline fill="none" stroke="black" points="0,-168.5 83,-168.5 "/>
<text text-anchor="middle" x="41.5" y="-156.5" font-family="Helvetica,sans-Serif" font-size="10.00"> </text>
</a>
</g>
</g>
<!-- Node3&#45;&gt;Node2 -->
<g id="edge1" class="edge"><title>Node3&#45;&gt;Node2</title>
<path fill="none" stroke="midnightblue" d="M82.7703,-142.913C102.137,-126.917 125.458,-107.655 146.146,-90.5676"/>
<polygon fill="none" stroke="midnightblue" points="80.489,-140.258 75.0077,-149.324 84.9468,-145.655 80.489,-140.258"/>
</g>
<!-- Node4 -->
<g id="node3" class="node"><title>Node4</title>
<polygon fill="white" stroke="#bfbfbf" points="101,-149.5 101,-206.5 142,-206.5 142,-149.5 101,-149.5"/>
<text text-anchor="middle" x="121.5" y="-194.5" font-family="Helvetica,sans-Serif" font-size="10.00">string</text>
<polyline fill="none" stroke="#bfbfbf" points="101,-187.5 142,-187.5 "/>
<text text-anchor="middle" x="121.5" y="-175.5" font-family="Helvetica,sans-Serif" font-size="10.00"> </text>
<polyline fill="none" stroke="#bfbfbf" points="101,-168.5 142,-168.5 "/>
<text text-anchor="middle" x="121.5" y="-156.5" font-family="Helvetica,sans-Serif" font-size="10.00"> </text>
</g>
<!-- Node4&#45;&gt;Node2 -->
<g id="edge2" class="edge"><title>Node4&#45;&gt;Node2</title>
<path fill="none" stroke="#404040" d="M126.054,-149.338C128.945,-136.5 133.502,-121.378 140.5,-109 142.187,-106.016 144.046,-103.065 146.032,-100.164"/>
<polygon fill="none" stroke="#404040" points="146.046,-100.146 146.423,-92.9446 153.215,-90.5226 152.838,-97.7238 146.046,-100.146"/>
<text text-anchor="middle" x="168" y="-117.5" font-family="Helvetica,sans-Serif" font-size="10.00"> +fadeScene</text>
</g>
<!-- Node5 -->
<g id="node4" class="node"><title>Node5</title>
<polygon fill="white" stroke="#bfbfbf" points="182,-149.5 182,-206.5 217,-206.5 217,-149.5 182,-149.5"/>
<text text-anchor="middle" x="199.5" y="-194.5" font-family="Helvetica,sans-Serif" font-size="10.00">float</text>
<polyline fill="none" stroke="#bfbfbf" points="182,-187.5 217,-187.5 "/>
<text text-anchor="middle" x="199.5" y="-175.5" font-family="Helvetica,sans-Serif" font-size="10.00"> </text>
<polyline fill="none" stroke="#bfbfbf" points="182,-168.5 217,-168.5 "/>
<text text-anchor="middle" x="199.5" y="-156.5" font-family="Helvetica,sans-Serif" font-size="10.00"> </text>
</g>
<!-- Node5&#45;&gt;Node2 -->
<g id="edge3" class="edge"><title>Node5&#45;&gt;Node2</title>
<path fill="none" stroke="#404040" d="M199.5,-149.324C199.5,-135.731 199.5,-118.837 199.5,-102.696"/>
<polygon fill="none" stroke="#404040" points="199.5,-102.568 195.5,-96.5677 199.5,-90.5676 203.5,-96.5676 199.5,-102.568"/>
<text text-anchor="middle" x="224.5" y="-123" font-family="Helvetica,sans-Serif" font-size="10.00"> +alpha</text>
<text text-anchor="middle" x="224.5" y="-112" font-family="Helvetica,sans-Serif" font-size="10.00">+fadeDamp</text>
</g>
<!-- Node6 -->
<g id="node5" class="node"><title>Node6</title>
<polygon fill="white" stroke="#bfbfbf" points="255,-149.5 255,-206.5 290,-206.5 290,-149.5 255,-149.5"/>
<text text-anchor="middle" x="272.5" y="-194.5" font-family="Helvetica,sans-Serif" font-size="10.00">bool</text>
<polyline fill="none" stroke="#bfbfbf" points="255,-187.5 290,-187.5 "/>
<text text-anchor="middle" x="272.5" y="-175.5" font-family="Helvetica,sans-Serif" font-size="10.00"> </text>
<polyline fill="none" stroke="#bfbfbf" points="255,-168.5 290,-168.5 "/>
<text text-anchor="middle" x="272.5" y="-156.5" font-family="Helvetica,sans-Serif" font-size="10.00"> </text>
</g>
<!-- Node6&#45;&gt;Node2 -->
<g id="edge4" class="edge"><title>Node6&#45;&gt;Node2</title>
<path fill="none" stroke="#404040" d="M266.041,-149.243C262.457,-136.527 257.324,-121.532 250.5,-109 249.035,-106.31 247.448,-103.622 245.77,-100.958"/>
<polygon fill="none" stroke="#404040" points="245.644,-100.771 238.968,-98.0436 238.918,-90.8326 245.594,-93.5599 245.644,-100.771"/>
<text text-anchor="middle" x="282.5" y="-123" font-family="Helvetica,sans-Serif" font-size="10.00"> +isFadeIn</text>
<text text-anchor="middle" x="282.5" y="-112" font-family="Helvetica,sans-Serif" font-size="10.00">+start</text>
</g>
<!-- Node7 -->
<g id="node6" class="node"><title>Node7</title>
<polygon fill="white" stroke="#bfbfbf" points="322,-149.5 322,-206.5 361,-206.5 361,-149.5 322,-149.5"/>
<text text-anchor="middle" x="341.5" y="-194.5" font-family="Helvetica,sans-Serif" font-size="10.00">Color</text>
<polyline fill="none" stroke="#bfbfbf" points="322,-187.5 361,-187.5 "/>
<text text-anchor="middle" x="341.5" y="-175.5" font-family="Helvetica,sans-Serif" font-size="10.00"> </text>
<polyline fill="none" stroke="#bfbfbf" points="322,-168.5 361,-168.5 "/>
<text text-anchor="middle" x="341.5" y="-156.5" font-family="Helvetica,sans-Serif" font-size="10.00"> </text>
</g>
<!-- Node7&#45;&gt;Node2 -->
<g id="edge5" class="edge"><title>Node7&#45;&gt;Node2</title>
<path fill="none" stroke="#404040" d="M332.879,-149.208C327.705,-135.887 320.049,-120.393 309.5,-109 300.209,-98.9656 288.93,-90.1152 277.181,-82.4664"/>
<polygon fill="none" stroke="#404040" points="276.989,-82.3485 269.783,-82.6072 266.772,-76.0545 273.979,-75.7959 276.989,-82.3485"/>
<text text-anchor="middle" x="349.5" y="-117.5" font-family="Helvetica,sans-Serif" font-size="10.00"> +fadeColor</text>
</g>
</g>
</svg>
