<?xml version="1.0" encoding="UTF-8" standalone="no"?>
<!DOCTYPE svg PUBLIC "-//W3C//DTD SVG 1.1//EN"
 "http://www.w3.org/Graphics/SVG/1.1/DTD/svg11.dtd">
<!-- Generated by graphviz version 2.38.0 (20140413.2041)
 -->
<!-- Title: RaiseAttack Pages: 1 -->
<!--zoomable 1045 -->
<svg id="main" version="1.1" xmlns="http://www.w3.org/2000/svg" xmlns:xlink="http://www.w3.org/1999/xlink" xml:space="preserve" onload="init(evt)">
<style type="text/css"><![CDATA[
.edge:hover path { stroke: red; }
.edge:hover polygon { stroke: red; fill: red; }
]]></style>
<script type="text/javascript"><![CDATA[
var edges = document.getElementsByTagName('g');
if (edges && edges.length) {
  for (var i=0;i<edges.length;i++) {
    if (edges[i].id.substr(0,4)=='edge') {
      edges[i].setAttribute('class','edge');
    }
  }
}
]]></script>
        <defs>
                <circle id="rim" cx="0" cy="0" r="7"/>
                <circle id="rim2" cx="0" cy="0" r="3.5"/>
                <g id="zoomPlus">
                        <use xlink:href="#rim" fill="#404040">
                                <set attributeName="fill" to="#808080" begin="zoomplus.mouseover" end="zoomplus.mouseout"/>
                        </use>
                        <path d="M-4,0h8M0,-4v8" fill="none" stroke="white" stroke-width="1.5" pointer-events="none"/>
                </g>
                <g id="zoomMin">
                        <use xlink:href="#rim" fill="#404040">
                                <set attributeName="fill" to="#808080" begin="zoomminus.mouseover" end="zoomminus.mouseout"/>
                        </use>
                        <path d="M-4,0h8" fill="none" stroke="white" stroke-width="1.5" pointer-events="none"/>
                </g>
                <g id="dirArrow">
                        <path fill="none" stroke="white" stroke-width="1.5" d="M0,-3.0v7 M-2.5,-0.5L0,-3.0L2.5,-0.5"/>
                </g>
               <g id="resetDef">
                       <use xlink:href="#rim2" fill="#404040">
                               <set attributeName="fill" to="#808080" begin="reset.mouseover" end="reset.mouseout"/>
                       </use>
               </g>
        </defs>

<script type="text/javascript">
var viewWidth = 745;
var viewHeight = 1045;
var sectionId = 'dynsection-1';
</script>
<script xlink:href="svgpan.js"/>
<svg id="graph" class="graph">
<g id="viewport">
<title>RaiseAttack</title>
<!-- Node3 -->
<g id="node1" class="node"><title>Node3</title>
<polygon fill="#bfbfbf" stroke="black" points="598,-590.5 598,-658.5 684,-658.5 684,-590.5 598,-590.5"/>
<text text-anchor="middle" x="641" y="-646.5" font-family="Helvetica,sans-Serif" font-size="10.00">RaiseAttack</text>
<polyline fill="none" stroke="black" points="598,-639.5 684,-639.5 "/>
<text text-anchor="middle" x="641" y="-627.5" font-family="Helvetica,sans-Serif" font-size="10.00"> </text>
<polyline fill="none" stroke="black" points="598,-620.5 684,-620.5 "/>
<text text-anchor="start" x="606" y="-608.5" font-family="Helvetica,sans-Serif" font-size="10.00">+ RaiseAttack()</text>
<text text-anchor="start" x="606" y="-597.5" font-family="Helvetica,sans-Serif" font-size="10.00">+ performMove()</text>
</g>
<!-- Node4 -->
<g id="node2" class="node"><title>Node4</title>
<g id="a_node2"><a xlink:href="class_special_move.html" target="_top" xlink:title="Special move abstract base class that expands upon CharacterMove, adding magic properties ...">
<polygon fill="none" stroke="black" points="521,-830.5 521,-920.5 619,-920.5 619,-830.5 521,-830.5"/>
<text text-anchor="middle" x="570" y="-908.5" font-family="Helvetica,sans-Serif" font-size="10.00">SpecialMove</text>
<polyline fill="none" stroke="black" points="521,-901.5 619,-901.5 "/>
<text text-anchor="start" x="529" y="-889.5" font-family="Helvetica,sans-Serif" font-size="10.00">+ Magic</text>
<text text-anchor="start" x="529" y="-878.5" font-family="Helvetica,sans-Serif" font-size="10.00">+ Desc</text>
<polyline fill="none" stroke="black" points="521,-871.5 619,-871.5 "/>
<text text-anchor="start" x="529" y="-859.5" font-family="Helvetica,sans-Serif" font-size="10.00">+ setUp()</text>
<text text-anchor="start" x="529" y="-848.5" font-family="Helvetica,sans-Serif" font-size="10.00">+ decreaseMagic()</text>
<text text-anchor="start" x="529" y="-837.5" font-family="Helvetica,sans-Serif" font-size="10.00"># SpecialMove()</text>
</a>
</g>
</g>
<!-- Node4&#45;&gt;Node3 -->
<g id="edge1" class="edge"><title>Node4&#45;&gt;Node3</title>
<path fill="none" stroke="midnightblue" d="M585.423,-820.413C599.477,-771.122 619.787,-699.893 631.567,-658.581"/>
<polygon fill="none" stroke="midnightblue" points="581.988,-819.694 582.612,-830.271 588.72,-821.614 581.988,-819.694"/>
</g>
<!-- Node7 -->
<g id="node5" class="node"><title>Node7</title>
<g id="a_node5"><a xlink:href="class_character.html" target="_top" xlink:title="Base abstract class for Enemy and Player to inherit from. Defines all shared variables, their constructor and their setters and getters ">
<polygon fill="none" stroke="black" points="302.5,-535.5 302.5,-713.5 397.5,-713.5 397.5,-535.5 302.5,-535.5"/>
<text text-anchor="middle" x="350" y="-701.5" font-family="Helvetica,sans-Serif" font-size="10.00">Character</text>
<polyline fill="none" stroke="black" points="302.5,-694.5 397.5,-694.5 "/>
<text text-anchor="start" x="310.5" y="-682.5" font-family="Helvetica,sans-Serif" font-size="10.00">+ Name</text>
<text text-anchor="start" x="310.5" y="-671.5" font-family="Helvetica,sans-Serif" font-size="10.00">+ Level</text>
<text text-anchor="start" x="310.5" y="-660.5" font-family="Helvetica,sans-Serif" font-size="10.00">+ Health</text>
<text text-anchor="start" x="310.5" y="-649.5" font-family="Helvetica,sans-Serif" font-size="10.00">+ Attack</text>
<text text-anchor="start" x="310.5" y="-638.5" font-family="Helvetica,sans-Serif" font-size="10.00">+ Defence</text>
<text text-anchor="start" x="310.5" y="-627.5" font-family="Helvetica,sans-Serif" font-size="10.00">+ MaximumMagic</text>
<text text-anchor="start" x="310.5" y="-616.5" font-family="Helvetica,sans-Serif" font-size="10.00">+ Magic</text>
<text text-anchor="start" x="310.5" y="-605.5" font-family="Helvetica,sans-Serif" font-size="10.00">+ Luck</text>
<text text-anchor="start" x="310.5" y="-594.5" font-family="Helvetica,sans-Serif" font-size="10.00">+ Speed</text>
<text text-anchor="start" x="310.5" y="-583.5" font-family="Helvetica,sans-Serif" font-size="10.00">+ Special1</text>
<text text-anchor="start" x="310.5" y="-572.5" font-family="Helvetica,sans-Serif" font-size="10.00">+ Special2</text>
<text text-anchor="start" x="310.5" y="-561.5" font-family="Helvetica,sans-Serif" font-size="10.00">+ Image</text>
<polyline fill="none" stroke="black" points="302.5,-554.5 397.5,-554.5 "/>
<text text-anchor="start" x="310.5" y="-542.5" font-family="Helvetica,sans-Serif" font-size="10.00"># Character()</text>
</a>
</g>
</g>
<!-- Node4&#45;&gt;Node7 -->
<g id="edge7" class="edge"><title>Node4&#45;&gt;Node7</title>
<path fill="none" stroke="#404040" d="M527.854,-830.341C522.147,-824.219 516.4,-817.981 511,-812 475.346,-772.509 436.331,-727.365 405.637,-691.384"/>
<polygon fill="none" stroke="#404040" points="405.398,-691.104 398.462,-689.13 397.617,-681.969 404.552,-683.942 405.398,-691.104"/>
<text text-anchor="middle" x="533.5" y="-775" font-family="Helvetica,sans-Serif" font-size="10.00"> #special1</text>
<text text-anchor="middle" x="533.5" y="-764" font-family="Helvetica,sans-Serif" font-size="10.00">#special2</text>
</g>
<!-- Node5 -->
<g id="node3" class="node"><title>Node5</title>
<g id="a_node3"><a xlink:href="class_character_move.html" target="_top" xlink:title="Astract base class for character moves ">
<polygon fill="none" stroke="black" points="470,-0.5 470,-79.5 556,-79.5 556,-0.5 470,-0.5"/>
<text text-anchor="middle" x="513" y="-67.5" font-family="Helvetica,sans-Serif" font-size="10.00">CharacterMove</text>
<polyline fill="none" stroke="black" points="470,-60.5 556,-60.5 "/>
<text text-anchor="start" x="478" y="-48.5" font-family="Helvetica,sans-Serif" font-size="10.00">+ User</text>
<text text-anchor="start" x="478" y="-37.5" font-family="Helvetica,sans-Serif" font-size="10.00">+ Target</text>
<text text-anchor="start" x="478" y="-26.5" font-family="Helvetica,sans-Serif" font-size="10.00">+ Text</text>
<polyline fill="none" stroke="black" points="470,-19.5 556,-19.5 "/>
<text text-anchor="start" x="478" y="-7.5" font-family="Helvetica,sans-Serif" font-size="10.00">+ performMove()</text>
</a>
</g>
</g>
<!-- Node5&#45;&gt;Node4 -->
<g id="edge2" class="edge"><title>Node5&#45;&gt;Node4</title>
<path fill="none" stroke="midnightblue" d="M536.9,-88.7328C552.505,-124.285 570,-174.51 570,-221 570,-625.5 570,-625.5 570,-625.5 570,-697.26 570,-780.654 570,-830.421"/>
<polygon fill="none" stroke="midnightblue" points="540.071,-87.2496 532.776,-79.5663 533.687,-90.1219 540.071,-87.2496"/>
</g>
<!-- Node6 -->
<g id="node4" class="node"><title>Node6</title>
<polygon fill="none" stroke="#bfbfbf" points="472.5,-979.5 472.5,-1036.5 513.5,-1036.5 513.5,-979.5 472.5,-979.5"/>
<text text-anchor="middle" x="493" y="-1024.5" font-family="Helvetica,sans-Serif" font-size="10.00">string</text>
<polyline fill="none" stroke="#bfbfbf" points="472.5,-1017.5 513.5,-1017.5 "/>
<text text-anchor="middle" x="493" y="-1005.5" font-family="Helvetica,sans-Serif" font-size="10.00"> </text>
<polyline fill="none" stroke="#bfbfbf" points="472.5,-998.5 513.5,-998.5 "/>
<text text-anchor="middle" x="493" y="-986.5" font-family="Helvetica,sans-Serif" font-size="10.00"> </text>
</g>
<!-- Node6&#45;&gt;Node4 -->
<g id="edge21" class="edge"><title>Node6&#45;&gt;Node4</title>
<path fill="none" stroke="#404040" d="M509.33,-979.324C517.586,-965.331 527.907,-947.84 537.681,-931.274"/>
<polygon fill="none" stroke="#404040" points="537.9,-930.903 537.504,-923.702 543.998,-920.568 544.394,-927.768 537.9,-930.903"/>
<text text-anchor="middle" x="547" y="-947.5" font-family="Helvetica,sans-Serif" font-size="10.00"> #desc</text>
</g>
<!-- Node6&#45;&gt;Node5 -->
<g id="edge3" class="edge"><title>Node6&#45;&gt;Node5</title>
<path fill="none" stroke="#404040" d="M513.603,-1004.61C568.12,-997.035 712,-968.338 712,-876.5 712,-876.5 712,-876.5 712,-221 712,-142.662 626.132,-89.5723 567.207,-62.3634"/>
<polygon fill="none" stroke="#404040" points="567.132,-62.3299 560.021,-63.5283 556.18,-57.4253 563.291,-56.2269 567.132,-62.3299"/>
<text text-anchor="middle" x="724.5" y="-509" font-family="Helvetica,sans-Serif" font-size="10.00"> #text</text>
</g>
<!-- Node6&#45;&gt;Node7 -->
<g id="edge5" class="edge"><title>Node6&#45;&gt;Node7</title>
<path fill="none" stroke="#404040" d="M476.143,-979.406C466.491,-962.864 454.624,-941.184 446,-921 411.374,-839.956 413.446,-815.749 386,-732 385.259,-729.74 384.507,-727.453 383.747,-725.148"/>
<polygon fill="none" stroke="#404040" points="383.663,-724.894 377.979,-720.457 379.89,-713.503 385.574,-717.941 383.663,-724.894"/>
<text text-anchor="middle" x="462.5" y="-873" font-family="Helvetica,sans-Serif" font-size="10.00"> #name</text>
</g>
<!-- Node10 -->
<g id="node8" class="node"><title>Node10</title>
<g id="a_node8"><a xlink:href="class_battle_manager.html" target="_top" xlink:title="Holds current Player and Enemy objects in battle and provides functions for MainBattle and other obje...">
<polygon fill="none" stroke="black" points="212,-127.5 212,-316.5 328,-316.5 328,-127.5 212,-127.5"/>
<text text-anchor="middle" x="270" y="-304.5" font-family="Helvetica,sans-Serif" font-size="10.00">BattleManager</text>
<polyline fill="none" stroke="black" points="212,-297.5 328,-297.5 "/>
<text text-anchor="start" x="220" y="-285.5" font-family="Helvetica,sans-Serif" font-size="10.00">+ Player</text>
<text text-anchor="start" x="220" y="-274.5" font-family="Helvetica,sans-Serif" font-size="10.00">+ Enemy</text>
<text text-anchor="start" x="220" y="-263.5" font-family="Helvetica,sans-Serif" font-size="10.00">+ WasCriticalHit</text>
<polyline fill="none" stroke="black" points="212,-256.5 328,-256.5 "/>
<text text-anchor="start" x="220" y="-244.5" font-family="Helvetica,sans-Serif" font-size="10.00">+ BattleManager()</text>
<text text-anchor="start" x="220" y="-233.5" font-family="Helvetica,sans-Serif" font-size="10.00">+ playerFirst()</text>
<text text-anchor="start" x="220" y="-222.5" font-family="Helvetica,sans-Serif" font-size="10.00">+ switchPlayers()</text>
<text text-anchor="start" x="220" y="-211.5" font-family="Helvetica,sans-Serif" font-size="10.00">+ isCriticalHit()</text>
<text text-anchor="start" x="220" y="-200.5" font-family="Helvetica,sans-Serif" font-size="10.00">+ ranAway()</text>
<text text-anchor="start" x="220" y="-189.5" font-family="Helvetica,sans-Serif" font-size="10.00">+ damageCalculation()</text>
<text text-anchor="start" x="220" y="-178.5" font-family="Helvetica,sans-Serif" font-size="10.00">+ enemyMove()</text>
<text text-anchor="start" x="220" y="-167.5" font-family="Helvetica,sans-Serif" font-size="10.00">+ enemySpecialMove()</text>
<text text-anchor="start" x="220" y="-156.5" font-family="Helvetica,sans-Serif" font-size="10.00">+ battleWon()</text>
<text text-anchor="start" x="220" y="-145.5" font-family="Helvetica,sans-Serif" font-size="10.00">+ playerFainted()</text>
<text text-anchor="start" x="220" y="-134.5" font-family="Helvetica,sans-Serif" font-size="10.00">&#45; characterFainted()</text>
</a>
</g>
</g>
<!-- Node6&#45;&gt;Node10 -->
<g id="edge10" class="edge"><title>Node6&#45;&gt;Node10</title>
<path fill="none" stroke="#404040" d="M493.953,-979.404C495.154,-929.548 495.373,-821.341 479,-732 448.952,-568.035 423.851,-530.581 364,-375 357,-356.805 355.509,-352.019 346,-335 342.39,-328.538 338.517,-321.971 334.501,-315.422"/>
<polygon fill="none" stroke="#404040" points="334.45,-315.34 327.878,-312.371 328.091,-305.163 334.662,-308.132 334.45,-315.34"/>
<text text-anchor="middle" x="518" y="-627.5" font-family="Helvetica,sans-Serif" font-size="10.00"> +forceEnemyMove</text>
<text text-anchor="middle" x="518" y="-616.5" font-family="Helvetica,sans-Serif" font-size="10.00">+forceCriticalHits</text>
</g>
<!-- Node14 -->
<g id="node12" class="node"><title>Node14</title>
<g id="a_node12"><a xlink:href="class_item.html" target="_top" xlink:title="Abstract class for items that can be equipped to a player, increasing some of their stats ...">
<polygon fill="none" stroke="black" points="216.5,-732.5 216.5,-811.5 293.5,-811.5 293.5,-732.5 216.5,-732.5"/>
<text text-anchor="middle" x="255" y="-799.5" font-family="Helvetica,sans-Serif" font-size="10.00">Item</text>
<polyline fill="none" stroke="black" points="216.5,-792.5 293.5,-792.5 "/>
<text text-anchor="start" x="224.5" y="-780.5" font-family="Helvetica,sans-Serif" font-size="10.00">+ Name</text>
<text text-anchor="start" x="224.5" y="-769.5" font-family="Helvetica,sans-Serif" font-size="10.00">+ Desc</text>
<polyline fill="none" stroke="black" points="216.5,-762.5 293.5,-762.5 "/>
<text text-anchor="start" x="224.5" y="-750.5" font-family="Helvetica,sans-Serif" font-size="10.00">+ applyBuffs()</text>
<text text-anchor="start" x="224.5" y="-739.5" font-family="Helvetica,sans-Serif" font-size="10.00">+ revertBuffs()</text>
</a>
</g>
</g>
<!-- Node6&#45;&gt;Node14 -->
<g id="edge19" class="edge"><title>Node6&#45;&gt;Node14</title>
<path fill="none" stroke="#404040" d="M472.421,-1007.84C435.886,-1008.16 359.546,-1003.32 317,-961 274.271,-918.503 302.762,-886.575 282,-830 281.131,-827.631 280.199,-825.226 279.223,-822.812"/>
<polygon fill="none" stroke="#404040" points="279.121,-822.573 273.085,-818.627 274.405,-811.538 280.441,-815.483 279.121,-822.573"/>
<text text-anchor="middle" x="332" y="-953" font-family="Helvetica,sans-Serif" font-size="10.00"> #desc</text>
<text text-anchor="middle" x="332" y="-942" font-family="Helvetica,sans-Serif" font-size="10.00">#name</text>
</g>
<!-- Node7&#45;&gt;Node5 -->
<g id="edge4" class="edge"><title>Node7&#45;&gt;Node5</title>
<path fill="none" stroke="#404040" d="M374.668,-535.347C409.312,-411.543 471.237,-190.244 498.936,-91.26"/>
<polygon fill="none" stroke="#404040" points="498.985,-91.0848 496.75,-84.2288 502.219,-79.5287 504.454,-86.3847 498.985,-91.0848"/>
<text text-anchor="middle" x="447" y="-349" font-family="Helvetica,sans-Serif" font-size="10.00"> #target</text>
<text text-anchor="middle" x="447" y="-338" font-family="Helvetica,sans-Serif" font-size="10.00">#user</text>
</g>
<!-- Node11 -->
<g id="node9" class="node"><title>Node11</title>
<g id="a_node9"><a xlink:href="class_enemy.html" target="_top" xlink:title="Defines an AI controller enemy to fight in battle scenes">
<polygon fill="none" stroke="black" points="288.5,-403 288.5,-460 355.5,-460 355.5,-403 288.5,-403"/>
<text text-anchor="middle" x="322" y="-448" font-family="Helvetica,sans-Serif" font-size="10.00">Enemy</text>
<polyline fill="none" stroke="black" points="288.5,-441 355.5,-441 "/>
<text text-anchor="start" x="296.5" y="-429" font-family="Helvetica,sans-Serif" font-size="10.00">+ ExpGiven</text>
<polyline fill="none" stroke="black" points="288.5,-422 355.5,-422 "/>
<text text-anchor="start" x="296.5" y="-410" font-family="Helvetica,sans-Serif" font-size="10.00">+ Enemy()</text>
</a>
</g>
</g>
<!-- Node7&#45;&gt;Node11 -->
<g id="edge12" class="edge"><title>Node7&#45;&gt;Node11</title>
<path fill="none" stroke="midnightblue" d="M335.569,-525.059C332.076,-501.231 328.618,-477.647 326.068,-460.249"/>
<polygon fill="none" stroke="midnightblue" points="332.152,-525.882 337.065,-535.268 339.078,-524.866 332.152,-525.882"/>
</g>
<!-- Node13 -->
<g id="node11" class="node"><title>Node13</title>
<g id="a_node11"><a xlink:href="class_player.html" target="_top" xlink:title="Defines a playable character for use in battle scenes">
<polygon fill="none" stroke="black" points="71,-375.5 71,-487.5 183,-487.5 183,-375.5 71,-375.5"/>
<text text-anchor="middle" x="127" y="-475.5" font-family="Helvetica,sans-Serif" font-size="10.00">Player</text>
<polyline fill="none" stroke="black" points="71,-468.5 183,-468.5 "/>
<text text-anchor="start" x="79" y="-456.5" font-family="Helvetica,sans-Serif" font-size="10.00">+ Exp</text>
<text text-anchor="start" x="79" y="-445.5" font-family="Helvetica,sans-Serif" font-size="10.00">+ Item</text>
<text text-anchor="start" x="79" y="-434.5" font-family="Helvetica,sans-Serif" font-size="10.00">+ ExpToNextLevel</text>
<polyline fill="none" stroke="black" points="71,-427.5 183,-427.5 "/>
<text text-anchor="start" x="79" y="-415.5" font-family="Helvetica,sans-Serif" font-size="10.00">+ Player()</text>
<text text-anchor="start" x="79" y="-404.5" font-family="Helvetica,sans-Serif" font-size="10.00">+ gainExp()</text>
<text text-anchor="start" x="79" y="-393.5" font-family="Helvetica,sans-Serif" font-size="10.00">+ levelUp()</text>
<text text-anchor="start" x="79" y="-382.5" font-family="Helvetica,sans-Serif" font-size="10.00">&#45; setExpToNextLevel()</text>
</a>
</g>
</g>
<!-- Node7&#45;&gt;Node13 -->
<g id="edge17" class="edge"><title>Node7&#45;&gt;Node13</title>
<path fill="none" stroke="midnightblue" d="M294.46,-575.93C260.513,-546.855 217.225,-509.778 183.165,-480.605"/>
<polygon fill="none" stroke="midnightblue" points="292.563,-578.913 302.434,-582.76 297.116,-573.597 292.563,-578.913"/>
</g>
<!-- Node8 -->
<g id="node6" class="node"><title>Node8</title>
<polygon fill="none" stroke="#bfbfbf" points="142.5,-979.5 142.5,-1036.5 171.5,-1036.5 171.5,-979.5 142.5,-979.5"/>
<text text-anchor="middle" x="157" y="-1024.5" font-family="Helvetica,sans-Serif" font-size="10.00">int</text>
<polyline fill="none" stroke="#bfbfbf" points="142.5,-1017.5 171.5,-1017.5 "/>
<text text-anchor="middle" x="157" y="-1005.5" font-family="Helvetica,sans-Serif" font-size="10.00"> </text>
<polyline fill="none" stroke="#bfbfbf" points="142.5,-998.5 171.5,-998.5 "/>
<text text-anchor="middle" x="157" y="-986.5" font-family="Helvetica,sans-Serif" font-size="10.00"> </text>
</g>
<!-- Node8&#45;&gt;Node4 -->
<g id="edge22" class="edge"><title>Node8&#45;&gt;Node4</title>
<path fill="none" stroke="#404040" d="M171.594,-1003.95C216.681,-994.319 357.429,-962.721 469,-921 482.39,-915.993 496.555,-910.124 509.904,-904.322"/>
<polygon fill="none" stroke="#404040" points="509.909,-904.32 513.788,-898.241 520.891,-899.484 517.012,-905.563 509.909,-904.32"/>
<text text-anchor="middle" x="428.5" y="-947.5" font-family="Helvetica,sans-Serif" font-size="10.00"> #magic</text>
</g>
<!-- Node8&#45;&gt;Node7 -->
<g id="edge6" class="edge"><title>Node8&#45;&gt;Node7</title>
<path fill="none" stroke="#404040" d="M164.86,-979.242C177.075,-940.787 204.112,-871.378 250,-830 265.997,-815.575 280.499,-827.928 295,-812 316.662,-788.206 329.818,-756.274 337.799,-725.563"/>
<polygon fill="none" stroke="#404040" points="337.805,-725.539 335.319,-718.77 340.611,-713.872 343.097,-720.641 337.805,-725.539"/>
<text text-anchor="middle" x="287.5" y="-911.5" font-family="Helvetica,sans-Serif" font-size="10.00"> #speed</text>
<text text-anchor="middle" x="287.5" y="-900.5" font-family="Helvetica,sans-Serif" font-size="10.00">#luck</text>
<text text-anchor="middle" x="287.5" y="-889.5" font-family="Helvetica,sans-Serif" font-size="10.00">#health</text>
<text text-anchor="middle" x="287.5" y="-878.5" font-family="Helvetica,sans-Serif" font-size="10.00">#magic</text>
<text text-anchor="middle" x="287.5" y="-867.5" font-family="Helvetica,sans-Serif" font-size="10.00">#maximumMagic</text>
<text text-anchor="middle" x="287.5" y="-856.5" font-family="Helvetica,sans-Serif" font-size="10.00">#attack</text>
<text text-anchor="middle" x="287.5" y="-845.5" font-family="Helvetica,sans-Serif" font-size="10.00">#defence</text>
<text text-anchor="middle" x="287.5" y="-834.5" font-family="Helvetica,sans-Serif" font-size="10.00">#level</text>
</g>
<!-- Node8&#45;&gt;Node10 -->
<g id="edge14" class="edge"><title>Node8&#45;&gt;Node10</title>
<path fill="none" stroke="#404040" d="M142.23,-1002.64C103.147,-990.104 0,-950.045 0,-876.5 0,-876.5 0,-876.5 0,-430.5 0,-329.497 120.255,-270.89 200.254,-243.076"/>
<polygon fill="none" stroke="#404040" points="200.377,-243.034 204.782,-237.325 211.746,-239.194 207.342,-244.904 200.377,-243.034"/>
<text text-anchor="middle" x="19.5" y="-622" font-family="Helvetica,sans-Serif" font-size="10.00"> +money</text>
</g>
<!-- Node8&#45;&gt;Node11 -->
<g id="edge13" class="edge"><title>Node8&#45;&gt;Node11</title>
<path fill="none" stroke="#404040" d="M153.165,-979.496C147.094,-929.334 138.153,-820.044 161,-732 187.467,-630.006 255.297,-524.638 293.942,-470.187"/>
<polygon fill="none" stroke="#404040" points="294.035,-470.057 294.284,-462.85 301.032,-460.308 300.783,-467.515 294.035,-470.057"/>
<text text-anchor="middle" x="184" y="-769.5" font-family="Helvetica,sans-Serif" font-size="10.00"> &#45;expGiven</text>
</g>
<!-- Node8&#45;&gt;Node13 -->
<g id="edge20" class="edge"><title>Node8&#45;&gt;Node13</title>
<path fill="none" stroke="#404040" d="M142.421,-983.837C121.089,-948.433 82.3497,-878.001 68,-812 44.4015,-703.46 76.4995,-575.48 101.8,-499.323"/>
<polygon fill="none" stroke="#404040" points="101.936,-498.92 100.077,-491.952 105.792,-487.556 107.652,-494.523 101.936,-498.92"/>
<text text-anchor="middle" x="105.5" y="-775" font-family="Helvetica,sans-Serif" font-size="10.00"> &#45;expToNextLevel</text>
<text text-anchor="middle" x="105.5" y="-764" font-family="Helvetica,sans-Serif" font-size="10.00">&#45;exp</text>
</g>
<!-- Node9 -->
<g id="node7" class="node"><title>Node9</title>
<polygon fill="none" stroke="#bfbfbf" points="334.5,-847 334.5,-904 395.5,-904 395.5,-847 334.5,-847"/>
<text text-anchor="middle" x="365" y="-892" font-family="Helvetica,sans-Serif" font-size="10.00">Texture2D</text>
<polyline fill="none" stroke="#bfbfbf" points="334.5,-885 395.5,-885 "/>
<text text-anchor="middle" x="365" y="-873" font-family="Helvetica,sans-Serif" font-size="10.00"> </text>
<polyline fill="none" stroke="#bfbfbf" points="334.5,-866 395.5,-866 "/>
<text text-anchor="middle" x="365" y="-854" font-family="Helvetica,sans-Serif" font-size="10.00"> </text>
</g>
<!-- Node9&#45;&gt;Node7 -->
<g id="edge8" class="edge"><title>Node9&#45;&gt;Node7</title>
<path fill="none" stroke="#404040" d="M357.432,-846.717C354.857,-835.96 352.302,-823.491 351,-812 347.855,-784.255 346.716,-754.038 346.587,-726.164"/>
<polygon fill="none" stroke="#404040" points="346.587,-725.959 342.59,-719.957 346.594,-713.959 350.59,-719.961 346.587,-725.959"/>
<text text-anchor="middle" x="368.5" y="-769.5" font-family="Helvetica,sans-Serif" font-size="10.00"> #image</text>
</g>
<!-- Node10&#45;&gt;Node5 -->
<g id="edge9" class="edge"><title>Node10&#45;&gt;Node5</title>
<path fill="none" stroke="#404040" d="M328.01,-156.714C348.284,-136.412 372.002,-114.892 396,-98 415.253,-84.4477 438.217,-72.4841 458.682,-63.0613"/>
<polygon fill="none" stroke="#404040" points="458.806,-63.0058 462.643,-56.9003 469.755,-58.0939 465.917,-64.1994 458.806,-63.0058"/>
<text text-anchor="middle" x="419" y="-101" font-family="Helvetica,sans-Serif" font-size="10.00"> #manager</text>
</g>
<!-- Node11&#45;&gt;Node10 -->
<g id="edge11" class="edge"><title>Node11&#45;&gt;Node10</title>
<path fill="none" stroke="#404040" d="M315.903,-402.856C311.623,-383.755 305.674,-357.784 300,-335 299.467,-332.859 298.924,-330.696 298.374,-328.517"/>
<polygon fill="none" stroke="#404040" points="298.337,-328.369 292.978,-323.544 295.37,-316.742 300.729,-321.567 298.337,-328.369"/>
<text text-anchor="middle" x="324" y="-343.5" font-family="Helvetica,sans-Serif" font-size="10.00"> &#45;enemy</text>
</g>
<!-- Node12 -->
<g id="node10" class="node"><title>Node12</title>
<polygon fill="none" stroke="#bfbfbf" points="215.5,-403 215.5,-460 250.5,-460 250.5,-403 215.5,-403"/>
<text text-anchor="middle" x="233" y="-448" font-family="Helvetica,sans-Serif" font-size="10.00">bool</text>
<polyline fill="none" stroke="#bfbfbf" points="215.5,-441 250.5,-441 "/>
<text text-anchor="middle" x="233" y="-429" font-family="Helvetica,sans-Serif" font-size="10.00"> </text>
<polyline fill="none" stroke="#bfbfbf" points="215.5,-422 250.5,-422 "/>
<text text-anchor="middle" x="233" y="-410" font-family="Helvetica,sans-Serif" font-size="10.00"> </text>
</g>
<!-- Node12&#45;&gt;Node10 -->
<g id="edge15" class="edge"><title>Node12&#45;&gt;Node10</title>
<path fill="none" stroke="#404040" d="M231.107,-402.731C230.333,-383.573 230.338,-357.587 234,-335 234.352,-332.826 234.739,-330.637 235.156,-328.438"/>
<polygon fill="none" stroke="#404040" points="235.176,-328.345 232.505,-321.647 237.66,-316.605 240.331,-323.303 235.176,-328.345"/>
<text text-anchor="middle" x="267" y="-343.5" font-family="Helvetica,sans-Serif" font-size="10.00"> &#45;wasCriticalHit</text>
</g>
<!-- Node13&#45;&gt;Node10 -->
<g id="edge16" class="edge"><title>Node13&#45;&gt;Node10</title>
<path fill="none" stroke="#404040" d="M164.946,-375.439C177.262,-357.567 191.297,-337.202 205.009,-317.305"/>
<polygon fill="none" stroke="#404040" points="205.112,-317.155 205.223,-309.945 211.922,-307.274 211.811,-314.485 205.112,-317.155"/>
<text text-anchor="middle" x="206.5" y="-343.5" font-family="Helvetica,sans-Serif" font-size="10.00"> &#45;player</text>
</g>
<!-- Node14&#45;&gt;Node13 -->
<g id="edge18" class="edge"><title>Node14&#45;&gt;Node13</title>
<path fill="none" stroke="#404040" d="M240.441,-732.499C218.965,-675.705 178.498,-568.689 152.155,-499.023"/>
<polygon fill="none" stroke="#404040" points="152.137,-498.974 146.273,-494.777 147.892,-487.75 153.756,-491.947 152.137,-498.974"/>
<text text-anchor="middle" x="244.5" y="-622" font-family="Helvetica,sans-Serif" font-size="10.00"> &#45;item</text>
</g>
<!-- Node15 -->
<g id="node13" class="node"><title>Node15</title>
<polygon fill="none" stroke="#bfbfbf" points="637.5,-847 637.5,-904 672.5,-904 672.5,-847 637.5,-847"/>
<text text-anchor="middle" x="655" y="-892" font-family="Helvetica,sans-Serif" font-size="10.00">float</text>
<polyline fill="none" stroke="#bfbfbf" points="637.5,-885 672.5,-885 "/>
<text text-anchor="middle" x="655" y="-873" font-family="Helvetica,sans-Serif" font-size="10.00"> </text>
<polyline fill="none" stroke="#bfbfbf" points="637.5,-866 672.5,-866 "/>
<text text-anchor="middle" x="655" y="-854" font-family="Helvetica,sans-Serif" font-size="10.00"> </text>
</g>
<!-- Node15&#45;&gt;Node3 -->
<g id="edge23" class="edge"><title>Node15&#45;&gt;Node3</title>
<path fill="none" stroke="#404040" d="M653.448,-846.901C651.054,-804.322 646.435,-722.169 643.547,-670.792"/>
<polygon fill="none" stroke="#404040" points="643.543,-670.731 639.213,-664.965 642.869,-658.75 647.2,-664.516 643.543,-670.731"/>
<text text-anchor="middle" x="673.5" y="-769.5" font-family="Helvetica,sans-Serif" font-size="10.00"> &#45;increase</text>
</g>
</g>
</svg>
        <g id="navigator" transform="translate(0 0)" fill="#404254">
                <rect fill="#f2f5e9" fill-opacity="0.5" stroke="#606060" stroke-width=".5" x="0" y="0" width="60" height="60"/>
                <use id="zoomplus" xlink:href="#zoomPlus" x="17" y="9" onmousedown="handleZoom(evt,'in')"/>
                <use id="zoomminus" xlink:href="#zoomMin" x="42" y="9" onmousedown="handleZoom(evt,'out')"/>
                <use id="reset" xlink:href="#resetDef" x="30" y="36" onmousedown="handleReset()"/>
                <g id="arrowUp" xlink:href="#dirArrow" transform="translate(30 24)" onmousedown="handlePan(0,-1)">
                  <use xlink:href="#rim" fill="#404040">
                        <set attributeName="fill" to="#808080" begin="arrowUp.mouseover" end="arrowUp.mouseout"/>
                  </use>
                  <path fill="none" stroke="white" stroke-width="1.5" d="M0,-3.0v7 M-2.5,-0.5L0,-3.0L2.5,-0.5"/>
                </g>
                <g id="arrowRight" xlink:href="#dirArrow" transform="rotate(90) translate(36 -43)" onmousedown="handlePan(1,0)">
                  <use xlink:href="#rim" fill="#404040">
                        <set attributeName="fill" to="#808080" begin="arrowRight.mouseover" end="arrowRight.mouseout"/>
                  </use>
                  <path fill="none" stroke="white" stroke-width="1.5" d="M0,-3.0v7 M-2.5,-0.5L0,-3.0L2.5,-0.5"/>
                </g>
                <g id="arrowDown" xlink:href="#dirArrow" transform="rotate(180) translate(-30 -48)" onmousedown="handlePan(0,1)">
                  <use xlink:href="#rim" fill="#404040">
                        <set attributeName="fill" to="#808080" begin="arrowDown.mouseover" end="arrowDown.mouseout"/>
                  </use>
                  <path fill="none" stroke="white" stroke-width="1.5" d="M0,-3.0v7 M-2.5,-0.5L0,-3.0L2.5,-0.5"/>
                </g>
                <g id="arrowLeft" xlink:href="#dirArrow" transform="rotate(270) translate(-36 17)" onmousedown="handlePan(-1,0)">
                  <use xlink:href="#rim" fill="#404040">
                        <set attributeName="fill" to="#808080" begin="arrowLeft.mouseover" end="arrowLeft.mouseout"/>
                  </use>
                  <path fill="none" stroke="white" stroke-width="1.5" d="M0,-3.0v7 M-2.5,-0.5L0,-3.0L2.5,-0.5"/>
                </g>
        </g>
        <svg viewBox="0 0 15 15" width="100%" height="30px" preserveAspectRatio="xMaxYMin meet">
         <g id="arrow_out" transform="scale(0.3 0.3)">
          <a xlink:href="class_raise_attack__coll__graph_org.svg" target="_base">
           <rect id="button" ry="5" rx="5" y="6" x="6" height="38" width="38"
                fill="#f2f5e9" fill-opacity="0.5" stroke="#606060" stroke-width="1.0"/>
           <path id="arrow"
             d="M 11.500037,31.436501 C 11.940474,20.09759 22.043105,11.32322 32.158766,21.979434 L 37.068811,17.246167 C 37.068811,17.246167 37.088388,32 37.088388,32 L 22.160133,31.978069 C 22.160133,31.978069 26.997745,27.140456 26.997745,27.140456 C 18.528582,18.264221 13.291696,25.230495 11.500037,31.436501 z"
             style="fill:#404040;"/>
          </a>
         </g>
        </svg>
</svg>
