<?xml version="1.0" encoding="UTF-8" standalone="no"?>
<!DOCTYPE svg PUBLIC "-//W3C//DTD SVG 1.1//EN"
 "http://www.w3.org/Graphics/SVG/1.1/DTD/svg11.dtd">
<!-- Generated by graphviz version 2.38.0 (20140413.2041)
 -->
<!-- Title: IBeginDragHandler Pages: 1 -->
<svg width="105pt" height="237pt"
 viewBox="0.00 0.00 105.00 237.00" xmlns="http://www.w3.org/2000/svg" xmlns:xlink="http://www.w3.org/1999/xlink">
<g id="graph0" class="graph" transform="scale(1 1) rotate(0) translate(4 233)">
<title>IBeginDragHandler</title>
<!-- Node0 -->
<g id="node1" class="node"><title>Node0</title>
<polygon fill="#bfbfbf" stroke="black" points="0,-171.5 0,-228.5 97,-228.5 97,-171.5 0,-171.5"/>
<text text-anchor="middle" x="48.5" y="-216.5" font-family="Helvetica,sans-Serif" font-size="10.00">IBeginDragHandler</text>
<polyline fill="none" stroke="black" points="0,-209.5 97,-209.5 "/>
<text text-anchor="middle" x="48.5" y="-197.5" font-family="Helvetica,sans-Serif" font-size="10.00"> </text>
<polyline fill="none" stroke="black" points="0,-190.5 97,-190.5 "/>
<text text-anchor="middle" x="48.5" y="-178.5" font-family="Helvetica,sans-Serif" font-size="10.00"> </text>
</g>
<!-- Node1 -->
<g id="node2" class="node"><title>Node1</title>
<g id="a_node2"><a xlink:href="class_drag_and_drop_item.html" target="_top" xlink:title="Every &quot;drag and drop&quot; item must contain this script ">
<polygon fill="none" stroke="black" points="2,-0.5 2,-134.5 95,-134.5 95,-0.5 2,-0.5"/>
<text text-anchor="middle" x="48.5" y="-122.5" font-family="Helvetica,sans-Serif" font-size="10.00">DragAndDropItem</text>
<polyline fill="none" stroke="black" points="2,-115.5 95,-115.5 "/>
<text text-anchor="start" x="10" y="-103.5" font-family="Helvetica,sans-Serif" font-size="10.00">+ draggedItem</text>
<text text-anchor="start" x="10" y="-92.5" font-family="Helvetica,sans-Serif" font-size="10.00">+ icon</text>
<text text-anchor="start" x="10" y="-81.5" font-family="Helvetica,sans-Serif" font-size="10.00">+ sourceCell</text>
<polyline fill="none" stroke="black" points="2,-74.5 95,-74.5 "/>
<text text-anchor="start" x="10" y="-62.5" font-family="Helvetica,sans-Serif" font-size="10.00">+ DragEvent()</text>
<text text-anchor="start" x="10" y="-51.5" font-family="Helvetica,sans-Serif" font-size="10.00">+ OnBeginDrag()</text>
<text text-anchor="start" x="10" y="-40.5" font-family="Helvetica,sans-Serif" font-size="10.00">+ OnDrag()</text>
<text text-anchor="start" x="10" y="-29.5" font-family="Helvetica,sans-Serif" font-size="10.00">+ OnEndDrag()</text>
<text text-anchor="start" x="10" y="-18.5" font-family="Helvetica,sans-Serif" font-size="10.00">+ MakeRaycast()</text>
<text text-anchor="start" x="10" y="-7.5" font-family="Helvetica,sans-Serif" font-size="10.00">+ MakeVisible()</text>
</a>
</g>
</g>
<!-- Node0&#45;&gt;Node1 -->
<g id="edge1" class="edge"><title>Node0&#45;&gt;Node1</title>
<path fill="none" stroke="midnightblue" d="M48.5,-161.16C48.5,-152.782 48.5,-143.668 48.5,-134.533"/>
<polygon fill="none" stroke="midnightblue" points="45.0001,-161.324 48.5,-171.324 52.0001,-161.324 45.0001,-161.324"/>
</g>
</g>
</svg>
