<?xml version="1.0" encoding="UTF-8" standalone="no"?>
<!DOCTYPE svg PUBLIC "-//W3C//DTD SVG 1.1//EN"
 "http://www.w3.org/Graphics/SVG/1.1/DTD/svg11.dtd">
<!-- Generated by graphviz version 2.38.0 (20140413.2041)
 -->
<!-- Title: SoundManager Pages: 1 -->
<svg width="303pt" height="226pt"
 viewBox="0.00 0.00 302.50 226.00" xmlns="http://www.w3.org/2000/svg" xmlns:xlink="http://www.w3.org/1999/xlink">
<g id="graph0" class="graph" transform="scale(1 1) rotate(0) translate(4 222)">
<title>SoundManager</title>
<!-- Node2 -->
<g id="node1" class="node"><title>Node2</title>
<polygon fill="#bfbfbf" stroke="black" points="109.5,-0.5 109.5,-90.5 191.5,-90.5 191.5,-0.5 109.5,-0.5"/>
<text text-anchor="middle" x="150.5" y="-78.5" font-family="Helvetica,sans-Serif" font-size="10.00">SoundManager</text>
<polyline fill="none" stroke="black" points="109.5,-71.5 191.5,-71.5 "/>
<text text-anchor="middle" x="150.5" y="-59.5" font-family="Helvetica,sans-Serif" font-size="10.00"> </text>
<polyline fill="none" stroke="black" points="109.5,-52.5 191.5,-52.5 "/>
<text text-anchor="start" x="117.5" y="-40.5" font-family="Helvetica,sans-Serif" font-size="10.00">+ playBGM()</text>
<text text-anchor="start" x="117.5" y="-29.5" font-family="Helvetica,sans-Serif" font-size="10.00">+ playSFX()</text>
<text text-anchor="start" x="117.5" y="-18.5" font-family="Helvetica,sans-Serif" font-size="10.00">+ soundOn()</text>
<text text-anchor="start" x="117.5" y="-7.5" font-family="Helvetica,sans-Serif" font-size="10.00">&#45; Awake()</text>
</g>
<!-- Node2&#45;&gt;Node2 -->
<g id="edge2" class="edge"><title>Node2&#45;&gt;Node2</title>
<path fill="none" stroke="#404040" d="M191.583,-59.1845C201.836,-58.2275 209.5,-53.666 209.5,-45.5 209.5,-40.9066 207.075,-37.4537 203.129,-35.1413"/>
<polygon fill="none" stroke="#404040" points="203.114,-35.1373 196.241,-37.3201 191.583,-31.8155 198.456,-29.6327 203.114,-35.1373"/>
<text text-anchor="middle" x="232.5" y="-43" font-family="Helvetica,sans-Serif" font-size="10.00"> +instance</text>
</g>
<!-- Node3 -->
<g id="node2" class="node"><title>Node3</title>
<g id="a_node2"><a xlink:href="class_mono_behaviour.html" target="_top" xlink:title="{MonoBehaviour\n||}">
<polygon fill="none" stroke="black" points="0,-155 0,-212 83,-212 83,-155 0,-155"/>
<text text-anchor="middle" x="41.5" y="-200" font-family="Helvetica,sans-Serif" font-size="10.00">MonoBehaviour</text>
<polyline fill="none" stroke="black" points="0,-193 83,-193 "/>
<text text-anchor="middle" x="41.5" y="-181" font-family="Helvetica,sans-Serif" font-size="10.00"> </text>
<polyline fill="none" stroke="black" points="0,-174 83,-174 "/>
<text text-anchor="middle" x="41.5" y="-162" font-family="Helvetica,sans-Serif" font-size="10.00"> </text>
</a>
</g>
</g>
<!-- Node3&#45;&gt;Node2 -->
<g id="edge1" class="edge"><title>Node3&#45;&gt;Node2</title>
<path fill="none" stroke="midnightblue" d="M70.0798,-146.841C83.8833,-129.618 100.579,-108.787 115.172,-90.579"/>
<polygon fill="none" stroke="midnightblue" points="67.0807,-144.986 63.5578,-154.978 72.5428,-149.364 67.0807,-144.986"/>
</g>
<!-- Node4 -->
<g id="node3" class="node"><title>Node4</title>
<polygon fill="none" stroke="#bfbfbf" points="101.5,-149.5 101.5,-217.5 199.5,-217.5 199.5,-149.5 101.5,-149.5"/>
<text text-anchor="start" x="109.5" y="-205.5" font-family="Helvetica,sans-Serif" font-size="10.00">IDictionary&lt; string,</text>
<text text-anchor="middle" x="150.5" y="-194.5" font-family="Helvetica,sans-Serif" font-size="10.00"> AudioClip &gt;</text>
<polyline fill="none" stroke="#bfbfbf" points="101.5,-187.5 199.5,-187.5 "/>
<text text-anchor="middle" x="150.5" y="-175.5" font-family="Helvetica,sans-Serif" font-size="10.00"> </text>
<polyline fill="none" stroke="#bfbfbf" points="101.5,-168.5 199.5,-168.5 "/>
<text text-anchor="middle" x="150.5" y="-156.5" font-family="Helvetica,sans-Serif" font-size="10.00"> </text>
</g>
<!-- Node4&#45;&gt;Node2 -->
<g id="edge3" class="edge"><title>Node4&#45;&gt;Node2</title>
<path fill="none" stroke="#404040" d="M150.5,-149.231C150.5,-135.331 150.5,-118.786 150.5,-103.078"/>
<polygon fill="none" stroke="#404040" points="150.5,-102.726 146.5,-96.7258 150.5,-90.7258 154.5,-96.7257 150.5,-102.726"/>
<text text-anchor="middle" x="182" y="-117.5" font-family="Helvetica,sans-Serif" font-size="10.00"> &#45;soundEffects</text>
</g>
<!-- Node5 -->
<g id="node4" class="node"><title>Node5</title>
<polygon fill="none" stroke="#bfbfbf" points="217.5,-155 217.5,-212 289.5,-212 289.5,-155 217.5,-155"/>
<text text-anchor="middle" x="253.5" y="-200" font-family="Helvetica,sans-Serif" font-size="10.00">AudioSource</text>
<polyline fill="none" stroke="#bfbfbf" points="217.5,-193 289.5,-193 "/>
<text text-anchor="middle" x="253.5" y="-181" font-family="Helvetica,sans-Serif" font-size="10.00"> </text>
<polyline fill="none" stroke="#bfbfbf" points="217.5,-174 289.5,-174 "/>
<text text-anchor="middle" x="253.5" y="-162" font-family="Helvetica,sans-Serif" font-size="10.00"> </text>
</g>
<!-- Node5&#45;&gt;Node2 -->
<g id="edge4" class="edge"><title>Node5&#45;&gt;Node2</title>
<path fill="none" stroke="#404040" d="M242.872,-154.967C236.623,-140.557 227.906,-123.041 217.5,-109 212.356,-102.059 206.379,-95.2497 200.153,-88.8291"/>
<polygon fill="none" stroke="#404040" points="200.099,-88.7754 193.02,-87.4014 191.566,-80.3385 198.645,-81.7125 200.099,-88.7754"/>
<text text-anchor="middle" x="263" y="-123" font-family="Helvetica,sans-Serif" font-size="10.00"> +BGMSource</text>
<text text-anchor="middle" x="263" y="-112" font-family="Helvetica,sans-Serif" font-size="10.00">+SFXSource</text>
</g>
</g>
</svg>
