<?xml version="1.0" encoding="UTF-8" standalone="no"?>
<!DOCTYPE svg PUBLIC "-//W3C//DTD SVG 1.1//EN"
 "http://www.w3.org/Graphics/SVG/1.1/DTD/svg11.dtd">
<!-- Generated by graphviz version 2.38.0 (20140413.2041)
 -->
<!-- Title: Item Pages: 1 -->
<svg width="574pt" height="226pt"
 viewBox="0.00 0.00 574.00 226.00" xmlns="http://www.w3.org/2000/svg" xmlns:xlink="http://www.w3.org/1999/xlink">
<g id="graph0" class="graph" transform="scale(1 1) rotate(0) translate(4 222)">
<title>Item</title>
<!-- Node0 -->
<g id="node1" class="node"><title>Node0</title>
<polygon fill="#bfbfbf" stroke="black" points="247,-116.5 247,-217.5 324,-217.5 324,-116.5 247,-116.5"/>
<text text-anchor="middle" x="285.5" y="-205.5" font-family="Helvetica,sans-Serif" font-size="10.00">Item</text>
<polyline fill="none" stroke="black" points="247,-198.5 324,-198.5 "/>
<text text-anchor="start" x="255" y="-186.5" font-family="Helvetica,sans-Serif" font-size="10.00">+ Name</text>
<text text-anchor="start" x="255" y="-175.5" font-family="Helvetica,sans-Serif" font-size="10.00">+ Desc</text>
<text text-anchor="start" x="255" y="-164.5" font-family="Helvetica,sans-Serif" font-size="10.00"># name</text>
<text text-anchor="start" x="255" y="-153.5" font-family="Helvetica,sans-Serif" font-size="10.00"># desc</text>
<polyline fill="none" stroke="black" points="247,-146.5 324,-146.5 "/>
<text text-anchor="start" x="255" y="-134.5" font-family="Helvetica,sans-Serif" font-size="10.00">+ applyBuffs()</text>
<text text-anchor="start" x="255" y="-123.5" font-family="Helvetica,sans-Serif" font-size="10.00">+ revertBuffs()</text>
</g>
<!-- Node1 -->
<g id="node2" class="node"><title>Node1</title>
<g id="a_node2"><a xlink:href="class_armour.html" target="_top" xlink:title="An item that increases a player&#39;s attack stat by 2 and defence stat by 3 ">
<polygon fill="none" stroke="black" points="0,-0.5 0,-79.5 77,-79.5 77,-0.5 0,-0.5"/>
<text text-anchor="middle" x="38.5" y="-67.5" font-family="Helvetica,sans-Serif" font-size="10.00">Armour</text>
<polyline fill="none" stroke="black" points="0,-60.5 77,-60.5 "/>
<text text-anchor="middle" x="38.5" y="-48.5" font-family="Helvetica,sans-Serif" font-size="10.00"> </text>
<polyline fill="none" stroke="black" points="0,-41.5 77,-41.5 "/>
<text text-anchor="start" x="8" y="-29.5" font-family="Helvetica,sans-Serif" font-size="10.00">+ Armour()</text>
<text text-anchor="start" x="8" y="-18.5" font-family="Helvetica,sans-Serif" font-size="10.00">+ applyBuffs()</text>
<text text-anchor="start" x="8" y="-7.5" font-family="Helvetica,sans-Serif" font-size="10.00">+ revertBuffs()</text>
</a>
</g>
</g>
<!-- Node0&#45;&gt;Node1 -->
<g id="edge1" class="edge"><title>Node0&#45;&gt;Node1</title>
<path fill="none" stroke="midnightblue" d="M237.031,-149.615C195.306,-134.485 134.292,-109.872 85.5,-80 82.6967,-78.2837 79.8831,-76.4112 77.1029,-74.4455"/>
<polygon fill="none" stroke="midnightblue" points="236.083,-152.993 246.678,-153.068 238.442,-146.402 236.083,-152.993"/>
</g>
<!-- Node2 -->
<g id="node3" class="node"><title>Node2</title>
<g id="a_node3"><a xlink:href="class_hammer.html" target="_top" xlink:title="An item that increases a player&#39;s attack stat by 5 ">
<polygon fill="none" stroke="black" points="95,-0.5 95,-79.5 172,-79.5 172,-0.5 95,-0.5"/>
<text text-anchor="middle" x="133.5" y="-67.5" font-family="Helvetica,sans-Serif" font-size="10.00">Hammer</text>
<polyline fill="none" stroke="black" points="95,-60.5 172,-60.5 "/>
<text text-anchor="middle" x="133.5" y="-48.5" font-family="Helvetica,sans-Serif" font-size="10.00"> </text>
<polyline fill="none" stroke="black" points="95,-41.5 172,-41.5 "/>
<text text-anchor="start" x="103" y="-29.5" font-family="Helvetica,sans-Serif" font-size="10.00">+ Hammer()</text>
<text text-anchor="start" x="103" y="-18.5" font-family="Helvetica,sans-Serif" font-size="10.00">+ applyBuffs()</text>
<text text-anchor="start" x="103" y="-7.5" font-family="Helvetica,sans-Serif" font-size="10.00">+ revertBuffs()</text>
</a>
</g>
</g>
<!-- Node0&#45;&gt;Node2 -->
<g id="edge2" class="edge"><title>Node0&#45;&gt;Node2</title>
<path fill="none" stroke="midnightblue" d="M238.438,-127.561C220.308,-112.725 199.42,-95.5977 180.5,-80 177.8,-77.7742 175.015,-75.4743 172.212,-73.1562"/>
<polygon fill="none" stroke="midnightblue" points="236.601,-130.58 246.557,-134.203 241.033,-125.162 236.601,-130.58"/>
</g>
<!-- Node3 -->
<g id="node4" class="node"><title>Node3</title>
<g id="a_node4"><a xlink:href="class_magic_amulet.html" target="_top" xlink:title="An item that increases a player&#39;s maximum magic points by 3 ">
<polygon fill="none" stroke="black" points="190,-0.5 190,-79.5 279,-79.5 279,-0.5 190,-0.5"/>
<text text-anchor="middle" x="234.5" y="-67.5" font-family="Helvetica,sans-Serif" font-size="10.00">MagicAmulet</text>
<polyline fill="none" stroke="black" points="190,-60.5 279,-60.5 "/>
<text text-anchor="middle" x="234.5" y="-48.5" font-family="Helvetica,sans-Serif" font-size="10.00"> </text>
<polyline fill="none" stroke="black" points="190,-41.5 279,-41.5 "/>
<text text-anchor="start" x="198" y="-29.5" font-family="Helvetica,sans-Serif" font-size="10.00">+ MagicAmulet()</text>
<text text-anchor="start" x="198" y="-18.5" font-family="Helvetica,sans-Serif" font-size="10.00">+ applyBuffs()</text>
<text text-anchor="start" x="198" y="-7.5" font-family="Helvetica,sans-Serif" font-size="10.00">+ revertBuffs()</text>
</a>
</g>
</g>
<!-- Node0&#45;&gt;Node3 -->
<g id="edge3" class="edge"><title>Node0&#45;&gt;Node3</title>
<path fill="none" stroke="midnightblue" d="M261.332,-106.764C257.597,-97.6098 253.824,-88.3616 250.334,-79.8082"/>
<polygon fill="none" stroke="midnightblue" points="258.179,-108.301 265.197,-116.238 264.66,-105.656 258.179,-108.301"/>
</g>
<!-- Node4 -->
<g id="node5" class="node"><title>Node4</title>
<g id="a_node5"><a xlink:href="class_rabbit_foot.html" target="_top" xlink:title="An item that increases a player&#39;s luck stat by 5 ">
<polygon fill="none" stroke="black" points="297,-0.5 297,-79.5 376,-79.5 376,-0.5 297,-0.5"/>
<text text-anchor="middle" x="336.5" y="-67.5" font-family="Helvetica,sans-Serif" font-size="10.00">RabbitFoot</text>
<polyline fill="none" stroke="black" points="297,-60.5 376,-60.5 "/>
<text text-anchor="middle" x="336.5" y="-48.5" font-family="Helvetica,sans-Serif" font-size="10.00"> </text>
<polyline fill="none" stroke="black" points="297,-41.5 376,-41.5 "/>
<text text-anchor="start" x="305" y="-29.5" font-family="Helvetica,sans-Serif" font-size="10.00">+ RabbitFoot()</text>
<text text-anchor="start" x="305" y="-18.5" font-family="Helvetica,sans-Serif" font-size="10.00">+ applyBuffs()</text>
<text text-anchor="start" x="305" y="-7.5" font-family="Helvetica,sans-Serif" font-size="10.00">+ revertBuffs()</text>
</a>
</g>
</g>
<!-- Node0&#45;&gt;Node4 -->
<g id="edge4" class="edge"><title>Node0&#45;&gt;Node4</title>
<path fill="none" stroke="midnightblue" d="M309.668,-106.764C313.403,-97.6098 317.176,-88.3616 320.666,-79.8082"/>
<polygon fill="none" stroke="midnightblue" points="306.34,-105.656 305.803,-116.238 312.821,-108.301 306.34,-105.656"/>
</g>
<!-- Node5 -->
<g id="node6" class="node"><title>Node5</title>
<g id="a_node6"><a xlink:href="class_shield.html" target="_top" xlink:title="An item that increases a player&#39;s defence stat by 5 ">
<polygon fill="none" stroke="black" points="394,-0.5 394,-79.5 471,-79.5 471,-0.5 394,-0.5"/>
<text text-anchor="middle" x="432.5" y="-67.5" font-family="Helvetica,sans-Serif" font-size="10.00">Shield</text>
<polyline fill="none" stroke="black" points="394,-60.5 471,-60.5 "/>
<text text-anchor="middle" x="432.5" y="-48.5" font-family="Helvetica,sans-Serif" font-size="10.00"> </text>
<polyline fill="none" stroke="black" points="394,-41.5 471,-41.5 "/>
<text text-anchor="start" x="402" y="-29.5" font-family="Helvetica,sans-Serif" font-size="10.00">+ Shield()</text>
<text text-anchor="start" x="402" y="-18.5" font-family="Helvetica,sans-Serif" font-size="10.00">+ applyBuffs()</text>
<text text-anchor="start" x="402" y="-7.5" font-family="Helvetica,sans-Serif" font-size="10.00">+ revertBuffs()</text>
</a>
</g>
</g>
<!-- Node0&#45;&gt;Node5 -->
<g id="edge5" class="edge"><title>Node0&#45;&gt;Node5</title>
<path fill="none" stroke="midnightblue" d="M331.886,-126.556C351.834,-109.593 374.881,-89.9954 393.88,-73.8397"/>
<polygon fill="none" stroke="midnightblue" points="329.473,-124.013 324.123,-133.158 334.008,-129.346 329.473,-124.013"/>
</g>
<!-- Node6 -->
<g id="node7" class="node"><title>Node6</title>
<g id="a_node7"><a xlink:href="class_trainers.html" target="_top" xlink:title="An item that increases a player&#39;s speed stat by 5 ">
<polygon fill="none" stroke="black" points="489,-0.5 489,-79.5 566,-79.5 566,-0.5 489,-0.5"/>
<text text-anchor="middle" x="527.5" y="-67.5" font-family="Helvetica,sans-Serif" font-size="10.00">Trainers</text>
<polyline fill="none" stroke="black" points="489,-60.5 566,-60.5 "/>
<text text-anchor="middle" x="527.5" y="-48.5" font-family="Helvetica,sans-Serif" font-size="10.00"> </text>
<polyline fill="none" stroke="black" points="489,-41.5 566,-41.5 "/>
<text text-anchor="start" x="497" y="-29.5" font-family="Helvetica,sans-Serif" font-size="10.00">+ Trainers()</text>
<text text-anchor="start" x="497" y="-18.5" font-family="Helvetica,sans-Serif" font-size="10.00">+ applyBuffs()</text>
<text text-anchor="start" x="497" y="-7.5" font-family="Helvetica,sans-Serif" font-size="10.00">+ revertBuffs()</text>
</a>
</g>
</g>
<!-- Node0&#45;&gt;Node6 -->
<g id="edge6" class="edge"><title>Node0&#45;&gt;Node6</title>
<path fill="none" stroke="midnightblue" d="M333.478,-149.129C374.121,-133.849 433.163,-109.284 480.5,-80 483.295,-78.2707 486.103,-76.3884 488.879,-74.4154"/>
<polygon fill="none" stroke="midnightblue" points="332.228,-145.859 324.073,-152.622 334.666,-152.421 332.228,-145.859"/>
</g>
</g>
</svg>
