<?xml version="1.0" encoding="UTF-8" standalone="no"?>
<!DOCTYPE svg PUBLIC "-//W3C//DTD SVG 1.1//EN"
 "http://www.w3.org/Graphics/SVG/1.1/DTD/svg11.dtd">
<!-- Generated by graphviz version 2.38.0 (20140413.2041)
 -->
<!-- Title: SpecialMove Pages: 1 -->
<!--zoomable 1034 -->
<svg id="main" version="1.1" xmlns="http://www.w3.org/2000/svg" xmlns:xlink="http://www.w3.org/1999/xlink" xml:space="preserve" onload="init(evt)">
<style type="text/css"><![CDATA[
.edge:hover path { stroke: red; }
.edge:hover polygon { stroke: red; fill: red; }
]]></style>
<script type="text/javascript"><![CDATA[
var edges = document.getElementsByTagName('g');
if (edges && edges.length) {
  for (var i=0;i<edges.length;i++) {
    if (edges[i].id.substr(0,4)=='edge') {
      edges[i].setAttribute('class','edge');
    }
  }
}
]]></script>
        <defs>
                <circle id="rim" cx="0" cy="0" r="7"/>
                <circle id="rim2" cx="0" cy="0" r="3.5"/>
                <g id="zoomPlus">
                        <use xlink:href="#rim" fill="#404040">
                                <set attributeName="fill" to="#808080" begin="zoomplus.mouseover" end="zoomplus.mouseout"/>
                        </use>
                        <path d="M-4,0h8M0,-4v8" fill="none" stroke="white" stroke-width="1.5" pointer-events="none"/>
                </g>
                <g id="zoomMin">
                        <use xlink:href="#rim" fill="#404040">
                                <set attributeName="fill" to="#808080" begin="zoomminus.mouseover" end="zoomminus.mouseout"/>
                        </use>
                        <path d="M-4,0h8" fill="none" stroke="white" stroke-width="1.5" pointer-events="none"/>
                </g>
                <g id="dirArrow">
                        <path fill="none" stroke="white" stroke-width="1.5" d="M0,-3.0v7 M-2.5,-0.5L0,-3.0L2.5,-0.5"/>
                </g>
               <g id="resetDef">
                       <use xlink:href="#rim2" fill="#404040">
                               <set attributeName="fill" to="#808080" begin="reset.mouseover" end="reset.mouseout"/>
                       </use>
               </g>
        </defs>

<script type="text/javascript">
var viewWidth = 617;
var viewHeight = 1034;
var sectionId = 'dynsection-1';
</script>
<script xlink:href="svgpan.js"/>
<svg id="graph" class="graph">
<g id="viewport">
<title>SpecialMove</title>
<!-- Node9 -->
<g id="node1" class="node"><title>Node9</title>
<polygon fill="#bfbfbf" stroke="black" points="135,-819.5 135,-909.5 233,-909.5 233,-819.5 135,-819.5"/>
<text text-anchor="middle" x="184" y="-897.5" font-family="Helvetica,sans-Serif" font-size="10.00">SpecialMove</text>
<polyline fill="none" stroke="black" points="135,-890.5 233,-890.5 "/>
<text text-anchor="start" x="143" y="-878.5" font-family="Helvetica,sans-Serif" font-size="10.00">+ Magic</text>
<text text-anchor="start" x="143" y="-867.5" font-family="Helvetica,sans-Serif" font-size="10.00">+ Desc</text>
<polyline fill="none" stroke="black" points="135,-860.5 233,-860.5 "/>
<text text-anchor="start" x="143" y="-848.5" font-family="Helvetica,sans-Serif" font-size="10.00">+ setUp()</text>
<text text-anchor="start" x="143" y="-837.5" font-family="Helvetica,sans-Serif" font-size="10.00">+ decreaseMagic()</text>
<text text-anchor="start" x="143" y="-826.5" font-family="Helvetica,sans-Serif" font-size="10.00"># SpecialMove()</text>
</g>
<!-- Node12 -->
<g id="node4" class="node"><title>Node12</title>
<g id="a_node4"><a xlink:href="class_character.html" target="_top" xlink:title="Base abstract class for Enemy and Player to inherit from. Defines all shared variables, their constructor and their setters and getters ">
<polygon fill="none" stroke="black" points="220.5,-535.5 220.5,-702.5 315.5,-702.5 315.5,-535.5 220.5,-535.5"/>
<text text-anchor="middle" x="268" y="-690.5" font-family="Helvetica,sans-Serif" font-size="10.00">Character</text>
<polyline fill="none" stroke="black" points="220.5,-683.5 315.5,-683.5 "/>
<text text-anchor="start" x="228.5" y="-671.5" font-family="Helvetica,sans-Serif" font-size="10.00">+ Name</text>
<text text-anchor="start" x="228.5" y="-660.5" font-family="Helvetica,sans-Serif" font-size="10.00">+ Level</text>
<text text-anchor="start" x="228.5" y="-649.5" font-family="Helvetica,sans-Serif" font-size="10.00">+ Health</text>
<text text-anchor="start" x="228.5" y="-638.5" font-family="Helvetica,sans-Serif" font-size="10.00">+ Attack</text>
<text text-anchor="start" x="228.5" y="-627.5" font-family="Helvetica,sans-Serif" font-size="10.00">+ Defence</text>
<text text-anchor="start" x="228.5" y="-616.5" font-family="Helvetica,sans-Serif" font-size="10.00">+ MaximumMagic</text>
<text text-anchor="start" x="228.5" y="-605.5" font-family="Helvetica,sans-Serif" font-size="10.00">+ Magic</text>
<text text-anchor="start" x="228.5" y="-594.5" font-family="Helvetica,sans-Serif" font-size="10.00">+ Luck</text>
<text text-anchor="start" x="228.5" y="-583.5" font-family="Helvetica,sans-Serif" font-size="10.00">+ Speed</text>
<text text-anchor="start" x="228.5" y="-572.5" font-family="Helvetica,sans-Serif" font-size="10.00">+ Special1</text>
<text text-anchor="start" x="228.5" y="-561.5" font-family="Helvetica,sans-Serif" font-size="10.00">+ Special2</text>
<polyline fill="none" stroke="black" points="220.5,-554.5 315.5,-554.5 "/>
<text text-anchor="start" x="228.5" y="-542.5" font-family="Helvetica,sans-Serif" font-size="10.00"># Character()</text>
</a>
</g>
</g>
<!-- Node9&#45;&gt;Node12 -->
<g id="edge6" class="edge"><title>Node9&#45;&gt;Node12</title>
<path fill="none" stroke="#404040" d="M188.114,-819.456C191.739,-790.766 198.331,-752.881 210,-721 211.615,-716.587 213.415,-712.142 215.353,-707.709"/>
<polygon fill="none" stroke="#404040" points="215.392,-707.626 214.279,-700.501 220.428,-696.734 221.541,-703.859 215.392,-707.626"/>
<text text-anchor="middle" x="232.5" y="-764" font-family="Helvetica,sans-Serif" font-size="10.00"> #special1</text>
<text text-anchor="middle" x="232.5" y="-753" font-family="Helvetica,sans-Serif" font-size="10.00">#special2</text>
</g>
<!-- Node10 -->
<g id="node2" class="node"><title>Node10</title>
<g id="a_node2"><a xlink:href="class_character_move.html" target="_top" xlink:title="Astract base class for character moves ">
<polygon fill="none" stroke="black" points="65,-0.5 65,-79.5 151,-79.5 151,-0.5 65,-0.5"/>
<text text-anchor="middle" x="108" y="-67.5" font-family="Helvetica,sans-Serif" font-size="10.00">CharacterMove</text>
<polyline fill="none" stroke="black" points="65,-60.5 151,-60.5 "/>
<text text-anchor="start" x="73" y="-48.5" font-family="Helvetica,sans-Serif" font-size="10.00">+ User</text>
<text text-anchor="start" x="73" y="-37.5" font-family="Helvetica,sans-Serif" font-size="10.00">+ Target</text>
<text text-anchor="start" x="73" y="-26.5" font-family="Helvetica,sans-Serif" font-size="10.00">+ Text</text>
<polyline fill="none" stroke="black" points="65,-19.5 151,-19.5 "/>
<text text-anchor="start" x="73" y="-7.5" font-family="Helvetica,sans-Serif" font-size="10.00">+ performMove()</text>
</a>
</g>
</g>
<!-- Node10&#45;&gt;Node9 -->
<g id="edge1" class="edge"><title>Node10&#45;&gt;Node9</title>
<path fill="none" stroke="midnightblue" d="M95.4749,-89.426C87.2481,-125.454 78,-175.97 78,-221 78,-512.5 78,-512.5 78,-512.5 78,-597.836 76.8771,-621.446 102,-703 114.759,-744.417 137.713,-787.997 156.097,-819.278"/>
<polygon fill="none" stroke="midnightblue" points="98.8883,-90.1995 97.7596,-79.665 92.0726,-88.6041 98.8883,-90.1995"/>
</g>
<!-- Node11 -->
<g id="node3" class="node"><title>Node11</title>
<polygon fill="none" stroke="#bfbfbf" points="63.5,-968.5 63.5,-1025.5 104.5,-1025.5 104.5,-968.5 63.5,-968.5"/>
<text text-anchor="middle" x="84" y="-1013.5" font-family="Helvetica,sans-Serif" font-size="10.00">string</text>
<polyline fill="none" stroke="#bfbfbf" points="63.5,-1006.5 104.5,-1006.5 "/>
<text text-anchor="middle" x="84" y="-994.5" font-family="Helvetica,sans-Serif" font-size="10.00"> </text>
<polyline fill="none" stroke="#bfbfbf" points="63.5,-987.5 104.5,-987.5 "/>
<text text-anchor="middle" x="84" y="-975.5" font-family="Helvetica,sans-Serif" font-size="10.00"> </text>
</g>
<!-- Node11&#45;&gt;Node9 -->
<g id="edge19" class="edge"><title>Node11&#45;&gt;Node9</title>
<path fill="none" stroke="#404040" d="M104.72,-968.96C115.671,-954.669 129.516,-936.601 142.56,-919.579"/>
<polygon fill="none" stroke="#404040" points="142.821,-919.239 143.295,-912.044 150.119,-909.714 149.645,-916.91 142.821,-919.239"/>
<text text-anchor="middle" x="149" y="-936.5" font-family="Helvetica,sans-Serif" font-size="10.00"> #desc</text>
</g>
<!-- Node11&#45;&gt;Node10 -->
<g id="edge2" class="edge"><title>Node11&#45;&gt;Node10</title>
<path fill="none" stroke="#404040" d="M63.2359,-978.441C38.3611,-955.322 0,-912.113 0,-865.5 0,-865.5 0,-865.5 0,-221 0,-170.866 31.1866,-122.635 60.0425,-88.7391"/>
<polygon fill="none" stroke="#404040" points="60.1754,-88.5876 61.1273,-81.4396 68.0916,-79.5691 67.1397,-86.7171 60.1754,-88.5876"/>
<text text-anchor="middle" x="12.5" y="-509" font-family="Helvetica,sans-Serif" font-size="10.00"> #text</text>
</g>
<!-- Node11&#45;&gt;Node12 -->
<g id="edge4" class="edge"><title>Node11&#45;&gt;Node12</title>
<path fill="none" stroke="#404040" d="M79.645,-968.282C75.2437,-932.256 71.773,-868.15 93,-819 116.929,-763.594 144.192,-763.544 187,-721 195.251,-712.8 198.269,-711.691 206,-703 208.167,-700.564 210.337,-698.057 212.501,-695.501"/>
<polygon fill="none" stroke="#404040" points="212.643,-695.329 213.376,-688.155 220.28,-686.073 219.547,-693.247 212.643,-695.329"/>
<text text-anchor="middle" x="109.5" y="-862" font-family="Helvetica,sans-Serif" font-size="10.00"> #name</text>
</g>
<!-- Node14 -->
<g id="node6" class="node"><title>Node14</title>
<g id="a_node6"><a xlink:href="class_battle_manager.html" target="_top" xlink:title="{BattleManager\n|+ Player\l+ Enemy\l+ WasCriticalHit\l|+ BattleManager()\l+ playerFirst()\l+ switchPlayers()\l+ isCriticalHit()\l+ ranAway()\l+ damageCalculation()\l+ enemyMove()\l+ enemySpecialMove()\l+ battleWon()\l+ playerFainted()\l&#45; characterFainted()\l}">
<polygon fill="none" stroke="black" points="258,-127.5 258,-316.5 374,-316.5 374,-127.5 258,-127.5"/>
<text text-anchor="middle" x="316" y="-304.5" font-family="Helvetica,sans-Serif" font-size="10.00">BattleManager</text>
<polyline fill="none" stroke="black" points="258,-297.5 374,-297.5 "/>
<text text-anchor="start" x="266" y="-285.5" font-family="Helvetica,sans-Serif" font-size="10.00">+ Player</text>
<text text-anchor="start" x="266" y="-274.5" font-family="Helvetica,sans-Serif" font-size="10.00">+ Enemy</text>
<text text-anchor="start" x="266" y="-263.5" font-family="Helvetica,sans-Serif" font-size="10.00">+ WasCriticalHit</text>
<polyline fill="none" stroke="black" points="258,-256.5 374,-256.5 "/>
<text text-anchor="start" x="266" y="-244.5" font-family="Helvetica,sans-Serif" font-size="10.00">+ BattleManager()</text>
<text text-anchor="start" x="266" y="-233.5" font-family="Helvetica,sans-Serif" font-size="10.00">+ playerFirst()</text>
<text text-anchor="start" x="266" y="-222.5" font-family="Helvetica,sans-Serif" font-size="10.00">+ switchPlayers()</text>
<text text-anchor="start" x="266" y="-211.5" font-family="Helvetica,sans-Serif" font-size="10.00">+ isCriticalHit()</text>
<text text-anchor="start" x="266" y="-200.5" font-family="Helvetica,sans-Serif" font-size="10.00">+ ranAway()</text>
<text text-anchor="start" x="266" y="-189.5" font-family="Helvetica,sans-Serif" font-size="10.00">+ damageCalculation()</text>
<text text-anchor="start" x="266" y="-178.5" font-family="Helvetica,sans-Serif" font-size="10.00">+ enemyMove()</text>
<text text-anchor="start" x="266" y="-167.5" font-family="Helvetica,sans-Serif" font-size="10.00">+ enemySpecialMove()</text>
<text text-anchor="start" x="266" y="-156.5" font-family="Helvetica,sans-Serif" font-size="10.00">+ battleWon()</text>
<text text-anchor="start" x="266" y="-145.5" font-family="Helvetica,sans-Serif" font-size="10.00">+ playerFainted()</text>
<text text-anchor="start" x="266" y="-134.5" font-family="Helvetica,sans-Serif" font-size="10.00">&#45; characterFainted()</text>
</a>
</g>
</g>
<!-- Node11&#45;&gt;Node14 -->
<g id="edge8" class="edge"><title>Node11&#45;&gt;Node14</title>
<path fill="none" stroke="#404040" d="M76.3048,-968.459C74.9308,-962.424 73.7115,-956.035 73,-950 66.1826,-892.178 66.9498,-876.907 73,-819 86.4059,-690.69 88.6784,-656.156 133,-535 160.736,-459.182 178.145,-444.632 219,-375 229.197,-357.621 240.398,-339.372 251.454,-321.789"/>
<polygon fill="none" stroke="#404040" points="251.529,-321.67 251.352,-314.461 257.939,-311.525 258.116,-318.734 251.529,-321.67"/>
<text text-anchor="middle" x="172" y="-616.5" font-family="Helvetica,sans-Serif" font-size="10.00"> +forceCriticalHits</text>
</g>
<!-- Node18 -->
<g id="node10" class="node"><title>Node18</title>
<g id="a_node10"><a xlink:href="class_item.html" target="_top" xlink:title="{Item\n|+ Name\l+ Desc\l|+ applyBuffs()\l+ revertBuffs()\l}">
<polygon fill="none" stroke="black" points="310.5,-721.5 310.5,-800.5 387.5,-800.5 387.5,-721.5 310.5,-721.5"/>
<text text-anchor="middle" x="349" y="-788.5" font-family="Helvetica,sans-Serif" font-size="10.00">Item</text>
<polyline fill="none" stroke="black" points="310.5,-781.5 387.5,-781.5 "/>
<text text-anchor="start" x="318.5" y="-769.5" font-family="Helvetica,sans-Serif" font-size="10.00">+ Name</text>
<text text-anchor="start" x="318.5" y="-758.5" font-family="Helvetica,sans-Serif" font-size="10.00">+ Desc</text>
<polyline fill="none" stroke="black" points="310.5,-751.5 387.5,-751.5 "/>
<text text-anchor="start" x="318.5" y="-739.5" font-family="Helvetica,sans-Serif" font-size="10.00">+ applyBuffs()</text>
<text text-anchor="start" x="318.5" y="-728.5" font-family="Helvetica,sans-Serif" font-size="10.00">+ revertBuffs()</text>
</a>
</g>
</g>
<!-- Node11&#45;&gt;Node18 -->
<g id="edge17" class="edge"><title>Node11&#45;&gt;Node18</title>
<path fill="none" stroke="#404040" d="M104.647,-992.636C161.94,-982.817 320.496,-952.202 348,-910 366.496,-881.62 366.207,-843.219 361.575,-812.646"/>
<polygon fill="none" stroke="#404040" points="361.519,-812.322 356.545,-807.101 359.452,-800.501 364.425,-805.723 361.519,-812.322"/>
<text text-anchor="middle" x="342" y="-942" font-family="Helvetica,sans-Serif" font-size="10.00"> #desc</text>
<text text-anchor="middle" x="342" y="-931" font-family="Helvetica,sans-Serif" font-size="10.00">#name</text>
</g>
<!-- Node12&#45;&gt;Node10 -->
<g id="edge3" class="edge"><title>Node12&#45;&gt;Node10</title>
<path fill="none" stroke="#404040" d="M235.17,-535.282C229.452,-519.687 223.805,-503.429 219,-488 174.853,-346.253 136.355,-174.986 118.534,-91.5808"/>
<polygon fill="none" stroke="#404040" points="118.501,-91.4242 113.341,-86.387 116.006,-79.6865 121.166,-84.7236 118.501,-91.4242"/>
<text text-anchor="middle" x="199" y="-349" font-family="Helvetica,sans-Serif" font-size="10.00"> #target</text>
<text text-anchor="middle" x="199" y="-338" font-family="Helvetica,sans-Serif" font-size="10.00">#user</text>
</g>
<!-- Node15 -->
<g id="node7" class="node"><title>Node15</title>
<g id="a_node7"><a xlink:href="class_enemy.html" target="_top" xlink:title="Defines an AI controller enemy to fight in battle scenes">
<polygon fill="none" stroke="black" points="228.5,-403 228.5,-460 295.5,-460 295.5,-403 228.5,-403"/>
<text text-anchor="middle" x="262" y="-448" font-family="Helvetica,sans-Serif" font-size="10.00">Enemy</text>
<polyline fill="none" stroke="black" points="228.5,-441 295.5,-441 "/>
<text text-anchor="start" x="236.5" y="-429" font-family="Helvetica,sans-Serif" font-size="10.00">+ ExpGiven</text>
<polyline fill="none" stroke="black" points="228.5,-422 295.5,-422 "/>
<text text-anchor="start" x="236.5" y="-410" font-family="Helvetica,sans-Serif" font-size="10.00">+ Enemy()</text>
</a>
</g>
</g>
<!-- Node12&#45;&gt;Node15 -->
<g id="edge10" class="edge"><title>Node12&#45;&gt;Node15</title>
<path fill="none" stroke="midnightblue" d="M264.995,-525.106C264.226,-501.311 263.456,-477.529 262.89,-460.024"/>
<polygon fill="none" stroke="midnightblue" points="261.503,-525.405 265.325,-535.286 268.499,-525.178 261.503,-525.405"/>
</g>
<!-- Node17 -->
<g id="node9" class="node"><title>Node17</title>
<g id="a_node9"><a xlink:href="class_player.html" target="_top" xlink:title="Defines a playable character for use in battle scenes">
<polygon fill="none" stroke="black" points="314,-375.5 314,-487.5 426,-487.5 426,-375.5 314,-375.5"/>
<text text-anchor="middle" x="370" y="-475.5" font-family="Helvetica,sans-Serif" font-size="10.00">Player</text>
<polyline fill="none" stroke="black" points="314,-468.5 426,-468.5 "/>
<text text-anchor="start" x="322" y="-456.5" font-family="Helvetica,sans-Serif" font-size="10.00">+ Exp</text>
<text text-anchor="start" x="322" y="-445.5" font-family="Helvetica,sans-Serif" font-size="10.00">+ Item</text>
<text text-anchor="start" x="322" y="-434.5" font-family="Helvetica,sans-Serif" font-size="10.00">+ ExpToNextLevel</text>
<polyline fill="none" stroke="black" points="314,-427.5 426,-427.5 "/>
<text text-anchor="start" x="322" y="-415.5" font-family="Helvetica,sans-Serif" font-size="10.00">+ Player()</text>
<text text-anchor="start" x="322" y="-404.5" font-family="Helvetica,sans-Serif" font-size="10.00">+ gainExp()</text>
<text text-anchor="start" x="322" y="-393.5" font-family="Helvetica,sans-Serif" font-size="10.00">+ levelUp()</text>
<text text-anchor="start" x="322" y="-382.5" font-family="Helvetica,sans-Serif" font-size="10.00">&#45; setExpToNextLevel()</text>
</a>
</g>
</g>
<!-- Node12&#45;&gt;Node17 -->
<g id="edge15" class="edge"><title>Node12&#45;&gt;Node17</title>
<path fill="none" stroke="midnightblue" d="M318.488,-526.181C325.734,-513.003 332.994,-499.8 339.682,-487.637"/>
<polygon fill="none" stroke="midnightblue" points="315.233,-524.837 313.481,-535.286 321.367,-528.21 315.233,-524.837"/>
</g>
<!-- Node13 -->
<g id="node5" class="node"><title>Node13</title>
<polygon fill="none" stroke="#bfbfbf" points="396.5,-968.5 396.5,-1025.5 425.5,-1025.5 425.5,-968.5 396.5,-968.5"/>
<text text-anchor="middle" x="411" y="-1013.5" font-family="Helvetica,sans-Serif" font-size="10.00">int</text>
<polyline fill="none" stroke="#bfbfbf" points="396.5,-1006.5 425.5,-1006.5 "/>
<text text-anchor="middle" x="411" y="-994.5" font-family="Helvetica,sans-Serif" font-size="10.00"> </text>
<polyline fill="none" stroke="#bfbfbf" points="396.5,-987.5 425.5,-987.5 "/>
<text text-anchor="middle" x="411" y="-975.5" font-family="Helvetica,sans-Serif" font-size="10.00"> </text>
</g>
<!-- Node13&#45;&gt;Node9 -->
<g id="edge20" class="edge"><title>Node13&#45;&gt;Node9</title>
<path fill="none" stroke="#404040" d="M396.37,-996.658C361.549,-997.428 272.729,-994.611 220,-950 210.965,-942.356 204.143,-932.042 199.01,-921.248"/>
<polygon fill="none" stroke="#404040" points="198.898,-920.982 192.886,-916.999 194.25,-909.918 200.262,-913.901 198.898,-920.982"/>
<text text-anchor="middle" x="237.5" y="-936.5" font-family="Helvetica,sans-Serif" font-size="10.00"> #magic</text>
</g>
<!-- Node13&#45;&gt;Node12 -->
<g id="edge5" class="edge"><title>Node13&#45;&gt;Node12</title>
<path fill="none" stroke="#404040" d="M396.475,-995.677C369.069,-994.196 310.056,-986.674 283,-950 256.39,-913.93 256.683,-798.876 260.947,-714.74"/>
<polygon fill="none" stroke="#404040" points="260.957,-714.546 257.286,-708.34 261.602,-702.563 265.274,-708.77 260.957,-714.546"/>
<text text-anchor="middle" x="305.5" y="-900.5" font-family="Helvetica,sans-Serif" font-size="10.00"> #speed</text>
<text text-anchor="middle" x="305.5" y="-889.5" font-family="Helvetica,sans-Serif" font-size="10.00">#luck</text>
<text text-anchor="middle" x="305.5" y="-878.5" font-family="Helvetica,sans-Serif" font-size="10.00">#health</text>
<text text-anchor="middle" x="305.5" y="-867.5" font-family="Helvetica,sans-Serif" font-size="10.00">#magic</text>
<text text-anchor="middle" x="305.5" y="-856.5" font-family="Helvetica,sans-Serif" font-size="10.00">#maximumMagic</text>
<text text-anchor="middle" x="305.5" y="-845.5" font-family="Helvetica,sans-Serif" font-size="10.00">#attack</text>
<text text-anchor="middle" x="305.5" y="-834.5" font-family="Helvetica,sans-Serif" font-size="10.00">#defence</text>
<text text-anchor="middle" x="305.5" y="-823.5" font-family="Helvetica,sans-Serif" font-size="10.00">#level</text>
</g>
<!-- Node13&#45;&gt;Node14 -->
<g id="edge12" class="edge"><title>Node13&#45;&gt;Node14</title>
<path fill="none" stroke="#404040" d="M425.673,-991.791C465.035,-979.505 570,-939.779 570,-865.5 570,-865.5 570,-865.5 570,-430.5 570,-334.906 460.765,-275.454 385.565,-245.852"/>
<polygon fill="none" stroke="#404040" points="385.479,-245.819 378.446,-247.409 374.273,-241.528 381.306,-239.938 385.479,-245.819"/>
<text text-anchor="middle" x="589.5" y="-616.5" font-family="Helvetica,sans-Serif" font-size="10.00"> +money</text>
</g>
<!-- Node13&#45;&gt;Node15 -->
<g id="edge11" class="edge"><title>Node13&#45;&gt;Node15</title>
<path fill="none" stroke="#404040" d="M410.677,-968.444C409.448,-871.848 404.534,-553.412 393,-535 369.461,-497.424 338.882,-516.601 305,-488 298.679,-482.665 292.688,-476.258 287.296,-469.723"/>
<polygon fill="none" stroke="#404040" points="287.228,-469.635 280.386,-467.358 279.856,-460.167 286.698,-462.444 287.228,-469.635"/>
<text text-anchor="middle" x="431" y="-758.5" font-family="Helvetica,sans-Serif" font-size="10.00"> &#45;expGiven</text>
</g>
<!-- Node13&#45;&gt;Node17 -->
<g id="edge18" class="edge"><title>Node13&#45;&gt;Node17</title>
<path fill="none" stroke="#404040" d="M420.048,-968.303C431.731,-930.853 451.353,-861.753 458,-801 470.957,-682.578 464.058,-647.544 425,-535 420.767,-522.803 415.218,-510.306 409.275,-498.418"/>
<polygon fill="none" stroke="#404040" points="409.244,-498.359 402.935,-494.866 403.732,-487.699 410.041,-491.192 409.244,-498.359"/>
<text text-anchor="middle" x="501.5" y="-764" font-family="Helvetica,sans-Serif" font-size="10.00"> &#45;expToNextLevel</text>
<text text-anchor="middle" x="501.5" y="-753" font-family="Helvetica,sans-Serif" font-size="10.00">&#45;exp</text>
</g>
<!-- Node14&#45;&gt;Node10 -->
<g id="edge7" class="edge"><title>Node14&#45;&gt;Node10</title>
<path fill="none" stroke="#404040" d="M257.784,-170.621C227.202,-144.156 190.021,-111.98 160.354,-86.3065"/>
<polygon fill="none" stroke="#404040" points="160.078,-86.0676 152.924,-85.166 151.004,-78.2151 158.159,-79.1167 160.078,-86.0676"/>
<text text-anchor="middle" x="205" y="-101" font-family="Helvetica,sans-Serif" font-size="10.00"> #manager</text>
</g>
<!-- Node15&#45;&gt;Node14 -->
<g id="edge9" class="edge"><title>Node15&#45;&gt;Node14</title>
<path fill="none" stroke="#404040" d="M269.171,-402.946C274.242,-383.46 281.392,-355.983 288.582,-328.355"/>
<polygon fill="none" stroke="#404040" points="288.638,-328.141 286.278,-321.327 291.66,-316.528 294.02,-323.342 288.638,-328.141"/>
<text text-anchor="middle" x="304" y="-343.5" font-family="Helvetica,sans-Serif" font-size="10.00"> &#45;enemy</text>
</g>
<!-- Node16 -->
<g id="node8" class="node"><title>Node16</title>
<polygon fill="none" stroke="#bfbfbf" points="444.5,-403 444.5,-460 479.5,-460 479.5,-403 444.5,-403"/>
<text text-anchor="middle" x="462" y="-448" font-family="Helvetica,sans-Serif" font-size="10.00">bool</text>
<polyline fill="none" stroke="#bfbfbf" points="444.5,-441 479.5,-441 "/>
<text text-anchor="middle" x="462" y="-429" font-family="Helvetica,sans-Serif" font-size="10.00"> </text>
<polyline fill="none" stroke="#bfbfbf" points="444.5,-422 479.5,-422 "/>
<text text-anchor="middle" x="462" y="-410" font-family="Helvetica,sans-Serif" font-size="10.00"> </text>
</g>
<!-- Node16&#45;&gt;Node14 -->
<g id="edge13" class="edge"><title>Node16&#45;&gt;Node14</title>
<path fill="none" stroke="#404040" d="M449.931,-402.783C445.611,-393.709 440.451,-383.723 435,-375 419.157,-349.645 399.905,-323.504 381.544,-300.202"/>
<polygon fill="none" stroke="#404040" points="381.488,-300.132 374.622,-297.928 374.017,-290.742 380.882,-292.947 381.488,-300.132"/>
<text text-anchor="middle" x="454" y="-343.5" font-family="Helvetica,sans-Serif" font-size="10.00"> &#45;wasCriticalHit</text>
</g>
<!-- Node17&#45;&gt;Node14 -->
<g id="edge14" class="edge"><title>Node17&#45;&gt;Node14</title>
<path fill="none" stroke="#404040" d="M355.671,-375.439C351.899,-360.946 347.701,-344.815 343.487,-328.623"/>
<polygon fill="none" stroke="#404040" points="343.444,-328.458 338.062,-323.659 340.422,-316.845 345.804,-321.644 343.444,-328.458"/>
<text text-anchor="middle" x="366.5" y="-343.5" font-family="Helvetica,sans-Serif" font-size="10.00"> &#45;player</text>
</g>
<!-- Node18&#45;&gt;Node17 -->
<g id="edge16" class="edge"><title>Node18&#45;&gt;Node17</title>
<path fill="none" stroke="#404040" d="M351.471,-721.469C354.967,-666.95 361.408,-566.497 365.698,-499.585"/>
<polygon fill="none" stroke="#404040" points="365.705,-499.476 362.097,-493.232 366.473,-487.5 370.081,-493.744 365.705,-499.476"/>
<text text-anchor="middle" x="376.5" y="-616.5" font-family="Helvetica,sans-Serif" font-size="10.00"> &#45;item</text>
</g>
</g>
</svg>
        <g id="navigator" transform="translate(0 0)" fill="#404254">
                <rect fill="#f2f5e9" fill-opacity="0.5" stroke="#606060" stroke-width=".5" x="0" y="0" width="60" height="60"/>
                <use id="zoomplus" xlink:href="#zoomPlus" x="17" y="9" onmousedown="handleZoom(evt,'in')"/>
                <use id="zoomminus" xlink:href="#zoomMin" x="42" y="9" onmousedown="handleZoom(evt,'out')"/>
                <use id="reset" xlink:href="#resetDef" x="30" y="36" onmousedown="handleReset()"/>
                <g id="arrowUp" xlink:href="#dirArrow" transform="translate(30 24)" onmousedown="handlePan(0,-1)">
                  <use xlink:href="#rim" fill="#404040">
                        <set attributeName="fill" to="#808080" begin="arrowUp.mouseover" end="arrowUp.mouseout"/>
                  </use>
                  <path fill="none" stroke="white" stroke-width="1.5" d="M0,-3.0v7 M-2.5,-0.5L0,-3.0L2.5,-0.5"/>
                </g>
                <g id="arrowRight" xlink:href="#dirArrow" transform="rotate(90) translate(36 -43)" onmousedown="handlePan(1,0)">
                  <use xlink:href="#rim" fill="#404040">
                        <set attributeName="fill" to="#808080" begin="arrowRight.mouseover" end="arrowRight.mouseout"/>
                  </use>
                  <path fill="none" stroke="white" stroke-width="1.5" d="M0,-3.0v7 M-2.5,-0.5L0,-3.0L2.5,-0.5"/>
                </g>
                <g id="arrowDown" xlink:href="#dirArrow" transform="rotate(180) translate(-30 -48)" onmousedown="handlePan(0,1)">
                  <use xlink:href="#rim" fill="#404040">
                        <set attributeName="fill" to="#808080" begin="arrowDown.mouseover" end="arrowDown.mouseout"/>
                  </use>
                  <path fill="none" stroke="white" stroke-width="1.5" d="M0,-3.0v7 M-2.5,-0.5L0,-3.0L2.5,-0.5"/>
                </g>
                <g id="arrowLeft" xlink:href="#dirArrow" transform="rotate(270) translate(-36 17)" onmousedown="handlePan(-1,0)">
                  <use xlink:href="#rim" fill="#404040">
                        <set attributeName="fill" to="#808080" begin="arrowLeft.mouseover" end="arrowLeft.mouseout"/>
                  </use>
                  <path fill="none" stroke="white" stroke-width="1.5" d="M0,-3.0v7 M-2.5,-0.5L0,-3.0L2.5,-0.5"/>
                </g>
        </g>
        <svg viewBox="0 0 15 15" width="100%" height="30px" preserveAspectRatio="xMaxYMin meet">
         <g id="arrow_out" transform="scale(0.3 0.3)">
          <a xlink:href="class_special_move__coll__graph_org.svg" target="_base">
           <rect id="button" ry="5" rx="5" y="6" x="6" height="38" width="38"
                fill="#f2f5e9" fill-opacity="0.5" stroke="#606060" stroke-width="1.0"/>
           <path id="arrow"
             d="M 11.500037,31.436501 C 11.940474,20.09759 22.043105,11.32322 32.158766,21.979434 L 37.068811,17.246167 C 37.068811,17.246167 37.088388,32 37.088388,32 L 22.160133,31.978069 C 22.160133,31.978069 26.997745,27.140456 26.997745,27.140456 C 18.528582,18.264221 13.291696,25.230495 11.500037,31.436501 z"
             style="fill:#404040;"/>
          </a>
         </g>
        </svg>
</svg>
