<?xml version="1.0" encoding="UTF-8" standalone="no"?>
<!DOCTYPE svg PUBLIC "-//W3C//DTD SVG 1.1//EN"
 "http://www.w3.org/Graphics/SVG/1.1/DTD/svg11.dtd">
<!-- Generated by graphviz version 2.38.0 (20140413.2041)
 -->
<!-- Title: GlobalFunctions Pages: 1 -->
<!--zoomable 1435 -->
<svg id="main" version="1.1" xmlns="http://www.w3.org/2000/svg" xmlns:xlink="http://www.w3.org/1999/xlink" xml:space="preserve" onload="init(evt)">
<style type="text/css"><![CDATA[
.edge:hover path { stroke: red; }
.edge:hover polygon { stroke: red; fill: red; }
]]></style>
<script type="text/javascript"><![CDATA[
var edges = document.getElementsByTagName('g');
if (edges && edges.length) {
  for (var i=0;i<edges.length;i++) {
    if (edges[i].id.substr(0,4)=='edge') {
      edges[i].setAttribute('class','edge');
    }
  }
}
]]></script>
        <defs>
                <circle id="rim" cx="0" cy="0" r="7"/>
                <circle id="rim2" cx="0" cy="0" r="3.5"/>
                <g id="zoomPlus">
                        <use xlink:href="#rim" fill="#404040">
                                <set attributeName="fill" to="#808080" begin="zoomplus.mouseover" end="zoomplus.mouseout"/>
                        </use>
                        <path d="M-4,0h8M0,-4v8" fill="none" stroke="white" stroke-width="1.5" pointer-events="none"/>
                </g>
                <g id="zoomMin">
                        <use xlink:href="#rim" fill="#404040">
                                <set attributeName="fill" to="#808080" begin="zoomminus.mouseover" end="zoomminus.mouseout"/>
                        </use>
                        <path d="M-4,0h8" fill="none" stroke="white" stroke-width="1.5" pointer-events="none"/>
                </g>
                <g id="dirArrow">
                        <path fill="none" stroke="white" stroke-width="1.5" d="M0,-3.0v7 M-2.5,-0.5L0,-3.0L2.5,-0.5"/>
                </g>
               <g id="resetDef">
                       <use xlink:href="#rim2" fill="#404040">
                               <set attributeName="fill" to="#808080" begin="reset.mouseover" end="reset.mouseout"/>
                       </use>
               </g>
        </defs>

<script type="text/javascript">
var viewWidth = 956;
var viewHeight = 1435;
var sectionId = 'dynsection-1';
</script>
<script xlink:href="svgpan.js"/>
<svg id="graph" class="graph">
<g id="viewport">
<title>GlobalFunctions</title>
<!-- Node2 -->
<g id="node1" class="node"><title>Node2</title>
<polygon fill="#bfbfbf" stroke="black" points="264,-0.5 264,-112.5 351,-112.5 351,-0.5 264,-0.5"/>
<text text-anchor="middle" x="307.5" y="-100.5" font-family="Helvetica,sans-Serif" font-size="10.00">GlobalFunctions</text>
<polyline fill="none" stroke="black" points="264,-93.5 351,-93.5 "/>
<text text-anchor="middle" x="307.5" y="-81.5" font-family="Helvetica,sans-Serif" font-size="10.00"> </text>
<polyline fill="none" stroke="black" points="264,-74.5 351,-74.5 "/>
<text text-anchor="start" x="272" y="-62.5" font-family="Helvetica,sans-Serif" font-size="10.00">+ createBattle()</text>
<text text-anchor="start" x="272" y="-51.5" font-family="Helvetica,sans-Serif" font-size="10.00">+ getEnemy()</text>
<text text-anchor="start" x="272" y="-40.5" font-family="Helvetica,sans-Serif" font-size="10.00">+ getMoney()</text>
<text text-anchor="start" x="272" y="-29.5" font-family="Helvetica,sans-Serif" font-size="10.00">+ getItem()</text>
<text text-anchor="start" x="272" y="-18.5" font-family="Helvetica,sans-Serif" font-size="10.00">+ endBattle()</text>
<text text-anchor="start" x="272" y="-7.5" font-family="Helvetica,sans-Serif" font-size="10.00">&#45; Awake()</text>
</g>
<!-- Node2&#45;&gt;Node2 -->
<g id="edge27" class="edge"><title>Node2&#45;&gt;Node2</title>
<path fill="none" stroke="#404040" d="M351.169,-71.2034C361.43,-69.9949 369,-65.0938 369,-56.5 369,-51.666 366.605,-48.0004 362.683,-45.5032"/>
<polygon fill="none" stroke="#404040" points="362.592,-45.474 355.655,-47.4429 351.169,-41.7966 358.106,-39.8277 362.592,-45.474"/>
<text text-anchor="middle" x="392" y="-54" font-family="Helvetica,sans-Serif" font-size="10.00"> +instance</text>
</g>
<!-- Node3 -->
<g id="node2" class="node"><title>Node3</title>
<g id="a_node2"><a xlink:href="class_mono_behaviour.html" target="_top" xlink:title="{MonoBehaviour\n||}">
<polygon fill="none" stroke="black" points="0,-160.5 0,-217.5 83,-217.5 83,-160.5 0,-160.5"/>
<text text-anchor="middle" x="41.5" y="-205.5" font-family="Helvetica,sans-Serif" font-size="10.00">MonoBehaviour</text>
<polyline fill="none" stroke="black" points="0,-198.5 83,-198.5 "/>
<text text-anchor="middle" x="41.5" y="-186.5" font-family="Helvetica,sans-Serif" font-size="10.00"> </text>
<polyline fill="none" stroke="black" points="0,-179.5 83,-179.5 "/>
<text text-anchor="middle" x="41.5" y="-167.5" font-family="Helvetica,sans-Serif" font-size="10.00"> </text>
</a>
</g>
</g>
<!-- Node3&#45;&gt;Node2 -->
<g id="edge1" class="edge"><title>Node3&#45;&gt;Node2</title>
<path fill="none" stroke="midnightblue" d="M85.9201,-154.399C97.7908,-146.186 110.846,-137.81 123.5,-131 169.541,-106.22 225.776,-84.9549 263.868,-71.7664"/>
<polygon fill="none" stroke="midnightblue" points="83.667,-151.705 77.5084,-160.326 87.699,-157.427 83.667,-151.705"/>
</g>
<!-- Node4 -->
<g id="node3" class="node"><title>Node4</title>
<polygon fill="none" stroke="#bfbfbf" points="101.5,-160.5 101.5,-217.5 159.5,-217.5 159.5,-160.5 101.5,-160.5"/>
<text text-anchor="middle" x="130.5" y="-205.5" font-family="Helvetica,sans-Serif" font-size="10.00">AudioClip</text>
<polyline fill="none" stroke="#bfbfbf" points="101.5,-198.5 159.5,-198.5 "/>
<text text-anchor="middle" x="130.5" y="-186.5" font-family="Helvetica,sans-Serif" font-size="10.00"> </text>
<polyline fill="none" stroke="#bfbfbf" points="101.5,-179.5 159.5,-179.5 "/>
<text text-anchor="middle" x="130.5" y="-167.5" font-family="Helvetica,sans-Serif" font-size="10.00"> </text>
</g>
<!-- Node4&#45;&gt;Node2 -->
<g id="edge2" class="edge"><title>Node4&#45;&gt;Node2</title>
<path fill="none" stroke="#404040" d="M125.009,-160.295C124.494,-150.309 125.774,-139.435 131.5,-131 158.44,-91.3131 211.245,-73.0062 252.018,-64.5907"/>
<polygon fill="none" stroke="#404040" points="252.182,-64.5597 257.335,-59.5146 263.974,-62.3302 258.821,-67.3753 252.182,-64.5597"/>
<text text-anchor="middle" x="163.5" y="-134" font-family="Helvetica,sans-Serif" font-size="10.00"> &#45;previousBGM</text>
</g>
<!-- Node5 -->
<g id="node4" class="node"><title>Node5</title>
<g id="a_node4"><a xlink:href="class_item.html" target="_top" xlink:title="{Item\n|+ Name\l+ Desc\l|+ applyBuffs()\l+ revertBuffs()\l}">
<polygon fill="none" stroke="black" points="301,-1231.5 301,-1310.5 378,-1310.5 378,-1231.5 301,-1231.5"/>
<text text-anchor="middle" x="339.5" y="-1298.5" font-family="Helvetica,sans-Serif" font-size="10.00">Item</text>
<polyline fill="none" stroke="black" points="301,-1291.5 378,-1291.5 "/>
<text text-anchor="start" x="309" y="-1279.5" font-family="Helvetica,sans-Serif" font-size="10.00">+ Name</text>
<text text-anchor="start" x="309" y="-1268.5" font-family="Helvetica,sans-Serif" font-size="10.00">+ Desc</text>
<polyline fill="none" stroke="black" points="301,-1261.5 378,-1261.5 "/>
<text text-anchor="start" x="309" y="-1249.5" font-family="Helvetica,sans-Serif" font-size="10.00">+ applyBuffs()</text>
<text text-anchor="start" x="309" y="-1238.5" font-family="Helvetica,sans-Serif" font-size="10.00">+ revertBuffs()</text>
</a>
</g>
</g>
<!-- Node5&#45;&gt;Node2 -->
<g id="edge3" class="edge"><title>Node5&#45;&gt;Node2</title>
<path fill="none" stroke="#404040" d="M330.84,-1231.14C321.363,-1185.16 307.5,-1106.16 307.5,-1037.5 307.5,-1037.5 307.5,-1037.5 307.5,-188 307.5,-167.453 307.5,-145.086 307.5,-124.767"/>
<polygon fill="none" stroke="#404040" points="307.5,-124.743 303.5,-118.744 307.5,-112.743 311.5,-118.743 307.5,-124.743"/>
<text text-anchor="middle" x="320" y="-593" font-family="Helvetica,sans-Serif" font-size="10.00"> &#45;item</text>
</g>
<!-- Node15 -->
<g id="node14" class="node"><title>Node15</title>
<g id="a_node14"><a xlink:href="class_player.html" target="_top" xlink:title="Defines a playable character for use in battle scenes">
<polygon fill="none" stroke="black" points="337.5,-1060.5 337.5,-1172.5 449.5,-1172.5 449.5,-1060.5 337.5,-1060.5"/>
<text text-anchor="middle" x="393.5" y="-1160.5" font-family="Helvetica,sans-Serif" font-size="10.00">Player</text>
<polyline fill="none" stroke="black" points="337.5,-1153.5 449.5,-1153.5 "/>
<text text-anchor="start" x="345.5" y="-1141.5" font-family="Helvetica,sans-Serif" font-size="10.00">+ Exp</text>
<text text-anchor="start" x="345.5" y="-1130.5" font-family="Helvetica,sans-Serif" font-size="10.00">+ Item</text>
<text text-anchor="start" x="345.5" y="-1119.5" font-family="Helvetica,sans-Serif" font-size="10.00">+ ExpToNextLevel</text>
<polyline fill="none" stroke="black" points="337.5,-1112.5 449.5,-1112.5 "/>
<text text-anchor="start" x="345.5" y="-1100.5" font-family="Helvetica,sans-Serif" font-size="10.00">+ Player()</text>
<text text-anchor="start" x="345.5" y="-1089.5" font-family="Helvetica,sans-Serif" font-size="10.00">+ gainExp()</text>
<text text-anchor="start" x="345.5" y="-1078.5" font-family="Helvetica,sans-Serif" font-size="10.00">+ levelUp()</text>
<text text-anchor="start" x="345.5" y="-1067.5" font-family="Helvetica,sans-Serif" font-size="10.00">&#45; setExpToNextLevel()</text>
</a>
</g>
</g>
<!-- Node5&#45;&gt;Node15 -->
<g id="edge22" class="edge"><title>Node5&#45;&gt;Node15</title>
<path fill="none" stroke="#404040" d="M335.359,-1231.46C335.155,-1218.33 336.288,-1203.77 340.5,-1191 341.341,-1188.45 342.305,-1185.92 343.373,-1183.4"/>
<polygon fill="none" stroke="#404040" points="343.399,-1183.35 342.429,-1176.2 348.652,-1172.56 349.622,-1179.71 343.399,-1183.35"/>
<text text-anchor="middle" x="353" y="-1199.5" font-family="Helvetica,sans-Serif" font-size="10.00"> &#45;item</text>
</g>
<!-- Node6 -->
<g id="node5" class="node"><title>Node6</title>
<polygon fill="none" stroke="#bfbfbf" points="417,-1369.5 417,-1426.5 458,-1426.5 458,-1369.5 417,-1369.5"/>
<text text-anchor="middle" x="437.5" y="-1414.5" font-family="Helvetica,sans-Serif" font-size="10.00">string</text>
<polyline fill="none" stroke="#bfbfbf" points="417,-1407.5 458,-1407.5 "/>
<text text-anchor="middle" x="437.5" y="-1395.5" font-family="Helvetica,sans-Serif" font-size="10.00"> </text>
<polyline fill="none" stroke="#bfbfbf" points="417,-1388.5 458,-1388.5 "/>
<text text-anchor="middle" x="437.5" y="-1376.5" font-family="Helvetica,sans-Serif" font-size="10.00"> </text>
</g>
<!-- Node6&#45;&gt;Node2 -->
<g id="edge5" class="edge"><title>Node6&#45;&gt;Node2</title>
<path fill="none" stroke="#404040" d="M416.864,-1395.41C360.74,-1389.84 209.5,-1366.12 209.5,-1272 209.5,-1272 209.5,-1272 209.5,-188 209.5,-153.455 231.729,-122.214 255.014,-98.9657"/>
<polygon fill="none" stroke="#404040" points="255.257,-98.734 256.842,-91.6992 263.945,-90.4566 262.36,-97.4914 255.257,-98.734"/>
<text text-anchor="middle" x="244.5" y="-656.5" font-family="Helvetica,sans-Serif" font-size="10.00"> &#45;previousScene</text>
</g>
<!-- Node6&#45;&gt;Node5 -->
<g id="edge4" class="edge"><title>Node6&#45;&gt;Node5</title>
<path fill="none" stroke="#404040" d="M416.956,-1370.8C405.508,-1356.19 390.889,-1337.55 377.442,-1320.39"/>
<polygon fill="none" stroke="#404040" points="377.096,-1319.95 370.246,-1317.7 369.692,-1310.51 376.542,-1312.76 377.096,-1319.95"/>
<text text-anchor="middle" x="415.5" y="-1343" font-family="Helvetica,sans-Serif" font-size="10.00"> #desc</text>
<text text-anchor="middle" x="415.5" y="-1332" font-family="Helvetica,sans-Serif" font-size="10.00">#name</text>
</g>
<!-- Node9 -->
<g id="node8" class="node"><title>Node9</title>
<g id="a_node8"><a xlink:href="class_character.html" target="_top" xlink:title="Base abstract class for Enemy and Player to inherit from. Defines all shared variables, their constructor and their setters and getters ">
<polygon fill="none" stroke="black" points="516,-255.5 516,-422.5 611,-422.5 611,-255.5 516,-255.5"/>
<text text-anchor="middle" x="563.5" y="-410.5" font-family="Helvetica,sans-Serif" font-size="10.00">Character</text>
<polyline fill="none" stroke="black" points="516,-403.5 611,-403.5 "/>
<text text-anchor="start" x="524" y="-391.5" font-family="Helvetica,sans-Serif" font-size="10.00">+ Name</text>
<text text-anchor="start" x="524" y="-380.5" font-family="Helvetica,sans-Serif" font-size="10.00">+ Level</text>
<text text-anchor="start" x="524" y="-369.5" font-family="Helvetica,sans-Serif" font-size="10.00">+ Health</text>
<text text-anchor="start" x="524" y="-358.5" font-family="Helvetica,sans-Serif" font-size="10.00">+ Attack</text>
<text text-anchor="start" x="524" y="-347.5" font-family="Helvetica,sans-Serif" font-size="10.00">+ Defence</text>
<text text-anchor="start" x="524" y="-336.5" font-family="Helvetica,sans-Serif" font-size="10.00">+ MaximumMagic</text>
<text text-anchor="start" x="524" y="-325.5" font-family="Helvetica,sans-Serif" font-size="10.00">+ Magic</text>
<text text-anchor="start" x="524" y="-314.5" font-family="Helvetica,sans-Serif" font-size="10.00">+ Luck</text>
<text text-anchor="start" x="524" y="-303.5" font-family="Helvetica,sans-Serif" font-size="10.00">+ Speed</text>
<text text-anchor="start" x="524" y="-292.5" font-family="Helvetica,sans-Serif" font-size="10.00">+ Special1</text>
<text text-anchor="start" x="524" y="-281.5" font-family="Helvetica,sans-Serif" font-size="10.00">+ Special2</text>
<polyline fill="none" stroke="black" points="516,-274.5 611,-274.5 "/>
<text text-anchor="start" x="524" y="-262.5" font-family="Helvetica,sans-Serif" font-size="10.00"># Character()</text>
</a>
</g>
</g>
<!-- Node6&#45;&gt;Node9 -->
<g id="edge9" class="edge"><title>Node6&#45;&gt;Node9</title>
<path fill="none" stroke="#404040" d="M416.812,-1391.88C383.421,-1382.38 318.652,-1358.51 291.5,-1311 265.034,-1264.69 288.072,-1244.15 292.5,-1191 308.489,-999.08 353.5,-954.585 353.5,-762 353.5,-762 353.5,-762 353.5,-525.5 353.5,-444.443 442.469,-390.315 504.589,-362.402"/>
<polygon fill="none" stroke="#404040" points="504.847,-362.289 508.749,-356.225 515.848,-357.494 511.946,-363.559 504.847,-362.289"/>
<text text-anchor="middle" x="369" y="-915.5" font-family="Helvetica,sans-Serif" font-size="10.00"> #name</text>
</g>
<!-- Node11 -->
<g id="node10" class="node"><title>Node11</title>
<g id="a_node10"><a xlink:href="class_special_move.html" target="_top" xlink:title="Special move abstract base class that expands upon CharacterMove, adding magic properties ...">
<polygon fill="none" stroke="black" points="679.5,-481.5 679.5,-571.5 777.5,-571.5 777.5,-481.5 679.5,-481.5"/>
<text text-anchor="middle" x="728.5" y="-559.5" font-family="Helvetica,sans-Serif" font-size="10.00">SpecialMove</text>
<polyline fill="none" stroke="black" points="679.5,-552.5 777.5,-552.5 "/>
<text text-anchor="start" x="687.5" y="-540.5" font-family="Helvetica,sans-Serif" font-size="10.00">+ Magic</text>
<text text-anchor="start" x="687.5" y="-529.5" font-family="Helvetica,sans-Serif" font-size="10.00">+ Desc</text>
<polyline fill="none" stroke="black" points="679.5,-522.5 777.5,-522.5 "/>
<text text-anchor="start" x="687.5" y="-510.5" font-family="Helvetica,sans-Serif" font-size="10.00">+ setUp()</text>
<text text-anchor="start" x="687.5" y="-499.5" font-family="Helvetica,sans-Serif" font-size="10.00">+ decreaseMagic()</text>
<text text-anchor="start" x="687.5" y="-488.5" font-family="Helvetica,sans-Serif" font-size="10.00"># SpecialMove()</text>
</a>
</g>
</g>
<!-- Node6&#45;&gt;Node11 -->
<g id="edge24" class="edge"><title>Node6&#45;&gt;Node11</title>
<path fill="none" stroke="#404040" d="M458.125,-1396.15C550,-1391.81 917.5,-1368.45 917.5,-1272 917.5,-1272 917.5,-1272 917.5,-760 917.5,-691.543 898.565,-672.215 855.5,-619 836.96,-596.09 811.336,-576.17 787.957,-560.818"/>
<polygon fill="none" stroke="#404040" points="787.872,-560.763 780.662,-560.907 777.756,-554.308 784.966,-554.164 787.872,-560.763"/>
<text text-anchor="middle" x="932.5" y="-1034" font-family="Helvetica,sans-Serif" font-size="10.00"> #desc</text>
</g>
<!-- Node12 -->
<g id="node11" class="node"><title>Node12</title>
<g id="a_node11"><a xlink:href="class_character_move.html" target="_top" xlink:title="Astract base class for character moves ">
<polygon fill="none" stroke="black" points="532.5,-619.5 532.5,-698.5 618.5,-698.5 618.5,-619.5 532.5,-619.5"/>
<text text-anchor="middle" x="575.5" y="-686.5" font-family="Helvetica,sans-Serif" font-size="10.00">CharacterMove</text>
<polyline fill="none" stroke="black" points="532.5,-679.5 618.5,-679.5 "/>
<text text-anchor="start" x="540.5" y="-667.5" font-family="Helvetica,sans-Serif" font-size="10.00">+ User</text>
<text text-anchor="start" x="540.5" y="-656.5" font-family="Helvetica,sans-Serif" font-size="10.00">+ Target</text>
<text text-anchor="start" x="540.5" y="-645.5" font-family="Helvetica,sans-Serif" font-size="10.00">+ Text</text>
<polyline fill="none" stroke="black" points="532.5,-638.5 618.5,-638.5 "/>
<text text-anchor="start" x="540.5" y="-626.5" font-family="Helvetica,sans-Serif" font-size="10.00">+ performMove()</text>
</a>
</g>
</g>
<!-- Node6&#45;&gt;Node12 -->
<g id="edge13" class="edge"><title>Node6&#45;&gt;Node12</title>
<path fill="none" stroke="#404040" d="M458.085,-1370.26C483.545,-1335.82 526.35,-1273.21 549.5,-1213 574.337,-1148.4 564.547,-1127.79 578.5,-1060 580.152,-1051.97 581.247,-1050.1 582.5,-1042 598.671,-937.498 598.829,-910.643 603.5,-805 605.228,-765.927 612.352,-755.096 603.5,-717 602.967,-714.704 602.327,-712.395 601.603,-710.09"/>
<polygon fill="none" stroke="#404040" points="601.546,-709.936 595.71,-705.7 597.375,-698.684 603.211,-702.92 601.546,-709.936"/>
<text text-anchor="middle" x="591" y="-1114" font-family="Helvetica,sans-Serif" font-size="10.00"> #text</text>
</g>
<!-- Node13 -->
<g id="node12" class="node"><title>Node13</title>
<g id="a_node12"><a xlink:href="class_battle_manager.html" target="_top" xlink:title="{BattleManager\n|+ Player\l+ Enemy\l+ WasCriticalHit\l|+ BattleManager()\l+ playerFirst()\l+ switchPlayers()\l+ isCriticalHit()\l+ ranAway()\l+ damageCalculation()\l+ enemyMove()\l+ enemySpecialMove()\l+ battleWon()\l+ playerFainted()\l&#45; characterFainted()\l}">
<polygon fill="none" stroke="black" points="449.5,-823.5 449.5,-1012.5 565.5,-1012.5 565.5,-823.5 449.5,-823.5"/>
<text text-anchor="middle" x="507.5" y="-1000.5" font-family="Helvetica,sans-Serif" font-size="10.00">BattleManager</text>
<polyline fill="none" stroke="black" points="449.5,-993.5 565.5,-993.5 "/>
<text text-anchor="start" x="457.5" y="-981.5" font-family="Helvetica,sans-Serif" font-size="10.00">+ Player</text>
<text text-anchor="start" x="457.5" y="-970.5" font-family="Helvetica,sans-Serif" font-size="10.00">+ Enemy</text>
<text text-anchor="start" x="457.5" y="-959.5" font-family="Helvetica,sans-Serif" font-size="10.00">+ WasCriticalHit</text>
<polyline fill="none" stroke="black" points="449.5,-952.5 565.5,-952.5 "/>
<text text-anchor="start" x="457.5" y="-940.5" font-family="Helvetica,sans-Serif" font-size="10.00">+ BattleManager()</text>
<text text-anchor="start" x="457.5" y="-929.5" font-family="Helvetica,sans-Serif" font-size="10.00">+ playerFirst()</text>
<text text-anchor="start" x="457.5" y="-918.5" font-family="Helvetica,sans-Serif" font-size="10.00">+ switchPlayers()</text>
<text text-anchor="start" x="457.5" y="-907.5" font-family="Helvetica,sans-Serif" font-size="10.00">+ isCriticalHit()</text>
<text text-anchor="start" x="457.5" y="-896.5" font-family="Helvetica,sans-Serif" font-size="10.00">+ ranAway()</text>
<text text-anchor="start" x="457.5" y="-885.5" font-family="Helvetica,sans-Serif" font-size="10.00">+ damageCalculation()</text>
<text text-anchor="start" x="457.5" y="-874.5" font-family="Helvetica,sans-Serif" font-size="10.00">+ enemyMove()</text>
<text text-anchor="start" x="457.5" y="-863.5" font-family="Helvetica,sans-Serif" font-size="10.00">+ enemySpecialMove()</text>
<text text-anchor="start" x="457.5" y="-852.5" font-family="Helvetica,sans-Serif" font-size="10.00">+ battleWon()</text>
<text text-anchor="start" x="457.5" y="-841.5" font-family="Helvetica,sans-Serif" font-size="10.00">+ playerFainted()</text>
<text text-anchor="start" x="457.5" y="-830.5" font-family="Helvetica,sans-Serif" font-size="10.00">&#45; characterFainted()</text>
</a>
</g>
</g>
<!-- Node6&#45;&gt;Node13 -->
<g id="edge16" class="edge"><title>Node6&#45;&gt;Node13</title>
<path fill="none" stroke="#404040" d="M441.566,-1369.23C451.18,-1303.58 475.727,-1135.97 492.004,-1024.81"/>
<polygon fill="none" stroke="#404040" points="492.011,-1024.77 488.922,-1018.25 493.75,-1012.89 496.838,-1019.41 492.011,-1024.77"/>
<text text-anchor="middle" x="506.5" y="-1199.5" font-family="Helvetica,sans-Serif" font-size="10.00"> +forceCriticalHits</text>
</g>
<!-- Node7 -->
<g id="node6" class="node"><title>Node7</title>
<polygon fill="none" stroke="#bfbfbf" points="336,-160.5 336,-217.5 407,-217.5 407,-160.5 336,-160.5"/>
<text text-anchor="middle" x="371.5" y="-205.5" font-family="Helvetica,sans-Serif" font-size="10.00">GameObject</text>
<polyline fill="none" stroke="#bfbfbf" points="336,-198.5 407,-198.5 "/>
<text text-anchor="middle" x="371.5" y="-186.5" font-family="Helvetica,sans-Serif" font-size="10.00"> </text>
<polyline fill="none" stroke="#bfbfbf" points="336,-179.5 407,-179.5 "/>
<text text-anchor="middle" x="371.5" y="-167.5" font-family="Helvetica,sans-Serif" font-size="10.00"> </text>
</g>
<!-- Node7&#45;&gt;Node2 -->
<g id="edge6" class="edge"><title>Node7&#45;&gt;Node2</title>
<path fill="none" stroke="#404040" d="M357.927,-160.324C352.595,-149.452 346.228,-136.469 339.843,-123.449"/>
<polygon fill="none" stroke="#404040" points="339.781,-123.322 333.547,-119.697 334.497,-112.548 340.73,-116.174 339.781,-123.322"/>
<text text-anchor="middle" x="364" y="-134" font-family="Helvetica,sans-Serif" font-size="10.00"> &#45;player</text>
</g>
<!-- Node8 -->
<g id="node7" class="node"><title>Node8</title>
<g id="a_node7"><a xlink:href="class_enemy.html" target="_top" xlink:title="Defines an AI controller enemy to fight in battle scenes">
<polygon fill="none" stroke="black" points="474,-160.5 474,-217.5 541,-217.5 541,-160.5 474,-160.5"/>
<text text-anchor="middle" x="507.5" y="-205.5" font-family="Helvetica,sans-Serif" font-size="10.00">Enemy</text>
<polyline fill="none" stroke="black" points="474,-198.5 541,-198.5 "/>
<text text-anchor="start" x="482" y="-186.5" font-family="Helvetica,sans-Serif" font-size="10.00">+ ExpGiven</text>
<polyline fill="none" stroke="black" points="474,-179.5 541,-179.5 "/>
<text text-anchor="start" x="482" y="-167.5" font-family="Helvetica,sans-Serif" font-size="10.00">+ Enemy()</text>
</a>
</g>
</g>
<!-- Node8&#45;&gt;Node2 -->
<g id="edge7" class="edge"><title>Node8&#45;&gt;Node2</title>
<path fill="none" stroke="#404040" d="M473.573,-165.862C442.838,-145.808 397.032,-115.919 361.306,-92.6085"/>
<polygon fill="none" stroke="#404040" points="361.095,-92.4709 353.884,-92.5421 351.045,-85.9134 358.256,-85.8422 361.095,-92.4709"/>
<text text-anchor="middle" x="449.5" y="-134" font-family="Helvetica,sans-Serif" font-size="10.00"> &#45;enemy</text>
</g>
<!-- Node8&#45;&gt;Node13 -->
<g id="edge17" class="edge"><title>Node8&#45;&gt;Node13</title>
<path fill="none" stroke="#404040" d="M493.143,-217.544C479.321,-246.66 460.5,-294.326 460.5,-338 460.5,-660 460.5,-660 460.5,-660 460.5,-710.384 469.349,-765.431 479.368,-811.608"/>
<polygon fill="none" stroke="#404040" points="479.398,-811.743 484.606,-816.731 482.006,-823.457 476.797,-818.469 479.398,-811.743"/>
<text text-anchor="middle" x="478.5" y="-524" font-family="Helvetica,sans-Serif" font-size="10.00"> &#45;enemy</text>
</g>
<!-- Node9&#45;&gt;Node8 -->
<g id="edge8" class="edge"><title>Node9&#45;&gt;Node8</title>
<path fill="none" stroke="midnightblue" d="M528.631,-245.845C524.763,-235.624 521.082,-225.896 517.908,-217.507"/>
<polygon fill="none" stroke="midnightblue" points="525.413,-247.232 532.225,-255.346 531.96,-244.754 525.413,-247.232"/>
</g>
<!-- Node9&#45;&gt;Node12 -->
<g id="edge14" class="edge"><title>Node9&#45;&gt;Node12</title>
<path fill="none" stroke="#404040" d="M566.619,-422.651C568.825,-481.118 571.713,-557.644 573.587,-607.305"/>
<polygon fill="none" stroke="#404040" points="573.588,-607.333 577.811,-613.178 574.041,-619.325 569.817,-613.48 573.588,-607.333"/>
<text text-anchor="middle" x="589.5" y="-529.5" font-family="Helvetica,sans-Serif" font-size="10.00"> #target</text>
<text text-anchor="middle" x="589.5" y="-518.5" font-family="Helvetica,sans-Serif" font-size="10.00">#user</text>
</g>
<!-- Node9&#45;&gt;Node15 -->
<g id="edge21" class="edge"><title>Node9&#45;&gt;Node15</title>
<path fill="none" stroke="midnightblue" d="M508.123,-386.374C482.201,-411.492 453.735,-444.771 438.5,-481 394.836,-584.835 392.186,-926.097 392.911,-1060.45"/>
<polygon fill="none" stroke="midnightblue" points="510.863,-388.6 515.71,-379.179 506.046,-383.52 510.863,-388.6"/>
</g>
<!-- Node10 -->
<g id="node9" class="node"><title>Node10</title>
<polygon fill="none" stroke="#bfbfbf" points="711,-1242.5 711,-1299.5 740,-1299.5 740,-1242.5 711,-1242.5"/>
<text text-anchor="middle" x="725.5" y="-1287.5" font-family="Helvetica,sans-Serif" font-size="10.00">int</text>
<polyline fill="none" stroke="#bfbfbf" points="711,-1280.5 740,-1280.5 "/>
<text text-anchor="middle" x="725.5" y="-1268.5" font-family="Helvetica,sans-Serif" font-size="10.00"> </text>
<polyline fill="none" stroke="#bfbfbf" points="711,-1261.5 740,-1261.5 "/>
<text text-anchor="middle" x="725.5" y="-1249.5" font-family="Helvetica,sans-Serif" font-size="10.00"> </text>
</g>
<!-- Node10&#45;&gt;Node2 -->
<g id="edge28" class="edge"><title>Node10&#45;&gt;Node2</title>
<path fill="none" stroke="#404040" d="M740.266,-1263.94C778.811,-1247.02 879.5,-1195.39 879.5,-1117.5 879.5,-1117.5 879.5,-1117.5 879.5,-188 879.5,-82.9473 508.13,-62.4621 363.86,-58.4676"/>
<polygon fill="none" stroke="#404040" points="363.43,-58.4567 357.33,-62.3016 351.434,-58.1491 357.535,-54.3042 363.43,-58.4567"/>
<text text-anchor="middle" x="897.5" y="-593" font-family="Helvetica,sans-Serif" font-size="10.00"> &#45;money</text>
</g>
<!-- Node10&#45;&gt;Node8 -->
<g id="edge26" class="edge"><title>Node10&#45;&gt;Node8</title>
<path fill="none" stroke="#404040" d="M740.173,-1254.5C763.269,-1228.42 805.5,-1173.11 805.5,-1117.5 805.5,-1117.5 805.5,-1117.5 805.5,-338 805.5,-226.737 636.804,-199.119 553.263,-192.263"/>
<polygon fill="none" stroke="#404040" points="553.072,-192.249 546.793,-195.795 541.105,-191.363 547.384,-187.817 553.072,-192.249"/>
<text text-anchor="middle" x="828.5" y="-656.5" font-family="Helvetica,sans-Serif" font-size="10.00"> &#45;expGiven</text>
</g>
<!-- Node10&#45;&gt;Node9 -->
<g id="edge10" class="edge"><title>Node10&#45;&gt;Node9</title>
<path fill="none" stroke="#404040" d="M721.274,-1242.47C715.089,-1202.32 703.15,-1125.38 692.5,-1060 674.023,-946.562 665.811,-918.77 649.5,-805 637.687,-722.6 637.478,-701.643 627.5,-619 620.093,-557.649 624.116,-541.278 610.5,-481 607.057,-465.757 602.612,-449.835 597.833,-434.408"/>
<polygon fill="none" stroke="#404040" points="597.756,-434.164 592.127,-429.656 594.124,-422.727 599.752,-427.235 597.756,-434.164"/>
<text text-anchor="middle" x="687" y="-797" font-family="Helvetica,sans-Serif" font-size="10.00"> #speed</text>
<text text-anchor="middle" x="687" y="-786" font-family="Helvetica,sans-Serif" font-size="10.00">#luck</text>
<text text-anchor="middle" x="687" y="-775" font-family="Helvetica,sans-Serif" font-size="10.00">#health</text>
<text text-anchor="middle" x="687" y="-764" font-family="Helvetica,sans-Serif" font-size="10.00">#magic</text>
<text text-anchor="middle" x="687" y="-753" font-family="Helvetica,sans-Serif" font-size="10.00">#maximumMagic</text>
<text text-anchor="middle" x="687" y="-742" font-family="Helvetica,sans-Serif" font-size="10.00">#attack</text>
<text text-anchor="middle" x="687" y="-731" font-family="Helvetica,sans-Serif" font-size="10.00">#defence</text>
<text text-anchor="middle" x="687" y="-720" font-family="Helvetica,sans-Serif" font-size="10.00">#level</text>
</g>
<!-- Node10&#45;&gt;Node11 -->
<g id="edge25" class="edge"><title>Node10&#45;&gt;Node11</title>
<path fill="none" stroke="#404040" d="M725.739,-1242.48C726.352,-1170.58 727.964,-971.103 728.5,-805 728.747,-728.41 728.687,-639.929 728.606,-583.862"/>
<polygon fill="none" stroke="#404040" points="728.606,-583.716 724.597,-577.723 728.588,-571.716 732.597,-577.71 728.606,-583.716"/>
<text text-anchor="middle" x="746" y="-915.5" font-family="Helvetica,sans-Serif" font-size="10.00"> #magic</text>
</g>
<!-- Node10&#45;&gt;Node13 -->
<g id="edge18" class="edge"><title>Node10&#45;&gt;Node13</title>
<path fill="none" stroke="#404040" d="M710.822,-1253.04C695.172,-1234.35 670.368,-1202.97 653.5,-1173 626.908,-1125.74 633.579,-1107.54 607.5,-1060 597.209,-1041.24 584.894,-1021.99 572.48,-1003.99"/>
<polygon fill="none" stroke="#404040" points="572.46,-1003.96 565.744,-1001.33 565.586,-994.12 572.302,-996.747 572.46,-1003.96"/>
<text text-anchor="middle" x="673" y="-1114" font-family="Helvetica,sans-Serif" font-size="10.00"> +money</text>
</g>
<!-- Node10&#45;&gt;Node15 -->
<g id="edge23" class="edge"><title>Node10&#45;&gt;Node15</title>
<path fill="none" stroke="#404040" d="M710.698,-1269.9C651.223,-1269.17 430.822,-1263.08 388.5,-1213 381.799,-1205.07 378.67,-1195.32 377.768,-1185.1"/>
<polygon fill="none" stroke="#404040" points="377.767,-1184.98 373.709,-1179.02 377.651,-1172.98 381.708,-1178.94 377.767,-1184.98"/>
<text text-anchor="middle" x="426" y="-1205" font-family="Helvetica,sans-Serif" font-size="10.00"> &#45;expToNextLevel</text>
<text text-anchor="middle" x="426" y="-1194" font-family="Helvetica,sans-Serif" font-size="10.00">&#45;exp</text>
</g>
<!-- Node11&#45;&gt;Node9 -->
<g id="edge11" class="edge"><title>Node11&#45;&gt;Node9</title>
<path fill="none" stroke="#404040" d="M697.336,-481.104C687.541,-467.879 676.423,-453.568 665.5,-441 651.424,-424.805 635.279,-408.078 620.047,-393.01"/>
<polygon fill="none" stroke="#404040" points="619.778,-392.746 612.693,-391.403 611.208,-384.346 618.293,-385.689 619.778,-392.746"/>
<text text-anchor="middle" x="705" y="-455" font-family="Helvetica,sans-Serif" font-size="10.00"> #special1</text>
<text text-anchor="middle" x="705" y="-444" font-family="Helvetica,sans-Serif" font-size="10.00">#special2</text>
</g>
<!-- Node12&#45;&gt;Node11 -->
<g id="edge12" class="edge"><title>Node12&#45;&gt;Node11</title>
<path fill="none" stroke="midnightblue" d="M626.228,-614.732C643.32,-600.154 662.355,-583.918 679.325,-569.443"/>
<polygon fill="none" stroke="midnightblue" points="623.863,-612.149 618.526,-621.301 628.406,-617.475 623.863,-612.149"/>
</g>
<!-- Node13&#45;&gt;Node12 -->
<g id="edge15" class="edge"><title>Node13&#45;&gt;Node12</title>
<path fill="none" stroke="#404040" d="M529.667,-823.331C537.959,-789.684 547.742,-751.528 557.5,-717 558.135,-714.753 558.797,-712.461 559.478,-710.148"/>
<polygon fill="none" stroke="#404040" points="559.514,-710.026 557.418,-703.126 562.981,-698.537 565.077,-705.437 559.514,-710.026"/>
<text text-anchor="middle" x="580.5" y="-758.5" font-family="Helvetica,sans-Serif" font-size="10.00"> #manager</text>
</g>
<!-- Node14 -->
<g id="node13" class="node"><title>Node14</title>
<polygon fill="none" stroke="#bfbfbf" points="507,-1088 507,-1145 542,-1145 542,-1088 507,-1088"/>
<text text-anchor="middle" x="524.5" y="-1133" font-family="Helvetica,sans-Serif" font-size="10.00">bool</text>
<polyline fill="none" stroke="#bfbfbf" points="507,-1126 542,-1126 "/>
<text text-anchor="middle" x="524.5" y="-1114" font-family="Helvetica,sans-Serif" font-size="10.00"> </text>
<polyline fill="none" stroke="#bfbfbf" points="507,-1107 542,-1107 "/>
<text text-anchor="middle" x="524.5" y="-1095" font-family="Helvetica,sans-Serif" font-size="10.00"> </text>
</g>
<!-- Node14&#45;&gt;Node13 -->
<g id="edge19" class="edge"><title>Node14&#45;&gt;Node13</title>
<path fill="none" stroke="#404040" d="M519.142,-1087.68C516.712,-1073.98 514.042,-1057.18 512.5,-1042 511.929,-1036.38 511.423,-1030.61 510.974,-1024.79"/>
<polygon fill="none" stroke="#404040" points="510.971,-1024.74 506.561,-1019.03 510.131,-1012.77 514.541,-1018.47 510.971,-1024.74"/>
<text text-anchor="middle" x="545.5" y="-1034" font-family="Helvetica,sans-Serif" font-size="10.00"> &#45;wasCriticalHit</text>
</g>
<!-- Node15&#45;&gt;Node13 -->
<g id="edge20" class="edge"><title>Node15&#45;&gt;Node13</title>
<path fill="none" stroke="#404040" d="M416.67,-1060.27C421.289,-1050.37 426.323,-1040.27 431.5,-1031 435.11,-1024.54 438.982,-1017.97 442.997,-1011.42"/>
<polygon fill="none" stroke="#404040" points="443.048,-1011.34 442.835,-1004.13 449.407,-1001.16 449.62,-1008.37 443.048,-1011.34"/>
<text text-anchor="middle" x="448" y="-1034" font-family="Helvetica,sans-Serif" font-size="10.00"> &#45;player</text>
</g>
</g>
</svg>
        <g id="navigator" transform="translate(0 0)" fill="#404254">
                <rect fill="#f2f5e9" fill-opacity="0.5" stroke="#606060" stroke-width=".5" x="0" y="0" width="60" height="60"/>
                <use id="zoomplus" xlink:href="#zoomPlus" x="17" y="9" onmousedown="handleZoom(evt,'in')"/>
                <use id="zoomminus" xlink:href="#zoomMin" x="42" y="9" onmousedown="handleZoom(evt,'out')"/>
                <use id="reset" xlink:href="#resetDef" x="30" y="36" onmousedown="handleReset()"/>
                <g id="arrowUp" xlink:href="#dirArrow" transform="translate(30 24)" onmousedown="handlePan(0,-1)">
                  <use xlink:href="#rim" fill="#404040">
                        <set attributeName="fill" to="#808080" begin="arrowUp.mouseover" end="arrowUp.mouseout"/>
                  </use>
                  <path fill="none" stroke="white" stroke-width="1.5" d="M0,-3.0v7 M-2.5,-0.5L0,-3.0L2.5,-0.5"/>
                </g>
                <g id="arrowRight" xlink:href="#dirArrow" transform="rotate(90) translate(36 -43)" onmousedown="handlePan(1,0)">
                  <use xlink:href="#rim" fill="#404040">
                        <set attributeName="fill" to="#808080" begin="arrowRight.mouseover" end="arrowRight.mouseout"/>
                  </use>
                  <path fill="none" stroke="white" stroke-width="1.5" d="M0,-3.0v7 M-2.5,-0.5L0,-3.0L2.5,-0.5"/>
                </g>
                <g id="arrowDown" xlink:href="#dirArrow" transform="rotate(180) translate(-30 -48)" onmousedown="handlePan(0,1)">
                  <use xlink:href="#rim" fill="#404040">
                        <set attributeName="fill" to="#808080" begin="arrowDown.mouseover" end="arrowDown.mouseout"/>
                  </use>
                  <path fill="none" stroke="white" stroke-width="1.5" d="M0,-3.0v7 M-2.5,-0.5L0,-3.0L2.5,-0.5"/>
                </g>
                <g id="arrowLeft" xlink:href="#dirArrow" transform="rotate(270) translate(-36 17)" onmousedown="handlePan(-1,0)">
                  <use xlink:href="#rim" fill="#404040">
                        <set attributeName="fill" to="#808080" begin="arrowLeft.mouseover" end="arrowLeft.mouseout"/>
                  </use>
                  <path fill="none" stroke="white" stroke-width="1.5" d="M0,-3.0v7 M-2.5,-0.5L0,-3.0L2.5,-0.5"/>
                </g>
        </g>
        <svg viewBox="0 0 15 15" width="100%" height="30px" preserveAspectRatio="xMaxYMin meet">
         <g id="arrow_out" transform="scale(0.3 0.3)">
          <a xlink:href="class_global_functions__coll__graph_org.svg" target="_base">
           <rect id="button" ry="5" rx="5" y="6" x="6" height="38" width="38"
                fill="#f2f5e9" fill-opacity="0.5" stroke="#606060" stroke-width="1.0"/>
           <path id="arrow"
             d="M 11.500037,31.436501 C 11.940474,20.09759 22.043105,11.32322 32.158766,21.979434 L 37.068811,17.246167 C 37.068811,17.246167 37.088388,32 37.088388,32 L 22.160133,31.978069 C 22.160133,31.978069 26.997745,27.140456 26.997745,27.140456 C 18.528582,18.264221 13.291696,25.230495 11.500037,31.436501 z"
             style="fill:#404040;"/>
          </a>
         </g>
        </svg>
</svg>
