<?xml version="1.0" encoding="UTF-8" standalone="no"?>
<!DOCTYPE svg PUBLIC "-//W3C//DTD SVG 1.1//EN"
 "http://www.w3.org/Graphics/SVG/1.1/DTD/svg11.dtd">
<!-- Generated by graphviz version 2.38.0 (20140413.2041)
 -->
<!-- Title: StandardAttack Pages: 1 -->
<!--zoomable 1024 -->
<svg id="main" version="1.1" xmlns="http://www.w3.org/2000/svg" xmlns:xlink="http://www.w3.org/1999/xlink" xml:space="preserve" onload="init(evt)">
<style type="text/css"><![CDATA[
.edge:hover path { stroke: red; }
.edge:hover polygon { stroke: red; fill: red; }
]]></style>
<script type="text/javascript"><![CDATA[
var edges = document.getElementsByTagName('g');
if (edges && edges.length) {
  for (var i=0;i<edges.length;i++) {
    if (edges[i].id.substr(0,4)=='edge') {
      edges[i].setAttribute('class','edge');
    }
  }
}
]]></script>
        <defs>
                <circle id="rim" cx="0" cy="0" r="7"/>
                <circle id="rim2" cx="0" cy="0" r="3.5"/>
                <g id="zoomPlus">
                        <use xlink:href="#rim" fill="#404040">
                                <set attributeName="fill" to="#808080" begin="zoomplus.mouseover" end="zoomplus.mouseout"/>
                        </use>
                        <path d="M-4,0h8M0,-4v8" fill="none" stroke="white" stroke-width="1.5" pointer-events="none"/>
                </g>
                <g id="zoomMin">
                        <use xlink:href="#rim" fill="#404040">
                                <set attributeName="fill" to="#808080" begin="zoomminus.mouseover" end="zoomminus.mouseout"/>
                        </use>
                        <path d="M-4,0h8" fill="none" stroke="white" stroke-width="1.5" pointer-events="none"/>
                </g>
                <g id="dirArrow">
                        <path fill="none" stroke="white" stroke-width="1.5" d="M0,-3.0v7 M-2.5,-0.5L0,-3.0L2.5,-0.5"/>
                </g>
               <g id="resetDef">
                       <use xlink:href="#rim2" fill="#404040">
                               <set attributeName="fill" to="#808080" begin="reset.mouseover" end="reset.mouseout"/>
                       </use>
               </g>
        </defs>

<script type="text/javascript">
var viewWidth = 825;
var viewHeight = 1024;
var sectionId = 'dynsection-1';
</script>
<script xlink:href="svgpan.js"/>
<svg id="graph" class="graph">
<g id="viewport">
<title>StandardAttack</title>
<!-- Node2 -->
<g id="node1" class="node"><title>Node2</title>
<polygon fill="#bfbfbf" stroke="black" points="345.5,-624.5 345.5,-692.5 444.5,-692.5 444.5,-624.5 345.5,-624.5"/>
<text text-anchor="middle" x="395" y="-680.5" font-family="Helvetica,sans-Serif" font-size="10.00">StandardAttack</text>
<polyline fill="none" stroke="black" points="345.5,-673.5 444.5,-673.5 "/>
<text text-anchor="middle" x="395" y="-661.5" font-family="Helvetica,sans-Serif" font-size="10.00"> </text>
<polyline fill="none" stroke="black" points="345.5,-654.5 444.5,-654.5 "/>
<text text-anchor="start" x="353.5" y="-642.5" font-family="Helvetica,sans-Serif" font-size="10.00">+ StandardAttack()</text>
<text text-anchor="start" x="353.5" y="-631.5" font-family="Helvetica,sans-Serif" font-size="10.00">+ performMove()</text>
</g>
<!-- Node3 -->
<g id="node2" class="node"><title>Node3</title>
<g id="a_node2"><a xlink:href="class_character_move.html" target="_top" xlink:title="Astract base class for character moves ">
<polygon fill="none" stroke="black" points="104,-820.5 104,-899.5 190,-899.5 190,-820.5 104,-820.5"/>
<text text-anchor="middle" x="147" y="-887.5" font-family="Helvetica,sans-Serif" font-size="10.00">CharacterMove</text>
<polyline fill="none" stroke="black" points="104,-880.5 190,-880.5 "/>
<text text-anchor="start" x="112" y="-868.5" font-family="Helvetica,sans-Serif" font-size="10.00">+ User</text>
<text text-anchor="start" x="112" y="-857.5" font-family="Helvetica,sans-Serif" font-size="10.00">+ Target</text>
<text text-anchor="start" x="112" y="-846.5" font-family="Helvetica,sans-Serif" font-size="10.00">+ Text</text>
<polyline fill="none" stroke="black" points="104,-839.5 190,-839.5 "/>
<text text-anchor="start" x="112" y="-827.5" font-family="Helvetica,sans-Serif" font-size="10.00">+ performMove()</text>
</a>
</g>
</g>
<!-- Node3&#45;&gt;Node2 -->
<g id="edge1" class="edge"><title>Node3&#45;&gt;Node2</title>
<path fill="none" stroke="midnightblue" d="M177.79,-811.723C203.417,-772.438 235.898,-722.818 237,-722 259.702,-705.159 271.531,-713.919 298,-704 313.615,-698.149 330.239,-690.912 345.234,-683.986"/>
<polygon fill="none" stroke="midnightblue" points="174.641,-810.146 172.11,-820.434 180.504,-813.969 174.641,-810.146"/>
</g>
<!-- Node7 -->
<g id="node6" class="node"><title>Node7</title>
<g id="a_node6"><a xlink:href="class_special_move.html" target="_top" xlink:title="Special move abstract base class that expands upon CharacterMove, adding magic properties ...">
<polygon fill="none" stroke="black" points="191,-613.5 191,-703.5 289,-703.5 289,-613.5 191,-613.5"/>
<text text-anchor="middle" x="240" y="-691.5" font-family="Helvetica,sans-Serif" font-size="10.00">SpecialMove</text>
<polyline fill="none" stroke="black" points="191,-684.5 289,-684.5 "/>
<text text-anchor="start" x="199" y="-672.5" font-family="Helvetica,sans-Serif" font-size="10.00">+ Magic</text>
<text text-anchor="start" x="199" y="-661.5" font-family="Helvetica,sans-Serif" font-size="10.00">+ Desc</text>
<polyline fill="none" stroke="black" points="191,-654.5 289,-654.5 "/>
<text text-anchor="start" x="199" y="-642.5" font-family="Helvetica,sans-Serif" font-size="10.00">+ setUp()</text>
<text text-anchor="start" x="199" y="-631.5" font-family="Helvetica,sans-Serif" font-size="10.00">+ decreaseMagic()</text>
<text text-anchor="start" x="199" y="-620.5" font-family="Helvetica,sans-Serif" font-size="10.00"># SpecialMove()</text>
</a>
</g>
</g>
<!-- Node3&#45;&gt;Node7 -->
<g id="edge7" class="edge"><title>Node3&#45;&gt;Node7</title>
<path fill="none" stroke="midnightblue" d="M154.432,-810.233C159.947,-783.089 169.152,-749.361 184,-722 187.405,-715.725 191.558,-709.563 196.048,-703.7"/>
<polygon fill="none" stroke="midnightblue" points="150.951,-809.805 152.495,-820.286 157.824,-811.129 150.951,-809.805"/>
</g>
<!-- Node4 -->
<g id="node3" class="node"><title>Node4</title>
<polygon fill="none" stroke="#bfbfbf" points="205.5,-958.5 205.5,-1015.5 246.5,-1015.5 246.5,-958.5 205.5,-958.5"/>
<text text-anchor="middle" x="226" y="-1003.5" font-family="Helvetica,sans-Serif" font-size="10.00">string</text>
<polyline fill="none" stroke="#bfbfbf" points="205.5,-996.5 246.5,-996.5 "/>
<text text-anchor="middle" x="226" y="-984.5" font-family="Helvetica,sans-Serif" font-size="10.00"> </text>
<polyline fill="none" stroke="#bfbfbf" points="205.5,-977.5 246.5,-977.5 "/>
<text text-anchor="middle" x="226" y="-965.5" font-family="Helvetica,sans-Serif" font-size="10.00"> </text>
</g>
<!-- Node4&#45;&gt;Node3 -->
<g id="edge2" class="edge"><title>Node4&#45;&gt;Node3</title>
<path fill="none" stroke="#404040" d="M205.452,-963.903C199.147,-956.58 192.443,-948.2 187,-940 180.947,-930.88 175.166,-920.722 169.975,-910.808"/>
<polygon fill="none" stroke="#404040" points="169.813,-910.489 163.531,-906.949 164.382,-899.788 170.664,-903.328 169.813,-910.489"/>
<text text-anchor="middle" x="199.5" y="-926.5" font-family="Helvetica,sans-Serif" font-size="10.00"> #text</text>
</g>
<!-- Node5 -->
<g id="node4" class="node"><title>Node5</title>
<g id="a_node4"><a xlink:href="class_character.html" target="_top" xlink:title="Base abstract class for Enemy and Player to inherit from. Defines all shared variables, their constructor and their setters and getters ">
<polygon fill="none" stroke="black" points="318.5,-387.5 318.5,-554.5 413.5,-554.5 413.5,-387.5 318.5,-387.5"/>
<text text-anchor="middle" x="366" y="-542.5" font-family="Helvetica,sans-Serif" font-size="10.00">Character</text>
<polyline fill="none" stroke="black" points="318.5,-535.5 413.5,-535.5 "/>
<text text-anchor="start" x="326.5" y="-523.5" font-family="Helvetica,sans-Serif" font-size="10.00">+ Name</text>
<text text-anchor="start" x="326.5" y="-512.5" font-family="Helvetica,sans-Serif" font-size="10.00">+ Level</text>
<text text-anchor="start" x="326.5" y="-501.5" font-family="Helvetica,sans-Serif" font-size="10.00">+ Health</text>
<text text-anchor="start" x="326.5" y="-490.5" font-family="Helvetica,sans-Serif" font-size="10.00">+ Attack</text>
<text text-anchor="start" x="326.5" y="-479.5" font-family="Helvetica,sans-Serif" font-size="10.00">+ Defence</text>
<text text-anchor="start" x="326.5" y="-468.5" font-family="Helvetica,sans-Serif" font-size="10.00">+ MaximumMagic</text>
<text text-anchor="start" x="326.5" y="-457.5" font-family="Helvetica,sans-Serif" font-size="10.00">+ Magic</text>
<text text-anchor="start" x="326.5" y="-446.5" font-family="Helvetica,sans-Serif" font-size="10.00">+ Luck</text>
<text text-anchor="start" x="326.5" y="-435.5" font-family="Helvetica,sans-Serif" font-size="10.00">+ Speed</text>
<text text-anchor="start" x="326.5" y="-424.5" font-family="Helvetica,sans-Serif" font-size="10.00">+ Special1</text>
<text text-anchor="start" x="326.5" y="-413.5" font-family="Helvetica,sans-Serif" font-size="10.00">+ Special2</text>
<polyline fill="none" stroke="black" points="318.5,-406.5 413.5,-406.5 "/>
<text text-anchor="start" x="326.5" y="-394.5" font-family="Helvetica,sans-Serif" font-size="10.00"># Character()</text>
</a>
</g>
</g>
<!-- Node4&#45;&gt;Node5 -->
<g id="edge4" class="edge"><title>Node4&#45;&gt;Node5</title>
<path fill="none" stroke="#404040" d="M240.687,-958.239C249.1,-941.639 259.452,-919.958 267,-900 283.025,-857.631 284.008,-845.945 295,-802 297.898,-790.415 325.899,-659.755 345.855,-566.378"/>
<polygon fill="none" stroke="#404040" points="345.861,-566.349 343.203,-559.645 348.369,-554.613 351.027,-561.317 345.861,-566.349"/>
<text text-anchor="middle" x="329.5" y="-759.5" font-family="Helvetica,sans-Serif" font-size="10.00"> #name</text>
</g>
<!-- Node4&#45;&gt;Node7 -->
<g id="edge8" class="edge"><title>Node4&#45;&gt;Node7</title>
<path fill="none" stroke="#404040" d="M227.182,-958.444C229.47,-905.072 234.548,-786.641 237.581,-715.913"/>
<polygon fill="none" stroke="#404040" points="237.59,-715.703 233.851,-709.537 238.104,-703.714 241.843,-709.88 237.59,-715.703"/>
<text text-anchor="middle" x="248" y="-857.5" font-family="Helvetica,sans-Serif" font-size="10.00"> #desc</text>
</g>
<!-- Node8 -->
<g id="node7" class="node"><title>Node8</title>
<g id="a_node7"><a xlink:href="class_battle_manager.html" target="_top" xlink:title="{BattleManager\n|+ Player\l+ Enemy\l+ WasCriticalHit\l|+ BattleManager()\l+ playerFirst()\l+ switchPlayers()\l+ isCriticalHit()\l+ ranAway()\l+ damageCalculation()\l+ enemyMove()\l+ enemySpecialMove()\l+ battleWon()\l+ playerFainted()\l&#45; characterFainted()\l}">
<polygon fill="none" stroke="black" points="504,-0.5 504,-189.5 620,-189.5 620,-0.5 504,-0.5"/>
<text text-anchor="middle" x="562" y="-177.5" font-family="Helvetica,sans-Serif" font-size="10.00">BattleManager</text>
<polyline fill="none" stroke="black" points="504,-170.5 620,-170.5 "/>
<text text-anchor="start" x="512" y="-158.5" font-family="Helvetica,sans-Serif" font-size="10.00">+ Player</text>
<text text-anchor="start" x="512" y="-147.5" font-family="Helvetica,sans-Serif" font-size="10.00">+ Enemy</text>
<text text-anchor="start" x="512" y="-136.5" font-family="Helvetica,sans-Serif" font-size="10.00">+ WasCriticalHit</text>
<polyline fill="none" stroke="black" points="504,-129.5 620,-129.5 "/>
<text text-anchor="start" x="512" y="-117.5" font-family="Helvetica,sans-Serif" font-size="10.00">+ BattleManager()</text>
<text text-anchor="start" x="512" y="-106.5" font-family="Helvetica,sans-Serif" font-size="10.00">+ playerFirst()</text>
<text text-anchor="start" x="512" y="-95.5" font-family="Helvetica,sans-Serif" font-size="10.00">+ switchPlayers()</text>
<text text-anchor="start" x="512" y="-84.5" font-family="Helvetica,sans-Serif" font-size="10.00">+ isCriticalHit()</text>
<text text-anchor="start" x="512" y="-73.5" font-family="Helvetica,sans-Serif" font-size="10.00">+ ranAway()</text>
<text text-anchor="start" x="512" y="-62.5" font-family="Helvetica,sans-Serif" font-size="10.00">+ damageCalculation()</text>
<text text-anchor="start" x="512" y="-51.5" font-family="Helvetica,sans-Serif" font-size="10.00">+ enemyMove()</text>
<text text-anchor="start" x="512" y="-40.5" font-family="Helvetica,sans-Serif" font-size="10.00">+ enemySpecialMove()</text>
<text text-anchor="start" x="512" y="-29.5" font-family="Helvetica,sans-Serif" font-size="10.00">+ battleWon()</text>
<text text-anchor="start" x="512" y="-18.5" font-family="Helvetica,sans-Serif" font-size="10.00">+ playerFainted()</text>
<text text-anchor="start" x="512" y="-7.5" font-family="Helvetica,sans-Serif" font-size="10.00">&#45; characterFainted()</text>
</a>
</g>
</g>
<!-- Node4&#45;&gt;Node8 -->
<g id="edge11" class="edge"><title>Node4&#45;&gt;Node8</title>
<path fill="none" stroke="#404040" d="M205.144,-984.301C149.195,-978.493 0,-954.262 0,-861 0,-861 0,-861 0,-292.5 0,-189.451 340.944,-127.72 491.72,-105.458"/>
<polygon fill="none" stroke="#404040" points="492.098,-105.403 497.459,-100.581 503.973,-103.675 498.612,-108.497 492.098,-105.403"/>
<text text-anchor="middle" x="39" y="-581.5" font-family="Helvetica,sans-Serif" font-size="10.00"> +forceCriticalHits</text>
</g>
<!-- Node12 -->
<g id="node11" class="node"><title>Node12</title>
<g id="a_node11"><a xlink:href="class_item.html" target="_top" xlink:title="{Item\n|+ Name\l+ Desc\l|+ applyBuffs()\l+ revertBuffs()\l}">
<polygon fill="none" stroke="black" points="730.5,-722.5 730.5,-801.5 807.5,-801.5 807.5,-722.5 730.5,-722.5"/>
<text text-anchor="middle" x="769" y="-789.5" font-family="Helvetica,sans-Serif" font-size="10.00">Item</text>
<polyline fill="none" stroke="black" points="730.5,-782.5 807.5,-782.5 "/>
<text text-anchor="start" x="738.5" y="-770.5" font-family="Helvetica,sans-Serif" font-size="10.00">+ Name</text>
<text text-anchor="start" x="738.5" y="-759.5" font-family="Helvetica,sans-Serif" font-size="10.00">+ Desc</text>
<polyline fill="none" stroke="black" points="730.5,-752.5 807.5,-752.5 "/>
<text text-anchor="start" x="738.5" y="-740.5" font-family="Helvetica,sans-Serif" font-size="10.00">+ applyBuffs()</text>
<text text-anchor="start" x="738.5" y="-729.5" font-family="Helvetica,sans-Serif" font-size="10.00">+ revertBuffs()</text>
</a>
</g>
</g>
<!-- Node4&#45;&gt;Node12 -->
<g id="edge20" class="edge"><title>Node4&#45;&gt;Node12</title>
<path fill="none" stroke="#404040" d="M246.701,-982.6C299.64,-973.485 443.694,-946.024 556,-900 633.072,-868.415 653.705,-854.624 720.646,-805.805"/>
<polygon fill="none" stroke="#404040" points="720.717,-805.753 723.205,-798.985 730.409,-798.678 727.921,-805.446 720.717,-805.753"/>
<text text-anchor="middle" x="522" y="-932" font-family="Helvetica,sans-Serif" font-size="10.00"> #desc</text>
<text text-anchor="middle" x="522" y="-921" font-family="Helvetica,sans-Serif" font-size="10.00">#name</text>
</g>
<!-- Node5&#45;&gt;Node3 -->
<g id="edge3" class="edge"><title>Node5&#45;&gt;Node3</title>
<path fill="none" stroke="#404040" d="M318.369,-487.329C265.88,-507.075 184.113,-546.955 148,-613 114.804,-673.71 123.225,-756.104 133.882,-808.421"/>
<polygon fill="none" stroke="#404040" points="133.935,-808.667 139.111,-813.688 136.468,-820.397 131.291,-815.376 133.935,-808.667"/>
<text text-anchor="middle" x="165" y="-661.5" font-family="Helvetica,sans-Serif" font-size="10.00"> #target</text>
<text text-anchor="middle" x="165" y="-650.5" font-family="Helvetica,sans-Serif" font-size="10.00">#user</text>
</g>
<!-- Node9 -->
<g id="node8" class="node"><title>Node9</title>
<g id="a_node8"><a xlink:href="class_enemy.html" target="_top" xlink:title="Defines an AI controller enemy to fight in battle scenes">
<polygon fill="none" stroke="black" points="480.5,-265 480.5,-322 547.5,-322 547.5,-265 480.5,-265"/>
<text text-anchor="middle" x="514" y="-310" font-family="Helvetica,sans-Serif" font-size="10.00">Enemy</text>
<polyline fill="none" stroke="black" points="480.5,-303 547.5,-303 "/>
<text text-anchor="start" x="488.5" y="-291" font-family="Helvetica,sans-Serif" font-size="10.00">+ ExpGiven</text>
<polyline fill="none" stroke="black" points="480.5,-284 547.5,-284 "/>
<text text-anchor="start" x="488.5" y="-272" font-family="Helvetica,sans-Serif" font-size="10.00">+ Enemy()</text>
</a>
</g>
</g>
<!-- Node5&#45;&gt;Node9 -->
<g id="edge13" class="edge"><title>Node5&#45;&gt;Node9</title>
<path fill="none" stroke="midnightblue" d="M420.364,-405.534C444.511,-376.901 471.664,-344.702 490.488,-322.381"/>
<polygon fill="none" stroke="midnightblue" points="417.414,-403.604 413.643,-413.505 422.765,-408.116 417.414,-403.604"/>
</g>
<!-- Node11 -->
<g id="node10" class="node"><title>Node11</title>
<g id="a_node10"><a xlink:href="class_player.html" target="_top" xlink:title="Defines a playable character for use in battle scenes">
<polygon fill="none" stroke="black" points="566,-237.5 566,-349.5 678,-349.5 678,-237.5 566,-237.5"/>
<text text-anchor="middle" x="622" y="-337.5" font-family="Helvetica,sans-Serif" font-size="10.00">Player</text>
<polyline fill="none" stroke="black" points="566,-330.5 678,-330.5 "/>
<text text-anchor="start" x="574" y="-318.5" font-family="Helvetica,sans-Serif" font-size="10.00">+ Exp</text>
<text text-anchor="start" x="574" y="-307.5" font-family="Helvetica,sans-Serif" font-size="10.00">+ Item</text>
<text text-anchor="start" x="574" y="-296.5" font-family="Helvetica,sans-Serif" font-size="10.00">+ ExpToNextLevel</text>
<polyline fill="none" stroke="black" points="566,-289.5 678,-289.5 "/>
<text text-anchor="start" x="574" y="-277.5" font-family="Helvetica,sans-Serif" font-size="10.00">+ Player()</text>
<text text-anchor="start" x="574" y="-266.5" font-family="Helvetica,sans-Serif" font-size="10.00">+ gainExp()</text>
<text text-anchor="start" x="574" y="-255.5" font-family="Helvetica,sans-Serif" font-size="10.00">+ levelUp()</text>
<text text-anchor="start" x="574" y="-244.5" font-family="Helvetica,sans-Serif" font-size="10.00">&#45; setExpToNextLevel()</text>
</a>
</g>
</g>
<!-- Node5&#45;&gt;Node11 -->
<g id="edge18" class="edge"><title>Node5&#45;&gt;Node11</title>
<path fill="none" stroke="midnightblue" d="M422.625,-437.388C461.399,-414.349 513.473,-381.992 557,-350 559.87,-347.891 562.772,-345.689 565.677,-343.431"/>
<polygon fill="none" stroke="midnightblue" points="420.394,-434.641 413.568,-442.744 423.957,-440.667 420.394,-434.641"/>
</g>
<!-- Node6 -->
<g id="node5" class="node"><title>Node6</title>
<polygon fill="none" stroke="#bfbfbf" points="517.5,-831.5 517.5,-888.5 546.5,-888.5 546.5,-831.5 517.5,-831.5"/>
<text text-anchor="middle" x="532" y="-876.5" font-family="Helvetica,sans-Serif" font-size="10.00">int</text>
<polyline fill="none" stroke="#bfbfbf" points="517.5,-869.5 546.5,-869.5 "/>
<text text-anchor="middle" x="532" y="-857.5" font-family="Helvetica,sans-Serif" font-size="10.00"> </text>
<polyline fill="none" stroke="#bfbfbf" points="517.5,-850.5 546.5,-850.5 "/>
<text text-anchor="middle" x="532" y="-838.5" font-family="Helvetica,sans-Serif" font-size="10.00"> </text>
</g>
<!-- Node6&#45;&gt;Node2 -->
<g id="edge22" class="edge"><title>Node6&#45;&gt;Node2</title>
<path fill="none" stroke="#404040" d="M517.458,-854.4C496.135,-846.902 456.581,-830.003 435,-802 413.356,-773.915 403.424,-734.705 398.865,-704.523"/>
<polygon fill="none" stroke="#404040" points="398.864,-704.508 394.103,-699.092 397.271,-692.614 402.032,-698.03 398.864,-704.508"/>
<text text-anchor="middle" x="451" y="-759.5" font-family="Helvetica,sans-Serif" font-size="10.00"> &#45;power</text>
</g>
<!-- Node6&#45;&gt;Node5 -->
<g id="edge5" class="edge"><title>Node6&#45;&gt;Node5</title>
<path fill="none" stroke="#404040" d="M525.435,-831.251C513.938,-784.815 488.01,-688.979 453,-613 443.562,-592.517 431.743,-571.354 419.889,-551.849"/>
<polygon fill="none" stroke="#404040" points="419.809,-551.719 413.254,-548.713 413.507,-541.507 420.062,-544.512 419.809,-551.719"/>
<text text-anchor="middle" x="525.5" y="-694.5" font-family="Helvetica,sans-Serif" font-size="10.00"> #speed</text>
<text text-anchor="middle" x="525.5" y="-683.5" font-family="Helvetica,sans-Serif" font-size="10.00">#luck</text>
<text text-anchor="middle" x="525.5" y="-672.5" font-family="Helvetica,sans-Serif" font-size="10.00">#health</text>
<text text-anchor="middle" x="525.5" y="-661.5" font-family="Helvetica,sans-Serif" font-size="10.00">#magic</text>
<text text-anchor="middle" x="525.5" y="-650.5" font-family="Helvetica,sans-Serif" font-size="10.00">#maximumMagic</text>
<text text-anchor="middle" x="525.5" y="-639.5" font-family="Helvetica,sans-Serif" font-size="10.00">#attack</text>
<text text-anchor="middle" x="525.5" y="-628.5" font-family="Helvetica,sans-Serif" font-size="10.00">#defence</text>
<text text-anchor="middle" x="525.5" y="-617.5" font-family="Helvetica,sans-Serif" font-size="10.00">#level</text>
</g>
<!-- Node6&#45;&gt;Node7 -->
<g id="edge9" class="edge"><title>Node6&#45;&gt;Node7</title>
<path fill="none" stroke="#404040" d="M517.475,-858.097C466.331,-854.606 295.753,-840.238 260,-802 248.413,-789.608 243.491,-750.254 241.424,-716.035"/>
<polygon fill="none" stroke="#404040" points="241.407,-715.704 237.101,-709.92 240.784,-703.72 245.09,-709.505 241.407,-715.704"/>
<text text-anchor="middle" x="277.5" y="-759.5" font-family="Helvetica,sans-Serif" font-size="10.00"> #magic</text>
</g>
<!-- Node6&#45;&gt;Node8 -->
<g id="edge15" class="edge"><title>Node6&#45;&gt;Node8</title>
<path fill="none" stroke="#404040" d="M543.084,-831.275C545.579,-827.144 548.537,-823.204 552,-820 567.206,-805.928 580.133,-816.43 595,-802 667.504,-731.626 667.628,-693.755 689,-595 722.656,-439.487 743.89,-385.596 687,-237 674.813,-205.169 651.841,-175.892 628.882,-152.364"/>
<polygon fill="none" stroke="#404040" points="628.613,-152.096 621.538,-150.701 620.105,-143.634 627.18,-145.029 628.613,-152.096"/>
<text text-anchor="middle" x="741.5" y="-468.5" font-family="Helvetica,sans-Serif" font-size="10.00"> +money</text>
</g>
<!-- Node6&#45;&gt;Node9 -->
<g id="edge14" class="edge"><title>Node6&#45;&gt;Node9</title>
<path fill="none" stroke="#404040" d="M540.211,-831.316C548.874,-800.552 561.956,-749.239 567,-704 571.482,-663.805 579.444,-651.483 567,-613 563.964,-603.61 557.65,-604.168 554,-595 518.813,-506.624 513.373,-393.253 513.215,-334.231"/>
<polygon fill="none" stroke="#404040" points="513.215,-334.148 509.236,-328.134 513.256,-322.148 517.236,-328.161 513.215,-334.148"/>
<text text-anchor="middle" x="577" y="-581.5" font-family="Helvetica,sans-Serif" font-size="10.00"> &#45;expGiven</text>
</g>
<!-- Node6&#45;&gt;Node11 -->
<g id="edge21" class="edge"><title>Node6&#45;&gt;Node11</title>
<path fill="none" stroke="#404040" d="M544.953,-831.088C547.122,-827.248 549.491,-823.444 552,-820 558.662,-810.856 564.93,-812.114 570,-802 607.854,-726.484 618.167,-481.742 620.965,-361.886"/>
<polygon fill="none" stroke="#404040" points="620.97,-361.64 617.104,-355.554 621.235,-349.643 625.102,-355.73 620.97,-361.64"/>
<text text-anchor="middle" x="647.5" y="-587" font-family="Helvetica,sans-Serif" font-size="10.00"> &#45;expToNextLevel</text>
<text text-anchor="middle" x="647.5" y="-576" font-family="Helvetica,sans-Serif" font-size="10.00">&#45;exp</text>
</g>
<!-- Node7&#45;&gt;Node5 -->
<g id="edge6" class="edge"><title>Node7&#45;&gt;Node5</title>
<path fill="none" stroke="#404040" d="M244.252,-613.123C246.885,-599.617 251.137,-585.144 258,-573 270.754,-550.432 290.249,-529.954 309.184,-513.428"/>
<polygon fill="none" stroke="#404040" points="309.235,-513.384 311.237,-506.457 318.402,-505.64 316.4,-512.568 309.235,-513.384"/>
<text text-anchor="middle" x="280.5" y="-587" font-family="Helvetica,sans-Serif" font-size="10.00"> #special1</text>
<text text-anchor="middle" x="280.5" y="-576" font-family="Helvetica,sans-Serif" font-size="10.00">#special2</text>
</g>
<!-- Node8&#45;&gt;Node3 -->
<g id="edge10" class="edge"><title>Node8&#45;&gt;Node3</title>
<path fill="none" stroke="#404040" d="M503.549,-107.621C377.825,-134.294 93,-204.439 93,-292.5 93,-659.5 93,-659.5 93,-659.5 93,-724.044 101.25,-740.552 121,-802 121.724,-804.252 122.512,-806.533 123.349,-808.822"/>
<polygon fill="none" stroke="#404040" points="123.448,-809.072 129.375,-813.179 127.863,-820.23 121.936,-816.123 123.448,-809.072"/>
<text text-anchor="middle" x="116" y="-468.5" font-family="Helvetica,sans-Serif" font-size="10.00"> #manager</text>
</g>
<!-- Node9&#45;&gt;Node8 -->
<g id="edge12" class="edge"><title>Node9&#45;&gt;Node8</title>
<path fill="none" stroke="#404040" d="M520.775,-264.763C524.909,-247.839 530.485,-225.016 536.197,-201.632"/>
<polygon fill="none" stroke="#404040" points="536.25,-201.414 533.788,-194.637 539.097,-189.757 541.559,-196.535 536.25,-201.414"/>
<text text-anchor="middle" x="552" y="-211" font-family="Helvetica,sans-Serif" font-size="10.00"> &#45;enemy</text>
</g>
<!-- Node10 -->
<g id="node9" class="node"><title>Node10</title>
<polygon fill="none" stroke="#bfbfbf" points="737.5,-265 737.5,-322 772.5,-322 772.5,-265 737.5,-265"/>
<text text-anchor="middle" x="755" y="-310" font-family="Helvetica,sans-Serif" font-size="10.00">bool</text>
<polyline fill="none" stroke="#bfbfbf" points="737.5,-303 772.5,-303 "/>
<text text-anchor="middle" x="755" y="-291" font-family="Helvetica,sans-Serif" font-size="10.00"> </text>
<polyline fill="none" stroke="#bfbfbf" points="737.5,-284 772.5,-284 "/>
<text text-anchor="middle" x="755" y="-272" font-family="Helvetica,sans-Serif" font-size="10.00"> </text>
</g>
<!-- Node10&#45;&gt;Node8 -->
<g id="edge16" class="edge"><title>Node10&#45;&gt;Node8</title>
<path fill="none" stroke="#404040" d="M749.041,-264.903C744.213,-247.283 736.026,-224.697 723,-208 698.35,-176.403 662.336,-150.186 630.616,-131.081"/>
<polygon fill="none" stroke="#404040" points="630.396,-130.951 623.196,-131.364 620.047,-124.877 627.246,-124.464 630.396,-130.951"/>
<text text-anchor="middle" x="762" y="-211" font-family="Helvetica,sans-Serif" font-size="10.00"> &#45;wasCriticalHit</text>
</g>
<!-- Node11&#45;&gt;Node8 -->
<g id="edge17" class="edge"><title>Node11&#45;&gt;Node8</title>
<path fill="none" stroke="#404040" d="M605.127,-237.241C601.651,-225.856 597.881,-213.511 594.067,-201.02"/>
<polygon fill="none" stroke="#404040" points="594.063,-201.007 588.485,-196.437 590.559,-189.53 596.137,-194.101 594.063,-201.007"/>
<text text-anchor="middle" x="615.5" y="-211" font-family="Helvetica,sans-Serif" font-size="10.00"> &#45;player</text>
</g>
<!-- Node12&#45;&gt;Node11 -->
<g id="edge19" class="edge"><title>Node12&#45;&gt;Node11</title>
<path fill="none" stroke="#404040" d="M777.702,-722.274C791.574,-650.952 811.476,-496.156 752,-387 737.915,-361.151 713.121,-340.822 688.937,-325.886"/>
<polygon fill="none" stroke="#404040" points="688.617,-325.697 681.417,-326.1 678.277,-319.608 685.477,-319.206 688.617,-325.697"/>
<text text-anchor="middle" x="804.5" y="-581.5" font-family="Helvetica,sans-Serif" font-size="10.00"> &#45;item</text>
</g>
</g>
</svg>
        <g id="navigator" transform="translate(0 0)" fill="#404254">
                <rect fill="#f2f5e9" fill-opacity="0.5" stroke="#606060" stroke-width=".5" x="0" y="0" width="60" height="60"/>
                <use id="zoomplus" xlink:href="#zoomPlus" x="17" y="9" onmousedown="handleZoom(evt,'in')"/>
                <use id="zoomminus" xlink:href="#zoomMin" x="42" y="9" onmousedown="handleZoom(evt,'out')"/>
                <use id="reset" xlink:href="#resetDef" x="30" y="36" onmousedown="handleReset()"/>
                <g id="arrowUp" xlink:href="#dirArrow" transform="translate(30 24)" onmousedown="handlePan(0,-1)">
                  <use xlink:href="#rim" fill="#404040">
                        <set attributeName="fill" to="#808080" begin="arrowUp.mouseover" end="arrowUp.mouseout"/>
                  </use>
                  <path fill="none" stroke="white" stroke-width="1.5" d="M0,-3.0v7 M-2.5,-0.5L0,-3.0L2.5,-0.5"/>
                </g>
                <g id="arrowRight" xlink:href="#dirArrow" transform="rotate(90) translate(36 -43)" onmousedown="handlePan(1,0)">
                  <use xlink:href="#rim" fill="#404040">
                        <set attributeName="fill" to="#808080" begin="arrowRight.mouseover" end="arrowRight.mouseout"/>
                  </use>
                  <path fill="none" stroke="white" stroke-width="1.5" d="M0,-3.0v7 M-2.5,-0.5L0,-3.0L2.5,-0.5"/>
                </g>
                <g id="arrowDown" xlink:href="#dirArrow" transform="rotate(180) translate(-30 -48)" onmousedown="handlePan(0,1)">
                  <use xlink:href="#rim" fill="#404040">
                        <set attributeName="fill" to="#808080" begin="arrowDown.mouseover" end="arrowDown.mouseout"/>
                  </use>
                  <path fill="none" stroke="white" stroke-width="1.5" d="M0,-3.0v7 M-2.5,-0.5L0,-3.0L2.5,-0.5"/>
                </g>
                <g id="arrowLeft" xlink:href="#dirArrow" transform="rotate(270) translate(-36 17)" onmousedown="handlePan(-1,0)">
                  <use xlink:href="#rim" fill="#404040">
                        <set attributeName="fill" to="#808080" begin="arrowLeft.mouseover" end="arrowLeft.mouseout"/>
                  </use>
                  <path fill="none" stroke="white" stroke-width="1.5" d="M0,-3.0v7 M-2.5,-0.5L0,-3.0L2.5,-0.5"/>
                </g>
        </g>
        <svg viewBox="0 0 15 15" width="100%" height="30px" preserveAspectRatio="xMaxYMin meet">
         <g id="arrow_out" transform="scale(0.3 0.3)">
          <a xlink:href="class_standard_attack__coll__graph_org.svg" target="_base">
           <rect id="button" ry="5" rx="5" y="6" x="6" height="38" width="38"
                fill="#f2f5e9" fill-opacity="0.5" stroke="#606060" stroke-width="1.0"/>
           <path id="arrow"
             d="M 11.500037,31.436501 C 11.940474,20.09759 22.043105,11.32322 32.158766,21.979434 L 37.068811,17.246167 C 37.068811,17.246167 37.088388,32 37.088388,32 L 22.160133,31.978069 C 22.160133,31.978069 26.997745,27.140456 26.997745,27.140456 C 18.528582,18.264221 13.291696,25.230495 11.500037,31.436501 z"
             style="fill:#404040;"/>
          </a>
         </g>
        </svg>
</svg>
