<?xml version="1.0" encoding="UTF-8" standalone="no"?>
<!DOCTYPE svg PUBLIC "-//W3C//DTD SVG 1.1//EN"
 "http://www.w3.org/Graphics/SVG/1.1/DTD/svg11.dtd">
<!-- Generated by graphviz version 2.38.0 (20140413.2041)
 -->
<!-- Title: WorldMapScript Pages: 1 -->
<svg width="94pt" height="160pt"
 viewBox="0.00 0.00 94.00 160.00" xmlns="http://www.w3.org/2000/svg" xmlns:xlink="http://www.w3.org/1999/xlink">
<g id="graph0" class="graph" transform="scale(1 1) rotate(0) translate(4 156)">
<title>WorldMapScript</title>
<!-- Node0 -->
<g id="node1" class="node"><title>Node0</title>
<polygon fill="#bfbfbf" stroke="black" points="0,-0.5 0,-57.5 86,-57.5 86,-0.5 0,-0.5"/>
<text text-anchor="middle" x="43" y="-45.5" font-family="Helvetica,sans-Serif" font-size="10.00">WorldMapScript</text>
<polyline fill="none" stroke="black" points="0,-38.5 86,-38.5 "/>
<text text-anchor="middle" x="43" y="-26.5" font-family="Helvetica,sans-Serif" font-size="10.00"> </text>
<polyline fill="none" stroke="black" points="0,-19.5 86,-19.5 "/>
<text text-anchor="start" x="8" y="-7.5" font-family="Helvetica,sans-Serif" font-size="10.00">&#45; Start()</text>
</g>
<!-- Node1 -->
<g id="node2" class="node"><title>Node1</title>
<g id="a_node2"><a xlink:href="class_mono_behaviour.html" target="_top" xlink:title="{MonoBehaviour\n||}">
<polygon fill="none" stroke="black" points="1.5,-94.5 1.5,-151.5 84.5,-151.5 84.5,-94.5 1.5,-94.5"/>
<text text-anchor="middle" x="43" y="-139.5" font-family="Helvetica,sans-Serif" font-size="10.00">MonoBehaviour</text>
<polyline fill="none" stroke="black" points="1.5,-132.5 84.5,-132.5 "/>
<text text-anchor="middle" x="43" y="-120.5" font-family="Helvetica,sans-Serif" font-size="10.00"> </text>
<polyline fill="none" stroke="black" points="1.5,-113.5 84.5,-113.5 "/>
<text text-anchor="middle" x="43" y="-101.5" font-family="Helvetica,sans-Serif" font-size="10.00"> </text>
</a>
</g>
</g>
<!-- Node1&#45;&gt;Node0 -->
<g id="edge1" class="edge"><title>Node1&#45;&gt;Node0</title>
<path fill="none" stroke="midnightblue" d="M43,-84.2092C43,-75.2929 43,-65.9513 43,-57.5836"/>
<polygon fill="none" stroke="midnightblue" points="39.5001,-84.3969 43,-94.397 46.5001,-84.397 39.5001,-84.3969"/>
</g>
</g>
</svg>
