<?xml version="1.0" encoding="UTF-8" standalone="no"?>
<!DOCTYPE svg PUBLIC "-//W3C//DTD SVG 1.1//EN"
 "http://www.w3.org/Graphics/SVG/1.1/DTD/svg11.dtd">
<!-- Generated by graphviz version 2.38.0 (20140413.2041)
 -->
<!-- Title: HealingSpell Pages: 1 -->
<!--zoomable 1045 -->
<svg id="main" version="1.1" xmlns="http://www.w3.org/2000/svg" xmlns:xlink="http://www.w3.org/1999/xlink" xml:space="preserve" onload="init(evt)">
<style type="text/css"><![CDATA[
.edge:hover path { stroke: red; }
.edge:hover polygon { stroke: red; fill: red; }
]]></style>
<script type="text/javascript"><![CDATA[
var edges = document.getElementsByTagName('g');
if (edges && edges.length) {
  for (var i=0;i<edges.length;i++) {
    if (edges[i].id.substr(0,4)=='edge') {
      edges[i].setAttribute('class','edge');
    }
  }
}
]]></script>
        <defs>
                <circle id="rim" cx="0" cy="0" r="7"/>
                <circle id="rim2" cx="0" cy="0" r="3.5"/>
                <g id="zoomPlus">
                        <use xlink:href="#rim" fill="#404040">
                                <set attributeName="fill" to="#808080" begin="zoomplus.mouseover" end="zoomplus.mouseout"/>
                        </use>
                        <path d="M-4,0h8M0,-4v8" fill="none" stroke="white" stroke-width="1.5" pointer-events="none"/>
                </g>
                <g id="zoomMin">
                        <use xlink:href="#rim" fill="#404040">
                                <set attributeName="fill" to="#808080" begin="zoomminus.mouseover" end="zoomminus.mouseout"/>
                        </use>
                        <path d="M-4,0h8" fill="none" stroke="white" stroke-width="1.5" pointer-events="none"/>
                </g>
                <g id="dirArrow">
                        <path fill="none" stroke="white" stroke-width="1.5" d="M0,-3.0v7 M-2.5,-0.5L0,-3.0L2.5,-0.5"/>
                </g>
               <g id="resetDef">
                       <use xlink:href="#rim2" fill="#404040">
                               <set attributeName="fill" to="#808080" begin="reset.mouseover" end="reset.mouseout"/>
                       </use>
               </g>
        </defs>

<script type="text/javascript">
var viewWidth = 751;
var viewHeight = 1045;
var sectionId = 'dynsection-1';
</script>
<script xlink:href="svgpan.js"/>
<svg id="graph" class="graph">
<g id="viewport">
<title>HealingSpell</title>
<!-- Node3 -->
<g id="node1" class="node"><title>Node3</title>
<polygon fill="#bfbfbf" stroke="black" points="251,-590.5 251,-658.5 337,-658.5 337,-590.5 251,-590.5"/>
<text text-anchor="middle" x="294" y="-646.5" font-family="Helvetica,sans-Serif" font-size="10.00">HealingSpell</text>
<polyline fill="none" stroke="black" points="251,-639.5 337,-639.5 "/>
<text text-anchor="middle" x="294" y="-627.5" font-family="Helvetica,sans-Serif" font-size="10.00"> </text>
<polyline fill="none" stroke="black" points="251,-620.5 337,-620.5 "/>
<text text-anchor="start" x="259" y="-608.5" font-family="Helvetica,sans-Serif" font-size="10.00">+ HealingSpell()</text>
<text text-anchor="start" x="259" y="-597.5" font-family="Helvetica,sans-Serif" font-size="10.00">+ performMove()</text>
</g>
<!-- Node4 -->
<g id="node2" class="node"><title>Node4</title>
<g id="a_node2"><a xlink:href="class_special_move.html" target="_top" xlink:title="Special move abstract base class that expands upon CharacterMove, adding magic properties ...">
<polygon fill="none" stroke="black" points="112,-830.5 112,-920.5 210,-920.5 210,-830.5 112,-830.5"/>
<text text-anchor="middle" x="161" y="-908.5" font-family="Helvetica,sans-Serif" font-size="10.00">SpecialMove</text>
<polyline fill="none" stroke="black" points="112,-901.5 210,-901.5 "/>
<text text-anchor="start" x="120" y="-889.5" font-family="Helvetica,sans-Serif" font-size="10.00">+ Magic</text>
<text text-anchor="start" x="120" y="-878.5" font-family="Helvetica,sans-Serif" font-size="10.00">+ Desc</text>
<polyline fill="none" stroke="black" points="112,-871.5 210,-871.5 "/>
<text text-anchor="start" x="120" y="-859.5" font-family="Helvetica,sans-Serif" font-size="10.00">+ setUp()</text>
<text text-anchor="start" x="120" y="-848.5" font-family="Helvetica,sans-Serif" font-size="10.00">+ decreaseMagic()</text>
<text text-anchor="start" x="120" y="-837.5" font-family="Helvetica,sans-Serif" font-size="10.00"># SpecialMove()</text>
</a>
</g>
</g>
<!-- Node4&#45;&gt;Node3 -->
<g id="edge1" class="edge"><title>Node4&#45;&gt;Node3</title>
<path fill="none" stroke="midnightblue" d="M175.733,-820.54C186.208,-783.376 199.376,-739.406 205,-732 213.947,-720.218 222.372,-724.291 233,-714 249.757,-697.773 264.693,-676.293 275.592,-658.558"/>
<polygon fill="none" stroke="midnightblue" points="172.324,-819.736 172.997,-830.309 179.065,-821.624 172.324,-819.736"/>
</g>
<!-- Node7 -->
<g id="node5" class="node"><title>Node7</title>
<g id="a_node5"><a xlink:href="class_character.html" target="_top" xlink:title="Base abstract class for Enemy and Player to inherit from. Defines all shared variables, their constructor and their setters and getters ">
<polygon fill="none" stroke="black" points="357.5,-535.5 357.5,-713.5 452.5,-713.5 452.5,-535.5 357.5,-535.5"/>
<text text-anchor="middle" x="405" y="-701.5" font-family="Helvetica,sans-Serif" font-size="10.00">Character</text>
<polyline fill="none" stroke="black" points="357.5,-694.5 452.5,-694.5 "/>
<text text-anchor="start" x="365.5" y="-682.5" font-family="Helvetica,sans-Serif" font-size="10.00">+ Name</text>
<text text-anchor="start" x="365.5" y="-671.5" font-family="Helvetica,sans-Serif" font-size="10.00">+ Level</text>
<text text-anchor="start" x="365.5" y="-660.5" font-family="Helvetica,sans-Serif" font-size="10.00">+ Health</text>
<text text-anchor="start" x="365.5" y="-649.5" font-family="Helvetica,sans-Serif" font-size="10.00">+ Attack</text>
<text text-anchor="start" x="365.5" y="-638.5" font-family="Helvetica,sans-Serif" font-size="10.00">+ Defence</text>
<text text-anchor="start" x="365.5" y="-627.5" font-family="Helvetica,sans-Serif" font-size="10.00">+ MaximumMagic</text>
<text text-anchor="start" x="365.5" y="-616.5" font-family="Helvetica,sans-Serif" font-size="10.00">+ Magic</text>
<text text-anchor="start" x="365.5" y="-605.5" font-family="Helvetica,sans-Serif" font-size="10.00">+ Luck</text>
<text text-anchor="start" x="365.5" y="-594.5" font-family="Helvetica,sans-Serif" font-size="10.00">+ Speed</text>
<text text-anchor="start" x="365.5" y="-583.5" font-family="Helvetica,sans-Serif" font-size="10.00">+ Special1</text>
<text text-anchor="start" x="365.5" y="-572.5" font-family="Helvetica,sans-Serif" font-size="10.00">+ Special2</text>
<text text-anchor="start" x="365.5" y="-561.5" font-family="Helvetica,sans-Serif" font-size="10.00">+ Image</text>
<polyline fill="none" stroke="black" points="357.5,-554.5 452.5,-554.5 "/>
<text text-anchor="start" x="365.5" y="-542.5" font-family="Helvetica,sans-Serif" font-size="10.00"># Character()</text>
</a>
</g>
</g>
<!-- Node4&#45;&gt;Node7 -->
<g id="edge7" class="edge"><title>Node4&#45;&gt;Node7</title>
<path fill="none" stroke="#404040" d="M192.25,-830.372C195.822,-824.353 199.185,-818.133 202,-812 217.431,-778.376 197.168,-756.374 225,-732 265.902,-696.18 300.087,-743.121 346,-714 346.487,-713.691 346.972,-713.376 347.453,-713.056"/>
<polygon fill="none" stroke="#404040" points="347.609,-712.935 349.907,-706.1 357.101,-705.593 354.802,-712.428 347.609,-712.935"/>
<text text-anchor="middle" x="247.5" y="-775" font-family="Helvetica,sans-Serif" font-size="10.00"> #special1</text>
<text text-anchor="middle" x="247.5" y="-764" font-family="Helvetica,sans-Serif" font-size="10.00">#special2</text>
</g>
<!-- Node5 -->
<g id="node3" class="node"><title>Node5</title>
<g id="a_node3"><a xlink:href="class_character_move.html" target="_top" xlink:title="Astract base class for character moves ">
<polygon fill="none" stroke="black" points="119,-0.5 119,-79.5 205,-79.5 205,-0.5 119,-0.5"/>
<text text-anchor="middle" x="162" y="-67.5" font-family="Helvetica,sans-Serif" font-size="10.00">CharacterMove</text>
<polyline fill="none" stroke="black" points="119,-60.5 205,-60.5 "/>
<text text-anchor="start" x="127" y="-48.5" font-family="Helvetica,sans-Serif" font-size="10.00">+ User</text>
<text text-anchor="start" x="127" y="-37.5" font-family="Helvetica,sans-Serif" font-size="10.00">+ Target</text>
<text text-anchor="start" x="127" y="-26.5" font-family="Helvetica,sans-Serif" font-size="10.00">+ Text</text>
<polyline fill="none" stroke="black" points="119,-19.5 205,-19.5 "/>
<text text-anchor="start" x="127" y="-7.5" font-family="Helvetica,sans-Serif" font-size="10.00">+ performMove()</text>
</a>
</g>
</g>
<!-- Node5&#45;&gt;Node4 -->
<g id="edge2" class="edge"><title>Node5&#45;&gt;Node4</title>
<path fill="none" stroke="midnightblue" d="M157.21,-89.9799C151.769,-148.285 143.227,-248.63 140,-335 139.635,-344.771 138.297,-347.372 140,-357 154.669,-439.934 190.331,-452.066 205,-535 218.856,-613.34 241.27,-643.193 205,-714 198.758,-726.186 187.035,-720.254 180,-732 162.302,-761.548 158.163,-800.648 158.108,-830.416"/>
<polygon fill="none" stroke="midnightblue" points="160.702,-90.2286 158.155,-79.9445 153.733,-89.5725 160.702,-90.2286"/>
</g>
<!-- Node6 -->
<g id="node4" class="node"><title>Node6</title>
<polygon fill="none" stroke="#bfbfbf" points="63.5,-979.5 63.5,-1036.5 104.5,-1036.5 104.5,-979.5 63.5,-979.5"/>
<text text-anchor="middle" x="84" y="-1024.5" font-family="Helvetica,sans-Serif" font-size="10.00">string</text>
<polyline fill="none" stroke="#bfbfbf" points="63.5,-1017.5 104.5,-1017.5 "/>
<text text-anchor="middle" x="84" y="-1005.5" font-family="Helvetica,sans-Serif" font-size="10.00"> </text>
<polyline fill="none" stroke="#bfbfbf" points="63.5,-998.5 104.5,-998.5 "/>
<text text-anchor="middle" x="84" y="-986.5" font-family="Helvetica,sans-Serif" font-size="10.00"> </text>
</g>
<!-- Node6&#45;&gt;Node4 -->
<g id="edge21" class="edge"><title>Node6&#45;&gt;Node4</title>
<path fill="none" stroke="#404040" d="M104.546,-979.704C108.827,-973.654 113.191,-967.196 117,-961 122.789,-951.584 128.553,-941.325 133.912,-931.306"/>
<polygon fill="none" stroke="#404040" points="133.967,-931.202 133.218,-924.03 139.55,-920.579 140.299,-927.751 133.967,-931.202"/>
<text text-anchor="middle" x="144" y="-947.5" font-family="Helvetica,sans-Serif" font-size="10.00"> #desc</text>
</g>
<!-- Node6&#45;&gt;Node5 -->
<g id="edge3" class="edge"><title>Node6&#45;&gt;Node5</title>
<path fill="none" stroke="#404040" d="M63.2359,-989.441C38.3611,-966.322 0,-923.113 0,-876.5 0,-876.5 0,-876.5 0,-221 0,-154.805 61.2781,-101.947 108.459,-71.0594"/>
<polygon fill="none" stroke="#404040" points="108.461,-71.058 111.378,-64.4629 118.587,-64.6185 115.67,-71.2136 108.461,-71.058"/>
<text text-anchor="middle" x="12.5" y="-509" font-family="Helvetica,sans-Serif" font-size="10.00"> #text</text>
</g>
<!-- Node6&#45;&gt;Node7 -->
<g id="edge5" class="edge"><title>Node6&#45;&gt;Node7</title>
<path fill="none" stroke="#404040" d="M104.675,-1007.1C137.199,-1006.05 199.905,-998.873 232,-961 269.995,-916.165 222.484,-881.929 250,-830 255.599,-819.433 261.859,-820.76 270,-812 307.523,-771.626 313.803,-758.737 346,-714 347.475,-711.951 348.96,-709.868 350.451,-707.761"/>
<polygon fill="none" stroke="#404040" points="350.568,-707.594 350.731,-700.384 357.448,-697.761 357.286,-704.971 350.568,-707.594"/>
<text text-anchor="middle" x="266.5" y="-873" font-family="Helvetica,sans-Serif" font-size="10.00"> #name</text>
</g>
<!-- Node10 -->
<g id="node8" class="node"><title>Node10</title>
<g id="a_node8"><a xlink:href="class_battle_manager.html" target="_top" xlink:title="Holds current Player and Enemy objects in battle and provides functions for MainBattle and other obje...">
<polygon fill="none" stroke="black" points="301,-127.5 301,-316.5 417,-316.5 417,-127.5 301,-127.5"/>
<text text-anchor="middle" x="359" y="-304.5" font-family="Helvetica,sans-Serif" font-size="10.00">BattleManager</text>
<polyline fill="none" stroke="black" points="301,-297.5 417,-297.5 "/>
<text text-anchor="start" x="309" y="-285.5" font-family="Helvetica,sans-Serif" font-size="10.00">+ Player</text>
<text text-anchor="start" x="309" y="-274.5" font-family="Helvetica,sans-Serif" font-size="10.00">+ Enemy</text>
<text text-anchor="start" x="309" y="-263.5" font-family="Helvetica,sans-Serif" font-size="10.00">+ WasCriticalHit</text>
<polyline fill="none" stroke="black" points="301,-256.5 417,-256.5 "/>
<text text-anchor="start" x="309" y="-244.5" font-family="Helvetica,sans-Serif" font-size="10.00">+ BattleManager()</text>
<text text-anchor="start" x="309" y="-233.5" font-family="Helvetica,sans-Serif" font-size="10.00">+ playerFirst()</text>
<text text-anchor="start" x="309" y="-222.5" font-family="Helvetica,sans-Serif" font-size="10.00">+ switchPlayers()</text>
<text text-anchor="start" x="309" y="-211.5" font-family="Helvetica,sans-Serif" font-size="10.00">+ isCriticalHit()</text>
<text text-anchor="start" x="309" y="-200.5" font-family="Helvetica,sans-Serif" font-size="10.00">+ ranAway()</text>
<text text-anchor="start" x="309" y="-189.5" font-family="Helvetica,sans-Serif" font-size="10.00">+ damageCalculation()</text>
<text text-anchor="start" x="309" y="-178.5" font-family="Helvetica,sans-Serif" font-size="10.00">+ enemyMove()</text>
<text text-anchor="start" x="309" y="-167.5" font-family="Helvetica,sans-Serif" font-size="10.00">+ enemySpecialMove()</text>
<text text-anchor="start" x="309" y="-156.5" font-family="Helvetica,sans-Serif" font-size="10.00">+ battleWon()</text>
<text text-anchor="start" x="309" y="-145.5" font-family="Helvetica,sans-Serif" font-size="10.00">+ playerFainted()</text>
<text text-anchor="start" x="309" y="-134.5" font-family="Helvetica,sans-Serif" font-size="10.00">&#45; characterFainted()</text>
</a>
</g>
</g>
<!-- Node6&#45;&gt;Node10 -->
<g id="edge10" class="edge"><title>Node6&#45;&gt;Node10</title>
<path fill="none" stroke="#404040" d="M73.9806,-979.326C48.6383,-904.848 -12.0101,-694.981 46,-535 90.2425,-412.987 212.676,-315.996 290.652,-264.231"/>
<polygon fill="none" stroke="#404040" points="290.837,-264.11 293.664,-257.476 300.875,-257.534 298.048,-264.168 290.837,-264.11"/>
<text text-anchor="middle" x="88" y="-627.5" font-family="Helvetica,sans-Serif" font-size="10.00"> +forceEnemyMove</text>
<text text-anchor="middle" x="88" y="-616.5" font-family="Helvetica,sans-Serif" font-size="10.00">+forceCriticalHits</text>
</g>
<!-- Node14 -->
<g id="node12" class="node"><title>Node14</title>
<g id="a_node12"><a xlink:href="class_item.html" target="_top" xlink:title="Abstract class for items that can be equipped to a player, increasing some of their stats ...">
<polygon fill="none" stroke="black" points="64.5,-732.5 64.5,-811.5 141.5,-811.5 141.5,-732.5 64.5,-732.5"/>
<text text-anchor="middle" x="103" y="-799.5" font-family="Helvetica,sans-Serif" font-size="10.00">Item</text>
<polyline fill="none" stroke="black" points="64.5,-792.5 141.5,-792.5 "/>
<text text-anchor="start" x="72.5" y="-780.5" font-family="Helvetica,sans-Serif" font-size="10.00">+ Name</text>
<text text-anchor="start" x="72.5" y="-769.5" font-family="Helvetica,sans-Serif" font-size="10.00">+ Desc</text>
<polyline fill="none" stroke="black" points="64.5,-762.5 141.5,-762.5 "/>
<text text-anchor="start" x="72.5" y="-750.5" font-family="Helvetica,sans-Serif" font-size="10.00">+ applyBuffs()</text>
<text text-anchor="start" x="72.5" y="-739.5" font-family="Helvetica,sans-Serif" font-size="10.00">+ revertBuffs()</text>
</a>
</g>
</g>
<!-- Node6&#45;&gt;Node14 -->
<g id="edge19" class="edge"><title>Node6&#45;&gt;Node14</title>
<path fill="none" stroke="#404040" d="M83.2998,-979.271C83.1749,-973.248 83.0642,-966.911 83,-961 82.8937,-951.223 82.4142,-948.76 83,-939 85.3287,-900.203 90.6926,-856.58 95.2797,-823.791"/>
<polygon fill="none" stroke="#404040" points="95.2972,-823.668 92.1845,-817.163 96.9917,-811.788 100.104,-818.293 95.2972,-823.668"/>
<text text-anchor="middle" x="98" y="-953" font-family="Helvetica,sans-Serif" font-size="10.00"> #desc</text>
<text text-anchor="middle" x="98" y="-942" font-family="Helvetica,sans-Serif" font-size="10.00">#name</text>
</g>
<!-- Node7&#45;&gt;Node5 -->
<g id="edge4" class="edge"><title>Node7&#45;&gt;Node5</title>
<path fill="none" stroke="#404040" d="M357.401,-548.311C353.703,-543.68 349.89,-539.2 346,-535 322.981,-510.149 304.803,-516.177 286,-488 201.764,-361.769 174.352,-179.182 165.75,-91.5957"/>
<polygon fill="none" stroke="#404040" points="165.749,-91.58 161.209,-85.9771 164.635,-79.6318 169.175,-85.2346 165.749,-91.58"/>
<text text-anchor="middle" x="238" y="-349" font-family="Helvetica,sans-Serif" font-size="10.00"> #target</text>
<text text-anchor="middle" x="238" y="-338" font-family="Helvetica,sans-Serif" font-size="10.00">#user</text>
</g>
<!-- Node11 -->
<g id="node9" class="node"><title>Node11</title>
<g id="a_node9"><a xlink:href="class_enemy.html" target="_top" xlink:title="Defines an AI controller enemy to fight in battle scenes">
<polygon fill="none" stroke="black" points="628.5,-403 628.5,-460 695.5,-460 695.5,-403 628.5,-403"/>
<text text-anchor="middle" x="662" y="-448" font-family="Helvetica,sans-Serif" font-size="10.00">Enemy</text>
<polyline fill="none" stroke="black" points="628.5,-441 695.5,-441 "/>
<text text-anchor="start" x="636.5" y="-429" font-family="Helvetica,sans-Serif" font-size="10.00">+ ExpGiven</text>
<polyline fill="none" stroke="black" points="628.5,-422 695.5,-422 "/>
<text text-anchor="start" x="636.5" y="-410" font-family="Helvetica,sans-Serif" font-size="10.00">+ Enemy()</text>
</a>
</g>
</g>
<!-- Node7&#45;&gt;Node11 -->
<g id="edge12" class="edge"><title>Node7&#45;&gt;Node11</title>
<path fill="none" stroke="midnightblue" d="M461.051,-581.844C512.148,-543.869 585.947,-489.022 628.435,-457.445"/>
<polygon fill="none" stroke="midnightblue" points="458.676,-579.248 452.737,-588.022 462.851,-584.866 458.676,-579.248"/>
</g>
<!-- Node13 -->
<g id="node11" class="node"><title>Node13</title>
<g id="a_node11"><a xlink:href="class_player.html" target="_top" xlink:title="Defines a playable character for use in battle scenes">
<polygon fill="none" stroke="black" points="349,-375.5 349,-487.5 461,-487.5 461,-375.5 349,-375.5"/>
<text text-anchor="middle" x="405" y="-475.5" font-family="Helvetica,sans-Serif" font-size="10.00">Player</text>
<polyline fill="none" stroke="black" points="349,-468.5 461,-468.5 "/>
<text text-anchor="start" x="357" y="-456.5" font-family="Helvetica,sans-Serif" font-size="10.00">+ Exp</text>
<text text-anchor="start" x="357" y="-445.5" font-family="Helvetica,sans-Serif" font-size="10.00">+ Item</text>
<text text-anchor="start" x="357" y="-434.5" font-family="Helvetica,sans-Serif" font-size="10.00">+ ExpToNextLevel</text>
<polyline fill="none" stroke="black" points="349,-427.5 461,-427.5 "/>
<text text-anchor="start" x="357" y="-415.5" font-family="Helvetica,sans-Serif" font-size="10.00">+ Player()</text>
<text text-anchor="start" x="357" y="-404.5" font-family="Helvetica,sans-Serif" font-size="10.00">+ gainExp()</text>
<text text-anchor="start" x="357" y="-393.5" font-family="Helvetica,sans-Serif" font-size="10.00">+ levelUp()</text>
<text text-anchor="start" x="357" y="-382.5" font-family="Helvetica,sans-Serif" font-size="10.00">&#45; setExpToNextLevel()</text>
</a>
</g>
</g>
<!-- Node7&#45;&gt;Node13 -->
<g id="edge17" class="edge"><title>Node7&#45;&gt;Node13</title>
<path fill="none" stroke="midnightblue" d="M405,-524.981C405,-512.15 405,-499.392 405,-487.635"/>
<polygon fill="none" stroke="midnightblue" points="401.5,-525.268 405,-535.268 408.5,-525.268 401.5,-525.268"/>
</g>
<!-- Node8 -->
<g id="node6" class="node"><title>Node8</title>
<polygon fill="none" stroke="#bfbfbf" points="510.5,-979.5 510.5,-1036.5 539.5,-1036.5 539.5,-979.5 510.5,-979.5"/>
<text text-anchor="middle" x="525" y="-1024.5" font-family="Helvetica,sans-Serif" font-size="10.00">int</text>
<polyline fill="none" stroke="#bfbfbf" points="510.5,-1017.5 539.5,-1017.5 "/>
<text text-anchor="middle" x="525" y="-1005.5" font-family="Helvetica,sans-Serif" font-size="10.00"> </text>
<polyline fill="none" stroke="#bfbfbf" points="510.5,-998.5 539.5,-998.5 "/>
<text text-anchor="middle" x="525" y="-986.5" font-family="Helvetica,sans-Serif" font-size="10.00"> </text>
</g>
<!-- Node8&#45;&gt;Node3 -->
<g id="edge23" class="edge"><title>Node8&#45;&gt;Node3</title>
<path fill="none" stroke="#404040" d="M510.292,-1005.65C472.241,-1001.3 370.307,-984.001 324,-921 269.715,-847.144 276.352,-733.384 285.481,-670.743"/>
<polygon fill="none" stroke="#404040" points="285.532,-670.411 282.506,-663.865 287.384,-658.554 290.41,-665.099 285.532,-670.411"/>
<text text-anchor="middle" x="345.5" y="-873" font-family="Helvetica,sans-Serif" font-size="10.00"> &#45;increase</text>
</g>
<!-- Node8&#45;&gt;Node4 -->
<g id="edge22" class="edge"><title>Node8&#45;&gt;Node4</title>
<path fill="none" stroke="#404040" d="M510.218,-1006.9C469.408,-1006.11 352.474,-1000.31 266,-961 247.919,-952.78 230.285,-940.721 214.789,-928.272"/>
<polygon fill="none" stroke="#404040" points="214.663,-928.168 207.492,-927.412 205.431,-920.502 212.603,-921.258 214.663,-928.168"/>
<text text-anchor="middle" x="283.5" y="-947.5" font-family="Helvetica,sans-Serif" font-size="10.00"> #magic</text>
</g>
<!-- Node8&#45;&gt;Node7 -->
<g id="edge6" class="edge"><title>Node8&#45;&gt;Node7</title>
<path fill="none" stroke="#404040" d="M511.476,-979.235C503.791,-962.633 494.446,-940.952 488,-921 461.547,-839.118 470.86,-814.38 446,-732 445.324,-729.759 444.623,-727.499 443.901,-725.225"/>
<polygon fill="none" stroke="#404040" points="443.884,-725.173 438.208,-720.725 440.131,-713.775 445.806,-718.223 443.884,-725.173"/>
<text text-anchor="middle" x="525.5" y="-911.5" font-family="Helvetica,sans-Serif" font-size="10.00"> #speed</text>
<text text-anchor="middle" x="525.5" y="-900.5" font-family="Helvetica,sans-Serif" font-size="10.00">#luck</text>
<text text-anchor="middle" x="525.5" y="-889.5" font-family="Helvetica,sans-Serif" font-size="10.00">#health</text>
<text text-anchor="middle" x="525.5" y="-878.5" font-family="Helvetica,sans-Serif" font-size="10.00">#magic</text>
<text text-anchor="middle" x="525.5" y="-867.5" font-family="Helvetica,sans-Serif" font-size="10.00">#maximumMagic</text>
<text text-anchor="middle" x="525.5" y="-856.5" font-family="Helvetica,sans-Serif" font-size="10.00">#attack</text>
<text text-anchor="middle" x="525.5" y="-845.5" font-family="Helvetica,sans-Serif" font-size="10.00">#defence</text>
<text text-anchor="middle" x="525.5" y="-834.5" font-family="Helvetica,sans-Serif" font-size="10.00">#level</text>
</g>
<!-- Node8&#45;&gt;Node10 -->
<g id="edge14" class="edge"><title>Node8&#45;&gt;Node10</title>
<path fill="none" stroke="#404040" d="M539.67,-996.012C550.068,-987.51 563.612,-974.874 572,-961 625.08,-873.208 618.947,-833.009 601,-732 571.433,-565.595 549.723,-524.027 470,-375 457.043,-350.78 440.627,-326.077 424.421,-303.82"/>
<polygon fill="none" stroke="#404040" points="424.379,-303.763 417.598,-301.312 417.252,-294.109 424.034,-296.56 424.379,-303.763"/>
<text text-anchor="middle" x="617.5" y="-622" font-family="Helvetica,sans-Serif" font-size="10.00"> +money</text>
</g>
<!-- Node8&#45;&gt;Node11 -->
<g id="edge13" class="edge"><title>Node8&#45;&gt;Node11</title>
<path fill="none" stroke="#404040" d="M539.745,-1005.26C563.109,-1001.65 608.126,-990.971 629,-961 735.475,-808.123 694.057,-566.103 672.17,-471.871"/>
<polygon fill="none" stroke="#404040" points="672.145,-471.766 666.859,-466.86 669.355,-460.094 674.64,-465 672.145,-471.766"/>
<text text-anchor="middle" x="720" y="-769.5" font-family="Helvetica,sans-Serif" font-size="10.00"> &#45;expGiven</text>
</g>
<!-- Node8&#45;&gt;Node13 -->
<g id="edge20" class="edge"><title>Node8&#45;&gt;Node13</title>
<path fill="none" stroke="#404040" d="M539.605,-984.507C560.621,-949.016 593.67,-879.027 563,-830 553.301,-814.497 537.417,-826.285 526,-812 447.052,-713.217 506.169,-653.113 461,-535 456.342,-522.819 450.49,-510.29 444.338,-498.355"/>
<polygon fill="none" stroke="#404040" points="444.251,-498.191 437.906,-494.764 438.629,-487.589 444.974,-491.016 444.251,-498.191"/>
<text text-anchor="middle" x="563.5" y="-775" font-family="Helvetica,sans-Serif" font-size="10.00"> &#45;expToNextLevel</text>
<text text-anchor="middle" x="563.5" y="-764" font-family="Helvetica,sans-Serif" font-size="10.00">&#45;exp</text>
</g>
<!-- Node9 -->
<g id="node7" class="node"><title>Node9</title>
<polygon fill="none" stroke="#bfbfbf" points="376.5,-847 376.5,-904 437.5,-904 437.5,-847 376.5,-847"/>
<text text-anchor="middle" x="407" y="-892" font-family="Helvetica,sans-Serif" font-size="10.00">Texture2D</text>
<polyline fill="none" stroke="#bfbfbf" points="376.5,-885 437.5,-885 "/>
<text text-anchor="middle" x="407" y="-873" font-family="Helvetica,sans-Serif" font-size="10.00"> </text>
<polyline fill="none" stroke="#bfbfbf" points="376.5,-866 437.5,-866 "/>
<text text-anchor="middle" x="407" y="-854" font-family="Helvetica,sans-Serif" font-size="10.00"> </text>
</g>
<!-- Node9&#45;&gt;Node7 -->
<g id="edge8" class="edge"><title>Node9&#45;&gt;Node7</title>
<path fill="none" stroke="#404040" d="M406.778,-846.901C406.543,-817.619 406.158,-769.621 405.806,-725.787"/>
<polygon fill="none" stroke="#404040" points="405.804,-725.553 401.756,-719.586 405.707,-713.554 409.755,-719.521 405.804,-725.553"/>
<text text-anchor="middle" x="424.5" y="-769.5" font-family="Helvetica,sans-Serif" font-size="10.00"> #image</text>
</g>
<!-- Node10&#45;&gt;Node5 -->
<g id="edge9" class="edge"><title>Node10&#45;&gt;Node5</title>
<path fill="none" stroke="#404040" d="M300.959,-167.968C273.121,-142.532 240.065,-112.329 213.179,-87.7628"/>
<polygon fill="none" stroke="#404040" points="213.173,-87.7573 206.046,-86.6631 204.314,-79.6629 211.442,-80.7571 213.173,-87.7573"/>
<text text-anchor="middle" x="255" y="-101" font-family="Helvetica,sans-Serif" font-size="10.00"> #manager</text>
</g>
<!-- Node11&#45;&gt;Node10 -->
<g id="edge11" class="edge"><title>Node11&#45;&gt;Node10</title>
<path fill="none" stroke="#404040" d="M653.759,-402.656C646.321,-381.703 633.513,-353.526 614,-335 561.947,-285.581 484.523,-255.816 428.651,-239.528"/>
<polygon fill="none" stroke="#404040" points="428.62,-239.519 421.758,-241.736 417.073,-236.255 423.935,-234.038 428.62,-239.519"/>
<text text-anchor="middle" x="648" y="-343.5" font-family="Helvetica,sans-Serif" font-size="10.00"> &#45;enemy</text>
</g>
<!-- Node12 -->
<g id="node10" class="node"><title>Node12</title>
<polygon fill="none" stroke="#bfbfbf" points="295.5,-403 295.5,-460 330.5,-460 330.5,-403 295.5,-403"/>
<text text-anchor="middle" x="313" y="-448" font-family="Helvetica,sans-Serif" font-size="10.00">bool</text>
<polyline fill="none" stroke="#bfbfbf" points="295.5,-441 330.5,-441 "/>
<text text-anchor="middle" x="313" y="-429" font-family="Helvetica,sans-Serif" font-size="10.00"> </text>
<polyline fill="none" stroke="#bfbfbf" points="295.5,-422 330.5,-422 "/>
<text text-anchor="middle" x="313" y="-410" font-family="Helvetica,sans-Serif" font-size="10.00"> </text>
</g>
<!-- Node12&#45;&gt;Node10 -->
<g id="edge15" class="edge"><title>Node12&#45;&gt;Node10</title>
<path fill="none" stroke="#404040" d="M311.44,-402.637C310.957,-383.438 311.475,-357.44 316,-335 316.436,-332.835 316.911,-330.658 317.418,-328.473"/>
<polygon fill="none" stroke="#404040" points="317.448,-328.359 315.067,-321.552 320.434,-316.736 322.815,-323.543 317.448,-328.359"/>
<text text-anchor="middle" x="349" y="-343.5" font-family="Helvetica,sans-Serif" font-size="10.00"> &#45;wasCriticalHit</text>
</g>
<!-- Node13&#45;&gt;Node10 -->
<g id="edge16" class="edge"><title>Node13&#45;&gt;Node10</title>
<path fill="none" stroke="#404040" d="M392.794,-375.439C389.581,-360.946 386.005,-344.815 382.415,-328.623"/>
<polygon fill="none" stroke="#404040" points="382.401,-328.56 377.198,-323.568 379.804,-316.845 385.008,-321.837 382.401,-328.56"/>
<text text-anchor="middle" x="404.5" y="-343.5" font-family="Helvetica,sans-Serif" font-size="10.00"> &#45;player</text>
</g>
<!-- Node14&#45;&gt;Node13 -->
<g id="edge18" class="edge"><title>Node14&#45;&gt;Node13</title>
<path fill="none" stroke="#404040" d="M124.513,-732.235C127.756,-726.165 131.013,-719.937 134,-714 173.413,-635.664 152.967,-594.913 217,-535 256.861,-497.704 285.343,-515.081 338.121,-487.737"/>
<polygon fill="none" stroke="#404040" points="338.159,-487.716 341.449,-481.298 348.637,-481.866 345.348,-488.284 338.159,-487.716"/>
<text text-anchor="middle" x="229.5" y="-622" font-family="Helvetica,sans-Serif" font-size="10.00"> &#45;item</text>
</g>
</g>
</svg>
        <g id="navigator" transform="translate(0 0)" fill="#404254">
                <rect fill="#f2f5e9" fill-opacity="0.5" stroke="#606060" stroke-width=".5" x="0" y="0" width="60" height="60"/>
                <use id="zoomplus" xlink:href="#zoomPlus" x="17" y="9" onmousedown="handleZoom(evt,'in')"/>
                <use id="zoomminus" xlink:href="#zoomMin" x="42" y="9" onmousedown="handleZoom(evt,'out')"/>
                <use id="reset" xlink:href="#resetDef" x="30" y="36" onmousedown="handleReset()"/>
                <g id="arrowUp" xlink:href="#dirArrow" transform="translate(30 24)" onmousedown="handlePan(0,-1)">
                  <use xlink:href="#rim" fill="#404040">
                        <set attributeName="fill" to="#808080" begin="arrowUp.mouseover" end="arrowUp.mouseout"/>
                  </use>
                  <path fill="none" stroke="white" stroke-width="1.5" d="M0,-3.0v7 M-2.5,-0.5L0,-3.0L2.5,-0.5"/>
                </g>
                <g id="arrowRight" xlink:href="#dirArrow" transform="rotate(90) translate(36 -43)" onmousedown="handlePan(1,0)">
                  <use xlink:href="#rim" fill="#404040">
                        <set attributeName="fill" to="#808080" begin="arrowRight.mouseover" end="arrowRight.mouseout"/>
                  </use>
                  <path fill="none" stroke="white" stroke-width="1.5" d="M0,-3.0v7 M-2.5,-0.5L0,-3.0L2.5,-0.5"/>
                </g>
                <g id="arrowDown" xlink:href="#dirArrow" transform="rotate(180) translate(-30 -48)" onmousedown="handlePan(0,1)">
                  <use xlink:href="#rim" fill="#404040">
                        <set attributeName="fill" to="#808080" begin="arrowDown.mouseover" end="arrowDown.mouseout"/>
                  </use>
                  <path fill="none" stroke="white" stroke-width="1.5" d="M0,-3.0v7 M-2.5,-0.5L0,-3.0L2.5,-0.5"/>
                </g>
                <g id="arrowLeft" xlink:href="#dirArrow" transform="rotate(270) translate(-36 17)" onmousedown="handlePan(-1,0)">
                  <use xlink:href="#rim" fill="#404040">
                        <set attributeName="fill" to="#808080" begin="arrowLeft.mouseover" end="arrowLeft.mouseout"/>
                  </use>
                  <path fill="none" stroke="white" stroke-width="1.5" d="M0,-3.0v7 M-2.5,-0.5L0,-3.0L2.5,-0.5"/>
                </g>
        </g>
        <svg viewBox="0 0 15 15" width="100%" height="30px" preserveAspectRatio="xMaxYMin meet">
         <g id="arrow_out" transform="scale(0.3 0.3)">
          <a xlink:href="class_healing_spell__coll__graph_org.svg" target="_base">
           <rect id="button" ry="5" rx="5" y="6" x="6" height="38" width="38"
                fill="#f2f5e9" fill-opacity="0.5" stroke="#606060" stroke-width="1.0"/>
           <path id="arrow"
             d="M 11.500037,31.436501 C 11.940474,20.09759 22.043105,11.32322 32.158766,21.979434 L 37.068811,17.246167 C 37.068811,17.246167 37.088388,32 37.088388,32 L 22.160133,31.978069 C 22.160133,31.978069 26.997745,27.140456 26.997745,27.140456 C 18.528582,18.264221 13.291696,25.230495 11.500037,31.436501 z"
             style="fill:#404040;"/>
          </a>
         </g>
        </svg>
</svg>
