<?xml version="1.0" encoding="UTF-8" standalone="no"?>
<!DOCTYPE svg PUBLIC "-//W3C//DTD SVG 1.1//EN"
 "http://www.w3.org/Graphics/SVG/1.1/DTD/svg11.dtd">
<!-- Generated by graphviz version 2.38.0 (20140413.2041)
 -->
<!-- Title: PlayerData Pages: 1 -->
<!--zoomable 1276 -->
<svg id="main" version="1.1" xmlns="http://www.w3.org/2000/svg" xmlns:xlink="http://www.w3.org/1999/xlink" xml:space="preserve" onload="init(evt)">
<style type="text/css"><![CDATA[
.edge:hover path { stroke: red; }
.edge:hover polygon { stroke: red; fill: red; }
]]></style>
<script type="text/javascript"><![CDATA[
var edges = document.getElementsByTagName('g');
if (edges && edges.length) {
  for (var i=0;i<edges.length;i++) {
    if (edges[i].id.substr(0,4)=='edge') {
      edges[i].setAttribute('class','edge');
    }
  }
}
]]></script>
        <defs>
                <circle id="rim" cx="0" cy="0" r="7"/>
                <circle id="rim2" cx="0" cy="0" r="3.5"/>
                <g id="zoomPlus">
                        <use xlink:href="#rim" fill="#404040">
                                <set attributeName="fill" to="#808080" begin="zoomplus.mouseover" end="zoomplus.mouseout"/>
                        </use>
                        <path d="M-4,0h8M0,-4v8" fill="none" stroke="white" stroke-width="1.5" pointer-events="none"/>
                </g>
                <g id="zoomMin">
                        <use xlink:href="#rim" fill="#404040">
                                <set attributeName="fill" to="#808080" begin="zoomminus.mouseover" end="zoomminus.mouseout"/>
                        </use>
                        <path d="M-4,0h8" fill="none" stroke="white" stroke-width="1.5" pointer-events="none"/>
                </g>
                <g id="dirArrow">
                        <path fill="none" stroke="white" stroke-width="1.5" d="M0,-3.0v7 M-2.5,-0.5L0,-3.0L2.5,-0.5"/>
                </g>
               <g id="resetDef">
                       <use xlink:href="#rim2" fill="#404040">
                               <set attributeName="fill" to="#808080" begin="reset.mouseover" end="reset.mouseout"/>
                       </use>
               </g>
        </defs>

<script type="text/javascript">
var viewWidth = 724;
var viewHeight = 1276;
var sectionId = 'dynsection-1';
</script>
<script xlink:href="svgpan.js"/>
<svg id="graph" class="graph">
<g id="viewport">
<title>PlayerData</title>
<!-- Node2 -->
<g id="node1" class="node"><title>Node2</title>
<polygon fill="#bfbfbf" stroke="black" points="79.978,-471.5 79.978,-528.5 144.978,-528.5 144.978,-471.5 79.978,-471.5"/>
<text text-anchor="middle" x="112.478" y="-516.5" font-family="Helvetica,sans-Serif" font-size="10.00">PlayerData</text>
<polyline fill="none" stroke="black" points="79.978,-509.5 144.978,-509.5 "/>
<text text-anchor="middle" x="112.478" y="-497.5" font-family="Helvetica,sans-Serif" font-size="10.00"> </text>
<polyline fill="none" stroke="black" points="79.978,-490.5 144.978,-490.5 "/>
<text text-anchor="start" x="87.978" y="-478.5" font-family="Helvetica,sans-Serif" font-size="10.00">&#45; Awake()</text>
</g>
<!-- Node2&#45;&gt;Node2 -->
<g id="edge2" class="edge"><title>Node2&#45;&gt;Node2</title>
<path fill="none" stroke="#404040" d="M145.02,-510.864C155.079,-510.645 162.978,-507.023 162.978,-500 162.978,-496.159 160.616,-493.336 156.83,-491.529"/>
<polygon fill="none" stroke="#404040" points="156.781,-491.52 150.106,-494.248 145.02,-489.136 151.696,-486.407 156.781,-491.52"/>
<text text-anchor="middle" x="185.978" y="-497.5" font-family="Helvetica,sans-Serif" font-size="10.00"> +instance</text>
</g>
<!-- Node3 -->
<g id="node2" class="node"><title>Node3</title>
<g id="a_node2"><a xlink:href="class_mono_behaviour.html" target="_top" xlink:title="{MonoBehaviour\n||}">
<polygon fill="none" stroke="black" points="138.978,-730.5 138.978,-787.5 221.978,-787.5 221.978,-730.5 138.978,-730.5"/>
<text text-anchor="middle" x="180.478" y="-775.5" font-family="Helvetica,sans-Serif" font-size="10.00">MonoBehaviour</text>
<polyline fill="none" stroke="black" points="138.978,-768.5 221.978,-768.5 "/>
<text text-anchor="middle" x="180.478" y="-756.5" font-family="Helvetica,sans-Serif" font-size="10.00"> </text>
<polyline fill="none" stroke="black" points="138.978,-749.5 221.978,-749.5 "/>
<text text-anchor="middle" x="180.478" y="-737.5" font-family="Helvetica,sans-Serif" font-size="10.00"> </text>
</a>
</g>
</g>
<!-- Node3&#45;&gt;Node2 -->
<g id="edge1" class="edge"><title>Node3&#45;&gt;Node2</title>
<path fill="none" stroke="midnightblue" d="M173.92,-720.475C166.399,-679.923 152.835,-613.633 135.478,-558 132.427,-548.221 128.43,-537.76 124.625,-528.505"/>
<polygon fill="none" stroke="midnightblue" points="170.504,-721.249 175.746,-730.456 177.39,-719.99 170.504,-721.249"/>
</g>
<!-- Node4 -->
<g id="node3" class="node"><title>Node4</title>
<g id="a_node3"><a xlink:href="class_data_manager.html" target="_top" xlink:title="An object to store all player data including players, items and money and provide useful functions ...">
<polygon fill="none" stroke="black" points="28.478,-686.5 28.478,-831.5 120.478,-831.5 120.478,-686.5 28.478,-686.5"/>
<text text-anchor="middle" x="74.478" y="-819.5" font-family="Helvetica,sans-Serif" font-size="10.00">DataManager</text>
<polyline fill="none" stroke="black" points="28.478,-812.5 120.478,-812.5 "/>
<text text-anchor="start" x="36.478" y="-800.5" font-family="Helvetica,sans-Serif" font-size="10.00">+ Players</text>
<text text-anchor="start" x="36.478" y="-789.5" font-family="Helvetica,sans-Serif" font-size="10.00">+ Items</text>
<text text-anchor="start" x="36.478" y="-778.5" font-family="Helvetica,sans-Serif" font-size="10.00">+ Money</text>
<polyline fill="none" stroke="black" points="28.478,-771.5 120.478,-771.5 "/>
<text text-anchor="start" x="36.478" y="-759.5" font-family="Helvetica,sans-Serif" font-size="10.00">+ DataManager()</text>
<text text-anchor="start" x="36.478" y="-748.5" font-family="Helvetica,sans-Serif" font-size="10.00">+ getFirstPlayer()</text>
<text text-anchor="start" x="36.478" y="-737.5" font-family="Helvetica,sans-Serif" font-size="10.00">+ playersAlive()</text>
<text text-anchor="start" x="36.478" y="-726.5" font-family="Helvetica,sans-Serif" font-size="10.00">+ addPlayer()</text>
<text text-anchor="start" x="36.478" y="-715.5" font-family="Helvetica,sans-Serif" font-size="10.00">+ swapPlayers()</text>
<text text-anchor="start" x="36.478" y="-704.5" font-family="Helvetica,sans-Serif" font-size="10.00">+ addItem()</text>
<text text-anchor="start" x="36.478" y="-693.5" font-family="Helvetica,sans-Serif" font-size="10.00">+ countItems()</text>
</a>
</g>
</g>
<!-- Node4&#45;&gt;Node2 -->
<g id="edge3" class="edge"><title>Node4&#45;&gt;Node2</title>
<path fill="none" stroke="#404040" d="M85.0631,-686.411C92.0233,-639.338 100.871,-579.497 106.603,-540.732"/>
<polygon fill="none" stroke="#404040" points="106.629,-540.557 103.55,-534.037 108.384,-528.687 111.464,-535.207 106.629,-540.557"/>
<text text-anchor="middle" x="117.478" y="-599.5" font-family="Helvetica,sans-Serif" font-size="10.00"> +data</text>
</g>
<!-- Node5 -->
<g id="node4" class="node"><title>Node5</title>
<g id="a_node4"><a xlink:href="class_item.html" target="_top" xlink:title="Abstract class for items that can be equipped to a player, increasing some of their stats ...">
<polygon fill="none" stroke="black" points="19.978,-1072.5 19.978,-1151.5 96.978,-1151.5 96.978,-1072.5 19.978,-1072.5"/>
<text text-anchor="middle" x="58.478" y="-1139.5" font-family="Helvetica,sans-Serif" font-size="10.00">Item</text>
<polyline fill="none" stroke="black" points="19.978,-1132.5 96.978,-1132.5 "/>
<text text-anchor="start" x="27.978" y="-1120.5" font-family="Helvetica,sans-Serif" font-size="10.00">+ Name</text>
<text text-anchor="start" x="27.978" y="-1109.5" font-family="Helvetica,sans-Serif" font-size="10.00">+ Desc</text>
<polyline fill="none" stroke="black" points="19.978,-1102.5 96.978,-1102.5 "/>
<text text-anchor="start" x="27.978" y="-1090.5" font-family="Helvetica,sans-Serif" font-size="10.00">+ applyBuffs()</text>
<text text-anchor="start" x="27.978" y="-1079.5" font-family="Helvetica,sans-Serif" font-size="10.00">+ revertBuffs()</text>
</a>
</g>
</g>
<!-- Node5&#45;&gt;Node4 -->
<g id="edge4" class="edge"><title>Node5&#45;&gt;Node4</title>
<path fill="none" stroke="#404040" d="M60.2361,-1072.43C62.7263,-1017.8 67.3448,-916.485 70.6475,-844.032"/>
<polygon fill="none" stroke="#404040" points="70.6603,-843.75 66.9377,-837.574 71.2068,-831.762 74.9294,-837.938 70.6603,-843.75"/>
<text text-anchor="middle" x="83.978" y="-955" font-family="Helvetica,sans-Serif" font-size="10.00"> &#45;items</text>
</g>
<!-- Node8 -->
<g id="node7" class="node"><title>Node8</title>
<g id="a_node7"><a xlink:href="class_player.html" target="_top" xlink:title="Defines a playable character for use in battle scenes">
<polygon fill="none" stroke="black" points="184.478,-901.5 184.478,-1013.5 296.478,-1013.5 296.478,-901.5 184.478,-901.5"/>
<text text-anchor="middle" x="240.478" y="-1001.5" font-family="Helvetica,sans-Serif" font-size="10.00">Player</text>
<polyline fill="none" stroke="black" points="184.478,-994.5 296.478,-994.5 "/>
<text text-anchor="start" x="192.478" y="-982.5" font-family="Helvetica,sans-Serif" font-size="10.00">+ Exp</text>
<text text-anchor="start" x="192.478" y="-971.5" font-family="Helvetica,sans-Serif" font-size="10.00">+ Item</text>
<text text-anchor="start" x="192.478" y="-960.5" font-family="Helvetica,sans-Serif" font-size="10.00">+ ExpToNextLevel</text>
<polyline fill="none" stroke="black" points="184.478,-953.5 296.478,-953.5 "/>
<text text-anchor="start" x="192.478" y="-941.5" font-family="Helvetica,sans-Serif" font-size="10.00">+ Player()</text>
<text text-anchor="start" x="192.478" y="-930.5" font-family="Helvetica,sans-Serif" font-size="10.00">+ gainExp()</text>
<text text-anchor="start" x="192.478" y="-919.5" font-family="Helvetica,sans-Serif" font-size="10.00">+ levelUp()</text>
<text text-anchor="start" x="192.478" y="-908.5" font-family="Helvetica,sans-Serif" font-size="10.00">&#45; setExpToNextLevel()</text>
</a>
</g>
</g>
<!-- Node5&#45;&gt;Node8 -->
<g id="edge26" class="edge"><title>Node5&#45;&gt;Node8</title>
<path fill="none" stroke="#404040" d="M97.0755,-1078.66C119.658,-1059.74 148.772,-1035.34 174.86,-1013.48"/>
<polygon fill="none" stroke="#404040" points="175.119,-1013.26 177.149,-1006.35 184.317,-1005.56 182.287,-1012.48 175.119,-1013.26"/>
<text text-anchor="middle" x="161.978" y="-1040.5" font-family="Helvetica,sans-Serif" font-size="10.00"> &#45;item</text>
</g>
<!-- Node6 -->
<g id="node5" class="node"><title>Node6</title>
<polygon fill="none" stroke="#bfbfbf" points="571.978,-1210.5 571.978,-1267.5 612.978,-1267.5 612.978,-1210.5 571.978,-1210.5"/>
<text text-anchor="middle" x="592.478" y="-1255.5" font-family="Helvetica,sans-Serif" font-size="10.00">string</text>
<polyline fill="none" stroke="#bfbfbf" points="571.978,-1248.5 612.978,-1248.5 "/>
<text text-anchor="middle" x="592.478" y="-1236.5" font-family="Helvetica,sans-Serif" font-size="10.00"> </text>
<polyline fill="none" stroke="#bfbfbf" points="571.978,-1229.5 612.978,-1229.5 "/>
<text text-anchor="middle" x="592.478" y="-1217.5" font-family="Helvetica,sans-Serif" font-size="10.00"> </text>
</g>
<!-- Node6&#45;&gt;Node5 -->
<g id="edge5" class="edge"><title>Node6&#45;&gt;Node5</title>
<path fill="none" stroke="#404040" d="M571.872,-1233.18C494.846,-1215.15 222.464,-1151.39 108.838,-1124.79"/>
<polygon fill="none" stroke="#404040" points="108.751,-1124.77 101.997,-1127.3 97.067,-1122.03 103.821,-1119.51 108.751,-1124.77"/>
<text text-anchor="middle" x="404.478" y="-1184" font-family="Helvetica,sans-Serif" font-size="10.00"> #desc</text>
<text text-anchor="middle" x="404.478" y="-1173" font-family="Helvetica,sans-Serif" font-size="10.00">#name</text>
</g>
<!-- Node9 -->
<g id="node8" class="node"><title>Node9</title>
<g id="a_node8"><a xlink:href="class_character.html" target="_top" xlink:title="Base abstract class for Enemy and Player to inherit from. Defines all shared variables, their constructor and their setters and getters ">
<polygon fill="none" stroke="black" points="403.978,-95.5 403.978,-273.5 498.978,-273.5 498.978,-95.5 403.978,-95.5"/>
<text text-anchor="middle" x="451.478" y="-261.5" font-family="Helvetica,sans-Serif" font-size="10.00">Character</text>
<polyline fill="none" stroke="black" points="403.978,-254.5 498.978,-254.5 "/>
<text text-anchor="start" x="411.978" y="-242.5" font-family="Helvetica,sans-Serif" font-size="10.00">+ Name</text>
<text text-anchor="start" x="411.978" y="-231.5" font-family="Helvetica,sans-Serif" font-size="10.00">+ Level</text>
<text text-anchor="start" x="411.978" y="-220.5" font-family="Helvetica,sans-Serif" font-size="10.00">+ Health</text>
<text text-anchor="start" x="411.978" y="-209.5" font-family="Helvetica,sans-Serif" font-size="10.00">+ Attack</text>
<text text-anchor="start" x="411.978" y="-198.5" font-family="Helvetica,sans-Serif" font-size="10.00">+ Defence</text>
<text text-anchor="start" x="411.978" y="-187.5" font-family="Helvetica,sans-Serif" font-size="10.00">+ MaximumMagic</text>
<text text-anchor="start" x="411.978" y="-176.5" font-family="Helvetica,sans-Serif" font-size="10.00">+ Magic</text>
<text text-anchor="start" x="411.978" y="-165.5" font-family="Helvetica,sans-Serif" font-size="10.00">+ Luck</text>
<text text-anchor="start" x="411.978" y="-154.5" font-family="Helvetica,sans-Serif" font-size="10.00">+ Speed</text>
<text text-anchor="start" x="411.978" y="-143.5" font-family="Helvetica,sans-Serif" font-size="10.00">+ Special1</text>
<text text-anchor="start" x="411.978" y="-132.5" font-family="Helvetica,sans-Serif" font-size="10.00">+ Special2</text>
<text text-anchor="start" x="411.978" y="-121.5" font-family="Helvetica,sans-Serif" font-size="10.00">+ Image</text>
<polyline fill="none" stroke="black" points="403.978,-114.5 498.978,-114.5 "/>
<text text-anchor="start" x="411.978" y="-102.5" font-family="Helvetica,sans-Serif" font-size="10.00"># Character()</text>
</a>
</g>
</g>
<!-- Node6&#45;&gt;Node9 -->
<g id="edge9" class="edge"><title>Node6&#45;&gt;Node9</title>
<path fill="none" stroke="#404040" d="M613.127,-1223.21C639.976,-1202.08 683.478,-1160.51 683.478,-1113 683.478,-1113 683.478,-1113 683.478,-376.5 683.478,-286.987 579.267,-231.665 510.532,-204.912"/>
<polygon fill="none" stroke="#404040" points="510.214,-204.791 503.188,-206.415 498.987,-200.554 506.012,-198.931 510.214,-204.791"/>
<text text-anchor="middle" x="699.978" y="-756.5" font-family="Helvetica,sans-Serif" font-size="10.00"> #name</text>
</g>
<!-- Node10 -->
<g id="node9" class="node"><title>Node10</title>
<g id="a_node9"><a xlink:href="class_special_move.html" target="_top" xlink:title="Special move abstract base class that expands upon CharacterMove, adding magic properties ...">
<polygon fill="none" stroke="black" points="500.478,-332.5 500.478,-422.5 598.478,-422.5 598.478,-332.5 500.478,-332.5"/>
<text text-anchor="middle" x="549.478" y="-410.5" font-family="Helvetica,sans-Serif" font-size="10.00">SpecialMove</text>
<polyline fill="none" stroke="black" points="500.478,-403.5 598.478,-403.5 "/>
<text text-anchor="start" x="508.478" y="-391.5" font-family="Helvetica,sans-Serif" font-size="10.00">+ Magic</text>
<text text-anchor="start" x="508.478" y="-380.5" font-family="Helvetica,sans-Serif" font-size="10.00">+ Desc</text>
<polyline fill="none" stroke="black" points="500.478,-373.5 598.478,-373.5 "/>
<text text-anchor="start" x="508.478" y="-361.5" font-family="Helvetica,sans-Serif" font-size="10.00">+ setUp()</text>
<text text-anchor="start" x="508.478" y="-350.5" font-family="Helvetica,sans-Serif" font-size="10.00">+ decreaseMagic()</text>
<text text-anchor="start" x="508.478" y="-339.5" font-family="Helvetica,sans-Serif" font-size="10.00"># SpecialMove()</text>
</a>
</g>
</g>
<!-- Node6&#45;&gt;Node10 -->
<g id="edge23" class="edge"><title>Node6&#45;&gt;Node10</title>
<path fill="none" stroke="#404040" d="M602.856,-1210.08C604.687,-1204.18 606.362,-1197.94 607.478,-1192 622.105,-1114.13 614.609,-1093.18 617.478,-1014 624.816,-811.449 662.854,-756.823 623.478,-558 614.851,-514.439 595.506,-468.175 578.758,-433.527"/>
<polygon fill="none" stroke="#404040" points="578.73,-433.469 572.491,-429.854 573.429,-422.704 579.668,-426.32 578.73,-433.469"/>
<text text-anchor="middle" x="642.478" y="-875" font-family="Helvetica,sans-Serif" font-size="10.00"> #desc</text>
</g>
<!-- Node11 -->
<g id="node10" class="node"><title>Node11</title>
<g id="a_node10"><a xlink:href="class_character_move.html" target="_top" xlink:title="Astract base class for character moves ">
<polygon fill="none" stroke="black" points="377.478,-460.5 377.478,-539.5 463.478,-539.5 463.478,-460.5 377.478,-460.5"/>
<text text-anchor="middle" x="420.478" y="-527.5" font-family="Helvetica,sans-Serif" font-size="10.00">CharacterMove</text>
<polyline fill="none" stroke="black" points="377.478,-520.5 463.478,-520.5 "/>
<text text-anchor="start" x="385.478" y="-508.5" font-family="Helvetica,sans-Serif" font-size="10.00">+ User</text>
<text text-anchor="start" x="385.478" y="-497.5" font-family="Helvetica,sans-Serif" font-size="10.00">+ Target</text>
<text text-anchor="start" x="385.478" y="-486.5" font-family="Helvetica,sans-Serif" font-size="10.00">+ Text</text>
<polyline fill="none" stroke="black" points="377.478,-479.5 463.478,-479.5 "/>
<text text-anchor="start" x="385.478" y="-467.5" font-family="Helvetica,sans-Serif" font-size="10.00">+ performMove()</text>
</a>
</g>
</g>
<!-- Node6&#45;&gt;Node11 -->
<g id="edge13" class="edge"><title>Node6&#45;&gt;Node11</title>
<path fill="none" stroke="#404040" d="M593.356,-1210.34C595.138,-1125.61 593.863,-863.284 519.478,-664 504.187,-623.033 478.324,-580.953 456.867,-549.812"/>
<polygon fill="none" stroke="#404040" points="456.662,-549.519 449.944,-546.897 449.781,-539.688 456.499,-542.31 456.662,-549.519"/>
<text text-anchor="middle" x="600.978" y="-955" font-family="Helvetica,sans-Serif" font-size="10.00"> #text</text>
</g>
<!-- Node12 -->
<g id="node11" class="node"><title>Node12</title>
<g id="a_node11"><a xlink:href="class_battle_manager.html" target="_top" xlink:title="Holds current Player and Enemy objects in battle and provides functions for MainBattle and other obje...">
<polygon fill="none" stroke="black" points="296.478,-664.5 296.478,-853.5 412.478,-853.5 412.478,-664.5 296.478,-664.5"/>
<text text-anchor="middle" x="354.478" y="-841.5" font-family="Helvetica,sans-Serif" font-size="10.00">BattleManager</text>
<polyline fill="none" stroke="black" points="296.478,-834.5 412.478,-834.5 "/>
<text text-anchor="start" x="304.478" y="-822.5" font-family="Helvetica,sans-Serif" font-size="10.00">+ Player</text>
<text text-anchor="start" x="304.478" y="-811.5" font-family="Helvetica,sans-Serif" font-size="10.00">+ Enemy</text>
<text text-anchor="start" x="304.478" y="-800.5" font-family="Helvetica,sans-Serif" font-size="10.00">+ WasCriticalHit</text>
<polyline fill="none" stroke="black" points="296.478,-793.5 412.478,-793.5 "/>
<text text-anchor="start" x="304.478" y="-781.5" font-family="Helvetica,sans-Serif" font-size="10.00">+ BattleManager()</text>
<text text-anchor="start" x="304.478" y="-770.5" font-family="Helvetica,sans-Serif" font-size="10.00">+ playerFirst()</text>
<text text-anchor="start" x="304.478" y="-759.5" font-family="Helvetica,sans-Serif" font-size="10.00">+ switchPlayers()</text>
<text text-anchor="start" x="304.478" y="-748.5" font-family="Helvetica,sans-Serif" font-size="10.00">+ isCriticalHit()</text>
<text text-anchor="start" x="304.478" y="-737.5" font-family="Helvetica,sans-Serif" font-size="10.00">+ ranAway()</text>
<text text-anchor="start" x="304.478" y="-726.5" font-family="Helvetica,sans-Serif" font-size="10.00">+ damageCalculation()</text>
<text text-anchor="start" x="304.478" y="-715.5" font-family="Helvetica,sans-Serif" font-size="10.00">+ enemyMove()</text>
<text text-anchor="start" x="304.478" y="-704.5" font-family="Helvetica,sans-Serif" font-size="10.00">+ enemySpecialMove()</text>
<text text-anchor="start" x="304.478" y="-693.5" font-family="Helvetica,sans-Serif" font-size="10.00">+ battleWon()</text>
<text text-anchor="start" x="304.478" y="-682.5" font-family="Helvetica,sans-Serif" font-size="10.00">+ playerFainted()</text>
<text text-anchor="start" x="304.478" y="-671.5" font-family="Helvetica,sans-Serif" font-size="10.00">&#45; characterFainted()</text>
</a>
</g>
</g>
<!-- Node6&#45;&gt;Node12 -->
<g id="edge16" class="edge"><title>Node6&#45;&gt;Node12</title>
<path fill="none" stroke="#404040" d="M575.97,-1210.31C555.262,-1174.87 519.446,-1111.22 494.478,-1054 465.698,-988.041 472.336,-966.013 441.478,-901 434.746,-886.816 426.929,-872.27 418.796,-858.161"/>
<polygon fill="none" stroke="#404040" points="418.597,-857.822 412.112,-854.67 412.528,-847.471 419.013,-850.623 418.597,-857.822"/>
<text text-anchor="middle" x="536.478" y="-1046" font-family="Helvetica,sans-Serif" font-size="10.00"> +forceEnemyMove</text>
<text text-anchor="middle" x="536.478" y="-1035" font-family="Helvetica,sans-Serif" font-size="10.00">+forceCriticalHits</text>
</g>
<!-- Node7 -->
<g id="node6" class="node"><title>Node7</title>
<polygon fill="none" stroke="#bfbfbf" points="312.978,-1083.5 312.978,-1140.5 341.978,-1140.5 341.978,-1083.5 312.978,-1083.5"/>
<text text-anchor="middle" x="327.478" y="-1128.5" font-family="Helvetica,sans-Serif" font-size="10.00">int</text>
<polyline fill="none" stroke="#bfbfbf" points="312.978,-1121.5 341.978,-1121.5 "/>
<text text-anchor="middle" x="327.478" y="-1109.5" font-family="Helvetica,sans-Serif" font-size="10.00"> </text>
<polyline fill="none" stroke="#bfbfbf" points="312.978,-1102.5 341.978,-1102.5 "/>
<text text-anchor="middle" x="327.478" y="-1090.5" font-family="Helvetica,sans-Serif" font-size="10.00"> </text>
</g>
<!-- Node7&#45;&gt;Node4 -->
<g id="edge6" class="edge"><title>Node7&#45;&gt;Node4</title>
<path fill="none" stroke="#404040" d="M312.875,-1107.81C277.372,-1099.27 186.037,-1072.47 139.478,-1014 118.534,-987.699 100.116,-907.169 88.2844,-843.756"/>
<polygon fill="none" stroke="#404040" points="88.2433,-843.532 83.2271,-838.351 86.0798,-831.728 91.096,-836.909 88.2433,-843.532"/>
<text text-anchor="middle" x="157.478" y="-955" font-family="Helvetica,sans-Serif" font-size="10.00"> &#45;money</text>
</g>
<!-- Node7&#45;&gt;Node8 -->
<g id="edge27" class="edge"><title>Node7&#45;&gt;Node8</title>
<path fill="none" stroke="#404040" d="M312.916,-1085.47C303.313,-1068.64 290.267,-1045.77 277.892,-1024.08"/>
<polygon fill="none" stroke="#404040" points="277.835,-1023.98 271.387,-1020.75 271.888,-1013.56 278.336,-1016.79 277.835,-1023.98"/>
<text text-anchor="middle" x="331.978" y="-1046" font-family="Helvetica,sans-Serif" font-size="10.00"> &#45;expToNextLevel</text>
<text text-anchor="middle" x="331.978" y="-1035" font-family="Helvetica,sans-Serif" font-size="10.00">&#45;exp</text>
</g>
<!-- Node7&#45;&gt;Node9 -->
<g id="edge10" class="edge"><title>Node7&#45;&gt;Node9</title>
<path fill="none" stroke="#404040" d="M342.106,-1109.5C387.663,-1104.5 525.613,-1086.87 553.478,-1054 562.417,-1043.45 593.246,-571.77 594.478,-558 603.444,-457.79 647.434,-424.336 607.478,-332 587.45,-285.716 544.802,-247.327 509.153,-221.473"/>
<polygon fill="none" stroke="#404040" points="509.109,-221.442 501.901,-221.246 499.309,-214.517 506.517,-214.712 509.109,-221.442"/>
<text text-anchor="middle" x="631.978" y="-638" font-family="Helvetica,sans-Serif" font-size="10.00"> #speed</text>
<text text-anchor="middle" x="631.978" y="-627" font-family="Helvetica,sans-Serif" font-size="10.00">#luck</text>
<text text-anchor="middle" x="631.978" y="-616" font-family="Helvetica,sans-Serif" font-size="10.00">#health</text>
<text text-anchor="middle" x="631.978" y="-605" font-family="Helvetica,sans-Serif" font-size="10.00">#magic</text>
<text text-anchor="middle" x="631.978" y="-594" font-family="Helvetica,sans-Serif" font-size="10.00">#maximumMagic</text>
<text text-anchor="middle" x="631.978" y="-583" font-family="Helvetica,sans-Serif" font-size="10.00">#attack</text>
<text text-anchor="middle" x="631.978" y="-572" font-family="Helvetica,sans-Serif" font-size="10.00">#defence</text>
<text text-anchor="middle" x="631.978" y="-561" font-family="Helvetica,sans-Serif" font-size="10.00">#level</text>
</g>
<!-- Node7&#45;&gt;Node10 -->
<g id="edge24" class="edge"><title>Node7&#45;&gt;Node10</title>
<path fill="none" stroke="#404040" d="M341.984,-1103.03C366.52,-1088.73 415.843,-1056.19 439.478,-1014 516.54,-876.437 470.461,-819.345 497.478,-664 511.311,-584.462 528.201,-492.635 538.9,-435.068"/>
<polygon fill="none" stroke="#404040" points="538.957,-434.765 536.122,-428.135 541.152,-422.968 543.987,-429.598 538.957,-434.765"/>
<text text-anchor="middle" x="514.978" y="-756.5" font-family="Helvetica,sans-Serif" font-size="10.00"> #magic</text>
</g>
<!-- Node7&#45;&gt;Node12 -->
<g id="edge20" class="edge"><title>Node7&#45;&gt;Node12</title>
<path fill="none" stroke="#404040" d="M342.032,-1096.91C352.241,-1086.15 365.301,-1070.4 372.478,-1054 380.673,-1035.27 403.359,-892.072 399.478,-872 399.056,-869.819 398.592,-867.626 398.09,-865.427"/>
<polygon fill="none" stroke="#404040" points="398.045,-865.252 392.681,-860.433 395.067,-853.628 400.431,-858.447 398.045,-865.252"/>
<text text-anchor="middle" x="417.978" y="-955" font-family="Helvetica,sans-Serif" font-size="10.00"> +money</text>
</g>
<!-- Node13 -->
<g id="node12" class="node"><title>Node13</title>
<g id="a_node12"><a xlink:href="class_enemy.html" target="_top" xlink:title="Defines an AI controller enemy to fight in battle scenes">
<polygon fill="none" stroke="black" points="262.978,-0.5 262.978,-57.5 329.978,-57.5 329.978,-0.5 262.978,-0.5"/>
<text text-anchor="middle" x="296.478" y="-45.5" font-family="Helvetica,sans-Serif" font-size="10.00">Enemy</text>
<polyline fill="none" stroke="black" points="262.978,-38.5 329.978,-38.5 "/>
<text text-anchor="start" x="270.978" y="-26.5" font-family="Helvetica,sans-Serif" font-size="10.00">+ ExpGiven</text>
<polyline fill="none" stroke="black" points="262.978,-19.5 329.978,-19.5 "/>
<text text-anchor="start" x="270.978" y="-7.5" font-family="Helvetica,sans-Serif" font-size="10.00">+ Enemy()</text>
</a>
</g>
</g>
<!-- Node7&#45;&gt;Node13 -->
<g id="edge19" class="edge"><title>Node7&#45;&gt;Node13</title>
<path fill="none" stroke="#404040" d="M312.858,-1110.02C270.77,-1106.3 149.108,-1089.22 98.478,-1014 69.5862,-971.077 96.8374,-945.523 70.478,-901 54.7747,-874.476 34.6013,-880.859 19.478,-854 -1.43407,-816.86 0.478023,-802.623 0.478023,-760 0.478023,-760 0.478023,-760 0.478023,-183.5 0.478023,-72.1385 167.628,-41.4642 250.714,-33.0956"/>
<polygon fill="none" stroke="#404040" points="250.862,-33.082 256.468,-28.5457 262.811,-31.9753 257.206,-36.5116 250.862,-33.082"/>
<text text-anchor="middle" x="23.478" y="-497.5" font-family="Helvetica,sans-Serif" font-size="10.00"> &#45;expGiven</text>
</g>
<!-- Node8&#45;&gt;Node4 -->
<g id="edge7" class="edge"><title>Node8&#45;&gt;Node4</title>
<path fill="none" stroke="#404040" d="M184.233,-910.454C165.63,-893.748 145.587,-874.032 129.478,-854 126.345,-850.105 123.273,-846.011 120.282,-841.802"/>
<polygon fill="none" stroke="#404040" points="120.227,-841.722 113.541,-839.022 113.461,-831.811 120.148,-834.511 120.227,-841.722"/>
<text text-anchor="middle" x="173.478" y="-875" font-family="Helvetica,sans-Serif" font-size="10.00"> &#45;players</text>
</g>
<!-- Node8&#45;&gt;Node12 -->
<g id="edge22" class="edge"><title>Node8&#45;&gt;Node12</title>
<path fill="none" stroke="#404040" d="M272.537,-901.241C279.277,-889.623 286.596,-877.007 293.994,-864.255"/>
<polygon fill="none" stroke="#404040" points="294.194,-863.91 293.745,-856.713 300.216,-853.53 300.665,-860.727 294.194,-863.91"/>
<text text-anchor="middle" x="303.978" y="-875" font-family="Helvetica,sans-Serif" font-size="10.00"> &#45;player</text>
</g>
<!-- Node9&#45;&gt;Node8 -->
<g id="edge8" class="edge"><title>Node9&#45;&gt;Node8</title>
<path fill="none" stroke="midnightblue" d="M395.338,-215.022C353.967,-240.115 300.544,-280.289 274.478,-332 224.688,-430.777 232.616,-767.913 237.927,-901.419"/>
<polygon fill="none" stroke="midnightblue" points="397.157,-218.013 403.969,-209.898 393.583,-211.994 397.157,-218.013"/>
</g>
<!-- Node9&#45;&gt;Node11 -->
<g id="edge14" class="edge"><title>Node9&#45;&gt;Node11</title>
<path fill="none" stroke="#404040" d="M403.855,-263.117C393.017,-284.656 383.058,-308.578 377.478,-332 368.105,-371.343 367.181,-383.888 377.478,-423 379.866,-432.071 383.612,-441.197 387.92,-449.821"/>
<polygon fill="none" stroke="#404040" points="387.941,-449.862 394.303,-453.257 393.616,-460.435 387.254,-457.04 387.941,-449.862"/>
<text text-anchor="middle" x="394.478" y="-380.5" font-family="Helvetica,sans-Serif" font-size="10.00"> #target</text>
<text text-anchor="middle" x="394.478" y="-369.5" font-family="Helvetica,sans-Serif" font-size="10.00">#user</text>
</g>
<!-- Node9&#45;&gt;Node13 -->
<g id="edge18" class="edge"><title>Node9&#45;&gt;Node13</title>
<path fill="none" stroke="midnightblue" d="M396.591,-129.144C372.198,-104.987 344.53,-77.5868 324.472,-57.7227"/>
<polygon fill="none" stroke="midnightblue" points="394.14,-131.643 403.708,-136.192 399.066,-126.669 394.14,-131.643"/>
</g>
<!-- Node10&#45;&gt;Node9 -->
<g id="edge11" class="edge"><title>Node10&#45;&gt;Node9</title>
<path fill="none" stroke="#404040" d="M526.749,-332.201C519.374,-317.827 510.871,-301.257 502.295,-284.541"/>
<polygon fill="none" stroke="#404040" points="502.137,-284.234 495.84,-280.722 496.659,-273.557 502.957,-277.07 502.137,-284.234"/>
<text text-anchor="middle" x="537.978" y="-306" font-family="Helvetica,sans-Serif" font-size="10.00"> #special1</text>
<text text-anchor="middle" x="537.978" y="-295" font-family="Helvetica,sans-Serif" font-size="10.00">#special2</text>
</g>
<!-- Node11&#45;&gt;Node10 -->
<g id="edge12" class="edge"><title>Node11&#45;&gt;Node10</title>
<path fill="none" stroke="midnightblue" d="M469.344,-453.354C480.112,-443.296 491.498,-432.66 502.201,-422.661"/>
<polygon fill="none" stroke="midnightblue" points="466.923,-450.826 462.005,-460.21 471.701,-455.941 466.923,-450.826"/>
</g>
<!-- Node12&#45;&gt;Node11 -->
<g id="edge15" class="edge"><title>Node12&#45;&gt;Node11</title>
<path fill="none" stroke="#404040" d="M378.492,-664.49C388.297,-626.311 399.247,-583.672 407.506,-551.513"/>
<polygon fill="none" stroke="#404040" points="407.546,-551.355 405.165,-544.548 410.531,-539.732 412.913,-546.538 407.546,-551.355"/>
<text text-anchor="middle" x="428.478" y="-599.5" font-family="Helvetica,sans-Serif" font-size="10.00"> #manager</text>
</g>
<!-- Node13&#45;&gt;Node12 -->
<g id="edge17" class="edge"><title>Node13&#45;&gt;Node12</title>
<path fill="none" stroke="#404040" d="M296.478,-57.7302C296.478,-88.4721 296.478,-139.529 296.478,-183.5 296.478,-501 296.478,-501 296.478,-501 296.478,-551.598 307.308,-606.455 319.608,-652.443"/>
<polygon fill="none" stroke="#404040" points="319.67,-652.671 325.116,-657.397 322.847,-664.242 317.402,-659.515 319.67,-652.671"/>
<text text-anchor="middle" x="314.478" y="-375" font-family="Helvetica,sans-Serif" font-size="10.00"> &#45;enemy</text>
</g>
<!-- Node14 -->
<g id="node13" class="node"><title>Node14</title>
<polygon fill="none" stroke="#bfbfbf" points="314.978,-929 314.978,-986 349.978,-986 349.978,-929 314.978,-929"/>
<text text-anchor="middle" x="332.478" y="-974" font-family="Helvetica,sans-Serif" font-size="10.00">bool</text>
<polyline fill="none" stroke="#bfbfbf" points="314.978,-967 349.978,-967 "/>
<text text-anchor="middle" x="332.478" y="-955" font-family="Helvetica,sans-Serif" font-size="10.00"> </text>
<polyline fill="none" stroke="#bfbfbf" points="314.978,-948 349.978,-948 "/>
<text text-anchor="middle" x="332.478" y="-936" font-family="Helvetica,sans-Serif" font-size="10.00"> </text>
</g>
<!-- Node14&#45;&gt;Node12 -->
<g id="edge21" class="edge"><title>Node14&#45;&gt;Node12</title>
<path fill="none" stroke="#404040" d="M331.597,-928.651C331.376,-912.143 331.615,-890.834 333.478,-872 333.682,-869.936 333.905,-867.853 334.144,-865.756"/>
<polygon fill="none" stroke="#404040" points="334.172,-865.537 330.96,-859.081 335.684,-853.632 338.896,-860.088 334.172,-865.537"/>
<text text-anchor="middle" x="366.478" y="-875" font-family="Helvetica,sans-Serif" font-size="10.00"> &#45;wasCriticalHit</text>
</g>
<!-- Node15 -->
<g id="node14" class="node"><title>Node15</title>
<polygon fill="none" stroke="#bfbfbf" points="420.978,-349 420.978,-406 481.978,-406 481.978,-349 420.978,-349"/>
<text text-anchor="middle" x="451.478" y="-394" font-family="Helvetica,sans-Serif" font-size="10.00">Texture2D</text>
<polyline fill="none" stroke="#bfbfbf" points="420.978,-387 481.978,-387 "/>
<text text-anchor="middle" x="451.478" y="-375" font-family="Helvetica,sans-Serif" font-size="10.00"> </text>
<polyline fill="none" stroke="#bfbfbf" points="420.978,-368 481.978,-368 "/>
<text text-anchor="middle" x="451.478" y="-356" font-family="Helvetica,sans-Serif" font-size="10.00"> </text>
</g>
<!-- Node15&#45;&gt;Node9 -->
<g id="edge25" class="edge"><title>Node15&#45;&gt;Node9</title>
<path fill="none" stroke="#404040" d="M451.478,-348.727C451.478,-331.811 451.478,-309.053 451.478,-285.91"/>
<polygon fill="none" stroke="#404040" points="451.478,-285.802 447.478,-279.802 451.478,-273.802 455.478,-279.802 451.478,-285.802"/>
<text text-anchor="middle" x="468.978" y="-300.5" font-family="Helvetica,sans-Serif" font-size="10.00"> #image</text>
</g>
</g>
</svg>
        <g id="navigator" transform="translate(0 0)" fill="#404254">
                <rect fill="#f2f5e9" fill-opacity="0.5" stroke="#606060" stroke-width=".5" x="0" y="0" width="60" height="60"/>
                <use id="zoomplus" xlink:href="#zoomPlus" x="17" y="9" onmousedown="handleZoom(evt,'in')"/>
                <use id="zoomminus" xlink:href="#zoomMin" x="42" y="9" onmousedown="handleZoom(evt,'out')"/>
                <use id="reset" xlink:href="#resetDef" x="30" y="36" onmousedown="handleReset()"/>
                <g id="arrowUp" xlink:href="#dirArrow" transform="translate(30 24)" onmousedown="handlePan(0,-1)">
                  <use xlink:href="#rim" fill="#404040">
                        <set attributeName="fill" to="#808080" begin="arrowUp.mouseover" end="arrowUp.mouseout"/>
                  </use>
                  <path fill="none" stroke="white" stroke-width="1.5" d="M0,-3.0v7 M-2.5,-0.5L0,-3.0L2.5,-0.5"/>
                </g>
                <g id="arrowRight" xlink:href="#dirArrow" transform="rotate(90) translate(36 -43)" onmousedown="handlePan(1,0)">
                  <use xlink:href="#rim" fill="#404040">
                        <set attributeName="fill" to="#808080" begin="arrowRight.mouseover" end="arrowRight.mouseout"/>
                  </use>
                  <path fill="none" stroke="white" stroke-width="1.5" d="M0,-3.0v7 M-2.5,-0.5L0,-3.0L2.5,-0.5"/>
                </g>
                <g id="arrowDown" xlink:href="#dirArrow" transform="rotate(180) translate(-30 -48)" onmousedown="handlePan(0,1)">
                  <use xlink:href="#rim" fill="#404040">
                        <set attributeName="fill" to="#808080" begin="arrowDown.mouseover" end="arrowDown.mouseout"/>
                  </use>
                  <path fill="none" stroke="white" stroke-width="1.5" d="M0,-3.0v7 M-2.5,-0.5L0,-3.0L2.5,-0.5"/>
                </g>
                <g id="arrowLeft" xlink:href="#dirArrow" transform="rotate(270) translate(-36 17)" onmousedown="handlePan(-1,0)">
                  <use xlink:href="#rim" fill="#404040">
                        <set attributeName="fill" to="#808080" begin="arrowLeft.mouseover" end="arrowLeft.mouseout"/>
                  </use>
                  <path fill="none" stroke="white" stroke-width="1.5" d="M0,-3.0v7 M-2.5,-0.5L0,-3.0L2.5,-0.5"/>
                </g>
        </g>
        <svg viewBox="0 0 15 15" width="100%" height="30px" preserveAspectRatio="xMaxYMin meet">
         <g id="arrow_out" transform="scale(0.3 0.3)">
          <a xlink:href="class_player_data__coll__graph_org.svg" target="_base">
           <rect id="button" ry="5" rx="5" y="6" x="6" height="38" width="38"
                fill="#f2f5e9" fill-opacity="0.5" stroke="#606060" stroke-width="1.0"/>
           <path id="arrow"
             d="M 11.500037,31.436501 C 11.940474,20.09759 22.043105,11.32322 32.158766,21.979434 L 37.068811,17.246167 C 37.068811,17.246167 37.088388,32 37.088388,32 L 22.160133,31.978069 C 22.160133,31.978069 26.997745,27.140456 26.997745,27.140456 C 18.528582,18.264221 13.291696,25.230495 11.500037,31.436501 z"
             style="fill:#404040;"/>
          </a>
         </g>
        </svg>
</svg>
