<?xml version="1.0" encoding="UTF-8" standalone="no"?>
<!DOCTYPE svg PUBLIC "-//W3C//DTD SVG 1.1//EN"
 "http://www.w3.org/Graphics/SVG/1.1/DTD/svg11.dtd">
<!-- Generated by graphviz version 2.38.0 (20140413.2041)
 -->
<!-- Title: GlobalFunctions Pages: 1 -->
<!--zoomable 1479 -->
<svg id="main" version="1.1" xmlns="http://www.w3.org/2000/svg" xmlns:xlink="http://www.w3.org/1999/xlink" xml:space="preserve" onload="init(evt)">
<style type="text/css"><![CDATA[
.edge:hover path { stroke: red; }
.edge:hover polygon { stroke: red; fill: red; }
]]></style>
<script type="text/javascript"><![CDATA[
var edges = document.getElementsByTagName('g');
if (edges && edges.length) {
  for (var i=0;i<edges.length;i++) {
    if (edges[i].id.substr(0,4)=='edge') {
      edges[i].setAttribute('class','edge');
    }
  }
}
]]></script>
        <defs>
                <circle id="rim" cx="0" cy="0" r="7"/>
                <circle id="rim2" cx="0" cy="0" r="3.5"/>
                <g id="zoomPlus">
                        <use xlink:href="#rim" fill="#404040">
                                <set attributeName="fill" to="#808080" begin="zoomplus.mouseover" end="zoomplus.mouseout"/>
                        </use>
                        <path d="M-4,0h8M0,-4v8" fill="none" stroke="white" stroke-width="1.5" pointer-events="none"/>
                </g>
                <g id="zoomMin">
                        <use xlink:href="#rim" fill="#404040">
                                <set attributeName="fill" to="#808080" begin="zoomminus.mouseover" end="zoomminus.mouseout"/>
                        </use>
                        <path d="M-4,0h8" fill="none" stroke="white" stroke-width="1.5" pointer-events="none"/>
                </g>
                <g id="dirArrow">
                        <path fill="none" stroke="white" stroke-width="1.5" d="M0,-3.0v7 M-2.5,-0.5L0,-3.0L2.5,-0.5"/>
                </g>
               <g id="resetDef">
                       <use xlink:href="#rim2" fill="#404040">
                               <set attributeName="fill" to="#808080" begin="reset.mouseover" end="reset.mouseout"/>
                       </use>
               </g>
        </defs>

<script type="text/javascript">
var viewWidth = 1150;
var viewHeight = 1479;
var sectionId = 'dynsection-1';
</script>
<script xlink:href="svgpan.js"/>
<svg id="graph" class="graph">
<g id="viewport">
<title>GlobalFunctions</title>
<!-- Node2 -->
<g id="node1" class="node"><title>Node2</title>
<polygon fill="#bfbfbf" stroke="black" points="291,-0.5 291,-123.5 378,-123.5 378,-0.5 291,-0.5"/>
<text text-anchor="middle" x="334.5" y="-111.5" font-family="Helvetica,sans-Serif" font-size="10.00">GlobalFunctions</text>
<polyline fill="none" stroke="black" points="291,-104.5 378,-104.5 "/>
<text text-anchor="middle" x="334.5" y="-92.5" font-family="Helvetica,sans-Serif" font-size="10.00"> </text>
<polyline fill="none" stroke="black" points="291,-85.5 378,-85.5 "/>
<text text-anchor="start" x="299" y="-73.5" font-family="Helvetica,sans-Serif" font-size="10.00">+ createBattle()</text>
<text text-anchor="start" x="299" y="-62.5" font-family="Helvetica,sans-Serif" font-size="10.00">+ getEnemy()</text>
<text text-anchor="start" x="299" y="-51.5" font-family="Helvetica,sans-Serif" font-size="10.00">+ getMoney()</text>
<text text-anchor="start" x="299" y="-40.5" font-family="Helvetica,sans-Serif" font-size="10.00">+ getItem()</text>
<text text-anchor="start" x="299" y="-29.5" font-family="Helvetica,sans-Serif" font-size="10.00">+ endBattle()</text>
<text text-anchor="start" x="299" y="-18.5" font-family="Helvetica,sans-Serif" font-size="10.00">+ createItem()</text>
<text text-anchor="start" x="299" y="-7.5" font-family="Helvetica,sans-Serif" font-size="10.00">&#45; Awake()</text>
</g>
<!-- Node2&#45;&gt;Node2 -->
<g id="edge28" class="edge"><title>Node2&#45;&gt;Node2</title>
<path fill="none" stroke="#404040" d="M378.169,-77.4385C388.43,-76.1696 396,-71.0234 396,-62 396,-56.9243 393.605,-53.0754 389.683,-50.4533"/>
<polygon fill="none" stroke="#404040" points="389.537,-50.4042 382.573,-52.2722 378.169,-46.5615 385.134,-44.6935 389.537,-50.4042"/>
<text text-anchor="middle" x="419" y="-59.5" font-family="Helvetica,sans-Serif" font-size="10.00"> +instance</text>
</g>
<!-- Node3 -->
<g id="node2" class="node"><title>Node3</title>
<g id="a_node2"><a xlink:href="class_mono_behaviour.html" target="_top" xlink:title="{MonoBehaviour\n||}">
<polygon fill="none" stroke="black" points="0,-177 0,-234 83,-234 83,-177 0,-177"/>
<text text-anchor="middle" x="41.5" y="-222" font-family="Helvetica,sans-Serif" font-size="10.00">MonoBehaviour</text>
<polyline fill="none" stroke="black" points="0,-215 83,-215 "/>
<text text-anchor="middle" x="41.5" y="-203" font-family="Helvetica,sans-Serif" font-size="10.00"> </text>
<polyline fill="none" stroke="black" points="0,-196 83,-196 "/>
<text text-anchor="middle" x="41.5" y="-184" font-family="Helvetica,sans-Serif" font-size="10.00"> </text>
</a>
</g>
</g>
<!-- Node3&#45;&gt;Node2 -->
<g id="edge1" class="edge"><title>Node3&#45;&gt;Node2</title>
<path fill="none" stroke="midnightblue" d="M81.303,-170.444C94.2201,-160.431 108.977,-150.024 123.5,-142 178.28,-111.735 247.007,-88.4415 290.848,-75.2278"/>
<polygon fill="none" stroke="midnightblue" points="78.7687,-167.987 73.1013,-176.938 83.114,-173.475 78.7687,-167.987"/>
</g>
<!-- Node4 -->
<g id="node3" class="node"><title>Node4</title>
<polygon fill="none" stroke="#bfbfbf" points="101.5,-177 101.5,-234 159.5,-234 159.5,-177 101.5,-177"/>
<text text-anchor="middle" x="130.5" y="-222" font-family="Helvetica,sans-Serif" font-size="10.00">AudioClip</text>
<polyline fill="none" stroke="#bfbfbf" points="101.5,-215 159.5,-215 "/>
<text text-anchor="middle" x="130.5" y="-203" font-family="Helvetica,sans-Serif" font-size="10.00"> </text>
<polyline fill="none" stroke="#bfbfbf" points="101.5,-196 159.5,-196 "/>
<text text-anchor="middle" x="130.5" y="-184" font-family="Helvetica,sans-Serif" font-size="10.00"> </text>
</g>
<!-- Node4&#45;&gt;Node2 -->
<g id="edge2" class="edge"><title>Node4&#45;&gt;Node2</title>
<path fill="none" stroke="#404040" d="M124.505,-176.892C123.5,-165.187 124.559,-151.977 131.5,-142 164.58,-94.4507 230.744,-75.5198 278.562,-67.9834"/>
<polygon fill="none" stroke="#404040" points="278.719,-67.9611 284.093,-63.1523 290.599,-66.263 285.225,-71.0718 278.719,-67.9611"/>
<text text-anchor="middle" x="165" y="-145" font-family="Helvetica,sans-Serif" font-size="10.00"> +previousBGM</text>
</g>
<!-- Node5 -->
<g id="node4" class="node"><title>Node5</title>
<g id="a_node4"><a xlink:href="class_item.html" target="_top" xlink:title="Abstract class for items that can be equipped to a player, increasing some of their stats ...">
<polygon fill="none" stroke="black" points="410,-1275.5 410,-1354.5 487,-1354.5 487,-1275.5 410,-1275.5"/>
<text text-anchor="middle" x="448.5" y="-1342.5" font-family="Helvetica,sans-Serif" font-size="10.00">Item</text>
<polyline fill="none" stroke="black" points="410,-1335.5 487,-1335.5 "/>
<text text-anchor="start" x="418" y="-1323.5" font-family="Helvetica,sans-Serif" font-size="10.00">+ Name</text>
<text text-anchor="start" x="418" y="-1312.5" font-family="Helvetica,sans-Serif" font-size="10.00">+ Desc</text>
<polyline fill="none" stroke="black" points="410,-1305.5 487,-1305.5 "/>
<text text-anchor="start" x="418" y="-1293.5" font-family="Helvetica,sans-Serif" font-size="10.00">+ applyBuffs()</text>
<text text-anchor="start" x="418" y="-1282.5" font-family="Helvetica,sans-Serif" font-size="10.00">+ revertBuffs()</text>
</a>
</g>
</g>
<!-- Node5&#45;&gt;Node2 -->
<g id="edge3" class="edge"><title>Node5&#45;&gt;Node2</title>
<path fill="none" stroke="#404040" d="M423.668,-1275.19C413.605,-1257.95 402.686,-1237.05 395.5,-1217 389.237,-1199.52 270.5,-579.064 270.5,-560.5 270.5,-560.5 270.5,-560.5 270.5,-204.5 270.5,-180.622 278.159,-156.33 288.179,-134.769"/>
<polygon fill="none" stroke="#404040" points="288.3,-134.523 287.365,-127.373 293.605,-123.759 294.541,-130.909 288.3,-134.523"/>
<text text-anchor="middle" x="297" y="-631.5" font-family="Helvetica,sans-Serif" font-size="10.00"> &#45;item</text>
</g>
<!-- Node15 -->
<g id="node14" class="node"><title>Node15</title>
<g id="a_node14"><a xlink:href="class_player.html" target="_top" xlink:title="Defines a playable character for use in battle scenes">
<polygon fill="none" stroke="black" points="543.5,-1104.5 543.5,-1216.5 655.5,-1216.5 655.5,-1104.5 543.5,-1104.5"/>
<text text-anchor="middle" x="599.5" y="-1204.5" font-family="Helvetica,sans-Serif" font-size="10.00">Player</text>
<polyline fill="none" stroke="black" points="543.5,-1197.5 655.5,-1197.5 "/>
<text text-anchor="start" x="551.5" y="-1185.5" font-family="Helvetica,sans-Serif" font-size="10.00">+ Exp</text>
<text text-anchor="start" x="551.5" y="-1174.5" font-family="Helvetica,sans-Serif" font-size="10.00">+ Item</text>
<text text-anchor="start" x="551.5" y="-1163.5" font-family="Helvetica,sans-Serif" font-size="10.00">+ ExpToNextLevel</text>
<polyline fill="none" stroke="black" points="543.5,-1156.5 655.5,-1156.5 "/>
<text text-anchor="start" x="551.5" y="-1144.5" font-family="Helvetica,sans-Serif" font-size="10.00">+ Player()</text>
<text text-anchor="start" x="551.5" y="-1133.5" font-family="Helvetica,sans-Serif" font-size="10.00">+ gainExp()</text>
<text text-anchor="start" x="551.5" y="-1122.5" font-family="Helvetica,sans-Serif" font-size="10.00">+ levelUp()</text>
<text text-anchor="start" x="551.5" y="-1111.5" font-family="Helvetica,sans-Serif" font-size="10.00">&#45; setExpToNextLevel()</text>
</a>
</g>
</g>
<!-- Node5&#45;&gt;Node15 -->
<g id="edge22" class="edge"><title>Node5&#45;&gt;Node15</title>
<path fill="none" stroke="#404040" d="M486.994,-1275.12C501.95,-1260.02 519.48,-1242.31 536.192,-1225.44"/>
<polygon fill="none" stroke="#404040" points="536.395,-1225.23 537.774,-1218.15 544.838,-1216.71 543.459,-1223.78 536.395,-1225.23"/>
<text text-anchor="middle" x="537" y="-1243.5" font-family="Helvetica,sans-Serif" font-size="10.00"> &#45;item</text>
</g>
<!-- Node6 -->
<g id="node5" class="node"><title>Node6</title>
<polygon fill="none" stroke="#bfbfbf" points="386,-1413.5 386,-1470.5 427,-1470.5 427,-1413.5 386,-1413.5"/>
<text text-anchor="middle" x="406.5" y="-1458.5" font-family="Helvetica,sans-Serif" font-size="10.00">string</text>
<polyline fill="none" stroke="#bfbfbf" points="386,-1451.5 427,-1451.5 "/>
<text text-anchor="middle" x="406.5" y="-1439.5" font-family="Helvetica,sans-Serif" font-size="10.00"> </text>
<polyline fill="none" stroke="#bfbfbf" points="386,-1432.5 427,-1432.5 "/>
<text text-anchor="middle" x="406.5" y="-1420.5" font-family="Helvetica,sans-Serif" font-size="10.00"> </text>
</g>
<!-- Node6&#45;&gt;Node2 -->
<g id="edge5" class="edge"><title>Node6&#45;&gt;Node2</title>
<path fill="none" stroke="#404040" d="M385.739,-1437.74C335.692,-1428.58 212.5,-1397.74 212.5,-1316 212.5,-1316 212.5,-1316 212.5,-204.5 212.5,-159.672 248.056,-122.006 280.778,-96.834"/>
<polygon fill="none" stroke="#404040" points="281.149,-96.5603 283.597,-89.7776 290.8,-89.429 288.351,-96.2117 281.149,-96.5603"/>
<text text-anchor="middle" x="247.5" y="-706" font-family="Helvetica,sans-Serif" font-size="10.00"> &#45;previousScene</text>
<text text-anchor="middle" x="247.5" y="-695" font-family="Helvetica,sans-Serif" font-size="10.00">+levelOrder</text>
</g>
<!-- Node6&#45;&gt;Node5 -->
<g id="edge4" class="edge"><title>Node6&#45;&gt;Node5</title>
<path fill="none" stroke="#404040" d="M415.821,-1413.26C420.488,-1399.37 426.284,-1382.12 431.693,-1366.02"/>
<polygon fill="none" stroke="#404040" points="431.719,-1365.94 429.839,-1358.98 435.542,-1354.57 437.422,-1361.53 431.719,-1365.94"/>
<text text-anchor="middle" x="444.5" y="-1387" font-family="Helvetica,sans-Serif" font-size="10.00"> #desc</text>
<text text-anchor="middle" x="444.5" y="-1376" font-family="Helvetica,sans-Serif" font-size="10.00">#name</text>
</g>
<!-- Node9 -->
<g id="node8" class="node"><title>Node9</title>
<g id="a_node8"><a xlink:href="class_character.html" target="_top" xlink:title="Base abstract class for Enemy and Player to inherit from. Defines all shared variables, their constructor and their setters and getters ">
<polygon fill="none" stroke="black" points="593,-277.5 593,-455.5 688,-455.5 688,-277.5 593,-277.5"/>
<text text-anchor="middle" x="640.5" y="-443.5" font-family="Helvetica,sans-Serif" font-size="10.00">Character</text>
<polyline fill="none" stroke="black" points="593,-436.5 688,-436.5 "/>
<text text-anchor="start" x="601" y="-424.5" font-family="Helvetica,sans-Serif" font-size="10.00">+ Name</text>
<text text-anchor="start" x="601" y="-413.5" font-family="Helvetica,sans-Serif" font-size="10.00">+ Level</text>
<text text-anchor="start" x="601" y="-402.5" font-family="Helvetica,sans-Serif" font-size="10.00">+ Health</text>
<text text-anchor="start" x="601" y="-391.5" font-family="Helvetica,sans-Serif" font-size="10.00">+ Attack</text>
<text text-anchor="start" x="601" y="-380.5" font-family="Helvetica,sans-Serif" font-size="10.00">+ Defence</text>
<text text-anchor="start" x="601" y="-369.5" font-family="Helvetica,sans-Serif" font-size="10.00">+ MaximumMagic</text>
<text text-anchor="start" x="601" y="-358.5" font-family="Helvetica,sans-Serif" font-size="10.00">+ Magic</text>
<text text-anchor="start" x="601" y="-347.5" font-family="Helvetica,sans-Serif" font-size="10.00">+ Luck</text>
<text text-anchor="start" x="601" y="-336.5" font-family="Helvetica,sans-Serif" font-size="10.00">+ Speed</text>
<text text-anchor="start" x="601" y="-325.5" font-family="Helvetica,sans-Serif" font-size="10.00">+ Special1</text>
<text text-anchor="start" x="601" y="-314.5" font-family="Helvetica,sans-Serif" font-size="10.00">+ Special2</text>
<text text-anchor="start" x="601" y="-303.5" font-family="Helvetica,sans-Serif" font-size="10.00">+ Image</text>
<polyline fill="none" stroke="black" points="593,-296.5 688,-296.5 "/>
<text text-anchor="start" x="601" y="-284.5" font-family="Helvetica,sans-Serif" font-size="10.00"># Character()</text>
</a>
</g>
</g>
<!-- Node6&#45;&gt;Node9 -->
<g id="edge9" class="edge"><title>Node6&#45;&gt;Node9</title>
<path fill="none" stroke="#404040" d="M385.772,-1431.15C351.677,-1413.34 287.5,-1372.33 287.5,-1316 287.5,-1316 287.5,-1316 287.5,-1079.5 287.5,-823.624 241.45,-718.306 395.5,-514 442.814,-451.25 525.518,-410.027 581.615,-387.739"/>
<polygon fill="none" stroke="#404040" points="581.62,-387.737 585.77,-381.84 592.81,-383.402 588.66,-389.299 581.62,-387.737"/>
<text text-anchor="middle" x="304" y="-959.5" font-family="Helvetica,sans-Serif" font-size="10.00"> #name</text>
</g>
<!-- Node11 -->
<g id="node10" class="node"><title>Node11</title>
<g id="a_node10"><a xlink:href="class_special_move.html" target="_top" xlink:title="Special move abstract base class that expands upon CharacterMove, adding magic properties ...">
<polygon fill="none" stroke="black" points="591.5,-514.5 591.5,-604.5 689.5,-604.5 689.5,-514.5 591.5,-514.5"/>
<text text-anchor="middle" x="640.5" y="-592.5" font-family="Helvetica,sans-Serif" font-size="10.00">SpecialMove</text>
<polyline fill="none" stroke="black" points="591.5,-585.5 689.5,-585.5 "/>
<text text-anchor="start" x="599.5" y="-573.5" font-family="Helvetica,sans-Serif" font-size="10.00">+ Magic</text>
<text text-anchor="start" x="599.5" y="-562.5" font-family="Helvetica,sans-Serif" font-size="10.00">+ Desc</text>
<polyline fill="none" stroke="black" points="591.5,-555.5 689.5,-555.5 "/>
<text text-anchor="start" x="599.5" y="-543.5" font-family="Helvetica,sans-Serif" font-size="10.00">+ setUp()</text>
<text text-anchor="start" x="599.5" y="-532.5" font-family="Helvetica,sans-Serif" font-size="10.00">+ decreaseMagic()</text>
<text text-anchor="start" x="599.5" y="-521.5" font-family="Helvetica,sans-Serif" font-size="10.00"># SpecialMove()</text>
</a>
</g>
</g>
<!-- Node6&#45;&gt;Node11 -->
<g id="edge24" class="edge"><title>Node6&#45;&gt;Node11</title>
<path fill="none" stroke="#404040" d="M427.224,-1428.16C448.776,-1413.48 481.31,-1387.25 495.5,-1355 540.96,-1251.66 507.89,-1213.71 534.5,-1104 538.02,-1089.49 616.574,-863.644 619.5,-849 635.359,-769.628 639.573,-675.844 640.518,-617.257"/>
<polygon fill="none" stroke="#404040" points="640.522,-616.947 636.6,-610.896 640.677,-604.948 644.599,-610.999 640.522,-616.947"/>
<text text-anchor="middle" x="559.5" y="-1078" font-family="Helvetica,sans-Serif" font-size="10.00"> #desc</text>
</g>
<!-- Node12 -->
<g id="node11" class="node"><title>Node12</title>
<g id="a_node11"><a xlink:href="class_character_move.html" target="_top" xlink:title="Astract base class for character moves ">
<polygon fill="none" stroke="black" points="521.5,-663.5 521.5,-742.5 607.5,-742.5 607.5,-663.5 521.5,-663.5"/>
<text text-anchor="middle" x="564.5" y="-730.5" font-family="Helvetica,sans-Serif" font-size="10.00">CharacterMove</text>
<polyline fill="none" stroke="black" points="521.5,-723.5 607.5,-723.5 "/>
<text text-anchor="start" x="529.5" y="-711.5" font-family="Helvetica,sans-Serif" font-size="10.00">+ User</text>
<text text-anchor="start" x="529.5" y="-700.5" font-family="Helvetica,sans-Serif" font-size="10.00">+ Target</text>
<text text-anchor="start" x="529.5" y="-689.5" font-family="Helvetica,sans-Serif" font-size="10.00">+ Text</text>
<polyline fill="none" stroke="black" points="521.5,-682.5 607.5,-682.5 "/>
<text text-anchor="start" x="529.5" y="-670.5" font-family="Helvetica,sans-Serif" font-size="10.00">+ performMove()</text>
</a>
</g>
</g>
<!-- Node6&#45;&gt;Node12 -->
<g id="edge13" class="edge"><title>Node6&#45;&gt;Node12</title>
<path fill="none" stroke="#404040" d="M404.063,-1413.14C402.714,-1396.32 401.177,-1374.45 400.5,-1355 399.262,-1319.47 399.669,-1310.55 400.5,-1275 402.278,-1198.94 392.692,-1178.42 408.5,-1104 436.453,-972.405 502.531,-827.543 539.083,-753.531"/>
<polygon fill="none" stroke="#404040" points="539.124,-753.448 538.215,-746.294 544.469,-742.704 545.378,-749.858 539.124,-753.448"/>
<text text-anchor="middle" x="421" y="-1158" font-family="Helvetica,sans-Serif" font-size="10.00"> #text</text>
</g>
<!-- Node13 -->
<g id="node12" class="node"><title>Node13</title>
<g id="a_node12"><a xlink:href="class_battle_manager.html" target="_top" xlink:title="Holds current Player and Enemy objects in battle and provides functions for MainBattle and other obje...">
<polygon fill="none" stroke="black" points="623.5,-867.5 623.5,-1056.5 739.5,-1056.5 739.5,-867.5 623.5,-867.5"/>
<text text-anchor="middle" x="681.5" y="-1044.5" font-family="Helvetica,sans-Serif" font-size="10.00">BattleManager</text>
<polyline fill="none" stroke="black" points="623.5,-1037.5 739.5,-1037.5 "/>
<text text-anchor="start" x="631.5" y="-1025.5" font-family="Helvetica,sans-Serif" font-size="10.00">+ Player</text>
<text text-anchor="start" x="631.5" y="-1014.5" font-family="Helvetica,sans-Serif" font-size="10.00">+ Enemy</text>
<text text-anchor="start" x="631.5" y="-1003.5" font-family="Helvetica,sans-Serif" font-size="10.00">+ WasCriticalHit</text>
<polyline fill="none" stroke="black" points="623.5,-996.5 739.5,-996.5 "/>
<text text-anchor="start" x="631.5" y="-984.5" font-family="Helvetica,sans-Serif" font-size="10.00">+ BattleManager()</text>
<text text-anchor="start" x="631.5" y="-973.5" font-family="Helvetica,sans-Serif" font-size="10.00">+ playerFirst()</text>
<text text-anchor="start" x="631.5" y="-962.5" font-family="Helvetica,sans-Serif" font-size="10.00">+ switchPlayers()</text>
<text text-anchor="start" x="631.5" y="-951.5" font-family="Helvetica,sans-Serif" font-size="10.00">+ isCriticalHit()</text>
<text text-anchor="start" x="631.5" y="-940.5" font-family="Helvetica,sans-Serif" font-size="10.00">+ ranAway()</text>
<text text-anchor="start" x="631.5" y="-929.5" font-family="Helvetica,sans-Serif" font-size="10.00">+ damageCalculation()</text>
<text text-anchor="start" x="631.5" y="-918.5" font-family="Helvetica,sans-Serif" font-size="10.00">+ enemyMove()</text>
<text text-anchor="start" x="631.5" y="-907.5" font-family="Helvetica,sans-Serif" font-size="10.00">+ enemySpecialMove()</text>
<text text-anchor="start" x="631.5" y="-896.5" font-family="Helvetica,sans-Serif" font-size="10.00">+ battleWon()</text>
<text text-anchor="start" x="631.5" y="-885.5" font-family="Helvetica,sans-Serif" font-size="10.00">+ playerFainted()</text>
<text text-anchor="start" x="631.5" y="-874.5" font-family="Helvetica,sans-Serif" font-size="10.00">&#45; characterFainted()</text>
</a>
</g>
</g>
<!-- Node6&#45;&gt;Node13 -->
<g id="edge16" class="edge"><title>Node6&#45;&gt;Node13</title>
<path fill="none" stroke="#404040" d="M427.27,-1436.03C452.723,-1429.34 496.526,-1415.8 529.5,-1395 604.204,-1347.88 636.736,-1337.76 672.5,-1257 698.416,-1198.48 701.113,-1126.79 697.115,-1068.85"/>
<polygon fill="none" stroke="#404040" points="697.101,-1068.67 692.645,-1063 696.166,-1056.71 700.621,-1062.38 697.101,-1068.67"/>
<text text-anchor="middle" x="722.5" y="-1249" font-family="Helvetica,sans-Serif" font-size="10.00"> +forceEnemyMove</text>
<text text-anchor="middle" x="722.5" y="-1238" font-family="Helvetica,sans-Serif" font-size="10.00">+forceCriticalHits</text>
</g>
<!-- Node7 -->
<g id="node6" class="node"><title>Node7</title>
<polygon fill="none" stroke="#bfbfbf" points="299,-177 299,-234 370,-234 370,-177 299,-177"/>
<text text-anchor="middle" x="334.5" y="-222" font-family="Helvetica,sans-Serif" font-size="10.00">GameObject</text>
<polyline fill="none" stroke="#bfbfbf" points="299,-215 370,-215 "/>
<text text-anchor="middle" x="334.5" y="-203" font-family="Helvetica,sans-Serif" font-size="10.00"> </text>
<polyline fill="none" stroke="#bfbfbf" points="299,-196 370,-196 "/>
<text text-anchor="middle" x="334.5" y="-184" font-family="Helvetica,sans-Serif" font-size="10.00"> </text>
</g>
<!-- Node7&#45;&gt;Node2 -->
<g id="edge6" class="edge"><title>Node7&#45;&gt;Node2</title>
<path fill="none" stroke="#404040" d="M334.5,-176.881C334.5,-165.006 334.5,-150.508 334.5,-135.889"/>
<polygon fill="none" stroke="#404040" points="334.5,-135.635 330.5,-129.635 334.5,-123.635 338.5,-129.635 334.5,-135.635"/>
<text text-anchor="middle" x="352.5" y="-145" font-family="Helvetica,sans-Serif" font-size="10.00"> +player</text>
</g>
<!-- Node8 -->
<g id="node7" class="node"><title>Node8</title>
<g id="a_node7"><a xlink:href="class_enemy.html" target="_top" xlink:title="Defines an AI controller enemy to fight in battle scenes">
<polygon fill="none" stroke="black" points="730,-177 730,-234 797,-234 797,-177 730,-177"/>
<text text-anchor="middle" x="763.5" y="-222" font-family="Helvetica,sans-Serif" font-size="10.00">Enemy</text>
<polyline fill="none" stroke="black" points="730,-215 797,-215 "/>
<text text-anchor="start" x="738" y="-203" font-family="Helvetica,sans-Serif" font-size="10.00">+ ExpGiven</text>
<polyline fill="none" stroke="black" points="730,-196 797,-196 "/>
<text text-anchor="start" x="738" y="-184" font-family="Helvetica,sans-Serif" font-size="10.00">+ Enemy()</text>
</a>
</g>
</g>
<!-- Node8&#45;&gt;Node2 -->
<g id="edge7" class="edge"><title>Node8&#45;&gt;Node2</title>
<path fill="none" stroke="#404040" d="M729.837,-193.397C656.112,-169.08 479.785,-110.92 389.626,-81.1826"/>
<polygon fill="none" stroke="#404040" points="389.417,-81.1136 382.466,-83.0328 378.021,-77.3547 384.972,-75.4354 389.417,-81.1136"/>
<text text-anchor="middle" x="618.5" y="-145" font-family="Helvetica,sans-Serif" font-size="10.00"> &#45;enemy</text>
</g>
<!-- Node8&#45;&gt;Node13 -->
<g id="edge17" class="edge"><title>Node8&#45;&gt;Node13</title>
<path fill="none" stroke="#404040" d="M765.175,-234.05C768.353,-287.839 775.148,-410.619 777.5,-514 778.42,-554.434 782.811,-564.906 777.5,-605 766.113,-690.961 739.898,-785.627 717.735,-855.717"/>
<polygon fill="none" stroke="#404040" points="717.723,-855.757 719.709,-862.689 714.075,-867.189 712.088,-860.257 717.723,-855.757"/>
<text text-anchor="middle" x="798.5" y="-557" font-family="Helvetica,sans-Serif" font-size="10.00"> &#45;enemy</text>
</g>
<!-- Node9&#45;&gt;Node8 -->
<g id="edge8" class="edge"><title>Node9&#45;&gt;Node8</title>
<path fill="none" stroke="midnightblue" d="M694.232,-296.041C711.123,-274.206 728.809,-251.345 742.082,-234.187"/>
<polygon fill="none" stroke="midnightblue" points="691.405,-293.975 688.055,-304.026 696.942,-298.258 691.405,-293.975"/>
</g>
<!-- Node9&#45;&gt;Node12 -->
<g id="edge14" class="edge"><title>Node9&#45;&gt;Node12</title>
<path fill="none" stroke="#404040" d="M592.806,-426.525C575.252,-451.886 557.475,-482.831 548.5,-514 535.454,-559.304 542.134,-613.089 550.484,-651.5"/>
<polygon fill="none" stroke="#404040" points="550.532,-651.708 555.779,-656.655 553.231,-663.401 547.984,-658.454 550.532,-651.708"/>
<text text-anchor="middle" x="565.5" y="-562.5" font-family="Helvetica,sans-Serif" font-size="10.00"> #target</text>
<text text-anchor="middle" x="565.5" y="-551.5" font-family="Helvetica,sans-Serif" font-size="10.00">#user</text>
</g>
<!-- Node9&#45;&gt;Node15 -->
<g id="edge21" class="edge"><title>Node9&#45;&gt;Node15</title>
<path fill="none" stroke="midnightblue" d="M586.252,-424.785C573.685,-439.998 561.175,-456.959 551.5,-474 509.151,-548.586 519.621,-577.526 512.5,-663 497.061,-848.321 550.322,-892.394 585.5,-1075 587.328,-1084.49 589.131,-1094.61 590.803,-1104.43"/>
<polygon fill="none" stroke="midnightblue" points="589.047,-426.9 592.814,-416.998 583.694,-422.389 589.047,-426.9"/>
</g>
<!-- Node10 -->
<g id="node9" class="node"><title>Node10</title>
<polygon fill="none" stroke="#bfbfbf" points="857,-1286.5 857,-1343.5 886,-1343.5 886,-1286.5 857,-1286.5"/>
<text text-anchor="middle" x="871.5" y="-1331.5" font-family="Helvetica,sans-Serif" font-size="10.00">int</text>
<polyline fill="none" stroke="#bfbfbf" points="857,-1324.5 886,-1324.5 "/>
<text text-anchor="middle" x="871.5" y="-1312.5" font-family="Helvetica,sans-Serif" font-size="10.00"> </text>
<polyline fill="none" stroke="#bfbfbf" points="857,-1305.5 886,-1305.5 "/>
<text text-anchor="middle" x="871.5" y="-1293.5" font-family="Helvetica,sans-Serif" font-size="10.00"> </text>
</g>
<!-- Node10&#45;&gt;Node2 -->
<g id="edge29" class="edge"><title>Node10&#45;&gt;Node2</title>
<path fill="none" stroke="#404040" d="M886.1,-1307.27C922.709,-1289.29 1015.5,-1236.33 1015.5,-1161.5 1015.5,-1161.5 1015.5,-1161.5 1015.5,-204.5 1015.5,-77.1023 552.859,-63.5859 390.222,-62.7703"/>
<polygon fill="none" stroke="#404040" points="390.136,-62.7701 384.122,-66.7503 378.136,-62.7306 384.149,-58.7504 390.136,-62.7701"/>
<text text-anchor="middle" x="1046" y="-637" font-family="Helvetica,sans-Serif" font-size="10.00"> +currentLevel</text>
<text text-anchor="middle" x="1046" y="-626" font-family="Helvetica,sans-Serif" font-size="10.00">&#45;money</text>
</g>
<!-- Node10&#45;&gt;Node8 -->
<g id="edge27" class="edge"><title>Node10&#45;&gt;Node8</title>
<path fill="none" stroke="#404040" d="M883.132,-1286.27C886.599,-1277.09 890.108,-1266.73 892.5,-1257 945.432,-1041.71 949.018,-982.671 945.5,-761 944.611,-704.979 941.5,-691.028 941.5,-635 941.5,-635 941.5,-635 941.5,-365.5 941.5,-294.276 861.253,-247.015 808.52,-223.648"/>
<polygon fill="none" stroke="#404040" points="808.432,-223.61 801.342,-224.928 797.399,-218.89 804.489,-217.573 808.432,-223.61"/>
<text text-anchor="middle" x="968.5" y="-700.5" font-family="Helvetica,sans-Serif" font-size="10.00"> &#45;expGiven</text>
</g>
<!-- Node10&#45;&gt;Node9 -->
<g id="edge10" class="edge"><title>Node10&#45;&gt;Node9</title>
<path fill="none" stroke="#404040" d="M875.015,-1286.21C876.03,-1276.94 876.999,-1266.54 877.5,-1257 878.012,-1247.24 877.62,-1244.78 877.5,-1235 875.5,-1071.41 881.542,-1030.08 868.5,-867 855.878,-709.171 897.987,-652.076 820.5,-514 792.383,-463.899 739.746,-424.16 698.626,-398.783"/>
<polygon fill="none" stroke="#404040" points="698.452,-398.678 691.248,-399.008 688.173,-392.485 695.377,-392.155 698.452,-398.678"/>
<text text-anchor="middle" x="905" y="-841" font-family="Helvetica,sans-Serif" font-size="10.00"> #speed</text>
<text text-anchor="middle" x="905" y="-830" font-family="Helvetica,sans-Serif" font-size="10.00">#luck</text>
<text text-anchor="middle" x="905" y="-819" font-family="Helvetica,sans-Serif" font-size="10.00">#health</text>
<text text-anchor="middle" x="905" y="-808" font-family="Helvetica,sans-Serif" font-size="10.00">#magic</text>
<text text-anchor="middle" x="905" y="-797" font-family="Helvetica,sans-Serif" font-size="10.00">#maximumMagic</text>
<text text-anchor="middle" x="905" y="-786" font-family="Helvetica,sans-Serif" font-size="10.00">#attack</text>
<text text-anchor="middle" x="905" y="-775" font-family="Helvetica,sans-Serif" font-size="10.00">#defence</text>
<text text-anchor="middle" x="905" y="-764" font-family="Helvetica,sans-Serif" font-size="10.00">#level</text>
</g>
<!-- Node10&#45;&gt;Node11 -->
<g id="edge25" class="edge"><title>Node10&#45;&gt;Node11</title>
<path fill="none" stroke="#404040" d="M868.197,-1286.4C857.741,-1204.15 821.533,-954.394 746.5,-761 726.605,-709.721 696.86,-654.705 673.938,-615.298"/>
<polygon fill="none" stroke="#404040" points="673.891,-615.218 667.405,-612.067 667.819,-604.868 674.305,-608.019 673.891,-615.218"/>
<text text-anchor="middle" x="847" y="-959.5" font-family="Helvetica,sans-Serif" font-size="10.00"> #magic</text>
</g>
<!-- Node10&#45;&gt;Node13 -->
<g id="edge18" class="edge"><title>Node10&#45;&gt;Node13</title>
<path fill="none" stroke="#404040" d="M856.964,-1297.69C840.845,-1279.08 814.718,-1247.28 796.5,-1217 768.197,-1169.96 742.402,-1114.75 722.447,-1067.84"/>
<polygon fill="none" stroke="#404040" points="722.424,-1067.79 716.407,-1063.81 717.762,-1056.73 723.779,-1060.7 722.424,-1067.79"/>
<text text-anchor="middle" x="816" y="-1158" font-family="Helvetica,sans-Serif" font-size="10.00"> +money</text>
</g>
<!-- Node10&#45;&gt;Node15 -->
<g id="edge23" class="edge"><title>Node10&#45;&gt;Node15</title>
<path fill="none" stroke="#404040" d="M856.676,-1313.28C804.51,-1310.42 630.765,-1297.9 597.5,-1257 590.957,-1248.96 587.729,-1239.14 586.588,-1228.91"/>
<polygon fill="none" stroke="#404040" points="586.583,-1228.77 582.361,-1222.92 586.133,-1216.77 590.355,-1222.62 586.583,-1228.77"/>
<text text-anchor="middle" x="635" y="-1249" font-family="Helvetica,sans-Serif" font-size="10.00"> &#45;expToNextLevel</text>
<text text-anchor="middle" x="635" y="-1238" font-family="Helvetica,sans-Serif" font-size="10.00">&#45;exp</text>
</g>
<!-- Node11&#45;&gt;Node9 -->
<g id="edge11" class="edge"><title>Node11&#45;&gt;Node9</title>
<path fill="none" stroke="#404040" d="M640.5,-514.201C640.5,-500.238 640.5,-484.202 640.5,-467.973"/>
<polygon fill="none" stroke="#404040" points="640.5,-467.557 636.5,-461.557 640.5,-455.557 644.5,-461.557 640.5,-467.557"/>
<text text-anchor="middle" x="663" y="-488" font-family="Helvetica,sans-Serif" font-size="10.00"> #special1</text>
<text text-anchor="middle" x="663" y="-477" font-family="Helvetica,sans-Serif" font-size="10.00">#special2</text>
</g>
<!-- Node12&#45;&gt;Node11 -->
<g id="edge12" class="edge"><title>Node12&#45;&gt;Node11</title>
<path fill="none" stroke="midnightblue" d="M590.209,-654.133C598.814,-638.113 608.361,-620.338 616.805,-604.617"/>
<polygon fill="none" stroke="midnightblue" points="586.916,-652.869 585.267,-663.335 593.082,-656.181 586.916,-652.869"/>
</g>
<!-- Node13&#45;&gt;Node12 -->
<g id="edge15" class="edge"><title>Node13&#45;&gt;Node12</title>
<path fill="none" stroke="#404040" d="M638.929,-867.49C621.395,-828.975 601.794,-785.92 587.11,-753.665"/>
<polygon fill="none" stroke="#404040" points="587.105,-753.653 580.978,-749.85 582.133,-742.732 588.259,-746.535 587.105,-753.653"/>
<text text-anchor="middle" x="653.5" y="-802.5" font-family="Helvetica,sans-Serif" font-size="10.00"> #manager</text>
</g>
<!-- Node14 -->
<g id="node13" class="node"><title>Node14</title>
<polygon fill="none" stroke="#bfbfbf" points="443,-1132 443,-1189 478,-1189 478,-1132 443,-1132"/>
<text text-anchor="middle" x="460.5" y="-1177" font-family="Helvetica,sans-Serif" font-size="10.00">bool</text>
<polyline fill="none" stroke="#bfbfbf" points="443,-1170 478,-1170 "/>
<text text-anchor="middle" x="460.5" y="-1158" font-family="Helvetica,sans-Serif" font-size="10.00"> </text>
<polyline fill="none" stroke="#bfbfbf" points="443,-1151 478,-1151 "/>
<text text-anchor="middle" x="460.5" y="-1139" font-family="Helvetica,sans-Serif" font-size="10.00"> </text>
</g>
<!-- Node14&#45;&gt;Node2 -->
<g id="edge30" class="edge"><title>Node14&#45;&gt;Node2</title>
<path fill="none" stroke="#404040" d="M456.14,-1132C442.028,-1040.5 398.5,-737.869 398.5,-486 398.5,-486 398.5,-486 398.5,-204.5 398.5,-180.622 390.841,-156.33 380.821,-134.769"/>
<polygon fill="none" stroke="#404040" points="380.7,-134.523 374.459,-130.909 375.395,-123.759 381.635,-127.373 380.7,-134.523"/>
<text text-anchor="middle" x="435" y="-557" font-family="Helvetica,sans-Serif" font-size="10.00"> +canRunAway</text>
</g>
<!-- Node14&#45;&gt;Node13 -->
<g id="edge19" class="edge"><title>Node14&#45;&gt;Node13</title>
<path fill="none" stroke="#404040" d="M455.954,-1131.84C454.534,-1114.19 455.607,-1091.6 466.5,-1075 499.42,-1024.83 562.356,-995.806 611.665,-979.932"/>
<polygon fill="none" stroke="#404040" points="611.771,-979.899 616.326,-974.309 623.239,-976.364 618.683,-981.954 611.771,-979.899"/>
<text text-anchor="middle" x="499.5" y="-1078" font-family="Helvetica,sans-Serif" font-size="10.00"> &#45;wasCriticalHit</text>
</g>
<!-- Node15&#45;&gt;Node13 -->
<g id="edge20" class="edge"><title>Node15&#45;&gt;Node13</title>
<path fill="none" stroke="#404040" d="M622.56,-1104.24C627.359,-1092.74 632.567,-1080.26 637.835,-1067.64"/>
<polygon fill="none" stroke="#404040" points="637.848,-1067.6 636.467,-1060.53 642.47,-1056.53 643.85,-1063.61 637.848,-1067.6"/>
<text text-anchor="middle" x="650" y="-1078" font-family="Helvetica,sans-Serif" font-size="10.00"> &#45;player</text>
</g>
<!-- Node16 -->
<g id="node15" class="node"><title>Node16</title>
<polygon fill="none" stroke="#bfbfbf" points="708,-531 708,-588 769,-588 769,-531 708,-531"/>
<text text-anchor="middle" x="738.5" y="-576" font-family="Helvetica,sans-Serif" font-size="10.00">Texture2D</text>
<polyline fill="none" stroke="#bfbfbf" points="708,-569 769,-569 "/>
<text text-anchor="middle" x="738.5" y="-557" font-family="Helvetica,sans-Serif" font-size="10.00"> </text>
<polyline fill="none" stroke="#bfbfbf" points="708,-550 769,-550 "/>
<text text-anchor="middle" x="738.5" y="-538" font-family="Helvetica,sans-Serif" font-size="10.00"> </text>
</g>
<!-- Node16&#45;&gt;Node9 -->
<g id="edge26" class="edge"><title>Node16&#45;&gt;Node9</title>
<path fill="none" stroke="#404040" d="M724.25,-530.727C715.411,-513.5 703.464,-490.216 691.366,-466.636"/>
<polygon fill="none" stroke="#404040" points="691.285,-466.478 684.987,-462.966 685.807,-455.802 692.105,-459.314 691.285,-466.478"/>
<text text-anchor="middle" x="722" y="-482.5" font-family="Helvetica,sans-Serif" font-size="10.00"> #image</text>
</g>
<!-- Node17 -->
<g id="node16" class="node"><title>Node17</title>
<polygon fill="none" stroke="#bfbfbf" points="1043.5,-171.5 1043.5,-239.5 1141.5,-239.5 1141.5,-171.5 1043.5,-171.5"/>
<text text-anchor="start" x="1051.5" y="-227.5" font-family="Helvetica,sans-Serif" font-size="10.00">IDictionary&lt; string,</text>
<text text-anchor="middle" x="1092.5" y="-216.5" font-family="Helvetica,sans-Serif" font-size="10.00"> bool &gt;</text>
<polyline fill="none" stroke="#bfbfbf" points="1043.5,-209.5 1141.5,-209.5 "/>
<text text-anchor="middle" x="1092.5" y="-197.5" font-family="Helvetica,sans-Serif" font-size="10.00"> </text>
<polyline fill="none" stroke="#bfbfbf" points="1043.5,-190.5 1141.5,-190.5 "/>
<text text-anchor="middle" x="1092.5" y="-178.5" font-family="Helvetica,sans-Serif" font-size="10.00"> </text>
</g>
<!-- Node17&#45;&gt;Node2 -->
<g id="edge31" class="edge"><title>Node17&#45;&gt;Node2</title>
<path fill="none" stroke="#404040" d="M1066.92,-171.239C1056.55,-160.1 1043.67,-148.797 1029.5,-142 916.595,-87.8363 534.535,-69.6704 390.272,-64.6548"/>
<polygon fill="none" stroke="#404040" points="390.269,-64.6548 384.138,-68.4497 378.276,-64.2492 384.408,-60.4543 390.269,-64.6548"/>
<text text-anchor="middle" x="1080" y="-145" font-family="Helvetica,sans-Serif" font-size="10.00"> +objectsActive</text>
</g>
</g>
</svg>
        <g id="navigator" transform="translate(0 0)" fill="#404254">
                <rect fill="#f2f5e9" fill-opacity="0.5" stroke="#606060" stroke-width=".5" x="0" y="0" width="60" height="60"/>
                <use id="zoomplus" xlink:href="#zoomPlus" x="17" y="9" onmousedown="handleZoom(evt,'in')"/>
                <use id="zoomminus" xlink:href="#zoomMin" x="42" y="9" onmousedown="handleZoom(evt,'out')"/>
                <use id="reset" xlink:href="#resetDef" x="30" y="36" onmousedown="handleReset()"/>
                <g id="arrowUp" xlink:href="#dirArrow" transform="translate(30 24)" onmousedown="handlePan(0,-1)">
                  <use xlink:href="#rim" fill="#404040">
                        <set attributeName="fill" to="#808080" begin="arrowUp.mouseover" end="arrowUp.mouseout"/>
                  </use>
                  <path fill="none" stroke="white" stroke-width="1.5" d="M0,-3.0v7 M-2.5,-0.5L0,-3.0L2.5,-0.5"/>
                </g>
                <g id="arrowRight" xlink:href="#dirArrow" transform="rotate(90) translate(36 -43)" onmousedown="handlePan(1,0)">
                  <use xlink:href="#rim" fill="#404040">
                        <set attributeName="fill" to="#808080" begin="arrowRight.mouseover" end="arrowRight.mouseout"/>
                  </use>
                  <path fill="none" stroke="white" stroke-width="1.5" d="M0,-3.0v7 M-2.5,-0.5L0,-3.0L2.5,-0.5"/>
                </g>
                <g id="arrowDown" xlink:href="#dirArrow" transform="rotate(180) translate(-30 -48)" onmousedown="handlePan(0,1)">
                  <use xlink:href="#rim" fill="#404040">
                        <set attributeName="fill" to="#808080" begin="arrowDown.mouseover" end="arrowDown.mouseout"/>
                  </use>
                  <path fill="none" stroke="white" stroke-width="1.5" d="M0,-3.0v7 M-2.5,-0.5L0,-3.0L2.5,-0.5"/>
                </g>
                <g id="arrowLeft" xlink:href="#dirArrow" transform="rotate(270) translate(-36 17)" onmousedown="handlePan(-1,0)">
                  <use xlink:href="#rim" fill="#404040">
                        <set attributeName="fill" to="#808080" begin="arrowLeft.mouseover" end="arrowLeft.mouseout"/>
                  </use>
                  <path fill="none" stroke="white" stroke-width="1.5" d="M0,-3.0v7 M-2.5,-0.5L0,-3.0L2.5,-0.5"/>
                </g>
        </g>
        <svg viewBox="0 0 15 15" width="100%" height="30px" preserveAspectRatio="xMaxYMin meet">
         <g id="arrow_out" transform="scale(0.3 0.3)">
          <a xlink:href="class_global_functions__coll__graph_org.svg" target="_base">
           <rect id="button" ry="5" rx="5" y="6" x="6" height="38" width="38"
                fill="#f2f5e9" fill-opacity="0.5" stroke="#606060" stroke-width="1.0"/>
           <path id="arrow"
             d="M 11.500037,31.436501 C 11.940474,20.09759 22.043105,11.32322 32.158766,21.979434 L 37.068811,17.246167 C 37.068811,17.246167 37.088388,32 37.088388,32 L 22.160133,31.978069 C 22.160133,31.978069 26.997745,27.140456 26.997745,27.140456 C 18.528582,18.264221 13.291696,25.230495 11.500037,31.436501 z"
             style="fill:#404040;"/>
          </a>
         </g>
        </svg>
</svg>
