<?xml version="1.0" encoding="UTF-8" standalone="no"?>
<!DOCTYPE svg PUBLIC "-//W3C//DTD SVG 1.1//EN"
 "http://www.w3.org/Graphics/SVG/1.1/DTD/svg11.dtd">
<!-- Generated by graphviz version 2.38.0 (20140413.2041)
 -->
<!-- Title: Enemy Pages: 1 -->
<!--zoomable 1127 -->
<svg id="main" version="1.1" xmlns="http://www.w3.org/2000/svg" xmlns:xlink="http://www.w3.org/1999/xlink" xml:space="preserve" onload="init(evt)">
<style type="text/css"><![CDATA[
.edge:hover path { stroke: red; }
.edge:hover polygon { stroke: red; fill: red; }
]]></style>
<script type="text/javascript"><![CDATA[
var edges = document.getElementsByTagName('g');
if (edges && edges.length) {
  for (var i=0;i<edges.length;i++) {
    if (edges[i].id.substr(0,4)=='edge') {
      edges[i].setAttribute('class','edge');
    }
  }
}
]]></script>
        <defs>
                <circle id="rim" cx="0" cy="0" r="7"/>
                <circle id="rim2" cx="0" cy="0" r="3.5"/>
                <g id="zoomPlus">
                        <use xlink:href="#rim" fill="#404040">
                                <set attributeName="fill" to="#808080" begin="zoomplus.mouseover" end="zoomplus.mouseout"/>
                        </use>
                        <path d="M-4,0h8M0,-4v8" fill="none" stroke="white" stroke-width="1.5" pointer-events="none"/>
                </g>
                <g id="zoomMin">
                        <use xlink:href="#rim" fill="#404040">
                                <set attributeName="fill" to="#808080" begin="zoomminus.mouseover" end="zoomminus.mouseout"/>
                        </use>
                        <path d="M-4,0h8" fill="none" stroke="white" stroke-width="1.5" pointer-events="none"/>
                </g>
                <g id="dirArrow">
                        <path fill="none" stroke="white" stroke-width="1.5" d="M0,-3.0v7 M-2.5,-0.5L0,-3.0L2.5,-0.5"/>
                </g>
               <g id="resetDef">
                       <use xlink:href="#rim2" fill="#404040">
                               <set attributeName="fill" to="#808080" begin="reset.mouseover" end="reset.mouseout"/>
                       </use>
               </g>
        </defs>

<script type="text/javascript">
var viewWidth = 700;
var viewHeight = 1127;
var sectionId = 'dynsection-1';
</script>
<script xlink:href="svgpan.js"/>
<svg id="graph" class="graph">
<g id="viewport">
<title>Enemy</title>
<!-- Node2 -->
<g id="node1" class="node"><title>Node2</title>
<polygon fill="#bfbfbf" stroke="black" points="387.5,-956.5 387.5,-1013.5 454.5,-1013.5 454.5,-956.5 387.5,-956.5"/>
<text text-anchor="middle" x="421" y="-1001.5" font-family="Helvetica,sans-Serif" font-size="10.00">Enemy</text>
<polyline fill="none" stroke="black" points="387.5,-994.5 454.5,-994.5 "/>
<text text-anchor="start" x="395.5" y="-982.5" font-family="Helvetica,sans-Serif" font-size="10.00">+ ExpGiven</text>
<polyline fill="none" stroke="black" points="387.5,-975.5 454.5,-975.5 "/>
<text text-anchor="start" x="395.5" y="-963.5" font-family="Helvetica,sans-Serif" font-size="10.00">+ Enemy()</text>
</g>
<!-- Node8 -->
<g id="node7" class="node"><title>Node8</title>
<g id="a_node7"><a xlink:href="class_battle_manager.html" target="_top" xlink:title="{BattleManager\n|+ Player\l+ Enemy\l+ WasCriticalHit\l|+ BattleManager()\l+ playerFirst()\l+ switchPlayers()\l+ isCriticalHit()\l+ ranAway()\l+ damageCalculation()\l+ enemyMove()\l+ enemySpecialMove()\l+ battleWon()\l+ playerFainted()\l&#45; characterFainted()\l}">
<polygon fill="none" stroke="black" points="444,-708.5 444,-897.5 560,-897.5 560,-708.5 444,-708.5"/>
<text text-anchor="middle" x="502" y="-885.5" font-family="Helvetica,sans-Serif" font-size="10.00">BattleManager</text>
<polyline fill="none" stroke="black" points="444,-878.5 560,-878.5 "/>
<text text-anchor="start" x="452" y="-866.5" font-family="Helvetica,sans-Serif" font-size="10.00">+ Player</text>
<text text-anchor="start" x="452" y="-855.5" font-family="Helvetica,sans-Serif" font-size="10.00">+ Enemy</text>
<text text-anchor="start" x="452" y="-844.5" font-family="Helvetica,sans-Serif" font-size="10.00">+ WasCriticalHit</text>
<polyline fill="none" stroke="black" points="444,-837.5 560,-837.5 "/>
<text text-anchor="start" x="452" y="-825.5" font-family="Helvetica,sans-Serif" font-size="10.00">+ BattleManager()</text>
<text text-anchor="start" x="452" y="-814.5" font-family="Helvetica,sans-Serif" font-size="10.00">+ playerFirst()</text>
<text text-anchor="start" x="452" y="-803.5" font-family="Helvetica,sans-Serif" font-size="10.00">+ switchPlayers()</text>
<text text-anchor="start" x="452" y="-792.5" font-family="Helvetica,sans-Serif" font-size="10.00">+ isCriticalHit()</text>
<text text-anchor="start" x="452" y="-781.5" font-family="Helvetica,sans-Serif" font-size="10.00">+ ranAway()</text>
<text text-anchor="start" x="452" y="-770.5" font-family="Helvetica,sans-Serif" font-size="10.00">+ damageCalculation()</text>
<text text-anchor="start" x="452" y="-759.5" font-family="Helvetica,sans-Serif" font-size="10.00">+ enemyMove()</text>
<text text-anchor="start" x="452" y="-748.5" font-family="Helvetica,sans-Serif" font-size="10.00">+ enemySpecialMove()</text>
<text text-anchor="start" x="452" y="-737.5" font-family="Helvetica,sans-Serif" font-size="10.00">+ battleWon()</text>
<text text-anchor="start" x="452" y="-726.5" font-family="Helvetica,sans-Serif" font-size="10.00">+ playerFainted()</text>
<text text-anchor="start" x="452" y="-715.5" font-family="Helvetica,sans-Serif" font-size="10.00">&#45; characterFainted()</text>
</a>
</g>
</g>
<!-- Node2&#45;&gt;Node8 -->
<g id="edge10" class="edge"><title>Node2&#45;&gt;Node8</title>
<path fill="none" stroke="#404040" d="M432.515,-956.453C437.759,-944.051 444.101,-929.249 450,-916 451.08,-913.573 452.178,-911.119 453.289,-908.646"/>
<polygon fill="none" stroke="#404040" points="453.291,-908.642 452.114,-901.527 458.229,-897.705 459.405,-904.82 453.291,-908.642"/>
<text text-anchor="middle" x="468" y="-924.5" font-family="Helvetica,sans-Serif" font-size="10.00"> &#45;enemy</text>
</g>
<!-- Node3 -->
<g id="node2" class="node"><title>Node3</title>
<g id="a_node2"><a xlink:href="class_character.html" target="_top" xlink:title="Base abstract class for Enemy and Player to inherit from. Defines all shared variables, their constructor and their setters and getters ">
<polygon fill="none" stroke="black" points="272.5,-150.5 272.5,-317.5 367.5,-317.5 367.5,-150.5 272.5,-150.5"/>
<text text-anchor="middle" x="320" y="-305.5" font-family="Helvetica,sans-Serif" font-size="10.00">Character</text>
<polyline fill="none" stroke="black" points="272.5,-298.5 367.5,-298.5 "/>
<text text-anchor="start" x="280.5" y="-286.5" font-family="Helvetica,sans-Serif" font-size="10.00">+ Name</text>
<text text-anchor="start" x="280.5" y="-275.5" font-family="Helvetica,sans-Serif" font-size="10.00">+ Level</text>
<text text-anchor="start" x="280.5" y="-264.5" font-family="Helvetica,sans-Serif" font-size="10.00">+ Health</text>
<text text-anchor="start" x="280.5" y="-253.5" font-family="Helvetica,sans-Serif" font-size="10.00">+ Attack</text>
<text text-anchor="start" x="280.5" y="-242.5" font-family="Helvetica,sans-Serif" font-size="10.00">+ Defence</text>
<text text-anchor="start" x="280.5" y="-231.5" font-family="Helvetica,sans-Serif" font-size="10.00">+ MaximumMagic</text>
<text text-anchor="start" x="280.5" y="-220.5" font-family="Helvetica,sans-Serif" font-size="10.00">+ Magic</text>
<text text-anchor="start" x="280.5" y="-209.5" font-family="Helvetica,sans-Serif" font-size="10.00">+ Luck</text>
<text text-anchor="start" x="280.5" y="-198.5" font-family="Helvetica,sans-Serif" font-size="10.00">+ Speed</text>
<text text-anchor="start" x="280.5" y="-187.5" font-family="Helvetica,sans-Serif" font-size="10.00">+ Special1</text>
<text text-anchor="start" x="280.5" y="-176.5" font-family="Helvetica,sans-Serif" font-size="10.00">+ Special2</text>
<polyline fill="none" stroke="black" points="272.5,-169.5 367.5,-169.5 "/>
<text text-anchor="start" x="280.5" y="-157.5" font-family="Helvetica,sans-Serif" font-size="10.00"># Character()</text>
</a>
</g>
</g>
<!-- Node3&#45;&gt;Node2 -->
<g id="edge1" class="edge"><title>Node3&#45;&gt;Node2</title>
<path fill="none" stroke="midnightblue" d="M373.356,-300.901C395.444,-334.622 416,-377.544 416,-420.5 416,-804 416,-804 416,-804 416,-857.927 418.27,-920.907 419.751,-956.254"/>
<polygon fill="none" stroke="midnightblue" points="376.208,-298.87 367.719,-292.532 370.402,-302.781 376.208,-298.87"/>
</g>
<!-- Node7 -->
<g id="node6" class="node"><title>Node7</title>
<g id="a_node6"><a xlink:href="class_character_move.html" target="_top" xlink:title="Astract base class for character moves ">
<polygon fill="none" stroke="black" points="302,-504.5 302,-583.5 388,-583.5 388,-504.5 302,-504.5"/>
<text text-anchor="middle" x="345" y="-571.5" font-family="Helvetica,sans-Serif" font-size="10.00">CharacterMove</text>
<polyline fill="none" stroke="black" points="302,-564.5 388,-564.5 "/>
<text text-anchor="start" x="310" y="-552.5" font-family="Helvetica,sans-Serif" font-size="10.00">+ User</text>
<text text-anchor="start" x="310" y="-541.5" font-family="Helvetica,sans-Serif" font-size="10.00">+ Target</text>
<text text-anchor="start" x="310" y="-530.5" font-family="Helvetica,sans-Serif" font-size="10.00">+ Text</text>
<polyline fill="none" stroke="black" points="302,-523.5 388,-523.5 "/>
<text text-anchor="start" x="310" y="-511.5" font-family="Helvetica,sans-Serif" font-size="10.00">+ performMove()</text>
</a>
</g>
</g>
<!-- Node3&#45;&gt;Node7 -->
<g id="edge7" class="edge"><title>Node3&#45;&gt;Node7</title>
<path fill="none" stroke="#404040" d="M326.697,-317.502C331.212,-373.132 337.026,-444.762 340.876,-492.195"/>
<polygon fill="none" stroke="#404040" points="340.888,-492.343 345.36,-497.999 341.859,-504.303 337.387,-498.647 340.888,-492.343"/>
<text text-anchor="middle" x="356" y="-424.5" font-family="Helvetica,sans-Serif" font-size="10.00"> #target</text>
<text text-anchor="middle" x="356" y="-413.5" font-family="Helvetica,sans-Serif" font-size="10.00">#user</text>
</g>
<!-- Node10 -->
<g id="node9" class="node"><title>Node10</title>
<g id="a_node9"><a xlink:href="class_player.html" target="_top" xlink:title="Defines a playable character for use in battle scenes">
<polygon fill="none" stroke="black" points="400,-0.5 400,-112.5 512,-112.5 512,-0.5 400,-0.5"/>
<text text-anchor="middle" x="456" y="-100.5" font-family="Helvetica,sans-Serif" font-size="10.00">Player</text>
<polyline fill="none" stroke="black" points="400,-93.5 512,-93.5 "/>
<text text-anchor="start" x="408" y="-81.5" font-family="Helvetica,sans-Serif" font-size="10.00">+ Exp</text>
<text text-anchor="start" x="408" y="-70.5" font-family="Helvetica,sans-Serif" font-size="10.00">+ Item</text>
<text text-anchor="start" x="408" y="-59.5" font-family="Helvetica,sans-Serif" font-size="10.00">+ ExpToNextLevel</text>
<polyline fill="none" stroke="black" points="400,-52.5 512,-52.5 "/>
<text text-anchor="start" x="408" y="-40.5" font-family="Helvetica,sans-Serif" font-size="10.00">+ Player()</text>
<text text-anchor="start" x="408" y="-29.5" font-family="Helvetica,sans-Serif" font-size="10.00">+ gainExp()</text>
<text text-anchor="start" x="408" y="-18.5" font-family="Helvetica,sans-Serif" font-size="10.00">+ levelUp()</text>
<text text-anchor="start" x="408" y="-7.5" font-family="Helvetica,sans-Serif" font-size="10.00">&#45; setExpToNextLevel()</text>
</a>
</g>
</g>
<!-- Node3&#45;&gt;Node10 -->
<g id="edge14" class="edge"><title>Node3&#45;&gt;Node10</title>
<path fill="none" stroke="midnightblue" d="M373.912,-163.43C386.974,-146.574 400.762,-128.781 413.231,-112.691"/>
<polygon fill="none" stroke="midnightblue" points="370.925,-161.57 367.566,-171.619 376.458,-165.858 370.925,-161.57"/>
</g>
<!-- Node4 -->
<g id="node3" class="node"><title>Node4</title>
<polygon fill="none" stroke="#bfbfbf" points="230.5,-956.5 230.5,-1013.5 271.5,-1013.5 271.5,-956.5 230.5,-956.5"/>
<text text-anchor="middle" x="251" y="-1001.5" font-family="Helvetica,sans-Serif" font-size="10.00">string</text>
<polyline fill="none" stroke="#bfbfbf" points="230.5,-994.5 271.5,-994.5 "/>
<text text-anchor="middle" x="251" y="-982.5" font-family="Helvetica,sans-Serif" font-size="10.00"> </text>
<polyline fill="none" stroke="#bfbfbf" points="230.5,-975.5 271.5,-975.5 "/>
<text text-anchor="middle" x="251" y="-963.5" font-family="Helvetica,sans-Serif" font-size="10.00"> </text>
</g>
<!-- Node4&#45;&gt;Node3 -->
<g id="edge2" class="edge"><title>Node4&#45;&gt;Node3</title>
<path fill="none" stroke="#404040" d="M249.965,-956.482C246.875,-867.873 239.168,-590.715 260,-504 264.272,-486.219 272.318,-484.382 278,-467 292.413,-422.907 302.296,-372.387 308.835,-329.771"/>
<polygon fill="none" stroke="#404040" points="308.868,-329.554 305.794,-323.031 310.634,-317.685 313.707,-324.208 308.868,-329.554"/>
<text text-anchor="middle" x="276.5" y="-541.5" font-family="Helvetica,sans-Serif" font-size="10.00"> #name</text>
</g>
<!-- Node6 -->
<g id="node5" class="node"><title>Node6</title>
<g id="a_node5"><a xlink:href="class_special_move.html" target="_top" xlink:title="Special move abstract base class that expands upon CharacterMove, adding magic properties ...">
<polygon fill="none" stroke="black" points="171,-376.5 171,-466.5 269,-466.5 269,-376.5 171,-376.5"/>
<text text-anchor="middle" x="220" y="-454.5" font-family="Helvetica,sans-Serif" font-size="10.00">SpecialMove</text>
<polyline fill="none" stroke="black" points="171,-447.5 269,-447.5 "/>
<text text-anchor="start" x="179" y="-435.5" font-family="Helvetica,sans-Serif" font-size="10.00">+ Magic</text>
<text text-anchor="start" x="179" y="-424.5" font-family="Helvetica,sans-Serif" font-size="10.00">+ Desc</text>
<polyline fill="none" stroke="black" points="171,-417.5 269,-417.5 "/>
<text text-anchor="start" x="179" y="-405.5" font-family="Helvetica,sans-Serif" font-size="10.00">+ setUp()</text>
<text text-anchor="start" x="179" y="-394.5" font-family="Helvetica,sans-Serif" font-size="10.00">+ decreaseMagic()</text>
<text text-anchor="start" x="179" y="-383.5" font-family="Helvetica,sans-Serif" font-size="10.00"># SpecialMove()</text>
</a>
</g>
</g>
<!-- Node4&#45;&gt;Node6 -->
<g id="edge18" class="edge"><title>Node4&#45;&gt;Node6</title>
<path fill="none" stroke="#404040" d="M241.767,-956.474C239.983,-950.438 238.275,-944.044 237,-938 206.052,-791.301 201.582,-751.829 207,-602 208.495,-560.662 211.92,-514.073 214.88,-478.721"/>
<polygon fill="none" stroke="#404040" points="214.884,-478.668 211.408,-472.35 215.903,-466.712 219.379,-473.03 214.884,-478.668"/>
<text text-anchor="middle" x="222" y="-643.5" font-family="Helvetica,sans-Serif" font-size="10.00"> #desc</text>
</g>
<!-- Node4&#45;&gt;Node7 -->
<g id="edge6" class="edge"><title>Node4&#45;&gt;Node7</title>
<path fill="none" stroke="#404040" d="M259.867,-956.389C261.673,-950.358 263.483,-943.988 265,-938 295.858,-816.201 322.963,-670.839 336.273,-595.653"/>
<polygon fill="none" stroke="#404040" points="336.285,-595.583 333.386,-588.98 338.366,-583.765 341.265,-590.368 336.285,-595.583"/>
<text text-anchor="middle" x="328.5" y="-800.5" font-family="Helvetica,sans-Serif" font-size="10.00"> #text</text>
</g>
<!-- Node4&#45;&gt;Node8 -->
<g id="edge9" class="edge"><title>Node4&#45;&gt;Node8</title>
<path fill="none" stroke="#404040" d="M271.54,-969.27C306.591,-944.134 379.442,-891.89 433.906,-852.832"/>
<polygon fill="none" stroke="#404040" points="434.097,-852.695 436.642,-845.948 443.849,-845.702 441.304,-852.449 434.097,-852.695"/>
<text text-anchor="middle" x="379" y="-924.5" font-family="Helvetica,sans-Serif" font-size="10.00"> +forceCriticalHits</text>
</g>
<!-- Node11 -->
<g id="node10" class="node"><title>Node11</title>
<g id="a_node10"><a xlink:href="class_item.html" target="_top" xlink:title="{Item\n|+ Name\l+ Desc\l|+ applyBuffs()\l+ revertBuffs()\l}">
<polygon fill="none" stroke="black" points="105.5,-606.5 105.5,-685.5 182.5,-685.5 182.5,-606.5 105.5,-606.5"/>
<text text-anchor="middle" x="144" y="-673.5" font-family="Helvetica,sans-Serif" font-size="10.00">Item</text>
<polyline fill="none" stroke="black" points="105.5,-666.5 182.5,-666.5 "/>
<text text-anchor="start" x="113.5" y="-654.5" font-family="Helvetica,sans-Serif" font-size="10.00">+ Name</text>
<text text-anchor="start" x="113.5" y="-643.5" font-family="Helvetica,sans-Serif" font-size="10.00">+ Desc</text>
<polyline fill="none" stroke="black" points="105.5,-636.5 182.5,-636.5 "/>
<text text-anchor="start" x="113.5" y="-624.5" font-family="Helvetica,sans-Serif" font-size="10.00">+ applyBuffs()</text>
<text text-anchor="start" x="113.5" y="-613.5" font-family="Helvetica,sans-Serif" font-size="10.00">+ revertBuffs()</text>
</a>
</g>
</g>
<!-- Node4&#45;&gt;Node11 -->
<g id="edge16" class="edge"><title>Node4&#45;&gt;Node11</title>
<path fill="none" stroke="#404040" d="M230.427,-979.601C209.332,-973.904 177.484,-961.749 162,-938 137.01,-899.671 138.339,-770.346 141.277,-697.666"/>
<polygon fill="none" stroke="#404040" points="141.278,-697.639 137.542,-691.471 141.799,-685.65 145.535,-691.818 141.278,-697.639"/>
<text text-anchor="middle" x="177" y="-930" font-family="Helvetica,sans-Serif" font-size="10.00"> #desc</text>
<text text-anchor="middle" x="177" y="-919" font-family="Helvetica,sans-Serif" font-size="10.00">#name</text>
</g>
<!-- Node5 -->
<g id="node4" class="node"><title>Node5</title>
<polygon fill="none" stroke="#bfbfbf" points="406.5,-1061.5 406.5,-1118.5 435.5,-1118.5 435.5,-1061.5 406.5,-1061.5"/>
<text text-anchor="middle" x="421" y="-1106.5" font-family="Helvetica,sans-Serif" font-size="10.00">int</text>
<polyline fill="none" stroke="#bfbfbf" points="406.5,-1099.5 435.5,-1099.5 "/>
<text text-anchor="middle" x="421" y="-1087.5" font-family="Helvetica,sans-Serif" font-size="10.00"> </text>
<polyline fill="none" stroke="#bfbfbf" points="406.5,-1080.5 435.5,-1080.5 "/>
<text text-anchor="middle" x="421" y="-1068.5" font-family="Helvetica,sans-Serif" font-size="10.00"> </text>
</g>
<!-- Node5&#45;&gt;Node2 -->
<g id="edge20" class="edge"><title>Node5&#45;&gt;Node2</title>
<path fill="none" stroke="#404040" d="M421,-1061.4C421,-1050.55 421,-1037.87 421,-1026.05"/>
<polygon fill="none" stroke="#404040" points="421,-1025.68 417,-1019.68 421,-1013.68 425,-1019.68 421,-1025.68"/>
<text text-anchor="middle" x="444" y="-1035" font-family="Helvetica,sans-Serif" font-size="10.00"> &#45;expGiven</text>
</g>
<!-- Node5&#45;&gt;Node3 -->
<g id="edge3" class="edge"><title>Node5&#45;&gt;Node3</title>
<path fill="none" stroke="#404040" d="M406.016,-1088.62C331.02,-1086.34 0,-1071.4 0,-986 0,-986 0,-986 0,-420.5 0,-301.429 167.883,-257.529 260.448,-242.373"/>
<polygon fill="none" stroke="#404040" points="260.582,-242.352 265.893,-237.474 272.438,-240.501 267.127,-245.379 260.582,-242.352"/>
<text text-anchor="middle" x="37.5" y="-682" font-family="Helvetica,sans-Serif" font-size="10.00"> #speed</text>
<text text-anchor="middle" x="37.5" y="-671" font-family="Helvetica,sans-Serif" font-size="10.00">#luck</text>
<text text-anchor="middle" x="37.5" y="-660" font-family="Helvetica,sans-Serif" font-size="10.00">#health</text>
<text text-anchor="middle" x="37.5" y="-649" font-family="Helvetica,sans-Serif" font-size="10.00">#magic</text>
<text text-anchor="middle" x="37.5" y="-638" font-family="Helvetica,sans-Serif" font-size="10.00">#maximumMagic</text>
<text text-anchor="middle" x="37.5" y="-627" font-family="Helvetica,sans-Serif" font-size="10.00">#attack</text>
<text text-anchor="middle" x="37.5" y="-616" font-family="Helvetica,sans-Serif" font-size="10.00">#defence</text>
<text text-anchor="middle" x="37.5" y="-605" font-family="Helvetica,sans-Serif" font-size="10.00">#level</text>
</g>
<!-- Node5&#45;&gt;Node6 -->
<g id="edge19" class="edge"><title>Node5&#45;&gt;Node6</title>
<path fill="none" stroke="#404040" d="M406.35,-1087.69C342.292,-1081.58 90,-1053.25 90,-986 90,-986 90,-986 90,-543 90,-532.522 126.795,-499.087 161.234,-470.087"/>
<polygon fill="none" stroke="#404040" points="161.645,-469.744 163.684,-462.827 170.853,-462.048 168.814,-468.965 161.645,-469.744"/>
<text text-anchor="middle" x="107.5" y="-800.5" font-family="Helvetica,sans-Serif" font-size="10.00"> #magic</text>
</g>
<!-- Node5&#45;&gt;Node8 -->
<g id="edge11" class="edge"><title>Node5&#45;&gt;Node8</title>
<path fill="none" stroke="#404040" d="M435.847,-1079.6C447.429,-1071.41 462.87,-1058.45 471,-1043 492.286,-1002.56 501.051,-953.114 504.104,-909.716"/>
<polygon fill="none" stroke="#404040" points="504.11,-909.627 500.472,-903.401 504.82,-897.648 508.458,-903.874 504.11,-909.627"/>
<text text-anchor="middle" x="518.5" y="-982.5" font-family="Helvetica,sans-Serif" font-size="10.00"> +money</text>
</g>
<!-- Node5&#45;&gt;Node10 -->
<g id="edge17" class="edge"><title>Node5&#45;&gt;Node10</title>
<path fill="none" stroke="#404040" d="M435.732,-1088.19C481.314,-1084.81 617,-1067.88 617,-986 617,-986 617,-986 617,-233 617,-173.926 566.854,-126.127 522.534,-95.418"/>
<polygon fill="none" stroke="#404040" points="522.274,-95.2432 515.063,-95.2206 512.31,-88.5555 519.521,-88.5781 522.274,-95.2432"/>
<text text-anchor="middle" x="654.5" y="-547" font-family="Helvetica,sans-Serif" font-size="10.00"> &#45;expToNextLevel</text>
<text text-anchor="middle" x="654.5" y="-536" font-family="Helvetica,sans-Serif" font-size="10.00">&#45;exp</text>
</g>
<!-- Node6&#45;&gt;Node3 -->
<g id="edge4" class="edge"><title>Node6&#45;&gt;Node3</title>
<path fill="none" stroke="#404040" d="M225.369,-376.224C228.05,-362.865 232.049,-348.45 238,-336 244.986,-321.385 254.494,-307.032 264.562,-293.942"/>
<polygon fill="none" stroke="#404040" points="264.854,-293.575 265.469,-286.39 272.337,-284.193 271.723,-291.378 264.854,-293.575"/>
<text text-anchor="middle" x="260.5" y="-350" font-family="Helvetica,sans-Serif" font-size="10.00"> #special1</text>
<text text-anchor="middle" x="260.5" y="-339" font-family="Helvetica,sans-Serif" font-size="10.00">#special2</text>
</g>
<!-- Node7&#45;&gt;Node6 -->
<g id="edge5" class="edge"><title>Node7&#45;&gt;Node6</title>
<path fill="none" stroke="midnightblue" d="M297.348,-497.063C287.003,-487.091 276.082,-476.563 265.811,-466.661"/>
<polygon fill="none" stroke="midnightblue" points="295.133,-499.789 304.761,-504.21 299.991,-494.75 295.133,-499.789"/>
</g>
<!-- Node8&#45;&gt;Node7 -->
<g id="edge8" class="edge"><title>Node8&#45;&gt;Node7</title>
<path fill="none" stroke="#404040" d="M444.875,-708.49C421.244,-669.807 394.815,-626.544 375.083,-594.243"/>
<polygon fill="none" stroke="#404040" points="374.917,-593.972 368.376,-590.937 368.661,-583.732 375.203,-586.767 374.917,-593.972"/>
<text text-anchor="middle" x="456" y="-643.5" font-family="Helvetica,sans-Serif" font-size="10.00"> #manager</text>
</g>
<!-- Node9 -->
<g id="node8" class="node"><title>Node9</title>
<polygon fill="none" stroke="#bfbfbf" points="553.5,-956.5 553.5,-1013.5 588.5,-1013.5 588.5,-956.5 553.5,-956.5"/>
<text text-anchor="middle" x="571" y="-1001.5" font-family="Helvetica,sans-Serif" font-size="10.00">bool</text>
<polyline fill="none" stroke="#bfbfbf" points="553.5,-994.5 588.5,-994.5 "/>
<text text-anchor="middle" x="571" y="-982.5" font-family="Helvetica,sans-Serif" font-size="10.00"> </text>
<polyline fill="none" stroke="#bfbfbf" points="553.5,-975.5 588.5,-975.5 "/>
<text text-anchor="middle" x="571" y="-963.5" font-family="Helvetica,sans-Serif" font-size="10.00"> </text>
</g>
<!-- Node9&#45;&gt;Node8 -->
<g id="edge12" class="edge"><title>Node9&#45;&gt;Node8</title>
<path fill="none" stroke="#404040" d="M553.283,-963.554C547.409,-955.938 541.284,-946.959 537,-938 532.639,-928.879 528.766,-919.139 525.339,-909.23"/>
<polygon fill="none" stroke="#404040" points="525.249,-908.953 519.582,-904.493 521.518,-897.547 527.185,-902.006 525.249,-908.953"/>
<text text-anchor="middle" x="570" y="-924.5" font-family="Helvetica,sans-Serif" font-size="10.00"> &#45;wasCriticalHit</text>
</g>
<!-- Node10&#45;&gt;Node8 -->
<g id="edge13" class="edge"><title>Node10&#45;&gt;Node8</title>
<path fill="none" stroke="#404040" d="M482.209,-112.685C495.968,-146.606 510,-191.399 510,-233 510,-545 510,-545 510,-545 510,-594.686 508.488,-649.748 506.778,-696.12"/>
<polygon fill="none" stroke="#404040" points="506.77,-696.342 510.54,-702.489 506.316,-708.333 502.546,-702.186 506.77,-696.342"/>
<text text-anchor="middle" x="526.5" y="-419" font-family="Helvetica,sans-Serif" font-size="10.00"> &#45;player</text>
</g>
<!-- Node11&#45;&gt;Node10 -->
<g id="edge15" class="edge"><title>Node11&#45;&gt;Node10</title>
<path fill="none" stroke="#404040" d="M137.905,-606.23C133.384,-574.103 128,-527.199 128,-486 128,-486 128,-486 128,-233 128,-116.099 291.98,-76.7714 388.051,-63.7621"/>
<polygon fill="none" stroke="#404040" points="388.085,-63.758 393.528,-59.0281 399.987,-62.2333 394.544,-66.9632 388.085,-63.758"/>
<text text-anchor="middle" x="140.5" y="-419" font-family="Helvetica,sans-Serif" font-size="10.00"> &#45;item</text>
</g>
</g>
</svg>
        <g id="navigator" transform="translate(0 0)" fill="#404254">
                <rect fill="#f2f5e9" fill-opacity="0.5" stroke="#606060" stroke-width=".5" x="0" y="0" width="60" height="60"/>
                <use id="zoomplus" xlink:href="#zoomPlus" x="17" y="9" onmousedown="handleZoom(evt,'in')"/>
                <use id="zoomminus" xlink:href="#zoomMin" x="42" y="9" onmousedown="handleZoom(evt,'out')"/>
                <use id="reset" xlink:href="#resetDef" x="30" y="36" onmousedown="handleReset()"/>
                <g id="arrowUp" xlink:href="#dirArrow" transform="translate(30 24)" onmousedown="handlePan(0,-1)">
                  <use xlink:href="#rim" fill="#404040">
                        <set attributeName="fill" to="#808080" begin="arrowUp.mouseover" end="arrowUp.mouseout"/>
                  </use>
                  <path fill="none" stroke="white" stroke-width="1.5" d="M0,-3.0v7 M-2.5,-0.5L0,-3.0L2.5,-0.5"/>
                </g>
                <g id="arrowRight" xlink:href="#dirArrow" transform="rotate(90) translate(36 -43)" onmousedown="handlePan(1,0)">
                  <use xlink:href="#rim" fill="#404040">
                        <set attributeName="fill" to="#808080" begin="arrowRight.mouseover" end="arrowRight.mouseout"/>
                  </use>
                  <path fill="none" stroke="white" stroke-width="1.5" d="M0,-3.0v7 M-2.5,-0.5L0,-3.0L2.5,-0.5"/>
                </g>
                <g id="arrowDown" xlink:href="#dirArrow" transform="rotate(180) translate(-30 -48)" onmousedown="handlePan(0,1)">
                  <use xlink:href="#rim" fill="#404040">
                        <set attributeName="fill" to="#808080" begin="arrowDown.mouseover" end="arrowDown.mouseout"/>
                  </use>
                  <path fill="none" stroke="white" stroke-width="1.5" d="M0,-3.0v7 M-2.5,-0.5L0,-3.0L2.5,-0.5"/>
                </g>
                <g id="arrowLeft" xlink:href="#dirArrow" transform="rotate(270) translate(-36 17)" onmousedown="handlePan(-1,0)">
                  <use xlink:href="#rim" fill="#404040">
                        <set attributeName="fill" to="#808080" begin="arrowLeft.mouseover" end="arrowLeft.mouseout"/>
                  </use>
                  <path fill="none" stroke="white" stroke-width="1.5" d="M0,-3.0v7 M-2.5,-0.5L0,-3.0L2.5,-0.5"/>
                </g>
        </g>
        <svg viewBox="0 0 15 15" width="100%" height="30px" preserveAspectRatio="xMaxYMin meet">
         <g id="arrow_out" transform="scale(0.3 0.3)">
          <a xlink:href="class_enemy__coll__graph_org.svg" target="_base">
           <rect id="button" ry="5" rx="5" y="6" x="6" height="38" width="38"
                fill="#f2f5e9" fill-opacity="0.5" stroke="#606060" stroke-width="1.0"/>
           <path id="arrow"
             d="M 11.500037,31.436501 C 11.940474,20.09759 22.043105,11.32322 32.158766,21.979434 L 37.068811,17.246167 C 37.068811,17.246167 37.088388,32 37.088388,32 L 22.160133,31.978069 C 22.160133,31.978069 26.997745,27.140456 26.997745,27.140456 C 18.528582,18.264221 13.291696,25.230495 11.500037,31.436501 z"
             style="fill:#404040;"/>
          </a>
         </g>
        </svg>
</svg>
