<?xml version="1.0" encoding="UTF-8" standalone="no"?>
<!DOCTYPE svg PUBLIC "-//W3C//DTD SVG 1.1//EN"
 "http://www.w3.org/Graphics/SVG/1.1/DTD/svg11.dtd">
<!-- Generated by graphviz version 2.38.0 (20140413.2041)
 -->
<!-- Title: Character Pages: 1 -->
<svg width="704pt" height="1043pt"
 viewBox="0.00 0.00 703.50 1043.00" xmlns="http://www.w3.org/2000/svg" xmlns:xlink="http://www.w3.org/1999/xlink">
<g id="graph0" class="graph" transform="scale(1 1) rotate(0) translate(4 1039)">
<title>Character</title>
<!-- Node3 -->
<g id="node1" class="node"><title>Node3</title>
<polygon fill="#bfbfbf" stroke="black" points="121,-674.5 121,-852.5 216,-852.5 216,-674.5 121,-674.5"/>
<text text-anchor="middle" x="168.5" y="-840.5" font-family="Helvetica,sans-Serif" font-size="10.00">Character</text>
<polyline fill="none" stroke="black" points="121,-833.5 216,-833.5 "/>
<text text-anchor="start" x="129" y="-821.5" font-family="Helvetica,sans-Serif" font-size="10.00">+ Name</text>
<text text-anchor="start" x="129" y="-810.5" font-family="Helvetica,sans-Serif" font-size="10.00">+ Level</text>
<text text-anchor="start" x="129" y="-799.5" font-family="Helvetica,sans-Serif" font-size="10.00">+ Health</text>
<text text-anchor="start" x="129" y="-788.5" font-family="Helvetica,sans-Serif" font-size="10.00">+ Attack</text>
<text text-anchor="start" x="129" y="-777.5" font-family="Helvetica,sans-Serif" font-size="10.00">+ Defence</text>
<text text-anchor="start" x="129" y="-766.5" font-family="Helvetica,sans-Serif" font-size="10.00">+ MaximumMagic</text>
<text text-anchor="start" x="129" y="-755.5" font-family="Helvetica,sans-Serif" font-size="10.00">+ Magic</text>
<text text-anchor="start" x="129" y="-744.5" font-family="Helvetica,sans-Serif" font-size="10.00">+ Luck</text>
<text text-anchor="start" x="129" y="-733.5" font-family="Helvetica,sans-Serif" font-size="10.00">+ Speed</text>
<text text-anchor="start" x="129" y="-722.5" font-family="Helvetica,sans-Serif" font-size="10.00">+ Special1</text>
<text text-anchor="start" x="129" y="-711.5" font-family="Helvetica,sans-Serif" font-size="10.00">+ Special2</text>
<text text-anchor="start" x="129" y="-700.5" font-family="Helvetica,sans-Serif" font-size="10.00">+ Image</text>
<polyline fill="none" stroke="black" points="121,-693.5 216,-693.5 "/>
<text text-anchor="start" x="129" y="-681.5" font-family="Helvetica,sans-Serif" font-size="10.00"># Character()</text>
</g>
<!-- Node7 -->
<g id="node5" class="node"><title>Node7</title>
<g id="a_node5"><a xlink:href="class_character_move.html" target="_top" xlink:title="Astract base class for character moves ">
<polygon fill="none" stroke="black" points="200.5,-128.5 200.5,-207.5 286.5,-207.5 286.5,-128.5 200.5,-128.5"/>
<text text-anchor="middle" x="243.5" y="-195.5" font-family="Helvetica,sans-Serif" font-size="10.00">CharacterMove</text>
<polyline fill="none" stroke="black" points="200.5,-188.5 286.5,-188.5 "/>
<text text-anchor="start" x="208.5" y="-176.5" font-family="Helvetica,sans-Serif" font-size="10.00">+ User</text>
<text text-anchor="start" x="208.5" y="-165.5" font-family="Helvetica,sans-Serif" font-size="10.00">+ Target</text>
<text text-anchor="start" x="208.5" y="-154.5" font-family="Helvetica,sans-Serif" font-size="10.00">+ Text</text>
<polyline fill="none" stroke="black" points="200.5,-147.5 286.5,-147.5 "/>
<text text-anchor="start" x="208.5" y="-135.5" font-family="Helvetica,sans-Serif" font-size="10.00">+ performMove()</text>
</a>
</g>
</g>
<!-- Node3&#45;&gt;Node7 -->
<g id="edge6" class="edge"><title>Node3&#45;&gt;Node7</title>
<path fill="none" stroke="#404040" d="M172.915,-674.322C175.944,-624.017 180.668,-559.847 187.5,-503 199.643,-401.955 220.967,-284.856 233.505,-219.608"/>
<polygon fill="none" stroke="#404040" points="233.538,-219.439 230.749,-212.788 235.815,-207.657 238.604,-214.307 233.538,-219.439"/>
<text text-anchor="middle" x="209.5" y="-477" font-family="Helvetica,sans-Serif" font-size="10.00"> #target</text>
<text text-anchor="middle" x="209.5" y="-466" font-family="Helvetica,sans-Serif" font-size="10.00">#user</text>
</g>
<!-- Node9 -->
<g id="node7" class="node"><title>Node9</title>
<g id="a_node7"><a xlink:href="class_enemy.html" target="_top" xlink:title="Defines an AI controller enemy to fight in battle scenes">
<polygon fill="none" stroke="black" points="197,-531 197,-588 264,-588 264,-531 197,-531"/>
<text text-anchor="middle" x="230.5" y="-576" font-family="Helvetica,sans-Serif" font-size="10.00">Enemy</text>
<polyline fill="none" stroke="black" points="197,-569 264,-569 "/>
<text text-anchor="start" x="205" y="-557" font-family="Helvetica,sans-Serif" font-size="10.00">+ ExpGiven</text>
<polyline fill="none" stroke="black" points="197,-550 264,-550 "/>
<text text-anchor="start" x="205" y="-538" font-family="Helvetica,sans-Serif" font-size="10.00">+ Enemy()</text>
</a>
</g>
</g>
<!-- Node3&#45;&gt;Node9 -->
<g id="edge10" class="edge"><title>Node3&#45;&gt;Node9</title>
<path fill="none" stroke="midnightblue" d="M198.541,-664.623C207.125,-636.658 215.806,-608.373 221.95,-588.355"/>
<polygon fill="none" stroke="midnightblue" points="195.102,-663.901 195.514,-674.487 201.794,-665.955 195.102,-663.901"/>
</g>
<!-- Node11 -->
<g id="node9" class="node"><title>Node11</title>
<g id="a_node9"><a xlink:href="class_player.html" target="_top" xlink:title="Defines a playable character for use in battle scenes">
<polygon fill="none" stroke="black" points="373.5,-503.5 373.5,-615.5 485.5,-615.5 485.5,-503.5 373.5,-503.5"/>
<text text-anchor="middle" x="429.5" y="-603.5" font-family="Helvetica,sans-Serif" font-size="10.00">Player</text>
<polyline fill="none" stroke="black" points="373.5,-596.5 485.5,-596.5 "/>
<text text-anchor="start" x="381.5" y="-584.5" font-family="Helvetica,sans-Serif" font-size="10.00">+ Exp</text>
<text text-anchor="start" x="381.5" y="-573.5" font-family="Helvetica,sans-Serif" font-size="10.00">+ Item</text>
<text text-anchor="start" x="381.5" y="-562.5" font-family="Helvetica,sans-Serif" font-size="10.00">+ ExpToNextLevel</text>
<polyline fill="none" stroke="black" points="373.5,-555.5 485.5,-555.5 "/>
<text text-anchor="start" x="381.5" y="-543.5" font-family="Helvetica,sans-Serif" font-size="10.00">+ Player()</text>
<text text-anchor="start" x="381.5" y="-532.5" font-family="Helvetica,sans-Serif" font-size="10.00">+ gainExp()</text>
<text text-anchor="start" x="381.5" y="-521.5" font-family="Helvetica,sans-Serif" font-size="10.00">+ levelUp()</text>
<text text-anchor="start" x="381.5" y="-510.5" font-family="Helvetica,sans-Serif" font-size="10.00">&#45; setExpToNextLevel()</text>
</a>
</g>
</g>
<!-- Node3&#45;&gt;Node11 -->
<g id="edge15" class="edge"><title>Node3&#45;&gt;Node11</title>
<path fill="none" stroke="midnightblue" d="M223.195,-683.061C226.225,-679.895 229.331,-676.857 232.5,-674 244.318,-663.345 319.408,-621.081 373.374,-591.256"/>
<polygon fill="none" stroke="midnightblue" points="220.423,-680.907 216.27,-690.654 225.595,-685.624 220.423,-680.907"/>
</g>
<!-- Node4 -->
<g id="node2" class="node"><title>Node4</title>
<polygon fill="none" stroke="#bfbfbf" points="553,-977.5 553,-1034.5 594,-1034.5 594,-977.5 553,-977.5"/>
<text text-anchor="middle" x="573.5" y="-1022.5" font-family="Helvetica,sans-Serif" font-size="10.00">string</text>
<polyline fill="none" stroke="#bfbfbf" points="553,-1015.5 594,-1015.5 "/>
<text text-anchor="middle" x="573.5" y="-1003.5" font-family="Helvetica,sans-Serif" font-size="10.00"> </text>
<polyline fill="none" stroke="#bfbfbf" points="553,-996.5 594,-996.5 "/>
<text text-anchor="middle" x="573.5" y="-984.5" font-family="Helvetica,sans-Serif" font-size="10.00"> </text>
</g>
<!-- Node4&#45;&gt;Node3 -->
<g id="edge1" class="edge"><title>Node4&#45;&gt;Node3</title>
<path fill="none" stroke="#404040" d="M552.656,-999.836C496.073,-985.01 336.856,-937.844 232.5,-853 229.81,-850.813 227.179,-848.488 224.61,-846.054"/>
<polygon fill="none" stroke="#404040" points="224.532,-845.974 217.475,-844.493 216.128,-837.408 223.186,-838.89 224.532,-845.974"/>
<text text-anchor="middle" x="443" y="-912.5" font-family="Helvetica,sans-Serif" font-size="10.00"> #name</text>
</g>
<!-- Node6 -->
<g id="node4" class="node"><title>Node6</title>
<g id="a_node4"><a xlink:href="class_special_move.html" target="_top" xlink:title="Special move abstract base class that expands upon CharacterMove, adding magic properties ...">
<polygon fill="none" stroke="black" points="115.5,-0.5 115.5,-90.5 213.5,-90.5 213.5,-0.5 115.5,-0.5"/>
<text text-anchor="middle" x="164.5" y="-78.5" font-family="Helvetica,sans-Serif" font-size="10.00">SpecialMove</text>
<polyline fill="none" stroke="black" points="115.5,-71.5 213.5,-71.5 "/>
<text text-anchor="start" x="123.5" y="-59.5" font-family="Helvetica,sans-Serif" font-size="10.00">+ Magic</text>
<text text-anchor="start" x="123.5" y="-48.5" font-family="Helvetica,sans-Serif" font-size="10.00">+ Desc</text>
<polyline fill="none" stroke="black" points="115.5,-41.5 213.5,-41.5 "/>
<text text-anchor="start" x="123.5" y="-29.5" font-family="Helvetica,sans-Serif" font-size="10.00">+ setUp()</text>
<text text-anchor="start" x="123.5" y="-18.5" font-family="Helvetica,sans-Serif" font-size="10.00">+ decreaseMagic()</text>
<text text-anchor="start" x="123.5" y="-7.5" font-family="Helvetica,sans-Serif" font-size="10.00"># SpecialMove()</text>
</a>
</g>
</g>
<!-- Node4&#45;&gt;Node6 -->
<g id="edge19" class="edge"><title>Node4&#45;&gt;Node6</title>
<path fill="none" stroke="#404040" d="M594.469,-988.62C603.42,-980.596 613.228,-970.244 619.5,-959 662.773,-881.424 665.5,-853.329 665.5,-764.5 665.5,-764.5 665.5,-764.5 665.5,-167 665.5,-77.5376 359.695,-54.3126 225.92,-48.4328"/>
<polygon fill="none" stroke="#404040" points="225.898,-48.432 219.737,-52.1782 213.909,-47.9313 220.071,-44.1851 225.898,-48.432"/>
<text text-anchor="middle" x="680.5" y="-471.5" font-family="Helvetica,sans-Serif" font-size="10.00"> #desc</text>
</g>
<!-- Node4&#45;&gt;Node7 -->
<g id="edge5" class="edge"><title>Node4&#45;&gt;Node7</title>
<path fill="none" stroke="#404040" d="M591.083,-977.107C594.033,-971.312 596.712,-965.106 598.5,-959 622.854,-875.824 612.5,-851.168 612.5,-764.5 612.5,-764.5 612.5,-764.5 612.5,-349 612.5,-210.985 401.401,-178.774 298.537,-171.27"/>
<polygon fill="none" stroke="#404040" points="298.525,-171.269 292.272,-174.862 286.551,-170.472 292.804,-166.88 298.525,-171.269"/>
<text text-anchor="middle" x="625" y="-557" font-family="Helvetica,sans-Serif" font-size="10.00"> #text</text>
</g>
<!-- Node8 -->
<g id="node6" class="node"><title>Node8</title>
<g id="a_node6"><a xlink:href="class_battle_manager.html" target="_top" xlink:title="Holds current Player and Enemy objects in battle and provides functions for MainBattle and other obje...">
<polygon fill="none" stroke="black" points="271.5,-255.5 271.5,-444.5 387.5,-444.5 387.5,-255.5 271.5,-255.5"/>
<text text-anchor="middle" x="329.5" y="-432.5" font-family="Helvetica,sans-Serif" font-size="10.00">BattleManager</text>
<polyline fill="none" stroke="black" points="271.5,-425.5 387.5,-425.5 "/>
<text text-anchor="start" x="279.5" y="-413.5" font-family="Helvetica,sans-Serif" font-size="10.00">+ Player</text>
<text text-anchor="start" x="279.5" y="-402.5" font-family="Helvetica,sans-Serif" font-size="10.00">+ Enemy</text>
<text text-anchor="start" x="279.5" y="-391.5" font-family="Helvetica,sans-Serif" font-size="10.00">+ WasCriticalHit</text>
<polyline fill="none" stroke="black" points="271.5,-384.5 387.5,-384.5 "/>
<text text-anchor="start" x="279.5" y="-372.5" font-family="Helvetica,sans-Serif" font-size="10.00">+ BattleManager()</text>
<text text-anchor="start" x="279.5" y="-361.5" font-family="Helvetica,sans-Serif" font-size="10.00">+ playerFirst()</text>
<text text-anchor="start" x="279.5" y="-350.5" font-family="Helvetica,sans-Serif" font-size="10.00">+ switchPlayers()</text>
<text text-anchor="start" x="279.5" y="-339.5" font-family="Helvetica,sans-Serif" font-size="10.00">+ isCriticalHit()</text>
<text text-anchor="start" x="279.5" y="-328.5" font-family="Helvetica,sans-Serif" font-size="10.00">+ ranAway()</text>
<text text-anchor="start" x="279.5" y="-317.5" font-family="Helvetica,sans-Serif" font-size="10.00">+ damageCalculation()</text>
<text text-anchor="start" x="279.5" y="-306.5" font-family="Helvetica,sans-Serif" font-size="10.00">+ enemyMove()</text>
<text text-anchor="start" x="279.5" y="-295.5" font-family="Helvetica,sans-Serif" font-size="10.00">+ enemySpecialMove()</text>
<text text-anchor="start" x="279.5" y="-284.5" font-family="Helvetica,sans-Serif" font-size="10.00">+ battleWon()</text>
<text text-anchor="start" x="279.5" y="-273.5" font-family="Helvetica,sans-Serif" font-size="10.00">+ playerFainted()</text>
<text text-anchor="start" x="279.5" y="-262.5" font-family="Helvetica,sans-Serif" font-size="10.00">&#45; characterFainted()</text>
</a>
</g>
</g>
<!-- Node4&#45;&gt;Node8 -->
<g id="edge8" class="edge"><title>Node4&#45;&gt;Node8</title>
<path fill="none" stroke="#404040" d="M580.75,-977.113C594.893,-916.034 619.426,-768.366 554.5,-674 543.45,-657.939 526.126,-671.649 514.5,-656 473.602,-600.951 526.058,-563.886 494.5,-503 472.138,-459.855 432.379,-422.66 397.494,-395.864"/>
<polygon fill="none" stroke="#404040" points="397.397,-395.792 390.198,-395.387 387.802,-388.586 395.002,-388.99 397.397,-395.792"/>
<text text-anchor="middle" x="556.5" y="-648" font-family="Helvetica,sans-Serif" font-size="10.00"> +forceEnemyMove</text>
<text text-anchor="middle" x="556.5" y="-637" font-family="Helvetica,sans-Serif" font-size="10.00">+forceCriticalHits</text>
</g>
<!-- Node12 -->
<g id="node10" class="node"><title>Node12</title>
<g id="a_node10"><a xlink:href="class_item.html" target="_top" xlink:title="Abstract class for items that can be equipped to a player, increasing some of their stats ...">
<polygon fill="none" stroke="black" points="468,-724 468,-803 545,-803 545,-724 468,-724"/>
<text text-anchor="middle" x="506.5" y="-791" font-family="Helvetica,sans-Serif" font-size="10.00">Item</text>
<polyline fill="none" stroke="black" points="468,-784 545,-784 "/>
<text text-anchor="start" x="476" y="-772" font-family="Helvetica,sans-Serif" font-size="10.00">+ Name</text>
<text text-anchor="start" x="476" y="-761" font-family="Helvetica,sans-Serif" font-size="10.00">+ Desc</text>
<polyline fill="none" stroke="black" points="468,-754 545,-754 "/>
<text text-anchor="start" x="476" y="-742" font-family="Helvetica,sans-Serif" font-size="10.00">+ applyBuffs()</text>
<text text-anchor="start" x="476" y="-731" font-family="Helvetica,sans-Serif" font-size="10.00">+ revertBuffs()</text>
</a>
</g>
</g>
<!-- Node4&#45;&gt;Node12 -->
<g id="edge17" class="edge"><title>Node4&#45;&gt;Node12</title>
<path fill="none" stroke="#404040" d="M552.863,-988.761C544.184,-980.764 534.871,-970.396 529.5,-959 508.086,-913.565 503.727,-855.804 503.87,-815.07"/>
<polygon fill="none" stroke="#404040" points="503.871,-815.006 499.959,-808.948 504.045,-803.007 507.958,-809.065 503.871,-815.006"/>
<text text-anchor="middle" x="544.5" y="-918" font-family="Helvetica,sans-Serif" font-size="10.00"> #desc</text>
<text text-anchor="middle" x="544.5" y="-907" font-family="Helvetica,sans-Serif" font-size="10.00">#name</text>
</g>
<!-- Node5 -->
<g id="node3" class="node"><title>Node5</title>
<polygon fill="none" stroke="#bfbfbf" points="240,-977.5 240,-1034.5 269,-1034.5 269,-977.5 240,-977.5"/>
<text text-anchor="middle" x="254.5" y="-1022.5" font-family="Helvetica,sans-Serif" font-size="10.00">int</text>
<polyline fill="none" stroke="#bfbfbf" points="240,-1015.5 269,-1015.5 "/>
<text text-anchor="middle" x="254.5" y="-1003.5" font-family="Helvetica,sans-Serif" font-size="10.00"> </text>
<polyline fill="none" stroke="#bfbfbf" points="240,-996.5 269,-996.5 "/>
<text text-anchor="middle" x="254.5" y="-984.5" font-family="Helvetica,sans-Serif" font-size="10.00"> </text>
</g>
<!-- Node5&#45;&gt;Node3 -->
<g id="edge2" class="edge"><title>Node5&#45;&gt;Node3</title>
<path fill="none" stroke="#404040" d="M239.93,-1002.32C219.167,-997.62 181.781,-985.742 165.5,-959 148.604,-931.248 144.831,-896.884 146.704,-864.798"/>
<polygon fill="none" stroke="#404040" points="146.721,-864.592 143.215,-858.291 147.683,-852.631 151.189,-858.932 146.721,-864.592"/>
<text text-anchor="middle" x="203" y="-951" font-family="Helvetica,sans-Serif" font-size="10.00"> #speed</text>
<text text-anchor="middle" x="203" y="-940" font-family="Helvetica,sans-Serif" font-size="10.00">#luck</text>
<text text-anchor="middle" x="203" y="-929" font-family="Helvetica,sans-Serif" font-size="10.00">#health</text>
<text text-anchor="middle" x="203" y="-918" font-family="Helvetica,sans-Serif" font-size="10.00">#magic</text>
<text text-anchor="middle" x="203" y="-907" font-family="Helvetica,sans-Serif" font-size="10.00">#maximumMagic</text>
<text text-anchor="middle" x="203" y="-896" font-family="Helvetica,sans-Serif" font-size="10.00">#attack</text>
<text text-anchor="middle" x="203" y="-885" font-family="Helvetica,sans-Serif" font-size="10.00">#defence</text>
<text text-anchor="middle" x="203" y="-874" font-family="Helvetica,sans-Serif" font-size="10.00">#level</text>
</g>
<!-- Node5&#45;&gt;Node6 -->
<g id="edge20" class="edge"><title>Node5&#45;&gt;Node6</title>
<path fill="none" stroke="#404040" d="M239.902,-1003.01C216.118,-999.003 169.003,-987.745 142.5,-959 80.9985,-892.295 80.5,-855.23 80.5,-764.5 80.5,-764.5 80.5,-764.5 80.5,-167 80.5,-142.239 92.5837,-118.927 107.585,-99.5256"/>
<polygon fill="none" stroke="#404040" points="107.767,-99.3039 108.492,-92.1293 115.394,-90.039 114.669,-97.2136 107.767,-99.3039"/>
<text text-anchor="middle" x="98" y="-471.5" font-family="Helvetica,sans-Serif" font-size="10.00"> #magic</text>
</g>
<!-- Node5&#45;&gt;Node8 -->
<g id="edge12" class="edge"><title>Node5&#45;&gt;Node8</title>
<path fill="none" stroke="#404040" d="M263.113,-977.497C272.354,-947.229 286.982,-897.019 296.5,-853 331.494,-691.166 341.572,-650.069 354.5,-485 355.221,-475.793 355.141,-466.28 354.488,-456.767"/>
<polygon fill="none" stroke="#404040" points="354.481,-456.689 349.944,-451.085 353.372,-444.74 357.909,-450.345 354.481,-456.689"/>
<text text-anchor="middle" x="359" y="-642.5" font-family="Helvetica,sans-Serif" font-size="10.00"> +money</text>
</g>
<!-- Node5&#45;&gt;Node9 -->
<g id="edge11" class="edge"><title>Node5&#45;&gt;Node9</title>
<path fill="none" stroke="#404040" d="M252.999,-977.195C248.886,-901.02 237.426,-688.768 232.641,-600.156"/>
<polygon fill="none" stroke="#404040" points="232.632,-599.993 228.315,-594.218 231.985,-588.011 236.303,-593.786 232.632,-599.993"/>
<text text-anchor="middle" x="269.5" y="-761" font-family="Helvetica,sans-Serif" font-size="10.00"> &#45;expGiven</text>
</g>
<!-- Node5&#45;&gt;Node11 -->
<g id="edge18" class="edge"><title>Node5&#45;&gt;Node11</title>
<path fill="none" stroke="#404040" d="M269.092,-1001.77C289.152,-996.501 324.77,-984.045 342.5,-959 416.439,-854.551 350.111,-797.538 383.5,-674 387.7,-658.462 393.438,-642.188 399.438,-626.973"/>
<polygon fill="none" stroke="#404040" points="399.55,-626.695 398.096,-619.632 404.056,-615.573 405.51,-622.636 399.55,-626.695"/>
<text text-anchor="middle" x="421" y="-766.5" font-family="Helvetica,sans-Serif" font-size="10.00"> &#45;expToNextLevel</text>
<text text-anchor="middle" x="421" y="-755.5" font-family="Helvetica,sans-Serif" font-size="10.00">&#45;exp</text>
</g>
<!-- Node6&#45;&gt;Node3 -->
<g id="edge3" class="edge"><title>Node6&#45;&gt;Node3</title>
<path fill="none" stroke="#404040" d="M145.809,-90.5876C137.909,-113.043 130.5,-141.024 130.5,-167 130.5,-560.5 130.5,-560.5 130.5,-560.5 130.5,-593.883 135.574,-629.842 142.014,-662.036"/>
<polygon fill="none" stroke="#404040" points="142.096,-662.43 147.235,-667.489 144.542,-674.178 139.403,-669.119 142.096,-662.43"/>
<text text-anchor="middle" x="153" y="-353" font-family="Helvetica,sans-Serif" font-size="10.00"> #special1</text>
<text text-anchor="middle" x="153" y="-342" font-family="Helvetica,sans-Serif" font-size="10.00">#special2</text>
</g>
<!-- Node7&#45;&gt;Node6 -->
<g id="edge4" class="edge"><title>Node7&#45;&gt;Node6</title>
<path fill="none" stroke="midnightblue" d="M212.429,-119.607C206.177,-110.07 199.629,-100.083 193.452,-90.6615"/>
<polygon fill="none" stroke="midnightblue" points="209.659,-121.766 218.069,-128.21 215.513,-117.928 209.659,-121.766"/>
</g>
<!-- Node8&#45;&gt;Node7 -->
<g id="edge7" class="edge"><title>Node8&#45;&gt;Node7</title>
<path fill="none" stroke="#404040" d="M284.737,-255.31C278.737,-242.752 272.783,-230.291 267.344,-218.906"/>
<polygon fill="none" stroke="#404040" points="267.266,-218.743 261.07,-215.054 262.093,-207.915 268.289,-211.605 267.266,-218.743"/>
<text text-anchor="middle" x="297.5" y="-229" font-family="Helvetica,sans-Serif" font-size="10.00"> #manager</text>
</g>
<!-- Node9&#45;&gt;Node8 -->
<g id="edge9" class="edge"><title>Node9&#45;&gt;Node8</title>
<path fill="none" stroke="#404040" d="M232.489,-530.811C234.658,-511.226 239.167,-484.698 248.5,-463 253.004,-452.529 258.625,-442.088 264.794,-432.026"/>
<polygon fill="none" stroke="#404040" points="264.935,-431.805 264.795,-424.595 271.397,-421.693 271.537,-428.902 264.935,-431.805"/>
<text text-anchor="middle" x="266.5" y="-471.5" font-family="Helvetica,sans-Serif" font-size="10.00"> &#45;enemy</text>
</g>
<!-- Node10 -->
<g id="node8" class="node"><title>Node10</title>
<polygon fill="none" stroke="#bfbfbf" points="282,-531 282,-588 317,-588 317,-531 282,-531"/>
<text text-anchor="middle" x="299.5" y="-576" font-family="Helvetica,sans-Serif" font-size="10.00">bool</text>
<polyline fill="none" stroke="#bfbfbf" points="282,-569 317,-569 "/>
<text text-anchor="middle" x="299.5" y="-557" font-family="Helvetica,sans-Serif" font-size="10.00"> </text>
<polyline fill="none" stroke="#bfbfbf" points="282,-550 317,-550 "/>
<text text-anchor="middle" x="299.5" y="-538" font-family="Helvetica,sans-Serif" font-size="10.00"> </text>
</g>
<!-- Node10&#45;&gt;Node8 -->
<g id="edge13" class="edge"><title>Node10&#45;&gt;Node8</title>
<path fill="none" stroke="#404040" d="M294.342,-530.688C292.055,-516.985 289.63,-500.183 288.5,-485 287.774,-475.249 286.793,-472.628 288.5,-463 288.883,-460.839 289.305,-458.664 289.761,-456.481"/>
<polygon fill="none" stroke="#404040" points="289.771,-456.439 287.247,-449.684 292.512,-444.756 295.036,-451.511 289.771,-456.439"/>
<text text-anchor="middle" x="321.5" y="-471.5" font-family="Helvetica,sans-Serif" font-size="10.00"> &#45;wasCriticalHit</text>
</g>
<!-- Node11&#45;&gt;Node8 -->
<g id="edge14" class="edge"><title>Node11&#45;&gt;Node8</title>
<path fill="none" stroke="#404040" d="M402.964,-503.439C395.845,-488.665 387.904,-472.188 379.948,-455.68"/>
<polygon fill="none" stroke="#404040" points="379.936,-455.655 373.728,-451.986 374.726,-444.845 380.935,-448.513 379.936,-455.655"/>
<text text-anchor="middle" x="408" y="-471.5" font-family="Helvetica,sans-Serif" font-size="10.00"> &#45;player</text>
</g>
<!-- Node12&#45;&gt;Node11 -->
<g id="edge16" class="edge"><title>Node12&#45;&gt;Node11</title>
<path fill="none" stroke="#404040" d="M491.654,-723.552C481.261,-696.29 467.115,-659.179 454.944,-627.249"/>
<polygon fill="none" stroke="#404040" points="454.834,-626.96 448.959,-622.779 450.56,-615.747 456.434,-619.929 454.834,-626.96"/>
<text text-anchor="middle" x="479" y="-642.5" font-family="Helvetica,sans-Serif" font-size="10.00"> &#45;item</text>
</g>
<!-- Node13 -->
<g id="node11" class="node"><title>Node13</title>
<polygon fill="none" stroke="#bfbfbf" points="0,-977.5 0,-1034.5 61,-1034.5 61,-977.5 0,-977.5"/>
<text text-anchor="middle" x="30.5" y="-1022.5" font-family="Helvetica,sans-Serif" font-size="10.00">Texture2D</text>
<polyline fill="none" stroke="#bfbfbf" points="0,-1015.5 61,-1015.5 "/>
<text text-anchor="middle" x="30.5" y="-1003.5" font-family="Helvetica,sans-Serif" font-size="10.00"> </text>
<polyline fill="none" stroke="#bfbfbf" points="0,-996.5 61,-996.5 "/>
<text text-anchor="middle" x="30.5" y="-984.5" font-family="Helvetica,sans-Serif" font-size="10.00"> </text>
</g>
<!-- Node13&#45;&gt;Node3 -->
<g id="edge21" class="edge"><title>Node13&#45;&gt;Node3</title>
<path fill="none" stroke="#404040" d="M46.3304,-977.412C63.0412,-948.289 90.3092,-900.767 114.849,-858.001"/>
<polygon fill="none" stroke="#404040" points="114.883,-857.94 114.4,-850.746 120.856,-847.532 121.339,-854.727 114.883,-857.94"/>
<text text-anchor="middle" x="122" y="-912.5" font-family="Helvetica,sans-Serif" font-size="10.00"> #image</text>
</g>
</g>
</svg>
