<?xml version="1.0" encoding="UTF-8" standalone="no"?>
<!DOCTYPE svg PUBLIC "-//W3C//DTD SVG 1.1//EN"
 "http://www.w3.org/Graphics/SVG/1.1/DTD/svg11.dtd">
<!-- Generated by graphviz version 2.38.0 (20140413.2041)
 -->
<!-- Title: LevelManager Pages: 1 -->
<svg width="913pt" height="1043pt"
 viewBox="0.00 0.00 913.00 1043.00" xmlns="http://www.w3.org/2000/svg" xmlns:xlink="http://www.w3.org/1999/xlink">
<g id="graph0" class="graph" transform="scale(1 1) rotate(0) translate(4 1039)">
<title>LevelManager</title>
<!-- Node2 -->
<g id="node1" class="node"><title>Node2</title>
<polygon fill="#bfbfbf" stroke="black" points="141.5,-316 141.5,-384 232.5,-384 232.5,-316 141.5,-316"/>
<text text-anchor="middle" x="187" y="-372" font-family="Helvetica,sans-Serif" font-size="10.00">LevelManager</text>
<polyline fill="none" stroke="black" points="141.5,-365 232.5,-365 "/>
<text text-anchor="middle" x="187" y="-353" font-family="Helvetica,sans-Serif" font-size="10.00"> </text>
<polyline fill="none" stroke="black" points="141.5,-346 232.5,-346 "/>
<text text-anchor="start" x="149.5" y="-334" font-family="Helvetica,sans-Serif" font-size="10.00">&#45; Start()</text>
<text text-anchor="start" x="149.5" y="-323" font-family="Helvetica,sans-Serif" font-size="10.00">&#45; WaitThenLoad()</text>
</g>
<!-- Node3 -->
<g id="node2" class="node"><title>Node3</title>
<g id="a_node2"><a xlink:href="class_mono_behaviour.html" target="_top" xlink:title="{MonoBehaviour\n||}">
<polygon fill="none" stroke="black" points="96.5,-531 96.5,-588 179.5,-588 179.5,-531 96.5,-531"/>
<text text-anchor="middle" x="138" y="-576" font-family="Helvetica,sans-Serif" font-size="10.00">MonoBehaviour</text>
<polyline fill="none" stroke="black" points="96.5,-569 179.5,-569 "/>
<text text-anchor="middle" x="138" y="-557" font-family="Helvetica,sans-Serif" font-size="10.00"> </text>
<polyline fill="none" stroke="black" points="96.5,-550 179.5,-550 "/>
<text text-anchor="middle" x="138" y="-538" font-family="Helvetica,sans-Serif" font-size="10.00"> </text>
</a>
</g>
</g>
<!-- Node3&#45;&gt;Node2 -->
<g id="edge1" class="edge"><title>Node3&#45;&gt;Node2</title>
<path fill="none" stroke="midnightblue" d="M146.847,-521.034C156.06,-482.019 170.354,-421.492 179.17,-384.159"/>
<polygon fill="none" stroke="midnightblue" points="143.399,-520.409 144.507,-530.946 150.211,-522.018 143.399,-520.409"/>
</g>
<!-- Node4 -->
<g id="node3" class="node"><title>Node4</title>
<polygon fill="none" stroke="#bfbfbf" points="313.5,-977.5 313.5,-1034.5 354.5,-1034.5 354.5,-977.5 313.5,-977.5"/>
<text text-anchor="middle" x="334" y="-1022.5" font-family="Helvetica,sans-Serif" font-size="10.00">string</text>
<polyline fill="none" stroke="#bfbfbf" points="313.5,-1015.5 354.5,-1015.5 "/>
<text text-anchor="middle" x="334" y="-1003.5" font-family="Helvetica,sans-Serif" font-size="10.00"> </text>
<polyline fill="none" stroke="#bfbfbf" points="313.5,-996.5 354.5,-996.5 "/>
<text text-anchor="middle" x="334" y="-984.5" font-family="Helvetica,sans-Serif" font-size="10.00"> </text>
</g>
<!-- Node4&#45;&gt;Node2 -->
<g id="edge2" class="edge"><title>Node4&#45;&gt;Node2</title>
<path fill="none" stroke="#404040" d="M313.3,-977.065C309.551,-971.273 305.913,-965.079 303,-959 242.063,-831.85 235.132,-794.556 209,-656 191.823,-564.922 187.842,-456.221 187.048,-396.291"/>
<polygon fill="none" stroke="#404040" points="187.048,-396.266 182.986,-390.308 186.923,-384.266 190.985,-390.224 187.048,-396.266"/>
<text text-anchor="middle" x="250" y="-648" font-family="Helvetica,sans-Serif" font-size="10.00"> &#45;bossObjectName</text>
<text text-anchor="middle" x="250" y="-637" font-family="Helvetica,sans-Serif" font-size="10.00">&#45;playerDesc</text>
</g>
<!-- Node7 -->
<g id="node6" class="node"><title>Node7</title>
<g id="a_node6"><a xlink:href="class_character.html" target="_top" xlink:title="Base abstract class for Enemy and Player to inherit from. Defines all shared variables, their constructor and their setters and getters ">
<polygon fill="none" stroke="black" points="440.5,-674.5 440.5,-852.5 535.5,-852.5 535.5,-674.5 440.5,-674.5"/>
<text text-anchor="middle" x="488" y="-840.5" font-family="Helvetica,sans-Serif" font-size="10.00">Character</text>
<polyline fill="none" stroke="black" points="440.5,-833.5 535.5,-833.5 "/>
<text text-anchor="start" x="448.5" y="-821.5" font-family="Helvetica,sans-Serif" font-size="10.00">+ Name</text>
<text text-anchor="start" x="448.5" y="-810.5" font-family="Helvetica,sans-Serif" font-size="10.00">+ Level</text>
<text text-anchor="start" x="448.5" y="-799.5" font-family="Helvetica,sans-Serif" font-size="10.00">+ Health</text>
<text text-anchor="start" x="448.5" y="-788.5" font-family="Helvetica,sans-Serif" font-size="10.00">+ Attack</text>
<text text-anchor="start" x="448.5" y="-777.5" font-family="Helvetica,sans-Serif" font-size="10.00">+ Defence</text>
<text text-anchor="start" x="448.5" y="-766.5" font-family="Helvetica,sans-Serif" font-size="10.00">+ MaximumMagic</text>
<text text-anchor="start" x="448.5" y="-755.5" font-family="Helvetica,sans-Serif" font-size="10.00">+ Magic</text>
<text text-anchor="start" x="448.5" y="-744.5" font-family="Helvetica,sans-Serif" font-size="10.00">+ Luck</text>
<text text-anchor="start" x="448.5" y="-733.5" font-family="Helvetica,sans-Serif" font-size="10.00">+ Speed</text>
<text text-anchor="start" x="448.5" y="-722.5" font-family="Helvetica,sans-Serif" font-size="10.00">+ Special1</text>
<text text-anchor="start" x="448.5" y="-711.5" font-family="Helvetica,sans-Serif" font-size="10.00">+ Special2</text>
<text text-anchor="start" x="448.5" y="-700.5" font-family="Helvetica,sans-Serif" font-size="10.00">+ Image</text>
<polyline fill="none" stroke="black" points="440.5,-693.5 535.5,-693.5 "/>
<text text-anchor="start" x="448.5" y="-681.5" font-family="Helvetica,sans-Serif" font-size="10.00"># Character()</text>
</a>
</g>
</g>
<!-- Node4&#45;&gt;Node7 -->
<g id="edge6" class="edge"><title>Node4&#45;&gt;Node7</title>
<path fill="none" stroke="#404040" d="M354.608,-990.489C364.813,-982.317 376.52,-971.293 384,-959 405.073,-924.368 385.563,-904.765 408,-871 415.184,-860.189 422.252,-862.59 431,-853 431.5,-852.451 431.999,-851.898 432.496,-851.34"/>
<polygon fill="none" stroke="#404040" points="432.674,-851.129 433.475,-843.962 440.399,-841.946 439.597,-849.112 432.674,-851.129"/>
<text text-anchor="middle" x="424.5" y="-912.5" font-family="Helvetica,sans-Serif" font-size="10.00"> #name</text>
</g>
<!-- Node9 -->
<g id="node8" class="node"><title>Node9</title>
<g id="a_node8"><a xlink:href="class_special_move.html" target="_top" xlink:title="Special move abstract base class that expands upon CharacterMove, adding magic properties ...">
<polygon fill="none" stroke="black" points="300,-0.5 300,-90.5 398,-90.5 398,-0.5 300,-0.5"/>
<text text-anchor="middle" x="349" y="-78.5" font-family="Helvetica,sans-Serif" font-size="10.00">SpecialMove</text>
<polyline fill="none" stroke="black" points="300,-71.5 398,-71.5 "/>
<text text-anchor="start" x="308" y="-59.5" font-family="Helvetica,sans-Serif" font-size="10.00">+ Magic</text>
<text text-anchor="start" x="308" y="-48.5" font-family="Helvetica,sans-Serif" font-size="10.00">+ Desc</text>
<polyline fill="none" stroke="black" points="300,-41.5 398,-41.5 "/>
<text text-anchor="start" x="308" y="-29.5" font-family="Helvetica,sans-Serif" font-size="10.00">+ setUp()</text>
<text text-anchor="start" x="308" y="-18.5" font-family="Helvetica,sans-Serif" font-size="10.00">+ decreaseMagic()</text>
<text text-anchor="start" x="308" y="-7.5" font-family="Helvetica,sans-Serif" font-size="10.00"># SpecialMove()</text>
</a>
</g>
</g>
<!-- Node4&#45;&gt;Node9 -->
<g id="edge20" class="edge"><title>Node4&#45;&gt;Node9</title>
<path fill="none" stroke="#404040" d="M313.359,-1000.81C240.539,-984.698 0,-919.735 0,-764.5 0,-764.5 0,-764.5 0,-167 0,-106.851 187.563,-70.1317 287.685,-54.8155"/>
<polygon fill="none" stroke="#404040" points="287.869,-54.788 293.211,-49.9434 299.737,-53.0106 294.396,-57.8552 287.869,-54.788"/>
<text text-anchor="middle" x="15" y="-471.5" font-family="Helvetica,sans-Serif" font-size="10.00"> #desc</text>
</g>
<!-- Node10 -->
<g id="node9" class="node"><title>Node10</title>
<g id="a_node9"><a xlink:href="class_character_move.html" target="_top" xlink:title="Astract base class for character moves ">
<polygon fill="none" stroke="black" points="413,-128.5 413,-207.5 499,-207.5 499,-128.5 413,-128.5"/>
<text text-anchor="middle" x="456" y="-195.5" font-family="Helvetica,sans-Serif" font-size="10.00">CharacterMove</text>
<polyline fill="none" stroke="black" points="413,-188.5 499,-188.5 "/>
<text text-anchor="start" x="421" y="-176.5" font-family="Helvetica,sans-Serif" font-size="10.00">+ User</text>
<text text-anchor="start" x="421" y="-165.5" font-family="Helvetica,sans-Serif" font-size="10.00">+ Target</text>
<text text-anchor="start" x="421" y="-154.5" font-family="Helvetica,sans-Serif" font-size="10.00">+ Text</text>
<polyline fill="none" stroke="black" points="413,-147.5 499,-147.5 "/>
<text text-anchor="start" x="421" y="-135.5" font-family="Helvetica,sans-Serif" font-size="10.00">+ performMove()</text>
</a>
</g>
</g>
<!-- Node4&#45;&gt;Node10 -->
<g id="edge10" class="edge"><title>Node4&#45;&gt;Node10</title>
<path fill="none" stroke="#404040" d="M332.929,-977.488C330.99,-920.684 327.814,-786.336 336,-674 341.578,-597.458 344.027,-578.064 360,-503 381.751,-400.779 418.019,-283.974 439.201,-219.121"/>
<polygon fill="none" stroke="#404040" points="439.23,-219.032 437.301,-212.084 442.973,-207.631 444.902,-214.58 439.23,-219.032"/>
<text text-anchor="middle" x="372.5" y="-557" font-family="Helvetica,sans-Serif" font-size="10.00"> #text</text>
</g>
<!-- Node11 -->
<g id="node10" class="node"><title>Node11</title>
<g id="a_node10"><a xlink:href="class_battle_manager.html" target="_top" xlink:title="Holds current Player and Enemy objects in battle and provides functions for MainBattle and other obje...">
<polygon fill="none" stroke="black" points="598,-255.5 598,-444.5 714,-444.5 714,-255.5 598,-255.5"/>
<text text-anchor="middle" x="656" y="-432.5" font-family="Helvetica,sans-Serif" font-size="10.00">BattleManager</text>
<polyline fill="none" stroke="black" points="598,-425.5 714,-425.5 "/>
<text text-anchor="start" x="606" y="-413.5" font-family="Helvetica,sans-Serif" font-size="10.00">+ Player</text>
<text text-anchor="start" x="606" y="-402.5" font-family="Helvetica,sans-Serif" font-size="10.00">+ Enemy</text>
<text text-anchor="start" x="606" y="-391.5" font-family="Helvetica,sans-Serif" font-size="10.00">+ WasCriticalHit</text>
<polyline fill="none" stroke="black" points="598,-384.5 714,-384.5 "/>
<text text-anchor="start" x="606" y="-372.5" font-family="Helvetica,sans-Serif" font-size="10.00">+ BattleManager()</text>
<text text-anchor="start" x="606" y="-361.5" font-family="Helvetica,sans-Serif" font-size="10.00">+ playerFirst()</text>
<text text-anchor="start" x="606" y="-350.5" font-family="Helvetica,sans-Serif" font-size="10.00">+ switchPlayers()</text>
<text text-anchor="start" x="606" y="-339.5" font-family="Helvetica,sans-Serif" font-size="10.00">+ isCriticalHit()</text>
<text text-anchor="start" x="606" y="-328.5" font-family="Helvetica,sans-Serif" font-size="10.00">+ ranAway()</text>
<text text-anchor="start" x="606" y="-317.5" font-family="Helvetica,sans-Serif" font-size="10.00">+ damageCalculation()</text>
<text text-anchor="start" x="606" y="-306.5" font-family="Helvetica,sans-Serif" font-size="10.00">+ enemyMove()</text>
<text text-anchor="start" x="606" y="-295.5" font-family="Helvetica,sans-Serif" font-size="10.00">+ enemySpecialMove()</text>
<text text-anchor="start" x="606" y="-284.5" font-family="Helvetica,sans-Serif" font-size="10.00">+ battleWon()</text>
<text text-anchor="start" x="606" y="-273.5" font-family="Helvetica,sans-Serif" font-size="10.00">+ playerFainted()</text>
<text text-anchor="start" x="606" y="-262.5" font-family="Helvetica,sans-Serif" font-size="10.00">&#45; characterFainted()</text>
</a>
</g>
</g>
<!-- Node4&#45;&gt;Node11 -->
<g id="edge13" class="edge"><title>Node4&#45;&gt;Node11</title>
<path fill="none" stroke="#404040" d="M354.519,-1000.74C378.009,-994.919 416.404,-982.431 441,-959 472.518,-928.975 448.291,-895.895 484,-871 516.433,-848.389 634.496,-882.336 661,-853 714.333,-793.969 663.055,-753.529 661,-674 660.333,-648.196 658.764,-641.801 658,-616 656.446,-563.536 655.88,-505.205 655.73,-456.655"/>
<polygon fill="none" stroke="#404040" points="655.729,-456.533 651.715,-450.542 655.7,-444.533 659.715,-450.523 655.729,-456.533"/>
<text text-anchor="middle" x="703" y="-648" font-family="Helvetica,sans-Serif" font-size="10.00"> +forceEnemyMove</text>
<text text-anchor="middle" x="703" y="-637" font-family="Helvetica,sans-Serif" font-size="10.00">+forceCriticalHits</text>
</g>
<!-- Node15 -->
<g id="node14" class="node"><title>Node15</title>
<g id="a_node14"><a xlink:href="class_item.html" target="_top" xlink:title="Abstract class for items that can be equipped to a player, increasing some of their stats ...">
<polygon fill="none" stroke="black" points="345.5,-724 345.5,-803 422.5,-803 422.5,-724 345.5,-724"/>
<text text-anchor="middle" x="384" y="-791" font-family="Helvetica,sans-Serif" font-size="10.00">Item</text>
<polyline fill="none" stroke="black" points="345.5,-784 422.5,-784 "/>
<text text-anchor="start" x="353.5" y="-772" font-family="Helvetica,sans-Serif" font-size="10.00">+ Name</text>
<text text-anchor="start" x="353.5" y="-761" font-family="Helvetica,sans-Serif" font-size="10.00">+ Desc</text>
<polyline fill="none" stroke="black" points="345.5,-754 422.5,-754 "/>
<text text-anchor="start" x="353.5" y="-742" font-family="Helvetica,sans-Serif" font-size="10.00">+ applyBuffs()</text>
<text text-anchor="start" x="353.5" y="-731" font-family="Helvetica,sans-Serif" font-size="10.00">+ revertBuffs()</text>
</a>
</g>
</g>
<!-- Node4&#45;&gt;Node15 -->
<g id="edge24" class="edge"><title>Node4&#45;&gt;Node15</title>
<path fill="none" stroke="#404040" d="M337.09,-977.357C340.375,-950.133 346.178,-907.452 354,-871 357.981,-852.447 363.357,-832.354 368.458,-814.672"/>
<polygon fill="none" stroke="#404040" points="368.459,-814.668 366.311,-807.785 371.839,-803.154 373.987,-810.038 368.459,-814.668"/>
<text text-anchor="middle" x="369" y="-918" font-family="Helvetica,sans-Serif" font-size="10.00"> #desc</text>
<text text-anchor="middle" x="369" y="-907" font-family="Helvetica,sans-Serif" font-size="10.00">#name</text>
</g>
<!-- Node5 -->
<g id="node4" class="node"><title>Node5</title>
<polygon fill="none" stroke="#bfbfbf" points="28,-531 28,-588 78,-588 78,-531 28,-531"/>
<text text-anchor="middle" x="53" y="-576" font-family="Helvetica,sans-Serif" font-size="10.00">Vector2</text>
<polyline fill="none" stroke="#bfbfbf" points="28,-569 78,-569 "/>
<text text-anchor="middle" x="53" y="-557" font-family="Helvetica,sans-Serif" font-size="10.00"> </text>
<polyline fill="none" stroke="#bfbfbf" points="28,-550 78,-550 "/>
<text text-anchor="middle" x="53" y="-538" font-family="Helvetica,sans-Serif" font-size="10.00"> </text>
</g>
<!-- Node5&#45;&gt;Node2 -->
<g id="edge3" class="edge"><title>Node5&#45;&gt;Node2</title>
<path fill="none" stroke="#404040" d="M47.0065,-530.82C44.1053,-510.998 43.0998,-484.178 53,-463 69.1817,-428.385 101.905,-400.709 130.962,-381.528"/>
<polygon fill="none" stroke="#404040" points="131.339,-381.289 134.255,-374.694 141.464,-374.849 138.548,-381.444 131.339,-381.289"/>
<text text-anchor="middle" x="103" y="-471.5" font-family="Helvetica,sans-Serif" font-size="10.00"> &#45;worldMapExitPosition</text>
</g>
<!-- Node6 -->
<g id="node5" class="node"><title>Node6</title>
<g id="a_node5"><a xlink:href="class_player.html" target="_top" xlink:title="Defines a playable character for use in battle scenes">
<polygon fill="none" stroke="black" points="394,-503.5 394,-615.5 506,-615.5 506,-503.5 394,-503.5"/>
<text text-anchor="middle" x="450" y="-603.5" font-family="Helvetica,sans-Serif" font-size="10.00">Player</text>
<polyline fill="none" stroke="black" points="394,-596.5 506,-596.5 "/>
<text text-anchor="start" x="402" y="-584.5" font-family="Helvetica,sans-Serif" font-size="10.00">+ Exp</text>
<text text-anchor="start" x="402" y="-573.5" font-family="Helvetica,sans-Serif" font-size="10.00">+ Item</text>
<text text-anchor="start" x="402" y="-562.5" font-family="Helvetica,sans-Serif" font-size="10.00">+ ExpToNextLevel</text>
<polyline fill="none" stroke="black" points="394,-555.5 506,-555.5 "/>
<text text-anchor="start" x="402" y="-543.5" font-family="Helvetica,sans-Serif" font-size="10.00">+ Player()</text>
<text text-anchor="start" x="402" y="-532.5" font-family="Helvetica,sans-Serif" font-size="10.00">+ gainExp()</text>
<text text-anchor="start" x="402" y="-521.5" font-family="Helvetica,sans-Serif" font-size="10.00">+ levelUp()</text>
<text text-anchor="start" x="402" y="-510.5" font-family="Helvetica,sans-Serif" font-size="10.00">&#45; setExpToNextLevel()</text>
</a>
</g>
</g>
<!-- Node6&#45;&gt;Node2 -->
<g id="edge4" class="edge"><title>Node6&#45;&gt;Node2</title>
<path fill="none" stroke="#404040" d="M393.941,-513.016C389.279,-509.553 384.593,-506.174 380,-503 338.675,-474.446 322.777,-475.673 283,-445 262.866,-429.474 242.473,-410.128 225.693,-393.03"/>
<polygon fill="none" stroke="#404040" points="225.613,-392.948 218.566,-391.419 217.267,-384.326 224.314,-385.855 225.613,-392.948"/>
<text text-anchor="middle" x="377" y="-471.5" font-family="Helvetica,sans-Serif" font-size="10.00"> &#45;newPlayer</text>
</g>
<!-- Node6&#45;&gt;Node11 -->
<g id="edge19" class="edge"><title>Node6&#45;&gt;Node11</title>
<path fill="none" stroke="#404040" d="M506.034,-530.729C527.252,-518.54 550.682,-502.909 569,-485 578.511,-475.702 587.511,-465.185 595.858,-454.233"/>
<polygon fill="none" stroke="#404040" points="595.901,-454.174 596.242,-446.971 603.022,-444.516 602.681,-451.719 595.901,-454.174"/>
<text text-anchor="middle" x="603.5" y="-471.5" font-family="Helvetica,sans-Serif" font-size="10.00"> &#45;player</text>
</g>
<!-- Node7&#45;&gt;Node6 -->
<g id="edge5" class="edge"><title>Node7&#45;&gt;Node6</title>
<path fill="none" stroke="midnightblue" d="M469.585,-664.608C466.419,-647.782 463.233,-630.841 460.376,-615.656"/>
<polygon fill="none" stroke="midnightblue" points="466.155,-665.307 471.443,-674.487 473.034,-664.013 466.155,-665.307"/>
</g>
<!-- Node7&#45;&gt;Node10 -->
<g id="edge11" class="edge"><title>Node7&#45;&gt;Node10</title>
<path fill="none" stroke="#404040" d="M506.964,-674.156C510.308,-655.066 513.27,-634.93 515,-616 528.192,-471.638 491.422,-302.217 470.072,-219.541"/>
<polygon fill="none" stroke="#404040" points="470.023,-219.354 464.631,-214.566 466.978,-207.747 472.369,-212.536 470.023,-219.354"/>
<text text-anchor="middle" x="533" y="-477" font-family="Helvetica,sans-Serif" font-size="10.00"> #target</text>
<text text-anchor="middle" x="533" y="-466" font-family="Helvetica,sans-Serif" font-size="10.00">#user</text>
</g>
<!-- Node12 -->
<g id="node11" class="node"><title>Node12</title>
<g id="a_node11"><a xlink:href="class_enemy.html" target="_top" xlink:title="Defines an AI controller enemy to fight in battle scenes">
<polygon fill="none" stroke="black" points="720.5,-531 720.5,-588 787.5,-588 787.5,-531 720.5,-531"/>
<text text-anchor="middle" x="754" y="-576" font-family="Helvetica,sans-Serif" font-size="10.00">Enemy</text>
<polyline fill="none" stroke="black" points="720.5,-569 787.5,-569 "/>
<text text-anchor="start" x="728.5" y="-557" font-family="Helvetica,sans-Serif" font-size="10.00">+ ExpGiven</text>
<polyline fill="none" stroke="black" points="720.5,-550 787.5,-550 "/>
<text text-anchor="start" x="728.5" y="-538" font-family="Helvetica,sans-Serif" font-size="10.00">+ Enemy()</text>
</a>
</g>
</g>
<!-- Node7&#45;&gt;Node12 -->
<g id="edge15" class="edge"><title>Node7&#45;&gt;Node12</title>
<path fill="none" stroke="midnightblue" d="M542.673,-681.171C545.068,-678.683 547.512,-676.283 550,-674 576.116,-650.032 585.804,-646.43 619,-634 658.427,-619.237 676.265,-638.259 712,-616 722.974,-609.164 732.112,-598.347 739.031,-588.071"/>
<polygon fill="none" stroke="midnightblue" points="539.798,-679.129 535.642,-688.875 544.968,-683.848 539.798,-679.129"/>
</g>
<!-- Node8 -->
<g id="node7" class="node"><title>Node8</title>
<polygon fill="none" stroke="#bfbfbf" points="727.5,-977.5 727.5,-1034.5 756.5,-1034.5 756.5,-977.5 727.5,-977.5"/>
<text text-anchor="middle" x="742" y="-1022.5" font-family="Helvetica,sans-Serif" font-size="10.00">int</text>
<polyline fill="none" stroke="#bfbfbf" points="727.5,-1015.5 756.5,-1015.5 "/>
<text text-anchor="middle" x="742" y="-1003.5" font-family="Helvetica,sans-Serif" font-size="10.00"> </text>
<polyline fill="none" stroke="#bfbfbf" points="727.5,-996.5 756.5,-996.5 "/>
<text text-anchor="middle" x="742" y="-984.5" font-family="Helvetica,sans-Serif" font-size="10.00"> </text>
</g>
<!-- Node8&#45;&gt;Node6 -->
<g id="edge25" class="edge"><title>Node8&#45;&gt;Node6</title>
<path fill="none" stroke="#404040" d="M727.431,-977.524C696.352,-919.661 620.152,-781.715 544,-674 532.503,-657.737 519.306,-640.87 506.506,-625.27"/>
<polygon fill="none" stroke="#404040" points="506.264,-624.977 499.355,-622.909 498.607,-615.737 505.515,-617.805 506.264,-624.977"/>
<text text-anchor="middle" x="694.5" y="-766.5" font-family="Helvetica,sans-Serif" font-size="10.00"> &#45;expToNextLevel</text>
<text text-anchor="middle" x="694.5" y="-755.5" font-family="Helvetica,sans-Serif" font-size="10.00">&#45;exp</text>
</g>
<!-- Node8&#45;&gt;Node7 -->
<g id="edge7" class="edge"><title>Node8&#45;&gt;Node7</title>
<path fill="none" stroke="#404040" d="M727.325,-1003.49C686.521,-998.984 573.009,-984.392 547,-959 518.075,-930.76 535.591,-909.728 524,-871 523.328,-868.756 522.641,-866.489 521.94,-864.205"/>
<polygon fill="none" stroke="#404040" points="521.918,-864.135 516.311,-859.601 518.34,-852.681 523.947,-857.215 521.918,-864.135"/>
<text text-anchor="middle" x="584.5" y="-951" font-family="Helvetica,sans-Serif" font-size="10.00"> #speed</text>
<text text-anchor="middle" x="584.5" y="-940" font-family="Helvetica,sans-Serif" font-size="10.00">#luck</text>
<text text-anchor="middle" x="584.5" y="-929" font-family="Helvetica,sans-Serif" font-size="10.00">#health</text>
<text text-anchor="middle" x="584.5" y="-918" font-family="Helvetica,sans-Serif" font-size="10.00">#magic</text>
<text text-anchor="middle" x="584.5" y="-907" font-family="Helvetica,sans-Serif" font-size="10.00">#maximumMagic</text>
<text text-anchor="middle" x="584.5" y="-896" font-family="Helvetica,sans-Serif" font-size="10.00">#attack</text>
<text text-anchor="middle" x="584.5" y="-885" font-family="Helvetica,sans-Serif" font-size="10.00">#defence</text>
<text text-anchor="middle" x="584.5" y="-874" font-family="Helvetica,sans-Serif" font-size="10.00">#level</text>
</g>
<!-- Node8&#45;&gt;Node9 -->
<g id="edge21" class="edge"><title>Node8&#45;&gt;Node9</title>
<path fill="none" stroke="#404040" d="M756.503,-995.156C768.004,-986.715 783.788,-973.626 794,-959 847.131,-882.904 870,-857.309 870,-764.5 870,-764.5 870,-764.5 870,-167 870,-73.5953 548.121,-52.5784 410.363,-47.8607"/>
<polygon fill="none" stroke="#404040" points="410.008,-47.8494 403.883,-51.655 398.014,-47.4648 404.14,-43.6592 410.008,-47.8494"/>
<text text-anchor="middle" x="887.5" y="-471.5" font-family="Helvetica,sans-Serif" font-size="10.00"> #magic</text>
</g>
<!-- Node8&#45;&gt;Node11 -->
<g id="edge17" class="edge"><title>Node8&#45;&gt;Node11</title>
<path fill="none" stroke="#404040" d="M756.098,-977.321C770.423,-947.519 791.655,-898.276 800,-853 814.098,-776.508 808.969,-579.854 797,-503 794.144,-484.661 795.073,-478.59 785,-463 768.945,-438.151 745.815,-415.662 723.563,-397.467"/>
<polygon fill="none" stroke="#404040" points="723.492,-397.41 716.306,-396.804 714.103,-389.937 721.288,-390.544 723.492,-397.41"/>
<text text-anchor="middle" x="826.5" y="-642.5" font-family="Helvetica,sans-Serif" font-size="10.00"> +money</text>
</g>
<!-- Node8&#45;&gt;Node12 -->
<g id="edge16" class="edge"><title>Node8&#45;&gt;Node12</title>
<path fill="none" stroke="#404040" d="M742.751,-977.195C744.807,-901.02 750.537,-688.768 752.929,-600.156"/>
<polygon fill="none" stroke="#404040" points="752.933,-600.006 749.097,-593.9 753.257,-588.011 757.094,-594.116 752.933,-600.006"/>
<text text-anchor="middle" x="773" y="-761" font-family="Helvetica,sans-Serif" font-size="10.00"> &#45;expGiven</text>
</g>
<!-- Node9&#45;&gt;Node7 -->
<g id="edge8" class="edge"><title>Node9&#45;&gt;Node7</title>
<path fill="none" stroke="#404040" d="M324.555,-90.6046C314.428,-112.831 305,-140.609 305,-167 305,-560.5 305,-560.5 305,-560.5 305,-635.87 377.192,-621.224 431,-674 431.408,-674.4 431.814,-674.803 432.219,-675.21"/>
<polygon fill="none" stroke="#404040" points="432.357,-675.36 439.365,-677.059 440.492,-684.182 433.484,-682.483 432.357,-675.36"/>
<text text-anchor="middle" x="327.5" y="-353" font-family="Helvetica,sans-Serif" font-size="10.00"> #special1</text>
<text text-anchor="middle" x="327.5" y="-342" font-family="Helvetica,sans-Serif" font-size="10.00">#special2</text>
</g>
<!-- Node10&#45;&gt;Node9 -->
<g id="edge9" class="edge"><title>Node10&#45;&gt;Node9</title>
<path fill="none" stroke="midnightblue" d="M414.693,-120.482C405.992,-110.682 396.836,-100.371 388.214,-90.6615"/>
<polygon fill="none" stroke="midnightblue" points="412.299,-123.056 421.556,-128.21 417.533,-118.408 412.299,-123.056"/>
</g>
<!-- Node11&#45;&gt;Node10 -->
<g id="edge12" class="edge"><title>Node11&#45;&gt;Node10</title>
<path fill="none" stroke="#404040" d="M597.939,-275.677C582.619,-258.427 565.46,-240.78 548,-226 536.231,-216.038 522.554,-206.605 509.401,-198.387"/>
<polygon fill="none" stroke="#404040" points="509.265,-198.304 502.06,-198.604 499.012,-192.069 506.217,-191.769 509.265,-198.304"/>
<text text-anchor="middle" x="581" y="-229" font-family="Helvetica,sans-Serif" font-size="10.00"> #manager</text>
</g>
<!-- Node12&#45;&gt;Node11 -->
<g id="edge14" class="edge"><title>Node12&#45;&gt;Node11</title>
<path fill="none" stroke="#404040" d="M753.145,-530.794C751.715,-511.201 748.08,-484.671 739,-463 734.145,-451.413 727.846,-439.92 720.889,-428.959"/>
<polygon fill="none" stroke="#404040" points="720.671,-428.63 714.022,-425.839 714.042,-418.627 720.691,-421.419 720.671,-428.63"/>
<text text-anchor="middle" x="763" y="-471.5" font-family="Helvetica,sans-Serif" font-size="10.00"> &#45;enemy</text>
</g>
<!-- Node13 -->
<g id="node12" class="node"><title>Node13</title>
<polygon fill="none" stroke="#bfbfbf" points="667.5,-531 667.5,-588 702.5,-588 702.5,-531 667.5,-531"/>
<text text-anchor="middle" x="685" y="-576" font-family="Helvetica,sans-Serif" font-size="10.00">bool</text>
<polyline fill="none" stroke="#bfbfbf" points="667.5,-569 702.5,-569 "/>
<text text-anchor="middle" x="685" y="-557" font-family="Helvetica,sans-Serif" font-size="10.00"> </text>
<polyline fill="none" stroke="#bfbfbf" points="667.5,-550 702.5,-550 "/>
<text text-anchor="middle" x="685" y="-538" font-family="Helvetica,sans-Serif" font-size="10.00"> </text>
</g>
<!-- Node13&#45;&gt;Node11 -->
<g id="edge18" class="edge"><title>Node13&#45;&gt;Node11</title>
<path fill="none" stroke="#404040" d="M680.265,-530.963C677.956,-517.179 675.208,-500.227 673,-485 671.675,-475.862 670.355,-466.365 669.071,-456.836"/>
<polygon fill="none" stroke="#404040" points="669.048,-456.667 664.291,-451.248 667.464,-444.772 672.221,-450.192 669.048,-456.667"/>
<text text-anchor="middle" x="706" y="-471.5" font-family="Helvetica,sans-Serif" font-size="10.00"> &#45;wasCriticalHit</text>
</g>
<!-- Node14 -->
<g id="node13" class="node"><title>Node14</title>
<polygon fill="none" stroke="#bfbfbf" points="457.5,-977.5 457.5,-1034.5 518.5,-1034.5 518.5,-977.5 457.5,-977.5"/>
<text text-anchor="middle" x="488" y="-1022.5" font-family="Helvetica,sans-Serif" font-size="10.00">Texture2D</text>
<polyline fill="none" stroke="#bfbfbf" points="457.5,-1015.5 518.5,-1015.5 "/>
<text text-anchor="middle" x="488" y="-1003.5" font-family="Helvetica,sans-Serif" font-size="10.00"> </text>
<polyline fill="none" stroke="#bfbfbf" points="457.5,-996.5 518.5,-996.5 "/>
<text text-anchor="middle" x="488" y="-984.5" font-family="Helvetica,sans-Serif" font-size="10.00"> </text>
</g>
<!-- Node14&#45;&gt;Node7 -->
<g id="edge22" class="edge"><title>Node14&#45;&gt;Node7</title>
<path fill="none" stroke="#404040" d="M488,-977.412C488,-949.787 488,-905.607 488,-864.634"/>
<polygon fill="none" stroke="#404040" points="488,-864.613 484,-858.613 488,-852.613 492,-858.613 488,-864.613"/>
<text text-anchor="middle" x="505.5" y="-912.5" font-family="Helvetica,sans-Serif" font-size="10.00"> #image</text>
</g>
<!-- Node15&#45;&gt;Node6 -->
<g id="edge23" class="edge"><title>Node15&#45;&gt;Node6</title>
<path fill="none" stroke="#404040" d="M396.725,-723.552C405.633,-696.29 417.758,-659.179 428.191,-627.249"/>
<polygon fill="none" stroke="#404040" points="428.222,-627.154 426.283,-620.208 431.949,-615.747 433.888,-622.693 428.222,-627.154"/>
<text text-anchor="middle" x="437.5" y="-642.5" font-family="Helvetica,sans-Serif" font-size="10.00"> &#45;item</text>
</g>
</g>
</svg>
