<?xml version="1.0" encoding="UTF-8" standalone="no"?>
<!DOCTYPE svg PUBLIC "-//W3C//DTD SVG 1.1//EN"
 "http://www.w3.org/Graphics/SVG/1.1/DTD/svg11.dtd">
<!-- Generated by graphviz version 2.38.0 (20140413.2041)
 -->
<!-- Title: Portal Pages: 1 -->
<!--zoomable 568 -->
<svg id="main" version="1.1" xmlns="http://www.w3.org/2000/svg" xmlns:xlink="http://www.w3.org/1999/xlink" xml:space="preserve" onload="init(evt)">
<style type="text/css"><![CDATA[
.edge:hover path { stroke: red; }
.edge:hover polygon { stroke: red; fill: red; }
]]></style>
<script type="text/javascript"><![CDATA[
var edges = document.getElementsByTagName('g');
if (edges && edges.length) {
  for (var i=0;i<edges.length;i++) {
    if (edges[i].id.substr(0,4)=='edge') {
      edges[i].setAttribute('class','edge');
    }
  }
}
]]></script>
        <defs>
                <circle id="rim" cx="0" cy="0" r="7"/>
                <circle id="rim2" cx="0" cy="0" r="3.5"/>
                <g id="zoomPlus">
                        <use xlink:href="#rim" fill="#404040">
                                <set attributeName="fill" to="#808080" begin="zoomplus.mouseover" end="zoomplus.mouseout"/>
                        </use>
                        <path d="M-4,0h8M0,-4v8" fill="none" stroke="white" stroke-width="1.5" pointer-events="none"/>
                </g>
                <g id="zoomMin">
                        <use xlink:href="#rim" fill="#404040">
                                <set attributeName="fill" to="#808080" begin="zoomminus.mouseover" end="zoomminus.mouseout"/>
                        </use>
                        <path d="M-4,0h8" fill="none" stroke="white" stroke-width="1.5" pointer-events="none"/>
                </g>
                <g id="dirArrow">
                        <path fill="none" stroke="white" stroke-width="1.5" d="M0,-3.0v7 M-2.5,-0.5L0,-3.0L2.5,-0.5"/>
                </g>
               <g id="resetDef">
                       <use xlink:href="#rim2" fill="#404040">
                               <set attributeName="fill" to="#808080" begin="reset.mouseover" end="reset.mouseout"/>
                       </use>
               </g>
        </defs>

<script type="text/javascript">
var viewWidth = 874;
var viewHeight = 568;
var sectionId = 'dynsection-1';
</script>
<script xlink:href="svgpan.js"/>
<svg id="graph" class="graph">
<g id="viewport">
<title>Portal</title>
<!-- Node2 -->
<g id="node1" class="node"><title>Node2</title>
<polygon fill="#bfbfbf" stroke="black" points="66.7328,-0.5 66.7328,-68.5 172.733,-68.5 172.733,-0.5 66.7328,-0.5"/>
<text text-anchor="middle" x="119.733" y="-56.5" font-family="Helvetica,sans-Serif" font-size="10.00">Portal</text>
<polyline fill="none" stroke="black" points="66.7328,-49.5 172.733,-49.5 "/>
<text text-anchor="middle" x="119.733" y="-37.5" font-family="Helvetica,sans-Serif" font-size="10.00"> </text>
<polyline fill="none" stroke="black" points="66.7328,-30.5 172.733,-30.5 "/>
<text text-anchor="start" x="74.7328" y="-18.5" font-family="Helvetica,sans-Serif" font-size="10.00">&#45; Start()</text>
<text text-anchor="start" x="74.7328" y="-7.5" font-family="Helvetica,sans-Serif" font-size="10.00">&#45; OnTriggerEnter2D()</text>
</g>
<!-- Node3 -->
<g id="node2" class="node"><title>Node3</title>
<g id="a_node2"><a xlink:href="class_mono_behaviour.html" target="_top" xlink:title="{MonoBehaviour\n||}">
<polygon fill="none" stroke="black" points="40.2328,-502.5 40.2328,-559.5 123.233,-559.5 123.233,-502.5 40.2328,-502.5"/>
<text text-anchor="middle" x="81.7328" y="-547.5" font-family="Helvetica,sans-Serif" font-size="10.00">MonoBehaviour</text>
<polyline fill="none" stroke="black" points="40.2328,-540.5 123.233,-540.5 "/>
<text text-anchor="middle" x="81.7328" y="-528.5" font-family="Helvetica,sans-Serif" font-size="10.00"> </text>
<polyline fill="none" stroke="black" points="40.2328,-521.5 123.233,-521.5 "/>
<text text-anchor="middle" x="81.7328" y="-509.5" font-family="Helvetica,sans-Serif" font-size="10.00"> </text>
</a>
</g>
</g>
<!-- Node3&#45;&gt;Node2 -->
<g id="edge1" class="edge"><title>Node3&#45;&gt;Node2</title>
<path fill="none" stroke="midnightblue" d="M63.5568,-492.82C29.613,-417.8 -34.8201,-244.521 24.7328,-116 33.7307,-96.5815 49.9767,-80.1431 66.5191,-67.284"/>
<polygon fill="none" stroke="midnightblue" points="60.5684,-494.698 67.9304,-502.317 66.9266,-491.77 60.5684,-494.698"/>
</g>
<!-- Node5 -->
<g id="node4" class="node"><title>Node5</title>
<g id="a_node4"><a xlink:href="class_scene_changer.html" target="_top" xlink:title="A set of functions to be called to change scenes smoothly whilst handling the player&#39;s location and a...">
<polygon fill="none" stroke="black" points="206.733,-116.5 206.733,-250.5 304.733,-250.5 304.733,-116.5 206.733,-116.5"/>
<text text-anchor="middle" x="255.733" y="-238.5" font-family="Helvetica,sans-Serif" font-size="10.00">SceneChanger</text>
<polyline fill="none" stroke="black" points="206.733,-231.5 304.733,-231.5 "/>
<text text-anchor="middle" x="255.733" y="-219.5" font-family="Helvetica,sans-Serif" font-size="10.00"> </text>
<polyline fill="none" stroke="black" points="206.733,-212.5 304.733,-212.5 "/>
<text text-anchor="start" x="214.733" y="-200.5" font-family="Helvetica,sans-Serif" font-size="10.00">+ hidePlayer()</text>
<text text-anchor="start" x="214.733" y="-189.5" font-family="Helvetica,sans-Serif" font-size="10.00">+ loadLevel()</text>
<text text-anchor="start" x="214.733" y="-178.5" font-family="Helvetica,sans-Serif" font-size="10.00">+ loadLevel()</text>
<text text-anchor="start" x="214.733" y="-167.5" font-family="Helvetica,sans-Serif" font-size="10.00">+ changePosition()</text>
<text text-anchor="start" x="214.733" y="-156.5" font-family="Helvetica,sans-Serif" font-size="10.00">&#45; Awake()</text>
<text text-anchor="start" x="214.733" y="-145.5" font-family="Helvetica,sans-Serif" font-size="10.00">&#45; OnDisable()</text>
<text text-anchor="start" x="214.733" y="-134.5" font-family="Helvetica,sans-Serif" font-size="10.00">&#45; sceneChanged()</text>
<text text-anchor="start" x="214.733" y="-123.5" font-family="Helvetica,sans-Serif" font-size="10.00">&#45; changeScene()</text>
</a>
</g>
</g>
<!-- Node3&#45;&gt;Node5 -->
<g id="edge4" class="edge"><title>Node3&#45;&gt;Node5</title>
<path fill="none" stroke="midnightblue" d="M73.3658,-492.324C63.5594,-438.237 53.7433,-337.561 97.7328,-269 122.174,-230.906 169.872,-208.818 206.494,-196.847"/>
<polygon fill="none" stroke="midnightblue" points="69.9342,-493.014 75.2473,-502.18 76.8101,-491.701 69.9342,-493.014"/>
</g>
<!-- Node9 -->
<g id="node8" class="node"><title>Node9</title>
<g id="a_node8"><a xlink:href="class_player_movement.html" target="_top" xlink:title="A script to control the movement and animations of the player">
<polygon fill="none" stroke="black" points="451.233,-298.5 451.233,-432.5 556.233,-432.5 556.233,-298.5 451.233,-298.5"/>
<text text-anchor="middle" x="503.733" y="-420.5" font-family="Helvetica,sans-Serif" font-size="10.00">PlayerMovement</text>
<polyline fill="none" stroke="black" points="451.233,-413.5 556.233,-413.5 "/>
<text text-anchor="middle" x="503.733" y="-401.5" font-family="Helvetica,sans-Serif" font-size="10.00"> </text>
<polyline fill="none" stroke="black" points="451.233,-394.5 556.233,-394.5 "/>
<text text-anchor="start" x="459.233" y="-382.5" font-family="Helvetica,sans-Serif" font-size="10.00">+ move()</text>
<text text-anchor="start" x="459.233" y="-371.5" font-family="Helvetica,sans-Serif" font-size="10.00">+ setCanMove()</text>
<text text-anchor="start" x="459.233" y="-360.5" font-family="Helvetica,sans-Serif" font-size="10.00">&#45; Start()</text>
<text text-anchor="start" x="459.233" y="-349.5" font-family="Helvetica,sans-Serif" font-size="10.00">&#45; FixedUpdate()</text>
<text text-anchor="start" x="459.233" y="-338.5" font-family="Helvetica,sans-Serif" font-size="10.00">&#45; explorationMenu()</text>
<text text-anchor="start" x="459.233" y="-327.5" font-family="Helvetica,sans-Serif" font-size="10.00">&#45; randomEncounter()</text>
<text text-anchor="start" x="459.233" y="-316.5" font-family="Helvetica,sans-Serif" font-size="10.00">&#45; walkAnimation()</text>
<text text-anchor="start" x="459.233" y="-305.5" font-family="Helvetica,sans-Serif" font-size="10.00">&#45; setIdle()</text>
</a>
</g>
</g>
<!-- Node3&#45;&gt;Node9 -->
<g id="edge10" class="edge"><title>Node3&#45;&gt;Node9</title>
<path fill="none" stroke="midnightblue" d="M132.821,-504.92C171.232,-487.128 225.636,-464.158 275.733,-451 336.836,-434.952 358.297,-457.007 416.733,-433 428.515,-428.16 440.089,-421.298 450.757,-413.804"/>
<polygon fill="none" stroke="midnightblue" points="130.986,-501.914 123.412,-509.322 133.953,-508.254 130.986,-501.914"/>
</g>
<!-- Node4 -->
<g id="node3" class="node"><title>Node4</title>
<polygon fill="none" stroke="#bfbfbf" points="33.7328,-155 33.7328,-212 91.7328,-212 91.7328,-155 33.7328,-155"/>
<text text-anchor="middle" x="62.7328" y="-200" font-family="Helvetica,sans-Serif" font-size="10.00">AudioClip</text>
<polyline fill="none" stroke="#bfbfbf" points="33.7328,-193 91.7328,-193 "/>
<text text-anchor="middle" x="62.7328" y="-181" font-family="Helvetica,sans-Serif" font-size="10.00"> </text>
<polyline fill="none" stroke="#bfbfbf" points="33.7328,-174 91.7328,-174 "/>
<text text-anchor="middle" x="62.7328" y="-162" font-family="Helvetica,sans-Serif" font-size="10.00"> </text>
</g>
<!-- Node4&#45;&gt;Node2 -->
<g id="edge2" class="edge"><title>Node4&#45;&gt;Node2</title>
<path fill="none" stroke="#404040" d="M64.5751,-154.747C66.6753,-135.131 71.1613,-108.594 80.7328,-87 81.9023,-84.3614 83.2309,-81.7328 84.6746,-79.139"/>
<polygon fill="none" stroke="#404040" points="84.8081,-78.9242 84.5805,-71.7166 91.1461,-68.7344 91.3737,-75.9419 84.8081,-78.9242"/>
<text text-anchor="middle" x="93.2328" y="-90" font-family="Helvetica,sans-Serif" font-size="10.00"> &#45;SFX</text>
</g>
<!-- Node5&#45;&gt;Node2 -->
<g id="edge3" class="edge"><title>Node5&#45;&gt;Node2</title>
<path fill="none" stroke="#404040" d="M206.634,-129.43C190.987,-112.518 173.891,-94.0388 159.033,-77.9794"/>
<polygon fill="none" stroke="#404040" points="158.721,-77.6421 151.711,-75.9543 150.572,-68.8336 157.583,-70.5214 158.721,-77.6421"/>
<text text-anchor="middle" x="210.233" y="-90" font-family="Helvetica,sans-Serif" font-size="10.00"> &#45;sceneChanger</text>
</g>
<!-- Node5&#45;&gt;Node5 -->
<g id="edge5" class="edge"><title>Node5&#45;&gt;Node5</title>
<path fill="none" stroke="#404040" d="M304.813,-199.83C315.219,-198.172 322.733,-192.729 322.733,-183.5 322.733,-178.165 320.221,-174.095 316.092,-171.29"/>
<polygon fill="none" stroke="#404040" points="316.085,-171.287 309.077,-172.986 304.813,-167.17 311.821,-165.471 316.085,-171.287"/>
<text text-anchor="middle" x="345.733" y="-181" font-family="Helvetica,sans-Serif" font-size="10.00"> +instance</text>
</g>
<!-- Node6 -->
<g id="node5" class="node"><title>Node6</title>
<polygon fill="none" stroke="#bfbfbf" points="214.233,-502.5 214.233,-559.5 255.233,-559.5 255.233,-502.5 214.233,-502.5"/>
<text text-anchor="middle" x="234.733" y="-547.5" font-family="Helvetica,sans-Serif" font-size="10.00">string</text>
<polyline fill="none" stroke="#bfbfbf" points="214.233,-540.5 255.233,-540.5 "/>
<text text-anchor="middle" x="234.733" y="-528.5" font-family="Helvetica,sans-Serif" font-size="10.00"> </text>
<polyline fill="none" stroke="#bfbfbf" points="214.233,-521.5 255.233,-521.5 "/>
<text text-anchor="middle" x="234.733" y="-509.5" font-family="Helvetica,sans-Serif" font-size="10.00"> </text>
</g>
<!-- Node6&#45;&gt;Node2 -->
<g id="edge18" class="edge"><title>Node6&#45;&gt;Node2</title>
<path fill="none" stroke="#404040" d="M214.177,-516.413C191.085,-499.828 154.745,-469.442 138.733,-433 86.7378,-314.664 100.591,-156.995 111.818,-80.6823"/>
<polygon fill="none" stroke="#404040" points="111.835,-80.5754 108.792,-74.0375 113.657,-68.7145 116.699,-75.2524 111.835,-80.5754"/>
<text text-anchor="middle" x="131.233" y="-272" font-family="Helvetica,sans-Serif" font-size="10.00"> +newScene</text>
</g>
<!-- Node6&#45;&gt;Node5 -->
<g id="edge6" class="edge"><title>Node6&#45;&gt;Node5</title>
<path fill="none" stroke="#404040" d="M236.416,-502.31C239.537,-450.965 246.325,-339.283 250.963,-262.976"/>
<polygon fill="none" stroke="#404040" points="250.988,-262.555 247.36,-256.323 251.717,-250.577 255.345,-256.809 250.988,-262.555"/>
<text text-anchor="middle" x="279.233" y="-363" font-family="Helvetica,sans-Serif" font-size="10.00"> +menuScene</text>
</g>
<!-- Node6&#45;&gt;Node9 -->
<g id="edge11" class="edge"><title>Node6&#45;&gt;Node9</title>
<path fill="none" stroke="#404040" d="M255.269,-505.802C271.885,-487.844 296.87,-464.261 323.733,-451 361.484,-432.364 378.324,-450.24 416.733,-433 424.933,-429.319 433.072,-424.729 440.893,-419.692"/>
<polygon fill="none" stroke="#404040" points="441.041,-419.592 443.758,-412.912 450.969,-412.851 448.252,-419.531 441.041,-419.592"/>
<text text-anchor="middle" x="346.233" y="-465" font-family="Helvetica,sans-Serif" font-size="10.00"> &#45;lastMove</text>
</g>
<!-- Node7 -->
<g id="node6" class="node"><title>Node7</title>
<polygon fill="none" stroke="#bfbfbf" points="148.233,-337 148.233,-394 219.233,-394 219.233,-337 148.233,-337"/>
<text text-anchor="middle" x="183.733" y="-382" font-family="Helvetica,sans-Serif" font-size="10.00">GameObject</text>
<polyline fill="none" stroke="#bfbfbf" points="148.233,-375 219.233,-375 "/>
<text text-anchor="middle" x="183.733" y="-363" font-family="Helvetica,sans-Serif" font-size="10.00"> </text>
<polyline fill="none" stroke="#bfbfbf" points="148.233,-356 219.233,-356 "/>
<text text-anchor="middle" x="183.733" y="-344" font-family="Helvetica,sans-Serif" font-size="10.00"> </text>
</g>
<!-- Node7&#45;&gt;Node5 -->
<g id="edge7" class="edge"><title>Node7&#45;&gt;Node5</title>
<path fill="none" stroke="#404040" d="M189.063,-336.743C193.249,-317.362 199.856,-291.107 208.733,-269 209.724,-266.532 210.772,-264.046 211.867,-261.553"/>
<polygon fill="none" stroke="#404040" points="211.888,-261.507 210.78,-254.382 216.931,-250.618 218.039,-257.744 211.888,-261.507"/>
<text text-anchor="middle" x="225.233" y="-272" font-family="Helvetica,sans-Serif" font-size="10.00"> &#45;player</text>
</g>
<!-- Node8 -->
<g id="node7" class="node"><title>Node8</title>
<polygon fill="none" stroke="#bfbfbf" points="752.733,-502.5 752.733,-559.5 802.733,-559.5 802.733,-502.5 752.733,-502.5"/>
<text text-anchor="middle" x="777.733" y="-547.5" font-family="Helvetica,sans-Serif" font-size="10.00">Vector2</text>
<polyline fill="none" stroke="#bfbfbf" points="752.733,-540.5 802.733,-540.5 "/>
<text text-anchor="middle" x="777.733" y="-528.5" font-family="Helvetica,sans-Serif" font-size="10.00"> </text>
<polyline fill="none" stroke="#bfbfbf" points="752.733,-521.5 802.733,-521.5 "/>
<text text-anchor="middle" x="777.733" y="-509.5" font-family="Helvetica,sans-Serif" font-size="10.00"> </text>
</g>
<!-- Node8&#45;&gt;Node2 -->
<g id="edge19" class="edge"><title>Node8&#45;&gt;Node2</title>
<path fill="none" stroke="#404040" d="M794.142,-502.371C819.288,-456.043 860.211,-361.539 817.733,-298 673.879,-82.823 329.013,-43.6367 184.829,-36.794"/>
<polygon fill="none" stroke="#404040" points="184.732,-36.7899 178.566,-40.5285 172.743,-36.2746 178.909,-32.5359 184.732,-36.7899"/>
<text text-anchor="middle" x="834.733" y="-272" font-family="Helvetica,sans-Serif" font-size="10.00"> +newPosition</text>
</g>
<!-- Node8&#45;&gt;Node5 -->
<g id="edge8" class="edge"><title>Node8&#45;&gt;Node5</title>
<path fill="none" stroke="#404040" d="M777.697,-502.305C776.536,-486.302 773.054,-466.362 763.733,-451 705.861,-355.62 662.439,-351.852 564.733,-298 483.386,-253.165 380.784,-219.512 316.703,-200.913"/>
<polygon fill="none" stroke="#404040" points="316.345,-200.811 309.475,-203.004 304.809,-197.506 311.678,-195.313 316.345,-200.811"/>
<text text-anchor="middle" x="781.733" y="-363" font-family="Helvetica,sans-Serif" font-size="10.00"> +startPosition</text>
</g>
<!-- Node8&#45;&gt;Node9 -->
<g id="edge14" class="edge"><title>Node8&#45;&gt;Node9</title>
<path fill="none" stroke="#404040" d="M752.422,-519.357C733.595,-510.938 707.652,-498.255 686.733,-484 668.524,-471.591 667.583,-463.919 649.733,-451 623.772,-432.211 593.33,-414.046 566.981,-399.404"/>
<polygon fill="none" stroke="#404040" points="566.862,-399.339 559.678,-399.955 556.345,-393.56 563.53,-392.944 566.862,-399.339"/>
<text text-anchor="middle" x="725.233" y="-465" font-family="Helvetica,sans-Serif" font-size="10.00"> &#45;previousPosition</text>
</g>
<!-- Node9&#45;&gt;Node5 -->
<g id="edge9" class="edge"><title>Node9&#45;&gt;Node5</title>
<path fill="none" stroke="#404040" d="M451.07,-323.73C439.8,-315.15 427.919,-306.214 416.733,-298 383.422,-273.542 345.686,-246.884 315.124,-225.553"/>
<polygon fill="none" stroke="#404040" points="314.897,-225.395 307.687,-225.247 305.051,-218.535 312.261,-218.683 314.897,-225.395"/>
<text text-anchor="middle" x="428.733" y="-272" font-family="Helvetica,sans-Serif" font-size="10.00"> &#45;movementScript</text>
</g>
<!-- Node10 -->
<g id="node9" class="node"><title>Node10</title>
<polygon fill="none" stroke="#bfbfbf" points="550.733,-502.5 550.733,-559.5 606.733,-559.5 606.733,-502.5 550.733,-502.5"/>
<text text-anchor="middle" x="578.733" y="-547.5" font-family="Helvetica,sans-Serif" font-size="10.00">Animator</text>
<polyline fill="none" stroke="#bfbfbf" points="550.733,-540.5 606.733,-540.5 "/>
<text text-anchor="middle" x="578.733" y="-528.5" font-family="Helvetica,sans-Serif" font-size="10.00"> </text>
<polyline fill="none" stroke="#bfbfbf" points="550.733,-521.5 606.733,-521.5 "/>
<text text-anchor="middle" x="578.733" y="-509.5" font-family="Helvetica,sans-Serif" font-size="10.00"> </text>
</g>
<!-- Node10&#45;&gt;Node9 -->
<g id="edge12" class="edge"><title>Node10&#45;&gt;Node9</title>
<path fill="none" stroke="#404040" d="M566.01,-502.264C558.536,-485.972 548.686,-464.498 539.031,-443.45"/>
<polygon fill="none" stroke="#404040" points="539.017,-443.419 532.879,-439.633 534.014,-432.512 540.151,-436.298 539.017,-443.419"/>
<text text-anchor="middle" x="570.733" y="-465" font-family="Helvetica,sans-Serif" font-size="10.00"> &#45;anim</text>
</g>
<!-- Node11 -->
<g id="node10" class="node"><title>Node11</title>
<polygon fill="none" stroke="#bfbfbf" points="625.233,-502.5 625.233,-559.5 660.233,-559.5 660.233,-502.5 625.233,-502.5"/>
<text text-anchor="middle" x="642.733" y="-547.5" font-family="Helvetica,sans-Serif" font-size="10.00">float</text>
<polyline fill="none" stroke="#bfbfbf" points="625.233,-540.5 660.233,-540.5 "/>
<text text-anchor="middle" x="642.733" y="-528.5" font-family="Helvetica,sans-Serif" font-size="10.00"> </text>
<polyline fill="none" stroke="#bfbfbf" points="625.233,-521.5 660.233,-521.5 "/>
<text text-anchor="middle" x="642.733" y="-509.5" font-family="Helvetica,sans-Serif" font-size="10.00"> </text>
</g>
<!-- Node11&#45;&gt;Node9 -->
<g id="edge13" class="edge"><title>Node11&#45;&gt;Node9</title>
<path fill="none" stroke="#404040" d="M625.696,-502.392C615.623,-486.788 602.227,-467.219 588.733,-451 581.423,-442.215 573.338,-433.31 565.146,-424.741"/>
<polygon fill="none" stroke="#404040" points="564.965,-424.555 557.914,-423.042 556.598,-415.952 563.649,-417.465 564.965,-424.555"/>
<text text-anchor="middle" x="629.233" y="-465" font-family="Helvetica,sans-Serif" font-size="10.00"> &#45;speed</text>
</g>
<!-- Node12 -->
<g id="node11" class="node"><title>Node12</title>
<polygon fill="none" stroke="#bfbfbf" points="351.233,-502.5 351.233,-559.5 386.233,-559.5 386.233,-502.5 351.233,-502.5"/>
<text text-anchor="middle" x="368.733" y="-547.5" font-family="Helvetica,sans-Serif" font-size="10.00">bool</text>
<polyline fill="none" stroke="#bfbfbf" points="351.233,-540.5 386.233,-540.5 "/>
<text text-anchor="middle" x="368.733" y="-528.5" font-family="Helvetica,sans-Serif" font-size="10.00"> </text>
<polyline fill="none" stroke="#bfbfbf" points="351.233,-521.5 386.233,-521.5 "/>
<text text-anchor="middle" x="368.733" y="-509.5" font-family="Helvetica,sans-Serif" font-size="10.00"> </text>
</g>
<!-- Node12&#45;&gt;Node5 -->
<g id="edge17" class="edge"><title>Node12&#45;&gt;Node5</title>
<path fill="none" stroke="#404040" d="M364.37,-502.23C356.941,-458.059 340.035,-369.48 313.733,-298 309.286,-285.916 303.865,-273.462 298.141,-261.429"/>
<polygon fill="none" stroke="#404040" points="298.081,-261.306 291.855,-257.667 292.819,-250.521 299.045,-254.159 298.081,-261.306"/>
<text text-anchor="middle" x="381.733" y="-368.5" font-family="Helvetica,sans-Serif" font-size="10.00"> +movePlayer</text>
<text text-anchor="middle" x="381.733" y="-357.5" font-family="Helvetica,sans-Serif" font-size="10.00">+menuOpen</text>
</g>
<!-- Node12&#45;&gt;Node9 -->
<g id="edge15" class="edge"><title>Node12&#45;&gt;Node9</title>
<path fill="none" stroke="#404040" d="M369.243,-502.149C370.796,-485.896 375.012,-465.755 385.733,-451 395.098,-438.111 403.489,-441.855 416.733,-433 424.822,-427.591 433.155,-421.687 441.311,-415.701"/>
<polygon fill="none" stroke="#404040" points="441.514,-415.549 443.941,-408.759 451.142,-408.387 448.716,-415.178 441.514,-415.549"/>
<text text-anchor="middle" x="442.733" y="-476" font-family="Helvetica,sans-Serif" font-size="10.00"> &#45;playerExists</text>
<text text-anchor="middle" x="442.733" y="-465" font-family="Helvetica,sans-Serif" font-size="10.00">+pseudoEscapeKeyPress</text>
<text text-anchor="middle" x="442.733" y="-454" font-family="Helvetica,sans-Serif" font-size="10.00">&#45;canMove</text>
</g>
<!-- Node13 -->
<g id="node12" class="node"><title>Node13</title>
<polygon fill="none" stroke="#bfbfbf" points="473.233,-502.5 473.233,-559.5 532.233,-559.5 532.233,-502.5 473.233,-502.5"/>
<text text-anchor="middle" x="502.733" y="-547.5" font-family="Helvetica,sans-Serif" font-size="10.00">Transform</text>
<polyline fill="none" stroke="#bfbfbf" points="473.233,-540.5 532.233,-540.5 "/>
<text text-anchor="middle" x="502.733" y="-528.5" font-family="Helvetica,sans-Serif" font-size="10.00"> </text>
<polyline fill="none" stroke="#bfbfbf" points="473.233,-521.5 532.233,-521.5 "/>
<text text-anchor="middle" x="502.733" y="-509.5" font-family="Helvetica,sans-Serif" font-size="10.00"> </text>
</g>
<!-- Node13&#45;&gt;Node9 -->
<g id="edge16" class="edge"><title>Node13&#45;&gt;Node9</title>
<path fill="none" stroke="#404040" d="M502.902,-502.264C503,-486.271 503.129,-465.284 503.255,-444.609"/>
<polygon fill="none" stroke="#404040" points="503.256,-444.512 499.292,-438.487 503.329,-432.512 507.292,-438.536 503.256,-444.512"/>
<text text-anchor="middle" x="520.233" y="-465" font-family="Helvetica,sans-Serif" font-size="10.00"> &#45;player</text>
</g>
</g>
</svg>
        <g id="navigator" transform="translate(0 0)" fill="#404254">
                <rect fill="#f2f5e9" fill-opacity="0.5" stroke="#606060" stroke-width=".5" x="0" y="0" width="60" height="60"/>
                <use id="zoomplus" xlink:href="#zoomPlus" x="17" y="9" onmousedown="handleZoom(evt,'in')"/>
                <use id="zoomminus" xlink:href="#zoomMin" x="42" y="9" onmousedown="handleZoom(evt,'out')"/>
                <use id="reset" xlink:href="#resetDef" x="30" y="36" onmousedown="handleReset()"/>
                <g id="arrowUp" xlink:href="#dirArrow" transform="translate(30 24)" onmousedown="handlePan(0,-1)">
                  <use xlink:href="#rim" fill="#404040">
                        <set attributeName="fill" to="#808080" begin="arrowUp.mouseover" end="arrowUp.mouseout"/>
                  </use>
                  <path fill="none" stroke="white" stroke-width="1.5" d="M0,-3.0v7 M-2.5,-0.5L0,-3.0L2.5,-0.5"/>
                </g>
                <g id="arrowRight" xlink:href="#dirArrow" transform="rotate(90) translate(36 -43)" onmousedown="handlePan(1,0)">
                  <use xlink:href="#rim" fill="#404040">
                        <set attributeName="fill" to="#808080" begin="arrowRight.mouseover" end="arrowRight.mouseout"/>
                  </use>
                  <path fill="none" stroke="white" stroke-width="1.5" d="M0,-3.0v7 M-2.5,-0.5L0,-3.0L2.5,-0.5"/>
                </g>
                <g id="arrowDown" xlink:href="#dirArrow" transform="rotate(180) translate(-30 -48)" onmousedown="handlePan(0,1)">
                  <use xlink:href="#rim" fill="#404040">
                        <set attributeName="fill" to="#808080" begin="arrowDown.mouseover" end="arrowDown.mouseout"/>
                  </use>
                  <path fill="none" stroke="white" stroke-width="1.5" d="M0,-3.0v7 M-2.5,-0.5L0,-3.0L2.5,-0.5"/>
                </g>
                <g id="arrowLeft" xlink:href="#dirArrow" transform="rotate(270) translate(-36 17)" onmousedown="handlePan(-1,0)">
                  <use xlink:href="#rim" fill="#404040">
                        <set attributeName="fill" to="#808080" begin="arrowLeft.mouseover" end="arrowLeft.mouseout"/>
                  </use>
                  <path fill="none" stroke="white" stroke-width="1.5" d="M0,-3.0v7 M-2.5,-0.5L0,-3.0L2.5,-0.5"/>
                </g>
        </g>
        <svg viewBox="0 0 15 15" width="100%" height="30px" preserveAspectRatio="xMaxYMin meet">
         <g id="arrow_out" transform="scale(0.3 0.3)">
          <a xlink:href="class_portal__coll__graph_org.svg" target="_base">
           <rect id="button" ry="5" rx="5" y="6" x="6" height="38" width="38"
                fill="#f2f5e9" fill-opacity="0.5" stroke="#606060" stroke-width="1.0"/>
           <path id="arrow"
             d="M 11.500037,31.436501 C 11.940474,20.09759 22.043105,11.32322 32.158766,21.979434 L 37.068811,17.246167 C 37.068811,17.246167 37.088388,32 37.088388,32 L 22.160133,31.978069 C 22.160133,31.978069 26.997745,27.140456 26.997745,27.140456 C 18.528582,18.264221 13.291696,25.230495 11.500037,31.436501 z"
             style="fill:#404040;"/>
          </a>
         </g>
        </svg>
</svg>
