<?xml version="1.0" encoding="UTF-8" standalone="no"?>
<!DOCTYPE svg PUBLIC "-//W3C//DTD SVG 1.1//EN"
 "http://www.w3.org/Graphics/SVG/1.1/DTD/svg11.dtd">
<!-- Generated by graphviz version 2.38.0 (20140413.2041)
 -->
<!-- Title: IncreaseMoney Pages: 1 -->
<!--zoomable 1034 -->
<svg id="main" version="1.1" xmlns="http://www.w3.org/2000/svg" xmlns:xlink="http://www.w3.org/1999/xlink" xml:space="preserve" onload="init(evt)">
<style type="text/css"><![CDATA[
.edge:hover path { stroke: red; }
.edge:hover polygon { stroke: red; fill: red; }
]]></style>
<script type="text/javascript"><![CDATA[
var edges = document.getElementsByTagName('g');
if (edges && edges.length) {
  for (var i=0;i<edges.length;i++) {
    if (edges[i].id.substr(0,4)=='edge') {
      edges[i].setAttribute('class','edge');
    }
  }
}
]]></script>
        <defs>
                <circle id="rim" cx="0" cy="0" r="7"/>
                <circle id="rim2" cx="0" cy="0" r="3.5"/>
                <g id="zoomPlus">
                        <use xlink:href="#rim" fill="#404040">
                                <set attributeName="fill" to="#808080" begin="zoomplus.mouseover" end="zoomplus.mouseout"/>
                        </use>
                        <path d="M-4,0h8M0,-4v8" fill="none" stroke="white" stroke-width="1.5" pointer-events="none"/>
                </g>
                <g id="zoomMin">
                        <use xlink:href="#rim" fill="#404040">
                                <set attributeName="fill" to="#808080" begin="zoomminus.mouseover" end="zoomminus.mouseout"/>
                        </use>
                        <path d="M-4,0h8" fill="none" stroke="white" stroke-width="1.5" pointer-events="none"/>
                </g>
                <g id="dirArrow">
                        <path fill="none" stroke="white" stroke-width="1.5" d="M0,-3.0v7 M-2.5,-0.5L0,-3.0L2.5,-0.5"/>
                </g>
               <g id="resetDef">
                       <use xlink:href="#rim2" fill="#404040">
                               <set attributeName="fill" to="#808080" begin="reset.mouseover" end="reset.mouseout"/>
                       </use>
               </g>
        </defs>

<script type="text/javascript">
var viewWidth = 721;
var viewHeight = 1034;
var sectionId = 'dynsection-1';
</script>
<script xlink:href="svgpan.js"/>
<svg id="graph" class="graph">
<g id="viewport">
<title>IncreaseMoney</title>
<!-- Node3 -->
<g id="node1" class="node"><title>Node3</title>
<polygon fill="#bfbfbf" stroke="black" points="448,-585 448,-653 546,-653 546,-585 448,-585"/>
<text text-anchor="middle" x="497" y="-641" font-family="Helvetica,sans-Serif" font-size="10.00">IncreaseMoney</text>
<polyline fill="none" stroke="black" points="448,-634 546,-634 "/>
<text text-anchor="middle" x="497" y="-622" font-family="Helvetica,sans-Serif" font-size="10.00"> </text>
<polyline fill="none" stroke="black" points="448,-615 546,-615 "/>
<text text-anchor="start" x="456" y="-603" font-family="Helvetica,sans-Serif" font-size="10.00">+ IncreaseMoney()</text>
<text text-anchor="start" x="456" y="-592" font-family="Helvetica,sans-Serif" font-size="10.00">+ performMove()</text>
</g>
<!-- Node4 -->
<g id="node2" class="node"><title>Node4</title>
<g id="a_node2"><a xlink:href="class_special_move.html" target="_top" xlink:title="Special move abstract base class that expands upon CharacterMove, adding magic properties ...">
<polygon fill="none" stroke="black" points="401,-819.5 401,-909.5 499,-909.5 499,-819.5 401,-819.5"/>
<text text-anchor="middle" x="450" y="-897.5" font-family="Helvetica,sans-Serif" font-size="10.00">SpecialMove</text>
<polyline fill="none" stroke="black" points="401,-890.5 499,-890.5 "/>
<text text-anchor="start" x="409" y="-878.5" font-family="Helvetica,sans-Serif" font-size="10.00">+ Magic</text>
<text text-anchor="start" x="409" y="-867.5" font-family="Helvetica,sans-Serif" font-size="10.00">+ Desc</text>
<polyline fill="none" stroke="black" points="401,-860.5 499,-860.5 "/>
<text text-anchor="start" x="409" y="-848.5" font-family="Helvetica,sans-Serif" font-size="10.00">+ setUp()</text>
<text text-anchor="start" x="409" y="-837.5" font-family="Helvetica,sans-Serif" font-size="10.00">+ decreaseMagic()</text>
<text text-anchor="start" x="409" y="-826.5" font-family="Helvetica,sans-Serif" font-size="10.00"># SpecialMove()</text>
</a>
</g>
</g>
<!-- Node4&#45;&gt;Node3 -->
<g id="edge1" class="edge"><title>Node4&#45;&gt;Node3</title>
<path fill="none" stroke="midnightblue" d="M460.417,-809.53C469.646,-761.718 482.825,-693.439 490.588,-653.219"/>
<polygon fill="none" stroke="midnightblue" points="456.97,-808.922 458.511,-819.404 463.843,-810.249 456.97,-808.922"/>
</g>
<!-- Node7 -->
<g id="node5" class="node"><title>Node7</title>
<g id="a_node5"><a xlink:href="class_character.html" target="_top" xlink:title="Base abstract class for Enemy and Player to inherit from. Defines all shared variables, their constructor and their setters and getters ">
<polygon fill="none" stroke="black" points="202.5,-535.5 202.5,-702.5 297.5,-702.5 297.5,-535.5 202.5,-535.5"/>
<text text-anchor="middle" x="250" y="-690.5" font-family="Helvetica,sans-Serif" font-size="10.00">Character</text>
<polyline fill="none" stroke="black" points="202.5,-683.5 297.5,-683.5 "/>
<text text-anchor="start" x="210.5" y="-671.5" font-family="Helvetica,sans-Serif" font-size="10.00">+ Name</text>
<text text-anchor="start" x="210.5" y="-660.5" font-family="Helvetica,sans-Serif" font-size="10.00">+ Level</text>
<text text-anchor="start" x="210.5" y="-649.5" font-family="Helvetica,sans-Serif" font-size="10.00">+ Health</text>
<text text-anchor="start" x="210.5" y="-638.5" font-family="Helvetica,sans-Serif" font-size="10.00">+ Attack</text>
<text text-anchor="start" x="210.5" y="-627.5" font-family="Helvetica,sans-Serif" font-size="10.00">+ Defence</text>
<text text-anchor="start" x="210.5" y="-616.5" font-family="Helvetica,sans-Serif" font-size="10.00">+ MaximumMagic</text>
<text text-anchor="start" x="210.5" y="-605.5" font-family="Helvetica,sans-Serif" font-size="10.00">+ Magic</text>
<text text-anchor="start" x="210.5" y="-594.5" font-family="Helvetica,sans-Serif" font-size="10.00">+ Luck</text>
<text text-anchor="start" x="210.5" y="-583.5" font-family="Helvetica,sans-Serif" font-size="10.00">+ Speed</text>
<text text-anchor="start" x="210.5" y="-572.5" font-family="Helvetica,sans-Serif" font-size="10.00">+ Special1</text>
<text text-anchor="start" x="210.5" y="-561.5" font-family="Helvetica,sans-Serif" font-size="10.00">+ Special2</text>
<polyline fill="none" stroke="black" points="202.5,-554.5 297.5,-554.5 "/>
<text text-anchor="start" x="210.5" y="-542.5" font-family="Helvetica,sans-Serif" font-size="10.00"># Character()</text>
</a>
</g>
</g>
<!-- Node4&#45;&gt;Node7 -->
<g id="edge7" class="edge"><title>Node4&#45;&gt;Node7</title>
<path fill="none" stroke="#404040" d="M400.996,-845.207C379.265,-837.126 353.374,-827.541 330,-819 307.816,-810.894 295.12,-819.144 280,-801 273.981,-793.777 267.133,-754.718 261.501,-714.724"/>
<polygon fill="none" stroke="#404040" points="261.468,-714.488 256.688,-709.089 259.832,-702.6 264.613,-707.998 261.468,-714.488"/>
<text text-anchor="middle" x="302.5" y="-764" font-family="Helvetica,sans-Serif" font-size="10.00"> #special1</text>
<text text-anchor="middle" x="302.5" y="-753" font-family="Helvetica,sans-Serif" font-size="10.00">#special2</text>
</g>
<!-- Node5 -->
<g id="node3" class="node"><title>Node5</title>
<g id="a_node3"><a xlink:href="class_character_move.html" target="_top" xlink:title="Astract base class for character moves ">
<polygon fill="none" stroke="black" points="352,-0.5 352,-79.5 438,-79.5 438,-0.5 352,-0.5"/>
<text text-anchor="middle" x="395" y="-67.5" font-family="Helvetica,sans-Serif" font-size="10.00">CharacterMove</text>
<polyline fill="none" stroke="black" points="352,-60.5 438,-60.5 "/>
<text text-anchor="start" x="360" y="-48.5" font-family="Helvetica,sans-Serif" font-size="10.00">+ User</text>
<text text-anchor="start" x="360" y="-37.5" font-family="Helvetica,sans-Serif" font-size="10.00">+ Target</text>
<text text-anchor="start" x="360" y="-26.5" font-family="Helvetica,sans-Serif" font-size="10.00">+ Text</text>
<polyline fill="none" stroke="black" points="352,-19.5 438,-19.5 "/>
<text text-anchor="start" x="360" y="-7.5" font-family="Helvetica,sans-Serif" font-size="10.00">+ performMove()</text>
</a>
</g>
</g>
<!-- Node5&#45;&gt;Node4 -->
<g id="edge2" class="edge"><title>Node5&#45;&gt;Node4</title>
<path fill="none" stroke="midnightblue" d="M405.526,-90C412.359,-126.052 420,-176.348 420,-221 420,-512.5 420,-512.5 420,-512.5 420,-623.199 434.997,-752.825 443.784,-819.277"/>
<polygon fill="none" stroke="midnightblue" points="408.879,-88.907 403.534,-79.7592 402.007,-90.2435 408.879,-88.907"/>
</g>
<!-- Node6 -->
<g id="node4" class="node"><title>Node6</title>
<polygon fill="none" stroke="#bfbfbf" points="429.5,-968.5 429.5,-1025.5 470.5,-1025.5 470.5,-968.5 429.5,-968.5"/>
<text text-anchor="middle" x="450" y="-1013.5" font-family="Helvetica,sans-Serif" font-size="10.00">string</text>
<polyline fill="none" stroke="#bfbfbf" points="429.5,-1006.5 470.5,-1006.5 "/>
<text text-anchor="middle" x="450" y="-994.5" font-family="Helvetica,sans-Serif" font-size="10.00"> </text>
<polyline fill="none" stroke="#bfbfbf" points="429.5,-987.5 470.5,-987.5 "/>
<text text-anchor="middle" x="450" y="-975.5" font-family="Helvetica,sans-Serif" font-size="10.00"> </text>
</g>
<!-- Node6&#45;&gt;Node4 -->
<g id="edge20" class="edge"><title>Node6&#45;&gt;Node4</title>
<path fill="none" stroke="#404040" d="M450,-968.324C450,-954.731 450,-937.837 450,-921.696"/>
<polygon fill="none" stroke="#404040" points="450,-921.568 446,-915.568 450,-909.568 454,-915.568 450,-921.568"/>
<text text-anchor="middle" x="465" y="-936.5" font-family="Helvetica,sans-Serif" font-size="10.00"> #desc</text>
</g>
<!-- Node6&#45;&gt;Node5 -->
<g id="edge3" class="edge"><title>Node6&#45;&gt;Node5</title>
<path fill="none" stroke="#404040" d="M470.705,-994.419C528.609,-988.762 688,-964.223 688,-865.5 688,-865.5 688,-865.5 688,-221 688,-110.61 535.141,-65.7809 450.24,-49.3953"/>
<polygon fill="none" stroke="#404040" points="450.034,-49.3573 443.408,-52.2021 438.233,-47.1797 444.859,-44.3349 450.034,-49.3573"/>
<text text-anchor="middle" x="700.5" y="-509" font-family="Helvetica,sans-Serif" font-size="10.00"> #text</text>
</g>
<!-- Node6&#45;&gt;Node7 -->
<g id="edge5" class="edge"><title>Node6&#45;&gt;Node7</title>
<path fill="none" stroke="#404040" d="M429.292,-995.283C398.258,-993.066 339.832,-984.277 307,-950 265.233,-906.396 288.553,-876.773 271,-819 268.549,-810.931 266.694,-809.261 265,-801 259.318,-773.286 255.776,-742.765 253.573,-714.809"/>
<polygon fill="none" stroke="#404040" points="253.554,-714.552 249.127,-708.859 252.68,-702.584 257.106,-708.276 253.554,-714.552"/>
<text text-anchor="middle" x="300.5" y="-862" font-family="Helvetica,sans-Serif" font-size="10.00"> #name</text>
</g>
<!-- Node9 -->
<g id="node7" class="node"><title>Node9</title>
<g id="a_node7"><a xlink:href="class_battle_manager.html" target="_top" xlink:title="{BattleManager\n|+ Player\l+ Enemy\l+ WasCriticalHit\l|+ BattleManager()\l+ playerFirst()\l+ switchPlayers()\l+ isCriticalHit()\l+ ranAway()\l+ damageCalculation()\l+ enemyMove()\l+ enemySpecialMove()\l+ battleWon()\l+ playerFainted()\l&#45; characterFainted()\l}">
<polygon fill="none" stroke="black" points="134,-127.5 134,-316.5 250,-316.5 250,-127.5 134,-127.5"/>
<text text-anchor="middle" x="192" y="-304.5" font-family="Helvetica,sans-Serif" font-size="10.00">BattleManager</text>
<polyline fill="none" stroke="black" points="134,-297.5 250,-297.5 "/>
<text text-anchor="start" x="142" y="-285.5" font-family="Helvetica,sans-Serif" font-size="10.00">+ Player</text>
<text text-anchor="start" x="142" y="-274.5" font-family="Helvetica,sans-Serif" font-size="10.00">+ Enemy</text>
<text text-anchor="start" x="142" y="-263.5" font-family="Helvetica,sans-Serif" font-size="10.00">+ WasCriticalHit</text>
<polyline fill="none" stroke="black" points="134,-256.5 250,-256.5 "/>
<text text-anchor="start" x="142" y="-244.5" font-family="Helvetica,sans-Serif" font-size="10.00">+ BattleManager()</text>
<text text-anchor="start" x="142" y="-233.5" font-family="Helvetica,sans-Serif" font-size="10.00">+ playerFirst()</text>
<text text-anchor="start" x="142" y="-222.5" font-family="Helvetica,sans-Serif" font-size="10.00">+ switchPlayers()</text>
<text text-anchor="start" x="142" y="-211.5" font-family="Helvetica,sans-Serif" font-size="10.00">+ isCriticalHit()</text>
<text text-anchor="start" x="142" y="-200.5" font-family="Helvetica,sans-Serif" font-size="10.00">+ ranAway()</text>
<text text-anchor="start" x="142" y="-189.5" font-family="Helvetica,sans-Serif" font-size="10.00">+ damageCalculation()</text>
<text text-anchor="start" x="142" y="-178.5" font-family="Helvetica,sans-Serif" font-size="10.00">+ enemyMove()</text>
<text text-anchor="start" x="142" y="-167.5" font-family="Helvetica,sans-Serif" font-size="10.00">+ enemySpecialMove()</text>
<text text-anchor="start" x="142" y="-156.5" font-family="Helvetica,sans-Serif" font-size="10.00">+ battleWon()</text>
<text text-anchor="start" x="142" y="-145.5" font-family="Helvetica,sans-Serif" font-size="10.00">+ playerFainted()</text>
<text text-anchor="start" x="142" y="-134.5" font-family="Helvetica,sans-Serif" font-size="10.00">&#45; characterFainted()</text>
</a>
</g>
</g>
<!-- Node6&#45;&gt;Node9 -->
<g id="edge9" class="edge"><title>Node6&#45;&gt;Node9</title>
<path fill="none" stroke="#404040" d="M470.75,-986.715C496.983,-973.733 541.117,-947.469 561,-910 600.068,-836.38 592.475,-609.443 555,-535 500.29,-426.32 439.245,-436.343 347,-357 318.293,-332.308 286.659,-304.981 259.497,-281.481"/>
<polygon fill="none" stroke="#404040" points="259.162,-281.191 252.007,-280.289 250.088,-273.339 257.242,-274.24 259.162,-281.191"/>
<text text-anchor="middle" x="625" y="-616.5" font-family="Helvetica,sans-Serif" font-size="10.00"> +forceCriticalHits</text>
</g>
<!-- Node13 -->
<g id="node11" class="node"><title>Node13</title>
<g id="a_node11"><a xlink:href="class_item.html" target="_top" xlink:title="{Item\n|+ Name\l+ Desc\l|+ applyBuffs()\l+ revertBuffs()\l}">
<polygon fill="none" stroke="black" points="334.5,-721.5 334.5,-800.5 411.5,-800.5 411.5,-721.5 334.5,-721.5"/>
<text text-anchor="middle" x="373" y="-788.5" font-family="Helvetica,sans-Serif" font-size="10.00">Item</text>
<polyline fill="none" stroke="black" points="334.5,-781.5 411.5,-781.5 "/>
<text text-anchor="start" x="342.5" y="-769.5" font-family="Helvetica,sans-Serif" font-size="10.00">+ Name</text>
<text text-anchor="start" x="342.5" y="-758.5" font-family="Helvetica,sans-Serif" font-size="10.00">+ Desc</text>
<polyline fill="none" stroke="black" points="334.5,-751.5 411.5,-751.5 "/>
<text text-anchor="start" x="342.5" y="-739.5" font-family="Helvetica,sans-Serif" font-size="10.00">+ applyBuffs()</text>
<text text-anchor="start" x="342.5" y="-728.5" font-family="Helvetica,sans-Serif" font-size="10.00">+ revertBuffs()</text>
</a>
</g>
</g>
<!-- Node6&#45;&gt;Node13 -->
<g id="edge18" class="edge"><title>Node6&#45;&gt;Node13</title>
<path fill="none" stroke="#404040" d="M429.297,-972.637C416.131,-956.299 400.089,-933.308 392,-910 381.198,-878.875 376.439,-842.148 374.386,-813.067"/>
<polygon fill="none" stroke="#404040" points="374.362,-812.681 370.009,-806.932 373.641,-800.702 377.994,-806.451 374.362,-812.681"/>
<text text-anchor="middle" x="428" y="-942" font-family="Helvetica,sans-Serif" font-size="10.00"> #desc</text>
<text text-anchor="middle" x="428" y="-931" font-family="Helvetica,sans-Serif" font-size="10.00">#name</text>
</g>
<!-- Node7&#45;&gt;Node5 -->
<g id="edge4" class="edge"><title>Node7&#45;&gt;Node5</title>
<path fill="none" stroke="#404040" d="M290.304,-535.17C296.853,-519.728 303.087,-503.554 308,-488 352.268,-347.846 378.122,-175.519 388.961,-91.6597"/>
<polygon fill="none" stroke="#404040" points="388.968,-91.606 385.757,-85.1492 390.482,-79.7019 393.693,-86.1586 388.968,-91.606"/>
<text text-anchor="middle" x="364" y="-349" font-family="Helvetica,sans-Serif" font-size="10.00"> #target</text>
<text text-anchor="middle" x="364" y="-338" font-family="Helvetica,sans-Serif" font-size="10.00">#user</text>
</g>
<!-- Node10 -->
<g id="node8" class="node"><title>Node10</title>
<g id="a_node8"><a xlink:href="class_enemy.html" target="_top" xlink:title="Defines an AI controller enemy to fight in battle scenes">
<polygon fill="none" stroke="black" points="88.5,-403 88.5,-460 155.5,-460 155.5,-403 88.5,-403"/>
<text text-anchor="middle" x="122" y="-448" font-family="Helvetica,sans-Serif" font-size="10.00">Enemy</text>
<polyline fill="none" stroke="black" points="88.5,-441 155.5,-441 "/>
<text text-anchor="start" x="96.5" y="-429" font-family="Helvetica,sans-Serif" font-size="10.00">+ ExpGiven</text>
<polyline fill="none" stroke="black" points="88.5,-422 155.5,-422 "/>
<text text-anchor="start" x="96.5" y="-410" font-family="Helvetica,sans-Serif" font-size="10.00">+ Enemy()</text>
</a>
</g>
</g>
<!-- Node7&#45;&gt;Node10 -->
<g id="edge11" class="edge"><title>Node7&#45;&gt;Node10</title>
<path fill="none" stroke="midnightblue" d="M196.574,-540.574C176.952,-512.137 155.966,-481.723 141.271,-460.428"/>
<polygon fill="none" stroke="midnightblue" points="193.777,-542.684 202.338,-548.927 199.539,-538.708 193.777,-542.684"/>
</g>
<!-- Node12 -->
<g id="node10" class="node"><title>Node12</title>
<g id="a_node10"><a xlink:href="class_player.html" target="_top" xlink:title="Defines a playable character for use in battle scenes">
<polygon fill="none" stroke="black" points="187,-375.5 187,-487.5 299,-487.5 299,-375.5 187,-375.5"/>
<text text-anchor="middle" x="243" y="-475.5" font-family="Helvetica,sans-Serif" font-size="10.00">Player</text>
<polyline fill="none" stroke="black" points="187,-468.5 299,-468.5 "/>
<text text-anchor="start" x="195" y="-456.5" font-family="Helvetica,sans-Serif" font-size="10.00">+ Exp</text>
<text text-anchor="start" x="195" y="-445.5" font-family="Helvetica,sans-Serif" font-size="10.00">+ Item</text>
<text text-anchor="start" x="195" y="-434.5" font-family="Helvetica,sans-Serif" font-size="10.00">+ ExpToNextLevel</text>
<polyline fill="none" stroke="black" points="187,-427.5 299,-427.5 "/>
<text text-anchor="start" x="195" y="-415.5" font-family="Helvetica,sans-Serif" font-size="10.00">+ Player()</text>
<text text-anchor="start" x="195" y="-404.5" font-family="Helvetica,sans-Serif" font-size="10.00">+ gainExp()</text>
<text text-anchor="start" x="195" y="-393.5" font-family="Helvetica,sans-Serif" font-size="10.00">+ levelUp()</text>
<text text-anchor="start" x="195" y="-382.5" font-family="Helvetica,sans-Serif" font-size="10.00">&#45; setExpToNextLevel()</text>
</a>
</g>
</g>
<!-- Node7&#45;&gt;Node12 -->
<g id="edge16" class="edge"><title>Node7&#45;&gt;Node12</title>
<path fill="none" stroke="midnightblue" d="M246.492,-525.04C246.009,-512.242 245.526,-499.449 245.081,-487.637"/>
<polygon fill="none" stroke="midnightblue" points="243.004,-525.426 246.879,-535.286 249.999,-525.162 243.004,-525.426"/>
</g>
<!-- Node8 -->
<g id="node6" class="node"><title>Node8</title>
<polygon fill="none" stroke="#bfbfbf" points="121.5,-968.5 121.5,-1025.5 150.5,-1025.5 150.5,-968.5 121.5,-968.5"/>
<text text-anchor="middle" x="136" y="-1013.5" font-family="Helvetica,sans-Serif" font-size="10.00">int</text>
<polyline fill="none" stroke="#bfbfbf" points="121.5,-1006.5 150.5,-1006.5 "/>
<text text-anchor="middle" x="136" y="-994.5" font-family="Helvetica,sans-Serif" font-size="10.00"> </text>
<polyline fill="none" stroke="#bfbfbf" points="121.5,-987.5 150.5,-987.5 "/>
<text text-anchor="middle" x="136" y="-975.5" font-family="Helvetica,sans-Serif" font-size="10.00"> </text>
</g>
<!-- Node8&#45;&gt;Node4 -->
<g id="edge21" class="edge"><title>Node8&#45;&gt;Node4</title>
<path fill="none" stroke="#404040" d="M150.724,-989.881C192.761,-972.41 315.096,-921.567 389.705,-890.559"/>
<polygon fill="none" stroke="#404040" points="389.72,-890.553 393.725,-884.557 400.801,-885.947 396.795,-891.944 389.72,-890.553"/>
<text text-anchor="middle" x="310.5" y="-936.5" font-family="Helvetica,sans-Serif" font-size="10.00"> #magic</text>
</g>
<!-- Node8&#45;&gt;Node7 -->
<g id="edge6" class="edge"><title>Node8&#45;&gt;Node7</title>
<path fill="none" stroke="#404040" d="M144.711,-968.329C159.416,-921.936 188.313,-832.218 196,-819 201.381,-809.747 207.183,-810.559 212,-801 225.339,-774.531 233.999,-743.616 239.62,-714.903"/>
<polygon fill="none" stroke="#404040" points="239.684,-714.555 236.831,-707.932 241.848,-702.751 244.7,-709.374 239.684,-714.555"/>
<text text-anchor="middle" x="233.5" y="-900.5" font-family="Helvetica,sans-Serif" font-size="10.00"> #speed</text>
<text text-anchor="middle" x="233.5" y="-889.5" font-family="Helvetica,sans-Serif" font-size="10.00">#luck</text>
<text text-anchor="middle" x="233.5" y="-878.5" font-family="Helvetica,sans-Serif" font-size="10.00">#health</text>
<text text-anchor="middle" x="233.5" y="-867.5" font-family="Helvetica,sans-Serif" font-size="10.00">#magic</text>
<text text-anchor="middle" x="233.5" y="-856.5" font-family="Helvetica,sans-Serif" font-size="10.00">#maximumMagic</text>
<text text-anchor="middle" x="233.5" y="-845.5" font-family="Helvetica,sans-Serif" font-size="10.00">#attack</text>
<text text-anchor="middle" x="233.5" y="-834.5" font-family="Helvetica,sans-Serif" font-size="10.00">#defence</text>
<text text-anchor="middle" x="233.5" y="-823.5" font-family="Helvetica,sans-Serif" font-size="10.00">#level</text>
</g>
<!-- Node8&#45;&gt;Node9 -->
<g id="edge13" class="edge"><title>Node8&#45;&gt;Node9</title>
<path fill="none" stroke="#404040" d="M121.446,-990.297C86.3613,-975.488 0,-932.255 0,-865.5 0,-865.5 0,-865.5 0,-430.5 0,-355.574 68.2776,-296.22 123.4,-260.51"/>
<polygon fill="none" stroke="#404040" points="123.724,-260.306 126.664,-253.722 133.873,-253.903 130.933,-260.487 123.724,-260.306"/>
<text text-anchor="middle" x="19.5" y="-616.5" font-family="Helvetica,sans-Serif" font-size="10.00"> +money</text>
</g>
<!-- Node8&#45;&gt;Node10 -->
<g id="edge12" class="edge"><title>Node8&#45;&gt;Node10</title>
<path fill="none" stroke="#404040" d="M123.032,-968.368C106.406,-931.271 78.477,-862.863 68,-801 47.7734,-681.569 86.0687,-539.595 108.066,-472.03"/>
<polygon fill="none" stroke="#404040" points="108.179,-471.689 106.276,-464.734 111.965,-460.303 113.868,-467.258 108.179,-471.689"/>
<text text-anchor="middle" x="91" y="-758.5" font-family="Helvetica,sans-Serif" font-size="10.00"> &#45;expGiven</text>
</g>
<!-- Node8&#45;&gt;Node12 -->
<g id="edge19" class="edge"><title>Node8&#45;&gt;Node12</title>
<path fill="none" stroke="#404040" d="M135.438,-968.231C134.704,-930.411 133.458,-860.589 133,-801 132.727,-765.445 127.475,-756.124 133,-721 146.497,-635.194 160.544,-615.57 193,-535 197.815,-523.048 203.412,-510.549 209.084,-498.553"/>
<polygon fill="none" stroke="#404040" points="209.098,-498.525 208.09,-491.385 214.294,-487.708 215.301,-494.849 209.098,-498.525"/>
<text text-anchor="middle" x="170.5" y="-764" font-family="Helvetica,sans-Serif" font-size="10.00"> &#45;expToNextLevel</text>
<text text-anchor="middle" x="170.5" y="-753" font-family="Helvetica,sans-Serif" font-size="10.00">&#45;exp</text>
</g>
<!-- Node9&#45;&gt;Node5 -->
<g id="edge8" class="edge"><title>Node9&#45;&gt;Node5</title>
<path fill="none" stroke="#404040" d="M250.178,-155.896C268.823,-136.423 290.076,-115.59 311,-98 320.61,-89.9213 331.375,-81.9252 341.91,-74.5911"/>
<polygon fill="none" stroke="#404040" points="341.98,-74.5433 344.683,-67.8578 351.893,-67.7813 349.19,-74.4668 341.98,-74.5433"/>
<text text-anchor="middle" x="334" y="-101" font-family="Helvetica,sans-Serif" font-size="10.00"> #manager</text>
</g>
<!-- Node10&#45;&gt;Node9 -->
<g id="edge10" class="edge"><title>Node10&#45;&gt;Node9</title>
<path fill="none" stroke="#404040" d="M131.295,-402.946C137.898,-383.373 147.221,-355.738 156.583,-327.985"/>
<polygon fill="none" stroke="#404040" points="156.613,-327.898 154.74,-320.934 160.449,-316.528 162.321,-323.491 156.613,-327.898"/>
<text text-anchor="middle" x="171" y="-343.5" font-family="Helvetica,sans-Serif" font-size="10.00"> &#45;enemy</text>
</g>
<!-- Node11 -->
<g id="node9" class="node"><title>Node11</title>
<polygon fill="none" stroke="#bfbfbf" points="35.5,-403 35.5,-460 70.5,-460 70.5,-403 35.5,-403"/>
<text text-anchor="middle" x="53" y="-448" font-family="Helvetica,sans-Serif" font-size="10.00">bool</text>
<polyline fill="none" stroke="#bfbfbf" points="35.5,-441 70.5,-441 "/>
<text text-anchor="middle" x="53" y="-429" font-family="Helvetica,sans-Serif" font-size="10.00"> </text>
<polyline fill="none" stroke="#bfbfbf" points="35.5,-422 70.5,-422 "/>
<text text-anchor="middle" x="53" y="-410" font-family="Helvetica,sans-Serif" font-size="10.00"> </text>
</g>
<!-- Node11&#45;&gt;Node9 -->
<g id="edge14" class="edge"><title>Node11&#45;&gt;Node9</title>
<path fill="none" stroke="#404040" d="M56.6388,-402.671C60.1492,-382.776 66.7972,-355.931 79,-335 91.0837,-314.273 107.976,-294.718 125.023,-277.925"/>
<polygon fill="none" stroke="#404040" points="125.258,-277.701 126.827,-270.663 133.927,-269.404 132.358,-276.442 125.258,-277.701"/>
<text text-anchor="middle" x="112" y="-343.5" font-family="Helvetica,sans-Serif" font-size="10.00"> &#45;wasCriticalHit</text>
</g>
<!-- Node12&#45;&gt;Node9 -->
<g id="edge15" class="edge"><title>Node12&#45;&gt;Node9</title>
<path fill="none" stroke="#404040" d="M229.467,-375.439C225.905,-360.946 221.94,-344.815 217.96,-328.623"/>
<polygon fill="none" stroke="#404040" points="217.93,-328.498 212.613,-323.626 215.065,-316.845 220.382,-321.716 217.93,-328.498"/>
<text text-anchor="middle" x="240.5" y="-343.5" font-family="Helvetica,sans-Serif" font-size="10.00"> &#45;player</text>
</g>
<!-- Node13&#45;&gt;Node12 -->
<g id="edge17" class="edge"><title>Node13&#45;&gt;Node12</title>
<path fill="none" stroke="#404040" d="M364.782,-721.493C354.3,-675.8 334.103,-597.886 306,-535 300.496,-522.684 293.76,-510.059 286.763,-498.064"/>
<polygon fill="none" stroke="#404040" points="286.73,-498.009 280.218,-494.912 280.572,-487.709 287.084,-490.806 286.73,-498.009"/>
<text text-anchor="middle" x="373.5" y="-616.5" font-family="Helvetica,sans-Serif" font-size="10.00"> &#45;item</text>
</g>
<!-- Node14 -->
<g id="node12" class="node"><title>Node14</title>
<polygon fill="none" stroke="#bfbfbf" points="517.5,-836 517.5,-893 552.5,-893 552.5,-836 517.5,-836"/>
<text text-anchor="middle" x="535" y="-881" font-family="Helvetica,sans-Serif" font-size="10.00">float</text>
<polyline fill="none" stroke="#bfbfbf" points="517.5,-874 552.5,-874 "/>
<text text-anchor="middle" x="535" y="-862" font-family="Helvetica,sans-Serif" font-size="10.00"> </text>
<polyline fill="none" stroke="#bfbfbf" points="517.5,-855 552.5,-855 "/>
<text text-anchor="middle" x="535" y="-843" font-family="Helvetica,sans-Serif" font-size="10.00"> </text>
</g>
<!-- Node14&#45;&gt;Node3 -->
<g id="edge22" class="edge"><title>Node14&#45;&gt;Node3</title>
<path fill="none" stroke="#404040" d="M530.539,-835.814C528.798,-824.96 526.793,-812.398 525,-801 517.727,-754.779 509.564,-701.891 503.937,-665.273"/>
<polygon fill="none" stroke="#404040" points="503.879,-664.897 499.015,-659.574 502.058,-653.036 506.922,-658.36 503.879,-664.897"/>
<text text-anchor="middle" x="546.5" y="-758.5" font-family="Helvetica,sans-Serif" font-size="10.00"> &#45;increase</text>
</g>
</g>
</svg>
        <g id="navigator" transform="translate(0 0)" fill="#404254">
                <rect fill="#f2f5e9" fill-opacity="0.5" stroke="#606060" stroke-width=".5" x="0" y="0" width="60" height="60"/>
                <use id="zoomplus" xlink:href="#zoomPlus" x="17" y="9" onmousedown="handleZoom(evt,'in')"/>
                <use id="zoomminus" xlink:href="#zoomMin" x="42" y="9" onmousedown="handleZoom(evt,'out')"/>
                <use id="reset" xlink:href="#resetDef" x="30" y="36" onmousedown="handleReset()"/>
                <g id="arrowUp" xlink:href="#dirArrow" transform="translate(30 24)" onmousedown="handlePan(0,-1)">
                  <use xlink:href="#rim" fill="#404040">
                        <set attributeName="fill" to="#808080" begin="arrowUp.mouseover" end="arrowUp.mouseout"/>
                  </use>
                  <path fill="none" stroke="white" stroke-width="1.5" d="M0,-3.0v7 M-2.5,-0.5L0,-3.0L2.5,-0.5"/>
                </g>
                <g id="arrowRight" xlink:href="#dirArrow" transform="rotate(90) translate(36 -43)" onmousedown="handlePan(1,0)">
                  <use xlink:href="#rim" fill="#404040">
                        <set attributeName="fill" to="#808080" begin="arrowRight.mouseover" end="arrowRight.mouseout"/>
                  </use>
                  <path fill="none" stroke="white" stroke-width="1.5" d="M0,-3.0v7 M-2.5,-0.5L0,-3.0L2.5,-0.5"/>
                </g>
                <g id="arrowDown" xlink:href="#dirArrow" transform="rotate(180) translate(-30 -48)" onmousedown="handlePan(0,1)">
                  <use xlink:href="#rim" fill="#404040">
                        <set attributeName="fill" to="#808080" begin="arrowDown.mouseover" end="arrowDown.mouseout"/>
                  </use>
                  <path fill="none" stroke="white" stroke-width="1.5" d="M0,-3.0v7 M-2.5,-0.5L0,-3.0L2.5,-0.5"/>
                </g>
                <g id="arrowLeft" xlink:href="#dirArrow" transform="rotate(270) translate(-36 17)" onmousedown="handlePan(-1,0)">
                  <use xlink:href="#rim" fill="#404040">
                        <set attributeName="fill" to="#808080" begin="arrowLeft.mouseover" end="arrowLeft.mouseout"/>
                  </use>
                  <path fill="none" stroke="white" stroke-width="1.5" d="M0,-3.0v7 M-2.5,-0.5L0,-3.0L2.5,-0.5"/>
                </g>
        </g>
        <svg viewBox="0 0 15 15" width="100%" height="30px" preserveAspectRatio="xMaxYMin meet">
         <g id="arrow_out" transform="scale(0.3 0.3)">
          <a xlink:href="class_increase_money__coll__graph_org.svg" target="_base">
           <rect id="button" ry="5" rx="5" y="6" x="6" height="38" width="38"
                fill="#f2f5e9" fill-opacity="0.5" stroke="#606060" stroke-width="1.0"/>
           <path id="arrow"
             d="M 11.500037,31.436501 C 11.940474,20.09759 22.043105,11.32322 32.158766,21.979434 L 37.068811,17.246167 C 37.068811,17.246167 37.088388,32 37.088388,32 L 22.160133,31.978069 C 22.160133,31.978069 26.997745,27.140456 26.997745,27.140456 C 18.528582,18.264221 13.291696,25.230495 11.500037,31.436501 z"
             style="fill:#404040;"/>
          </a>
         </g>
        </svg>
</svg>
