<?xml version="1.0" encoding="UTF-8" standalone="no"?>
<!DOCTYPE svg PUBLIC "-//W3C//DTD SVG 1.1//EN"
 "http://www.w3.org/Graphics/SVG/1.1/DTD/svg11.dtd">
<!-- Generated by graphviz version 2.38.0 (20140413.2041)
 -->
<!-- Title: StatsScript Pages: 1 -->
<svg width="409pt" height="215pt"
 viewBox="0.00 0.00 408.50 215.00" xmlns="http://www.w3.org/2000/svg" xmlns:xlink="http://www.w3.org/1999/xlink">
<g id="graph0" class="graph" transform="scale(1 1) rotate(0) translate(4 211)">
<title>StatsScript</title>
<!-- Node2 -->
<g id="node1" class="node"><title>Node2</title>
<polygon fill="#bfbfbf" stroke="black" points="155,-0.5 155,-90.5 248,-90.5 248,-0.5 155,-0.5"/>
<text text-anchor="middle" x="201.5" y="-78.5" font-family="Helvetica,sans-Serif" font-size="10.00">StatsScript</text>
<polyline fill="none" stroke="black" points="155,-71.5 248,-71.5 "/>
<text text-anchor="middle" x="201.5" y="-59.5" font-family="Helvetica,sans-Serif" font-size="10.00"> </text>
<polyline fill="none" stroke="black" points="155,-52.5 248,-52.5 "/>
<text text-anchor="start" x="163" y="-40.5" font-family="Helvetica,sans-Serif" font-size="10.00">+ setUpDisplay()</text>
<text text-anchor="start" x="163" y="-29.5" font-family="Helvetica,sans-Serif" font-size="10.00">+ updateDisplay()</text>
<text text-anchor="start" x="163" y="-18.5" font-family="Helvetica,sans-Serif" font-size="10.00">&#45; Start()</text>
<text text-anchor="start" x="163" y="-7.5" font-family="Helvetica,sans-Serif" font-size="10.00">&#45; Update()</text>
</g>
<!-- Node3 -->
<g id="node2" class="node"><title>Node3</title>
<g id="a_node2"><a xlink:href="class_mono_behaviour.html" target="_top" xlink:title="{MonoBehaviour\n||}">
<polygon fill="none" stroke="black" points="0,-149.5 0,-206.5 83,-206.5 83,-149.5 0,-149.5"/>
<text text-anchor="middle" x="41.5" y="-194.5" font-family="Helvetica,sans-Serif" font-size="10.00">MonoBehaviour</text>
<polyline fill="none" stroke="black" points="0,-187.5 83,-187.5 "/>
<text text-anchor="middle" x="41.5" y="-175.5" font-family="Helvetica,sans-Serif" font-size="10.00"> </text>
<polyline fill="none" stroke="black" points="0,-168.5 83,-168.5 "/>
<text text-anchor="middle" x="41.5" y="-156.5" font-family="Helvetica,sans-Serif" font-size="10.00"> </text>
</a>
</g>
</g>
<!-- Node3&#45;&gt;Node2 -->
<g id="edge1" class="edge"><title>Node3&#45;&gt;Node2</title>
<path fill="none" stroke="midnightblue" d="M83.279,-142.924C105.242,-125.01 132.23,-102.998 154.872,-84.531"/>
<polygon fill="none" stroke="midnightblue" points="80.969,-140.292 75.4319,-149.324 85.3934,-145.716 80.969,-140.292"/>
</g>
<!-- Node4 -->
<g id="node3" class="node"><title>Node4</title>
<polygon fill="none" stroke="#bfbfbf" points="101,-149.5 101,-206.5 142,-206.5 142,-149.5 101,-149.5"/>
<text text-anchor="middle" x="121.5" y="-194.5" font-family="Helvetica,sans-Serif" font-size="10.00">string</text>
<polyline fill="none" stroke="#bfbfbf" points="101,-187.5 142,-187.5 "/>
<text text-anchor="middle" x="121.5" y="-175.5" font-family="Helvetica,sans-Serif" font-size="10.00"> </text>
<polyline fill="none" stroke="#bfbfbf" points="101,-168.5 142,-168.5 "/>
<text text-anchor="middle" x="121.5" y="-156.5" font-family="Helvetica,sans-Serif" font-size="10.00"> </text>
</g>
<!-- Node4&#45;&gt;Node2 -->
<g id="edge2" class="edge"><title>Node4&#45;&gt;Node2</title>
<path fill="none" stroke="#404040" d="M125.961,-149.286C128.833,-136.436 133.4,-121.319 140.5,-109 142.569,-105.41 144.892,-101.874 147.39,-98.4222"/>
<polygon fill="none" stroke="#404040" points="147.423,-98.3796 147.98,-91.19 154.831,-88.9389 154.274,-96.1285 147.423,-98.3796"/>
<text text-anchor="middle" x="169" y="-117.5" font-family="Helvetica,sans-Serif" font-size="10.00"> +textHeader</text>
</g>
<!-- Node5 -->
<g id="node4" class="node"><title>Node5</title>
<polygon fill="none" stroke="#bfbfbf" points="161.5,-149.5 161.5,-206.5 241.5,-206.5 241.5,-149.5 161.5,-149.5"/>
<text text-anchor="middle" x="201.5" y="-194.5" font-family="Helvetica,sans-Serif" font-size="10.00">RectTransform</text>
<polyline fill="none" stroke="#bfbfbf" points="161.5,-187.5 241.5,-187.5 "/>
<text text-anchor="middle" x="201.5" y="-175.5" font-family="Helvetica,sans-Serif" font-size="10.00"> </text>
<polyline fill="none" stroke="#bfbfbf" points="161.5,-168.5 241.5,-168.5 "/>
<text text-anchor="middle" x="201.5" y="-156.5" font-family="Helvetica,sans-Serif" font-size="10.00"> </text>
</g>
<!-- Node5&#45;&gt;Node2 -->
<g id="edge3" class="edge"><title>Node5&#45;&gt;Node2</title>
<path fill="none" stroke="#404040" d="M201.5,-149.324C201.5,-135.731 201.5,-118.837 201.5,-102.696"/>
<polygon fill="none" stroke="#404040" points="201.5,-102.568 197.5,-96.5677 201.5,-90.5676 205.5,-96.5676 201.5,-102.568"/>
<text text-anchor="middle" x="213" y="-117.5" font-family="Helvetica,sans-Serif" font-size="10.00"> &#45;rect</text>
</g>
<!-- Node6 -->
<g id="node5" class="node"><title>Node6</title>
<polygon fill="none" stroke="#bfbfbf" points="260,-149.5 260,-206.5 329,-206.5 329,-149.5 260,-149.5"/>
<text text-anchor="middle" x="294.5" y="-194.5" font-family="Helvetica,sans-Serif" font-size="10.00">UnityEngine</text>
<polyline fill="none" stroke="#bfbfbf" points="260,-187.5 329,-187.5 "/>
<text text-anchor="middle" x="294.5" y="-175.5" font-family="Helvetica,sans-Serif" font-size="10.00"> </text>
<polyline fill="none" stroke="#bfbfbf" points="260,-168.5 329,-168.5 "/>
<text text-anchor="middle" x="294.5" y="-156.5" font-family="Helvetica,sans-Serif" font-size="10.00"> </text>
</g>
<!-- Node6&#45;&gt;Node2 -->
<g id="edge4" class="edge"><title>Node6&#45;&gt;Node2</title>
<path fill="none" stroke="#404040" d="M274.777,-149.324C264.71,-135.198 252.102,-117.507 240.197,-100.801"/>
<polygon fill="none" stroke="#404040" points="239.869,-100.34 233.129,-97.7752 232.905,-90.5676 239.644,-93.1324 239.869,-100.34"/>
<text text-anchor="middle" x="287" y="-117.5" font-family="Helvetica,sans-Serif" font-size="10.00"> &#45;textDisplay</text>
</g>
<!-- Node7 -->
<g id="node6" class="node"><title>Node7</title>
<polygon fill="none" stroke="#bfbfbf" points="351,-149.5 351,-206.5 386,-206.5 386,-149.5 351,-149.5"/>
<text text-anchor="middle" x="368.5" y="-194.5" font-family="Helvetica,sans-Serif" font-size="10.00">float</text>
<polyline fill="none" stroke="#bfbfbf" points="351,-187.5 386,-187.5 "/>
<text text-anchor="middle" x="368.5" y="-175.5" font-family="Helvetica,sans-Serif" font-size="10.00"> </text>
<polyline fill="none" stroke="#bfbfbf" points="351,-168.5 386,-168.5 "/>
<text text-anchor="middle" x="368.5" y="-156.5" font-family="Helvetica,sans-Serif" font-size="10.00"> </text>
</g>
<!-- Node7&#45;&gt;Node2 -->
<g id="edge5" class="edge"><title>Node7&#45;&gt;Node2</title>
<path fill="none" stroke="#404040" d="M352.193,-149.228C343.413,-135.911 331.682,-120.415 318.5,-109 300.947,-93.7996 279.071,-80.8775 259.001,-70.797"/>
<polygon fill="none" stroke="#404040" points="258.87,-70.7336 251.726,-71.7115 248.075,-65.4927 255.22,-64.5148 258.87,-70.7336"/>
<text text-anchor="middle" x="370" y="-123" font-family="Helvetica,sans-Serif" font-size="10.00"> &#45;widthPerUnit</text>
<text text-anchor="middle" x="370" y="-112" font-family="Helvetica,sans-Serif" font-size="10.00">&#45;initialWidth</text>
</g>
</g>
</svg>
