<?xml version="1.0" encoding="UTF-8" standalone="no"?>
<!DOCTYPE svg PUBLIC "-//W3C//DTD SVG 1.1//EN"
 "http://www.w3.org/Graphics/SVG/1.1/DTD/svg11.dtd">
<!-- Generated by graphviz version 2.38.0 (20140413.2041)
 -->
<!-- Title: BattleManager Pages: 1 -->
<!--zoomable 1043 -->
<svg id="main" version="1.1" xmlns="http://www.w3.org/2000/svg" xmlns:xlink="http://www.w3.org/1999/xlink" xml:space="preserve" onload="init(evt)">
<style type="text/css"><![CDATA[
.edge:hover path { stroke: red; }
.edge:hover polygon { stroke: red; fill: red; }
]]></style>
<script type="text/javascript"><![CDATA[
var edges = document.getElementsByTagName('g');
if (edges && edges.length) {
  for (var i=0;i<edges.length;i++) {
    if (edges[i].id.substr(0,4)=='edge') {
      edges[i].setAttribute('class','edge');
    }
  }
}
]]></script>
        <defs>
                <circle id="rim" cx="0" cy="0" r="7"/>
                <circle id="rim2" cx="0" cy="0" r="3.5"/>
                <g id="zoomPlus">
                        <use xlink:href="#rim" fill="#404040">
                                <set attributeName="fill" to="#808080" begin="zoomplus.mouseover" end="zoomplus.mouseout"/>
                        </use>
                        <path d="M-4,0h8M0,-4v8" fill="none" stroke="white" stroke-width="1.5" pointer-events="none"/>
                </g>
                <g id="zoomMin">
                        <use xlink:href="#rim" fill="#404040">
                                <set attributeName="fill" to="#808080" begin="zoomminus.mouseover" end="zoomminus.mouseout"/>
                        </use>
                        <path d="M-4,0h8" fill="none" stroke="white" stroke-width="1.5" pointer-events="none"/>
                </g>
                <g id="dirArrow">
                        <path fill="none" stroke="white" stroke-width="1.5" d="M0,-3.0v7 M-2.5,-0.5L0,-3.0L2.5,-0.5"/>
                </g>
               <g id="resetDef">
                       <use xlink:href="#rim2" fill="#404040">
                               <set attributeName="fill" to="#808080" begin="reset.mouseover" end="reset.mouseout"/>
                       </use>
               </g>
        </defs>

<script type="text/javascript">
var viewWidth = 634;
var viewHeight = 1043;
var sectionId = 'dynsection-0';
</script>
<script xlink:href="svgpan.js"/>
<svg id="graph" class="graph">
<g id="viewport">
<title>BattleManager</title>
<!-- Node1 -->
<g id="node1" class="node"><title>Node1</title>
<polygon fill="#bfbfbf" stroke="black" points="250,-729.5 250,-918.5 366,-918.5 366,-729.5 250,-729.5"/>
<text text-anchor="middle" x="308" y="-906.5" font-family="Helvetica,sans-Serif" font-size="10.00">BattleManager</text>
<polyline fill="none" stroke="black" points="250,-899.5 366,-899.5 "/>
<text text-anchor="start" x="258" y="-887.5" font-family="Helvetica,sans-Serif" font-size="10.00">+ Player</text>
<text text-anchor="start" x="258" y="-876.5" font-family="Helvetica,sans-Serif" font-size="10.00">+ Enemy</text>
<text text-anchor="start" x="258" y="-865.5" font-family="Helvetica,sans-Serif" font-size="10.00">+ WasCriticalHit</text>
<polyline fill="none" stroke="black" points="250,-858.5 366,-858.5 "/>
<text text-anchor="start" x="258" y="-846.5" font-family="Helvetica,sans-Serif" font-size="10.00">+ BattleManager()</text>
<text text-anchor="start" x="258" y="-835.5" font-family="Helvetica,sans-Serif" font-size="10.00">+ playerFirst()</text>
<text text-anchor="start" x="258" y="-824.5" font-family="Helvetica,sans-Serif" font-size="10.00">+ switchPlayers()</text>
<text text-anchor="start" x="258" y="-813.5" font-family="Helvetica,sans-Serif" font-size="10.00">+ isCriticalHit()</text>
<text text-anchor="start" x="258" y="-802.5" font-family="Helvetica,sans-Serif" font-size="10.00">+ ranAway()</text>
<text text-anchor="start" x="258" y="-791.5" font-family="Helvetica,sans-Serif" font-size="10.00">+ damageCalculation()</text>
<text text-anchor="start" x="258" y="-780.5" font-family="Helvetica,sans-Serif" font-size="10.00">+ enemyMove()</text>
<text text-anchor="start" x="258" y="-769.5" font-family="Helvetica,sans-Serif" font-size="10.00">+ enemySpecialMove()</text>
<text text-anchor="start" x="258" y="-758.5" font-family="Helvetica,sans-Serif" font-size="10.00">+ battleWon()</text>
<text text-anchor="start" x="258" y="-747.5" font-family="Helvetica,sans-Serif" font-size="10.00">+ playerFainted()</text>
<text text-anchor="start" x="258" y="-736.5" font-family="Helvetica,sans-Serif" font-size="10.00">&#45; characterFainted()</text>
</g>
<!-- Node7 -->
<g id="node7" class="node"><title>Node7</title>
<g id="a_node7"><a xlink:href="class_character_move.html" target="_top" xlink:title="Astract base class for character moves ">
<polygon fill="none" stroke="black" points="330,-529.5 330,-608.5 416,-608.5 416,-529.5 330,-529.5"/>
<text text-anchor="middle" x="373" y="-596.5" font-family="Helvetica,sans-Serif" font-size="10.00">CharacterMove</text>
<polyline fill="none" stroke="black" points="330,-589.5 416,-589.5 "/>
<text text-anchor="start" x="338" y="-577.5" font-family="Helvetica,sans-Serif" font-size="10.00">+ User</text>
<text text-anchor="start" x="338" y="-566.5" font-family="Helvetica,sans-Serif" font-size="10.00">+ Target</text>
<text text-anchor="start" x="338" y="-555.5" font-family="Helvetica,sans-Serif" font-size="10.00">+ Text</text>
<polyline fill="none" stroke="black" points="330,-548.5 416,-548.5 "/>
<text text-anchor="start" x="338" y="-536.5" font-family="Helvetica,sans-Serif" font-size="10.00">+ performMove()</text>
</a>
</g>
</g>
<!-- Node1&#45;&gt;Node7 -->
<g id="edge10" class="edge"><title>Node1&#45;&gt;Node7</title>
<path fill="none" stroke="#404040" d="M332.111,-729.152C341.584,-692.28 352.078,-651.435 360.063,-620.356"/>
<polygon fill="none" stroke="#404040" points="360.115,-620.15 357.734,-613.344 363.102,-608.528 365.483,-615.335 360.115,-620.15"/>
<text text-anchor="middle" x="381" y="-668.5" font-family="Helvetica,sans-Serif" font-size="10.00"> #manager</text>
</g>
<!-- Node2 -->
<g id="node2" class="node"><title>Node2</title>
<polygon fill="none" stroke="#bfbfbf" points="463.5,-977.5 463.5,-1034.5 504.5,-1034.5 504.5,-977.5 463.5,-977.5"/>
<text text-anchor="middle" x="484" y="-1022.5" font-family="Helvetica,sans-Serif" font-size="10.00">string</text>
<polyline fill="none" stroke="#bfbfbf" points="463.5,-1015.5 504.5,-1015.5 "/>
<text text-anchor="middle" x="484" y="-1003.5" font-family="Helvetica,sans-Serif" font-size="10.00"> </text>
<polyline fill="none" stroke="#bfbfbf" points="463.5,-996.5 504.5,-996.5 "/>
<text text-anchor="middle" x="484" y="-984.5" font-family="Helvetica,sans-Serif" font-size="10.00"> </text>
</g>
<!-- Node2&#45;&gt;Node1 -->
<g id="edge1" class="edge"><title>Node2&#45;&gt;Node1</title>
<path fill="none" stroke="#404040" d="M463.22,-1001.79C437.582,-996.832 394.073,-985.007 367,-959 358.04,-950.393 350.35,-940.187 343.773,-929.308"/>
<polygon fill="none" stroke="#404040" points="343.689,-929.157 337.26,-925.891 337.803,-918.7 344.231,-921.967 343.689,-929.157"/>
<text text-anchor="middle" x="406" y="-945.5" font-family="Helvetica,sans-Serif" font-size="10.00"> +forceCriticalHits</text>
</g>
<!-- Node4 -->
<g id="node4" class="node"><title>Node4</title>
<g id="a_node4"><a xlink:href="class_character.html" target="_top" xlink:title="Base abstract class for Enemy and Player to inherit from. Defines all shared variables, their constructor and their setters and getters ">
<polygon fill="none" stroke="black" points="255.5,-150.5 255.5,-317.5 350.5,-317.5 350.5,-150.5 255.5,-150.5"/>
<text text-anchor="middle" x="303" y="-305.5" font-family="Helvetica,sans-Serif" font-size="10.00">Character</text>
<polyline fill="none" stroke="black" points="255.5,-298.5 350.5,-298.5 "/>
<text text-anchor="start" x="263.5" y="-286.5" font-family="Helvetica,sans-Serif" font-size="10.00">+ Name</text>
<text text-anchor="start" x="263.5" y="-275.5" font-family="Helvetica,sans-Serif" font-size="10.00">+ Level</text>
<text text-anchor="start" x="263.5" y="-264.5" font-family="Helvetica,sans-Serif" font-size="10.00">+ Health</text>
<text text-anchor="start" x="263.5" y="-253.5" font-family="Helvetica,sans-Serif" font-size="10.00">+ Attack</text>
<text text-anchor="start" x="263.5" y="-242.5" font-family="Helvetica,sans-Serif" font-size="10.00">+ Defence</text>
<text text-anchor="start" x="263.5" y="-231.5" font-family="Helvetica,sans-Serif" font-size="10.00">+ MaximumMagic</text>
<text text-anchor="start" x="263.5" y="-220.5" font-family="Helvetica,sans-Serif" font-size="10.00">+ Magic</text>
<text text-anchor="start" x="263.5" y="-209.5" font-family="Helvetica,sans-Serif" font-size="10.00">+ Luck</text>
<text text-anchor="start" x="263.5" y="-198.5" font-family="Helvetica,sans-Serif" font-size="10.00">+ Speed</text>
<text text-anchor="start" x="263.5" y="-187.5" font-family="Helvetica,sans-Serif" font-size="10.00">+ Special1</text>
<text text-anchor="start" x="263.5" y="-176.5" font-family="Helvetica,sans-Serif" font-size="10.00">+ Special2</text>
<polyline fill="none" stroke="black" points="255.5,-169.5 350.5,-169.5 "/>
<text text-anchor="start" x="263.5" y="-157.5" font-family="Helvetica,sans-Serif" font-size="10.00"># Character()</text>
</a>
</g>
</g>
<!-- Node2&#45;&gt;Node4 -->
<g id="edge4" class="edge"><title>Node2&#45;&gt;Node4</title>
<path fill="none" stroke="#404040" d="M495.193,-977.146C497.138,-971.243 498.889,-964.986 500,-959 523.64,-831.616 564.674,-490.473 504,-376 473.969,-319.341 409.821,-280.581 362.025,-258.25"/>
<polygon fill="none" stroke="#404040" points="361.801,-258.148 354.685,-259.315 350.871,-253.195 357.987,-252.028 361.801,-258.148"/>
<text text-anchor="middle" x="552.5" y="-566.5" font-family="Helvetica,sans-Serif" font-size="10.00"> #name</text>
</g>
<!-- Node6 -->
<g id="node6" class="node"><title>Node6</title>
<g id="a_node6"><a xlink:href="class_special_move.html" target="_top" xlink:title="Special move abstract base class that expands upon CharacterMove, adding magic properties ...">
<polygon fill="none" stroke="black" points="329,-376.5 329,-466.5 427,-466.5 427,-376.5 329,-376.5"/>
<text text-anchor="middle" x="378" y="-454.5" font-family="Helvetica,sans-Serif" font-size="10.00">SpecialMove</text>
<polyline fill="none" stroke="black" points="329,-447.5 427,-447.5 "/>
<text text-anchor="start" x="337" y="-435.5" font-family="Helvetica,sans-Serif" font-size="10.00">+ Magic</text>
<text text-anchor="start" x="337" y="-424.5" font-family="Helvetica,sans-Serif" font-size="10.00">+ Desc</text>
<polyline fill="none" stroke="black" points="329,-417.5 427,-417.5 "/>
<text text-anchor="start" x="337" y="-405.5" font-family="Helvetica,sans-Serif" font-size="10.00">+ setUp()</text>
<text text-anchor="start" x="337" y="-394.5" font-family="Helvetica,sans-Serif" font-size="10.00">+ decreaseMagic()</text>
<text text-anchor="start" x="337" y="-383.5" font-family="Helvetica,sans-Serif" font-size="10.00"># SpecialMove()</text>
</a>
</g>
</g>
<!-- Node2&#45;&gt;Node6 -->
<g id="edge11" class="edge"><title>Node2&#45;&gt;Node6</title>
<path fill="none" stroke="#404040" d="M484.957,-977.409C486.533,-914.948 487.165,-758.261 460,-631 449.643,-582.48 443.145,-571.176 425,-525 418.924,-509.537 411.711,-493.061 404.783,-477.944"/>
<polygon fill="none" stroke="#404040" points="404.611,-477.575 398.459,-473.814 399.564,-466.688 405.716,-470.449 404.611,-477.575"/>
<text text-anchor="middle" x="489" y="-668.5" font-family="Helvetica,sans-Serif" font-size="10.00"> #desc</text>
</g>
<!-- Node2&#45;&gt;Node7 -->
<g id="edge8" class="edge"><title>Node2&#45;&gt;Node7</title>
<path fill="none" stroke="#404040" d="M468.826,-977.132C460.518,-960.676 450.768,-939.176 445,-919 409.51,-794.864 447.594,-753.562 407,-631 405.761,-627.259 404.289,-623.486 402.662,-619.747"/>
<polygon fill="none" stroke="#404040" points="402.563,-619.538 396.37,-615.843 397.399,-608.706 403.592,-612.401 402.563,-619.538"/>
<text text-anchor="middle" x="457.5" y="-821.5" font-family="Helvetica,sans-Serif" font-size="10.00"> #text</text>
</g>
<!-- Node10 -->
<g id="node10" class="node"><title>Node10</title>
<g id="a_node10"><a xlink:href="class_item.html" target="_top" xlink:title="{Item\n|+ Name\l+ Desc\l|+ applyBuffs()\l+ revertBuffs()\l}">
<polygon fill="none" stroke="black" points="548.5,-631.5 548.5,-710.5 625.5,-710.5 625.5,-631.5 548.5,-631.5"/>
<text text-anchor="middle" x="587" y="-698.5" font-family="Helvetica,sans-Serif" font-size="10.00">Item</text>
<polyline fill="none" stroke="black" points="548.5,-691.5 625.5,-691.5 "/>
<text text-anchor="start" x="556.5" y="-679.5" font-family="Helvetica,sans-Serif" font-size="10.00">+ Name</text>
<text text-anchor="start" x="556.5" y="-668.5" font-family="Helvetica,sans-Serif" font-size="10.00">+ Desc</text>
<polyline fill="none" stroke="black" points="548.5,-661.5 625.5,-661.5 "/>
<text text-anchor="start" x="556.5" y="-649.5" font-family="Helvetica,sans-Serif" font-size="10.00">+ applyBuffs()</text>
<text text-anchor="start" x="556.5" y="-638.5" font-family="Helvetica,sans-Serif" font-size="10.00">+ revertBuffs()</text>
</a>
</g>
</g>
<!-- Node2&#45;&gt;Node10 -->
<g id="edge19" class="edge"><title>Node2&#45;&gt;Node10</title>
<path fill="none" stroke="#404040" d="M504.628,-994.635C518.084,-986.752 534.801,-974.604 544,-959 587.358,-885.458 592.158,-783.532 590.447,-723.017"/>
<polygon fill="none" stroke="#404040" points="590.437,-722.749 586.218,-716.901 589.994,-710.757 594.213,-716.606 590.437,-722.749"/>
<text text-anchor="middle" x="570" y="-951" font-family="Helvetica,sans-Serif" font-size="10.00"> #desc</text>
<text text-anchor="middle" x="570" y="-940" font-family="Helvetica,sans-Serif" font-size="10.00">#name</text>
</g>
<!-- Node3 -->
<g id="node3" class="node"><title>Node3</title>
<g id="a_node3"><a xlink:href="class_enemy.html" target="_top" xlink:title="Defines an AI controller enemy to fight in battle scenes">
<polygon fill="none" stroke="black" points="100.5,-28 100.5,-85 167.5,-85 167.5,-28 100.5,-28"/>
<text text-anchor="middle" x="134" y="-73" font-family="Helvetica,sans-Serif" font-size="10.00">Enemy</text>
<polyline fill="none" stroke="black" points="100.5,-66 167.5,-66 "/>
<text text-anchor="start" x="108.5" y="-54" font-family="Helvetica,sans-Serif" font-size="10.00">+ ExpGiven</text>
<polyline fill="none" stroke="black" points="100.5,-47 167.5,-47 "/>
<text text-anchor="start" x="108.5" y="-35" font-family="Helvetica,sans-Serif" font-size="10.00">+ Enemy()</text>
</a>
</g>
</g>
<!-- Node3&#45;&gt;Node1 -->
<g id="edge2" class="edge"><title>Node3&#45;&gt;Node1</title>
<path fill="none" stroke="#404040" d="M140.315,-85.282C163.315,-186.469 243.381,-538.713 283.988,-717.362"/>
<polygon fill="none" stroke="#404040" points="284.004,-717.433 289.235,-722.397 286.664,-729.135 281.434,-724.171 284.004,-717.433"/>
<text text-anchor="middle" x="245" y="-419" font-family="Helvetica,sans-Serif" font-size="10.00"> &#45;enemy</text>
</g>
<!-- Node4&#45;&gt;Node3 -->
<g id="edge3" class="edge"><title>Node4&#45;&gt;Node3</title>
<path fill="none" stroke="midnightblue" d="M248.524,-176.429C219.142,-145.916 184.192,-109.623 160.695,-85.2222"/>
<polygon fill="none" stroke="midnightblue" points="246.017,-178.871 255.474,-183.646 251.059,-174.015 246.017,-178.871"/>
</g>
<!-- Node4&#45;&gt;Node7 -->
<g id="edge9" class="edge"><title>Node4&#45;&gt;Node7</title>
<path fill="none" stroke="#404040" d="M280.447,-317.628C272.084,-363.027 268.392,-419.58 286,-467 293.542,-487.313 307.204,-506.277 321.501,-522.162"/>
<polygon fill="none" stroke="#404040" points="321.729,-522.405 328.754,-524.035 329.951,-531.146 322.926,-529.516 321.729,-522.405"/>
<text text-anchor="middle" x="303" y="-424.5" font-family="Helvetica,sans-Serif" font-size="10.00"> #target</text>
<text text-anchor="middle" x="303" y="-413.5" font-family="Helvetica,sans-Serif" font-size="10.00">#user</text>
</g>
<!-- Node9 -->
<g id="node9" class="node"><title>Node9</title>
<g id="a_node9"><a xlink:href="class_player.html" target="_top" xlink:title="Defines a playable character for use in battle scenes">
<polygon fill="none" stroke="black" points="360,-0.5 360,-112.5 472,-112.5 472,-0.5 360,-0.5"/>
<text text-anchor="middle" x="416" y="-100.5" font-family="Helvetica,sans-Serif" font-size="10.00">Player</text>
<polyline fill="none" stroke="black" points="360,-93.5 472,-93.5 "/>
<text text-anchor="start" x="368" y="-81.5" font-family="Helvetica,sans-Serif" font-size="10.00">+ Exp</text>
<text text-anchor="start" x="368" y="-70.5" font-family="Helvetica,sans-Serif" font-size="10.00">+ Item</text>
<text text-anchor="start" x="368" y="-59.5" font-family="Helvetica,sans-Serif" font-size="10.00">+ ExpToNextLevel</text>
<polyline fill="none" stroke="black" points="360,-52.5 472,-52.5 "/>
<text text-anchor="start" x="368" y="-40.5" font-family="Helvetica,sans-Serif" font-size="10.00">+ Player()</text>
<text text-anchor="start" x="368" y="-29.5" font-family="Helvetica,sans-Serif" font-size="10.00">+ gainExp()</text>
<text text-anchor="start" x="368" y="-18.5" font-family="Helvetica,sans-Serif" font-size="10.00">+ levelUp()</text>
<text text-anchor="start" x="368" y="-7.5" font-family="Helvetica,sans-Serif" font-size="10.00">&#45; setExpToNextLevel()</text>
</a>
</g>
</g>
<!-- Node4&#45;&gt;Node9 -->
<g id="edge17" class="edge"><title>Node4&#45;&gt;Node9</title>
<path fill="none" stroke="midnightblue" d="M356.022,-150.652C364.313,-137.774 372.705,-124.741 380.48,-112.666"/>
<polygon fill="none" stroke="midnightblue" points="353.066,-148.778 350.595,-159.081 358.951,-152.568 353.066,-148.778"/>
</g>
<!-- Node5 -->
<g id="node5" class="node"><title>Node5</title>
<polygon fill="none" stroke="#bfbfbf" points="142.5,-977.5 142.5,-1034.5 171.5,-1034.5 171.5,-977.5 142.5,-977.5"/>
<text text-anchor="middle" x="157" y="-1022.5" font-family="Helvetica,sans-Serif" font-size="10.00">int</text>
<polyline fill="none" stroke="#bfbfbf" points="142.5,-1015.5 171.5,-1015.5 "/>
<text text-anchor="middle" x="157" y="-1003.5" font-family="Helvetica,sans-Serif" font-size="10.00"> </text>
<polyline fill="none" stroke="#bfbfbf" points="142.5,-996.5 171.5,-996.5 "/>
<text text-anchor="middle" x="157" y="-984.5" font-family="Helvetica,sans-Serif" font-size="10.00"> </text>
</g>
<!-- Node5&#45;&gt;Node1 -->
<g id="edge14" class="edge"><title>Node5&#45;&gt;Node1</title>
<path fill="none" stroke="#404040" d="M171.753,-987.413C188.163,-967.852 215.812,-934.893 241.931,-903.758"/>
<polygon fill="none" stroke="#404040" points="242.261,-903.364 243.053,-896.196 249.974,-894.17 249.182,-901.338 242.261,-903.364"/>
<text text-anchor="middle" x="230.5" y="-945.5" font-family="Helvetica,sans-Serif" font-size="10.00"> +money</text>
</g>
<!-- Node5&#45;&gt;Node3 -->
<g id="edge13" class="edge"><title>Node5&#45;&gt;Node3</title>
<path fill="none" stroke="#404040" d="M142.157,-1001.98C120.306,-996.81 79.4338,-984.284 55,-959 10.2634,-912.707 0,-889.377 0,-825 0,-825 0,-825 0,-233 0,-172.215 51.4074,-119.401 90.5403,-88.002"/>
<polygon fill="none" stroke="#404040" points="90.719,-87.8628 92.9946,-81.0202 100.186,-80.4889 97.9106,-87.3316 90.719,-87.8628"/>
<text text-anchor="middle" x="23" y="-493.5" font-family="Helvetica,sans-Serif" font-size="10.00"> &#45;expGiven</text>
</g>
<!-- Node5&#45;&gt;Node4 -->
<g id="edge5" class="edge"><title>Node5&#45;&gt;Node4</title>
<path fill="none" stroke="#404040" d="M155.652,-977.409C150.826,-870.897 137.04,-486.945 183,-376 197.134,-341.881 222.751,-309.987 246.698,-285.193"/>
<polygon fill="none" stroke="#404040" points="246.975,-284.914 248.356,-277.836 255.42,-276.389 254.039,-283.467 246.975,-284.914"/>
<text text-anchor="middle" x="194.5" y="-605" font-family="Helvetica,sans-Serif" font-size="10.00"> #speed</text>
<text text-anchor="middle" x="194.5" y="-594" font-family="Helvetica,sans-Serif" font-size="10.00">#luck</text>
<text text-anchor="middle" x="194.5" y="-583" font-family="Helvetica,sans-Serif" font-size="10.00">#health</text>
<text text-anchor="middle" x="194.5" y="-572" font-family="Helvetica,sans-Serif" font-size="10.00">#magic</text>
<text text-anchor="middle" x="194.5" y="-561" font-family="Helvetica,sans-Serif" font-size="10.00">#maximumMagic</text>
<text text-anchor="middle" x="194.5" y="-550" font-family="Helvetica,sans-Serif" font-size="10.00">#attack</text>
<text text-anchor="middle" x="194.5" y="-539" font-family="Helvetica,sans-Serif" font-size="10.00">#defence</text>
<text text-anchor="middle" x="194.5" y="-528" font-family="Helvetica,sans-Serif" font-size="10.00">#level</text>
</g>
<!-- Node5&#45;&gt;Node6 -->
<g id="edge12" class="edge"><title>Node5&#45;&gt;Node6</title>
<path fill="none" stroke="#404040" d="M164.108,-977.369C183.867,-902.466 243.159,-690.079 321,-525 328.407,-509.291 337.207,-492.671 345.648,-477.491"/>
<polygon fill="none" stroke="#404040" points="345.821,-477.184 345.277,-469.993 351.706,-466.726 352.249,-473.917 345.821,-477.184"/>
<text text-anchor="middle" x="292.5" y="-668.5" font-family="Helvetica,sans-Serif" font-size="10.00"> #magic</text>
</g>
<!-- Node5&#45;&gt;Node9 -->
<g id="edge20" class="edge"><title>Node5&#45;&gt;Node9</title>
<path fill="none" stroke="#404040" d="M145.66,-977.353C115.165,-899.234 36.5626,-670.492 80,-485 117.887,-323.211 130.772,-269.723 246,-150 274.47,-120.42 314.49,-98.004 348.55,-82.6524"/>
<polygon fill="none" stroke="#404040" points="348.85,-82.5212 352.747,-76.4535 359.846,-77.7168 355.95,-83.7844 348.85,-82.5212"/>
<text text-anchor="middle" x="117.5" y="-499" font-family="Helvetica,sans-Serif" font-size="10.00"> &#45;expToNextLevel</text>
<text text-anchor="middle" x="117.5" y="-488" font-family="Helvetica,sans-Serif" font-size="10.00">&#45;exp</text>
</g>
<!-- Node6&#45;&gt;Node4 -->
<g id="edge6" class="edge"><title>Node6&#45;&gt;Node4</title>
<path fill="none" stroke="#404040" d="M360.036,-376.068C354.261,-361.786 347.629,-345.383 340.977,-328.93"/>
<polygon fill="none" stroke="#404040" points="340.877,-328.682 334.92,-324.619 336.379,-317.557 342.336,-321.62 340.877,-328.682"/>
<text text-anchor="middle" x="374.5" y="-350" font-family="Helvetica,sans-Serif" font-size="10.00"> #special1</text>
<text text-anchor="middle" x="374.5" y="-339" font-family="Helvetica,sans-Serif" font-size="10.00">#special2</text>
</g>
<!-- Node7&#45;&gt;Node6 -->
<g id="edge7" class="edge"><title>Node7&#45;&gt;Node6</title>
<path fill="none" stroke="midnightblue" d="M374.68,-519.121C375.262,-502.163 375.912,-483.258 376.481,-466.699"/>
<polygon fill="none" stroke="midnightblue" points="371.172,-519.276 374.327,-529.391 378.168,-519.517 371.172,-519.276"/>
</g>
<!-- Node8 -->
<g id="node8" class="node"><title>Node8</title>
<polygon fill="none" stroke="#bfbfbf" points="259.5,-977.5 259.5,-1034.5 294.5,-1034.5 294.5,-977.5 259.5,-977.5"/>
<text text-anchor="middle" x="277" y="-1022.5" font-family="Helvetica,sans-Serif" font-size="10.00">bool</text>
<polyline fill="none" stroke="#bfbfbf" points="259.5,-1015.5 294.5,-1015.5 "/>
<text text-anchor="middle" x="277" y="-1003.5" font-family="Helvetica,sans-Serif" font-size="10.00"> </text>
<polyline fill="none" stroke="#bfbfbf" points="259.5,-996.5 294.5,-996.5 "/>
<text text-anchor="middle" x="277" y="-984.5" font-family="Helvetica,sans-Serif" font-size="10.00"> </text>
</g>
<!-- Node8&#45;&gt;Node1 -->
<g id="edge15" class="edge"><title>Node8&#45;&gt;Node1</title>
<path fill="none" stroke="#404040" d="M275.867,-977.421C275.752,-965.012 276.162,-950.214 278,-937 278.286,-934.944 278.598,-932.872 278.932,-930.788"/>
<polygon fill="none" stroke="#404040" points="278.971,-930.574 276.09,-923.963 281.085,-918.761 283.965,-925.372 278.971,-930.574"/>
<text text-anchor="middle" x="311" y="-945.5" font-family="Helvetica,sans-Serif" font-size="10.00"> &#45;wasCriticalHit</text>
</g>
<!-- Node9&#45;&gt;Node1 -->
<g id="edge16" class="edge"><title>Node9&#45;&gt;Node1</title>
<path fill="none" stroke="#404040" d="M430.217,-112.674C457.337,-229.838 505.534,-509.249 408,-711 399.45,-728.686 387.268,-745.665 374.334,-760.82"/>
<polygon fill="none" stroke="#404040" points="374.157,-761.02 373.18,-768.165 366.209,-770.011 367.186,-762.866 374.157,-761.02"/>
<text text-anchor="middle" x="483.5" y="-419" font-family="Helvetica,sans-Serif" font-size="10.00"> &#45;player</text>
</g>
<!-- Node10&#45;&gt;Node9 -->
<g id="edge18" class="edge"><title>Node10&#45;&gt;Node9</title>
<path fill="none" stroke="#404040" d="M588.41,-631.185C589.562,-596.127 591,-543.116 591,-497 591,-497 591,-497 591,-233 591,-169.129 532.161,-120.321 482.718,-90.5834"/>
<polygon fill="none" stroke="#404040" points="482.701,-90.5735 475.503,-91.0064 472.334,-84.5285 479.532,-84.0956 482.701,-90.5735"/>
<text text-anchor="middle" x="603.5" y="-419" font-family="Helvetica,sans-Serif" font-size="10.00"> &#45;item</text>
</g>
</g>
</svg>
        <g id="navigator" transform="translate(0 0)" fill="#404254">
                <rect fill="#f2f5e9" fill-opacity="0.5" stroke="#606060" stroke-width=".5" x="0" y="0" width="60" height="60"/>
                <use id="zoomplus" xlink:href="#zoomPlus" x="17" y="9" onmousedown="handleZoom(evt,'in')"/>
                <use id="zoomminus" xlink:href="#zoomMin" x="42" y="9" onmousedown="handleZoom(evt,'out')"/>
                <use id="reset" xlink:href="#resetDef" x="30" y="36" onmousedown="handleReset()"/>
                <g id="arrowUp" xlink:href="#dirArrow" transform="translate(30 24)" onmousedown="handlePan(0,-1)">
                  <use xlink:href="#rim" fill="#404040">
                        <set attributeName="fill" to="#808080" begin="arrowUp.mouseover" end="arrowUp.mouseout"/>
                  </use>
                  <path fill="none" stroke="white" stroke-width="1.5" d="M0,-3.0v7 M-2.5,-0.5L0,-3.0L2.5,-0.5"/>
                </g>
                <g id="arrowRight" xlink:href="#dirArrow" transform="rotate(90) translate(36 -43)" onmousedown="handlePan(1,0)">
                  <use xlink:href="#rim" fill="#404040">
                        <set attributeName="fill" to="#808080" begin="arrowRight.mouseover" end="arrowRight.mouseout"/>
                  </use>
                  <path fill="none" stroke="white" stroke-width="1.5" d="M0,-3.0v7 M-2.5,-0.5L0,-3.0L2.5,-0.5"/>
                </g>
                <g id="arrowDown" xlink:href="#dirArrow" transform="rotate(180) translate(-30 -48)" onmousedown="handlePan(0,1)">
                  <use xlink:href="#rim" fill="#404040">
                        <set attributeName="fill" to="#808080" begin="arrowDown.mouseover" end="arrowDown.mouseout"/>
                  </use>
                  <path fill="none" stroke="white" stroke-width="1.5" d="M0,-3.0v7 M-2.5,-0.5L0,-3.0L2.5,-0.5"/>
                </g>
                <g id="arrowLeft" xlink:href="#dirArrow" transform="rotate(270) translate(-36 17)" onmousedown="handlePan(-1,0)">
                  <use xlink:href="#rim" fill="#404040">
                        <set attributeName="fill" to="#808080" begin="arrowLeft.mouseover" end="arrowLeft.mouseout"/>
                  </use>
                  <path fill="none" stroke="white" stroke-width="1.5" d="M0,-3.0v7 M-2.5,-0.5L0,-3.0L2.5,-0.5"/>
                </g>
        </g>
        <svg viewBox="0 0 15 15" width="100%" height="30px" preserveAspectRatio="xMaxYMin meet">
         <g id="arrow_out" transform="scale(0.3 0.3)">
          <a xlink:href="class_battle_manager__coll__graph_org.svg" target="_base">
           <rect id="button" ry="5" rx="5" y="6" x="6" height="38" width="38"
                fill="#f2f5e9" fill-opacity="0.5" stroke="#606060" stroke-width="1.0"/>
           <path id="arrow"
             d="M 11.500037,31.436501 C 11.940474,20.09759 22.043105,11.32322 32.158766,21.979434 L 37.068811,17.246167 C 37.068811,17.246167 37.088388,32 37.088388,32 L 22.160133,31.978069 C 22.160133,31.978069 26.997745,27.140456 26.997745,27.140456 C 18.528582,18.264221 13.291696,25.230495 11.500037,31.436501 z"
             style="fill:#404040;"/>
          </a>
         </g>
        </svg>
</svg>
