<?xml version="1.0" encoding="UTF-8" standalone="no"?>
<!DOCTYPE svg PUBLIC "-//W3C//DTD SVG 1.1//EN"
 "http://www.w3.org/Graphics/SVG/1.1/DTD/svg11.dtd">
<!-- Generated by graphviz version 2.38.0 (20140413.2041)
 -->
<!-- Title: DataManager Pages: 1 -->
<!--zoomable 1276 -->
<svg id="main" version="1.1" xmlns="http://www.w3.org/2000/svg" xmlns:xlink="http://www.w3.org/1999/xlink" xml:space="preserve" onload="init(evt)">
<style type="text/css"><![CDATA[
.edge:hover path { stroke: red; }
.edge:hover polygon { stroke: red; fill: red; }
]]></style>
<script type="text/javascript"><![CDATA[
var edges = document.getElementsByTagName('g');
if (edges && edges.length) {
  for (var i=0;i<edges.length;i++) {
    if (edges[i].id.substr(0,4)=='edge') {
      edges[i].setAttribute('class','edge');
    }
  }
}
]]></script>
        <defs>
                <circle id="rim" cx="0" cy="0" r="7"/>
                <circle id="rim2" cx="0" cy="0" r="3.5"/>
                <g id="zoomPlus">
                        <use xlink:href="#rim" fill="#404040">
                                <set attributeName="fill" to="#808080" begin="zoomplus.mouseover" end="zoomplus.mouseout"/>
                        </use>
                        <path d="M-4,0h8M0,-4v8" fill="none" stroke="white" stroke-width="1.5" pointer-events="none"/>
                </g>
                <g id="zoomMin">
                        <use xlink:href="#rim" fill="#404040">
                                <set attributeName="fill" to="#808080" begin="zoomminus.mouseover" end="zoomminus.mouseout"/>
                        </use>
                        <path d="M-4,0h8" fill="none" stroke="white" stroke-width="1.5" pointer-events="none"/>
                </g>
                <g id="dirArrow">
                        <path fill="none" stroke="white" stroke-width="1.5" d="M0,-3.0v7 M-2.5,-0.5L0,-3.0L2.5,-0.5"/>
                </g>
               <g id="resetDef">
                       <use xlink:href="#rim2" fill="#404040">
                               <set attributeName="fill" to="#808080" begin="reset.mouseover" end="reset.mouseout"/>
                       </use>
               </g>
        </defs>

<script type="text/javascript">
var viewWidth = 698;
var viewHeight = 1276;
var sectionId = 'dynsection-0';
</script>
<script xlink:href="svgpan.js"/>
<svg id="graph" class="graph">
<g id="viewport">
<title>DataManager</title>
<!-- Node1 -->
<g id="node1" class="node"><title>Node1</title>
<polygon fill="#bfbfbf" stroke="black" points="212,-686.5 212,-831.5 304,-831.5 304,-686.5 212,-686.5"/>
<text text-anchor="middle" x="258" y="-819.5" font-family="Helvetica,sans-Serif" font-size="10.00">DataManager</text>
<polyline fill="none" stroke="black" points="212,-812.5 304,-812.5 "/>
<text text-anchor="start" x="220" y="-800.5" font-family="Helvetica,sans-Serif" font-size="10.00">+ Players</text>
<text text-anchor="start" x="220" y="-789.5" font-family="Helvetica,sans-Serif" font-size="10.00">+ Items</text>
<text text-anchor="start" x="220" y="-778.5" font-family="Helvetica,sans-Serif" font-size="10.00">+ Money</text>
<polyline fill="none" stroke="black" points="212,-771.5 304,-771.5 "/>
<text text-anchor="start" x="220" y="-759.5" font-family="Helvetica,sans-Serif" font-size="10.00">+ DataManager()</text>
<text text-anchor="start" x="220" y="-748.5" font-family="Helvetica,sans-Serif" font-size="10.00">+ getFirstPlayer()</text>
<text text-anchor="start" x="220" y="-737.5" font-family="Helvetica,sans-Serif" font-size="10.00">+ playersAlive()</text>
<text text-anchor="start" x="220" y="-726.5" font-family="Helvetica,sans-Serif" font-size="10.00">+ addPlayer()</text>
<text text-anchor="start" x="220" y="-715.5" font-family="Helvetica,sans-Serif" font-size="10.00">+ swapPlayers()</text>
<text text-anchor="start" x="220" y="-704.5" font-family="Helvetica,sans-Serif" font-size="10.00">+ addItem()</text>
<text text-anchor="start" x="220" y="-693.5" font-family="Helvetica,sans-Serif" font-size="10.00">+ countItems()</text>
</g>
<!-- Node2 -->
<g id="node2" class="node"><title>Node2</title>
<g id="a_node2"><a xlink:href="class_item.html" target="_top" xlink:title="Abstract class for items that can be equipped to a player, increasing some of their stats ...">
<polygon fill="none" stroke="black" points="247.5,-1072.5 247.5,-1151.5 324.5,-1151.5 324.5,-1072.5 247.5,-1072.5"/>
<text text-anchor="middle" x="286" y="-1139.5" font-family="Helvetica,sans-Serif" font-size="10.00">Item</text>
<polyline fill="none" stroke="black" points="247.5,-1132.5 324.5,-1132.5 "/>
<text text-anchor="start" x="255.5" y="-1120.5" font-family="Helvetica,sans-Serif" font-size="10.00">+ Name</text>
<text text-anchor="start" x="255.5" y="-1109.5" font-family="Helvetica,sans-Serif" font-size="10.00">+ Desc</text>
<polyline fill="none" stroke="black" points="247.5,-1102.5 324.5,-1102.5 "/>
<text text-anchor="start" x="255.5" y="-1090.5" font-family="Helvetica,sans-Serif" font-size="10.00">+ applyBuffs()</text>
<text text-anchor="start" x="255.5" y="-1079.5" font-family="Helvetica,sans-Serif" font-size="10.00">+ revertBuffs()</text>
</a>
</g>
</g>
<!-- Node2&#45;&gt;Node1 -->
<g id="edge1" class="edge"><title>Node2&#45;&gt;Node1</title>
<path fill="none" stroke="#404040" d="M282.923,-1072.43C278.566,-1017.8 270.483,-916.485 264.703,-844.032"/>
<polygon fill="none" stroke="#404040" points="264.679,-843.724 260.214,-838.061 263.725,-831.762 268.189,-837.425 264.679,-843.724"/>
<text text-anchor="middle" x="293.5" y="-955" font-family="Helvetica,sans-Serif" font-size="10.00"> &#45;items</text>
</g>
<!-- Node5 -->
<g id="node5" class="node"><title>Node5</title>
<g id="a_node5"><a xlink:href="class_player.html" target="_top" xlink:title="Defines a playable character for use in battle scenes">
<polygon fill="none" stroke="black" points="138,-901.5 138,-1013.5 250,-1013.5 250,-901.5 138,-901.5"/>
<text text-anchor="middle" x="194" y="-1001.5" font-family="Helvetica,sans-Serif" font-size="10.00">Player</text>
<polyline fill="none" stroke="black" points="138,-994.5 250,-994.5 "/>
<text text-anchor="start" x="146" y="-982.5" font-family="Helvetica,sans-Serif" font-size="10.00">+ Exp</text>
<text text-anchor="start" x="146" y="-971.5" font-family="Helvetica,sans-Serif" font-size="10.00">+ Item</text>
<text text-anchor="start" x="146" y="-960.5" font-family="Helvetica,sans-Serif" font-size="10.00">+ ExpToNextLevel</text>
<polyline fill="none" stroke="black" points="138,-953.5 250,-953.5 "/>
<text text-anchor="start" x="146" y="-941.5" font-family="Helvetica,sans-Serif" font-size="10.00">+ Player()</text>
<text text-anchor="start" x="146" y="-930.5" font-family="Helvetica,sans-Serif" font-size="10.00">+ gainExp()</text>
<text text-anchor="start" x="146" y="-919.5" font-family="Helvetica,sans-Serif" font-size="10.00">+ levelUp()</text>
<text text-anchor="start" x="146" y="-908.5" font-family="Helvetica,sans-Serif" font-size="10.00">&#45; setExpToNextLevel()</text>
</a>
</g>
</g>
<!-- Node2&#45;&gt;Node5 -->
<g id="edge23" class="edge"><title>Node2&#45;&gt;Node5</title>
<path fill="none" stroke="#404040" d="M258.865,-1072.38C254.794,-1066.29 250.718,-1060.02 247,-1054 241.083,-1044.42 235.06,-1034.15 229.298,-1024.02"/>
<polygon fill="none" stroke="#404040" points="229.291,-1024.01 222.861,-1020.74 223.403,-1013.55 229.832,-1016.82 229.291,-1024.01"/>
<text text-anchor="middle" x="259.5" y="-1040.5" font-family="Helvetica,sans-Serif" font-size="10.00"> &#45;item</text>
</g>
<!-- Node3 -->
<g id="node3" class="node"><title>Node3</title>
<polygon fill="none" stroke="#bfbfbf" points="552.5,-1210.5 552.5,-1267.5 593.5,-1267.5 593.5,-1210.5 552.5,-1210.5"/>
<text text-anchor="middle" x="573" y="-1255.5" font-family="Helvetica,sans-Serif" font-size="10.00">string</text>
<polyline fill="none" stroke="#bfbfbf" points="552.5,-1248.5 593.5,-1248.5 "/>
<text text-anchor="middle" x="573" y="-1236.5" font-family="Helvetica,sans-Serif" font-size="10.00"> </text>
<polyline fill="none" stroke="#bfbfbf" points="552.5,-1229.5 593.5,-1229.5 "/>
<text text-anchor="middle" x="573" y="-1217.5" font-family="Helvetica,sans-Serif" font-size="10.00"> </text>
</g>
<!-- Node3&#45;&gt;Node2 -->
<g id="edge2" class="edge"><title>Node3&#45;&gt;Node2</title>
<path fill="none" stroke="#404040" d="M552.185,-1232.65C523.939,-1225.09 472.159,-1210.15 430,-1192 397.398,-1177.97 362.455,-1158.9 335.156,-1143.02"/>
<polygon fill="none" stroke="#404040" points="335.057,-1142.96 327.858,-1143.37 324.712,-1136.88 331.911,-1136.47 335.057,-1142.96"/>
<text text-anchor="middle" x="445" y="-1184" font-family="Helvetica,sans-Serif" font-size="10.00"> #desc</text>
<text text-anchor="middle" x="445" y="-1173" font-family="Helvetica,sans-Serif" font-size="10.00">#name</text>
</g>
<!-- Node6 -->
<g id="node6" class="node"><title>Node6</title>
<g id="a_node6"><a xlink:href="class_character.html" target="_top" xlink:title="Base abstract class for Enemy and Player to inherit from. Defines all shared variables, their constructor and their setters and getters ">
<polygon fill="none" stroke="black" points="339.5,-95.5 339.5,-273.5 434.5,-273.5 434.5,-95.5 339.5,-95.5"/>
<text text-anchor="middle" x="387" y="-261.5" font-family="Helvetica,sans-Serif" font-size="10.00">Character</text>
<polyline fill="none" stroke="black" points="339.5,-254.5 434.5,-254.5 "/>
<text text-anchor="start" x="347.5" y="-242.5" font-family="Helvetica,sans-Serif" font-size="10.00">+ Name</text>
<text text-anchor="start" x="347.5" y="-231.5" font-family="Helvetica,sans-Serif" font-size="10.00">+ Level</text>
<text text-anchor="start" x="347.5" y="-220.5" font-family="Helvetica,sans-Serif" font-size="10.00">+ Health</text>
<text text-anchor="start" x="347.5" y="-209.5" font-family="Helvetica,sans-Serif" font-size="10.00">+ Attack</text>
<text text-anchor="start" x="347.5" y="-198.5" font-family="Helvetica,sans-Serif" font-size="10.00">+ Defence</text>
<text text-anchor="start" x="347.5" y="-187.5" font-family="Helvetica,sans-Serif" font-size="10.00">+ MaximumMagic</text>
<text text-anchor="start" x="347.5" y="-176.5" font-family="Helvetica,sans-Serif" font-size="10.00">+ Magic</text>
<text text-anchor="start" x="347.5" y="-165.5" font-family="Helvetica,sans-Serif" font-size="10.00">+ Luck</text>
<text text-anchor="start" x="347.5" y="-154.5" font-family="Helvetica,sans-Serif" font-size="10.00">+ Speed</text>
<text text-anchor="start" x="347.5" y="-143.5" font-family="Helvetica,sans-Serif" font-size="10.00">+ Special1</text>
<text text-anchor="start" x="347.5" y="-132.5" font-family="Helvetica,sans-Serif" font-size="10.00">+ Special2</text>
<text text-anchor="start" x="347.5" y="-121.5" font-family="Helvetica,sans-Serif" font-size="10.00">+ Image</text>
<polyline fill="none" stroke="black" points="339.5,-114.5 434.5,-114.5 "/>
<text text-anchor="start" x="347.5" y="-102.5" font-family="Helvetica,sans-Serif" font-size="10.00"># Character()</text>
</a>
</g>
</g>
<!-- Node3&#45;&gt;Node6 -->
<g id="edge6" class="edge"><title>Node3&#45;&gt;Node6</title>
<path fill="none" stroke="#404040" d="M593.764,-1221.37C618.639,-1199.42 657,-1158.23 657,-1113 657,-1113 657,-1113 657,-376.5 657,-274.098 525.96,-221.676 446.46,-199.295"/>
<polygon fill="none" stroke="#404040" points="446.229,-199.232 439.389,-201.517 434.649,-196.083 441.488,-193.798 446.229,-199.232"/>
<text text-anchor="middle" x="673.5" y="-756.5" font-family="Helvetica,sans-Serif" font-size="10.00"> #name</text>
</g>
<!-- Node7 -->
<g id="node7" class="node"><title>Node7</title>
<g id="a_node7"><a xlink:href="class_special_move.html" target="_top" xlink:title="Special move abstract base class that expands upon CharacterMove, adding magic properties ...">
<polygon fill="none" stroke="black" points="439,-332.5 439,-422.5 537,-422.5 537,-332.5 439,-332.5"/>
<text text-anchor="middle" x="488" y="-410.5" font-family="Helvetica,sans-Serif" font-size="10.00">SpecialMove</text>
<polyline fill="none" stroke="black" points="439,-403.5 537,-403.5 "/>
<text text-anchor="start" x="447" y="-391.5" font-family="Helvetica,sans-Serif" font-size="10.00">+ Magic</text>
<text text-anchor="start" x="447" y="-380.5" font-family="Helvetica,sans-Serif" font-size="10.00">+ Desc</text>
<polyline fill="none" stroke="black" points="439,-373.5 537,-373.5 "/>
<text text-anchor="start" x="447" y="-361.5" font-family="Helvetica,sans-Serif" font-size="10.00">+ setUp()</text>
<text text-anchor="start" x="447" y="-350.5" font-family="Helvetica,sans-Serif" font-size="10.00">+ decreaseMagic()</text>
<text text-anchor="start" x="447" y="-339.5" font-family="Helvetica,sans-Serif" font-size="10.00"># SpecialMove()</text>
</a>
</g>
</g>
<!-- Node3&#45;&gt;Node7 -->
<g id="edge20" class="edge"><title>Node3&#45;&gt;Node7</title>
<path fill="none" stroke="#404040" d="M586.504,-1210.43C597.427,-1185.57 611,-1147.7 611,-1113 611,-1113 611,-1113 611,-499 611,-489.137 578.312,-457.419 546.638,-429.001"/>
<polygon fill="none" stroke="#404040" points="546.283,-428.685 539.142,-427.683 537.32,-420.706 544.461,-421.708 546.283,-428.685"/>
<text text-anchor="middle" x="626" y="-875" font-family="Helvetica,sans-Serif" font-size="10.00"> #desc</text>
</g>
<!-- Node8 -->
<g id="node8" class="node"><title>Node8</title>
<g id="a_node8"><a xlink:href="class_character_move.html" target="_top" xlink:title="Astract base class for character moves ">
<polygon fill="none" stroke="black" points="361,-460.5 361,-539.5 447,-539.5 447,-460.5 361,-460.5"/>
<text text-anchor="middle" x="404" y="-527.5" font-family="Helvetica,sans-Serif" font-size="10.00">CharacterMove</text>
<polyline fill="none" stroke="black" points="361,-520.5 447,-520.5 "/>
<text text-anchor="start" x="369" y="-508.5" font-family="Helvetica,sans-Serif" font-size="10.00">+ User</text>
<text text-anchor="start" x="369" y="-497.5" font-family="Helvetica,sans-Serif" font-size="10.00">+ Target</text>
<text text-anchor="start" x="369" y="-486.5" font-family="Helvetica,sans-Serif" font-size="10.00">+ Text</text>
<polyline fill="none" stroke="black" points="361,-479.5 447,-479.5 "/>
<text text-anchor="start" x="369" y="-467.5" font-family="Helvetica,sans-Serif" font-size="10.00">+ performMove()</text>
</a>
</g>
</g>
<!-- Node3&#45;&gt;Node8 -->
<g id="edge10" class="edge"><title>Node3&#45;&gt;Node8</title>
<path fill="none" stroke="#404040" d="M573.743,-1210.3C574.224,-1170.39 572.93,-1094.63 559,-1032 540.581,-949.176 511.297,-936.131 490,-854 456.663,-725.44 501.082,-680.174 449,-558 447.874,-555.358 446.591,-552.734 445.19,-550.148"/>
<polygon fill="none" stroke="#404040" points="445.103,-550.006 438.563,-546.968 438.851,-539.763 445.391,-542.8 445.103,-550.006"/>
<text text-anchor="middle" x="567.5" y="-955" font-family="Helvetica,sans-Serif" font-size="10.00"> #text</text>
</g>
<!-- Node9 -->
<g id="node9" class="node"><title>Node9</title>
<g id="a_node9"><a xlink:href="class_battle_manager.html" target="_top" xlink:title="Holds current Player and Enemy objects in battle and provides functions for MainBattle and other obje...">
<polygon fill="none" stroke="black" points="322,-664.5 322,-853.5 438,-853.5 438,-664.5 322,-664.5"/>
<text text-anchor="middle" x="380" y="-841.5" font-family="Helvetica,sans-Serif" font-size="10.00">BattleManager</text>
<polyline fill="none" stroke="black" points="322,-834.5 438,-834.5 "/>
<text text-anchor="start" x="330" y="-822.5" font-family="Helvetica,sans-Serif" font-size="10.00">+ Player</text>
<text text-anchor="start" x="330" y="-811.5" font-family="Helvetica,sans-Serif" font-size="10.00">+ Enemy</text>
<text text-anchor="start" x="330" y="-800.5" font-family="Helvetica,sans-Serif" font-size="10.00">+ WasCriticalHit</text>
<polyline fill="none" stroke="black" points="322,-793.5 438,-793.5 "/>
<text text-anchor="start" x="330" y="-781.5" font-family="Helvetica,sans-Serif" font-size="10.00">+ BattleManager()</text>
<text text-anchor="start" x="330" y="-770.5" font-family="Helvetica,sans-Serif" font-size="10.00">+ playerFirst()</text>
<text text-anchor="start" x="330" y="-759.5" font-family="Helvetica,sans-Serif" font-size="10.00">+ switchPlayers()</text>
<text text-anchor="start" x="330" y="-748.5" font-family="Helvetica,sans-Serif" font-size="10.00">+ isCriticalHit()</text>
<text text-anchor="start" x="330" y="-737.5" font-family="Helvetica,sans-Serif" font-size="10.00">+ ranAway()</text>
<text text-anchor="start" x="330" y="-726.5" font-family="Helvetica,sans-Serif" font-size="10.00">+ damageCalculation()</text>
<text text-anchor="start" x="330" y="-715.5" font-family="Helvetica,sans-Serif" font-size="10.00">+ enemyMove()</text>
<text text-anchor="start" x="330" y="-704.5" font-family="Helvetica,sans-Serif" font-size="10.00">+ enemySpecialMove()</text>
<text text-anchor="start" x="330" y="-693.5" font-family="Helvetica,sans-Serif" font-size="10.00">+ battleWon()</text>
<text text-anchor="start" x="330" y="-682.5" font-family="Helvetica,sans-Serif" font-size="10.00">+ playerFainted()</text>
<text text-anchor="start" x="330" y="-671.5" font-family="Helvetica,sans-Serif" font-size="10.00">&#45; characterFainted()</text>
</a>
</g>
</g>
<!-- Node3&#45;&gt;Node9 -->
<g id="edge13" class="edge"><title>Node3&#45;&gt;Node9</title>
<path fill="none" stroke="#404040" d="M553.534,-1210.25C530.313,-1175.53 492.449,-1113.38 475,-1054 452.117,-976.129 487.925,-948.208 460,-872 457.592,-865.429 452.099,-856.003 445.057,-845.371"/>
<polygon fill="none" stroke="#404040" points="444.961,-845.229 438.276,-842.526 438.2,-835.315 444.885,-838.019 444.961,-845.229"/>
<text text-anchor="middle" x="517" y="-1046" font-family="Helvetica,sans-Serif" font-size="10.00"> +forceEnemyMove</text>
<text text-anchor="middle" x="517" y="-1035" font-family="Helvetica,sans-Serif" font-size="10.00">+forceCriticalHits</text>
</g>
<!-- Node4 -->
<g id="node4" class="node"><title>Node4</title>
<polygon fill="none" stroke="#bfbfbf" points="86.5,-1083.5 86.5,-1140.5 115.5,-1140.5 115.5,-1083.5 86.5,-1083.5"/>
<text text-anchor="middle" x="101" y="-1128.5" font-family="Helvetica,sans-Serif" font-size="10.00">int</text>
<polyline fill="none" stroke="#bfbfbf" points="86.5,-1121.5 115.5,-1121.5 "/>
<text text-anchor="middle" x="101" y="-1109.5" font-family="Helvetica,sans-Serif" font-size="10.00"> </text>
<polyline fill="none" stroke="#bfbfbf" points="86.5,-1102.5 115.5,-1102.5 "/>
<text text-anchor="middle" x="101" y="-1090.5" font-family="Helvetica,sans-Serif" font-size="10.00"> </text>
</g>
<!-- Node4&#45;&gt;Node1 -->
<g id="edge3" class="edge"><title>Node4&#45;&gt;Node1</title>
<path fill="none" stroke="#404040" d="M92.3201,-1083.28C80.89,-1041.56 65.2845,-961.141 93,-901 115.2,-852.828 162.874,-815.001 201.295,-790.706"/>
<polygon fill="none" stroke="#404040" points="201.634,-790.498 204.652,-783.949 211.858,-784.216 208.84,-790.765 201.634,-790.498"/>
<text text-anchor="middle" x="111" y="-955" font-family="Helvetica,sans-Serif" font-size="10.00"> &#45;money</text>
</g>
<!-- Node4&#45;&gt;Node5 -->
<g id="edge24" class="edge"><title>Node4&#45;&gt;Node5</title>
<path fill="none" stroke="#404040" d="M115.531,-1087.17C125.851,-1070.25 140.243,-1046.65 153.886,-1024.28"/>
<polygon fill="none" stroke="#404040" points="154.045,-1024.02 153.754,-1016.81 160.293,-1013.77 160.584,-1020.98 154.045,-1024.02"/>
<text text-anchor="middle" x="185.5" y="-1046" font-family="Helvetica,sans-Serif" font-size="10.00"> &#45;expToNextLevel</text>
<text text-anchor="middle" x="185.5" y="-1035" font-family="Helvetica,sans-Serif" font-size="10.00">&#45;exp</text>
</g>
<!-- Node4&#45;&gt;Node6 -->
<g id="edge7" class="edge"><title>Node4&#45;&gt;Node6</title>
<path fill="none" stroke="#404040" d="M88.0292,-1083.4C84.2181,-1074.23 80.4255,-1063.84 78,-1054 73.7254,-1036.65 74.89,-1031.84 74,-1014 63.8937,-811.37 50.3692,-755.912 95,-558 123.032,-433.693 118.412,-388.183 202,-292 235.925,-252.963 287.838,-224.839 328.047,-207.329"/>
<polygon fill="none" stroke="#404040" points="328.265,-207.237 332.234,-201.216 339.318,-202.563 335.35,-208.584 328.265,-207.237"/>
<text text-anchor="middle" x="132.5" y="-638" font-family="Helvetica,sans-Serif" font-size="10.00"> #speed</text>
<text text-anchor="middle" x="132.5" y="-627" font-family="Helvetica,sans-Serif" font-size="10.00">#luck</text>
<text text-anchor="middle" x="132.5" y="-616" font-family="Helvetica,sans-Serif" font-size="10.00">#health</text>
<text text-anchor="middle" x="132.5" y="-605" font-family="Helvetica,sans-Serif" font-size="10.00">#magic</text>
<text text-anchor="middle" x="132.5" y="-594" font-family="Helvetica,sans-Serif" font-size="10.00">#maximumMagic</text>
<text text-anchor="middle" x="132.5" y="-583" font-family="Helvetica,sans-Serif" font-size="10.00">#attack</text>
<text text-anchor="middle" x="132.5" y="-572" font-family="Helvetica,sans-Serif" font-size="10.00">#defence</text>
<text text-anchor="middle" x="132.5" y="-561" font-family="Helvetica,sans-Serif" font-size="10.00">#level</text>
</g>
<!-- Node4&#45;&gt;Node7 -->
<g id="edge21" class="edge"><title>Node4&#45;&gt;Node7</title>
<path fill="none" stroke="#404040" d="M115.779,-1106.71C140.872,-1099.46 193.429,-1084.33 238,-1072 333.804,-1045.5 378.9,-1079.12 454,-1014 503.492,-971.085 512,-944.007 512,-878.5 512,-878.5 512,-878.5 512,-499 512,-477.702 508.349,-454.688 503.896,-434.536"/>
<polygon fill="none" stroke="#404040" points="503.864,-434.401 498.6,-429.473 501.124,-422.718 506.388,-427.646 503.864,-434.401"/>
<text text-anchor="middle" x="529.5" y="-756.5" font-family="Helvetica,sans-Serif" font-size="10.00"> #magic</text>
</g>
<!-- Node4&#45;&gt;Node9 -->
<g id="edge17" class="edge"><title>Node4&#45;&gt;Node9</title>
<path fill="none" stroke="#404040" d="M115.667,-1106.33C159.388,-1092.13 287.373,-1048.28 313,-1014 330.85,-990.121 347.943,-924.383 360.396,-865.769"/>
<polygon fill="none" stroke="#404040" points="360.449,-865.519 357.76,-858.827 362.903,-853.772 365.591,-860.463 360.449,-865.519"/>
<text text-anchor="middle" x="371.5" y="-955" font-family="Helvetica,sans-Serif" font-size="10.00"> +money</text>
</g>
<!-- Node10 -->
<g id="node10" class="node"><title>Node10</title>
<g id="a_node10"><a xlink:href="class_enemy.html" target="_top" xlink:title="Defines an AI controller enemy to fight in battle scenes">
<polygon fill="none" stroke="black" points="86.5,-0.5 86.5,-57.5 153.5,-57.5 153.5,-0.5 86.5,-0.5"/>
<text text-anchor="middle" x="120" y="-45.5" font-family="Helvetica,sans-Serif" font-size="10.00">Enemy</text>
<polyline fill="none" stroke="black" points="86.5,-38.5 153.5,-38.5 "/>
<text text-anchor="start" x="94.5" y="-26.5" font-family="Helvetica,sans-Serif" font-size="10.00">+ ExpGiven</text>
<polyline fill="none" stroke="black" points="86.5,-19.5 153.5,-19.5 "/>
<text text-anchor="start" x="94.5" y="-7.5" font-family="Helvetica,sans-Serif" font-size="10.00">+ Enemy()</text>
</a>
</g>
</g>
<!-- Node4&#45;&gt;Node10 -->
<g id="edge16" class="edge"><title>Node4&#45;&gt;Node10</title>
<path fill="none" stroke="#404040" d="M86.0971,-1099.34C58.0023,-1075.92 0,-1020.11 0,-958.5 0,-958.5 0,-958.5 0,-183.5 0,-132.239 42.0496,-87.8785 76.3657,-60.2111"/>
<polygon fill="none" stroke="#404040" points="76.7841,-59.8855 79.0622,-53.0437 86.254,-52.5151 83.9758,-59.3569 76.7841,-59.8855"/>
<text text-anchor="middle" x="23" y="-497.5" font-family="Helvetica,sans-Serif" font-size="10.00"> &#45;expGiven</text>
</g>
<!-- Node5&#45;&gt;Node1 -->
<g id="edge4" class="edge"><title>Node5&#45;&gt;Node1</title>
<path fill="none" stroke="#404040" d="M211.998,-901.241C217.87,-883.211 224.526,-862.776 230.914,-843.163"/>
<polygon fill="none" stroke="#404040" points="230.92,-843.144 228.975,-836.2 234.636,-831.734 236.582,-838.678 230.92,-843.144"/>
<text text-anchor="middle" x="240" y="-875" font-family="Helvetica,sans-Serif" font-size="10.00"> &#45;players</text>
</g>
<!-- Node5&#45;&gt;Node9 -->
<g id="edge19" class="edge"><title>Node5&#45;&gt;Node9</title>
<path fill="none" stroke="#404040" d="M250.053,-910.419C275.361,-889.171 302.021,-866.037 313,-854 313.279,-853.695 313.557,-853.388 313.835,-853.08"/>
<polygon fill="none" stroke="#404040" points="313.97,-852.925 314.891,-845.773 321.847,-843.872 320.926,-851.024 313.97,-852.925"/>
<text text-anchor="middle" x="311.5" y="-875" font-family="Helvetica,sans-Serif" font-size="10.00"> &#45;player</text>
</g>
<!-- Node6&#45;&gt;Node5 -->
<g id="edge5" class="edge"><title>Node6&#45;&gt;Node5</title>
<path fill="none" stroke="midnightblue" d="M330.378,-209.439C270.315,-239.077 184,-295.721 184,-376.5 184,-760 184,-760 184,-760 184,-807.822 186.991,-862.107 189.701,-901.483"/>
<polygon fill="none" stroke="midnightblue" points="331.917,-212.583 339.406,-205.089 328.878,-206.277 331.917,-212.583"/>
</g>
<!-- Node6&#45;&gt;Node8 -->
<g id="edge11" class="edge"><title>Node6&#45;&gt;Node8</title>
<path fill="none" stroke="#404040" d="M388.932,-273.552C390.271,-318.34 392.469,-373.611 396,-423 396.585,-431.18 397.354,-439.841 398.184,-448.273"/>
<polygon fill="none" stroke="#404040" points="398.201,-448.444 402.794,-454.003 399.429,-460.381 394.836,-454.822 398.201,-448.444"/>
<text text-anchor="middle" x="413" y="-380.5" font-family="Helvetica,sans-Serif" font-size="10.00"> #target</text>
<text text-anchor="middle" x="413" y="-369.5" font-family="Helvetica,sans-Serif" font-size="10.00">#user</text>
</g>
<!-- Node6&#45;&gt;Node10 -->
<g id="edge15" class="edge"><title>Node6&#45;&gt;Node10</title>
<path fill="none" stroke="midnightblue" d="M330.563,-151.054C276.993,-120.256 198.245,-74.9834 153.79,-49.4263"/>
<polygon fill="none" stroke="midnightblue" points="328.852,-154.107 339.266,-156.057 332.341,-148.039 328.852,-154.107"/>
</g>
<!-- Node7&#45;&gt;Node6 -->
<g id="edge8" class="edge"><title>Node7&#45;&gt;Node6</title>
<path fill="none" stroke="#404040" d="M464.575,-332.201C456.974,-317.827 448.212,-301.257 439.373,-284.541"/>
<polygon fill="none" stroke="#404040" points="439.174,-284.166 432.833,-280.731 433.564,-273.557 439.905,-276.992 439.174,-284.166"/>
<text text-anchor="middle" x="475.5" y="-306" font-family="Helvetica,sans-Serif" font-size="10.00"> #special1</text>
<text text-anchor="middle" x="475.5" y="-295" font-family="Helvetica,sans-Serif" font-size="10.00">#special2</text>
</g>
<!-- Node8&#45;&gt;Node7 -->
<g id="edge9" class="edge"><title>Node8&#45;&gt;Node7</title>
<path fill="none" stroke="midnightblue" d="M436.834,-451.899C443.543,-442.274 450.581,-432.179 457.215,-422.661"/>
<polygon fill="none" stroke="midnightblue" points="433.888,-450.005 431.041,-460.21 439.63,-454.008 433.888,-450.005"/>
</g>
<!-- Node9&#45;&gt;Node8 -->
<g id="edge12" class="edge"><title>Node9&#45;&gt;Node8</title>
<path fill="none" stroke="#404040" d="M388.732,-664.49C392.282,-626.48 396.245,-584.047 399.243,-551.939"/>
<polygon fill="none" stroke="#404040" points="399.267,-551.68 395.842,-545.334 400.383,-539.732 403.808,-546.078 399.267,-551.68"/>
<text text-anchor="middle" x="422" y="-599.5" font-family="Helvetica,sans-Serif" font-size="10.00"> #manager</text>
</g>
<!-- Node10&#45;&gt;Node9 -->
<g id="edge14" class="edge"><title>Node10&#45;&gt;Node9</title>
<path fill="none" stroke="#404040" d="M129.904,-57.7314C164.555,-154.753 281.53,-482.285 342.434,-652.816"/>
<polygon fill="none" stroke="#404040" points="342.506,-653.016 348.291,-657.321 346.542,-664.317 340.757,-660.012 342.506,-653.016"/>
<text text-anchor="middle" x="279" y="-375" font-family="Helvetica,sans-Serif" font-size="10.00"> &#45;enemy</text>
</g>
<!-- Node11 -->
<g id="node11" class="node"><title>Node11</title>
<polygon fill="none" stroke="#bfbfbf" points="410.5,-929 410.5,-986 445.5,-986 445.5,-929 410.5,-929"/>
<text text-anchor="middle" x="428" y="-974" font-family="Helvetica,sans-Serif" font-size="10.00">bool</text>
<polyline fill="none" stroke="#bfbfbf" points="410.5,-967 445.5,-967 "/>
<text text-anchor="middle" x="428" y="-955" font-family="Helvetica,sans-Serif" font-size="10.00"> </text>
<polyline fill="none" stroke="#bfbfbf" points="410.5,-948 445.5,-948 "/>
<text text-anchor="middle" x="428" y="-936" font-family="Helvetica,sans-Serif" font-size="10.00"> </text>
</g>
<!-- Node11&#45;&gt;Node9 -->
<g id="edge18" class="edge"><title>Node11&#45;&gt;Node9</title>
<path fill="none" stroke="#404040" d="M412.566,-928.687C405.796,-915.267 398.402,-898.704 394,-883 392.433,-877.409 391.041,-871.629 389.804,-865.761"/>
<polygon fill="none" stroke="#404040" points="389.737,-865.411 384.678,-860.272 387.477,-853.626 392.535,-858.765 389.737,-865.411"/>
<text text-anchor="middle" x="427" y="-875" font-family="Helvetica,sans-Serif" font-size="10.00"> &#45;wasCriticalHit</text>
</g>
<!-- Node12 -->
<g id="node12" class="node"><title>Node12</title>
<polygon fill="none" stroke="#bfbfbf" points="555.5,-349 555.5,-406 616.5,-406 616.5,-349 555.5,-349"/>
<text text-anchor="middle" x="586" y="-394" font-family="Helvetica,sans-Serif" font-size="10.00">Texture2D</text>
<polyline fill="none" stroke="#bfbfbf" points="555.5,-387 616.5,-387 "/>
<text text-anchor="middle" x="586" y="-375" font-family="Helvetica,sans-Serif" font-size="10.00"> </text>
<polyline fill="none" stroke="#bfbfbf" points="555.5,-368 616.5,-368 "/>
<text text-anchor="middle" x="586" y="-356" font-family="Helvetica,sans-Serif" font-size="10.00"> </text>
</g>
<!-- Node12&#45;&gt;Node6 -->
<g id="edge22" class="edge"><title>Node12&#45;&gt;Node6</title>
<path fill="none" stroke="#404040" d="M561.858,-348.827C556.72,-343.169 551.256,-337.321 546,-332 513.251,-298.845 474.869,-263.391 444.021,-235.666"/>
<polygon fill="none" stroke="#404040" points="443.642,-235.328 436.504,-234.304 434.704,-227.322 441.842,-228.345 443.642,-235.328"/>
<text text-anchor="middle" x="543.5" y="-300.5" font-family="Helvetica,sans-Serif" font-size="10.00"> #image</text>
</g>
</g>
</svg>
        <g id="navigator" transform="translate(0 0)" fill="#404254">
                <rect fill="#f2f5e9" fill-opacity="0.5" stroke="#606060" stroke-width=".5" x="0" y="0" width="60" height="60"/>
                <use id="zoomplus" xlink:href="#zoomPlus" x="17" y="9" onmousedown="handleZoom(evt,'in')"/>
                <use id="zoomminus" xlink:href="#zoomMin" x="42" y="9" onmousedown="handleZoom(evt,'out')"/>
                <use id="reset" xlink:href="#resetDef" x="30" y="36" onmousedown="handleReset()"/>
                <g id="arrowUp" xlink:href="#dirArrow" transform="translate(30 24)" onmousedown="handlePan(0,-1)">
                  <use xlink:href="#rim" fill="#404040">
                        <set attributeName="fill" to="#808080" begin="arrowUp.mouseover" end="arrowUp.mouseout"/>
                  </use>
                  <path fill="none" stroke="white" stroke-width="1.5" d="M0,-3.0v7 M-2.5,-0.5L0,-3.0L2.5,-0.5"/>
                </g>
                <g id="arrowRight" xlink:href="#dirArrow" transform="rotate(90) translate(36 -43)" onmousedown="handlePan(1,0)">
                  <use xlink:href="#rim" fill="#404040">
                        <set attributeName="fill" to="#808080" begin="arrowRight.mouseover" end="arrowRight.mouseout"/>
                  </use>
                  <path fill="none" stroke="white" stroke-width="1.5" d="M0,-3.0v7 M-2.5,-0.5L0,-3.0L2.5,-0.5"/>
                </g>
                <g id="arrowDown" xlink:href="#dirArrow" transform="rotate(180) translate(-30 -48)" onmousedown="handlePan(0,1)">
                  <use xlink:href="#rim" fill="#404040">
                        <set attributeName="fill" to="#808080" begin="arrowDown.mouseover" end="arrowDown.mouseout"/>
                  </use>
                  <path fill="none" stroke="white" stroke-width="1.5" d="M0,-3.0v7 M-2.5,-0.5L0,-3.0L2.5,-0.5"/>
                </g>
                <g id="arrowLeft" xlink:href="#dirArrow" transform="rotate(270) translate(-36 17)" onmousedown="handlePan(-1,0)">
                  <use xlink:href="#rim" fill="#404040">
                        <set attributeName="fill" to="#808080" begin="arrowLeft.mouseover" end="arrowLeft.mouseout"/>
                  </use>
                  <path fill="none" stroke="white" stroke-width="1.5" d="M0,-3.0v7 M-2.5,-0.5L0,-3.0L2.5,-0.5"/>
                </g>
        </g>
        <svg viewBox="0 0 15 15" width="100%" height="30px" preserveAspectRatio="xMaxYMin meet">
         <g id="arrow_out" transform="scale(0.3 0.3)">
          <a xlink:href="class_data_manager__coll__graph_org.svg" target="_base">
           <rect id="button" ry="5" rx="5" y="6" x="6" height="38" width="38"
                fill="#f2f5e9" fill-opacity="0.5" stroke="#606060" stroke-width="1.0"/>
           <path id="arrow"
             d="M 11.500037,31.436501 C 11.940474,20.09759 22.043105,11.32322 32.158766,21.979434 L 37.068811,17.246167 C 37.068811,17.246167 37.088388,32 37.088388,32 L 22.160133,31.978069 C 22.160133,31.978069 26.997745,27.140456 26.997745,27.140456 C 18.528582,18.264221 13.291696,25.230495 11.500037,31.436501 z"
             style="fill:#404040;"/>
          </a>
         </g>
        </svg>
</svg>
