<?xml version="1.0" encoding="UTF-8" standalone="no"?>
<!DOCTYPE svg PUBLIC "-//W3C//DTD SVG 1.1//EN"
 "http://www.w3.org/Graphics/SVG/1.1/DTD/svg11.dtd">
<!-- Generated by graphviz version 2.38.0 (20140413.2041)
 -->
<!-- Title: MainBattle Pages: 1 -->
<svg width="1276pt" height="1676pt"
 viewBox="0.00 0.00 1275.50 1676.00" xmlns="http://www.w3.org/2000/svg" xmlns:xlink="http://www.w3.org/1999/xlink">
<g id="graph0" class="graph" transform="scale(1 1) rotate(0) translate(4 1672)">
<title>MainBattle</title>
<!-- Node2 -->
<g id="node1" class="node"><title>Node2</title>
<polygon fill="#bfbfbf" stroke="black" points="391,-0.5 391,-255.5 517,-255.5 517,-0.5 391,-0.5"/>
<text text-anchor="middle" x="454" y="-243.5" font-family="Helvetica,sans-Serif" font-size="10.00">MainBattle</text>
<polyline fill="none" stroke="black" points="391,-236.5 517,-236.5 "/>
<text text-anchor="middle" x="454" y="-224.5" font-family="Helvetica,sans-Serif" font-size="10.00"> </text>
<polyline fill="none" stroke="black" points="391,-217.5 517,-217.5 "/>
<text text-anchor="start" x="399" y="-205.5" font-family="Helvetica,sans-Serif" font-size="10.00">+ standardAttack()</text>
<text text-anchor="start" x="399" y="-194.5" font-family="Helvetica,sans-Serif" font-size="10.00">+ special1()</text>
<text text-anchor="start" x="399" y="-183.5" font-family="Helvetica,sans-Serif" font-size="10.00">+ special2()</text>
<text text-anchor="start" x="399" y="-172.5" font-family="Helvetica,sans-Serif" font-size="10.00">+ switchPlayers()</text>
<text text-anchor="start" x="399" y="-161.5" font-family="Helvetica,sans-Serif" font-size="10.00">+ updateToNewPlayer()</text>
<text text-anchor="start" x="399" y="-150.5" font-family="Helvetica,sans-Serif" font-size="10.00">+ ranAway()</text>
<text text-anchor="start" x="399" y="-139.5" font-family="Helvetica,sans-Serif" font-size="10.00">&#45; Start()</text>
<text text-anchor="start" x="399" y="-128.5" font-family="Helvetica,sans-Serif" font-size="10.00">&#45; Update()</text>
<text text-anchor="start" x="399" y="-117.5" font-family="Helvetica,sans-Serif" font-size="10.00">&#45; playerThenEnemy()</text>
<text text-anchor="start" x="399" y="-106.5" font-family="Helvetica,sans-Serif" font-size="10.00">&#45; enemyThenPlayer()</text>
<text text-anchor="start" x="399" y="-95.5" font-family="Helvetica,sans-Serif" font-size="10.00">&#45; performTurn()</text>
<text text-anchor="start" x="399" y="-84.5" font-family="Helvetica,sans-Serif" font-size="10.00">&#45; updateBars()</text>
<text text-anchor="start" x="399" y="-73.5" font-family="Helvetica,sans-Serif" font-size="10.00">&#45; checkIfPlayerWon()</text>
<text text-anchor="start" x="399" y="-62.5" font-family="Helvetica,sans-Serif" font-size="10.00">&#45; updateExp()</text>
<text text-anchor="start" x="399" y="-51.5" font-family="Helvetica,sans-Serif" font-size="10.00">&#45; updateExpHelper()</text>
<text text-anchor="start" x="399" y="-40.5" font-family="Helvetica,sans-Serif" font-size="10.00">&#45; checkIfPlayerLost()</text>
<text text-anchor="start" x="399" y="-29.5" font-family="Helvetica,sans-Serif" font-size="10.00">&#45; setButtonsInteractable()</text>
<text text-anchor="start" x="399" y="-18.5" font-family="Helvetica,sans-Serif" font-size="10.00">&#45; prepareTurn()</text>
<text text-anchor="start" x="399" y="-7.5" font-family="Helvetica,sans-Serif" font-size="10.00">&#45; runAway()</text>
</g>
<!-- Node3 -->
<g id="node2" class="node"><title>Node3</title>
<g id="a_node2"><a xlink:href="class_mono_behaviour.html" target="_top" xlink:title="{MonoBehaviour\n||}">
<polygon fill="none" stroke="black" points="902.5,-546 902.5,-603 985.5,-603 985.5,-546 902.5,-546"/>
<text text-anchor="middle" x="944" y="-591" font-family="Helvetica,sans-Serif" font-size="10.00">MonoBehaviour</text>
<polyline fill="none" stroke="black" points="902.5,-584 985.5,-584 "/>
<text text-anchor="middle" x="944" y="-572" font-family="Helvetica,sans-Serif" font-size="10.00"> </text>
<polyline fill="none" stroke="black" points="902.5,-565 985.5,-565 "/>
<text text-anchor="middle" x="944" y="-553" font-family="Helvetica,sans-Serif" font-size="10.00"> </text>
</a>
</g>
</g>
<!-- Node3&#45;&gt;Node2 -->
<g id="edge1" class="edge"><title>Node3&#45;&gt;Node2</title>
<path fill="none" stroke="midnightblue" d="M934.544,-535.802C914.567,-456.422 869.524,-278.907 865,-274 772.815,-174.001 607.457,-142.944 517.131,-133.314"/>
<polygon fill="none" stroke="midnightblue" points="931.244,-537.031 937.077,-545.876 938.032,-535.324 931.244,-537.031"/>
</g>
<!-- Node18 -->
<g id="node17" class="node"><title>Node18</title>
<g id="a_node17"><a xlink:href="class_stats_script.html" target="_top" xlink:title="A script used to manage and update all of the stat displays in the battle scene ">
<polygon fill="none" stroke="black" points="978.5,-347.5 978.5,-426.5 1071.5,-426.5 1071.5,-347.5 978.5,-347.5"/>
<text text-anchor="middle" x="1025" y="-414.5" font-family="Helvetica,sans-Serif" font-size="10.00">StatsScript</text>
<polyline fill="none" stroke="black" points="978.5,-407.5 1071.5,-407.5 "/>
<text text-anchor="middle" x="1025" y="-395.5" font-family="Helvetica,sans-Serif" font-size="10.00"> </text>
<polyline fill="none" stroke="black" points="978.5,-388.5 1071.5,-388.5 "/>
<text text-anchor="start" x="986.5" y="-376.5" font-family="Helvetica,sans-Serif" font-size="10.00">+ setUpDisplay()</text>
<text text-anchor="start" x="986.5" y="-365.5" font-family="Helvetica,sans-Serif" font-size="10.00">+ updateDisplay()</text>
<text text-anchor="start" x="986.5" y="-354.5" font-family="Helvetica,sans-Serif" font-size="10.00">&#45; Start()</text>
</a>
</g>
</g>
<!-- Node3&#45;&gt;Node18 -->
<g id="edge32" class="edge"><title>Node3&#45;&gt;Node18</title>
<path fill="none" stroke="midnightblue" d="M960.232,-536.327C974.127,-504.505 994.06,-458.856 1008.13,-426.623"/>
<polygon fill="none" stroke="midnightblue" points="956.921,-535.164 956.127,-545.729 963.336,-537.965 956.921,-535.164"/>
</g>
<!-- Node4 -->
<g id="node3" class="node"><title>Node4</title>
<polygon fill="none" stroke="#bfbfbf" points="28,-358.5 28,-415.5 86,-415.5 86,-358.5 28,-358.5"/>
<text text-anchor="middle" x="57" y="-403.5" font-family="Helvetica,sans-Serif" font-size="10.00">AudioClip</text>
<polyline fill="none" stroke="#bfbfbf" points="28,-396.5 86,-396.5 "/>
<text text-anchor="middle" x="57" y="-384.5" font-family="Helvetica,sans-Serif" font-size="10.00"> </text>
<polyline fill="none" stroke="#bfbfbf" points="28,-377.5 86,-377.5 "/>
<text text-anchor="middle" x="57" y="-365.5" font-family="Helvetica,sans-Serif" font-size="10.00"> </text>
</g>
<!-- Node4&#45;&gt;Node2 -->
<g id="edge2" class="edge"><title>Node4&#45;&gt;Node2</title>
<path fill="none" stroke="#404040" d="M52.4182,-358.17C49.9688,-333.509 50.5672,-297.816 69,-274 143.604,-177.61 289.831,-145.295 379.038,-134.463"/>
<polygon fill="none" stroke="#404040" points="379.042,-134.462 384.55,-129.807 390.965,-133.101 385.457,-137.756 379.042,-134.462"/>
<text text-anchor="middle" x="84.5" y="-304.5" font-family="Helvetica,sans-Serif" font-size="10.00"> &#45;BGM</text>
<text text-anchor="middle" x="84.5" y="-293.5" font-family="Helvetica,sans-Serif" font-size="10.00">&#45;victory</text>
</g>
<!-- Node5 -->
<g id="node4" class="node"><title>Node5</title>
<g id="a_node4"><a xlink:href="class_item.html" target="_top" xlink:title="Abstract class for items that can be equipped to a player, increasing some of their stats ...">
<polygon fill="none" stroke="black" points="286.5,-1472.5 286.5,-1551.5 363.5,-1551.5 363.5,-1472.5 286.5,-1472.5"/>
<text text-anchor="middle" x="325" y="-1539.5" font-family="Helvetica,sans-Serif" font-size="10.00">Item</text>
<polyline fill="none" stroke="black" points="286.5,-1532.5 363.5,-1532.5 "/>
<text text-anchor="start" x="294.5" y="-1520.5" font-family="Helvetica,sans-Serif" font-size="10.00">+ Name</text>
<text text-anchor="start" x="294.5" y="-1509.5" font-family="Helvetica,sans-Serif" font-size="10.00">+ Desc</text>
<polyline fill="none" stroke="black" points="286.5,-1502.5 363.5,-1502.5 "/>
<text text-anchor="start" x="294.5" y="-1490.5" font-family="Helvetica,sans-Serif" font-size="10.00">+ applyBuffs()</text>
<text text-anchor="start" x="294.5" y="-1479.5" font-family="Helvetica,sans-Serif" font-size="10.00">+ revertBuffs()</text>
</a>
</g>
</g>
<!-- Node5&#45;&gt;Node2 -->
<g id="edge3" class="edge"><title>Node5&#45;&gt;Node2</title>
<path fill="none" stroke="#404040" d="M286.246,-1502.2C224.577,-1485.63 111,-1443.58 111,-1358.5 111,-1358.5 111,-1358.5 111,-835.5 111,-584.174 33.6937,-479.768 178,-274 225.617,-206.103 315.098,-167.54 379.277,-147.518"/>
<polygon fill="none" stroke="#404040" points="379.463,-147.462 384.05,-141.898 390.95,-143.993 386.363,-149.557 379.463,-147.462"/>
<text text-anchor="middle" x="140" y="-834" font-family="Helvetica,sans-Serif" font-size="10.00"> &#45;itemReward</text>
</g>
<!-- Node15 -->
<g id="node14" class="node"><title>Node15</title>
<g id="a_node14"><a xlink:href="class_player.html" target="_top" xlink:title="Defines a playable character for use in battle scenes">
<polygon fill="none" stroke="black" points="420,-1301.5 420,-1413.5 532,-1413.5 532,-1301.5 420,-1301.5"/>
<text text-anchor="middle" x="476" y="-1401.5" font-family="Helvetica,sans-Serif" font-size="10.00">Player</text>
<polyline fill="none" stroke="black" points="420,-1394.5 532,-1394.5 "/>
<text text-anchor="start" x="428" y="-1382.5" font-family="Helvetica,sans-Serif" font-size="10.00">+ Exp</text>
<text text-anchor="start" x="428" y="-1371.5" font-family="Helvetica,sans-Serif" font-size="10.00">+ Item</text>
<text text-anchor="start" x="428" y="-1360.5" font-family="Helvetica,sans-Serif" font-size="10.00">+ ExpToNextLevel</text>
<polyline fill="none" stroke="black" points="420,-1353.5 532,-1353.5 "/>
<text text-anchor="start" x="428" y="-1341.5" font-family="Helvetica,sans-Serif" font-size="10.00">+ Player()</text>
<text text-anchor="start" x="428" y="-1330.5" font-family="Helvetica,sans-Serif" font-size="10.00">+ gainExp()</text>
<text text-anchor="start" x="428" y="-1319.5" font-family="Helvetica,sans-Serif" font-size="10.00">+ levelUp()</text>
<text text-anchor="start" x="428" y="-1308.5" font-family="Helvetica,sans-Serif" font-size="10.00">&#45; setExpToNextLevel()</text>
</a>
</g>
</g>
<!-- Node5&#45;&gt;Node15 -->
<g id="edge22" class="edge"><title>Node5&#45;&gt;Node15</title>
<path fill="none" stroke="#404040" d="M363.62,-1508.43C399.681,-1503.73 451.636,-1490.6 477,-1454 482.707,-1445.76 485.664,-1436.1 486.852,-1426.13"/>
<polygon fill="none" stroke="#404040" points="486.864,-1425.88 483.181,-1419.68 487.488,-1413.9 491.171,-1420.1 486.864,-1425.88"/>
<text text-anchor="middle" x="498.5" y="-1440.5" font-family="Helvetica,sans-Serif" font-size="10.00"> &#45;item</text>
</g>
<!-- Node6 -->
<g id="node5" class="node"><title>Node6</title>
<polygon fill="none" stroke="#bfbfbf" points="547.5,-1610.5 547.5,-1667.5 588.5,-1667.5 588.5,-1610.5 547.5,-1610.5"/>
<text text-anchor="middle" x="568" y="-1655.5" font-family="Helvetica,sans-Serif" font-size="10.00">string</text>
<polyline fill="none" stroke="#bfbfbf" points="547.5,-1648.5 588.5,-1648.5 "/>
<text text-anchor="middle" x="568" y="-1636.5" font-family="Helvetica,sans-Serif" font-size="10.00"> </text>
<polyline fill="none" stroke="#bfbfbf" points="547.5,-1629.5 588.5,-1629.5 "/>
<text text-anchor="middle" x="568" y="-1617.5" font-family="Helvetica,sans-Serif" font-size="10.00"> </text>
</g>
<!-- Node6&#45;&gt;Node2 -->
<g id="edge5" class="edge"><title>Node6&#45;&gt;Node2</title>
<path fill="none" stroke="#404040" d="M547.449,-1637.96C445.618,-1637.23 0,-1627.48 0,-1513 0,-1513 0,-1513 0,-386 0,-214.027 249.753,-155.778 378.776,-137.161"/>
<polygon fill="none" stroke="#404040" points="378.987,-137.131 384.38,-132.344 390.873,-135.48 385.481,-140.268 378.987,-137.131"/>
<text text-anchor="middle" x="11.5" y="-897.5" font-family="Helvetica,sans-Serif" font-size="10.00"> &#45;text</text>
</g>
<!-- Node6&#45;&gt;Node5 -->
<g id="edge4" class="edge"><title>Node6&#45;&gt;Node5</title>
<path fill="none" stroke="#404040" d="M547.353,-1636.36C498.371,-1632.06 377.065,-1618.9 348,-1592 339.763,-1584.38 334.415,-1573.99 330.96,-1563.25"/>
<polygon fill="none" stroke="#404040" points="330.943,-1563.19 325.555,-1558.4 327.905,-1551.58 333.294,-1556.37 330.943,-1563.19"/>
<text text-anchor="middle" x="363" y="-1584" font-family="Helvetica,sans-Serif" font-size="10.00"> #desc</text>
<text text-anchor="middle" x="363" y="-1573" font-family="Helvetica,sans-Serif" font-size="10.00">#name</text>
</g>
<!-- Node9 -->
<g id="node8" class="node"><title>Node9</title>
<g id="a_node8"><a xlink:href="class_character.html" target="_top" xlink:title="Base abstract class for Enemy and Player to inherit from. Defines all shared variables, their constructor and their setters and getters ">
<polygon fill="none" stroke="black" points="573.5,-485.5 573.5,-663.5 668.5,-663.5 668.5,-485.5 573.5,-485.5"/>
<text text-anchor="middle" x="621" y="-651.5" font-family="Helvetica,sans-Serif" font-size="10.00">Character</text>
<polyline fill="none" stroke="black" points="573.5,-644.5 668.5,-644.5 "/>
<text text-anchor="start" x="581.5" y="-632.5" font-family="Helvetica,sans-Serif" font-size="10.00">+ Name</text>
<text text-anchor="start" x="581.5" y="-621.5" font-family="Helvetica,sans-Serif" font-size="10.00">+ Level</text>
<text text-anchor="start" x="581.5" y="-610.5" font-family="Helvetica,sans-Serif" font-size="10.00">+ Health</text>
<text text-anchor="start" x="581.5" y="-599.5" font-family="Helvetica,sans-Serif" font-size="10.00">+ Attack</text>
<text text-anchor="start" x="581.5" y="-588.5" font-family="Helvetica,sans-Serif" font-size="10.00">+ Defence</text>
<text text-anchor="start" x="581.5" y="-577.5" font-family="Helvetica,sans-Serif" font-size="10.00">+ MaximumMagic</text>
<text text-anchor="start" x="581.5" y="-566.5" font-family="Helvetica,sans-Serif" font-size="10.00">+ Magic</text>
<text text-anchor="start" x="581.5" y="-555.5" font-family="Helvetica,sans-Serif" font-size="10.00">+ Luck</text>
<text text-anchor="start" x="581.5" y="-544.5" font-family="Helvetica,sans-Serif" font-size="10.00">+ Speed</text>
<text text-anchor="start" x="581.5" y="-533.5" font-family="Helvetica,sans-Serif" font-size="10.00">+ Special1</text>
<text text-anchor="start" x="581.5" y="-522.5" font-family="Helvetica,sans-Serif" font-size="10.00">+ Special2</text>
<text text-anchor="start" x="581.5" y="-511.5" font-family="Helvetica,sans-Serif" font-size="10.00">+ Image</text>
<polyline fill="none" stroke="black" points="573.5,-504.5 668.5,-504.5 "/>
<text text-anchor="start" x="581.5" y="-492.5" font-family="Helvetica,sans-Serif" font-size="10.00"># Character()</text>
</a>
</g>
</g>
<!-- Node6&#45;&gt;Node9 -->
<g id="edge9" class="edge"><title>Node6&#45;&gt;Node9</title>
<path fill="none" stroke="#404040" d="M588.753,-1635.88C668.929,-1627.11 954,-1590.48 954,-1513 954,-1513 954,-1513 954,-899 954,-747.813 775.225,-644.503 679.655,-600.077"/>
<polygon fill="none" stroke="#404040" points="679.626,-600.064 672.506,-601.209 668.711,-595.078 675.83,-593.932 679.626,-600.064"/>
<text text-anchor="middle" x="970.5" y="-1156.5" font-family="Helvetica,sans-Serif" font-size="10.00"> #name</text>
</g>
<!-- Node11 -->
<g id="node10" class="node"><title>Node11</title>
<g id="a_node10"><a xlink:href="class_special_move.html" target="_top" xlink:title="Special move abstract base class that expands upon CharacterMove, adding magic properties ...">
<polygon fill="none" stroke="black" points="670,-722.5 670,-812.5 768,-812.5 768,-722.5 670,-722.5"/>
<text text-anchor="middle" x="719" y="-800.5" font-family="Helvetica,sans-Serif" font-size="10.00">SpecialMove</text>
<polyline fill="none" stroke="black" points="670,-793.5 768,-793.5 "/>
<text text-anchor="start" x="678" y="-781.5" font-family="Helvetica,sans-Serif" font-size="10.00">+ Magic</text>
<text text-anchor="start" x="678" y="-770.5" font-family="Helvetica,sans-Serif" font-size="10.00">+ Desc</text>
<polyline fill="none" stroke="black" points="670,-763.5 768,-763.5 "/>
<text text-anchor="start" x="678" y="-751.5" font-family="Helvetica,sans-Serif" font-size="10.00">+ setUp()</text>
<text text-anchor="start" x="678" y="-740.5" font-family="Helvetica,sans-Serif" font-size="10.00">+ decreaseMagic()</text>
<text text-anchor="start" x="678" y="-729.5" font-family="Helvetica,sans-Serif" font-size="10.00"># SpecialMove()</text>
</a>
</g>
</g>
<!-- Node6&#45;&gt;Node11 -->
<g id="edge24" class="edge"><title>Node6&#45;&gt;Node11</title>
<path fill="none" stroke="#404040" d="M577.03,-1610.43C578.827,-1604.4 580.591,-1598.01 582,-1592 616.7,-1443.9 686.603,-985.018 710.65,-824.573"/>
<polygon fill="none" stroke="#404040" points="710.658,-824.52 707.59,-817.994 712.435,-812.652 715.502,-819.178 710.658,-824.52"/>
<text text-anchor="middle" x="655" y="-1275" font-family="Helvetica,sans-Serif" font-size="10.00"> #desc</text>
</g>
<!-- Node12 -->
<g id="node11" class="node"><title>Node12</title>
<g id="a_node11"><a xlink:href="class_character_move.html" target="_top" xlink:title="Astract base class for character moves ">
<polygon fill="none" stroke="black" points="448,-860.5 448,-939.5 534,-939.5 534,-860.5 448,-860.5"/>
<text text-anchor="middle" x="491" y="-927.5" font-family="Helvetica,sans-Serif" font-size="10.00">CharacterMove</text>
<polyline fill="none" stroke="black" points="448,-920.5 534,-920.5 "/>
<text text-anchor="start" x="456" y="-908.5" font-family="Helvetica,sans-Serif" font-size="10.00">+ User</text>
<text text-anchor="start" x="456" y="-897.5" font-family="Helvetica,sans-Serif" font-size="10.00">+ Target</text>
<text text-anchor="start" x="456" y="-886.5" font-family="Helvetica,sans-Serif" font-size="10.00">+ Text</text>
<polyline fill="none" stroke="black" points="448,-879.5 534,-879.5 "/>
<text text-anchor="start" x="456" y="-867.5" font-family="Helvetica,sans-Serif" font-size="10.00">+ performMove()</text>
</a>
</g>
</g>
<!-- Node6&#45;&gt;Node12 -->
<g id="edge13" class="edge"><title>Node6&#45;&gt;Node12</title>
<path fill="none" stroke="#404040" d="M568,-1610.2C568,-1584.87 568,-1546.42 568,-1513 568,-1513 568,-1513 568,-1158 568,-1083.3 537.782,-1001.34 515.206,-950.523"/>
<polygon fill="none" stroke="#404040" points="515.185,-950.475 509.065,-946.661 510.232,-939.545 516.352,-943.359 515.185,-950.475"/>
<text text-anchor="middle" x="580.5" y="-1355" font-family="Helvetica,sans-Serif" font-size="10.00"> #text</text>
</g>
<!-- Node13 -->
<g id="node12" class="node"><title>Node13</title>
<g id="a_node12"><a xlink:href="class_battle_manager.html" target="_top" xlink:title="Holds current Player and Enemy objects in battle and provides functions for MainBattle and other obje...">
<polygon fill="none" stroke="black" points="334,-1064.5 334,-1253.5 450,-1253.5 450,-1064.5 334,-1064.5"/>
<text text-anchor="middle" x="392" y="-1241.5" font-family="Helvetica,sans-Serif" font-size="10.00">BattleManager</text>
<polyline fill="none" stroke="black" points="334,-1234.5 450,-1234.5 "/>
<text text-anchor="start" x="342" y="-1222.5" font-family="Helvetica,sans-Serif" font-size="10.00">+ Player</text>
<text text-anchor="start" x="342" y="-1211.5" font-family="Helvetica,sans-Serif" font-size="10.00">+ Enemy</text>
<text text-anchor="start" x="342" y="-1200.5" font-family="Helvetica,sans-Serif" font-size="10.00">+ WasCriticalHit</text>
<polyline fill="none" stroke="black" points="334,-1193.5 450,-1193.5 "/>
<text text-anchor="start" x="342" y="-1181.5" font-family="Helvetica,sans-Serif" font-size="10.00">+ BattleManager()</text>
<text text-anchor="start" x="342" y="-1170.5" font-family="Helvetica,sans-Serif" font-size="10.00">+ playerFirst()</text>
<text text-anchor="start" x="342" y="-1159.5" font-family="Helvetica,sans-Serif" font-size="10.00">+ switchPlayers()</text>
<text text-anchor="start" x="342" y="-1148.5" font-family="Helvetica,sans-Serif" font-size="10.00">+ isCriticalHit()</text>
<text text-anchor="start" x="342" y="-1137.5" font-family="Helvetica,sans-Serif" font-size="10.00">+ ranAway()</text>
<text text-anchor="start" x="342" y="-1126.5" font-family="Helvetica,sans-Serif" font-size="10.00">+ damageCalculation()</text>
<text text-anchor="start" x="342" y="-1115.5" font-family="Helvetica,sans-Serif" font-size="10.00">+ enemyMove()</text>
<text text-anchor="start" x="342" y="-1104.5" font-family="Helvetica,sans-Serif" font-size="10.00">+ enemySpecialMove()</text>
<text text-anchor="start" x="342" y="-1093.5" font-family="Helvetica,sans-Serif" font-size="10.00">+ battleWon()</text>
<text text-anchor="start" x="342" y="-1082.5" font-family="Helvetica,sans-Serif" font-size="10.00">+ playerFainted()</text>
<text text-anchor="start" x="342" y="-1071.5" font-family="Helvetica,sans-Serif" font-size="10.00">&#45; characterFainted()</text>
</a>
</g>
</g>
<!-- Node6&#45;&gt;Node13 -->
<g id="edge16" class="edge"><title>Node6&#45;&gt;Node13</title>
<path fill="none" stroke="#404040" d="M547.313,-1624.95C507.556,-1598.47 421.536,-1534.1 389,-1454 365.015,-1394.95 365.141,-1323.55 371.565,-1265.91"/>
<polygon fill="none" stroke="#404040" points="371.585,-1265.74 368.334,-1259.3 373.025,-1253.83 376.276,-1260.26 371.585,-1265.74"/>
<text text-anchor="middle" x="431" y="-1446" font-family="Helvetica,sans-Serif" font-size="10.00"> +forceEnemyMove</text>
<text text-anchor="middle" x="431" y="-1435" font-family="Helvetica,sans-Serif" font-size="10.00">+forceCriticalHits</text>
</g>
<!-- Node6&#45;&gt;Node18 -->
<g id="edge33" class="edge"><title>Node6&#45;&gt;Node18</title>
<path fill="none" stroke="#404040" d="M588.663,-1636.76C676.575,-1630.95 1015,-1602.75 1015,-1513 1015,-1513 1015,-1513 1015,-573.5 1015,-527.863 1018.06,-476.001 1020.79,-438.74"/>
<polygon fill="none" stroke="#404040" points="1020.79,-438.659 1017.26,-432.375 1021.7,-426.693 1025.23,-432.978 1020.79,-438.659"/>
<text text-anchor="middle" x="1042" y="-1005" font-family="Helvetica,sans-Serif" font-size="10.00"> &#45;textHeader</text>
<text text-anchor="middle" x="1042" y="-994" font-family="Helvetica,sans-Serif" font-size="10.00">&#45;textFooter</text>
</g>
<!-- Node7 -->
<g id="node6" class="node"><title>Node7</title>
<polygon fill="none" stroke="#bfbfbf" points="188.5,-358.5 188.5,-415.5 259.5,-415.5 259.5,-358.5 188.5,-358.5"/>
<text text-anchor="middle" x="224" y="-403.5" font-family="Helvetica,sans-Serif" font-size="10.00">GameObject</text>
<polyline fill="none" stroke="#bfbfbf" points="188.5,-396.5 259.5,-396.5 "/>
<text text-anchor="middle" x="224" y="-384.5" font-family="Helvetica,sans-Serif" font-size="10.00"> </text>
<polyline fill="none" stroke="#bfbfbf" points="188.5,-377.5 259.5,-377.5 "/>
<text text-anchor="middle" x="224" y="-365.5" font-family="Helvetica,sans-Serif" font-size="10.00"> </text>
</g>
<!-- Node7&#45;&gt;Node2 -->
<g id="edge6" class="edge"><title>Node7&#45;&gt;Node2</title>
<path fill="none" stroke="#404040" d="M213.927,-358.356C207.03,-334.475 201.488,-299.834 216,-274 250.694,-212.237 323.553,-173.692 379.573,-152.01"/>
<polygon fill="none" stroke="#404040" points="379.657,-151.979 383.872,-146.127 390.894,-147.767 386.68,-153.618 379.657,-151.979"/>
<text text-anchor="middle" x="248" y="-321" font-family="Helvetica,sans-Serif" font-size="10.00"> &#45;enemyStats</text>
<text text-anchor="middle" x="248" y="-310" font-family="Helvetica,sans-Serif" font-size="10.00">&#45;playerCamera</text>
<text text-anchor="middle" x="248" y="-299" font-family="Helvetica,sans-Serif" font-size="10.00">&#45;attacksPanel</text>
<text text-anchor="middle" x="248" y="-288" font-family="Helvetica,sans-Serif" font-size="10.00">&#45;playerStats</text>
<text text-anchor="middle" x="248" y="-277" font-family="Helvetica,sans-Serif" font-size="10.00">&#45;globalData</text>
</g>
<!-- Node8 -->
<g id="node7" class="node"><title>Node8</title>
<g id="a_node7"><a xlink:href="class_enemy.html" target="_top" xlink:title="Defines an AI controller enemy to fight in battle scenes">
<polygon fill="none" stroke="black" points="537.5,-358.5 537.5,-415.5 604.5,-415.5 604.5,-358.5 537.5,-358.5"/>
<text text-anchor="middle" x="571" y="-403.5" font-family="Helvetica,sans-Serif" font-size="10.00">Enemy</text>
<polyline fill="none" stroke="black" points="537.5,-396.5 604.5,-396.5 "/>
<text text-anchor="start" x="545.5" y="-384.5" font-family="Helvetica,sans-Serif" font-size="10.00">+ ExpGiven</text>
<polyline fill="none" stroke="black" points="537.5,-377.5 604.5,-377.5 "/>
<text text-anchor="start" x="545.5" y="-365.5" font-family="Helvetica,sans-Serif" font-size="10.00">+ Enemy()</text>
</a>
</g>
</g>
<!-- Node8&#45;&gt;Node2 -->
<g id="edge7" class="edge"><title>Node8&#45;&gt;Node2</title>
<path fill="none" stroke="#404040" d="M558.479,-358.496C548.159,-335.829 532.683,-301.834 516.782,-266.907"/>
<polygon fill="none" stroke="#404040" points="516.583,-266.469 510.457,-262.665 511.611,-255.547 517.738,-259.351 516.583,-266.469"/>
<text text-anchor="middle" x="575" y="-304.5" font-family="Helvetica,sans-Serif" font-size="10.00"> &#45;enemyObject</text>
<text text-anchor="middle" x="575" y="-293.5" font-family="Helvetica,sans-Serif" font-size="10.00">&#45;enemy</text>
</g>
<!-- Node8&#45;&gt;Node13 -->
<g id="edge17" class="edge"><title>Node8&#45;&gt;Node13</title>
<path fill="none" stroke="#404040" d="M537.484,-401.161C504.409,-416.096 455.486,-443.854 432,-485 378.437,-578.841 381.329,-887.38 387.104,-1052.12"/>
<polygon fill="none" stroke="#404040" points="387.108,-1052.22 391.322,-1058.07 387.542,-1064.21 383.327,-1058.36 387.108,-1052.22"/>
<text text-anchor="middle" x="407" y="-765" font-family="Helvetica,sans-Serif" font-size="10.00"> &#45;enemy</text>
</g>
<!-- Node9&#45;&gt;Node8 -->
<g id="edge8" class="edge"><title>Node9&#45;&gt;Node8</title>
<path fill="none" stroke="midnightblue" d="M594.612,-475.6C588.687,-453.62 582.867,-432.027 578.487,-415.778"/>
<polygon fill="none" stroke="midnightblue" points="591.263,-476.623 597.245,-485.368 598.021,-474.801 591.263,-476.623"/>
</g>
<!-- Node9&#45;&gt;Node12 -->
<g id="edge14" class="edge"><title>Node9&#45;&gt;Node12</title>
<path fill="none" stroke="#404040" d="M573.261,-627.229C551.597,-653.664 527.786,-687.487 514,-722 497.857,-762.414 492.504,-811.756 490.961,-848.067"/>
<polygon fill="none" stroke="#404040" points="490.952,-848.338 494.755,-854.465 490.562,-860.332 486.759,-854.205 490.952,-848.338"/>
<text text-anchor="middle" x="531" y="-770.5" font-family="Helvetica,sans-Serif" font-size="10.00"> #target</text>
<text text-anchor="middle" x="531" y="-759.5" font-family="Helvetica,sans-Serif" font-size="10.00">#user</text>
</g>
<!-- Node9&#45;&gt;Node15 -->
<g id="edge21" class="edge"><title>Node9&#45;&gt;Node15</title>
<path fill="none" stroke="midnightblue" d="M592.683,-673.767C588.487,-689.819 584.428,-706.323 581,-722 568.672,-778.379 507.771,-1157.54 484.794,-1301.34"/>
<polygon fill="none" stroke="midnightblue" points="596.135,-674.405 595.31,-663.843 589.368,-672.615 596.135,-674.405"/>
</g>
<!-- Node10 -->
<g id="node9" class="node"><title>Node10</title>
<polygon fill="none" stroke="#bfbfbf" points="753.5,-1483.5 753.5,-1540.5 782.5,-1540.5 782.5,-1483.5 753.5,-1483.5"/>
<text text-anchor="middle" x="768" y="-1528.5" font-family="Helvetica,sans-Serif" font-size="10.00">int</text>
<polyline fill="none" stroke="#bfbfbf" points="753.5,-1521.5 782.5,-1521.5 "/>
<text text-anchor="middle" x="768" y="-1509.5" font-family="Helvetica,sans-Serif" font-size="10.00"> </text>
<polyline fill="none" stroke="#bfbfbf" points="753.5,-1502.5 782.5,-1502.5 "/>
<text text-anchor="middle" x="768" y="-1490.5" font-family="Helvetica,sans-Serif" font-size="10.00"> </text>
</g>
<!-- Node10&#45;&gt;Node2 -->
<g id="edge30" class="edge"><title>Node10&#45;&gt;Node2</title>
<path fill="none" stroke="#404040" d="M782.718,-1503.89C818.662,-1485.39 908,-1432 908,-1358.5 908,-1358.5 908,-1358.5 908,-1001 908,-651.966 830.462,-545.406 611,-274 586.162,-243.284 554.83,-213.037 526.7,-188.183"/>
<polygon fill="none" stroke="#404040" points="526.334,-187.863 519.184,-186.928 517.297,-179.968 524.448,-180.903 526.334,-187.863"/>
<text text-anchor="middle" x="935" y="-834" font-family="Helvetica,sans-Serif" font-size="10.00"> &#45;moneyReward</text>
</g>
<!-- Node10&#45;&gt;Node8 -->
<g id="edge27" class="edge"><title>Node10&#45;&gt;Node8</title>
<path fill="none" stroke="#404040" d="M779.492,-1483.49C811.808,-1402.47 898.431,-1157.94 856,-958 854.183,-949.436 850.859,-948.275 848,-940 815.367,-845.554 825.852,-816.37 793,-722 786.591,-703.589 783.343,-699.619 775,-682 733.149,-593.617 735.843,-563.106 677,-485 659.037,-461.157 634.705,-438.409 613.883,-420.942"/>
<polygon fill="none" stroke="#404040" points="613.866,-420.927 606.691,-420.204 604.599,-413.303 611.774,-414.026 613.866,-420.927"/>
<text text-anchor="middle" x="871" y="-897.5" font-family="Helvetica,sans-Serif" font-size="10.00"> &#45;expGiven</text>
</g>
<!-- Node10&#45;&gt;Node9 -->
<g id="edge10" class="edge"><title>Node10&#45;&gt;Node9</title>
<path fill="none" stroke="#404040" d="M768.628,-1483.15C771.701,-1345.07 784.71,-739.817 777,-722 756.972,-675.716 714.324,-637.327 678.675,-611.473"/>
<polygon fill="none" stroke="#404040" points="678.631,-611.442 671.423,-611.246 668.831,-604.517 676.039,-604.712 678.631,-611.442"/>
<text text-anchor="middle" x="816.5" y="-1038" font-family="Helvetica,sans-Serif" font-size="10.00"> #speed</text>
<text text-anchor="middle" x="816.5" y="-1027" font-family="Helvetica,sans-Serif" font-size="10.00">#luck</text>
<text text-anchor="middle" x="816.5" y="-1016" font-family="Helvetica,sans-Serif" font-size="10.00">#health</text>
<text text-anchor="middle" x="816.5" y="-1005" font-family="Helvetica,sans-Serif" font-size="10.00">#magic</text>
<text text-anchor="middle" x="816.5" y="-994" font-family="Helvetica,sans-Serif" font-size="10.00">#maximumMagic</text>
<text text-anchor="middle" x="816.5" y="-983" font-family="Helvetica,sans-Serif" font-size="10.00">#attack</text>
<text text-anchor="middle" x="816.5" y="-972" font-family="Helvetica,sans-Serif" font-size="10.00">#defence</text>
<text text-anchor="middle" x="816.5" y="-961" font-family="Helvetica,sans-Serif" font-size="10.00">#level</text>
</g>
<!-- Node10&#45;&gt;Node11 -->
<g id="edge25" class="edge"><title>Node10&#45;&gt;Node11</title>
<path fill="none" stroke="#404040" d="M763.086,-1483.35C754.973,-1436.39 738.982,-1337.96 732,-1254 719.119,-1099.11 718.048,-915.563 718.457,-824.931"/>
<polygon fill="none" stroke="#404040" points="718.458,-824.772 714.491,-818.75 718.524,-812.772 722.491,-818.794 718.458,-824.772"/>
<text text-anchor="middle" x="749.5" y="-1156.5" font-family="Helvetica,sans-Serif" font-size="10.00"> #magic</text>
</g>
<!-- Node10&#45;&gt;Node13 -->
<g id="edge18" class="edge"><title>Node10&#45;&gt;Node13</title>
<path fill="none" stroke="#404040" d="M753.365,-1492.85C740.189,-1476.67 720.162,-1452.44 702,-1432 694.691,-1423.77 692.166,-1422.35 685,-1414 643.544,-1365.7 643.322,-1344.66 597,-1301 555.561,-1261.94 502.439,-1225.72 460.655,-1199.77"/>
<polygon fill="none" stroke="#404040" points="460.513,-1199.68 453.307,-1199.95 450.29,-1193.4 457.496,-1193.13 460.513,-1199.68"/>
<text text-anchor="middle" x="704.5" y="-1355" font-family="Helvetica,sans-Serif" font-size="10.00"> +money</text>
</g>
<!-- Node10&#45;&gt;Node15 -->
<g id="edge23" class="edge"><title>Node10&#45;&gt;Node15</title>
<path fill="none" stroke="#404040" d="M753.345,-1506.09C716.849,-1493.55 619.543,-1458.2 546,-1414 544.691,-1413.21 543.38,-1412.41 542.068,-1411.58"/>
<polygon fill="none" stroke="#404040" points="542.03,-1411.55 534.819,-1411.57 532.03,-1404.92 539.242,-1404.9 542.03,-1411.55"/>
<text text-anchor="middle" x="660.5" y="-1446" font-family="Helvetica,sans-Serif" font-size="10.00"> &#45;expToNextLevel</text>
<text text-anchor="middle" x="660.5" y="-1435" font-family="Helvetica,sans-Serif" font-size="10.00">&#45;exp</text>
</g>
<!-- Node11&#45;&gt;Node9 -->
<g id="edge11" class="edge"><title>Node11&#45;&gt;Node9</title>
<path fill="none" stroke="#404040" d="M696.271,-722.201C688.896,-707.827 680.393,-691.257 671.817,-674.541"/>
<polygon fill="none" stroke="#404040" points="671.659,-674.234 665.361,-670.722 666.181,-663.557 672.479,-667.07 671.659,-674.234"/>
<text text-anchor="middle" x="707.5" y="-696" font-family="Helvetica,sans-Serif" font-size="10.00"> #special1</text>
<text text-anchor="middle" x="707.5" y="-685" font-family="Helvetica,sans-Serif" font-size="10.00">#special2</text>
</g>
<!-- Node12&#45;&gt;Node2 -->
<g id="edge29" class="edge"><title>Node12&#45;&gt;Node2</title>
<path fill="none" stroke="#404040" d="M474.016,-860.404C464.289,-834.844 454,-800.292 454,-768.5 454,-768.5 454,-768.5 454,-386 454,-347.752 454,-306.303 454,-268.084"/>
<polygon fill="none" stroke="#404040" points="454,-267.797 450,-261.797 454,-255.797 458,-261.797 454,-267.797"/>
<text text-anchor="middle" x="481.5" y="-577.5" font-family="Helvetica,sans-Serif" font-size="10.00"> &#45;playerMove</text>
<text text-anchor="middle" x="481.5" y="-566.5" font-family="Helvetica,sans-Serif" font-size="10.00">&#45;enemyMove</text>
</g>
<!-- Node12&#45;&gt;Node11 -->
<g id="edge12" class="edge"><title>Node12&#45;&gt;Node11</title>
<path fill="none" stroke="midnightblue" d="M543.448,-875.244C577.49,-859.119 622.358,-836.519 660,-813 663.264,-810.96 666.574,-808.788 669.873,-806.541"/>
<polygon fill="none" stroke="midnightblue" points="541.709,-872.194 534.148,-879.616 544.687,-878.529 541.709,-872.194"/>
</g>
<!-- Node13&#45;&gt;Node2 -->
<g id="edge39" class="edge"><title>Node13&#45;&gt;Node2</title>
<path fill="none" stroke="#404040" d="M355.132,-1064.2C329.483,-995.591 296.361,-899.742 276,-813 264.825,-765.393 264.341,-752.787 261,-704 254.425,-608 270.176,-360.66 312,-274 328.234,-240.363 355.37,-209.722 381.597,-185.362"/>
<polygon fill="none" stroke="#404040" points="381.922,-185.068 383.684,-178.076 390.817,-177.013 389.054,-184.005 381.922,-185.068"/>
<text text-anchor="middle" x="284.5" y="-690.5" font-family="Helvetica,sans-Serif" font-size="10.00"> +manager</text>
</g>
<!-- Node13&#45;&gt;Node12 -->
<g id="edge15" class="edge"><title>Node13&#45;&gt;Node12</title>
<path fill="none" stroke="#404040" d="M428.021,-1064.49C442.793,-1026.14 459.298,-983.296 471.705,-951.088"/>
<polygon fill="none" stroke="#404040" points="471.766,-950.93 470.19,-943.893 476.08,-939.732 477.656,-946.769 471.766,-950.93"/>
<text text-anchor="middle" x="491" y="-999.5" font-family="Helvetica,sans-Serif" font-size="10.00"> #manager</text>
</g>
<!-- Node14 -->
<g id="node13" class="node"><title>Node14</title>
<polygon fill="none" stroke="#bfbfbf" points="182.5,-1329 182.5,-1386 217.5,-1386 217.5,-1329 182.5,-1329"/>
<text text-anchor="middle" x="200" y="-1374" font-family="Helvetica,sans-Serif" font-size="10.00">bool</text>
<polyline fill="none" stroke="#bfbfbf" points="182.5,-1367 217.5,-1367 "/>
<text text-anchor="middle" x="200" y="-1355" font-family="Helvetica,sans-Serif" font-size="10.00"> </text>
<polyline fill="none" stroke="#bfbfbf" points="182.5,-1348 217.5,-1348 "/>
<text text-anchor="middle" x="200" y="-1336" font-family="Helvetica,sans-Serif" font-size="10.00"> </text>
</g>
<!-- Node14&#45;&gt;Node2 -->
<g id="edge37" class="edge"><title>Node14&#45;&gt;Node2</title>
<path fill="none" stroke="#404040" d="M198.073,-1328.6C188.473,-1186.66 147.499,-543.676 179,-347 184.401,-313.277 181.464,-300.507 203,-274 249.091,-217.269 323.677,-178.237 379.589,-155.082"/>
<polygon fill="none" stroke="#404040" points="379.739,-155.021 383.801,-149.063 390.863,-150.522 386.801,-156.48 379.739,-155.021"/>
<text text-anchor="middle" x="201.5" y="-770.5" font-family="Helvetica,sans-Serif" font-size="10.00"> +playerDied</text>
<text text-anchor="middle" x="201.5" y="-759.5" font-family="Helvetica,sans-Serif" font-size="10.00">&#45;moveChosen</text>
</g>
<!-- Node14&#45;&gt;Node13 -->
<g id="edge19" class="edge"><title>Node14&#45;&gt;Node13</title>
<path fill="none" stroke="#404040" d="M217.719,-1338.37C242.057,-1313.46 287.167,-1267.29 325.394,-1228.17"/>
<polygon fill="none" stroke="#404040" points="325.551,-1228.01 326.884,-1220.92 333.938,-1219.42 332.606,-1226.51 325.551,-1228.01"/>
<text text-anchor="middle" x="312" y="-1275" font-family="Helvetica,sans-Serif" font-size="10.00"> &#45;wasCriticalHit</text>
</g>
<!-- Node15&#45;&gt;Node2 -->
<g id="edge40" class="edge"><title>Node15&#45;&gt;Node2</title>
<path fill="none" stroke="#404040" d="M419.834,-1330.69C387.73,-1313.26 349.169,-1287.35 325,-1254 299.495,-1218.8 298,-1203.47 298,-1160 298,-1160 298,-1160 298,-835.5 298,-726.448 369.766,-440.309 415.946,-267.474"/>
<polygon fill="none" stroke="#404040" points="415.983,-267.335 413.672,-260.505 419.088,-255.744 421.399,-262.574 415.983,-267.335"/>
<text text-anchor="middle" x="339" y="-770.5" font-family="Helvetica,sans-Serif" font-size="10.00"> &#45;playerArray</text>
<text text-anchor="middle" x="339" y="-759.5" font-family="Helvetica,sans-Serif" font-size="10.00">+player</text>
</g>
<!-- Node15&#45;&gt;Node13 -->
<g id="edge20" class="edge"><title>Node15&#45;&gt;Node13</title>
<path fill="none" stroke="#404040" d="M452.378,-1301.24C447.461,-1289.74 442.126,-1277.26 436.73,-1264.64"/>
<polygon fill="none" stroke="#404040" points="436.699,-1264.56 430.663,-1260.62 431.982,-1253.53 438.019,-1257.48 436.699,-1264.56"/>
<text text-anchor="middle" x="460.5" y="-1275" font-family="Helvetica,sans-Serif" font-size="10.00"> &#45;player</text>
</g>
<!-- Node16 -->
<g id="node15" class="node"><title>Node16</title>
<polygon fill="none" stroke="#bfbfbf" points="590.5,-739 590.5,-796 651.5,-796 651.5,-739 590.5,-739"/>
<text text-anchor="middle" x="621" y="-784" font-family="Helvetica,sans-Serif" font-size="10.00">Texture2D</text>
<polyline fill="none" stroke="#bfbfbf" points="590.5,-777 651.5,-777 "/>
<text text-anchor="middle" x="621" y="-765" font-family="Helvetica,sans-Serif" font-size="10.00"> </text>
<polyline fill="none" stroke="#bfbfbf" points="590.5,-758 651.5,-758 "/>
<text text-anchor="middle" x="621" y="-746" font-family="Helvetica,sans-Serif" font-size="10.00"> </text>
</g>
<!-- Node16&#45;&gt;Node9 -->
<g id="edge26" class="edge"><title>Node16&#45;&gt;Node9</title>
<path fill="none" stroke="#404040" d="M621,-738.727C621,-721.811 621,-699.053 621,-675.91"/>
<polygon fill="none" stroke="#404040" points="621,-675.802 617,-669.802 621,-663.802 625,-669.802 621,-675.802"/>
<text text-anchor="middle" x="638.5" y="-690.5" font-family="Helvetica,sans-Serif" font-size="10.00"> #image</text>
</g>
<!-- Node17 -->
<g id="node16" class="node"><title>Node17</title>
<polygon fill="none" stroke="#bfbfbf" points="917.5,-358.5 917.5,-415.5 960.5,-415.5 960.5,-358.5 917.5,-358.5"/>
<text text-anchor="middle" x="939" y="-403.5" font-family="Helvetica,sans-Serif" font-size="10.00">Image</text>
<polyline fill="none" stroke="#bfbfbf" points="917.5,-396.5 960.5,-396.5 "/>
<text text-anchor="middle" x="939" y="-384.5" font-family="Helvetica,sans-Serif" font-size="10.00"> </text>
<polyline fill="none" stroke="#bfbfbf" points="917.5,-377.5 960.5,-377.5 "/>
<text text-anchor="middle" x="939" y="-365.5" font-family="Helvetica,sans-Serif" font-size="10.00"> </text>
</g>
<!-- Node17&#45;&gt;Node2 -->
<g id="edge28" class="edge"><title>Node17&#45;&gt;Node2</title>
<path fill="none" stroke="#404040" d="M931.29,-358.375C922.379,-327.234 908.154,-280.117 902,-274 800.386,-172.999 627.94,-142.33 529.265,-133.032"/>
<polygon fill="none" stroke="#404040" points="528.974,-133.006 522.646,-136.464 517.021,-131.952 523.349,-128.495 528.974,-133.006"/>
<text text-anchor="middle" x="953.5" y="-304.5" font-family="Helvetica,sans-Serif" font-size="10.00"> &#45;enemySprite</text>
<text text-anchor="middle" x="953.5" y="-293.5" font-family="Helvetica,sans-Serif" font-size="10.00">&#45;playerSprite</text>
</g>
<!-- Node18&#45;&gt;Node2 -->
<g id="edge31" class="edge"><title>Node18&#45;&gt;Node2</title>
<path fill="none" stroke="#404040" d="M1013.47,-347.307C1004.15,-317.065 991.663,-279.286 986,-274 858.377,-154.891 642.631,-131.897 529.064,-128.524"/>
<polygon fill="none" stroke="#404040" points="529.062,-128.524 522.966,-132.376 517.066,-128.23 523.162,-124.378 529.062,-128.524"/>
<text text-anchor="middle" x="1046" y="-321" font-family="Helvetica,sans-Serif" font-size="10.00"> &#45;expBar</text>
<text text-anchor="middle" x="1046" y="-310" font-family="Helvetica,sans-Serif" font-size="10.00">&#45;enemyMagicBar</text>
<text text-anchor="middle" x="1046" y="-299" font-family="Helvetica,sans-Serif" font-size="10.00">&#45;enemyHealthBar</text>
<text text-anchor="middle" x="1046" y="-288" font-family="Helvetica,sans-Serif" font-size="10.00">&#45;playerMagicBar</text>
<text text-anchor="middle" x="1046" y="-277" font-family="Helvetica,sans-Serif" font-size="10.00">&#45;playerHealthBar</text>
</g>
<!-- Node19 -->
<g id="node18" class="node"><title>Node19</title>
<polygon fill="none" stroke="#bfbfbf" points="1043,-546 1043,-603 1123,-603 1123,-546 1043,-546"/>
<text text-anchor="middle" x="1083" y="-591" font-family="Helvetica,sans-Serif" font-size="10.00">RectTransform</text>
<polyline fill="none" stroke="#bfbfbf" points="1043,-584 1123,-584 "/>
<text text-anchor="middle" x="1083" y="-572" font-family="Helvetica,sans-Serif" font-size="10.00"> </text>
<polyline fill="none" stroke="#bfbfbf" points="1043,-565 1123,-565 "/>
<text text-anchor="middle" x="1083" y="-553" font-family="Helvetica,sans-Serif" font-size="10.00"> </text>
</g>
<!-- Node19&#45;&gt;Node18 -->
<g id="edge34" class="edge"><title>Node19&#45;&gt;Node18</title>
<path fill="none" stroke="#404040" d="M1074.32,-545.729C1065.47,-517.43 1051.55,-472.913 1040.75,-438.379"/>
<polygon fill="none" stroke="#404040" points="1040.66,-438.076 1035.05,-433.544 1037.08,-426.623 1042.68,-431.156 1040.66,-438.076"/>
<text text-anchor="middle" x="1060.5" y="-453.5" font-family="Helvetica,sans-Serif" font-size="10.00"> &#45;rect</text>
</g>
<!-- Node20 -->
<g id="node19" class="node"><title>Node20</title>
<polygon fill="none" stroke="#bfbfbf" points="1141.5,-546 1141.5,-603 1210.5,-603 1210.5,-546 1141.5,-546"/>
<text text-anchor="middle" x="1176" y="-591" font-family="Helvetica,sans-Serif" font-size="10.00">UnityEngine</text>
<polyline fill="none" stroke="#bfbfbf" points="1141.5,-584 1210.5,-584 "/>
<text text-anchor="middle" x="1176" y="-572" font-family="Helvetica,sans-Serif" font-size="10.00"> </text>
<polyline fill="none" stroke="#bfbfbf" points="1141.5,-565 1210.5,-565 "/>
<text text-anchor="middle" x="1176" y="-553" font-family="Helvetica,sans-Serif" font-size="10.00"> </text>
</g>
<!-- Node20&#45;&gt;Node18 -->
<g id="edge35" class="edge"><title>Node20&#45;&gt;Node18</title>
<path fill="none" stroke="#404040" d="M1165.34,-545.659C1157.62,-527.421 1146.08,-503.607 1132,-485 1117.37,-465.677 1098.54,-447.118 1080.76,-431.5"/>
<polygon fill="none" stroke="#404040" points="1080.69,-431.436 1073.53,-430.558 1071.59,-423.613 1078.74,-424.492 1080.69,-431.436"/>
<text text-anchor="middle" x="1144.5" y="-453.5" font-family="Helvetica,sans-Serif" font-size="10.00"> &#45;textDisplay</text>
</g>
<!-- Node21 -->
<g id="node20" class="node"><title>Node21</title>
<polygon fill="none" stroke="#bfbfbf" points="1232.5,-546 1232.5,-603 1267.5,-603 1267.5,-546 1232.5,-546"/>
<text text-anchor="middle" x="1250" y="-591" font-family="Helvetica,sans-Serif" font-size="10.00">float</text>
<polyline fill="none" stroke="#bfbfbf" points="1232.5,-584 1267.5,-584 "/>
<text text-anchor="middle" x="1250" y="-572" font-family="Helvetica,sans-Serif" font-size="10.00"> </text>
<polyline fill="none" stroke="#bfbfbf" points="1232.5,-565 1267.5,-565 "/>
<text text-anchor="middle" x="1250" y="-553" font-family="Helvetica,sans-Serif" font-size="10.00"> </text>
</g>
<!-- Node21&#45;&gt;Node18 -->
<g id="edge36" class="edge"><title>Node21&#45;&gt;Node18</title>
<path fill="none" stroke="#404040" d="M1244.47,-545.962C1239.91,-527.631 1232.18,-503.592 1220,-485 1205.52,-462.892 1199.66,-456.77 1176,-445 1140.32,-427.253 1122.93,-441.202 1082.92,-427.404"/>
<polygon fill="none" stroke="#404040" points="1082.81,-427.359 1075.76,-428.905 1071.63,-422.998 1078.67,-421.452 1082.81,-427.359"/>
<text text-anchor="middle" x="1236.5" y="-459" font-family="Helvetica,sans-Serif" font-size="10.00"> &#45;widthPerUnit</text>
<text text-anchor="middle" x="1236.5" y="-448" font-family="Helvetica,sans-Serif" font-size="10.00">&#45;initialWidth</text>
</g>
<!-- Node22 -->
<g id="node21" class="node"><title>Node22</title>
<polygon fill="none" stroke="#bfbfbf" points="1089.5,-358.5 1089.5,-415.5 1124.5,-415.5 1124.5,-358.5 1089.5,-358.5"/>
<text text-anchor="middle" x="1107" y="-403.5" font-family="Helvetica,sans-Serif" font-size="10.00">Text</text>
<polyline fill="none" stroke="#bfbfbf" points="1089.5,-396.5 1124.5,-396.5 "/>
<text text-anchor="middle" x="1107" y="-384.5" font-family="Helvetica,sans-Serif" font-size="10.00"> </text>
<polyline fill="none" stroke="#bfbfbf" points="1089.5,-377.5 1124.5,-377.5 "/>
<text text-anchor="middle" x="1107" y="-365.5" font-family="Helvetica,sans-Serif" font-size="10.00"> </text>
</g>
<!-- Node22&#45;&gt;Node2 -->
<g id="edge38" class="edge"><title>Node22&#45;&gt;Node2</title>
<path fill="none" stroke="#404040" d="M1109.4,-358.246C1109.97,-332.937 1106.51,-296.205 1085,-274 1008.41,-194.928 679.636,-151.972 529.41,-136.154"/>
<polygon fill="none" stroke="#404040" points="529.109,-136.123 522.728,-139.482 517.173,-134.884 523.554,-131.525 529.109,-136.123"/>
<text text-anchor="middle" x="1128" y="-299" font-family="Helvetica,sans-Serif" font-size="10.00"> &#45;textBox</text>
</g>
<!-- Node23 -->
<g id="node22" class="node"><title>Node23</title>
<polygon fill="none" stroke="#bfbfbf" points="1147.5,-358.5 1147.5,-415.5 1192.5,-415.5 1192.5,-358.5 1147.5,-358.5"/>
<text text-anchor="middle" x="1170" y="-403.5" font-family="Helvetica,sans-Serif" font-size="10.00">Button</text>
<polyline fill="none" stroke="#bfbfbf" points="1147.5,-396.5 1192.5,-396.5 "/>
<text text-anchor="middle" x="1170" y="-384.5" font-family="Helvetica,sans-Serif" font-size="10.00"> </text>
<polyline fill="none" stroke="#bfbfbf" points="1147.5,-377.5 1192.5,-377.5 "/>
<text text-anchor="middle" x="1170" y="-365.5" font-family="Helvetica,sans-Serif" font-size="10.00"> </text>
</g>
<!-- Node23&#45;&gt;Node2 -->
<g id="edge41" class="edge"><title>Node23&#45;&gt;Node2</title>
<path fill="none" stroke="#404040" d="M1172.5,-358.148C1173.14,-332.769 1169.73,-295.99 1148,-274 1061.95,-186.906 690.525,-147.609 529.234,-134.419"/>
<polygon fill="none" stroke="#404040" points="529.026,-134.402 522.725,-137.909 517.065,-133.441 523.366,-129.934 529.026,-134.402"/>
<text text-anchor="middle" x="1199.5" y="-310" font-family="Helvetica,sans-Serif" font-size="10.00"> &#45;runButton</text>
<text text-anchor="middle" x="1199.5" y="-299" font-family="Helvetica,sans-Serif" font-size="10.00">&#45;playerButton</text>
<text text-anchor="middle" x="1199.5" y="-288" font-family="Helvetica,sans-Serif" font-size="10.00">&#45;attackButton</text>
</g>
</g>
</svg>
