<?xml version="1.0" encoding="UTF-8" standalone="no"?>
<!DOCTYPE svg PUBLIC "-//W3C//DTD SVG 1.1//EN"
 "http://www.w3.org/Graphics/SVG/1.1/DTD/svg11.dtd">
<!-- Generated by graphviz version 2.38.0 (20140413.2041)
 -->
<!-- Title: DialogueScript Pages: 1 -->
<svg width="598pt" height="419pt"
 viewBox="0.00 0.00 598.00 419.00" xmlns="http://www.w3.org/2000/svg" xmlns:xlink="http://www.w3.org/1999/xlink">
<g id="graph0" class="graph" transform="scale(1 1) rotate(0) translate(4 415)">
<title>DialogueScript</title>
<!-- Node2 -->
<g id="node1" class="node"><title>Node2</title>
<polygon fill="#bfbfbf" stroke="black" points="200,-0.5 200,-134.5 299,-134.5 299,-0.5 200,-0.5"/>
<text text-anchor="middle" x="249.5" y="-122.5" font-family="Helvetica,sans-Serif" font-size="10.00">DialogueScript</text>
<polyline fill="none" stroke="black" points="200,-115.5 299,-115.5 "/>
<text text-anchor="middle" x="249.5" y="-103.5" font-family="Helvetica,sans-Serif" font-size="10.00"> </text>
<polyline fill="none" stroke="black" points="200,-96.5 299,-96.5 "/>
<text text-anchor="start" x="208" y="-84.5" font-family="Helvetica,sans-Serif" font-size="10.00">+ showDialogue()</text>
<text text-anchor="start" x="208" y="-73.5" font-family="Helvetica,sans-Serif" font-size="10.00">&#45; Start()</text>
<text text-anchor="start" x="208" y="-62.5" font-family="Helvetica,sans-Serif" font-size="10.00">&#45; Update()</text>
<text text-anchor="start" x="208" y="-51.5" font-family="Helvetica,sans-Serif" font-size="10.00">&#45; keyPress()</text>
<text text-anchor="start" x="208" y="-40.5" font-family="Helvetica,sans-Serif" font-size="10.00">&#45; showLine()</text>
<text text-anchor="start" x="208" y="-29.5" font-family="Helvetica,sans-Serif" font-size="10.00">&#45; setInactive()</text>
<text text-anchor="start" x="208" y="-18.5" font-family="Helvetica,sans-Serif" font-size="10.00">&#45; delaySetInactive()</text>
<text text-anchor="start" x="208" y="-7.5" font-family="Helvetica,sans-Serif" font-size="10.00">&#45; delaySetActive()</text>
</g>
<!-- Node3 -->
<g id="node2" class="node"><title>Node3</title>
<g id="a_node2"><a xlink:href="class_mono_behaviour.html" target="_top" xlink:title="{MonoBehaviour\n||}">
<polygon fill="none" stroke="black" points="0,-353.5 0,-410.5 83,-410.5 83,-353.5 0,-353.5"/>
<text text-anchor="middle" x="41.5" y="-398.5" font-family="Helvetica,sans-Serif" font-size="10.00">MonoBehaviour</text>
<polyline fill="none" stroke="black" points="0,-391.5 83,-391.5 "/>
<text text-anchor="middle" x="41.5" y="-379.5" font-family="Helvetica,sans-Serif" font-size="10.00"> </text>
<polyline fill="none" stroke="black" points="0,-372.5 83,-372.5 "/>
<text text-anchor="middle" x="41.5" y="-360.5" font-family="Helvetica,sans-Serif" font-size="10.00"> </text>
</a>
</g>
</g>
<!-- Node3&#45;&gt;Node2 -->
<g id="edge1" class="edge"><title>Node3&#45;&gt;Node2</title>
<path fill="none" stroke="midnightblue" d="M32.7286,-343.378C25.0105,-300.994 19.0711,-231.568 48.5,-182 81.234,-126.865 151.566,-96.313 199.712,-81.1521"/>
<polygon fill="none" stroke="midnightblue" points="29.3104,-344.136 34.6552,-353.284 36.1816,-342.799 29.3104,-344.136"/>
</g>
<!-- Node7 -->
<g id="node6" class="node"><title>Node7</title>
<g id="a_node6"><a xlink:href="class_player_movement.html" target="_top" xlink:title="{PlayerMovement\n||+ move()\l+ setCanMove()\l&#45; Start()\l&#45; FixedUpdate()\l&#45; walkAnimation()\l&#45; setIdle()\l}">
<polygon fill="none" stroke="black" points="274.5,-182.5 274.5,-294.5 366.5,-294.5 366.5,-182.5 274.5,-182.5"/>
<text text-anchor="middle" x="320.5" y="-282.5" font-family="Helvetica,sans-Serif" font-size="10.00">PlayerMovement</text>
<polyline fill="none" stroke="black" points="274.5,-275.5 366.5,-275.5 "/>
<text text-anchor="middle" x="320.5" y="-263.5" font-family="Helvetica,sans-Serif" font-size="10.00"> </text>
<polyline fill="none" stroke="black" points="274.5,-256.5 366.5,-256.5 "/>
<text text-anchor="start" x="282.5" y="-244.5" font-family="Helvetica,sans-Serif" font-size="10.00">+ move()</text>
<text text-anchor="start" x="282.5" y="-233.5" font-family="Helvetica,sans-Serif" font-size="10.00">+ setCanMove()</text>
<text text-anchor="start" x="282.5" y="-222.5" font-family="Helvetica,sans-Serif" font-size="10.00">&#45; Start()</text>
<text text-anchor="start" x="282.5" y="-211.5" font-family="Helvetica,sans-Serif" font-size="10.00">&#45; FixedUpdate()</text>
<text text-anchor="start" x="282.5" y="-200.5" font-family="Helvetica,sans-Serif" font-size="10.00">&#45; walkAnimation()</text>
<text text-anchor="start" x="282.5" y="-189.5" font-family="Helvetica,sans-Serif" font-size="10.00">&#45; setIdle()</text>
</a>
</g>
</g>
<!-- Node3&#45;&gt;Node7 -->
<g id="edge6" class="edge"><title>Node3&#45;&gt;Node7</title>
<path fill="none" stroke="midnightblue" d="M87.6134,-347.803C107.351,-335.072 131.191,-321.56 154.5,-313 201.002,-295.922 220.367,-317.504 264.5,-295 267.914,-293.259 271.252,-291.235 274.488,-289.01"/>
<polygon fill="none" stroke="midnightblue" points="85.5629,-344.962 79.1355,-353.385 89.4124,-350.809 85.5629,-344.962"/>
</g>
<!-- Node4 -->
<g id="node3" class="node"><title>Node4</title>
<polygon fill="none" stroke="#bfbfbf" points="57.5,-210 57.5,-267 107.5,-267 107.5,-210 57.5,-210"/>
<text text-anchor="middle" x="82.5" y="-255" font-family="Helvetica,sans-Serif" font-size="10.00">string []</text>
<polyline fill="none" stroke="#bfbfbf" points="57.5,-248 107.5,-248 "/>
<text text-anchor="middle" x="82.5" y="-236" font-family="Helvetica,sans-Serif" font-size="10.00"> </text>
<polyline fill="none" stroke="#bfbfbf" points="57.5,-229 107.5,-229 "/>
<text text-anchor="middle" x="82.5" y="-217" font-family="Helvetica,sans-Serif" font-size="10.00"> </text>
</g>
<!-- Node4&#45;&gt;Node2 -->
<g id="edge2" class="edge"><title>Node4&#45;&gt;Node2</title>
<path fill="none" stroke="#404040" d="M85.4797,-209.64C88.5645,-191.912 94.8236,-169.305 107.5,-153 128.407,-126.108 160.468,-105.983 188.839,-92.1341"/>
<polygon fill="none" stroke="#404040" points="189.04,-92.0399 192.777,-85.8724 199.907,-86.9495 196.17,-93.117 189.04,-92.0399"/>
<text text-anchor="middle" x="140.5" y="-156" font-family="Helvetica,sans-Serif" font-size="10.00"> &#45;dialogueLines</text>
</g>
<!-- Node5 -->
<g id="node4" class="node"><title>Node5</title>
<polygon fill="none" stroke="#bfbfbf" points="131,-210 131,-267 202,-267 202,-210 131,-210"/>
<text text-anchor="middle" x="166.5" y="-255" font-family="Helvetica,sans-Serif" font-size="10.00">GameObject</text>
<polyline fill="none" stroke="#bfbfbf" points="131,-248 202,-248 "/>
<text text-anchor="middle" x="166.5" y="-236" font-family="Helvetica,sans-Serif" font-size="10.00"> </text>
<polyline fill="none" stroke="#bfbfbf" points="131,-229 202,-229 "/>
<text text-anchor="middle" x="166.5" y="-217" font-family="Helvetica,sans-Serif" font-size="10.00"> </text>
</g>
<!-- Node5&#45;&gt;Node2 -->
<g id="edge3" class="edge"><title>Node5&#45;&gt;Node2</title>
<path fill="none" stroke="#404040" d="M167.92,-209.832C169.627,-192.811 173.361,-170.904 181.5,-153 184.671,-146.025 188.551,-139.133 192.836,-132.473"/>
<polygon fill="none" stroke="#404040" points="193.076,-132.122 193.167,-124.911 199.857,-122.221 199.767,-129.431 193.076,-132.122"/>
<text text-anchor="middle" x="211.5" y="-156" font-family="Helvetica,sans-Serif" font-size="10.00"> &#45;dialogueBox</text>
</g>
<!-- Node6 -->
<g id="node5" class="node"><title>Node6</title>
<polygon fill="none" stroke="#bfbfbf" points="227,-210 227,-267 256,-267 256,-210 227,-210"/>
<text text-anchor="middle" x="241.5" y="-255" font-family="Helvetica,sans-Serif" font-size="10.00">int</text>
<polyline fill="none" stroke="#bfbfbf" points="227,-248 256,-248 "/>
<text text-anchor="middle" x="241.5" y="-236" font-family="Helvetica,sans-Serif" font-size="10.00"> </text>
<polyline fill="none" stroke="#bfbfbf" points="227,-229 256,-229 "/>
<text text-anchor="middle" x="241.5" y="-217" font-family="Helvetica,sans-Serif" font-size="10.00"> </text>
</g>
<!-- Node6&#45;&gt;Node2 -->
<g id="edge4" class="edge"><title>Node6&#45;&gt;Node2</title>
<path fill="none" stroke="#404040" d="M242.803,-209.971C243.621,-192.687 244.721,-169.452 245.793,-146.811"/>
<polygon fill="none" stroke="#404040" points="245.799,-146.687 242.087,-140.504 246.366,-134.7 250.078,-140.883 245.799,-146.687"/>
<text text-anchor="middle" x="284.5" y="-156" font-family="Helvetica,sans-Serif" font-size="10.00"> &#45;currentLineIndex</text>
</g>
<!-- Node7&#45;&gt;Node2 -->
<g id="edge5" class="edge"><title>Node7&#45;&gt;Node2</title>
<path fill="none" stroke="#404040" d="M332.185,-182.354C332.323,-172.351 331.091,-162.186 327.5,-153 322.769,-140.899 315.402,-129.49 307.046,-119.203"/>
<polygon fill="none" stroke="#404040" points="307.001,-119.151 300.049,-117.237 299.142,-110.084 306.094,-111.997 307.001,-119.151"/>
<text text-anchor="middle" x="369.5" y="-156" font-family="Helvetica,sans-Serif" font-size="10.00"> &#45;movementScript</text>
</g>
<!-- Node8 -->
<g id="node7" class="node"><title>Node8</title>
<polygon fill="none" stroke="#bfbfbf" points="113,-353.5 113,-410.5 154,-410.5 154,-353.5 113,-353.5"/>
<text text-anchor="middle" x="133.5" y="-398.5" font-family="Helvetica,sans-Serif" font-size="10.00">string</text>
<polyline fill="none" stroke="#bfbfbf" points="113,-391.5 154,-391.5 "/>
<text text-anchor="middle" x="133.5" y="-379.5" font-family="Helvetica,sans-Serif" font-size="10.00"> </text>
<polyline fill="none" stroke="#bfbfbf" points="113,-372.5 154,-372.5 "/>
<text text-anchor="middle" x="133.5" y="-360.5" font-family="Helvetica,sans-Serif" font-size="10.00"> </text>
</g>
<!-- Node8&#45;&gt;Node7 -->
<g id="edge7" class="edge"><title>Node8&#45;&gt;Node7</title>
<path fill="none" stroke="#404040" d="M146.296,-353.287C154.209,-339.142 165.699,-322.879 180.5,-313 209.404,-293.708 227.461,-309.675 263.243,-294.335"/>
<polygon fill="none" stroke="#404040" points="263.633,-294.142 267.232,-287.893 274.384,-288.813 270.785,-295.061 263.633,-294.142"/>
<text text-anchor="middle" x="203" y="-321.5" font-family="Helvetica,sans-Serif" font-size="10.00"> &#45;lastMove</text>
</g>
<!-- Node9 -->
<g id="node8" class="node"><title>Node9</title>
<polygon fill="none" stroke="#bfbfbf" points="172.5,-353.5 172.5,-410.5 228.5,-410.5 228.5,-353.5 172.5,-353.5"/>
<text text-anchor="middle" x="200.5" y="-398.5" font-family="Helvetica,sans-Serif" font-size="10.00">Animator</text>
<polyline fill="none" stroke="#bfbfbf" points="172.5,-391.5 228.5,-391.5 "/>
<text text-anchor="middle" x="200.5" y="-379.5" font-family="Helvetica,sans-Serif" font-size="10.00"> </text>
<polyline fill="none" stroke="#bfbfbf" points="172.5,-372.5 228.5,-372.5 "/>
<text text-anchor="middle" x="200.5" y="-360.5" font-family="Helvetica,sans-Serif" font-size="10.00"> </text>
</g>
<!-- Node9&#45;&gt;Node7 -->
<g id="edge8" class="edge"><title>Node9&#45;&gt;Node7</title>
<path fill="none" stroke="#404040" d="M216.888,-353.184C224.887,-340.456 235.031,-325.467 245.5,-313 252.98,-304.092 256.146,-303.095 264.5,-295 264.905,-294.607 265.312,-294.212 265.721,-293.816"/>
<polygon fill="none" stroke="#404040" points="265.846,-293.694 267.348,-286.641 274.436,-285.316 272.934,-292.368 265.846,-293.694"/>
<text text-anchor="middle" x="259.5" y="-321.5" font-family="Helvetica,sans-Serif" font-size="10.00"> &#45;anim</text>
</g>
<!-- Node10 -->
<g id="node9" class="node"><title>Node10</title>
<polygon fill="none" stroke="#bfbfbf" points="247,-353.5 247,-410.5 282,-410.5 282,-353.5 247,-353.5"/>
<text text-anchor="middle" x="264.5" y="-398.5" font-family="Helvetica,sans-Serif" font-size="10.00">float</text>
<polyline fill="none" stroke="#bfbfbf" points="247,-391.5 282,-391.5 "/>
<text text-anchor="middle" x="264.5" y="-379.5" font-family="Helvetica,sans-Serif" font-size="10.00"> </text>
<polyline fill="none" stroke="#bfbfbf" points="247,-372.5 282,-372.5 "/>
<text text-anchor="middle" x="264.5" y="-360.5" font-family="Helvetica,sans-Serif" font-size="10.00"> </text>
</g>
<!-- Node10&#45;&gt;Node7 -->
<g id="edge9" class="edge"><title>Node10&#45;&gt;Node7</title>
<path fill="none" stroke="#404040" d="M270.895,-353.472C274.135,-340.941 278.454,-326.031 283.5,-313 284.407,-310.658 285.363,-308.291 286.359,-305.914"/>
<polygon fill="none" stroke="#404040" points="286.43,-305.753 285.182,-298.65 291.259,-294.767 292.506,-301.87 286.43,-305.753"/>
<text text-anchor="middle" x="300" y="-321.5" font-family="Helvetica,sans-Serif" font-size="10.00"> &#45;speed</text>
</g>
<!-- Node11 -->
<g id="node10" class="node"><title>Node11</title>
<polygon fill="none" stroke="#bfbfbf" points="406,-353.5 406,-410.5 441,-410.5 441,-353.5 406,-353.5"/>
<text text-anchor="middle" x="423.5" y="-398.5" font-family="Helvetica,sans-Serif" font-size="10.00">bool</text>
<polyline fill="none" stroke="#bfbfbf" points="406,-391.5 441,-391.5 "/>
<text text-anchor="middle" x="423.5" y="-379.5" font-family="Helvetica,sans-Serif" font-size="10.00"> </text>
<polyline fill="none" stroke="#bfbfbf" points="406,-372.5 441,-372.5 "/>
<text text-anchor="middle" x="423.5" y="-360.5" font-family="Helvetica,sans-Serif" font-size="10.00"> </text>
</g>
<!-- Node11&#45;&gt;Node2 -->
<g id="edge12" class="edge"><title>Node11&#45;&gt;Node2</title>
<path fill="none" stroke="#404040" d="M434.137,-353.126C435.949,-347.225 437.551,-340.973 438.5,-335 448.703,-270.799 449.127,-204.759 411.5,-153 387.201,-119.575 345.681,-98.2863 310.76,-85.4382"/>
<polygon fill="none" stroke="#404040" points="310.532,-85.3587 303.548,-87.1549 299.204,-81.3992 306.188,-79.6029 310.532,-85.3587"/>
<text text-anchor="middle" x="486.5" y="-241.5" font-family="Helvetica,sans-Serif" font-size="10.00"> +pseudoKeyPress</text>
<text text-anchor="middle" x="486.5" y="-230.5" font-family="Helvetica,sans-Serif" font-size="10.00">+dialogueActive</text>
</g>
<!-- Node11&#45;&gt;Node7 -->
<g id="edge10" class="edge"><title>Node11&#45;&gt;Node7</title>
<path fill="none" stroke="#404040" d="M405.844,-365.319C396.811,-356.827 385.967,-345.87 377.5,-335 370.203,-325.632 363.122,-315.253 356.575,-304.89"/>
<polygon fill="none" stroke="#404040" points="356.512,-304.787 349.959,-301.777 350.218,-294.571 356.77,-297.581 356.512,-304.787"/>
<text text-anchor="middle" x="408" y="-327" font-family="Helvetica,sans-Serif" font-size="10.00"> &#45;playerExists</text>
<text text-anchor="middle" x="408" y="-316" font-family="Helvetica,sans-Serif" font-size="10.00">&#45;canMove</text>
</g>
<!-- Node12 -->
<g id="node11" class="node"><title>Node12</title>
<polygon fill="none" stroke="#bfbfbf" points="300,-353.5 300,-410.5 359,-410.5 359,-353.5 300,-353.5"/>
<text text-anchor="middle" x="329.5" y="-398.5" font-family="Helvetica,sans-Serif" font-size="10.00">Transform</text>
<polyline fill="none" stroke="#bfbfbf" points="300,-391.5 359,-391.5 "/>
<text text-anchor="middle" x="329.5" y="-379.5" font-family="Helvetica,sans-Serif" font-size="10.00"> </text>
<polyline fill="none" stroke="#bfbfbf" points="300,-372.5 359,-372.5 "/>
<text text-anchor="middle" x="329.5" y="-360.5" font-family="Helvetica,sans-Serif" font-size="10.00"> </text>
</g>
<!-- Node12&#45;&gt;Node7 -->
<g id="edge11" class="edge"><title>Node12&#45;&gt;Node7</title>
<path fill="none" stroke="#404040" d="M323.948,-353.366C322.946,-347.337 322.047,-340.973 321.5,-335 320.669,-325.93 320.149,-316.356 319.844,-306.911"/>
<polygon fill="none" stroke="#404040" points="319.838,-306.619 315.7,-300.714 319.56,-294.622 323.698,-300.528 319.838,-306.619"/>
<text text-anchor="middle" x="338" y="-321.5" font-family="Helvetica,sans-Serif" font-size="10.00"> &#45;player</text>
</g>
<!-- Node13 -->
<g id="node12" class="node"><title>Node13</title>
<polygon fill="none" stroke="#bfbfbf" points="555,-210 555,-267 590,-267 590,-210 555,-210"/>
<text text-anchor="middle" x="572.5" y="-255" font-family="Helvetica,sans-Serif" font-size="10.00">Text</text>
<polyline fill="none" stroke="#bfbfbf" points="555,-248 590,-248 "/>
<text text-anchor="middle" x="572.5" y="-236" font-family="Helvetica,sans-Serif" font-size="10.00"> </text>
<polyline fill="none" stroke="#bfbfbf" points="555,-229 590,-229 "/>
<text text-anchor="middle" x="572.5" y="-217" font-family="Helvetica,sans-Serif" font-size="10.00"> </text>
</g>
<!-- Node13&#45;&gt;Node2 -->
<g id="edge13" class="edge"><title>Node13&#45;&gt;Node2</title>
<path fill="none" stroke="#404040" d="M561.177,-209.731C556.059,-199.917 549.183,-189.473 540.5,-182 473.699,-124.509 374.429,-94.2694 310.841,-79.8513"/>
<polygon fill="none" stroke="#404040" points="310.731,-79.8273 304.013,-82.4497 299.009,-77.2577 305.727,-74.6353 310.731,-79.8273"/>
<text text-anchor="middle" x="545" y="-156" font-family="Helvetica,sans-Serif" font-size="10.00"> &#45;dialogueText</text>
</g>
</g>
</svg>
