<?xml version="1.0" encoding="UTF-8" standalone="no"?>
<!DOCTYPE svg PUBLIC "-//W3C//DTD SVG 1.1//EN"
 "http://www.w3.org/Graphics/SVG/1.1/DTD/svg11.dtd">
<!-- Generated by graphviz version 2.38.0 (20140413.2041)
 -->
<!-- Title: Enemy Pages: 1 -->
<svg width="708pt" height="1138pt"
 viewBox="0.00 0.00 707.50 1138.00" xmlns="http://www.w3.org/2000/svg" xmlns:xlink="http://www.w3.org/1999/xlink">
<g id="graph0" class="graph" transform="scale(1 1) rotate(0) translate(4 1134)">
<title>Enemy</title>
<!-- Node2 -->
<g id="node1" class="node"><title>Node2</title>
<polygon fill="#bfbfbf" stroke="black" points="420,-967.5 420,-1024.5 487,-1024.5 487,-967.5 420,-967.5"/>
<text text-anchor="middle" x="453.5" y="-1012.5" font-family="Helvetica,sans-Serif" font-size="10.00">Enemy</text>
<polyline fill="none" stroke="black" points="420,-1005.5 487,-1005.5 "/>
<text text-anchor="start" x="428" y="-993.5" font-family="Helvetica,sans-Serif" font-size="10.00">+ ExpGiven</text>
<polyline fill="none" stroke="black" points="420,-986.5 487,-986.5 "/>
<text text-anchor="start" x="428" y="-974.5" font-family="Helvetica,sans-Serif" font-size="10.00">+ Enemy()</text>
</g>
<!-- Node8 -->
<g id="node7" class="node"><title>Node8</title>
<g id="a_node7"><a xlink:href="class_battle_manager.html" target="_top" xlink:title="Holds current Player and Enemy objects in battle and provides functions for MainBattle and other obje...">
<polygon fill="none" stroke="black" points="244.5,-719.5 244.5,-908.5 360.5,-908.5 360.5,-719.5 244.5,-719.5"/>
<text text-anchor="middle" x="302.5" y="-896.5" font-family="Helvetica,sans-Serif" font-size="10.00">BattleManager</text>
<polyline fill="none" stroke="black" points="244.5,-889.5 360.5,-889.5 "/>
<text text-anchor="start" x="252.5" y="-877.5" font-family="Helvetica,sans-Serif" font-size="10.00">+ Player</text>
<text text-anchor="start" x="252.5" y="-866.5" font-family="Helvetica,sans-Serif" font-size="10.00">+ Enemy</text>
<text text-anchor="start" x="252.5" y="-855.5" font-family="Helvetica,sans-Serif" font-size="10.00">+ WasCriticalHit</text>
<polyline fill="none" stroke="black" points="244.5,-848.5 360.5,-848.5 "/>
<text text-anchor="start" x="252.5" y="-836.5" font-family="Helvetica,sans-Serif" font-size="10.00">+ BattleManager()</text>
<text text-anchor="start" x="252.5" y="-825.5" font-family="Helvetica,sans-Serif" font-size="10.00">+ playerFirst()</text>
<text text-anchor="start" x="252.5" y="-814.5" font-family="Helvetica,sans-Serif" font-size="10.00">+ switchPlayers()</text>
<text text-anchor="start" x="252.5" y="-803.5" font-family="Helvetica,sans-Serif" font-size="10.00">+ isCriticalHit()</text>
<text text-anchor="start" x="252.5" y="-792.5" font-family="Helvetica,sans-Serif" font-size="10.00">+ ranAway()</text>
<text text-anchor="start" x="252.5" y="-781.5" font-family="Helvetica,sans-Serif" font-size="10.00">+ damageCalculation()</text>
<text text-anchor="start" x="252.5" y="-770.5" font-family="Helvetica,sans-Serif" font-size="10.00">+ enemyMove()</text>
<text text-anchor="start" x="252.5" y="-759.5" font-family="Helvetica,sans-Serif" font-size="10.00">+ enemySpecialMove()</text>
<text text-anchor="start" x="252.5" y="-748.5" font-family="Helvetica,sans-Serif" font-size="10.00">+ battleWon()</text>
<text text-anchor="start" x="252.5" y="-737.5" font-family="Helvetica,sans-Serif" font-size="10.00">+ playerFainted()</text>
<text text-anchor="start" x="252.5" y="-726.5" font-family="Helvetica,sans-Serif" font-size="10.00">&#45; characterFainted()</text>
</a>
</g>
</g>
<!-- Node2&#45;&gt;Node8 -->
<g id="edge10" class="edge"><title>Node2&#45;&gt;Node8</title>
<path fill="none" stroke="#404040" d="M434.157,-967.396C425.124,-954.849 414.055,-939.948 403.5,-927 392.545,-913.561 380.5,-899.581 368.661,-886.238"/>
<polygon fill="none" stroke="#404040" points="368.509,-886.067 361.528,-884.257 360.514,-877.118 367.495,-878.928 368.509,-886.067"/>
<text text-anchor="middle" x="439.5" y="-935.5" font-family="Helvetica,sans-Serif" font-size="10.00"> &#45;enemy</text>
</g>
<!-- Node3 -->
<g id="node2" class="node"><title>Node3</title>
<g id="a_node2"><a xlink:href="class_character.html" target="_top" xlink:title="Base abstract class for Enemy and Player to inherit from. Defines all shared variables, their constructor and their setters and getters ">
<polygon fill="none" stroke="black" points="253,-150.5 253,-328.5 348,-328.5 348,-150.5 253,-150.5"/>
<text text-anchor="middle" x="300.5" y="-316.5" font-family="Helvetica,sans-Serif" font-size="10.00">Character</text>
<polyline fill="none" stroke="black" points="253,-309.5 348,-309.5 "/>
<text text-anchor="start" x="261" y="-297.5" font-family="Helvetica,sans-Serif" font-size="10.00">+ Name</text>
<text text-anchor="start" x="261" y="-286.5" font-family="Helvetica,sans-Serif" font-size="10.00">+ Level</text>
<text text-anchor="start" x="261" y="-275.5" font-family="Helvetica,sans-Serif" font-size="10.00">+ Health</text>
<text text-anchor="start" x="261" y="-264.5" font-family="Helvetica,sans-Serif" font-size="10.00">+ Attack</text>
<text text-anchor="start" x="261" y="-253.5" font-family="Helvetica,sans-Serif" font-size="10.00">+ Defence</text>
<text text-anchor="start" x="261" y="-242.5" font-family="Helvetica,sans-Serif" font-size="10.00">+ MaximumMagic</text>
<text text-anchor="start" x="261" y="-231.5" font-family="Helvetica,sans-Serif" font-size="10.00">+ Magic</text>
<text text-anchor="start" x="261" y="-220.5" font-family="Helvetica,sans-Serif" font-size="10.00">+ Luck</text>
<text text-anchor="start" x="261" y="-209.5" font-family="Helvetica,sans-Serif" font-size="10.00">+ Speed</text>
<text text-anchor="start" x="261" y="-198.5" font-family="Helvetica,sans-Serif" font-size="10.00">+ Special1</text>
<text text-anchor="start" x="261" y="-187.5" font-family="Helvetica,sans-Serif" font-size="10.00">+ Special2</text>
<text text-anchor="start" x="261" y="-176.5" font-family="Helvetica,sans-Serif" font-size="10.00">+ Image</text>
<polyline fill="none" stroke="black" points="253,-169.5 348,-169.5 "/>
<text text-anchor="start" x="261" y="-157.5" font-family="Helvetica,sans-Serif" font-size="10.00"># Character()</text>
</a>
</g>
</g>
<!-- Node3&#45;&gt;Node2 -->
<g id="edge1" class="edge"><title>Node3&#45;&gt;Node2</title>
<path fill="none" stroke="midnightblue" d="M356.701,-274.486C393.482,-300.242 438.484,-339.301 459.5,-387 556.266,-606.63 461.056,-686.999 461.5,-927 461.518,-936.778 462.341,-939.258 461.5,-949 460.984,-954.976 460.098,-961.341 459.099,-967.37"/>
<polygon fill="none" stroke="midnightblue" points="358.259,-271.311 348.03,-268.55 354.305,-277.087 358.259,-271.311"/>
</g>
<!-- Node7 -->
<g id="node6" class="node"><title>Node7</title>
<g id="a_node6"><a xlink:href="class_character_move.html" target="_top" xlink:title="Astract base class for character moves ">
<polygon fill="none" stroke="black" points="258.5,-515.5 258.5,-594.5 344.5,-594.5 344.5,-515.5 258.5,-515.5"/>
<text text-anchor="middle" x="301.5" y="-582.5" font-family="Helvetica,sans-Serif" font-size="10.00">CharacterMove</text>
<polyline fill="none" stroke="black" points="258.5,-575.5 344.5,-575.5 "/>
<text text-anchor="start" x="266.5" y="-563.5" font-family="Helvetica,sans-Serif" font-size="10.00">+ User</text>
<text text-anchor="start" x="266.5" y="-552.5" font-family="Helvetica,sans-Serif" font-size="10.00">+ Target</text>
<text text-anchor="start" x="266.5" y="-541.5" font-family="Helvetica,sans-Serif" font-size="10.00">+ Text</text>
<polyline fill="none" stroke="black" points="258.5,-534.5 344.5,-534.5 "/>
<text text-anchor="start" x="266.5" y="-522.5" font-family="Helvetica,sans-Serif" font-size="10.00">+ performMove()</text>
</a>
</g>
</g>
<!-- Node3&#45;&gt;Node7 -->
<g id="edge7" class="edge"><title>Node3&#45;&gt;Node7</title>
<path fill="none" stroke="#404040" d="M300.781,-328.722C300.961,-385.077 301.188,-456.145 301.338,-503.225"/>
<polygon fill="none" stroke="#404040" points="301.338,-503.244 305.357,-509.232 301.376,-515.244 297.357,-509.257 301.338,-503.244"/>
<text text-anchor="middle" x="318.5" y="-435.5" font-family="Helvetica,sans-Serif" font-size="10.00"> #target</text>
<text text-anchor="middle" x="318.5" y="-424.5" font-family="Helvetica,sans-Serif" font-size="10.00">#user</text>
</g>
<!-- Node10 -->
<g id="node9" class="node"><title>Node10</title>
<g id="a_node9"><a xlink:href="class_player.html" target="_top" xlink:title="Defines a playable character for use in battle scenes">
<polygon fill="none" stroke="black" points="110.5,-0.5 110.5,-112.5 222.5,-112.5 222.5,-0.5 110.5,-0.5"/>
<text text-anchor="middle" x="166.5" y="-100.5" font-family="Helvetica,sans-Serif" font-size="10.00">Player</text>
<polyline fill="none" stroke="black" points="110.5,-93.5 222.5,-93.5 "/>
<text text-anchor="start" x="118.5" y="-81.5" font-family="Helvetica,sans-Serif" font-size="10.00">+ Exp</text>
<text text-anchor="start" x="118.5" y="-70.5" font-family="Helvetica,sans-Serif" font-size="10.00">+ Item</text>
<text text-anchor="start" x="118.5" y="-59.5" font-family="Helvetica,sans-Serif" font-size="10.00">+ ExpToNextLevel</text>
<polyline fill="none" stroke="black" points="110.5,-52.5 222.5,-52.5 "/>
<text text-anchor="start" x="118.5" y="-40.5" font-family="Helvetica,sans-Serif" font-size="10.00">+ Player()</text>
<text text-anchor="start" x="118.5" y="-29.5" font-family="Helvetica,sans-Serif" font-size="10.00">+ gainExp()</text>
<text text-anchor="start" x="118.5" y="-18.5" font-family="Helvetica,sans-Serif" font-size="10.00">+ levelUp()</text>
<text text-anchor="start" x="118.5" y="-7.5" font-family="Helvetica,sans-Serif" font-size="10.00">&#45; setExpToNextLevel()</text>
</a>
</g>
</g>
<!-- Node3&#45;&gt;Node10 -->
<g id="edge14" class="edge"><title>Node3&#45;&gt;Node10</title>
<path fill="none" stroke="midnightblue" d="M246.878,-166.071C233.691,-148.257 219.782,-129.47 207.31,-112.624"/>
<polygon fill="none" stroke="midnightblue" points="244.116,-168.222 252.879,-174.177 249.742,-164.057 244.116,-168.222"/>
</g>
<!-- Node4 -->
<g id="node3" class="node"><title>Node4</title>
<polygon fill="none" stroke="#bfbfbf" points="126,-967.5 126,-1024.5 167,-1024.5 167,-967.5 126,-967.5"/>
<text text-anchor="middle" x="146.5" y="-1012.5" font-family="Helvetica,sans-Serif" font-size="10.00">string</text>
<polyline fill="none" stroke="#bfbfbf" points="126,-1005.5 167,-1005.5 "/>
<text text-anchor="middle" x="146.5" y="-993.5" font-family="Helvetica,sans-Serif" font-size="10.00"> </text>
<polyline fill="none" stroke="#bfbfbf" points="126,-986.5 167,-986.5 "/>
<text text-anchor="middle" x="146.5" y="-974.5" font-family="Helvetica,sans-Serif" font-size="10.00"> </text>
</g>
<!-- Node4&#45;&gt;Node3 -->
<g id="edge2" class="edge"><title>Node4&#45;&gt;Node3</title>
<path fill="none" stroke="#404040" d="M133.23,-967.462C126.042,-950.939 117.943,-929.26 114.5,-909 99.8295,-822.675 82.9523,-594.571 119.5,-515 129.745,-492.695 146.798,-498.365 160.5,-478 184.516,-442.306 173.277,-424.972 193.5,-387 208.073,-359.635 227.26,-331.654 245.357,-307.577"/>
<polygon fill="none" stroke="#404040" points="245.488,-307.404 245.942,-300.208 252.76,-297.859 252.306,-305.056 245.488,-307.404"/>
<text text-anchor="middle" x="136" y="-552.5" font-family="Helvetica,sans-Serif" font-size="10.00"> #name</text>
</g>
<!-- Node6 -->
<g id="node5" class="node"><title>Node6</title>
<g id="a_node5"><a xlink:href="class_special_move.html" target="_top" xlink:title="Special move abstract base class that expands upon CharacterMove, adding magic properties ...">
<polygon fill="none" stroke="black" points="352.5,-387.5 352.5,-477.5 450.5,-477.5 450.5,-387.5 352.5,-387.5"/>
<text text-anchor="middle" x="401.5" y="-465.5" font-family="Helvetica,sans-Serif" font-size="10.00">SpecialMove</text>
<polyline fill="none" stroke="black" points="352.5,-458.5 450.5,-458.5 "/>
<text text-anchor="start" x="360.5" y="-446.5" font-family="Helvetica,sans-Serif" font-size="10.00">+ Magic</text>
<text text-anchor="start" x="360.5" y="-435.5" font-family="Helvetica,sans-Serif" font-size="10.00">+ Desc</text>
<polyline fill="none" stroke="black" points="352.5,-428.5 450.5,-428.5 "/>
<text text-anchor="start" x="360.5" y="-416.5" font-family="Helvetica,sans-Serif" font-size="10.00">+ setUp()</text>
<text text-anchor="start" x="360.5" y="-405.5" font-family="Helvetica,sans-Serif" font-size="10.00">+ decreaseMagic()</text>
<text text-anchor="start" x="360.5" y="-394.5" font-family="Helvetica,sans-Serif" font-size="10.00"># SpecialMove()</text>
</a>
</g>
</g>
<!-- Node4&#45;&gt;Node6 -->
<g id="edge18" class="edge"><title>Node4&#45;&gt;Node6</title>
<path fill="none" stroke="#404040" d="M139.474,-967.139C124.513,-901.983 94.9677,-735.876 147.5,-613 172.213,-555.195 196.836,-549.333 249.5,-515 285.729,-491.381 301.677,-498.973 339.5,-478 340.304,-477.554 341.11,-477.1 341.917,-476.638"/>
<polygon fill="none" stroke="#404040" points="342.165,-476.487 345.219,-469.954 352.424,-470.261 349.37,-476.793 342.165,-476.487"/>
<text text-anchor="middle" x="162.5" y="-654.5" font-family="Helvetica,sans-Serif" font-size="10.00"> #desc</text>
</g>
<!-- Node4&#45;&gt;Node7 -->
<g id="edge6" class="edge"><title>Node4&#45;&gt;Node7</title>
<path fill="none" stroke="#404040" d="M153.168,-967.278C154.606,-961.255 156.111,-954.915 157.5,-949 181.477,-846.876 172.778,-816.884 210.5,-719 225.997,-678.787 249.946,-636.373 269.386,-604.893"/>
<polygon fill="none" stroke="#404040" points="269.425,-604.831 269.214,-597.623 275.787,-594.656 275.998,-601.864 269.425,-604.831"/>
<text text-anchor="middle" x="223" y="-811.5" font-family="Helvetica,sans-Serif" font-size="10.00"> #text</text>
</g>
<!-- Node4&#45;&gt;Node8 -->
<g id="edge9" class="edge"><title>Node4&#45;&gt;Node8</title>
<path fill="none" stroke="#404040" d="M167.091,-969.794C178.114,-956.687 192.14,-940.605 205.5,-927 213.879,-918.467 217.243,-917.65 225.5,-909 229.023,-905.309 232.568,-901.476 236.099,-897.562"/>
<polygon fill="none" stroke="#404040" points="236.339,-897.29 237.323,-890.147 244.296,-888.307 243.312,-895.451 236.339,-897.29"/>
<text text-anchor="middle" x="247.5" y="-941" font-family="Helvetica,sans-Serif" font-size="10.00"> +forceEnemyMove</text>
<text text-anchor="middle" x="247.5" y="-930" font-family="Helvetica,sans-Serif" font-size="10.00">+forceCriticalHits</text>
</g>
<!-- Node11 -->
<g id="node10" class="node"><title>Node11</title>
<g id="a_node10"><a xlink:href="class_item.html" target="_top" xlink:title="Abstract class for items that can be equipped to a player, increasing some of their stats ...">
<polygon fill="none" stroke="black" points="0,-617.5 0,-696.5 77,-696.5 77,-617.5 0,-617.5"/>
<text text-anchor="middle" x="38.5" y="-684.5" font-family="Helvetica,sans-Serif" font-size="10.00">Item</text>
<polyline fill="none" stroke="black" points="0,-677.5 77,-677.5 "/>
<text text-anchor="start" x="8" y="-665.5" font-family="Helvetica,sans-Serif" font-size="10.00">+ Name</text>
<text text-anchor="start" x="8" y="-654.5" font-family="Helvetica,sans-Serif" font-size="10.00">+ Desc</text>
<polyline fill="none" stroke="black" points="0,-647.5 77,-647.5 "/>
<text text-anchor="start" x="8" y="-635.5" font-family="Helvetica,sans-Serif" font-size="10.00">+ applyBuffs()</text>
<text text-anchor="start" x="8" y="-624.5" font-family="Helvetica,sans-Serif" font-size="10.00">+ revertBuffs()</text>
</a>
</g>
</g>
<!-- Node4&#45;&gt;Node11 -->
<g id="edge16" class="edge"><title>Node4&#45;&gt;Node11</title>
<path fill="none" stroke="#404040" d="M125.885,-991.774C102.659,-986.931 65.8871,-975.357 48.5,-949 0.744262,-876.607 12.5058,-770.55 25.46,-708.463"/>
<polygon fill="none" stroke="#404040" points="25.4789,-708.377 22.857,-701.659 28.0494,-696.655 30.6713,-703.373 25.4789,-708.377"/>
<text text-anchor="middle" x="63.5" y="-941" font-family="Helvetica,sans-Serif" font-size="10.00"> #desc</text>
<text text-anchor="middle" x="63.5" y="-930" font-family="Helvetica,sans-Serif" font-size="10.00">#name</text>
</g>
<!-- Node5 -->
<g id="node4" class="node"><title>Node5</title>
<polygon fill="none" stroke="#bfbfbf" points="501,-1072.5 501,-1129.5 530,-1129.5 530,-1072.5 501,-1072.5"/>
<text text-anchor="middle" x="515.5" y="-1117.5" font-family="Helvetica,sans-Serif" font-size="10.00">int</text>
<polyline fill="none" stroke="#bfbfbf" points="501,-1110.5 530,-1110.5 "/>
<text text-anchor="middle" x="515.5" y="-1098.5" font-family="Helvetica,sans-Serif" font-size="10.00"> </text>
<polyline fill="none" stroke="#bfbfbf" points="501,-1091.5 530,-1091.5 "/>
<text text-anchor="middle" x="515.5" y="-1079.5" font-family="Helvetica,sans-Serif" font-size="10.00"> </text>
</g>
<!-- Node5&#45;&gt;Node2 -->
<g id="edge21" class="edge"><title>Node5&#45;&gt;Node2</title>
<path fill="none" stroke="#404040" d="M500.844,-1093.46C486.417,-1086.14 465.181,-1072.78 455.5,-1054 452.78,-1048.72 451.224,-1042.79 450.437,-1036.8"/>
<polygon fill="none" stroke="#404040" points="450.425,-1036.59 446.105,-1030.82 449.773,-1024.61 454.093,-1030.38 450.425,-1036.59"/>
<text text-anchor="middle" x="478.5" y="-1046" font-family="Helvetica,sans-Serif" font-size="10.00"> &#45;expGiven</text>
</g>
<!-- Node5&#45;&gt;Node3 -->
<g id="edge3" class="edge"><title>Node5&#45;&gt;Node3</title>
<path fill="none" stroke="#404040" d="M517.329,-1072.2C524.528,-956.267 547.761,-511.538 489.5,-387 463.497,-331.416 404.513,-291.179 359.302,-267.098"/>
<polygon fill="none" stroke="#404040" points="359.084,-266.985 351.917,-267.78 348.426,-261.471 355.593,-260.675 359.084,-266.985"/>
<text text-anchor="middle" x="566" y="-693" font-family="Helvetica,sans-Serif" font-size="10.00"> #speed</text>
<text text-anchor="middle" x="566" y="-682" font-family="Helvetica,sans-Serif" font-size="10.00">#luck</text>
<text text-anchor="middle" x="566" y="-671" font-family="Helvetica,sans-Serif" font-size="10.00">#health</text>
<text text-anchor="middle" x="566" y="-660" font-family="Helvetica,sans-Serif" font-size="10.00">#magic</text>
<text text-anchor="middle" x="566" y="-649" font-family="Helvetica,sans-Serif" font-size="10.00">#maximumMagic</text>
<text text-anchor="middle" x="566" y="-638" font-family="Helvetica,sans-Serif" font-size="10.00">#attack</text>
<text text-anchor="middle" x="566" y="-627" font-family="Helvetica,sans-Serif" font-size="10.00">#defence</text>
<text text-anchor="middle" x="566" y="-616" font-family="Helvetica,sans-Serif" font-size="10.00">#level</text>
</g>
<!-- Node5&#45;&gt;Node6 -->
<g id="edge19" class="edge"><title>Node5&#45;&gt;Node6</title>
<path fill="none" stroke="#404040" d="M525.43,-1072.08C527.121,-1066.18 528.615,-1059.94 529.5,-1054 535.191,-1015.75 534.042,-1005.4 529.5,-967 508.502,-789.479 449.5,-585.52 419.5,-489.29"/>
<polygon fill="none" stroke="#404040" points="419.494,-489.271 413.882,-484.743 415.903,-477.821 421.515,-482.349 419.494,-489.271"/>
<text text-anchor="middle" x="539" y="-811.5" font-family="Helvetica,sans-Serif" font-size="10.00"> #magic</text>
</g>
<!-- Node5&#45;&gt;Node8 -->
<g id="edge11" class="edge"><title>Node5&#45;&gt;Node8</title>
<path fill="none" stroke="#404040" d="M500.808,-1099.69C462.317,-1098 358.349,-1087.59 312.5,-1025 300.128,-1008.11 296.836,-964.191 296.971,-920.856"/>
<polygon fill="none" stroke="#404040" points="296.973,-920.671 293.034,-914.631 297.095,-908.672 301.034,-914.712 296.973,-920.671"/>
<text text-anchor="middle" x="332" y="-993.5" font-family="Helvetica,sans-Serif" font-size="10.00"> +money</text>
</g>
<!-- Node5&#45;&gt;Node10 -->
<g id="edge17" class="edge"><title>Node5&#45;&gt;Node10</title>
<path fill="none" stroke="#404040" d="M530.2,-1094.28C559.953,-1081.64 624.5,-1048.29 624.5,-997 624.5,-997 624.5,-997 624.5,-238.5 624.5,-155.674 362.157,-94.5424 234.573,-69.7099"/>
<polygon fill="none" stroke="#404040" points="234.444,-69.6852 227.797,-72.481 222.66,-67.4205 229.307,-64.6248 234.444,-69.6852"/>
<text text-anchor="middle" x="662" y="-558" font-family="Helvetica,sans-Serif" font-size="10.00"> &#45;expToNextLevel</text>
<text text-anchor="middle" x="662" y="-547" font-family="Helvetica,sans-Serif" font-size="10.00">&#45;exp</text>
</g>
<!-- Node6&#45;&gt;Node3 -->
<g id="edge4" class="edge"><title>Node6&#45;&gt;Node3</title>
<path fill="none" stroke="#404040" d="M378.075,-387.201C370.474,-372.827 361.712,-356.257 352.873,-339.541"/>
<polygon fill="none" stroke="#404040" points="352.674,-339.166 346.333,-335.731 347.064,-328.557 353.405,-331.992 352.674,-339.166"/>
<text text-anchor="middle" x="389" y="-361" font-family="Helvetica,sans-Serif" font-size="10.00"> #special1</text>
<text text-anchor="middle" x="389" y="-350" font-family="Helvetica,sans-Serif" font-size="10.00">#special2</text>
</g>
<!-- Node7&#45;&gt;Node6 -->
<g id="edge5" class="edge"><title>Node7&#45;&gt;Node6</title>
<path fill="none" stroke="midnightblue" d="M340.104,-507.482C348.237,-497.682 356.794,-487.371 364.851,-477.661"/>
<polygon fill="none" stroke="midnightblue" points="337.384,-505.279 333.691,-515.21 342.771,-509.75 337.384,-505.279"/>
</g>
<!-- Node8&#45;&gt;Node7 -->
<g id="edge8" class="edge"><title>Node8&#45;&gt;Node7</title>
<path fill="none" stroke="#404040" d="M302.136,-719.49C301.988,-681.48 301.823,-639.047 301.698,-606.939"/>
<polygon fill="none" stroke="#404040" points="301.697,-606.732 297.674,-600.748 301.651,-594.732 305.674,-600.716 301.697,-606.732"/>
<text text-anchor="middle" x="325.5" y="-654.5" font-family="Helvetica,sans-Serif" font-size="10.00"> #manager</text>
</g>
<!-- Node9 -->
<g id="node8" class="node"><title>Node9</title>
<polygon fill="none" stroke="#bfbfbf" points="361,-967.5 361,-1024.5 396,-1024.5 396,-967.5 361,-967.5"/>
<text text-anchor="middle" x="378.5" y="-1012.5" font-family="Helvetica,sans-Serif" font-size="10.00">bool</text>
<polyline fill="none" stroke="#bfbfbf" points="361,-1005.5 396,-1005.5 "/>
<text text-anchor="middle" x="378.5" y="-993.5" font-family="Helvetica,sans-Serif" font-size="10.00"> </text>
<polyline fill="none" stroke="#bfbfbf" points="361,-986.5 396,-986.5 "/>
<text text-anchor="middle" x="378.5" y="-974.5" font-family="Helvetica,sans-Serif" font-size="10.00"> </text>
</g>
<!-- Node9&#45;&gt;Node8 -->
<g id="edge12" class="edge"><title>Node9&#45;&gt;Node8</title>
<path fill="none" stroke="#404040" d="M360.799,-979.011C352.637,-970.77 343.46,-960.128 337.5,-949 332.633,-939.914 328.415,-930.114 324.765,-920.093"/>
<polygon fill="none" stroke="#404040" points="324.757,-920.069 319.033,-915.683 320.88,-908.712 326.604,-913.098 324.757,-920.069"/>
<text text-anchor="middle" x="370.5" y="-935.5" font-family="Helvetica,sans-Serif" font-size="10.00"> &#45;wasCriticalHit</text>
</g>
<!-- Node10&#45;&gt;Node8 -->
<g id="edge13" class="edge"><title>Node10&#45;&gt;Node8</title>
<path fill="none" stroke="#404040" d="M158.309,-112.625C147.929,-193.643 134.332,-349.212 160.5,-478 176.879,-558.609 213.336,-643.889 245.207,-708.232"/>
<polygon fill="none" stroke="#404040" points="245.317,-708.452 251.579,-712.028 250.687,-719.184 244.425,-715.608 245.317,-708.452"/>
<text text-anchor="middle" x="177" y="-430" font-family="Helvetica,sans-Serif" font-size="10.00"> &#45;player</text>
</g>
<!-- Node11&#45;&gt;Node10 -->
<g id="edge15" class="edge"><title>Node11&#45;&gt;Node10</title>
<path fill="none" stroke="#404040" d="M40.0122,-617.452C41.145,-585.256 42.5,-538.143 42.5,-497 42.5,-497 42.5,-497 42.5,-238.5 42.5,-191.149 71.7396,-147.104 101.822,-114.321"/>
<polygon fill="none" stroke="#404040" points="102.046,-114.084 103.273,-106.979 110.305,-105.379 109.077,-112.485 102.046,-114.084"/>
<text text-anchor="middle" x="55" y="-430" font-family="Helvetica,sans-Serif" font-size="10.00"> &#45;item</text>
</g>
<!-- Node12 -->
<g id="node11" class="node"><title>Node12</title>
<polygon fill="none" stroke="#bfbfbf" points="203,-404 203,-461 264,-461 264,-404 203,-404"/>
<text text-anchor="middle" x="233.5" y="-449" font-family="Helvetica,sans-Serif" font-size="10.00">Texture2D</text>
<polyline fill="none" stroke="#bfbfbf" points="203,-442 264,-442 "/>
<text text-anchor="middle" x="233.5" y="-430" font-family="Helvetica,sans-Serif" font-size="10.00"> </text>
<polyline fill="none" stroke="#bfbfbf" points="203,-423 264,-423 "/>
<text text-anchor="middle" x="233.5" y="-411" font-family="Helvetica,sans-Serif" font-size="10.00"> </text>
</g>
<!-- Node12&#45;&gt;Node3 -->
<g id="edge20" class="edge"><title>Node12&#45;&gt;Node3</title>
<path fill="none" stroke="#404040" d="M237.824,-403.689C240.81,-387.007 245.356,-365.506 251.5,-347 252.289,-344.623 253.116,-342.229 253.974,-339.824"/>
<polygon fill="none" stroke="#404040" points="253.998,-339.76 252.354,-332.739 258.204,-328.522 259.847,-335.543 253.998,-339.76"/>
<text text-anchor="middle" x="269" y="-355.5" font-family="Helvetica,sans-Serif" font-size="10.00"> #image</text>
</g>
</g>
</svg>
