<?xml version="1.0" encoding="UTF-8" standalone="no"?>
<!DOCTYPE svg PUBLIC "-//W3C//DTD SVG 1.1//EN"
 "http://www.w3.org/Graphics/SVG/1.1/DTD/svg11.dtd">
<!-- Generated by graphviz version 2.38.0 (20140413.2041)
 -->
<!-- Title: MenuScript Pages: 1 -->
<svg width="242pt" height="226pt"
 viewBox="0.00 0.00 241.50 226.00" xmlns="http://www.w3.org/2000/svg" xmlns:xlink="http://www.w3.org/1999/xlink">
<g id="graph0" class="graph" transform="scale(1 1) rotate(0) translate(4 222)">
<title>MenuScript</title>
<!-- Node2 -->
<g id="node1" class="node"><title>Node2</title>
<polygon fill="#bfbfbf" stroke="black" points="88,-0.5 88,-101.5 163,-101.5 163,-0.5 88,-0.5"/>
<text text-anchor="middle" x="125.5" y="-89.5" font-family="Helvetica,sans-Serif" font-size="10.00">MenuScript</text>
<polyline fill="none" stroke="black" points="88,-82.5 163,-82.5 "/>
<text text-anchor="middle" x="125.5" y="-70.5" font-family="Helvetica,sans-Serif" font-size="10.00"> </text>
<polyline fill="none" stroke="black" points="88,-63.5 163,-63.5 "/>
<text text-anchor="start" x="96" y="-51.5" font-family="Helvetica,sans-Serif" font-size="10.00">+ ExitPress()</text>
<text text-anchor="start" x="96" y="-40.5" font-family="Helvetica,sans-Serif" font-size="10.00">+ NoPress()</text>
<text text-anchor="start" x="96" y="-29.5" font-family="Helvetica,sans-Serif" font-size="10.00">+ StartLevel()</text>
<text text-anchor="start" x="96" y="-18.5" font-family="Helvetica,sans-Serif" font-size="10.00">+ ExitGame()</text>
<text text-anchor="start" x="96" y="-7.5" font-family="Helvetica,sans-Serif" font-size="10.00">&#45; Start()</text>
</g>
<!-- Node3 -->
<g id="node2" class="node"><title>Node3</title>
<g id="a_node2"><a xlink:href="class_mono_behaviour.html" target="_top" xlink:title="{MonoBehaviour\n||}">
<polygon fill="none" stroke="black" points="0,-160.5 0,-217.5 83,-217.5 83,-160.5 0,-160.5"/>
<text text-anchor="middle" x="41.5" y="-205.5" font-family="Helvetica,sans-Serif" font-size="10.00">MonoBehaviour</text>
<polyline fill="none" stroke="black" points="0,-198.5 83,-198.5 "/>
<text text-anchor="middle" x="41.5" y="-186.5" font-family="Helvetica,sans-Serif" font-size="10.00"> </text>
<polyline fill="none" stroke="black" points="0,-179.5 83,-179.5 "/>
<text text-anchor="middle" x="41.5" y="-167.5" font-family="Helvetica,sans-Serif" font-size="10.00"> </text>
</a>
</g>
</g>
<!-- Node3&#45;&gt;Node2 -->
<g id="edge1" class="edge"><title>Node3&#45;&gt;Node2</title>
<path fill="none" stroke="midnightblue" d="M63.8583,-151.801C73.3336,-136.46 84.5302,-118.332 94.7636,-101.764"/>
<polygon fill="none" stroke="midnightblue" points="60.7758,-150.131 58.4987,-160.478 66.7314,-153.81 60.7758,-150.131"/>
</g>
<!-- Node4 -->
<g id="node3" class="node"><title>Node4</title>
<polygon fill="none" stroke="#bfbfbf" points="101.5,-160.5 101.5,-217.5 149.5,-217.5 149.5,-160.5 101.5,-160.5"/>
<text text-anchor="middle" x="125.5" y="-205.5" font-family="Helvetica,sans-Serif" font-size="10.00">Canvas</text>
<polyline fill="none" stroke="#bfbfbf" points="101.5,-198.5 149.5,-198.5 "/>
<text text-anchor="middle" x="125.5" y="-186.5" font-family="Helvetica,sans-Serif" font-size="10.00"> </text>
<polyline fill="none" stroke="#bfbfbf" points="101.5,-179.5 149.5,-179.5 "/>
<text text-anchor="middle" x="125.5" y="-167.5" font-family="Helvetica,sans-Serif" font-size="10.00"> </text>
</g>
<!-- Node4&#45;&gt;Node2 -->
<g id="edge2" class="edge"><title>Node4&#45;&gt;Node2</title>
<path fill="none" stroke="#404040" d="M125.5,-160.478C125.5,-147.057 125.5,-130.327 125.5,-114.055"/>
<polygon fill="none" stroke="#404040" points="125.5,-113.764 121.5,-107.764 125.5,-101.764 129.5,-107.764 125.5,-113.764"/>
<text text-anchor="middle" x="150" y="-128.5" font-family="Helvetica,sans-Serif" font-size="10.00"> +quitMenu</text>
</g>
<!-- Node5 -->
<g id="node4" class="node"><title>Node5</title>
<polygon fill="none" stroke="#bfbfbf" points="175,-160.5 175,-217.5 220,-217.5 220,-160.5 175,-160.5"/>
<text text-anchor="middle" x="197.5" y="-205.5" font-family="Helvetica,sans-Serif" font-size="10.00">Button</text>
<polyline fill="none" stroke="#bfbfbf" points="175,-198.5 220,-198.5 "/>
<text text-anchor="middle" x="197.5" y="-186.5" font-family="Helvetica,sans-Serif" font-size="10.00"> </text>
<polyline fill="none" stroke="#bfbfbf" points="175,-179.5 220,-179.5 "/>
<text text-anchor="middle" x="197.5" y="-167.5" font-family="Helvetica,sans-Serif" font-size="10.00"> </text>
</g>
<!-- Node5&#45;&gt;Node2 -->
<g id="edge3" class="edge"><title>Node5&#45;&gt;Node2</title>
<path fill="none" stroke="#404040" d="M190.751,-160.396C187.107,-147.712 182.006,-132.7 175.5,-120 173.696,-116.479 171.716,-112.944 169.618,-109.437"/>
<polygon fill="none" stroke="#404040" points="169.454,-109.178 162.862,-106.255 163.025,-99.0453 169.617,-101.969 169.454,-109.178"/>
<text text-anchor="middle" x="209.5" y="-134" font-family="Helvetica,sans-Serif" font-size="10.00"> +startText</text>
<text text-anchor="middle" x="209.5" y="-123" font-family="Helvetica,sans-Serif" font-size="10.00">+exitText</text>
</g>
</g>
</svg>
