<?xml version="1.0" encoding="UTF-8" standalone="no"?>
<!DOCTYPE svg PUBLIC "-//W3C//DTD SVG 1.1//EN"
 "http://www.w3.org/Graphics/SVG/1.1/DTD/svg11.dtd">
<!-- Generated by graphviz version 2.38.0 (20140413.2041)
 -->
<!-- Title: ExplorationMenuScript Pages: 1 -->
<svg width="760pt" height="441pt"
 viewBox="0.00 0.00 760.00 441.00" xmlns="http://www.w3.org/2000/svg" xmlns:xlink="http://www.w3.org/1999/xlink">
<g id="graph0" class="graph" transform="scale(1 1) rotate(0) translate(4 437)">
<title>ExplorationMenuScript</title>
<!-- Node2 -->
<g id="node1" class="node"><title>Node2</title>
<polygon fill="#bfbfbf" stroke="black" points="481,-0.5 481,-123.5 596,-123.5 596,-0.5 481,-0.5"/>
<text text-anchor="middle" x="538.5" y="-111.5" font-family="Helvetica,sans-Serif" font-size="10.00">ExplorationMenuScript</text>
<polyline fill="none" stroke="black" points="481,-104.5 596,-104.5 "/>
<text text-anchor="middle" x="538.5" y="-92.5" font-family="Helvetica,sans-Serif" font-size="10.00"> </text>
<polyline fill="none" stroke="black" points="481,-85.5 596,-85.5 "/>
<text text-anchor="start" x="489" y="-73.5" font-family="Helvetica,sans-Serif" font-size="10.00">+ inventPressed()</text>
<text text-anchor="start" x="489" y="-62.5" font-family="Helvetica,sans-Serif" font-size="10.00">+ partyPressed()</text>
<text text-anchor="start" x="489" y="-51.5" font-family="Helvetica,sans-Serif" font-size="10.00">+ savePressed()</text>
<text text-anchor="start" x="489" y="-40.5" font-family="Helvetica,sans-Serif" font-size="10.00">+ optionPressed()</text>
<text text-anchor="start" x="489" y="-29.5" font-family="Helvetica,sans-Serif" font-size="10.00">+ exitPressed()</text>
<text text-anchor="start" x="489" y="-18.5" font-family="Helvetica,sans-Serif" font-size="10.00">&#45; Start()</text>
<text text-anchor="start" x="489" y="-7.5" font-family="Helvetica,sans-Serif" font-size="10.00">&#45; setInactive()</text>
</g>
<!-- Node3 -->
<g id="node2" class="node"><title>Node3</title>
<g id="a_node2"><a xlink:href="class_mono_behaviour.html" target="_top" xlink:title="{MonoBehaviour\n||}">
<polygon fill="none" stroke="black" points="0,-375.5 0,-432.5 83,-432.5 83,-375.5 0,-375.5"/>
<text text-anchor="middle" x="41.5" y="-420.5" font-family="Helvetica,sans-Serif" font-size="10.00">MonoBehaviour</text>
<polyline fill="none" stroke="black" points="0,-413.5 83,-413.5 "/>
<text text-anchor="middle" x="41.5" y="-401.5" font-family="Helvetica,sans-Serif" font-size="10.00"> </text>
<polyline fill="none" stroke="black" points="0,-394.5 83,-394.5 "/>
<text text-anchor="middle" x="41.5" y="-382.5" font-family="Helvetica,sans-Serif" font-size="10.00"> </text>
</a>
</g>
</g>
<!-- Node3&#45;&gt;Node2 -->
<g id="edge1" class="edge"><title>Node3&#45;&gt;Node2</title>
<path fill="none" stroke="midnightblue" d="M62.7272,-366.499C94.3534,-315.304 158.661,-222.664 237.5,-171 314.237,-120.714 417.326,-90.3468 480.771,-75.1358"/>
<polygon fill="none" stroke="midnightblue" points="59.6062,-364.895 57.3879,-375.255 65.5827,-368.539 59.6062,-364.895"/>
</g>
<!-- Node5 -->
<g id="node4" class="node"><title>Node5</title>
<g id="a_node4"><a xlink:href="class_player_movement.html" target="_top" xlink:title="A script to control the movement and animations of the player">
<polygon fill="none" stroke="black" points="247,-171.5 247,-305.5 352,-305.5 352,-171.5 247,-171.5"/>
<text text-anchor="middle" x="299.5" y="-293.5" font-family="Helvetica,sans-Serif" font-size="10.00">PlayerMovement</text>
<polyline fill="none" stroke="black" points="247,-286.5 352,-286.5 "/>
<text text-anchor="middle" x="299.5" y="-274.5" font-family="Helvetica,sans-Serif" font-size="10.00"> </text>
<polyline fill="none" stroke="black" points="247,-267.5 352,-267.5 "/>
<text text-anchor="start" x="255" y="-255.5" font-family="Helvetica,sans-Serif" font-size="10.00">+ move()</text>
<text text-anchor="start" x="255" y="-244.5" font-family="Helvetica,sans-Serif" font-size="10.00">+ setCanMove()</text>
<text text-anchor="start" x="255" y="-233.5" font-family="Helvetica,sans-Serif" font-size="10.00">&#45; Start()</text>
<text text-anchor="start" x="255" y="-222.5" font-family="Helvetica,sans-Serif" font-size="10.00">&#45; FixedUpdate()</text>
<text text-anchor="start" x="255" y="-211.5" font-family="Helvetica,sans-Serif" font-size="10.00">&#45; explorationMenu()</text>
<text text-anchor="start" x="255" y="-200.5" font-family="Helvetica,sans-Serif" font-size="10.00">&#45; randomEncounter()</text>
<text text-anchor="start" x="255" y="-189.5" font-family="Helvetica,sans-Serif" font-size="10.00">&#45; walkAnimation()</text>
<text text-anchor="start" x="255" y="-178.5" font-family="Helvetica,sans-Serif" font-size="10.00">&#45; setIdle()</text>
</a>
</g>
</g>
<!-- Node3&#45;&gt;Node5 -->
<g id="edge4" class="edge"><title>Node3&#45;&gt;Node5</title>
<path fill="none" stroke="midnightblue" d="M82.0923,-368.686C100.078,-354.164 121.814,-337.516 142.5,-324 176.057,-302.074 215.839,-280.708 246.961,-264.946"/>
<polygon fill="none" stroke="midnightblue" points="79.6514,-366.16 74.1095,-375.19 84.0729,-371.587 79.6514,-366.16"/>
</g>
<!-- Node4 -->
<g id="node3" class="node"><title>Node4</title>
<polygon fill="none" stroke="#bfbfbf" points="681,-210 681,-267 752,-267 752,-210 681,-210"/>
<text text-anchor="middle" x="716.5" y="-255" font-family="Helvetica,sans-Serif" font-size="10.00">GameObject</text>
<polyline fill="none" stroke="#bfbfbf" points="681,-248 752,-248 "/>
<text text-anchor="middle" x="716.5" y="-236" font-family="Helvetica,sans-Serif" font-size="10.00"> </text>
<polyline fill="none" stroke="#bfbfbf" points="681,-229 752,-229 "/>
<text text-anchor="middle" x="716.5" y="-217" font-family="Helvetica,sans-Serif" font-size="10.00"> </text>
</g>
<!-- Node4&#45;&gt;Node2 -->
<g id="edge2" class="edge"><title>Node4&#45;&gt;Node2</title>
<path fill="none" stroke="#404040" d="M697.856,-209.862C688.965,-197.462 677.812,-182.966 666.5,-171 647.879,-151.303 625.847,-131.63 605.356,-114.576"/>
<polygon fill="none" stroke="#404040" points="605.334,-114.558 598.16,-113.834 596.068,-106.933 603.243,-107.657 605.334,-114.558"/>
<text text-anchor="middle" x="671.5" y="-145" font-family="Helvetica,sans-Serif" font-size="10.00"> &#45;menuBox</text>
</g>
<!-- Node5&#45;&gt;Node2 -->
<g id="edge3" class="edge"><title>Node5&#45;&gt;Node2</title>
<path fill="none" stroke="#404040" d="M352.245,-198.989C387.2,-173.468 433.374,-139.755 471.003,-112.281"/>
<polygon fill="none" stroke="#404040" points="471.18,-112.152 473.667,-105.384 480.872,-105.076 478.384,-111.845 471.18,-112.152"/>
<text text-anchor="middle" x="464.5" y="-145" font-family="Helvetica,sans-Serif" font-size="10.00"> &#45;movementScript</text>
</g>
<!-- Node6 -->
<g id="node5" class="node"><title>Node6</title>
<polygon fill="none" stroke="#bfbfbf" points="391,-375.5 391,-432.5 432,-432.5 432,-375.5 391,-375.5"/>
<text text-anchor="middle" x="411.5" y="-420.5" font-family="Helvetica,sans-Serif" font-size="10.00">string</text>
<polyline fill="none" stroke="#bfbfbf" points="391,-413.5 432,-413.5 "/>
<text text-anchor="middle" x="411.5" y="-401.5" font-family="Helvetica,sans-Serif" font-size="10.00"> </text>
<polyline fill="none" stroke="#bfbfbf" points="391,-394.5 432,-394.5 "/>
<text text-anchor="middle" x="411.5" y="-382.5" font-family="Helvetica,sans-Serif" font-size="10.00"> </text>
</g>
<!-- Node6&#45;&gt;Node5 -->
<g id="edge5" class="edge"><title>Node6&#45;&gt;Node5</title>
<path fill="none" stroke="#404040" d="M399.949,-375.37C392.918,-359.758 383.235,-340.189 372.5,-324 368.588,-318.1 364.306,-312.164 359.841,-306.323"/>
<polygon fill="none" stroke="#404040" points="359.61,-306.03 352.755,-303.792 352.184,-296.603 359.039,-298.841 359.61,-306.03"/>
<text text-anchor="middle" x="413" y="-338" font-family="Helvetica,sans-Serif" font-size="10.00"> &#45;lastMove</text>
</g>
<!-- Node7 -->
<g id="node6" class="node"><title>Node7</title>
<polygon fill="none" stroke="#bfbfbf" points="101.5,-375.5 101.5,-432.5 157.5,-432.5 157.5,-375.5 101.5,-375.5"/>
<text text-anchor="middle" x="129.5" y="-420.5" font-family="Helvetica,sans-Serif" font-size="10.00">Animator</text>
<polyline fill="none" stroke="#bfbfbf" points="101.5,-413.5 157.5,-413.5 "/>
<text text-anchor="middle" x="129.5" y="-401.5" font-family="Helvetica,sans-Serif" font-size="10.00"> </text>
<polyline fill="none" stroke="#bfbfbf" points="101.5,-394.5 157.5,-394.5 "/>
<text text-anchor="middle" x="129.5" y="-382.5" font-family="Helvetica,sans-Serif" font-size="10.00"> </text>
</g>
<!-- Node7&#45;&gt;Node5 -->
<g id="edge6" class="edge"><title>Node7&#45;&gt;Node5</title>
<path fill="none" stroke="#404040" d="M137.711,-375.151C143.529,-358.9 152.611,-338.758 165.5,-324 184.963,-301.714 211.732,-283.237 236.229,-269.302"/>
<polygon fill="none" stroke="#404040" points="236.411,-269.202 239.739,-262.805 246.924,-263.417 243.596,-269.814 236.411,-269.202"/>
<text text-anchor="middle" x="179.5" y="-338" font-family="Helvetica,sans-Serif" font-size="10.00"> &#45;anim</text>
</g>
<!-- Node8 -->
<g id="node7" class="node"><title>Node8</title>
<polygon fill="none" stroke="#bfbfbf" points="176,-375.5 176,-432.5 211,-432.5 211,-375.5 176,-375.5"/>
<text text-anchor="middle" x="193.5" y="-420.5" font-family="Helvetica,sans-Serif" font-size="10.00">float</text>
<polyline fill="none" stroke="#bfbfbf" points="176,-413.5 211,-413.5 "/>
<text text-anchor="middle" x="193.5" y="-401.5" font-family="Helvetica,sans-Serif" font-size="10.00"> </text>
<polyline fill="none" stroke="#bfbfbf" points="176,-394.5 211,-394.5 "/>
<text text-anchor="middle" x="193.5" y="-382.5" font-family="Helvetica,sans-Serif" font-size="10.00"> </text>
</g>
<!-- Node8&#45;&gt;Node5 -->
<g id="edge7" class="edge"><title>Node8&#45;&gt;Node5</title>
<path fill="none" stroke="#404040" d="M194.07,-375.224C195.427,-359.383 198.927,-339.633 207.5,-324 215.228,-309.908 226.192,-296.894 237.87,-285.514"/>
<polygon fill="none" stroke="#404040" points="238.101,-285.3 239.779,-278.287 246.898,-277.139 245.22,-284.152 238.101,-285.3"/>
<text text-anchor="middle" x="224" y="-338" font-family="Helvetica,sans-Serif" font-size="10.00"> &#45;speed</text>
</g>
<!-- Node9 -->
<g id="node8" class="node"><title>Node9</title>
<polygon fill="none" stroke="#bfbfbf" points="229.5,-375.5 229.5,-432.5 279.5,-432.5 279.5,-375.5 229.5,-375.5"/>
<text text-anchor="middle" x="254.5" y="-420.5" font-family="Helvetica,sans-Serif" font-size="10.00">Vector2</text>
<polyline fill="none" stroke="#bfbfbf" points="229.5,-413.5 279.5,-413.5 "/>
<text text-anchor="middle" x="254.5" y="-401.5" font-family="Helvetica,sans-Serif" font-size="10.00"> </text>
<polyline fill="none" stroke="#bfbfbf" points="229.5,-394.5 279.5,-394.5 "/>
<text text-anchor="middle" x="254.5" y="-382.5" font-family="Helvetica,sans-Serif" font-size="10.00"> </text>
</g>
<!-- Node9&#45;&gt;Node5 -->
<g id="edge8" class="edge"><title>Node9&#45;&gt;Node5</title>
<path fill="none" stroke="#404040" d="M246.691,-375.488C243.561,-360.091 241.698,-340.693 246.5,-324 247.192,-321.595 247.975,-319.192 248.836,-316.798"/>
<polygon fill="none" stroke="#404040" points="248.836,-316.798 247.412,-309.729 253.39,-305.696 254.814,-312.765 248.836,-316.798"/>
<text text-anchor="middle" x="285" y="-338" font-family="Helvetica,sans-Serif" font-size="10.00"> &#45;previousPosition</text>
</g>
<!-- Node10 -->
<g id="node9" class="node"><title>Node10</title>
<polygon fill="none" stroke="#bfbfbf" points="456,-375.5 456,-432.5 491,-432.5 491,-375.5 456,-375.5"/>
<text text-anchor="middle" x="473.5" y="-420.5" font-family="Helvetica,sans-Serif" font-size="10.00">bool</text>
<polyline fill="none" stroke="#bfbfbf" points="456,-413.5 491,-413.5 "/>
<text text-anchor="middle" x="473.5" y="-401.5" font-family="Helvetica,sans-Serif" font-size="10.00"> </text>
<polyline fill="none" stroke="#bfbfbf" points="456,-394.5 491,-394.5 "/>
<text text-anchor="middle" x="473.5" y="-382.5" font-family="Helvetica,sans-Serif" font-size="10.00"> </text>
</g>
<!-- Node10&#45;&gt;Node2 -->
<g id="edge11" class="edge"><title>Node10&#45;&gt;Node2</title>
<path fill="none" stroke="#404040" d="M491.24,-400.993C515.535,-397.185 558.324,-386.449 577.5,-357 620.546,-290.891 598.097,-198.605 573.131,-135.155"/>
<polygon fill="none" stroke="#404040" points="572.975,-134.772 567.01,-130.721 568.455,-123.656 574.421,-127.707 572.975,-134.772"/>
<text text-anchor="middle" x="632.5" y="-236" font-family="Helvetica,sans-Serif" font-size="10.00"> +menuActive</text>
</g>
<!-- Node10&#45;&gt;Node5 -->
<g id="edge9" class="edge"><title>Node10&#45;&gt;Node5</title>
<path fill="none" stroke="#404040" d="M466.292,-375.434C460.957,-359.084 452.355,-338.743 439.5,-324 418.674,-300.115 389.394,-280.995 362.99,-267.024"/>
<polygon fill="none" stroke="#404040" points="362.955,-267.006 355.792,-267.837 352.27,-261.544 359.433,-260.713 362.955,-267.006"/>
<text text-anchor="middle" x="516.5" y="-349" font-family="Helvetica,sans-Serif" font-size="10.00"> &#45;playerExists</text>
<text text-anchor="middle" x="516.5" y="-338" font-family="Helvetica,sans-Serif" font-size="10.00">+pseudoEscapeKeyPress</text>
<text text-anchor="middle" x="516.5" y="-327" font-family="Helvetica,sans-Serif" font-size="10.00">&#45;canMove</text>
</g>
<!-- Node11 -->
<g id="node10" class="node"><title>Node11</title>
<polygon fill="none" stroke="#bfbfbf" points="314,-375.5 314,-432.5 373,-432.5 373,-375.5 314,-375.5"/>
<text text-anchor="middle" x="343.5" y="-420.5" font-family="Helvetica,sans-Serif" font-size="10.00">Transform</text>
<polyline fill="none" stroke="#bfbfbf" points="314,-413.5 373,-413.5 "/>
<text text-anchor="middle" x="343.5" y="-401.5" font-family="Helvetica,sans-Serif" font-size="10.00"> </text>
<polyline fill="none" stroke="#bfbfbf" points="314,-394.5 373,-394.5 "/>
<text text-anchor="middle" x="343.5" y="-382.5" font-family="Helvetica,sans-Serif" font-size="10.00"> </text>
</g>
<!-- Node11&#45;&gt;Node5 -->
<g id="edge10" class="edge"><title>Node11&#45;&gt;Node5</title>
<path fill="none" stroke="#404040" d="M338.75,-375.391C335.915,-360.136 331.995,-340.905 327.5,-324 326.929,-321.853 326.334,-319.681 325.719,-317.493"/>
<polygon fill="none" stroke="#404040" points="325.638,-317.214 320.115,-312.578 322.27,-305.696 327.793,-310.333 325.638,-317.214"/>
<text text-anchor="middle" x="352" y="-338" font-family="Helvetica,sans-Serif" font-size="10.00"> &#45;player</text>
</g>
</g>
</svg>
