<?xml version="1.0" encoding="UTF-8" standalone="no"?>
<!DOCTYPE svg PUBLIC "-//W3C//DTD SVG 1.1//EN"
 "http://www.w3.org/Graphics/SVG/1.1/DTD/svg11.dtd">
<!-- Generated by graphviz version 2.38.0 (20140413.2041)
 -->
<!-- Title: ObjectDialogue Pages: 1 -->
<!--zoomable 615 -->
<svg id="main" version="1.1" xmlns="http://www.w3.org/2000/svg" xmlns:xlink="http://www.w3.org/1999/xlink" xml:space="preserve" onload="init(evt)">
<style type="text/css"><![CDATA[
.edge:hover path { stroke: red; }
.edge:hover polygon { stroke: red; fill: red; }
]]></style>
<script type="text/javascript"><![CDATA[
var edges = document.getElementsByTagName('g');
if (edges && edges.length) {
  for (var i=0;i<edges.length;i++) {
    if (edges[i].id.substr(0,4)=='edge') {
      edges[i].setAttribute('class','edge');
    }
  }
}
]]></script>
        <defs>
                <circle id="rim" cx="0" cy="0" r="7"/>
                <circle id="rim2" cx="0" cy="0" r="3.5"/>
                <g id="zoomPlus">
                        <use xlink:href="#rim" fill="#404040">
                                <set attributeName="fill" to="#808080" begin="zoomplus.mouseover" end="zoomplus.mouseout"/>
                        </use>
                        <path d="M-4,0h8M0,-4v8" fill="none" stroke="white" stroke-width="1.5" pointer-events="none"/>
                </g>
                <g id="zoomMin">
                        <use xlink:href="#rim" fill="#404040">
                                <set attributeName="fill" to="#808080" begin="zoomminus.mouseover" end="zoomminus.mouseout"/>
                        </use>
                        <path d="M-4,0h8" fill="none" stroke="white" stroke-width="1.5" pointer-events="none"/>
                </g>
                <g id="dirArrow">
                        <path fill="none" stroke="white" stroke-width="1.5" d="M0,-3.0v7 M-2.5,-0.5L0,-3.0L2.5,-0.5"/>
                </g>
               <g id="resetDef">
                       <use xlink:href="#rim2" fill="#404040">
                               <set attributeName="fill" to="#808080" begin="reset.mouseover" end="reset.mouseout"/>
                       </use>
               </g>
        </defs>

<script type="text/javascript">
var viewWidth = 922;
var viewHeight = 615;
var sectionId = 'dynsection-1';
</script>
<script xlink:href="svgpan.js"/>
<svg id="graph" class="graph">
<g id="viewport">
<title>ObjectDialogue</title>
<!-- Node2 -->
<g id="node1" class="node"><title>Node2</title>
<polygon fill="#bfbfbf" stroke="black" points="605.178,-0.5 605.178,-79.5 708.178,-79.5 708.178,-0.5 605.178,-0.5"/>
<text text-anchor="middle" x="656.678" y="-67.5" font-family="Helvetica,sans-Serif" font-size="10.00">ObjectDialogue</text>
<polyline fill="none" stroke="black" points="605.178,-60.5 708.178,-60.5 "/>
<text text-anchor="middle" x="656.678" y="-48.5" font-family="Helvetica,sans-Serif" font-size="10.00"> </text>
<polyline fill="none" stroke="black" points="605.178,-41.5 708.178,-41.5 "/>
<text text-anchor="start" x="613.178" y="-29.5" font-family="Helvetica,sans-Serif" font-size="10.00">+ keyPressed()</text>
<text text-anchor="start" x="613.178" y="-18.5" font-family="Helvetica,sans-Serif" font-size="10.00">&#45; Start()</text>
<text text-anchor="start" x="613.178" y="-7.5" font-family="Helvetica,sans-Serif" font-size="10.00">&#45; OnTriggerStay2D()</text>
</g>
<!-- Node3 -->
<g id="node2" class="node"><title>Node3</title>
<g id="a_node2"><a xlink:href="class_mono_behaviour.html" target="_top" xlink:title="{MonoBehaviour\n||}">
<polygon fill="none" stroke="black" points="102.178,-549.5 102.178,-606.5 185.178,-606.5 185.178,-549.5 102.178,-549.5"/>
<text text-anchor="middle" x="143.678" y="-594.5" font-family="Helvetica,sans-Serif" font-size="10.00">MonoBehaviour</text>
<polyline fill="none" stroke="black" points="102.178,-587.5 185.178,-587.5 "/>
<text text-anchor="middle" x="143.678" y="-575.5" font-family="Helvetica,sans-Serif" font-size="10.00"> </text>
<polyline fill="none" stroke="black" points="102.178,-568.5 185.178,-568.5 "/>
<text text-anchor="middle" x="143.678" y="-556.5" font-family="Helvetica,sans-Serif" font-size="10.00"> </text>
</a>
</g>
</g>
<!-- Node3&#45;&gt;Node2 -->
<g id="edge1" class="edge"><title>Node3&#45;&gt;Node2</title>
<path fill="none" stroke="midnightblue" d="M93.2766,-552.21C69.9833,-537.832 44.6533,-517.322 31.6779,-491 -9.78487,-406.886 -11.2146,-363.394 31.6779,-280 140.603,-68.2223 475.86,-42.3609 605.115,-40.4618"/>
<polygon fill="none" stroke="midnightblue" points="91.6864,-555.336 102.074,-557.419 95.253,-549.312 91.6864,-555.336"/>
</g>
<!-- Node7 -->
<g id="node6" class="node"><title>Node7</title>
<g id="a_node6"><a xlink:href="class_dialogue_script.html" target="_top" xlink:title="{DialogueScript\n||+ showDialogue()\l&#45; Start()\l&#45; Update()\l&#45; keyPress()\l&#45; showLine()\l&#45; setInactive()\l&#45; delaySetInactive()\l&#45; delaySetActive()\l}">
<polygon fill="none" stroke="black" points="255.178,-127.5 255.178,-261.5 354.178,-261.5 354.178,-127.5 255.178,-127.5"/>
<text text-anchor="middle" x="304.678" y="-249.5" font-family="Helvetica,sans-Serif" font-size="10.00">DialogueScript</text>
<polyline fill="none" stroke="black" points="255.178,-242.5 354.178,-242.5 "/>
<text text-anchor="middle" x="304.678" y="-230.5" font-family="Helvetica,sans-Serif" font-size="10.00"> </text>
<polyline fill="none" stroke="black" points="255.178,-223.5 354.178,-223.5 "/>
<text text-anchor="start" x="263.178" y="-211.5" font-family="Helvetica,sans-Serif" font-size="10.00">+ showDialogue()</text>
<text text-anchor="start" x="263.178" y="-200.5" font-family="Helvetica,sans-Serif" font-size="10.00">&#45; Start()</text>
<text text-anchor="start" x="263.178" y="-189.5" font-family="Helvetica,sans-Serif" font-size="10.00">&#45; Update()</text>
<text text-anchor="start" x="263.178" y="-178.5" font-family="Helvetica,sans-Serif" font-size="10.00">&#45; keyPress()</text>
<text text-anchor="start" x="263.178" y="-167.5" font-family="Helvetica,sans-Serif" font-size="10.00">&#45; showLine()</text>
<text text-anchor="start" x="263.178" y="-156.5" font-family="Helvetica,sans-Serif" font-size="10.00">&#45; setInactive()</text>
<text text-anchor="start" x="263.178" y="-145.5" font-family="Helvetica,sans-Serif" font-size="10.00">&#45; delaySetInactive()</text>
<text text-anchor="start" x="263.178" y="-134.5" font-family="Helvetica,sans-Serif" font-size="10.00">&#45; delaySetActive()</text>
</a>
</g>
</g>
<!-- Node3&#45;&gt;Node7 -->
<g id="edge7" class="edge"><title>Node3&#45;&gt;Node7</title>
<path fill="none" stroke="midnightblue" d="M136.883,-538.966C128.267,-479.06 119.957,-361.201 169.678,-280 189.026,-248.402 225.107,-226.731 255.103,-213.253"/>
<polygon fill="none" stroke="midnightblue" points="133.462,-539.749 138.425,-549.109 140.382,-538.696 133.462,-539.749"/>
</g>
<!-- Node11 -->
<g id="node10" class="node"><title>Node11</title>
<g id="a_node10"><a xlink:href="class_player_movement.html" target="_top" xlink:title="{PlayerMovement\n||+ move()\l+ setCanMove()\l&#45; Start()\l&#45; FixedUpdate()\l&#45; walkAnimation()\l&#45; setIdle()\l}">
<polygon fill="none" stroke="black" points="398.678,-378.5 398.678,-490.5 490.678,-490.5 490.678,-378.5 398.678,-378.5"/>
<text text-anchor="middle" x="444.678" y="-478.5" font-family="Helvetica,sans-Serif" font-size="10.00">PlayerMovement</text>
<polyline fill="none" stroke="black" points="398.678,-471.5 490.678,-471.5 "/>
<text text-anchor="middle" x="444.678" y="-459.5" font-family="Helvetica,sans-Serif" font-size="10.00"> </text>
<polyline fill="none" stroke="black" points="398.678,-452.5 490.678,-452.5 "/>
<text text-anchor="start" x="406.678" y="-440.5" font-family="Helvetica,sans-Serif" font-size="10.00">+ move()</text>
<text text-anchor="start" x="406.678" y="-429.5" font-family="Helvetica,sans-Serif" font-size="10.00">+ setCanMove()</text>
<text text-anchor="start" x="406.678" y="-418.5" font-family="Helvetica,sans-Serif" font-size="10.00">&#45; Start()</text>
<text text-anchor="start" x="406.678" y="-407.5" font-family="Helvetica,sans-Serif" font-size="10.00">&#45; FixedUpdate()</text>
<text text-anchor="start" x="406.678" y="-396.5" font-family="Helvetica,sans-Serif" font-size="10.00">&#45; walkAnimation()</text>
<text text-anchor="start" x="406.678" y="-385.5" font-family="Helvetica,sans-Serif" font-size="10.00">&#45; setIdle()</text>
</a>
</g>
</g>
<!-- Node3&#45;&gt;Node11 -->
<g id="edge12" class="edge"><title>Node3&#45;&gt;Node11</title>
<path fill="none" stroke="midnightblue" d="M194.865,-554.267C228.247,-540.006 273.012,-521.938 313.678,-509 346.344,-498.607 358.731,-507.682 388.678,-491 392.026,-489.135 395.312,-487.014 398.509,-484.715"/>
<polygon fill="none" stroke="midnightblue" points="193.13,-551.203 185.327,-558.37 195.896,-557.633 193.13,-551.203"/>
</g>
<!-- Node4 -->
<g id="node3" class="node"><title>Node4</title>
<g id="a_node3"><a xlink:href="class_item.html" target="_top" xlink:title="{Item\n|+ Name\l+ Desc\l|+ applyBuffs()\l+ revertBuffs()\l}">
<polygon fill="none" stroke="black" points="815.178,-280.5 815.178,-359.5 892.178,-359.5 892.178,-280.5 815.178,-280.5"/>
<text text-anchor="middle" x="853.678" y="-347.5" font-family="Helvetica,sans-Serif" font-size="10.00">Item</text>
<polyline fill="none" stroke="black" points="815.178,-340.5 892.178,-340.5 "/>
<text text-anchor="start" x="823.178" y="-328.5" font-family="Helvetica,sans-Serif" font-size="10.00">+ Name</text>
<text text-anchor="start" x="823.178" y="-317.5" font-family="Helvetica,sans-Serif" font-size="10.00">+ Desc</text>
<polyline fill="none" stroke="black" points="815.178,-310.5 892.178,-310.5 "/>
<text text-anchor="start" x="823.178" y="-298.5" font-family="Helvetica,sans-Serif" font-size="10.00">+ applyBuffs()</text>
<text text-anchor="start" x="823.178" y="-287.5" font-family="Helvetica,sans-Serif" font-size="10.00">+ revertBuffs()</text>
</a>
</g>
</g>
<!-- Node4&#45;&gt;Node2 -->
<g id="edge2" class="edge"><title>Node4&#45;&gt;Node2</title>
<path fill="none" stroke="#404040" d="M827.759,-280.281C824.4,-274.313 821.242,-268.102 818.678,-262 789.571,-192.735 825.373,-156.052 777.678,-98 762.808,-79.9016 740.871,-67.216 719.744,-58.4876"/>
<polygon fill="none" stroke="#404040" points="719.678,-58.4623 712.642,-60.0431 708.477,-54.1565 715.512,-52.5758 719.678,-58.4623"/>
<text text-anchor="middle" x="832.678" y="-192" font-family="Helvetica,sans-Serif" font-size="10.00"> +item</text>
</g>
<!-- Node5 -->
<g id="node4" class="node"><title>Node5</title>
<polygon fill="none" stroke="#bfbfbf" points="743.178,-549.5 743.178,-606.5 784.178,-606.5 784.178,-549.5 743.178,-549.5"/>
<text text-anchor="middle" x="763.678" y="-594.5" font-family="Helvetica,sans-Serif" font-size="10.00">string</text>
<polyline fill="none" stroke="#bfbfbf" points="743.178,-587.5 784.178,-587.5 "/>
<text text-anchor="middle" x="763.678" y="-575.5" font-family="Helvetica,sans-Serif" font-size="10.00"> </text>
<polyline fill="none" stroke="#bfbfbf" points="743.178,-568.5 784.178,-568.5 "/>
<text text-anchor="middle" x="763.678" y="-556.5" font-family="Helvetica,sans-Serif" font-size="10.00"> </text>
</g>
<!-- Node5&#45;&gt;Node2 -->
<g id="edge5" class="edge"><title>Node5&#45;&gt;Node2</title>
<path fill="none" stroke="#404040" d="M764.079,-549.221C764.305,-496.247 762.214,-377.388 741.678,-280 727.492,-212.723 698.994,-138.612 678.917,-91.0262"/>
<polygon fill="none" stroke="#404040" points="678.844,-90.8532 672.81,-86.9035 674.136,-79.8152 680.169,-83.7649 678.844,-90.8532"/>
<text text-anchor="middle" x="777.678" y="-323" font-family="Helvetica,sans-Serif" font-size="10.00"> +dialogue</text>
<text text-anchor="middle" x="777.678" y="-312" font-family="Helvetica,sans-Serif" font-size="10.00">+treasure</text>
</g>
<!-- Node5&#45;&gt;Node4 -->
<g id="edge3" class="edge"><title>Node5&#45;&gt;Node4</title>
<path fill="none" stroke="#404040" d="M773.481,-549.116C788.475,-506.467 817.329,-424.394 836.029,-371.201"/>
<polygon fill="none" stroke="#404040" points="836.108,-370.978 834.324,-363.991 840.088,-359.657 841.871,-366.644 836.108,-370.978"/>
<text text-anchor="middle" x="801.678" y="-523" font-family="Helvetica,sans-Serif" font-size="10.00"> #desc</text>
<text text-anchor="middle" x="801.678" y="-512" font-family="Helvetica,sans-Serif" font-size="10.00">#name</text>
</g>
<!-- Node5&#45;&gt;Node11 -->
<g id="edge13" class="edge"><title>Node5&#45;&gt;Node11</title>
<path fill="none" stroke="#404040" d="M742.997,-571.374C700.927,-559.528 602.911,-529.873 526.678,-491 518.077,-486.614 509.303,-481.481 500.846,-476.141"/>
<polygon fill="none" stroke="#404040" points="500.782,-476.099 493.571,-476.183 490.72,-469.559 497.931,-469.475 500.782,-476.099"/>
<text text-anchor="middle" x="638.178" y="-517.5" font-family="Helvetica,sans-Serif" font-size="10.00"> &#45;lastMove</text>
</g>
<!-- Node6 -->
<g id="node5" class="node"><title>Node6</title>
<polygon fill="none" stroke="#bfbfbf" points="855.678,-166 855.678,-223 913.678,-223 913.678,-166 855.678,-166"/>
<text text-anchor="middle" x="884.678" y="-211" font-family="Helvetica,sans-Serif" font-size="10.00">AudioClip</text>
<polyline fill="none" stroke="#bfbfbf" points="855.678,-204 913.678,-204 "/>
<text text-anchor="middle" x="884.678" y="-192" font-family="Helvetica,sans-Serif" font-size="10.00"> </text>
<polyline fill="none" stroke="#bfbfbf" points="855.678,-185 913.678,-185 "/>
<text text-anchor="middle" x="884.678" y="-173" font-family="Helvetica,sans-Serif" font-size="10.00"> </text>
</g>
<!-- Node6&#45;&gt;Node2 -->
<g id="edge4" class="edge"><title>Node6&#45;&gt;Node2</title>
<path fill="none" stroke="#404040" d="M873.082,-165.581C862.933,-144.306 846.269,-115.739 823.678,-98 793.849,-74.5784 753.816,-60.4797 720.424,-52.1645"/>
<polygon fill="none" stroke="#404040" points="720.136,-52.097 713.381,-54.6208 708.453,-49.356 715.208,-46.8322 720.136,-52.097"/>
<text text-anchor="middle" x="849.678" y="-101" font-family="Helvetica,sans-Serif" font-size="10.00"> +SFX</text>
</g>
<!-- Node7&#45;&gt;Node2 -->
<g id="edge6" class="edge"><title>Node7&#45;&gt;Node2</title>
<path fill="none" stroke="#404040" d="M354.447,-158.305C384.196,-138.493 423.355,-114.496 460.678,-98 503.417,-79.1099 554.128,-64.5572 593.259,-54.8853"/>
<polygon fill="none" stroke="#404040" points="593.347,-54.8642 598.238,-49.5648 605.01,-52.041 600.12,-57.3403 593.347,-54.8642"/>
<text text-anchor="middle" x="485.178" y="-101" font-family="Helvetica,sans-Serif" font-size="10.00"> &#45;dManager</text>
</g>
<!-- Node8 -->
<g id="node7" class="node"><title>Node8</title>
<polygon fill="none" stroke="#bfbfbf" points="235.678,-406 235.678,-463 285.678,-463 285.678,-406 235.678,-406"/>
<text text-anchor="middle" x="260.678" y="-451" font-family="Helvetica,sans-Serif" font-size="10.00">string []</text>
<polyline fill="none" stroke="#bfbfbf" points="235.678,-444 285.678,-444 "/>
<text text-anchor="middle" x="260.678" y="-432" font-family="Helvetica,sans-Serif" font-size="10.00"> </text>
<polyline fill="none" stroke="#bfbfbf" points="235.678,-425 285.678,-425 "/>
<text text-anchor="middle" x="260.678" y="-413" font-family="Helvetica,sans-Serif" font-size="10.00"> </text>
</g>
<!-- Node8&#45;&gt;Node7 -->
<g id="edge8" class="edge"><title>Node8&#45;&gt;Node7</title>
<path fill="none" stroke="#404040" d="M255.707,-405.804C251.128,-374.656 246.568,-322.829 257.678,-280 258.279,-277.685 258.958,-275.365 259.705,-273.049"/>
<polygon fill="none" stroke="#404040" points="259.801,-272.79 258.129,-265.775 263.962,-261.534 265.633,-268.549 259.801,-272.79"/>
<text text-anchor="middle" x="290.678" y="-317.5" font-family="Helvetica,sans-Serif" font-size="10.00"> &#45;dialogueLines</text>
</g>
<!-- Node9 -->
<g id="node8" class="node"><title>Node9</title>
<polygon fill="none" stroke="#bfbfbf" points="309.178,-406 309.178,-463 380.178,-463 380.178,-406 309.178,-406"/>
<text text-anchor="middle" x="344.678" y="-451" font-family="Helvetica,sans-Serif" font-size="10.00">GameObject</text>
<polyline fill="none" stroke="#bfbfbf" points="309.178,-444 380.178,-444 "/>
<text text-anchor="middle" x="344.678" y="-432" font-family="Helvetica,sans-Serif" font-size="10.00"> </text>
<polyline fill="none" stroke="#bfbfbf" points="309.178,-425 380.178,-425 "/>
<text text-anchor="middle" x="344.678" y="-413" font-family="Helvetica,sans-Serif" font-size="10.00"> </text>
</g>
<!-- Node9&#45;&gt;Node7 -->
<g id="edge9" class="edge"><title>Node9&#45;&gt;Node7</title>
<path fill="none" stroke="#404040" d="M342.916,-405.857C340.647,-374.975 335.972,-323.592 327.678,-280 327.269,-277.853 326.834,-275.681 326.377,-273.493"/>
<polygon fill="none" stroke="#404040" points="326.358,-273.407 321.146,-268.424 323.741,-261.696 328.953,-266.679 326.358,-273.407"/>
<text text-anchor="middle" x="369.678" y="-317.5" font-family="Helvetica,sans-Serif" font-size="10.00"> &#45;dialogueBox</text>
</g>
<!-- Node10 -->
<g id="node9" class="node"><title>Node10</title>
<polygon fill="none" stroke="#bfbfbf" points="41.1779,-406 41.1779,-463 70.1779,-463 70.1779,-406 41.1779,-406"/>
<text text-anchor="middle" x="55.6779" y="-451" font-family="Helvetica,sans-Serif" font-size="10.00">int</text>
<polyline fill="none" stroke="#bfbfbf" points="41.1779,-444 70.1779,-444 "/>
<text text-anchor="middle" x="55.6779" y="-432" font-family="Helvetica,sans-Serif" font-size="10.00"> </text>
<polyline fill="none" stroke="#bfbfbf" points="41.1779,-425 70.1779,-425 "/>
<text text-anchor="middle" x="55.6779" y="-413" font-family="Helvetica,sans-Serif" font-size="10.00"> </text>
</g>
<!-- Node10&#45;&gt;Node7 -->
<g id="edge10" class="edge"><title>Node10&#45;&gt;Node7</title>
<path fill="none" stroke="#404040" d="M45.7476,-405.912C35.7073,-372.724 25.1123,-316.881 51.6779,-280 94.9506,-219.925 182.851,-201.929 242.76,-196.884"/>
<polygon fill="none" stroke="#404040" points="243.124,-196.858 248.82,-192.436 255.092,-195.994 249.396,-200.416 243.124,-196.858"/>
<text text-anchor="middle" x="90.6779" y="-317.5" font-family="Helvetica,sans-Serif" font-size="10.00"> &#45;currentLineIndex</text>
</g>
<!-- Node11&#45;&gt;Node2 -->
<g id="edge20" class="edge"><title>Node11&#45;&gt;Node2</title>
<path fill="none" stroke="#404040" d="M490.993,-387.785C498.035,-379.084 504.624,-369.66 509.678,-360 559.098,-265.537 513.334,-219.304 566.678,-127 574.778,-112.984 585.843,-99.807 597.445,-88.1783"/>
<polygon fill="none" stroke="#404040" points="597.725,-87.9098 599.283,-80.869 606.382,-79.5993 604.823,-86.6401 597.725,-87.9098"/>
<text text-anchor="middle" x="604.678" y="-192" font-family="Helvetica,sans-Serif" font-size="10.00"> &#45;movementScript</text>
</g>
<!-- Node11&#45;&gt;Node7 -->
<g id="edge11" class="edge"><title>Node11&#45;&gt;Node7</title>
<path fill="none" stroke="#404040" d="M433.57,-378.36C425.435,-341.344 414.051,-296.449 403.678,-280 393.345,-263.615 378.832,-248.729 364.096,-236.174"/>
<polygon fill="none" stroke="#404040" points="363.714,-235.862 356.537,-235.163 354.422,-228.269 361.6,-228.968 363.714,-235.862"/>
<text text-anchor="middle" x="467.678" y="-317.5" font-family="Helvetica,sans-Serif" font-size="10.00"> &#45;movementScript</text>
</g>
<!-- Node12 -->
<g id="node11" class="node"><title>Node12</title>
<polygon fill="none" stroke="#bfbfbf" points="403.678,-549.5 403.678,-606.5 459.678,-606.5 459.678,-549.5 403.678,-549.5"/>
<text text-anchor="middle" x="431.678" y="-594.5" font-family="Helvetica,sans-Serif" font-size="10.00">Animator</text>
<polyline fill="none" stroke="#bfbfbf" points="403.678,-587.5 459.678,-587.5 "/>
<text text-anchor="middle" x="431.678" y="-575.5" font-family="Helvetica,sans-Serif" font-size="10.00"> </text>
<polyline fill="none" stroke="#bfbfbf" points="403.678,-568.5 459.678,-568.5 "/>
<text text-anchor="middle" x="431.678" y="-556.5" font-family="Helvetica,sans-Serif" font-size="10.00"> </text>
</g>
<!-- Node12&#45;&gt;Node11 -->
<g id="edge14" class="edge"><title>Node12&#45;&gt;Node11</title>
<path fill="none" stroke="#404040" d="M425.38,-549.397C424.256,-543.366 423.259,-536.994 422.678,-531 421.735,-521.268 421.261,-518.675 422.678,-509 422.977,-506.961 423.319,-504.901 423.7,-502.828"/>
<polygon fill="none" stroke="#404040" points="423.741,-502.634 421.083,-495.93 426.248,-490.898 428.907,-497.602 423.741,-502.634"/>
<text text-anchor="middle" x="436.678" y="-517.5" font-family="Helvetica,sans-Serif" font-size="10.00"> &#45;anim</text>
</g>
<!-- Node13 -->
<g id="node12" class="node"><title>Node13</title>
<polygon fill="none" stroke="#bfbfbf" points="273.178,-549.5 273.178,-606.5 308.178,-606.5 308.178,-549.5 273.178,-549.5"/>
<text text-anchor="middle" x="290.678" y="-594.5" font-family="Helvetica,sans-Serif" font-size="10.00">float</text>
<polyline fill="none" stroke="#bfbfbf" points="273.178,-587.5 308.178,-587.5 "/>
<text text-anchor="middle" x="290.678" y="-575.5" font-family="Helvetica,sans-Serif" font-size="10.00"> </text>
<polyline fill="none" stroke="#bfbfbf" points="273.178,-568.5 308.178,-568.5 "/>
<text text-anchor="middle" x="290.678" y="-556.5" font-family="Helvetica,sans-Serif" font-size="10.00"> </text>
</g>
<!-- Node13&#45;&gt;Node11 -->
<g id="edge15" class="edge"><title>Node13&#45;&gt;Node11</title>
<path fill="none" stroke="#404040" d="M304.396,-549.351C312.442,-535.575 323.768,-519.633 337.678,-509 356.775,-494.402 368.314,-503.77 388.678,-491 388.783,-490.934 388.888,-490.868 388.993,-490.802"/>
<polygon fill="none" stroke="#404040" points="388.784,-490.948 391.395,-484.226 398.604,-484.05 395.993,-490.772 388.784,-490.948"/>
<text text-anchor="middle" x="354.178" y="-517.5" font-family="Helvetica,sans-Serif" font-size="10.00"> &#45;speed</text>
</g>
<!-- Node14 -->
<g id="node13" class="node"><title>Node14</title>
<polygon fill="none" stroke="#bfbfbf" points="531.178,-549.5 531.178,-606.5 566.178,-606.5 566.178,-549.5 531.178,-549.5"/>
<text text-anchor="middle" x="548.678" y="-594.5" font-family="Helvetica,sans-Serif" font-size="10.00">bool</text>
<polyline fill="none" stroke="#bfbfbf" points="531.178,-587.5 566.178,-587.5 "/>
<text text-anchor="middle" x="548.678" y="-575.5" font-family="Helvetica,sans-Serif" font-size="10.00"> </text>
<polyline fill="none" stroke="#bfbfbf" points="531.178,-568.5 566.178,-568.5 "/>
<text text-anchor="middle" x="548.678" y="-556.5" font-family="Helvetica,sans-Serif" font-size="10.00"> </text>
</g>
<!-- Node14&#45;&gt;Node2 -->
<g id="edge21" class="edge"><title>Node14&#45;&gt;Node2</title>
<path fill="none" stroke="#404040" d="M566.474,-567.632C589.834,-554.215 629.84,-527.106 646.678,-491 650.841,-482.073 654.652,-207.895 656.081,-91.962"/>
<polygon fill="none" stroke="#404040" points="656.085,-91.6126 652.159,-85.5642 656.231,-79.6135 660.158,-85.6618 656.085,-91.6126"/>
<text text-anchor="middle" x="695.678" y="-317.5" font-family="Helvetica,sans-Serif" font-size="10.00"> +pseudoKeyPress</text>
</g>
<!-- Node14&#45;&gt;Node7 -->
<g id="edge18" class="edge"><title>Node14&#45;&gt;Node7</title>
<path fill="none" stroke="#404040" d="M553.428,-549.458C561.6,-492.651 571.944,-361.03 509.678,-280 475.37,-235.353 413.344,-214.14 366.474,-204.157"/>
<polygon fill="none" stroke="#404040" points="366.376,-204.138 359.711,-206.891 354.607,-201.798 361.271,-199.045 366.376,-204.138"/>
<text text-anchor="middle" x="601.678" y="-437.5" font-family="Helvetica,sans-Serif" font-size="10.00"> +pseudoKeyPress</text>
<text text-anchor="middle" x="601.678" y="-426.5" font-family="Helvetica,sans-Serif" font-size="10.00">+dialogueActive</text>
</g>
<!-- Node14&#45;&gt;Node11 -->
<g id="edge16" class="edge"><title>Node14&#45;&gt;Node11</title>
<path fill="none" stroke="#404040" d="M530.929,-570.471C513.861,-563.31 488.525,-550.22 473.678,-531 467.136,-522.531 462.063,-512.591 458.131,-502.381"/>
<polygon fill="none" stroke="#404040" points="458.053,-502.155 452.322,-497.778 454.158,-490.805 459.889,-495.181 458.053,-502.155"/>
<text text-anchor="middle" x="504.178" y="-523" font-family="Helvetica,sans-Serif" font-size="10.00"> &#45;playerExists</text>
<text text-anchor="middle" x="504.178" y="-512" font-family="Helvetica,sans-Serif" font-size="10.00">&#45;canMove</text>
</g>
<!-- Node15 -->
<g id="node14" class="node"><title>Node15</title>
<polygon fill="none" stroke="#bfbfbf" points="326.178,-549.5 326.178,-606.5 385.178,-606.5 385.178,-549.5 326.178,-549.5"/>
<text text-anchor="middle" x="355.678" y="-594.5" font-family="Helvetica,sans-Serif" font-size="10.00">Transform</text>
<polyline fill="none" stroke="#bfbfbf" points="326.178,-587.5 385.178,-587.5 "/>
<text text-anchor="middle" x="355.678" y="-575.5" font-family="Helvetica,sans-Serif" font-size="10.00"> </text>
<polyline fill="none" stroke="#bfbfbf" points="326.178,-568.5 385.178,-568.5 "/>
<text text-anchor="middle" x="355.678" y="-556.5" font-family="Helvetica,sans-Serif" font-size="10.00"> </text>
</g>
<!-- Node15&#45;&gt;Node11 -->
<g id="edge17" class="edge"><title>Node15&#45;&gt;Node11</title>
<path fill="none" stroke="#404040" d="M365.943,-549.38C371.137,-536.692 377.973,-521.682 385.678,-509 387.571,-505.884 389.581,-502.754 391.675,-499.635"/>
<polygon fill="none" stroke="#404040" points="391.715,-499.577 391.88,-492.368 398.598,-489.747 398.433,-496.956 391.715,-499.577"/>
<text text-anchor="middle" x="402.178" y="-517.5" font-family="Helvetica,sans-Serif" font-size="10.00"> &#45;player</text>
</g>
<!-- Node16 -->
<g id="node15" class="node"><title>Node16</title>
<polygon fill="none" stroke="#bfbfbf" points="172.178,-406 172.178,-463 207.178,-463 207.178,-406 172.178,-406"/>
<text text-anchor="middle" x="189.678" y="-451" font-family="Helvetica,sans-Serif" font-size="10.00">Text</text>
<polyline fill="none" stroke="#bfbfbf" points="172.178,-444 207.178,-444 "/>
<text text-anchor="middle" x="189.678" y="-432" font-family="Helvetica,sans-Serif" font-size="10.00"> </text>
<polyline fill="none" stroke="#bfbfbf" points="172.178,-425 207.178,-425 "/>
<text text-anchor="middle" x="189.678" y="-413" font-family="Helvetica,sans-Serif" font-size="10.00"> </text>
</g>
<!-- Node16&#45;&gt;Node7 -->
<g id="edge19" class="edge"><title>Node16&#45;&gt;Node7</title>
<path fill="none" stroke="#404040" d="M181.672,-405.961C173.945,-373.809 166.151,-319.947 186.678,-280 199.105,-255.816 222.022,-237.006 244.377,-223.337"/>
<polygon fill="none" stroke="#404040" points="244.531,-223.247 247.716,-216.777 254.913,-217.228 251.729,-223.698 244.531,-223.247"/>
<text text-anchor="middle" x="217.178" y="-317.5" font-family="Helvetica,sans-Serif" font-size="10.00"> &#45;dialogueText</text>
</g>
</g>
</svg>
        <g id="navigator" transform="translate(0 0)" fill="#404254">
                <rect fill="#f2f5e9" fill-opacity="0.5" stroke="#606060" stroke-width=".5" x="0" y="0" width="60" height="60"/>
                <use id="zoomplus" xlink:href="#zoomPlus" x="17" y="9" onmousedown="handleZoom(evt,'in')"/>
                <use id="zoomminus" xlink:href="#zoomMin" x="42" y="9" onmousedown="handleZoom(evt,'out')"/>
                <use id="reset" xlink:href="#resetDef" x="30" y="36" onmousedown="handleReset()"/>
                <g id="arrowUp" xlink:href="#dirArrow" transform="translate(30 24)" onmousedown="handlePan(0,-1)">
                  <use xlink:href="#rim" fill="#404040">
                        <set attributeName="fill" to="#808080" begin="arrowUp.mouseover" end="arrowUp.mouseout"/>
                  </use>
                  <path fill="none" stroke="white" stroke-width="1.5" d="M0,-3.0v7 M-2.5,-0.5L0,-3.0L2.5,-0.5"/>
                </g>
                <g id="arrowRight" xlink:href="#dirArrow" transform="rotate(90) translate(36 -43)" onmousedown="handlePan(1,0)">
                  <use xlink:href="#rim" fill="#404040">
                        <set attributeName="fill" to="#808080" begin="arrowRight.mouseover" end="arrowRight.mouseout"/>
                  </use>
                  <path fill="none" stroke="white" stroke-width="1.5" d="M0,-3.0v7 M-2.5,-0.5L0,-3.0L2.5,-0.5"/>
                </g>
                <g id="arrowDown" xlink:href="#dirArrow" transform="rotate(180) translate(-30 -48)" onmousedown="handlePan(0,1)">
                  <use xlink:href="#rim" fill="#404040">
                        <set attributeName="fill" to="#808080" begin="arrowDown.mouseover" end="arrowDown.mouseout"/>
                  </use>
                  <path fill="none" stroke="white" stroke-width="1.5" d="M0,-3.0v7 M-2.5,-0.5L0,-3.0L2.5,-0.5"/>
                </g>
                <g id="arrowLeft" xlink:href="#dirArrow" transform="rotate(270) translate(-36 17)" onmousedown="handlePan(-1,0)">
                  <use xlink:href="#rim" fill="#404040">
                        <set attributeName="fill" to="#808080" begin="arrowLeft.mouseover" end="arrowLeft.mouseout"/>
                  </use>
                  <path fill="none" stroke="white" stroke-width="1.5" d="M0,-3.0v7 M-2.5,-0.5L0,-3.0L2.5,-0.5"/>
                </g>
        </g>
        <svg viewBox="0 0 15 15" width="100%" height="30px" preserveAspectRatio="xMaxYMin meet">
         <g id="arrow_out" transform="scale(0.3 0.3)">
          <a xlink:href="class_object_dialogue__coll__graph_org.svg" target="_base">
           <rect id="button" ry="5" rx="5" y="6" x="6" height="38" width="38"
                fill="#f2f5e9" fill-opacity="0.5" stroke="#606060" stroke-width="1.0"/>
           <path id="arrow"
             d="M 11.500037,31.436501 C 11.940474,20.09759 22.043105,11.32322 32.158766,21.979434 L 37.068811,17.246167 C 37.068811,17.246167 37.088388,32 37.088388,32 L 22.160133,31.978069 C 22.160133,31.978069 26.997745,27.140456 26.997745,27.140456 C 18.528582,18.264221 13.291696,25.230495 11.500037,31.436501 z"
             style="fill:#404040;"/>
          </a>
         </g>
        </svg>
</svg>
