<?xml version="1.0" encoding="UTF-8" standalone="no"?>
<!DOCTYPE svg PUBLIC "-//W3C//DTD SVG 1.1//EN"
 "http://www.w3.org/Graphics/SVG/1.1/DTD/svg11.dtd">
<!-- Generated by graphviz version 2.38.0 (20140413.2041)
 -->
<!-- Title: BattleButtons Pages: 1 -->
<svg width="271pt" height="215pt"
 viewBox="0.00 0.00 270.50 215.00" xmlns="http://www.w3.org/2000/svg" xmlns:xlink="http://www.w3.org/1999/xlink">
<g id="graph0" class="graph" transform="scale(1 1) rotate(0) translate(4 211)">
<title>BattleButtons</title>
<!-- Node2 -->
<g id="node1" class="node"><title>Node2</title>
<polygon fill="#bfbfbf" stroke="black" points="64.5,-0.5 64.5,-101.5 208.5,-101.5 208.5,-0.5 64.5,-0.5"/>
<text text-anchor="middle" x="136.5" y="-89.5" font-family="Helvetica,sans-Serif" font-size="10.00">BattleButtons</text>
<polyline fill="none" stroke="black" points="64.5,-82.5 208.5,-82.5 "/>
<text text-anchor="middle" x="136.5" y="-70.5" font-family="Helvetica,sans-Serif" font-size="10.00"> </text>
<polyline fill="none" stroke="black" points="64.5,-63.5 208.5,-63.5 "/>
<text text-anchor="start" x="72.5" y="-51.5" font-family="Helvetica,sans-Serif" font-size="10.00">+ setPanelActive()</text>
<text text-anchor="start" x="72.5" y="-40.5" font-family="Helvetica,sans-Serif" font-size="10.00">+ showPlayerMenu()</text>
<text text-anchor="start" x="72.5" y="-29.5" font-family="Helvetica,sans-Serif" font-size="10.00">+ updateAttacksPanel()</text>
<text text-anchor="start" x="72.5" y="-18.5" font-family="Helvetica,sans-Serif" font-size="10.00">&#45; Start()</text>
<text text-anchor="start" x="72.5" y="-7.5" font-family="Helvetica,sans-Serif" font-size="10.00">&#45; updateAttacksPanelHelper()</text>
</g>
<!-- Node3 -->
<g id="node2" class="node"><title>Node3</title>
<g id="a_node2"><a xlink:href="class_mono_behaviour.html" target="_top" xlink:title="{MonoBehaviour\n||}">
<polygon fill="none" stroke="black" points="0,-149.5 0,-206.5 83,-206.5 83,-149.5 0,-149.5"/>
<text text-anchor="middle" x="41.5" y="-194.5" font-family="Helvetica,sans-Serif" font-size="10.00">MonoBehaviour</text>
<polyline fill="none" stroke="black" points="0,-187.5 83,-187.5 "/>
<text text-anchor="middle" x="41.5" y="-175.5" font-family="Helvetica,sans-Serif" font-size="10.00"> </text>
<polyline fill="none" stroke="black" points="0,-168.5 83,-168.5 "/>
<text text-anchor="middle" x="41.5" y="-156.5" font-family="Helvetica,sans-Serif" font-size="10.00"> </text>
</a>
</g>
</g>
<!-- Node3&#45;&gt;Node2 -->
<g id="edge1" class="edge"><title>Node3&#45;&gt;Node2</title>
<path fill="none" stroke="midnightblue" d="M68.7975,-141.082C78.0994,-128.843 88.6717,-114.932 98.6506,-101.802"/>
<polygon fill="none" stroke="midnightblue" points="65.8479,-139.179 62.5836,-149.258 71.421,-143.415 65.8479,-139.179"/>
</g>
<!-- Node4 -->
<g id="node3" class="node"><title>Node4</title>
<polygon fill="none" stroke="#bfbfbf" points="101,-149.5 101,-206.5 172,-206.5 172,-149.5 101,-149.5"/>
<text text-anchor="middle" x="136.5" y="-194.5" font-family="Helvetica,sans-Serif" font-size="10.00">GameObject</text>
<polyline fill="none" stroke="#bfbfbf" points="101,-187.5 172,-187.5 "/>
<text text-anchor="middle" x="136.5" y="-175.5" font-family="Helvetica,sans-Serif" font-size="10.00"> </text>
<polyline fill="none" stroke="#bfbfbf" points="101,-168.5 172,-168.5 "/>
<text text-anchor="middle" x="136.5" y="-156.5" font-family="Helvetica,sans-Serif" font-size="10.00"> </text>
</g>
<!-- Node4&#45;&gt;Node2 -->
<g id="edge2" class="edge"><title>Node4&#45;&gt;Node2</title>
<path fill="none" stroke="#404040" d="M136.5,-149.258C136.5,-138.793 136.5,-126.422 136.5,-114.072"/>
<polygon fill="none" stroke="#404040" points="136.5,-113.802 132.5,-107.802 136.5,-101.802 140.5,-107.802 136.5,-113.802"/>
<text text-anchor="middle" x="168.5" y="-123" font-family="Helvetica,sans-Serif" font-size="10.00"> &#45;attacksPanel</text>
</g>
<!-- Node5 -->
<g id="node4" class="node"><title>Node5</title>
<polygon fill="none" stroke="#bfbfbf" points="206,-149.5 206,-206.5 241,-206.5 241,-149.5 206,-149.5"/>
<text text-anchor="middle" x="223.5" y="-194.5" font-family="Helvetica,sans-Serif" font-size="10.00">bool</text>
<polyline fill="none" stroke="#bfbfbf" points="206,-187.5 241,-187.5 "/>
<text text-anchor="middle" x="223.5" y="-175.5" font-family="Helvetica,sans-Serif" font-size="10.00"> </text>
<polyline fill="none" stroke="#bfbfbf" points="206,-168.5 241,-168.5 "/>
<text text-anchor="middle" x="223.5" y="-156.5" font-family="Helvetica,sans-Serif" font-size="10.00"> </text>
</g>
<!-- Node5&#45;&gt;Node2 -->
<g id="edge3" class="edge"><title>Node5&#45;&gt;Node2</title>
<path fill="none" stroke="#404040" d="M215.281,-149.274C211.785,-139.612 207.185,-128.955 201.5,-120 199.654,-117.092 197.671,-114.201 195.585,-111.344"/>
<polygon fill="none" stroke="#404040" points="195.521,-111.262 188.68,-108.982 188.154,-101.79 194.995,-104.07 195.521,-111.262"/>
<text text-anchor="middle" x="234.5" y="-123" font-family="Helvetica,sans-Serif" font-size="10.00"> &#45;panelActive</text>
</g>
</g>
</svg>
