<?xml version="1.0" encoding="UTF-8" standalone="no"?>
<!DOCTYPE svg PUBLIC "-//W3C//DTD SVG 1.1//EN"
 "http://www.w3.org/Graphics/SVG/1.1/DTD/svg11.dtd">
<!-- Generated by graphviz version 2.38.0 (20140413.2041)
 -->
<!-- Title: ItemObjects Pages: 1 -->
<svg width="91pt" height="160pt"
 viewBox="0.00 0.00 91.00 160.00" xmlns="http://www.w3.org/2000/svg" xmlns:xlink="http://www.w3.org/1999/xlink">
<g id="graph0" class="graph" transform="scale(1 1) rotate(0) translate(4 156)">
<title>ItemObjects</title>
<!-- Node0 -->
<g id="node1" class="node"><title>Node0</title>
<polygon fill="#bfbfbf" stroke="black" points="7,-0.5 7,-57.5 76,-57.5 76,-0.5 7,-0.5"/>
<text text-anchor="middle" x="41.5" y="-45.5" font-family="Helvetica,sans-Serif" font-size="10.00">ItemObjects</text>
<polyline fill="none" stroke="black" points="7,-38.5 76,-38.5 "/>
<text text-anchor="start" x="15" y="-26.5" font-family="Helvetica,sans-Serif" font-size="10.00">+ items</text>
<polyline fill="none" stroke="black" points="7,-19.5 76,-19.5 "/>
<text text-anchor="start" x="15" y="-7.5" font-family="Helvetica,sans-Serif" font-size="10.00">&#45; Start()</text>
</g>
<!-- Node1 -->
<g id="node2" class="node"><title>Node1</title>
<g id="a_node2"><a xlink:href="class_mono_behaviour.html" target="_top" xlink:title="{MonoBehaviour\n||}">
<polygon fill="none" stroke="black" points="0,-94.5 0,-151.5 83,-151.5 83,-94.5 0,-94.5"/>
<text text-anchor="middle" x="41.5" y="-139.5" font-family="Helvetica,sans-Serif" font-size="10.00">MonoBehaviour</text>
<polyline fill="none" stroke="black" points="0,-132.5 83,-132.5 "/>
<text text-anchor="middle" x="41.5" y="-120.5" font-family="Helvetica,sans-Serif" font-size="10.00"> </text>
<polyline fill="none" stroke="black" points="0,-113.5 83,-113.5 "/>
<text text-anchor="middle" x="41.5" y="-101.5" font-family="Helvetica,sans-Serif" font-size="10.00"> </text>
</a>
</g>
</g>
<!-- Node1&#45;&gt;Node0 -->
<g id="edge1" class="edge"><title>Node1&#45;&gt;Node0</title>
<path fill="none" stroke="midnightblue" d="M41.5,-84.2092C41.5,-75.2929 41.5,-65.9513 41.5,-57.5836"/>
<polygon fill="none" stroke="midnightblue" points="38.0001,-84.3969 41.5,-94.397 45.0001,-84.397 38.0001,-84.3969"/>
</g>
</g>
</svg>
