<?xml version="1.0" encoding="UTF-8" standalone="no"?>
<!DOCTYPE svg PUBLIC "-//W3C//DTD SVG 1.1//EN"
 "http://www.w3.org/Graphics/SVG/1.1/DTD/svg11.dtd">
<!-- Generated by graphviz version 2.38.0 (20140413.2041)
 -->
<!-- Title: MainBattle Pages: 1 -->
<svg width="1406pt" height="1577pt"
 viewBox="0.00 0.00 1406.00 1577.00" xmlns="http://www.w3.org/2000/svg" xmlns:xlink="http://www.w3.org/1999/xlink">
<g id="graph0" class="graph" transform="scale(1 1) rotate(0) translate(4 1573)">
<title>MainBattle</title>
<!-- Node2 -->
<g id="node1" class="node"><title>Node2</title>
<polygon fill="#bfbfbf" stroke="black" points="739.5,-0.5 739.5,-167.5 846.5,-167.5 846.5,-0.5 739.5,-0.5"/>
<text text-anchor="middle" x="793" y="-155.5" font-family="Helvetica,sans-Serif" font-size="10.00">MainBattle</text>
<polyline fill="none" stroke="black" points="739.5,-148.5 846.5,-148.5 "/>
<text text-anchor="middle" x="793" y="-136.5" font-family="Helvetica,sans-Serif" font-size="10.00"> </text>
<polyline fill="none" stroke="black" points="739.5,-129.5 846.5,-129.5 "/>
<text text-anchor="start" x="747.5" y="-117.5" font-family="Helvetica,sans-Serif" font-size="10.00">+ standardAttack()</text>
<text text-anchor="start" x="747.5" y="-106.5" font-family="Helvetica,sans-Serif" font-size="10.00">+ runAway()</text>
<text text-anchor="start" x="747.5" y="-95.5" font-family="Helvetica,sans-Serif" font-size="10.00">&#45; Start()</text>
<text text-anchor="start" x="747.5" y="-84.5" font-family="Helvetica,sans-Serif" font-size="10.00">&#45; Update()</text>
<text text-anchor="start" x="747.5" y="-73.5" font-family="Helvetica,sans-Serif" font-size="10.00">&#45; playerThenEnemy()</text>
<text text-anchor="start" x="747.5" y="-62.5" font-family="Helvetica,sans-Serif" font-size="10.00">&#45; enemyThenPlayer()</text>
<text text-anchor="start" x="747.5" y="-51.5" font-family="Helvetica,sans-Serif" font-size="10.00">&#45; performTurn()</text>
<text text-anchor="start" x="747.5" y="-40.5" font-family="Helvetica,sans-Serif" font-size="10.00">&#45; checkIfPlayerWon()</text>
<text text-anchor="start" x="747.5" y="-29.5" font-family="Helvetica,sans-Serif" font-size="10.00">&#45; updateExp()</text>
<text text-anchor="start" x="747.5" y="-18.5" font-family="Helvetica,sans-Serif" font-size="10.00">&#45; updateExpHelper()</text>
<text text-anchor="start" x="747.5" y="-7.5" font-family="Helvetica,sans-Serif" font-size="10.00">&#45; checkIfPlayerLost()</text>
</g>
<!-- Node3 -->
<g id="node2" class="node"><title>Node3</title>
<g id="a_node2"><a xlink:href="class_mono_behaviour.html" target="_top" xlink:title="{MonoBehaviour\n||}">
<polygon fill="none" stroke="black" points="821.5,-452.5 821.5,-509.5 904.5,-509.5 904.5,-452.5 821.5,-452.5"/>
<text text-anchor="middle" x="863" y="-497.5" font-family="Helvetica,sans-Serif" font-size="10.00">MonoBehaviour</text>
<polyline fill="none" stroke="black" points="821.5,-490.5 904.5,-490.5 "/>
<text text-anchor="middle" x="863" y="-478.5" font-family="Helvetica,sans-Serif" font-size="10.00"> </text>
<polyline fill="none" stroke="black" points="821.5,-471.5 904.5,-471.5 "/>
<text text-anchor="middle" x="863" y="-459.5" font-family="Helvetica,sans-Serif" font-size="10.00"> </text>
</a>
</g>
</g>
<!-- Node3&#45;&gt;Node2 -->
<g id="edge1" class="edge"><title>Node3&#45;&gt;Node2</title>
<path fill="none" stroke="midnightblue" d="M856.33,-442.362C845.207,-379.597 822.616,-252.121 807.644,-167.632"/>
<polygon fill="none" stroke="midnightblue" points="852.886,-442.989 858.078,-452.224 859.779,-441.767 852.886,-442.989"/>
</g>
<!-- Node17 -->
<g id="node16" class="node"><title>Node17</title>
<g id="a_node16"><a xlink:href="class_stats_script.html" target="_top" xlink:title="{StatsScript\n||+ setUpDisplay()\l+ updateDisplay()\l&#45; Start()\l&#45; Update()\l}">
<polygon fill="none" stroke="black" points="859.5,-248.5 859.5,-338.5 952.5,-338.5 952.5,-248.5 859.5,-248.5"/>
<text text-anchor="middle" x="906" y="-326.5" font-family="Helvetica,sans-Serif" font-size="10.00">StatsScript</text>
<polyline fill="none" stroke="black" points="859.5,-319.5 952.5,-319.5 "/>
<text text-anchor="middle" x="906" y="-307.5" font-family="Helvetica,sans-Serif" font-size="10.00"> </text>
<polyline fill="none" stroke="black" points="859.5,-300.5 952.5,-300.5 "/>
<text text-anchor="start" x="867.5" y="-288.5" font-family="Helvetica,sans-Serif" font-size="10.00">+ setUpDisplay()</text>
<text text-anchor="start" x="867.5" y="-277.5" font-family="Helvetica,sans-Serif" font-size="10.00">+ updateDisplay()</text>
<text text-anchor="start" x="867.5" y="-266.5" font-family="Helvetica,sans-Serif" font-size="10.00">&#45; Start()</text>
<text text-anchor="start" x="867.5" y="-255.5" font-family="Helvetica,sans-Serif" font-size="10.00">&#45; Update()</text>
</a>
</g>
</g>
<!-- Node3&#45;&gt;Node17 -->
<g id="edge31" class="edge"><title>Node3&#45;&gt;Node17</title>
<path fill="none" stroke="midnightblue" d="M871.772,-442.159C878.722,-412.174 888.446,-370.227 895.754,-338.701"/>
<polygon fill="none" stroke="midnightblue" points="868.286,-441.697 869.438,-452.229 875.105,-443.277 868.286,-441.697"/>
</g>
<!-- Node4 -->
<g id="node3" class="node"><title>Node4</title>
<polygon fill="none" stroke="#bfbfbf" points="971,-265 971,-322 1029,-322 1029,-265 971,-265"/>
<text text-anchor="middle" x="1000" y="-310" font-family="Helvetica,sans-Serif" font-size="10.00">AudioClip</text>
<polyline fill="none" stroke="#bfbfbf" points="971,-303 1029,-303 "/>
<text text-anchor="middle" x="1000" y="-291" font-family="Helvetica,sans-Serif" font-size="10.00"> </text>
<polyline fill="none" stroke="#bfbfbf" points="971,-284 1029,-284 "/>
<text text-anchor="middle" x="1000" y="-272" font-family="Helvetica,sans-Serif" font-size="10.00"> </text>
</g>
<!-- Node4&#45;&gt;Node2 -->
<g id="edge2" class="edge"><title>Node4&#45;&gt;Node2</title>
<path fill="none" stroke="#404040" d="M978.877,-264.721C961.548,-242.57 935.898,-211.194 911,-186 893.971,-168.769 874.362,-151.193 856.081,-135.636"/>
<polygon fill="none" stroke="#404040" points="855.838,-135.432 848.672,-134.623 846.662,-127.698 853.828,-128.506 855.838,-135.432"/>
<text text-anchor="middle" x="965.5" y="-211" font-family="Helvetica,sans-Serif" font-size="10.00"> &#45;BGM</text>
<text text-anchor="middle" x="965.5" y="-200" font-family="Helvetica,sans-Serif" font-size="10.00">&#45;victory</text>
</g>
<!-- Node5 -->
<g id="node4" class="node"><title>Node5</title>
<g id="a_node4"><a xlink:href="class_item.html" target="_top" xlink:title="{Item\n|+ Name\l+ Desc\l|+ applyBuffs()\l+ revertBuffs()\l}">
<polygon fill="none" stroke="black" points="53.5,-1373.5 53.5,-1452.5 130.5,-1452.5 130.5,-1373.5 53.5,-1373.5"/>
<text text-anchor="middle" x="92" y="-1440.5" font-family="Helvetica,sans-Serif" font-size="10.00">Item</text>
<polyline fill="none" stroke="black" points="53.5,-1433.5 130.5,-1433.5 "/>
<text text-anchor="start" x="61.5" y="-1421.5" font-family="Helvetica,sans-Serif" font-size="10.00">+ Name</text>
<text text-anchor="start" x="61.5" y="-1410.5" font-family="Helvetica,sans-Serif" font-size="10.00">+ Desc</text>
<polyline fill="none" stroke="black" points="53.5,-1403.5 130.5,-1403.5 "/>
<text text-anchor="start" x="61.5" y="-1391.5" font-family="Helvetica,sans-Serif" font-size="10.00">+ applyBuffs()</text>
<text text-anchor="start" x="61.5" y="-1380.5" font-family="Helvetica,sans-Serif" font-size="10.00">+ revertBuffs()</text>
</a>
</g>
</g>
<!-- Node5&#45;&gt;Node2 -->
<g id="edge3" class="edge"><title>Node5&#45;&gt;Node2</title>
<path fill="none" stroke="#404040" d="M75.56,-1373.27C64.1535,-1342.9 51,-1299.25 51,-1259.5 51,-1259.5 51,-1259.5 51,-292.5 51,-152.671 545.894,-102.837 727.338,-89.2657"/>
<polygon fill="none" stroke="#404040" points="727.371,-89.2634 733.063,-84.8359 739.339,-88.387 733.647,-92.8145 727.371,-89.2634"/>
<text text-anchor="middle" x="80" y="-735" font-family="Helvetica,sans-Serif" font-size="10.00"> &#45;itemReward</text>
</g>
<!-- Node16 -->
<g id="node15" class="node"><title>Node16</title>
<g id="a_node15"><a xlink:href="class_player.html" target="_top" xlink:title="Defines a playable character for use in battle scenes">
<polygon fill="none" stroke="black" points="229,-1202.5 229,-1314.5 341,-1314.5 341,-1202.5 229,-1202.5"/>
<text text-anchor="middle" x="285" y="-1302.5" font-family="Helvetica,sans-Serif" font-size="10.00">Player</text>
<polyline fill="none" stroke="black" points="229,-1295.5 341,-1295.5 "/>
<text text-anchor="start" x="237" y="-1283.5" font-family="Helvetica,sans-Serif" font-size="10.00">+ Exp</text>
<text text-anchor="start" x="237" y="-1272.5" font-family="Helvetica,sans-Serif" font-size="10.00">+ Item</text>
<text text-anchor="start" x="237" y="-1261.5" font-family="Helvetica,sans-Serif" font-size="10.00">+ ExpToNextLevel</text>
<polyline fill="none" stroke="black" points="229,-1254.5 341,-1254.5 "/>
<text text-anchor="start" x="237" y="-1242.5" font-family="Helvetica,sans-Serif" font-size="10.00">+ Player()</text>
<text text-anchor="start" x="237" y="-1231.5" font-family="Helvetica,sans-Serif" font-size="10.00">+ gainExp()</text>
<text text-anchor="start" x="237" y="-1220.5" font-family="Helvetica,sans-Serif" font-size="10.00">+ levelUp()</text>
<text text-anchor="start" x="237" y="-1209.5" font-family="Helvetica,sans-Serif" font-size="10.00">&#45; setExpToNextLevel()</text>
</a>
</g>
</g>
<!-- Node5&#45;&gt;Node16 -->
<g id="edge23" class="edge"><title>Node5&#45;&gt;Node16</title>
<path fill="none" stroke="#404040" d="M130.593,-1381.51C156.004,-1361.43 189.916,-1334.63 219.485,-1311.27"/>
<polygon fill="none" stroke="#404040" points="219.502,-1311.25 221.729,-1304.4 228.917,-1303.81 226.689,-1310.67 219.502,-1311.25"/>
<text text-anchor="middle" x="201.5" y="-1341.5" font-family="Helvetica,sans-Serif" font-size="10.00"> &#45;item</text>
</g>
<!-- Node6 -->
<g id="node5" class="node"><title>Node6</title>
<polygon fill="none" stroke="#bfbfbf" points="545.5,-1511.5 545.5,-1568.5 586.5,-1568.5 586.5,-1511.5 545.5,-1511.5"/>
<text text-anchor="middle" x="566" y="-1556.5" font-family="Helvetica,sans-Serif" font-size="10.00">string</text>
<polyline fill="none" stroke="#bfbfbf" points="545.5,-1549.5 586.5,-1549.5 "/>
<text text-anchor="middle" x="566" y="-1537.5" font-family="Helvetica,sans-Serif" font-size="10.00"> </text>
<polyline fill="none" stroke="#bfbfbf" points="545.5,-1530.5 586.5,-1530.5 "/>
<text text-anchor="middle" x="566" y="-1518.5" font-family="Helvetica,sans-Serif" font-size="10.00"> </text>
</g>
<!-- Node6&#45;&gt;Node2 -->
<g id="edge6" class="edge"><title>Node6&#45;&gt;Node2</title>
<path fill="none" stroke="#404040" d="M545.185,-1538.94C443.071,-1538.12 0,-1527.97 0,-1414 0,-1414 0,-1414 0,-292.5 0,-231.381 33.7773,-216.048 87,-186 196.002,-124.46 573.223,-97.1263 726.985,-88.3543"/>
<polygon fill="none" stroke="#404040" points="727.431,-88.3294 733.198,-84 739.412,-87.6582 733.645,-91.9875 727.431,-88.3294"/>
<text text-anchor="middle" x="11.5" y="-798.5" font-family="Helvetica,sans-Serif" font-size="10.00"> &#45;text</text>
</g>
<!-- Node6&#45;&gt;Node5 -->
<g id="edge4" class="edge"><title>Node6&#45;&gt;Node5</title>
<path fill="none" stroke="#404040" d="M545.328,-1533.55C475.297,-1515.08 245.659,-1454.52 142.716,-1427.37"/>
<polygon fill="none" stroke="#404040" points="142.412,-1427.29 135.591,-1429.63 130.809,-1424.23 137.631,-1421.9 142.412,-1427.29"/>
<text text-anchor="middle" x="401" y="-1485" font-family="Helvetica,sans-Serif" font-size="10.00"> #desc</text>
<text text-anchor="middle" x="401" y="-1474" font-family="Helvetica,sans-Serif" font-size="10.00">#name</text>
</g>
<!-- Node10 -->
<g id="node9" class="node"><title>Node10</title>
<g id="a_node9"><a xlink:href="class_character.html" target="_top" xlink:title="Base abstract class for Enemy and Player to inherit from. Defines all shared variables, their constructor and their setters and getters ">
<polygon fill="none" stroke="black" points="444.5,-397.5 444.5,-564.5 539.5,-564.5 539.5,-397.5 444.5,-397.5"/>
<text text-anchor="middle" x="492" y="-552.5" font-family="Helvetica,sans-Serif" font-size="10.00">Character</text>
<polyline fill="none" stroke="black" points="444.5,-545.5 539.5,-545.5 "/>
<text text-anchor="start" x="452.5" y="-533.5" font-family="Helvetica,sans-Serif" font-size="10.00">+ Name</text>
<text text-anchor="start" x="452.5" y="-522.5" font-family="Helvetica,sans-Serif" font-size="10.00">+ Level</text>
<text text-anchor="start" x="452.5" y="-511.5" font-family="Helvetica,sans-Serif" font-size="10.00">+ Health</text>
<text text-anchor="start" x="452.5" y="-500.5" font-family="Helvetica,sans-Serif" font-size="10.00">+ Attack</text>
<text text-anchor="start" x="452.5" y="-489.5" font-family="Helvetica,sans-Serif" font-size="10.00">+ Defence</text>
<text text-anchor="start" x="452.5" y="-478.5" font-family="Helvetica,sans-Serif" font-size="10.00">+ MaximumMagic</text>
<text text-anchor="start" x="452.5" y="-467.5" font-family="Helvetica,sans-Serif" font-size="10.00">+ Magic</text>
<text text-anchor="start" x="452.5" y="-456.5" font-family="Helvetica,sans-Serif" font-size="10.00">+ Luck</text>
<text text-anchor="start" x="452.5" y="-445.5" font-family="Helvetica,sans-Serif" font-size="10.00">+ Speed</text>
<text text-anchor="start" x="452.5" y="-434.5" font-family="Helvetica,sans-Serif" font-size="10.00">+ Special1</text>
<text text-anchor="start" x="452.5" y="-423.5" font-family="Helvetica,sans-Serif" font-size="10.00">+ Special2</text>
<polyline fill="none" stroke="black" points="444.5,-416.5 539.5,-416.5 "/>
<text text-anchor="start" x="452.5" y="-404.5" font-family="Helvetica,sans-Serif" font-size="10.00"># Character()</text>
</a>
</g>
</g>
<!-- Node6&#45;&gt;Node10 -->
<g id="edge10" class="edge"><title>Node6&#45;&gt;Node10</title>
<path fill="none" stroke="#404040" d="M585.434,-1511.13C600.56,-1486.69 619,-1449.59 619,-1414 619,-1414 619,-1414 619,-1177.5 619,-1082.97 618.211,-1059.02 628,-965 628.84,-956.933 630.331,-955.083 631,-947 634.226,-908.022 634.996,-897.906 631,-859 620.054,-752.435 622.372,-722.227 582,-623 572.642,-599.999 559.494,-576.632 546.132,-555.711"/>
<polygon fill="none" stroke="#404040" points="546.126,-555.701 539.498,-552.859 539.572,-545.649 546.199,-548.49 546.126,-555.701"/>
<text text-anchor="middle" x="644.5" y="-1057.5" font-family="Helvetica,sans-Serif" font-size="10.00"> #name</text>
</g>
<!-- Node12 -->
<g id="node11" class="node"><title>Node12</title>
<g id="a_node11"><a xlink:href="class_special_move.html" target="_top" xlink:title="Special move abstract base class that expands upon CharacterMove, adding magic properties ...">
<polygon fill="none" stroke="black" points="411,-623.5 411,-713.5 509,-713.5 509,-623.5 411,-623.5"/>
<text text-anchor="middle" x="460" y="-701.5" font-family="Helvetica,sans-Serif" font-size="10.00">SpecialMove</text>
<polyline fill="none" stroke="black" points="411,-694.5 509,-694.5 "/>
<text text-anchor="start" x="419" y="-682.5" font-family="Helvetica,sans-Serif" font-size="10.00">+ Magic</text>
<text text-anchor="start" x="419" y="-671.5" font-family="Helvetica,sans-Serif" font-size="10.00">+ Desc</text>
<polyline fill="none" stroke="black" points="411,-664.5 509,-664.5 "/>
<text text-anchor="start" x="419" y="-652.5" font-family="Helvetica,sans-Serif" font-size="10.00">+ setUp()</text>
<text text-anchor="start" x="419" y="-641.5" font-family="Helvetica,sans-Serif" font-size="10.00">+ decreaseMagic()</text>
<text text-anchor="start" x="419" y="-630.5" font-family="Helvetica,sans-Serif" font-size="10.00"># SpecialMove()</text>
</a>
</g>
</g>
<!-- Node6&#45;&gt;Node12 -->
<g id="edge25" class="edge"><title>Node6&#45;&gt;Node12</title>
<path fill="none" stroke="#404040" d="M549.684,-1511.4C526.017,-1470.11 482.435,-1389.18 459,-1315 441.215,-1258.71 441.906,-1242.83 437,-1184 436.594,-1179.13 434.657,-1177.29 437,-1173 444.089,-1160.02 457.89,-1167.97 465,-1155 532.069,-1032.62 465.778,-980.556 466,-841 466.077,-792.556 468.317,-780.389 466,-732 465.901,-729.941 465.785,-727.846 465.653,-725.731"/>
<polygon fill="none" stroke="#404040" points="465.635,-725.478 461.207,-719.786 464.758,-713.51 469.185,-719.202 465.635,-725.478"/>
<text text-anchor="middle" x="452" y="-1176" font-family="Helvetica,sans-Serif" font-size="10.00"> #desc</text>
</g>
<!-- Node13 -->
<g id="node12" class="node"><title>Node13</title>
<g id="a_node12"><a xlink:href="class_character_move.html" target="_top" xlink:title="Astract base class for character moves ">
<polygon fill="none" stroke="black" points="508,-761.5 508,-840.5 594,-840.5 594,-761.5 508,-761.5"/>
<text text-anchor="middle" x="551" y="-828.5" font-family="Helvetica,sans-Serif" font-size="10.00">CharacterMove</text>
<polyline fill="none" stroke="black" points="508,-821.5 594,-821.5 "/>
<text text-anchor="start" x="516" y="-809.5" font-family="Helvetica,sans-Serif" font-size="10.00">+ User</text>
<text text-anchor="start" x="516" y="-798.5" font-family="Helvetica,sans-Serif" font-size="10.00">+ Target</text>
<text text-anchor="start" x="516" y="-787.5" font-family="Helvetica,sans-Serif" font-size="10.00">+ Text</text>
<polyline fill="none" stroke="black" points="508,-780.5 594,-780.5 "/>
<text text-anchor="start" x="516" y="-768.5" font-family="Helvetica,sans-Serif" font-size="10.00">+ performMove()</text>
</a>
</g>
</g>
<!-- Node6&#45;&gt;Node13 -->
<g id="edge14" class="edge"><title>Node6&#45;&gt;Node13</title>
<path fill="none" stroke="#404040" d="M565.439,-1511.45C563.212,-1402 554.965,-996.821 552.039,-853.026"/>
<polygon fill="none" stroke="#404040" points="552.033,-852.734 547.911,-846.817 551.788,-840.736 555.91,-846.654 552.033,-852.734"/>
<text text-anchor="middle" x="574.5" y="-1256" font-family="Helvetica,sans-Serif" font-size="10.00"> #text</text>
</g>
<!-- Node14 -->
<g id="node13" class="node"><title>Node14</title>
<g id="a_node13"><a xlink:href="class_battle_manager.html" target="_top" xlink:title="{BattleManager\n|+ Player\l+ Enemy\l+ WasCriticalHit\l|+ BattleManager()\l+ playerFirst()\l+ switchPlayers()\l+ isCriticalHit()\l+ ranAway()\l+ damageCalculation()\l+ enemyMove()\l+ enemySpecialMove()\l+ battleWon()\l+ playerFainted()\l&#45; characterFainted()\l}">
<polygon fill="none" stroke="black" points="670,-965.5 670,-1154.5 786,-1154.5 786,-965.5 670,-965.5"/>
<text text-anchor="middle" x="728" y="-1142.5" font-family="Helvetica,sans-Serif" font-size="10.00">BattleManager</text>
<polyline fill="none" stroke="black" points="670,-1135.5 786,-1135.5 "/>
<text text-anchor="start" x="678" y="-1123.5" font-family="Helvetica,sans-Serif" font-size="10.00">+ Player</text>
<text text-anchor="start" x="678" y="-1112.5" font-family="Helvetica,sans-Serif" font-size="10.00">+ Enemy</text>
<text text-anchor="start" x="678" y="-1101.5" font-family="Helvetica,sans-Serif" font-size="10.00">+ WasCriticalHit</text>
<polyline fill="none" stroke="black" points="670,-1094.5 786,-1094.5 "/>
<text text-anchor="start" x="678" y="-1082.5" font-family="Helvetica,sans-Serif" font-size="10.00">+ BattleManager()</text>
<text text-anchor="start" x="678" y="-1071.5" font-family="Helvetica,sans-Serif" font-size="10.00">+ playerFirst()</text>
<text text-anchor="start" x="678" y="-1060.5" font-family="Helvetica,sans-Serif" font-size="10.00">+ switchPlayers()</text>
<text text-anchor="start" x="678" y="-1049.5" font-family="Helvetica,sans-Serif" font-size="10.00">+ isCriticalHit()</text>
<text text-anchor="start" x="678" y="-1038.5" font-family="Helvetica,sans-Serif" font-size="10.00">+ ranAway()</text>
<text text-anchor="start" x="678" y="-1027.5" font-family="Helvetica,sans-Serif" font-size="10.00">+ damageCalculation()</text>
<text text-anchor="start" x="678" y="-1016.5" font-family="Helvetica,sans-Serif" font-size="10.00">+ enemyMove()</text>
<text text-anchor="start" x="678" y="-1005.5" font-family="Helvetica,sans-Serif" font-size="10.00">+ enemySpecialMove()</text>
<text text-anchor="start" x="678" y="-994.5" font-family="Helvetica,sans-Serif" font-size="10.00">+ battleWon()</text>
<text text-anchor="start" x="678" y="-983.5" font-family="Helvetica,sans-Serif" font-size="10.00">+ playerFainted()</text>
<text text-anchor="start" x="678" y="-972.5" font-family="Helvetica,sans-Serif" font-size="10.00">&#45; characterFainted()</text>
</a>
</g>
</g>
<!-- Node6&#45;&gt;Node14 -->
<g id="edge17" class="edge"><title>Node6&#45;&gt;Node14</title>
<path fill="none" stroke="#404040" d="M586.733,-1529.97C601.868,-1522.3 621.649,-1509.85 633,-1493 698.762,-1395.38 719.831,-1259.78 726.152,-1166.69"/>
<polygon fill="none" stroke="#404040" points="726.153,-1166.67 722.535,-1160.44 726.901,-1154.7 730.519,-1160.93 726.153,-1166.67"/>
<text text-anchor="middle" x="739" y="-1341.5" font-family="Helvetica,sans-Serif" font-size="10.00"> +forceCriticalHits</text>
</g>
<!-- Node6&#45;&gt;Node17 -->
<g id="edge32" class="edge"><title>Node6&#45;&gt;Node17</title>
<path fill="none" stroke="#404040" d="M586.518,-1536.57C663.806,-1526.87 933,-1487.79 933,-1414 933,-1414 933,-1414 933,-480 933,-436.288 925.567,-387.38 918.502,-350.762"/>
<polygon fill="none" stroke="#404040" points="918.471,-350.609 913.378,-345.505 916.131,-338.84 921.224,-343.944 918.471,-350.609"/>
<text text-anchor="middle" x="961.5" y="-900.5" font-family="Helvetica,sans-Serif" font-size="10.00"> +textHeader</text>
</g>
<!-- Node7 -->
<g id="node6" class="node"><title>Node7</title>
<polygon fill="none" stroke="#bfbfbf" points="1047,-259.5 1047,-327.5 1163,-327.5 1163,-259.5 1047,-259.5"/>
<text text-anchor="start" x="1055" y="-315.5" font-family="Helvetica,sans-Serif" font-size="10.00">IDictionary&lt; Character,</text>
<text text-anchor="middle" x="1105" y="-304.5" font-family="Helvetica,sans-Serif" font-size="10.00"> StatsScript &gt;</text>
<polyline fill="none" stroke="#bfbfbf" points="1047,-297.5 1163,-297.5 "/>
<text text-anchor="middle" x="1105" y="-285.5" font-family="Helvetica,sans-Serif" font-size="10.00"> </text>
<polyline fill="none" stroke="#bfbfbf" points="1047,-278.5 1163,-278.5 "/>
<text text-anchor="middle" x="1105" y="-266.5" font-family="Helvetica,sans-Serif" font-size="10.00"> </text>
</g>
<!-- Node7&#45;&gt;Node2 -->
<g id="edge5" class="edge"><title>Node7&#45;&gt;Node2</title>
<path fill="none" stroke="#404040" d="M1072.17,-259.414C1049.02,-237.105 1016.62,-207.865 985,-186 944.823,-158.214 896.075,-132.658 857.752,-114.205"/>
<polygon fill="none" stroke="#404040" points="857.56,-114.114 850.423,-115.144 846.726,-108.953 853.863,-107.922 857.56,-114.114"/>
<text text-anchor="middle" x="1065" y="-211" font-family="Helvetica,sans-Serif" font-size="10.00"> &#45;healthBar</text>
<text text-anchor="middle" x="1065" y="-200" font-family="Helvetica,sans-Serif" font-size="10.00">&#45;magicBar</text>
</g>
<!-- Node8 -->
<g id="node7" class="node"><title>Node8</title>
<polygon fill="none" stroke="#bfbfbf" points="1181.5,-265 1181.5,-322 1252.5,-322 1252.5,-265 1181.5,-265"/>
<text text-anchor="middle" x="1217" y="-310" font-family="Helvetica,sans-Serif" font-size="10.00">GameObject</text>
<polyline fill="none" stroke="#bfbfbf" points="1181.5,-303 1252.5,-303 "/>
<text text-anchor="middle" x="1217" y="-291" font-family="Helvetica,sans-Serif" font-size="10.00"> </text>
<polyline fill="none" stroke="#bfbfbf" points="1181.5,-284 1252.5,-284 "/>
<text text-anchor="middle" x="1217" y="-272" font-family="Helvetica,sans-Serif" font-size="10.00"> </text>
</g>
<!-- Node8&#45;&gt;Node2 -->
<g id="edge7" class="edge"><title>Node8&#45;&gt;Node2</title>
<path fill="none" stroke="#404040" d="M1191.49,-264.67C1168.04,-240.64 1131.21,-206.628 1093,-186 1016.91,-144.914 921.009,-116.177 858.405,-100.13"/>
<polygon fill="none" stroke="#404040" points="858.366,-100.121 851.57,-102.532 846.73,-97.1862 853.526,-94.7748 858.366,-100.121"/>
<text text-anchor="middle" x="1187" y="-222" font-family="Helvetica,sans-Serif" font-size="10.00"> &#45;enemyStats</text>
<text text-anchor="middle" x="1187" y="-211" font-family="Helvetica,sans-Serif" font-size="10.00">&#45;playerCamera</text>
<text text-anchor="middle" x="1187" y="-200" font-family="Helvetica,sans-Serif" font-size="10.00">&#45;playerStats</text>
<text text-anchor="middle" x="1187" y="-189" font-family="Helvetica,sans-Serif" font-size="10.00">&#45;globalData</text>
</g>
<!-- Node9 -->
<g id="node8" class="node"><title>Node9</title>
<g id="a_node8"><a xlink:href="class_enemy.html" target="_top" xlink:title="Defines an AI controller enemy to fight in battle scenes">
<polygon fill="none" stroke="black" points="488.5,-265 488.5,-322 555.5,-322 555.5,-265 488.5,-265"/>
<text text-anchor="middle" x="522" y="-310" font-family="Helvetica,sans-Serif" font-size="10.00">Enemy</text>
<polyline fill="none" stroke="black" points="488.5,-303 555.5,-303 "/>
<text text-anchor="start" x="496.5" y="-291" font-family="Helvetica,sans-Serif" font-size="10.00">+ ExpGiven</text>
<polyline fill="none" stroke="black" points="488.5,-284 555.5,-284 "/>
<text text-anchor="start" x="496.5" y="-272" font-family="Helvetica,sans-Serif" font-size="10.00">+ Enemy()</text>
</a>
</g>
</g>
<!-- Node9&#45;&gt;Node2 -->
<g id="edge8" class="edge"><title>Node9&#45;&gt;Node2</title>
<path fill="none" stroke="#404040" d="M532.283,-264.975C542.231,-241.472 559.29,-208.064 583,-186 624.411,-147.463 683.236,-120.892 728.096,-104.712"/>
<polygon fill="none" stroke="#404040" points="728.15,-104.693 732.488,-98.933 739.473,-100.722 735.135,-106.482 728.15,-104.693"/>
<text text-anchor="middle" x="615" y="-211" font-family="Helvetica,sans-Serif" font-size="10.00"> &#45;enemyObject</text>
<text text-anchor="middle" x="615" y="-200" font-family="Helvetica,sans-Serif" font-size="10.00">&#45;enemy</text>
</g>
<!-- Node9&#45;&gt;Node14 -->
<g id="edge18" class="edge"><title>Node9&#45;&gt;Node14</title>
<path fill="none" stroke="#404040" d="M555.657,-308.559C589.58,-324.632 640.461,-354.349 666,-397 711.114,-472.343 691,-505.183 691,-593 691,-802 691,-802 691,-802 691,-852.177 697.995,-907.307 705.902,-953.596"/>
<polygon fill="none" stroke="#404040" points="705.912,-953.655 710.888,-958.874 707.984,-965.475 703.008,-960.255 705.912,-953.655"/>
<text text-anchor="middle" x="709" y="-666" font-family="Helvetica,sans-Serif" font-size="10.00"> &#45;enemy</text>
</g>
<!-- Node10&#45;&gt;Node9 -->
<g id="edge9" class="edge"><title>Node10&#45;&gt;Node9</title>
<path fill="none" stroke="midnightblue" d="M507.023,-387.106C510.871,-363.311 514.718,-339.529 517.549,-322.024"/>
<polygon fill="none" stroke="midnightblue" points="503.518,-386.856 505.377,-397.286 510.429,-387.974 503.518,-386.856"/>
</g>
<!-- Node10&#45;&gt;Node13 -->
<g id="edge15" class="edge"><title>Node10&#45;&gt;Node13</title>
<path fill="none" stroke="#404040" d="M519.516,-564.622C521.164,-570.807 522.684,-576.98 524,-583 536.281,-639.154 543.48,-704.793 547.312,-749.053"/>
<polygon fill="none" stroke="#404040" points="547.33,-749.266 551.815,-754.913 548.327,-761.225 543.842,-755.578 547.33,-749.266"/>
<text text-anchor="middle" x="561" y="-671.5" font-family="Helvetica,sans-Serif" font-size="10.00"> #target</text>
<text text-anchor="middle" x="561" y="-660.5" font-family="Helvetica,sans-Serif" font-size="10.00">#user</text>
</g>
<!-- Node10&#45;&gt;Node16 -->
<g id="edge22" class="edge"><title>Node10&#45;&gt;Node16</title>
<path fill="none" stroke="midnightblue" d="M435.654,-514.464C411.1,-531.622 384.447,-554.966 369,-583 339.299,-636.906 302.22,-1050.91 289.514,-1202.29"/>
<polygon fill="none" stroke="midnightblue" points="437.913,-517.161 444.23,-508.655 433.988,-511.365 437.913,-517.161"/>
</g>
<!-- Node11 -->
<g id="node10" class="node"><title>Node11</title>
<polygon fill="none" stroke="#bfbfbf" points="309.5,-1384.5 309.5,-1441.5 338.5,-1441.5 338.5,-1384.5 309.5,-1384.5"/>
<text text-anchor="middle" x="324" y="-1429.5" font-family="Helvetica,sans-Serif" font-size="10.00">int</text>
<polyline fill="none" stroke="#bfbfbf" points="309.5,-1422.5 338.5,-1422.5 "/>
<text text-anchor="middle" x="324" y="-1410.5" font-family="Helvetica,sans-Serif" font-size="10.00"> </text>
<polyline fill="none" stroke="#bfbfbf" points="309.5,-1403.5 338.5,-1403.5 "/>
<text text-anchor="middle" x="324" y="-1391.5" font-family="Helvetica,sans-Serif" font-size="10.00"> </text>
</g>
<!-- Node11&#45;&gt;Node2 -->
<g id="edge29" class="edge"><title>Node11&#45;&gt;Node2</title>
<path fill="none" stroke="#404040" d="M309.253,-1408.12C264.294,-1395.32 132,-1349.96 132,-1259.5 132,-1259.5 132,-1259.5 132,-292.5 132,-168.558 560.397,-109.693 727.429,-91.4522"/>
<polygon fill="none" stroke="#404040" points="727.536,-91.4408 733.074,-86.8226 739.468,-90.1587 733.929,-94.7769 727.536,-91.4408"/>
<text text-anchor="middle" x="166" y="-735" font-family="Helvetica,sans-Serif" font-size="10.00"> &#45;moneyReward</text>
</g>
<!-- Node11&#45;&gt;Node9 -->
<g id="edge27" class="edge"><title>Node11&#45;&gt;Node9</title>
<path fill="none" stroke="#404040" d="M309.407,-1403.37C276.826,-1382.89 201,-1327.87 201,-1259.5 201,-1259.5 201,-1259.5 201,-902 201,-776.855 185.508,-736.136 239,-623 297.456,-499.366 415.469,-385.769 479.068,-330.228"/>
<polygon fill="none" stroke="#404040" points="479.342,-329.991 481.262,-323.041 488.417,-322.14 486.497,-329.091 479.342,-329.991"/>
<text text-anchor="middle" x="223" y="-798.5" font-family="Helvetica,sans-Serif" font-size="10.00"> &#45;expGiven</text>
</g>
<!-- Node11&#45;&gt;Node10 -->
<g id="edge11" class="edge"><title>Node11&#45;&gt;Node10</title>
<path fill="none" stroke="#404040" d="M338.54,-1391.11C344.899,-1380.75 351.661,-1367.75 355,-1355 437.584,-1039.63 284.72,-927.177 402,-623 411.023,-599.598 424.202,-575.937 437.705,-554.856"/>
<polygon fill="none" stroke="#404040" points="437.765,-554.764 437.709,-547.553 444.343,-544.728 444.4,-551.938 437.765,-554.764"/>
<text text-anchor="middle" x="398.5" y="-939" font-family="Helvetica,sans-Serif" font-size="10.00"> #speed</text>
<text text-anchor="middle" x="398.5" y="-928" font-family="Helvetica,sans-Serif" font-size="10.00">#luck</text>
<text text-anchor="middle" x="398.5" y="-917" font-family="Helvetica,sans-Serif" font-size="10.00">#health</text>
<text text-anchor="middle" x="398.5" y="-906" font-family="Helvetica,sans-Serif" font-size="10.00">#magic</text>
<text text-anchor="middle" x="398.5" y="-895" font-family="Helvetica,sans-Serif" font-size="10.00">#maximumMagic</text>
<text text-anchor="middle" x="398.5" y="-884" font-family="Helvetica,sans-Serif" font-size="10.00">#attack</text>
<text text-anchor="middle" x="398.5" y="-873" font-family="Helvetica,sans-Serif" font-size="10.00">#defence</text>
<text text-anchor="middle" x="398.5" y="-862" font-family="Helvetica,sans-Serif" font-size="10.00">#level</text>
</g>
<!-- Node11&#45;&gt;Node12 -->
<g id="edge26" class="edge"><title>Node11&#45;&gt;Node12</title>
<path fill="none" stroke="#404040" d="M338.651,-1402.39C352.602,-1392.36 372.92,-1375.28 383,-1355 460.709,-1198.66 372.726,-1129.93 430,-965 433.076,-956.143 438.154,-955.933 441,-947 464.492,-873.271 466.019,-783.116 463.874,-725.986"/>
<polygon fill="none" stroke="#404040" points="463.873,-725.952 459.615,-720.132 463.35,-713.963 467.608,-719.783 463.873,-725.952"/>
<text text-anchor="middle" x="447.5" y="-1057.5" font-family="Helvetica,sans-Serif" font-size="10.00"> #magic</text>
</g>
<!-- Node11&#45;&gt;Node14 -->
<g id="edge19" class="edge"><title>Node11&#45;&gt;Node14</title>
<path fill="none" stroke="#404040" d="M338.781,-1406.3C359.343,-1397.76 396.777,-1379.94 421,-1355 475.047,-1299.35 444.936,-1251.09 505,-1202 559.421,-1157.52 598.368,-1195.23 656,-1155 657.475,-1153.97 658.933,-1152.9 660.374,-1151.8"/>
<polygon fill="none" stroke="#404040" points="660.434,-1151.75 662.459,-1144.83 669.626,-1144.03 667.602,-1150.95 660.434,-1151.75"/>
<text text-anchor="middle" x="524.5" y="-1256" font-family="Helvetica,sans-Serif" font-size="10.00"> +money</text>
</g>
<!-- Node11&#45;&gt;Node16 -->
<g id="edge24" class="edge"><title>Node11&#45;&gt;Node16</title>
<path fill="none" stroke="#404040" d="M309.44,-1398.6C299.007,-1387.94 285.811,-1372.04 280,-1355 276.948,-1346.05 275.501,-1336.36 275.096,-1326.69"/>
<polygon fill="none" stroke="#404040" points="275.096,-1326.52 271.098,-1320.52 275.099,-1314.52 279.098,-1320.53 275.096,-1326.52"/>
<text text-anchor="middle" x="317.5" y="-1347" font-family="Helvetica,sans-Serif" font-size="10.00"> &#45;expToNextLevel</text>
<text text-anchor="middle" x="317.5" y="-1336" font-family="Helvetica,sans-Serif" font-size="10.00">&#45;exp</text>
</g>
<!-- Node12&#45;&gt;Node10 -->
<g id="edge12" class="edge"><title>Node12&#45;&gt;Node10</title>
<path fill="none" stroke="#404040" d="M467.665,-623.068C470.105,-608.923 472.904,-592.698 475.715,-576.405"/>
<polygon fill="none" stroke="#404040" points="475.718,-576.383 472.797,-569.79 477.758,-564.557 480.68,-571.15 475.718,-576.383"/>
<text text-anchor="middle" x="497.5" y="-597" font-family="Helvetica,sans-Serif" font-size="10.00"> #special1</text>
<text text-anchor="middle" x="497.5" y="-586" font-family="Helvetica,sans-Serif" font-size="10.00">#special2</text>
</g>
<!-- Node13&#45;&gt;Node2 -->
<g id="edge28" class="edge"><title>Node13&#45;&gt;Node2</title>
<path fill="none" stroke="#404040" d="M565.486,-761.195C570.849,-746.474 576.87,-729.521 582,-714 658.914,-481.306 649.192,-413.23 741,-186 741.952,-183.643 742.941,-181.267 743.959,-178.88"/>
<polygon fill="none" stroke="#404040" points="744.067,-178.636 742.835,-171.531 748.92,-167.661 750.152,-174.766 744.067,-178.636"/>
<text text-anchor="middle" x="696.5" y="-484" font-family="Helvetica,sans-Serif" font-size="10.00"> &#45;playerMove</text>
<text text-anchor="middle" x="696.5" y="-473" font-family="Helvetica,sans-Serif" font-size="10.00">&#45;enemyMove</text>
</g>
<!-- Node13&#45;&gt;Node12 -->
<g id="edge13" class="edge"><title>Node13&#45;&gt;Node12</title>
<path fill="none" stroke="midnightblue" d="M518.218,-752.989C509.327,-740.239 499.732,-726.479 490.946,-713.879"/>
<polygon fill="none" stroke="midnightblue" points="515.353,-754.998 523.943,-761.199 521.094,-750.994 515.353,-754.998"/>
</g>
<!-- Node14&#45;&gt;Node2 -->
<g id="edge38" class="edge"><title>Node14&#45;&gt;Node2</title>
<path fill="none" stroke="#404040" d="M742.606,-965.258C748.968,-916.668 755,-856.285 755,-802 755,-802 755,-802 755,-292.5 755,-255.317 760.977,-214.989 768.19,-179.86"/>
<polygon fill="none" stroke="#404040" points="768.288,-179.402 765.624,-172.701 770.785,-167.665 773.449,-174.366 768.288,-179.402"/>
<text text-anchor="middle" x="777" y="-591.5" font-family="Helvetica,sans-Serif" font-size="10.00"> &#45;manager</text>
</g>
<!-- Node14&#45;&gt;Node13 -->
<g id="edge16" class="edge"><title>Node14&#45;&gt;Node13</title>
<path fill="none" stroke="#404040" d="M669.935,-979.563C665.385,-974.487 660.72,-969.582 656,-965 646.176,-955.463 640.084,-957.244 631,-947 605.966,-918.77 585.575,-881.378 571.646,-851.637"/>
<polygon fill="none" stroke="#404040" points="571.612,-851.563 565.481,-847.767 566.627,-840.648 572.758,-844.444 571.612,-851.563"/>
<text text-anchor="middle" x="654" y="-900.5" font-family="Helvetica,sans-Serif" font-size="10.00"> #manager</text>
</g>
<!-- Node15 -->
<g id="node14" class="node"><title>Node15</title>
<polygon fill="none" stroke="#bfbfbf" points="762.5,-1230 762.5,-1287 797.5,-1287 797.5,-1230 762.5,-1230"/>
<text text-anchor="middle" x="780" y="-1275" font-family="Helvetica,sans-Serif" font-size="10.00">bool</text>
<polyline fill="none" stroke="#bfbfbf" points="762.5,-1268 797.5,-1268 "/>
<text text-anchor="middle" x="780" y="-1256" font-family="Helvetica,sans-Serif" font-size="10.00"> </text>
<polyline fill="none" stroke="#bfbfbf" points="762.5,-1249 797.5,-1249 "/>
<text text-anchor="middle" x="780" y="-1237" font-family="Helvetica,sans-Serif" font-size="10.00"> </text>
</g>
<!-- Node15&#45;&gt;Node2 -->
<g id="edge36" class="edge"><title>Node15&#45;&gt;Node2</title>
<path fill="none" stroke="#404040" d="M788.607,-1229.81C792.582,-1216.14 797.06,-1199.33 800,-1184 810.364,-1129.97 814,-1116.02 814,-1061 814,-1061 814,-1061 814,-667.5 814,-620.3 802.846,-332.505 796.796,-179.876"/>
<polygon fill="none" stroke="#404040" points="796.792,-179.771 792.557,-173.935 796.316,-167.781 800.551,-173.618 796.792,-179.771"/>
<text text-anchor="middle" x="845" y="-666" font-family="Helvetica,sans-Serif" font-size="10.00"> &#45;moveChosen</text>
</g>
<!-- Node15&#45;&gt;Node14 -->
<g id="edge20" class="edge"><title>Node15&#45;&gt;Node14</title>
<path fill="none" stroke="#404040" d="M762.497,-1236.13C752.175,-1222.2 739.993,-1203.1 734,-1184 732.252,-1178.43 730.809,-1172.65 729.625,-1166.76"/>
<polygon fill="none" stroke="#404040" points="729.564,-1166.4 724.612,-1161.16 727.546,-1154.57 732.498,-1159.81 729.564,-1166.4"/>
<text text-anchor="middle" x="767" y="-1176" font-family="Helvetica,sans-Serif" font-size="10.00"> &#45;wasCriticalHit</text>
</g>
<!-- Node16&#45;&gt;Node2 -->
<g id="edge39" class="edge"><title>Node16&#45;&gt;Node2</title>
<path fill="none" stroke="#404040" d="M281.638,-1202.12C275.032,-1088.4 261,-820.294 261,-595 261,-595 261,-595 261,-292.5 261,-193.521 584.669,-122.706 727.083,-96.3382"/>
<polygon fill="none" stroke="#404040" points="727.257,-96.3065 732.439,-91.2918 739.061,-94.1464 733.879,-99.1611 727.257,-96.3065"/>
<text text-anchor="middle" x="291" y="-671.5" font-family="Helvetica,sans-Serif" font-size="10.00"> &#45;playerArray</text>
<text text-anchor="middle" x="291" y="-660.5" font-family="Helvetica,sans-Serif" font-size="10.00">&#45;player</text>
</g>
<!-- Node16&#45;&gt;Node14 -->
<g id="edge21" class="edge"><title>Node16&#45;&gt;Node14</title>
<path fill="none" stroke="#404040" d="M341.171,-1236.48C378.293,-1222.3 427.875,-1202.81 471,-1184 481.387,-1179.47 483.105,-1176.11 494,-1173 563.654,-1153.09 592.914,-1190.61 656,-1155 657.359,-1154.23 658.701,-1153.43 660.026,-1152.59"/>
<polygon fill="none" stroke="#404040" points="660.094,-1152.54 662.63,-1145.79 669.837,-1145.53 667.301,-1152.28 660.094,-1152.54"/>
<text text-anchor="middle" x="510.5" y="-1176" font-family="Helvetica,sans-Serif" font-size="10.00"> &#45;player</text>
</g>
<!-- Node17&#45;&gt;Node2 -->
<g id="edge30" class="edge"><title>Node17&#45;&gt;Node2</title>
<path fill="none" stroke="#404040" d="M882.036,-248.495C870.918,-228.08 857.251,-202.983 843.992,-178.636"/>
<polygon fill="none" stroke="#404040" points="843.882,-178.433 837.499,-175.077 838.143,-167.895 844.525,-171.251 843.882,-178.433"/>
<text text-anchor="middle" x="888.5" y="-205.5" font-family="Helvetica,sans-Serif" font-size="10.00"> &#45;expBar</text>
</g>
<!-- Node18 -->
<g id="node17" class="node"><title>Node18</title>
<polygon fill="none" stroke="#bfbfbf" points="961,-452.5 961,-509.5 1041,-509.5 1041,-452.5 961,-452.5"/>
<text text-anchor="middle" x="1001" y="-497.5" font-family="Helvetica,sans-Serif" font-size="10.00">RectTransform</text>
<polyline fill="none" stroke="#bfbfbf" points="961,-490.5 1041,-490.5 "/>
<text text-anchor="middle" x="1001" y="-478.5" font-family="Helvetica,sans-Serif" font-size="10.00"> </text>
<polyline fill="none" stroke="#bfbfbf" points="961,-471.5 1041,-471.5 "/>
<text text-anchor="middle" x="1001" y="-459.5" font-family="Helvetica,sans-Serif" font-size="10.00"> </text>
</g>
<!-- Node18&#45;&gt;Node17 -->
<g id="edge33" class="edge"><title>Node18&#45;&gt;Node17</title>
<path fill="none" stroke="#404040" d="M990.271,-452.015C980.19,-426.666 964.128,-388.568 947,-357 945.565,-354.355 944.053,-351.677 942.491,-348.992"/>
<polygon fill="none" stroke="#404040" points="942.463,-348.946 935.94,-345.872 936.268,-338.669 942.791,-341.742 942.463,-348.946"/>
<text text-anchor="middle" x="969.5" y="-365.5" font-family="Helvetica,sans-Serif" font-size="10.00"> &#45;rect</text>
</g>
<!-- Node19 -->
<g id="node18" class="node"><title>Node19</title>
<polygon fill="none" stroke="#bfbfbf" points="1059.5,-452.5 1059.5,-509.5 1128.5,-509.5 1128.5,-452.5 1059.5,-452.5"/>
<text text-anchor="middle" x="1094" y="-497.5" font-family="Helvetica,sans-Serif" font-size="10.00">UnityEngine</text>
<polyline fill="none" stroke="#bfbfbf" points="1059.5,-490.5 1128.5,-490.5 "/>
<text text-anchor="middle" x="1094" y="-478.5" font-family="Helvetica,sans-Serif" font-size="10.00"> </text>
<polyline fill="none" stroke="#bfbfbf" points="1059.5,-471.5 1128.5,-471.5 "/>
<text text-anchor="middle" x="1094" y="-459.5" font-family="Helvetica,sans-Serif" font-size="10.00"> </text>
</g>
<!-- Node19&#45;&gt;Node17 -->
<g id="edge34" class="edge"><title>Node19&#45;&gt;Node17</title>
<path fill="none" stroke="#404040" d="M1083.56,-452.434C1076.07,-435.155 1064.7,-413.172 1050,-397 1020.77,-364.843 1002.68,-366.09 962.355,-338.873"/>
<polygon fill="none" stroke="#404040" points="962.334,-338.858 955.125,-338.686 952.512,-331.965 959.721,-332.138 962.334,-338.858"/>
<text text-anchor="middle" x="1057.5" y="-365.5" font-family="Helvetica,sans-Serif" font-size="10.00"> &#45;textDisplay</text>
</g>
<!-- Node20 -->
<g id="node19" class="node"><title>Node20</title>
<polygon fill="none" stroke="#bfbfbf" points="1150.5,-452.5 1150.5,-509.5 1185.5,-509.5 1185.5,-452.5 1150.5,-452.5"/>
<text text-anchor="middle" x="1168" y="-497.5" font-family="Helvetica,sans-Serif" font-size="10.00">float</text>
<polyline fill="none" stroke="#bfbfbf" points="1150.5,-490.5 1185.5,-490.5 "/>
<text text-anchor="middle" x="1168" y="-478.5" font-family="Helvetica,sans-Serif" font-size="10.00"> </text>
<polyline fill="none" stroke="#bfbfbf" points="1150.5,-471.5 1185.5,-471.5 "/>
<text text-anchor="middle" x="1168" y="-459.5" font-family="Helvetica,sans-Serif" font-size="10.00"> </text>
</g>
<!-- Node20&#45;&gt;Node17 -->
<g id="edge35" class="edge"><title>Node20&#45;&gt;Node17</title>
<path fill="none" stroke="#404040" d="M1161.6,-452.488C1156.74,-435.44 1148.83,-413.689 1137,-397 1120.94,-374.347 1114.38,-368.267 1089,-357 1040.15,-335.316 1017.3,-358.264 963.686,-338.746"/>
<polygon fill="none" stroke="#404040" points="963.665,-338.738 956.605,-340.204 952.536,-334.251 959.596,-332.784 963.665,-338.738"/>
<text text-anchor="middle" x="1153.5" y="-371" font-family="Helvetica,sans-Serif" font-size="10.00"> &#45;widthPerUnit</text>
<text text-anchor="middle" x="1153.5" y="-360" font-family="Helvetica,sans-Serif" font-size="10.00">&#45;initialWidth</text>
</g>
<!-- Node21 -->
<g id="node20" class="node"><title>Node21</title>
<polygon fill="none" stroke="#bfbfbf" points="1270.5,-265 1270.5,-322 1305.5,-322 1305.5,-265 1270.5,-265"/>
<text text-anchor="middle" x="1288" y="-310" font-family="Helvetica,sans-Serif" font-size="10.00">Text</text>
<polyline fill="none" stroke="#bfbfbf" points="1270.5,-303 1305.5,-303 "/>
<text text-anchor="middle" x="1288" y="-291" font-family="Helvetica,sans-Serif" font-size="10.00"> </text>
<polyline fill="none" stroke="#bfbfbf" points="1270.5,-284 1305.5,-284 "/>
<text text-anchor="middle" x="1288" y="-272" font-family="Helvetica,sans-Serif" font-size="10.00"> </text>
</g>
<!-- Node21&#45;&gt;Node2 -->
<g id="edge37" class="edge"><title>Node21&#45;&gt;Node2</title>
<path fill="none" stroke="#404040" d="M1278.14,-264.558C1268.07,-240.111 1250.04,-205.54 1223,-186 1112.89,-106.418 949.238,-88.6136 858.89,-85.1945"/>
<polygon fill="none" stroke="#404040" points="858.635,-85.1864 852.51,-88.9925 846.641,-84.8026 852.766,-80.9966 858.635,-85.1864"/>
<text text-anchor="middle" x="1281" y="-205.5" font-family="Helvetica,sans-Serif" font-size="10.00"> &#45;textBox</text>
</g>
<!-- Node22 -->
<g id="node21" class="node"><title>Node22</title>
<polygon fill="none" stroke="#bfbfbf" points="1328.5,-265 1328.5,-322 1373.5,-322 1373.5,-265 1328.5,-265"/>
<text text-anchor="middle" x="1351" y="-310" font-family="Helvetica,sans-Serif" font-size="10.00">Button</text>
<polyline fill="none" stroke="#bfbfbf" points="1328.5,-303 1373.5,-303 "/>
<text text-anchor="middle" x="1351" y="-291" font-family="Helvetica,sans-Serif" font-size="10.00"> </text>
<polyline fill="none" stroke="#bfbfbf" points="1328.5,-284 1373.5,-284 "/>
<text text-anchor="middle" x="1351" y="-272" font-family="Helvetica,sans-Serif" font-size="10.00"> </text>
</g>
<!-- Node22&#45;&gt;Node2 -->
<g id="edge40" class="edge"><title>Node22&#45;&gt;Node2</title>
<path fill="none" stroke="#404040" d="M1346.41,-264.527C1340.88,-240.061 1329.14,-205.477 1305,-186 1237,-131.133 980.832,-101.61 858.635,-90.3863"/>
<polygon fill="none" stroke="#404040" points="858.483,-90.3728 852.148,-93.8174 846.532,-89.2944 852.867,-85.8498 858.483,-90.3728"/>
<text text-anchor="middle" x="1367" y="-205.5" font-family="Helvetica,sans-Serif" font-size="10.00"> &#45;attackButton</text>
</g>
</g>
</svg>
