<?xml version="1.0" encoding="UTF-8" standalone="no"?>
<!DOCTYPE svg PUBLIC "-//W3C//DTD SVG 1.1//EN"
 "http://www.w3.org/Graphics/SVG/1.1/DTD/svg11.dtd">
<!-- Generated by graphviz version 2.38.0 (20140413.2041)
 -->
<!-- Title: LowerDefence Pages: 1 -->
<!--zoomable 1034 -->
<svg id="main" version="1.1" xmlns="http://www.w3.org/2000/svg" xmlns:xlink="http://www.w3.org/1999/xlink" xml:space="preserve" onload="init(evt)">
<style type="text/css"><![CDATA[
.edge:hover path { stroke: red; }
.edge:hover polygon { stroke: red; fill: red; }
]]></style>
<script type="text/javascript"><![CDATA[
var edges = document.getElementsByTagName('g');
if (edges && edges.length) {
  for (var i=0;i<edges.length;i++) {
    if (edges[i].id.substr(0,4)=='edge') {
      edges[i].setAttribute('class','edge');
    }
  }
}
]]></script>
        <defs>
                <circle id="rim" cx="0" cy="0" r="7"/>
                <circle id="rim2" cx="0" cy="0" r="3.5"/>
                <g id="zoomPlus">
                        <use xlink:href="#rim" fill="#404040">
                                <set attributeName="fill" to="#808080" begin="zoomplus.mouseover" end="zoomplus.mouseout"/>
                        </use>
                        <path d="M-4,0h8M0,-4v8" fill="none" stroke="white" stroke-width="1.5" pointer-events="none"/>
                </g>
                <g id="zoomMin">
                        <use xlink:href="#rim" fill="#404040">
                                <set attributeName="fill" to="#808080" begin="zoomminus.mouseover" end="zoomminus.mouseout"/>
                        </use>
                        <path d="M-4,0h8" fill="none" stroke="white" stroke-width="1.5" pointer-events="none"/>
                </g>
                <g id="dirArrow">
                        <path fill="none" stroke="white" stroke-width="1.5" d="M0,-3.0v7 M-2.5,-0.5L0,-3.0L2.5,-0.5"/>
                </g>
               <g id="resetDef">
                       <use xlink:href="#rim2" fill="#404040">
                               <set attributeName="fill" to="#808080" begin="reset.mouseover" end="reset.mouseout"/>
                       </use>
               </g>
        </defs>

<script type="text/javascript">
var viewWidth = 721;
var viewHeight = 1034;
var sectionId = 'dynsection-1';
</script>
<script xlink:href="svgpan.js"/>
<svg id="graph" class="graph">
<g id="viewport">
<title>LowerDefence</title>
<!-- Node3 -->
<g id="node1" class="node"><title>Node3</title>
<polygon fill="#bfbfbf" stroke="black" points="454,-585 454,-653 546,-653 546,-585 454,-585"/>
<text text-anchor="middle" x="500" y="-641" font-family="Helvetica,sans-Serif" font-size="10.00">LowerDefence</text>
<polyline fill="none" stroke="black" points="454,-634 546,-634 "/>
<text text-anchor="middle" x="500" y="-622" font-family="Helvetica,sans-Serif" font-size="10.00"> </text>
<polyline fill="none" stroke="black" points="454,-615 546,-615 "/>
<text text-anchor="start" x="462" y="-603" font-family="Helvetica,sans-Serif" font-size="10.00">+ LowerDefence()</text>
<text text-anchor="start" x="462" y="-592" font-family="Helvetica,sans-Serif" font-size="10.00">+ performMove()</text>
</g>
<!-- Node4 -->
<g id="node2" class="node"><title>Node4</title>
<g id="a_node2"><a xlink:href="class_special_move.html" target="_top" xlink:title="Special move abstract base class that expands upon CharacterMove, adding magic properties ...">
<polygon fill="none" stroke="black" points="401,-819.5 401,-909.5 499,-909.5 499,-819.5 401,-819.5"/>
<text text-anchor="middle" x="450" y="-897.5" font-family="Helvetica,sans-Serif" font-size="10.00">SpecialMove</text>
<polyline fill="none" stroke="black" points="401,-890.5 499,-890.5 "/>
<text text-anchor="start" x="409" y="-878.5" font-family="Helvetica,sans-Serif" font-size="10.00">+ Magic</text>
<text text-anchor="start" x="409" y="-867.5" font-family="Helvetica,sans-Serif" font-size="10.00">+ Desc</text>
<polyline fill="none" stroke="black" points="401,-860.5 499,-860.5 "/>
<text text-anchor="start" x="409" y="-848.5" font-family="Helvetica,sans-Serif" font-size="10.00">+ setUp()</text>
<text text-anchor="start" x="409" y="-837.5" font-family="Helvetica,sans-Serif" font-size="10.00">+ decreaseMagic()</text>
<text text-anchor="start" x="409" y="-826.5" font-family="Helvetica,sans-Serif" font-size="10.00"># SpecialMove()</text>
</a>
</g>
</g>
<!-- Node4&#45;&gt;Node3 -->
<g id="edge1" class="edge"><title>Node4&#45;&gt;Node3</title>
<path fill="none" stroke="midnightblue" d="M461.082,-809.53C470.9,-761.718 484.92,-693.439 493.179,-653.219"/>
<polygon fill="none" stroke="midnightblue" points="457.638,-808.904 459.055,-819.404 464.495,-810.312 457.638,-808.904"/>
</g>
<!-- Node7 -->
<g id="node5" class="node"><title>Node7</title>
<g id="a_node5"><a xlink:href="class_character.html" target="_top" xlink:title="Base abstract class for Enemy and Player to inherit from. Defines all shared variables, their constructor and their setters and getters ">
<polygon fill="none" stroke="black" points="191.5,-535.5 191.5,-702.5 286.5,-702.5 286.5,-535.5 191.5,-535.5"/>
<text text-anchor="middle" x="239" y="-690.5" font-family="Helvetica,sans-Serif" font-size="10.00">Character</text>
<polyline fill="none" stroke="black" points="191.5,-683.5 286.5,-683.5 "/>
<text text-anchor="start" x="199.5" y="-671.5" font-family="Helvetica,sans-Serif" font-size="10.00">+ Name</text>
<text text-anchor="start" x="199.5" y="-660.5" font-family="Helvetica,sans-Serif" font-size="10.00">+ Level</text>
<text text-anchor="start" x="199.5" y="-649.5" font-family="Helvetica,sans-Serif" font-size="10.00">+ Health</text>
<text text-anchor="start" x="199.5" y="-638.5" font-family="Helvetica,sans-Serif" font-size="10.00">+ Attack</text>
<text text-anchor="start" x="199.5" y="-627.5" font-family="Helvetica,sans-Serif" font-size="10.00">+ Defence</text>
<text text-anchor="start" x="199.5" y="-616.5" font-family="Helvetica,sans-Serif" font-size="10.00">+ MaximumMagic</text>
<text text-anchor="start" x="199.5" y="-605.5" font-family="Helvetica,sans-Serif" font-size="10.00">+ Magic</text>
<text text-anchor="start" x="199.5" y="-594.5" font-family="Helvetica,sans-Serif" font-size="10.00">+ Luck</text>
<text text-anchor="start" x="199.5" y="-583.5" font-family="Helvetica,sans-Serif" font-size="10.00">+ Speed</text>
<text text-anchor="start" x="199.5" y="-572.5" font-family="Helvetica,sans-Serif" font-size="10.00">+ Special1</text>
<text text-anchor="start" x="199.5" y="-561.5" font-family="Helvetica,sans-Serif" font-size="10.00">+ Special2</text>
<polyline fill="none" stroke="black" points="191.5,-554.5 286.5,-554.5 "/>
<text text-anchor="start" x="199.5" y="-542.5" font-family="Helvetica,sans-Serif" font-size="10.00"># Character()</text>
</a>
</g>
</g>
<!-- Node4&#45;&gt;Node7 -->
<g id="edge7" class="edge"><title>Node4&#45;&gt;Node7</title>
<path fill="none" stroke="#404040" d="M400.996,-845.207C379.265,-837.126 353.374,-827.541 330,-819 307.816,-810.894 295.632,-818.705 280,-801 255.879,-773.68 270.046,-756.545 262,-721 261.515,-718.857 261.024,-716.688 260.528,-714.501"/>
<polygon fill="none" stroke="#404040" points="260.5,-714.377 255.272,-709.411 257.845,-702.675 263.073,-707.641 260.5,-714.377"/>
<text text-anchor="middle" x="302.5" y="-764" font-family="Helvetica,sans-Serif" font-size="10.00"> #special1</text>
<text text-anchor="middle" x="302.5" y="-753" font-family="Helvetica,sans-Serif" font-size="10.00">#special2</text>
</g>
<!-- Node5 -->
<g id="node3" class="node"><title>Node5</title>
<g id="a_node3"><a xlink:href="class_character_move.html" target="_top" xlink:title="Astract base class for character moves ">
<polygon fill="none" stroke="black" points="358,-0.5 358,-79.5 444,-79.5 444,-0.5 358,-0.5"/>
<text text-anchor="middle" x="401" y="-67.5" font-family="Helvetica,sans-Serif" font-size="10.00">CharacterMove</text>
<polyline fill="none" stroke="black" points="358,-60.5 444,-60.5 "/>
<text text-anchor="start" x="366" y="-48.5" font-family="Helvetica,sans-Serif" font-size="10.00">+ User</text>
<text text-anchor="start" x="366" y="-37.5" font-family="Helvetica,sans-Serif" font-size="10.00">+ Target</text>
<text text-anchor="start" x="366" y="-26.5" font-family="Helvetica,sans-Serif" font-size="10.00">+ Text</text>
<polyline fill="none" stroke="black" points="358,-19.5 444,-19.5 "/>
<text text-anchor="start" x="366" y="-7.5" font-family="Helvetica,sans-Serif" font-size="10.00">+ performMove()</text>
</a>
</g>
</g>
<!-- Node5&#45;&gt;Node4 -->
<g id="edge2" class="edge"><title>Node5&#45;&gt;Node4</title>
<path fill="none" stroke="midnightblue" d="M411.526,-90C418.359,-126.052 426,-176.348 426,-221 426,-512.5 426,-512.5 426,-512.5 426,-623.054 437.997,-752.74 445.027,-819.239"/>
<polygon fill="none" stroke="midnightblue" points="414.879,-88.907 409.534,-79.7592 408.007,-90.2435 414.879,-88.907"/>
</g>
<!-- Node6 -->
<g id="node4" class="node"><title>Node6</title>
<polygon fill="none" stroke="#bfbfbf" points="429.5,-968.5 429.5,-1025.5 470.5,-1025.5 470.5,-968.5 429.5,-968.5"/>
<text text-anchor="middle" x="450" y="-1013.5" font-family="Helvetica,sans-Serif" font-size="10.00">string</text>
<polyline fill="none" stroke="#bfbfbf" points="429.5,-1006.5 470.5,-1006.5 "/>
<text text-anchor="middle" x="450" y="-994.5" font-family="Helvetica,sans-Serif" font-size="10.00"> </text>
<polyline fill="none" stroke="#bfbfbf" points="429.5,-987.5 470.5,-987.5 "/>
<text text-anchor="middle" x="450" y="-975.5" font-family="Helvetica,sans-Serif" font-size="10.00"> </text>
</g>
<!-- Node6&#45;&gt;Node4 -->
<g id="edge20" class="edge"><title>Node6&#45;&gt;Node4</title>
<path fill="none" stroke="#404040" d="M450,-968.324C450,-954.731 450,-937.837 450,-921.696"/>
<polygon fill="none" stroke="#404040" points="450,-921.568 446,-915.568 450,-909.568 454,-915.568 450,-921.568"/>
<text text-anchor="middle" x="465" y="-936.5" font-family="Helvetica,sans-Serif" font-size="10.00"> #desc</text>
</g>
<!-- Node6&#45;&gt;Node5 -->
<g id="edge3" class="edge"><title>Node6&#45;&gt;Node5</title>
<path fill="none" stroke="#404040" d="M470.705,-994.419C528.609,-988.762 688,-964.223 688,-865.5 688,-865.5 688,-865.5 688,-221 688,-112.667 539.427,-67.0431 456.076,-49.9714"/>
<polygon fill="none" stroke="#404040" points="456.053,-49.9668 449.395,-52.7364 444.278,-47.6557 450.936,-44.8862 456.053,-49.9668"/>
<text text-anchor="middle" x="700.5" y="-509" font-family="Helvetica,sans-Serif" font-size="10.00"> #text</text>
</g>
<!-- Node6&#45;&gt;Node7 -->
<g id="edge5" class="edge"><title>Node6&#45;&gt;Node7</title>
<path fill="none" stroke="#404040" d="M429.292,-995.283C398.258,-993.066 339.832,-984.277 307,-950 265.233,-906.396 288.553,-876.773 271,-819 268.549,-810.931 266.941,-809.206 265,-801 258.445,-773.281 253.291,-742.759 249.361,-714.803"/>
<polygon fill="none" stroke="#404040" points="249.316,-714.468 244.543,-709.063 247.697,-702.578 252.47,-707.983 249.316,-714.468"/>
<text text-anchor="middle" x="300.5" y="-862" font-family="Helvetica,sans-Serif" font-size="10.00"> #name</text>
</g>
<!-- Node9 -->
<g id="node7" class="node"><title>Node9</title>
<g id="a_node7"><a xlink:href="class_battle_manager.html" target="_top" xlink:title="{BattleManager\n|+ Player\l+ Enemy\l+ WasCriticalHit\l|+ BattleManager()\l+ playerFirst()\l+ switchPlayers()\l+ isCriticalHit()\l+ ranAway()\l+ damageCalculation()\l+ enemyMove()\l+ enemySpecialMove()\l+ battleWon()\l+ playerFainted()\l&#45; characterFainted()\l}">
<polygon fill="none" stroke="black" points="126,-127.5 126,-316.5 242,-316.5 242,-127.5 126,-127.5"/>
<text text-anchor="middle" x="184" y="-304.5" font-family="Helvetica,sans-Serif" font-size="10.00">BattleManager</text>
<polyline fill="none" stroke="black" points="126,-297.5 242,-297.5 "/>
<text text-anchor="start" x="134" y="-285.5" font-family="Helvetica,sans-Serif" font-size="10.00">+ Player</text>
<text text-anchor="start" x="134" y="-274.5" font-family="Helvetica,sans-Serif" font-size="10.00">+ Enemy</text>
<text text-anchor="start" x="134" y="-263.5" font-family="Helvetica,sans-Serif" font-size="10.00">+ WasCriticalHit</text>
<polyline fill="none" stroke="black" points="126,-256.5 242,-256.5 "/>
<text text-anchor="start" x="134" y="-244.5" font-family="Helvetica,sans-Serif" font-size="10.00">+ BattleManager()</text>
<text text-anchor="start" x="134" y="-233.5" font-family="Helvetica,sans-Serif" font-size="10.00">+ playerFirst()</text>
<text text-anchor="start" x="134" y="-222.5" font-family="Helvetica,sans-Serif" font-size="10.00">+ switchPlayers()</text>
<text text-anchor="start" x="134" y="-211.5" font-family="Helvetica,sans-Serif" font-size="10.00">+ isCriticalHit()</text>
<text text-anchor="start" x="134" y="-200.5" font-family="Helvetica,sans-Serif" font-size="10.00">+ ranAway()</text>
<text text-anchor="start" x="134" y="-189.5" font-family="Helvetica,sans-Serif" font-size="10.00">+ damageCalculation()</text>
<text text-anchor="start" x="134" y="-178.5" font-family="Helvetica,sans-Serif" font-size="10.00">+ enemyMove()</text>
<text text-anchor="start" x="134" y="-167.5" font-family="Helvetica,sans-Serif" font-size="10.00">+ enemySpecialMove()</text>
<text text-anchor="start" x="134" y="-156.5" font-family="Helvetica,sans-Serif" font-size="10.00">+ battleWon()</text>
<text text-anchor="start" x="134" y="-145.5" font-family="Helvetica,sans-Serif" font-size="10.00">+ playerFainted()</text>
<text text-anchor="start" x="134" y="-134.5" font-family="Helvetica,sans-Serif" font-size="10.00">&#45; characterFainted()</text>
</a>
</g>
</g>
<!-- Node6&#45;&gt;Node9 -->
<g id="edge9" class="edge"><title>Node6&#45;&gt;Node9</title>
<path fill="none" stroke="#404040" d="M470.75,-986.715C496.983,-973.733 541.117,-947.469 561,-910 600.068,-836.38 592.795,-609.281 555,-535 546.176,-517.657 356.407,-362.484 251.788,-277.716"/>
<polygon fill="none" stroke="#404040" points="251.572,-277.542 244.392,-276.874 242.246,-269.989 249.427,-270.657 251.572,-277.542"/>
<text text-anchor="middle" x="626" y="-616.5" font-family="Helvetica,sans-Serif" font-size="10.00"> +forceCriticalHits</text>
</g>
<!-- Node13 -->
<g id="node11" class="node"><title>Node13</title>
<g id="a_node11"><a xlink:href="class_item.html" target="_top" xlink:title="{Item\n|+ Name\l+ Desc\l|+ applyBuffs()\l+ revertBuffs()\l}">
<polygon fill="none" stroke="black" points="334.5,-721.5 334.5,-800.5 411.5,-800.5 411.5,-721.5 334.5,-721.5"/>
<text text-anchor="middle" x="373" y="-788.5" font-family="Helvetica,sans-Serif" font-size="10.00">Item</text>
<polyline fill="none" stroke="black" points="334.5,-781.5 411.5,-781.5 "/>
<text text-anchor="start" x="342.5" y="-769.5" font-family="Helvetica,sans-Serif" font-size="10.00">+ Name</text>
<text text-anchor="start" x="342.5" y="-758.5" font-family="Helvetica,sans-Serif" font-size="10.00">+ Desc</text>
<polyline fill="none" stroke="black" points="334.5,-751.5 411.5,-751.5 "/>
<text text-anchor="start" x="342.5" y="-739.5" font-family="Helvetica,sans-Serif" font-size="10.00">+ applyBuffs()</text>
<text text-anchor="start" x="342.5" y="-728.5" font-family="Helvetica,sans-Serif" font-size="10.00">+ revertBuffs()</text>
</a>
</g>
</g>
<!-- Node6&#45;&gt;Node13 -->
<g id="edge18" class="edge"><title>Node6&#45;&gt;Node13</title>
<path fill="none" stroke="#404040" d="M429.297,-972.637C416.131,-956.299 400.089,-933.308 392,-910 381.198,-878.875 376.439,-842.148 374.386,-813.067"/>
<polygon fill="none" stroke="#404040" points="374.362,-812.681 370.009,-806.932 373.641,-800.702 377.994,-806.451 374.362,-812.681"/>
<text text-anchor="middle" x="428" y="-942" font-family="Helvetica,sans-Serif" font-size="10.00"> #desc</text>
<text text-anchor="middle" x="428" y="-931" font-family="Helvetica,sans-Serif" font-size="10.00">#name</text>
</g>
<!-- Node7&#45;&gt;Node5 -->
<g id="edge4" class="edge"><title>Node7&#45;&gt;Node5</title>
<path fill="none" stroke="#404040" d="M276.428,-535.208C282.754,-519.692 288.911,-503.482 294,-488 340.327,-347.072 375.797,-175.095 391.747,-91.4855"/>
<polygon fill="none" stroke="#404040" points="391.772,-91.3552 388.957,-84.7161 394.003,-79.5645 396.818,-86.2036 391.772,-91.3552"/>
<text text-anchor="middle" x="355" y="-349" font-family="Helvetica,sans-Serif" font-size="10.00"> #target</text>
<text text-anchor="middle" x="355" y="-338" font-family="Helvetica,sans-Serif" font-size="10.00">#user</text>
</g>
<!-- Node10 -->
<g id="node8" class="node"><title>Node10</title>
<g id="a_node8"><a xlink:href="class_enemy.html" target="_top" xlink:title="Defines an AI controller enemy to fight in battle scenes">
<polygon fill="none" stroke="black" points="85.5,-403 85.5,-460 152.5,-460 152.5,-403 85.5,-403"/>
<text text-anchor="middle" x="119" y="-448" font-family="Helvetica,sans-Serif" font-size="10.00">Enemy</text>
<polyline fill="none" stroke="black" points="85.5,-441 152.5,-441 "/>
<text text-anchor="start" x="93.5" y="-429" font-family="Helvetica,sans-Serif" font-size="10.00">+ ExpGiven</text>
<polyline fill="none" stroke="black" points="85.5,-422 152.5,-422 "/>
<text text-anchor="start" x="93.5" y="-410" font-family="Helvetica,sans-Serif" font-size="10.00">+ Enemy()</text>
</a>
</g>
</g>
<!-- Node7&#45;&gt;Node10 -->
<g id="edge11" class="edge"><title>Node7&#45;&gt;Node10</title>
<path fill="none" stroke="midnightblue" d="M185.76,-535.7C168.28,-508.679 150.025,-480.46 137.031,-460.373"/>
<polygon fill="none" stroke="midnightblue" points="183.03,-537.924 191.4,-544.419 188.908,-534.122 183.03,-537.924"/>
</g>
<!-- Node12 -->
<g id="node10" class="node"><title>Node12</title>
<g id="a_node10"><a xlink:href="class_player.html" target="_top" xlink:title="Defines a playable character for use in battle scenes">
<polygon fill="none" stroke="black" points="173,-375.5 173,-487.5 285,-487.5 285,-375.5 173,-375.5"/>
<text text-anchor="middle" x="229" y="-475.5" font-family="Helvetica,sans-Serif" font-size="10.00">Player</text>
<polyline fill="none" stroke="black" points="173,-468.5 285,-468.5 "/>
<text text-anchor="start" x="181" y="-456.5" font-family="Helvetica,sans-Serif" font-size="10.00">+ Exp</text>
<text text-anchor="start" x="181" y="-445.5" font-family="Helvetica,sans-Serif" font-size="10.00">+ Item</text>
<text text-anchor="start" x="181" y="-434.5" font-family="Helvetica,sans-Serif" font-size="10.00">+ ExpToNextLevel</text>
<polyline fill="none" stroke="black" points="173,-427.5 285,-427.5 "/>
<text text-anchor="start" x="181" y="-415.5" font-family="Helvetica,sans-Serif" font-size="10.00">+ Player()</text>
<text text-anchor="start" x="181" y="-404.5" font-family="Helvetica,sans-Serif" font-size="10.00">+ gainExp()</text>
<text text-anchor="start" x="181" y="-393.5" font-family="Helvetica,sans-Serif" font-size="10.00">+ levelUp()</text>
<text text-anchor="start" x="181" y="-382.5" font-family="Helvetica,sans-Serif" font-size="10.00">&#45; setExpToNextLevel()</text>
</a>
</g>
</g>
<!-- Node7&#45;&gt;Node12 -->
<g id="edge16" class="edge"><title>Node7&#45;&gt;Node12</title>
<path fill="none" stroke="midnightblue" d="M233.989,-525.04C233.299,-512.242 232.609,-499.449 231.972,-487.637"/>
<polygon fill="none" stroke="midnightblue" points="230.508,-525.489 234.541,-535.286 237.498,-525.113 230.508,-525.489"/>
</g>
<!-- Node8 -->
<g id="node6" class="node"><title>Node8</title>
<polygon fill="none" stroke="#bfbfbf" points="121.5,-968.5 121.5,-1025.5 150.5,-1025.5 150.5,-968.5 121.5,-968.5"/>
<text text-anchor="middle" x="136" y="-1013.5" font-family="Helvetica,sans-Serif" font-size="10.00">int</text>
<polyline fill="none" stroke="#bfbfbf" points="121.5,-1006.5 150.5,-1006.5 "/>
<text text-anchor="middle" x="136" y="-994.5" font-family="Helvetica,sans-Serif" font-size="10.00"> </text>
<polyline fill="none" stroke="#bfbfbf" points="121.5,-987.5 150.5,-987.5 "/>
<text text-anchor="middle" x="136" y="-975.5" font-family="Helvetica,sans-Serif" font-size="10.00"> </text>
</g>
<!-- Node8&#45;&gt;Node4 -->
<g id="edge21" class="edge"><title>Node8&#45;&gt;Node4</title>
<path fill="none" stroke="#404040" d="M150.724,-989.881C192.761,-972.41 315.096,-921.567 389.705,-890.559"/>
<polygon fill="none" stroke="#404040" points="389.72,-890.553 393.725,-884.557 400.801,-885.947 396.795,-891.944 389.72,-890.553"/>
<text text-anchor="middle" x="310.5" y="-936.5" font-family="Helvetica,sans-Serif" font-size="10.00"> #magic</text>
</g>
<!-- Node8&#45;&gt;Node7 -->
<g id="edge6" class="edge"><title>Node8&#45;&gt;Node7</title>
<path fill="none" stroke="#404040" d="M144.711,-968.329C159.416,-921.936 188.313,-832.218 196,-819 201.381,-809.747 207.466,-810.696 212,-801 224.422,-774.432 231.396,-743.489 235.236,-714.781"/>
<polygon fill="none" stroke="#404040" points="235.264,-714.548 232.009,-708.114 236.697,-702.634 239.952,-709.069 235.264,-714.548"/>
<text text-anchor="middle" x="233.5" y="-900.5" font-family="Helvetica,sans-Serif" font-size="10.00"> #speed</text>
<text text-anchor="middle" x="233.5" y="-889.5" font-family="Helvetica,sans-Serif" font-size="10.00">#luck</text>
<text text-anchor="middle" x="233.5" y="-878.5" font-family="Helvetica,sans-Serif" font-size="10.00">#health</text>
<text text-anchor="middle" x="233.5" y="-867.5" font-family="Helvetica,sans-Serif" font-size="10.00">#magic</text>
<text text-anchor="middle" x="233.5" y="-856.5" font-family="Helvetica,sans-Serif" font-size="10.00">#maximumMagic</text>
<text text-anchor="middle" x="233.5" y="-845.5" font-family="Helvetica,sans-Serif" font-size="10.00">#attack</text>
<text text-anchor="middle" x="233.5" y="-834.5" font-family="Helvetica,sans-Serif" font-size="10.00">#defence</text>
<text text-anchor="middle" x="233.5" y="-823.5" font-family="Helvetica,sans-Serif" font-size="10.00">#level</text>
</g>
<!-- Node8&#45;&gt;Node9 -->
<g id="edge13" class="edge"><title>Node8&#45;&gt;Node9</title>
<path fill="none" stroke="#404040" d="M121.446,-990.297C86.3613,-975.488 0,-932.255 0,-865.5 0,-865.5 0,-865.5 0,-430.5 0,-358.128 63.4349,-299.207 115.812,-262.892"/>
<polygon fill="none" stroke="#404040" points="115.839,-262.874 118.57,-256.2 125.781,-256.155 123.05,-262.828 115.839,-262.874"/>
<text text-anchor="middle" x="19.5" y="-616.5" font-family="Helvetica,sans-Serif" font-size="10.00"> +money</text>
</g>
<!-- Node8&#45;&gt;Node10 -->
<g id="edge12" class="edge"><title>Node8&#45;&gt;Node10</title>
<path fill="none" stroke="#404040" d="M123.032,-968.368C106.406,-931.271 78.477,-862.863 68,-801 47.7963,-681.704 84.4744,-539.668 105.602,-472.059"/>
<polygon fill="none" stroke="#404040" points="105.699,-471.755 103.714,-464.823 109.349,-460.324 111.335,-467.256 105.699,-471.755"/>
<text text-anchor="middle" x="91" y="-758.5" font-family="Helvetica,sans-Serif" font-size="10.00"> &#45;expGiven</text>
</g>
<!-- Node8&#45;&gt;Node12 -->
<g id="edge19" class="edge"><title>Node8&#45;&gt;Node12</title>
<path fill="none" stroke="#404040" d="M135.438,-968.231C134.704,-930.411 133.458,-860.589 133,-801 132.727,-765.445 128.433,-756.261 133,-721 143.98,-636.221 153.188,-615.486 182,-535 186.25,-523.128 191.337,-510.74 196.57,-498.849"/>
<polygon fill="none" stroke="#404040" points="196.692,-498.579 195.503,-491.466 201.611,-487.633 202.8,-494.746 196.692,-498.579"/>
<text text-anchor="middle" x="170.5" y="-764" font-family="Helvetica,sans-Serif" font-size="10.00"> &#45;expToNextLevel</text>
<text text-anchor="middle" x="170.5" y="-753" font-family="Helvetica,sans-Serif" font-size="10.00">&#45;exp</text>
</g>
<!-- Node9&#45;&gt;Node5 -->
<g id="edge8" class="edge"><title>Node9&#45;&gt;Node5</title>
<path fill="none" stroke="#404040" d="M242,-163.192C264.414,-141.872 290.72,-118.046 316,-98 325.917,-90.1362 336.897,-82.2353 347.58,-74.9269"/>
<polygon fill="none" stroke="#404040" points="347.733,-74.824 350.476,-68.155 357.687,-68.122 354.944,-74.791 347.733,-74.824"/>
<text text-anchor="middle" x="339" y="-101" font-family="Helvetica,sans-Serif" font-size="10.00"> #manager</text>
</g>
<!-- Node10&#45;&gt;Node9 -->
<g id="edge10" class="edge"><title>Node10&#45;&gt;Node9</title>
<path fill="none" stroke="#404040" d="M127.631,-402.946C133.763,-383.373 142.419,-355.738 151.113,-327.985"/>
<polygon fill="none" stroke="#404040" points="151.115,-327.979 149.091,-321.058 154.702,-316.528 156.726,-323.449 151.115,-327.979"/>
<text text-anchor="middle" x="166" y="-343.5" font-family="Helvetica,sans-Serif" font-size="10.00"> &#45;enemy</text>
</g>
<!-- Node11 -->
<g id="node9" class="node"><title>Node11</title>
<polygon fill="none" stroke="#bfbfbf" points="32.5,-403 32.5,-460 67.5,-460 67.5,-403 32.5,-403"/>
<text text-anchor="middle" x="50" y="-448" font-family="Helvetica,sans-Serif" font-size="10.00">bool</text>
<polyline fill="none" stroke="#bfbfbf" points="32.5,-441 67.5,-441 "/>
<text text-anchor="middle" x="50" y="-429" font-family="Helvetica,sans-Serif" font-size="10.00"> </text>
<polyline fill="none" stroke="#bfbfbf" points="32.5,-422 67.5,-422 "/>
<text text-anchor="middle" x="50" y="-410" font-family="Helvetica,sans-Serif" font-size="10.00"> </text>
</g>
<!-- Node11&#45;&gt;Node9 -->
<g id="edge14" class="edge"><title>Node11&#45;&gt;Node9</title>
<path fill="none" stroke="#404040" d="M53.0378,-402.726C56.1226,-382.858 62.2054,-356.022 74,-335 85.1958,-315.045 100.879,-296.134 116.901,-279.727"/>
<polygon fill="none" stroke="#404040" points="117.296,-279.334 118.735,-272.268 125.811,-270.879 124.372,-277.945 117.296,-279.334"/>
<text text-anchor="middle" x="107" y="-343.5" font-family="Helvetica,sans-Serif" font-size="10.00"> &#45;wasCriticalHit</text>
</g>
<!-- Node12&#45;&gt;Node9 -->
<g id="edge15" class="edge"><title>Node12&#45;&gt;Node9</title>
<path fill="none" stroke="#404040" d="M217.059,-375.439C213.916,-360.946 210.418,-344.815 206.906,-328.623"/>
<polygon fill="none" stroke="#404040" points="206.895,-328.572 201.714,-323.556 204.352,-316.845 209.533,-321.86 206.895,-328.572"/>
<text text-anchor="middle" x="228.5" y="-343.5" font-family="Helvetica,sans-Serif" font-size="10.00"> &#45;player</text>
</g>
<!-- Node13&#45;&gt;Node12 -->
<g id="edge17" class="edge"><title>Node13&#45;&gt;Node12</title>
<path fill="none" stroke="#404040" d="M362.69,-721.472C349.773,-675.759 325.573,-597.826 295,-535 289.019,-522.709 281.855,-510.096 274.486,-498.106"/>
<polygon fill="none" stroke="#404040" points="274.366,-497.915 267.787,-494.962 267.982,-487.753 274.561,-490.706 274.366,-497.915"/>
<text text-anchor="middle" x="369.5" y="-616.5" font-family="Helvetica,sans-Serif" font-size="10.00"> &#45;item</text>
</g>
<!-- Node14 -->
<g id="node12" class="node"><title>Node14</title>
<polygon fill="none" stroke="#bfbfbf" points="517.5,-836 517.5,-893 552.5,-893 552.5,-836 517.5,-836"/>
<text text-anchor="middle" x="535" y="-881" font-family="Helvetica,sans-Serif" font-size="10.00">float</text>
<polyline fill="none" stroke="#bfbfbf" points="517.5,-874 552.5,-874 "/>
<text text-anchor="middle" x="535" y="-862" font-family="Helvetica,sans-Serif" font-size="10.00"> </text>
<polyline fill="none" stroke="#bfbfbf" points="517.5,-855 552.5,-855 "/>
<text text-anchor="middle" x="535" y="-843" font-family="Helvetica,sans-Serif" font-size="10.00"> </text>
</g>
<!-- Node14&#45;&gt;Node3 -->
<g id="edge22" class="edge"><title>Node14&#45;&gt;Node3</title>
<path fill="none" stroke="#404040" d="M528.738,-835.903C526.415,-825.06 523.889,-812.483 522,-801 514.44,-755.037 508.302,-702.111 504.45,-665.413"/>
<polygon fill="none" stroke="#404040" points="504.416,-665.084 499.821,-659.526 503.184,-653.147 507.779,-658.705 504.416,-665.084"/>
<text text-anchor="middle" x="545" y="-758.5" font-family="Helvetica,sans-Serif" font-size="10.00"> &#45;decrease</text>
</g>
</g>
</svg>
        <g id="navigator" transform="translate(0 0)" fill="#404254">
                <rect fill="#f2f5e9" fill-opacity="0.5" stroke="#606060" stroke-width=".5" x="0" y="0" width="60" height="60"/>
                <use id="zoomplus" xlink:href="#zoomPlus" x="17" y="9" onmousedown="handleZoom(evt,'in')"/>
                <use id="zoomminus" xlink:href="#zoomMin" x="42" y="9" onmousedown="handleZoom(evt,'out')"/>
                <use id="reset" xlink:href="#resetDef" x="30" y="36" onmousedown="handleReset()"/>
                <g id="arrowUp" xlink:href="#dirArrow" transform="translate(30 24)" onmousedown="handlePan(0,-1)">
                  <use xlink:href="#rim" fill="#404040">
                        <set attributeName="fill" to="#808080" begin="arrowUp.mouseover" end="arrowUp.mouseout"/>
                  </use>
                  <path fill="none" stroke="white" stroke-width="1.5" d="M0,-3.0v7 M-2.5,-0.5L0,-3.0L2.5,-0.5"/>
                </g>
                <g id="arrowRight" xlink:href="#dirArrow" transform="rotate(90) translate(36 -43)" onmousedown="handlePan(1,0)">
                  <use xlink:href="#rim" fill="#404040">
                        <set attributeName="fill" to="#808080" begin="arrowRight.mouseover" end="arrowRight.mouseout"/>
                  </use>
                  <path fill="none" stroke="white" stroke-width="1.5" d="M0,-3.0v7 M-2.5,-0.5L0,-3.0L2.5,-0.5"/>
                </g>
                <g id="arrowDown" xlink:href="#dirArrow" transform="rotate(180) translate(-30 -48)" onmousedown="handlePan(0,1)">
                  <use xlink:href="#rim" fill="#404040">
                        <set attributeName="fill" to="#808080" begin="arrowDown.mouseover" end="arrowDown.mouseout"/>
                  </use>
                  <path fill="none" stroke="white" stroke-width="1.5" d="M0,-3.0v7 M-2.5,-0.5L0,-3.0L2.5,-0.5"/>
                </g>
                <g id="arrowLeft" xlink:href="#dirArrow" transform="rotate(270) translate(-36 17)" onmousedown="handlePan(-1,0)">
                  <use xlink:href="#rim" fill="#404040">
                        <set attributeName="fill" to="#808080" begin="arrowLeft.mouseover" end="arrowLeft.mouseout"/>
                  </use>
                  <path fill="none" stroke="white" stroke-width="1.5" d="M0,-3.0v7 M-2.5,-0.5L0,-3.0L2.5,-0.5"/>
                </g>
        </g>
        <svg viewBox="0 0 15 15" width="100%" height="30px" preserveAspectRatio="xMaxYMin meet">
         <g id="arrow_out" transform="scale(0.3 0.3)">
          <a xlink:href="class_lower_defence__coll__graph_org.svg" target="_base">
           <rect id="button" ry="5" rx="5" y="6" x="6" height="38" width="38"
                fill="#f2f5e9" fill-opacity="0.5" stroke="#606060" stroke-width="1.0"/>
           <path id="arrow"
             d="M 11.500037,31.436501 C 11.940474,20.09759 22.043105,11.32322 32.158766,21.979434 L 37.068811,17.246167 C 37.068811,17.246167 37.088388,32 37.088388,32 L 22.160133,31.978069 C 22.160133,31.978069 26.997745,27.140456 26.997745,27.140456 C 18.528582,18.264221 13.291696,25.230495 11.500037,31.436501 z"
             style="fill:#404040;"/>
          </a>
         </g>
        </svg>
</svg>
