<?xml version="1.0" encoding="UTF-8" standalone="no"?>
<!DOCTYPE svg PUBLIC "-//W3C//DTD SVG 1.1//EN"
 "http://www.w3.org/Graphics/SVG/1.1/DTD/svg11.dtd">
<!-- Generated by graphviz version 2.38.0 (20140413.2041)
 -->
<!-- Title: CharacterMove Pages: 1 -->
<!--zoomable 386 -->
<svg id="main" version="1.1" xmlns="http://www.w3.org/2000/svg" xmlns:xlink="http://www.w3.org/1999/xlink" xml:space="preserve" onload="init(evt)">
<style type="text/css"><![CDATA[
.edge:hover path { stroke: red; }
.edge:hover polygon { stroke: red; fill: red; }
]]></style>
<script type="text/javascript"><![CDATA[
var edges = document.getElementsByTagName('g');
if (edges && edges.length) {
  for (var i=0;i<edges.length;i++) {
    if (edges[i].id.substr(0,4)=='edge') {
      edges[i].setAttribute('class','edge');
    }
  }
}
]]></script>
        <defs>
                <circle id="rim" cx="0" cy="0" r="7"/>
                <circle id="rim2" cx="0" cy="0" r="3.5"/>
                <g id="zoomPlus">
                        <use xlink:href="#rim" fill="#404040">
                                <set attributeName="fill" to="#808080" begin="zoomplus.mouseover" end="zoomplus.mouseout"/>
                        </use>
                        <path d="M-4,0h8M0,-4v8" fill="none" stroke="white" stroke-width="1.5" pointer-events="none"/>
                </g>
                <g id="zoomMin">
                        <use xlink:href="#rim" fill="#404040">
                                <set attributeName="fill" to="#808080" begin="zoomminus.mouseover" end="zoomminus.mouseout"/>
                        </use>
                        <path d="M-4,0h8" fill="none" stroke="white" stroke-width="1.5" pointer-events="none"/>
                </g>
                <g id="dirArrow">
                        <path fill="none" stroke="white" stroke-width="1.5" d="M0,-3.0v7 M-2.5,-0.5L0,-3.0L2.5,-0.5"/>
                </g>
               <g id="resetDef">
                       <use xlink:href="#rim2" fill="#404040">
                               <set attributeName="fill" to="#808080" begin="reset.mouseover" end="reset.mouseout"/>
                       </use>
               </g>
        </defs>

<script type="text/javascript">
var viewWidth = 742;
var viewHeight = 386;
var sectionId = 'dynsection-0';
</script>
<script xlink:href="svgpan.js"/>
<svg id="graph" class="graph">
<g id="viewport">
<title>CharacterMove</title>
<!-- Node0 -->
<g id="node1" class="node"><title>Node0</title>
<polygon fill="#bfbfbf" stroke="black" points="447,-254.5 447,-377.5 533,-377.5 533,-254.5 447,-254.5"/>
<text text-anchor="middle" x="490" y="-365.5" font-family="Helvetica,sans-Serif" font-size="10.00">CharacterMove</text>
<polyline fill="none" stroke="black" points="447,-358.5 533,-358.5 "/>
<text text-anchor="start" x="455" y="-346.5" font-family="Helvetica,sans-Serif" font-size="10.00">+ User</text>
<text text-anchor="start" x="455" y="-335.5" font-family="Helvetica,sans-Serif" font-size="10.00">+ Target</text>
<text text-anchor="start" x="455" y="-324.5" font-family="Helvetica,sans-Serif" font-size="10.00">+ Text</text>
<text text-anchor="start" x="455" y="-313.5" font-family="Helvetica,sans-Serif" font-size="10.00"># manager</text>
<text text-anchor="start" x="455" y="-302.5" font-family="Helvetica,sans-Serif" font-size="10.00"># user</text>
<text text-anchor="start" x="455" y="-291.5" font-family="Helvetica,sans-Serif" font-size="10.00"># target</text>
<text text-anchor="start" x="455" y="-280.5" font-family="Helvetica,sans-Serif" font-size="10.00"># text</text>
<polyline fill="none" stroke="black" points="447,-273.5 533,-273.5 "/>
<text text-anchor="start" x="455" y="-261.5" font-family="Helvetica,sans-Serif" font-size="10.00">+ performMove()</text>
</g>
<!-- Node1 -->
<g id="node2" class="node"><title>Node1</title>
<g id="a_node2"><a xlink:href="class_special_move.html" target="_top" xlink:title="Special move abstract base class that expands upon CharacterMove, adding magic properties ...">
<polygon fill="none" stroke="black" points="324,-105.5 324,-217.5 422,-217.5 422,-105.5 324,-105.5"/>
<text text-anchor="middle" x="373" y="-205.5" font-family="Helvetica,sans-Serif" font-size="10.00">SpecialMove</text>
<polyline fill="none" stroke="black" points="324,-198.5 422,-198.5 "/>
<text text-anchor="start" x="332" y="-186.5" font-family="Helvetica,sans-Serif" font-size="10.00">+ Magic</text>
<text text-anchor="start" x="332" y="-175.5" font-family="Helvetica,sans-Serif" font-size="10.00">+ Desc</text>
<text text-anchor="start" x="332" y="-164.5" font-family="Helvetica,sans-Serif" font-size="10.00"># desc</text>
<text text-anchor="start" x="332" y="-153.5" font-family="Helvetica,sans-Serif" font-size="10.00"># magic</text>
<polyline fill="none" stroke="black" points="324,-146.5 422,-146.5 "/>
<text text-anchor="start" x="332" y="-134.5" font-family="Helvetica,sans-Serif" font-size="10.00">+ setUp()</text>
<text text-anchor="start" x="332" y="-123.5" font-family="Helvetica,sans-Serif" font-size="10.00">+ decreaseMagic()</text>
<text text-anchor="start" x="332" y="-112.5" font-family="Helvetica,sans-Serif" font-size="10.00"># SpecialMove()</text>
</a>
</g>
</g>
<!-- Node0&#45;&gt;Node1 -->
<g id="edge1" class="edge"><title>Node0&#45;&gt;Node1</title>
<path fill="none" stroke="midnightblue" d="M440.672,-250.706C432.226,-239.697 423.519,-228.347 415.277,-217.605"/>
<polygon fill="none" stroke="midnightblue" points="437.902,-252.844 446.766,-258.648 443.456,-248.583 437.902,-252.844"/>
</g>
<!-- Node9 -->
<g id="node10" class="node"><title>Node9</title>
<g id="a_node10"><a xlink:href="class_standard_attack.html" target="_top" xlink:title="Basic standard attack ">
<polygon fill="none" stroke="black" points="440.5,-127.5 440.5,-195.5 539.5,-195.5 539.5,-127.5 440.5,-127.5"/>
<text text-anchor="middle" x="490" y="-183.5" font-family="Helvetica,sans-Serif" font-size="10.00">StandardAttack</text>
<polyline fill="none" stroke="black" points="440.5,-176.5 539.5,-176.5 "/>
<text text-anchor="start" x="448.5" y="-164.5" font-family="Helvetica,sans-Serif" font-size="10.00">&#45; power</text>
<polyline fill="none" stroke="black" points="440.5,-157.5 539.5,-157.5 "/>
<text text-anchor="start" x="448.5" y="-145.5" font-family="Helvetica,sans-Serif" font-size="10.00">+ StandardAttack()</text>
<text text-anchor="start" x="448.5" y="-134.5" font-family="Helvetica,sans-Serif" font-size="10.00">+ performMove()</text>
</a>
</g>
</g>
<!-- Node0&#45;&gt;Node9 -->
<g id="edge9" class="edge"><title>Node0&#45;&gt;Node9</title>
<path fill="none" stroke="midnightblue" d="M490,-243.909C490,-227.12 490,-209.997 490,-195.814"/>
<polygon fill="none" stroke="midnightblue" points="486.5,-244.29 490,-254.29 493.5,-244.29 486.5,-244.29"/>
</g>
<!-- Node10 -->
<g id="node11" class="node"><title>Node10</title>
<g id="a_node11"><a xlink:href="class_switch_players.html" target="_top" xlink:title="Simple move to swap out the current player ">
<polygon fill="none" stroke="black" points="558,-127.5 558,-195.5 652,-195.5 652,-127.5 558,-127.5"/>
<text text-anchor="middle" x="605" y="-183.5" font-family="Helvetica,sans-Serif" font-size="10.00">SwitchPlayers</text>
<polyline fill="none" stroke="black" points="558,-176.5 652,-176.5 "/>
<text text-anchor="middle" x="605" y="-164.5" font-family="Helvetica,sans-Serif" font-size="10.00"> </text>
<polyline fill="none" stroke="black" points="558,-157.5 652,-157.5 "/>
<text text-anchor="start" x="566" y="-145.5" font-family="Helvetica,sans-Serif" font-size="10.00">+ SwitchPlayers()</text>
<text text-anchor="start" x="566" y="-134.5" font-family="Helvetica,sans-Serif" font-size="10.00">+ performMove()</text>
</a>
</g>
</g>
<!-- Node0&#45;&gt;Node10 -->
<g id="edge10" class="edge"><title>Node0&#45;&gt;Node10</title>
<path fill="none" stroke="midnightblue" d="M539.327,-249.588C553.368,-230.969 568.071,-211.471 579.998,-195.655"/>
<polygon fill="none" stroke="midnightblue" points="536.375,-247.689 533.149,-257.781 541.964,-251.904 536.375,-247.689"/>
</g>
<!-- Node2 -->
<g id="node3" class="node"><title>Node2</title>
<g id="a_node3"><a xlink:href="class_healing_spell.html" target="_top" xlink:title="Heal a target by a set amount of health points">
<polygon fill="none" stroke="black" points="0,-0.5 0,-68.5 86,-68.5 86,-0.5 0,-0.5"/>
<text text-anchor="middle" x="43" y="-56.5" font-family="Helvetica,sans-Serif" font-size="10.00">HealingSpell</text>
<polyline fill="none" stroke="black" points="0,-49.5 86,-49.5 "/>
<text text-anchor="start" x="8" y="-37.5" font-family="Helvetica,sans-Serif" font-size="10.00">&#45; increase</text>
<polyline fill="none" stroke="black" points="0,-30.5 86,-30.5 "/>
<text text-anchor="start" x="8" y="-18.5" font-family="Helvetica,sans-Serif" font-size="10.00">+ HealingSpell()</text>
<text text-anchor="start" x="8" y="-7.5" font-family="Helvetica,sans-Serif" font-size="10.00">+ performMove()</text>
</a>
</g>
</g>
<!-- Node1&#45;&gt;Node2 -->
<g id="edge2" class="edge"><title>Node1&#45;&gt;Node2</title>
<path fill="none" stroke="midnightblue" d="M313.841,-145.74C256.386,-130.324 167.464,-103.571 95,-69 92.0922,-67.6128 89.1519,-66.0907 86.2265,-64.4843"/>
<polygon fill="none" stroke="midnightblue" points="313.277,-149.212 323.84,-148.394 315.072,-142.446 313.277,-149.212"/>
</g>
<!-- Node3 -->
<g id="node4" class="node"><title>Node3</title>
<g id="a_node4"><a xlink:href="class_increase_money.html" target="_top" xlink:title="Increases the money reward of a battle">
<polygon fill="none" stroke="black" points="104,-0.5 104,-68.5 202,-68.5 202,-0.5 104,-0.5"/>
<text text-anchor="middle" x="153" y="-56.5" font-family="Helvetica,sans-Serif" font-size="10.00">IncreaseMoney</text>
<polyline fill="none" stroke="black" points="104,-49.5 202,-49.5 "/>
<text text-anchor="start" x="112" y="-37.5" font-family="Helvetica,sans-Serif" font-size="10.00">&#45; increase</text>
<polyline fill="none" stroke="black" points="104,-30.5 202,-30.5 "/>
<text text-anchor="start" x="112" y="-18.5" font-family="Helvetica,sans-Serif" font-size="10.00">+ IncreaseMoney()</text>
<text text-anchor="start" x="112" y="-7.5" font-family="Helvetica,sans-Serif" font-size="10.00">+ performMove()</text>
</a>
</g>
</g>
<!-- Node1&#45;&gt;Node3 -->
<g id="edge3" class="edge"><title>Node1&#45;&gt;Node3</title>
<path fill="none" stroke="midnightblue" d="M314.75,-127.778C283.877,-110.39 245.335,-88.6118 211,-69 208.072,-67.3274 205.063,-65.6039 202.029,-63.8625"/>
<polygon fill="none" stroke="midnightblue" points="313.227,-130.937 323.658,-132.793 316.661,-124.837 313.227,-130.937"/>
</g>
<!-- Node4 -->
<g id="node5" class="node"><title>Node4</title>
<g id="a_node5"><a xlink:href="class_lower_defence.html" target="_top" xlink:title="Lower&#39;s the target&#39;s defence ">
<polygon fill="none" stroke="black" points="220,-0.5 220,-68.5 312,-68.5 312,-0.5 220,-0.5"/>
<text text-anchor="middle" x="266" y="-56.5" font-family="Helvetica,sans-Serif" font-size="10.00">LowerDefence</text>
<polyline fill="none" stroke="black" points="220,-49.5 312,-49.5 "/>
<text text-anchor="start" x="228" y="-37.5" font-family="Helvetica,sans-Serif" font-size="10.00">&#45; decrease</text>
<polyline fill="none" stroke="black" points="220,-30.5 312,-30.5 "/>
<text text-anchor="start" x="228" y="-18.5" font-family="Helvetica,sans-Serif" font-size="10.00">+ LowerDefence()</text>
<text text-anchor="start" x="228" y="-7.5" font-family="Helvetica,sans-Serif" font-size="10.00">+ performMove()</text>
</a>
</g>
</g>
<!-- Node1&#45;&gt;Node4 -->
<g id="edge4" class="edge"><title>Node1&#45;&gt;Node4</title>
<path fill="none" stroke="midnightblue" d="M319.179,-97.6252C310.561,-87.5574 301.954,-77.5026 294.253,-68.5058"/>
<polygon fill="none" stroke="midnightblue" points="316.595,-99.9885 325.757,-105.309 321.913,-95.4364 316.595,-99.9885"/>
</g>
<!-- Node5 -->
<g id="node6" class="node"><title>Node5</title>
<g id="a_node6"><a xlink:href="class_lower_speed.html" target="_top" xlink:title="Lower&#39;s the target&#39;s speed ">
<polygon fill="none" stroke="black" points="330,-0.5 330,-68.5 416,-68.5 416,-0.5 330,-0.5"/>
<text text-anchor="middle" x="373" y="-56.5" font-family="Helvetica,sans-Serif" font-size="10.00">LowerSpeed</text>
<polyline fill="none" stroke="black" points="330,-49.5 416,-49.5 "/>
<text text-anchor="start" x="338" y="-37.5" font-family="Helvetica,sans-Serif" font-size="10.00">&#45; decrease</text>
<polyline fill="none" stroke="black" points="330,-30.5 416,-30.5 "/>
<text text-anchor="start" x="338" y="-18.5" font-family="Helvetica,sans-Serif" font-size="10.00">+ LowerSpeed()</text>
<text text-anchor="start" x="338" y="-7.5" font-family="Helvetica,sans-Serif" font-size="10.00">+ performMove()</text>
</a>
</g>
</g>
<!-- Node1&#45;&gt;Node5 -->
<g id="edge5" class="edge"><title>Node1&#45;&gt;Node5</title>
<path fill="none" stroke="midnightblue" d="M373,-95.2571C373,-85.9867 373,-76.797 373,-68.5058"/>
<polygon fill="none" stroke="midnightblue" points="369.5,-95.3093 373,-105.309 376.5,-95.3094 369.5,-95.3093"/>
</g>
<!-- Node6 -->
<g id="node7" class="node"><title>Node6</title>
<g id="a_node7"><a xlink:href="class_magic_attack.html" target="_top" xlink:title="An attack move that uses magic ">
<polygon fill="none" stroke="black" points="434,-0.5 434,-68.5 520,-68.5 520,-0.5 434,-0.5"/>
<text text-anchor="middle" x="477" y="-56.5" font-family="Helvetica,sans-Serif" font-size="10.00">MagicAttack</text>
<polyline fill="none" stroke="black" points="434,-49.5 520,-49.5 "/>
<text text-anchor="start" x="442" y="-37.5" font-family="Helvetica,sans-Serif" font-size="10.00">&#45; power</text>
<polyline fill="none" stroke="black" points="434,-30.5 520,-30.5 "/>
<text text-anchor="start" x="442" y="-18.5" font-family="Helvetica,sans-Serif" font-size="10.00">+ MagicAttack()</text>
<text text-anchor="start" x="442" y="-7.5" font-family="Helvetica,sans-Serif" font-size="10.00">+ performMove()</text>
</a>
</g>
</g>
<!-- Node1&#45;&gt;Node6 -->
<g id="edge6" class="edge"><title>Node1&#45;&gt;Node6</title>
<path fill="none" stroke="midnightblue" d="M425.558,-97.3291C433.852,-87.3604 442.127,-77.4144 449.539,-68.5058"/>
<polygon fill="none" stroke="midnightblue" points="422.624,-95.3835 418.919,-105.309 428.005,-99.8606 422.624,-95.3835"/>
</g>
<!-- Node7 -->
<g id="node8" class="node"><title>Node7</title>
<g id="a_node8"><a xlink:href="class_raise_attack.html" target="_top" xlink:title="Raise the target&#39;s attack stat">
<polygon fill="none" stroke="black" points="538,-0.5 538,-68.5 624,-68.5 624,-0.5 538,-0.5"/>
<text text-anchor="middle" x="581" y="-56.5" font-family="Helvetica,sans-Serif" font-size="10.00">RaiseAttack</text>
<polyline fill="none" stroke="black" points="538,-49.5 624,-49.5 "/>
<text text-anchor="start" x="546" y="-37.5" font-family="Helvetica,sans-Serif" font-size="10.00">&#45; increase</text>
<polyline fill="none" stroke="black" points="538,-30.5 624,-30.5 "/>
<text text-anchor="start" x="546" y="-18.5" font-family="Helvetica,sans-Serif" font-size="10.00">+ RaiseAttack()</text>
<text text-anchor="start" x="546" y="-7.5" font-family="Helvetica,sans-Serif" font-size="10.00">+ performMove()</text>
</a>
</g>
</g>
<!-- Node1&#45;&gt;Node7 -->
<g id="edge7" class="edge"><title>Node1&#45;&gt;Node7</title>
<path fill="none" stroke="midnightblue" d="M430.433,-105.988C430.955,-105.654 431.477,-105.324 432,-105 471.08,-80.7646 487.874,-89.5729 529,-69 531.881,-67.5586 534.801,-65.9951 537.712,-64.3577"/>
<polygon fill="none" stroke="midnightblue" points="428.297,-103.21 422.074,-111.785 432.286,-108.962 428.297,-103.21"/>
</g>
<!-- Node8 -->
<g id="node9" class="node"><title>Node8</title>
<g id="a_node9"><a xlink:href="class_raise_defence.html" target="_top" xlink:title="Raises the target&#39;s defence stat">
<polygon fill="none" stroke="black" points="642,-0.5 642,-68.5 734,-68.5 734,-0.5 642,-0.5"/>
<text text-anchor="middle" x="688" y="-56.5" font-family="Helvetica,sans-Serif" font-size="10.00">RaiseDefence</text>
<polyline fill="none" stroke="black" points="642,-49.5 734,-49.5 "/>
<text text-anchor="start" x="650" y="-37.5" font-family="Helvetica,sans-Serif" font-size="10.00">&#45; increase</text>
<polyline fill="none" stroke="black" points="642,-30.5 734,-30.5 "/>
<text text-anchor="start" x="650" y="-18.5" font-family="Helvetica,sans-Serif" font-size="10.00">+ RaiseDefence()</text>
<text text-anchor="start" x="650" y="-7.5" font-family="Helvetica,sans-Serif" font-size="10.00">+ performMove()</text>
</a>
</g>
</g>
<!-- Node1&#45;&gt;Node8 -->
<g id="edge8" class="edge"><title>Node1&#45;&gt;Node8</title>
<path fill="none" stroke="midnightblue" d="M430.731,-105.652C431.153,-105.431 431.576,-105.213 432,-105 513.077,-64.2197 548.132,-101.153 633,-69 635.927,-67.8909 638.872,-66.6237 641.796,-65.2461"/>
<polygon fill="none" stroke="midnightblue" points="428.84,-102.704 422.027,-110.818 432.413,-108.724 428.84,-102.704"/>
</g>
</g>
</svg>
        <g id="navigator" transform="translate(0 0)" fill="#404254">
                <rect fill="#f2f5e9" fill-opacity="0.5" stroke="#606060" stroke-width=".5" x="0" y="0" width="60" height="60"/>
                <use id="zoomplus" xlink:href="#zoomPlus" x="17" y="9" onmousedown="handleZoom(evt,'in')"/>
                <use id="zoomminus" xlink:href="#zoomMin" x="42" y="9" onmousedown="handleZoom(evt,'out')"/>
                <use id="reset" xlink:href="#resetDef" x="30" y="36" onmousedown="handleReset()"/>
                <g id="arrowUp" xlink:href="#dirArrow" transform="translate(30 24)" onmousedown="handlePan(0,-1)">
                  <use xlink:href="#rim" fill="#404040">
                        <set attributeName="fill" to="#808080" begin="arrowUp.mouseover" end="arrowUp.mouseout"/>
                  </use>
                  <path fill="none" stroke="white" stroke-width="1.5" d="M0,-3.0v7 M-2.5,-0.5L0,-3.0L2.5,-0.5"/>
                </g>
                <g id="arrowRight" xlink:href="#dirArrow" transform="rotate(90) translate(36 -43)" onmousedown="handlePan(1,0)">
                  <use xlink:href="#rim" fill="#404040">
                        <set attributeName="fill" to="#808080" begin="arrowRight.mouseover" end="arrowRight.mouseout"/>
                  </use>
                  <path fill="none" stroke="white" stroke-width="1.5" d="M0,-3.0v7 M-2.5,-0.5L0,-3.0L2.5,-0.5"/>
                </g>
                <g id="arrowDown" xlink:href="#dirArrow" transform="rotate(180) translate(-30 -48)" onmousedown="handlePan(0,1)">
                  <use xlink:href="#rim" fill="#404040">
                        <set attributeName="fill" to="#808080" begin="arrowDown.mouseover" end="arrowDown.mouseout"/>
                  </use>
                  <path fill="none" stroke="white" stroke-width="1.5" d="M0,-3.0v7 M-2.5,-0.5L0,-3.0L2.5,-0.5"/>
                </g>
                <g id="arrowLeft" xlink:href="#dirArrow" transform="rotate(270) translate(-36 17)" onmousedown="handlePan(-1,0)">
                  <use xlink:href="#rim" fill="#404040">
                        <set attributeName="fill" to="#808080" begin="arrowLeft.mouseover" end="arrowLeft.mouseout"/>
                  </use>
                  <path fill="none" stroke="white" stroke-width="1.5" d="M0,-3.0v7 M-2.5,-0.5L0,-3.0L2.5,-0.5"/>
                </g>
        </g>
        <svg viewBox="0 0 15 15" width="100%" height="30px" preserveAspectRatio="xMaxYMin meet">
         <g id="arrow_out" transform="scale(0.3 0.3)">
          <a xlink:href="class_character_move__inherit__graph_org.svg" target="_base">
           <rect id="button" ry="5" rx="5" y="6" x="6" height="38" width="38"
                fill="#f2f5e9" fill-opacity="0.5" stroke="#606060" stroke-width="1.0"/>
           <path id="arrow"
             d="M 11.500037,31.436501 C 11.940474,20.09759 22.043105,11.32322 32.158766,21.979434 L 37.068811,17.246167 C 37.068811,17.246167 37.088388,32 37.088388,32 L 22.160133,31.978069 C 22.160133,31.978069 26.997745,27.140456 26.997745,27.140456 C 18.528582,18.264221 13.291696,25.230495 11.500037,31.436501 z"
             style="fill:#404040;"/>
          </a>
         </g>
        </svg>
</svg>
