<?xml version="1.0" encoding="UTF-8" standalone="no"?>
<!DOCTYPE svg PUBLIC "-//W3C//DTD SVG 1.1//EN"
 "http://www.w3.org/Graphics/SVG/1.1/DTD/svg11.dtd">
<!-- Generated by graphviz version 2.38.0 (20140413.2041)
 -->
<!-- Title: StatsScript Pages: 1 -->
<svg width="408pt" height="204pt"
 viewBox="0.00 0.00 407.50 204.00" xmlns="http://www.w3.org/2000/svg" xmlns:xlink="http://www.w3.org/1999/xlink">
<g id="graph0" class="graph" transform="scale(1 1) rotate(0) translate(4 200)">
<title>StatsScript</title>
<!-- Node2 -->
<g id="node1" class="node"><title>Node2</title>
<polygon fill="#bfbfbf" stroke="black" points="154,-0.5 154,-79.5 247,-79.5 247,-0.5 154,-0.5"/>
<text text-anchor="middle" x="200.5" y="-67.5" font-family="Helvetica,sans-Serif" font-size="10.00">StatsScript</text>
<polyline fill="none" stroke="black" points="154,-60.5 247,-60.5 "/>
<text text-anchor="middle" x="200.5" y="-48.5" font-family="Helvetica,sans-Serif" font-size="10.00"> </text>
<polyline fill="none" stroke="black" points="154,-41.5 247,-41.5 "/>
<text text-anchor="start" x="162" y="-29.5" font-family="Helvetica,sans-Serif" font-size="10.00">+ setUpDisplay()</text>
<text text-anchor="start" x="162" y="-18.5" font-family="Helvetica,sans-Serif" font-size="10.00">+ updateDisplay()</text>
<text text-anchor="start" x="162" y="-7.5" font-family="Helvetica,sans-Serif" font-size="10.00">&#45; Start()</text>
</g>
<!-- Node3 -->
<g id="node2" class="node"><title>Node3</title>
<g id="a_node2"><a xlink:href="class_mono_behaviour.html" target="_top" xlink:title="{MonoBehaviour\n||}">
<polygon fill="none" stroke="black" points="0,-138.5 0,-195.5 83,-195.5 83,-138.5 0,-138.5"/>
<text text-anchor="middle" x="41.5" y="-183.5" font-family="Helvetica,sans-Serif" font-size="10.00">MonoBehaviour</text>
<polyline fill="none" stroke="black" points="0,-176.5 83,-176.5 "/>
<text text-anchor="middle" x="41.5" y="-164.5" font-family="Helvetica,sans-Serif" font-size="10.00"> </text>
<polyline fill="none" stroke="black" points="0,-157.5 83,-157.5 "/>
<text text-anchor="middle" x="41.5" y="-145.5" font-family="Helvetica,sans-Serif" font-size="10.00"> </text>
</a>
</g>
</g>
<!-- Node3&#45;&gt;Node2 -->
<g id="edge1" class="edge"><title>Node3&#45;&gt;Node2</title>
<path fill="none" stroke="midnightblue" d="M84.7517,-131.997C106.148,-115.176 132.001,-94.8511 153.842,-77.6806"/>
<polygon fill="none" stroke="midnightblue" points="82.4856,-129.326 76.7873,-138.258 86.8119,-134.83 82.4856,-129.326"/>
</g>
<!-- Node4 -->
<g id="node3" class="node"><title>Node4</title>
<polygon fill="none" stroke="#bfbfbf" points="101,-138.5 101,-195.5 142,-195.5 142,-138.5 101,-138.5"/>
<text text-anchor="middle" x="121.5" y="-183.5" font-family="Helvetica,sans-Serif" font-size="10.00">string</text>
<polyline fill="none" stroke="#bfbfbf" points="101,-176.5 142,-176.5 "/>
<text text-anchor="middle" x="121.5" y="-164.5" font-family="Helvetica,sans-Serif" font-size="10.00"> </text>
<polyline fill="none" stroke="#bfbfbf" points="101,-157.5 142,-157.5 "/>
<text text-anchor="middle" x="121.5" y="-145.5" font-family="Helvetica,sans-Serif" font-size="10.00"> </text>
</g>
<!-- Node4&#45;&gt;Node2 -->
<g id="edge2" class="edge"><title>Node4&#45;&gt;Node2</title>
<path fill="none" stroke="#404040" d="M126.786,-138.217C130.037,-125.352 135.048,-110.243 142.5,-98 144.324,-95.004 146.34,-92.0526 148.494,-89.1655"/>
<polygon fill="none" stroke="#404040" points="148.687,-88.9276 149.377,-81.7496 156.268,-79.6252 155.579,-86.8033 148.687,-88.9276"/>
<text text-anchor="middle" x="169.5" y="-112" font-family="Helvetica,sans-Serif" font-size="10.00"> &#45;textHeader</text>
<text text-anchor="middle" x="169.5" y="-101" font-family="Helvetica,sans-Serif" font-size="10.00">&#45;textFooter</text>
</g>
<!-- Node5 -->
<g id="node4" class="node"><title>Node5</title>
<polygon fill="none" stroke="#bfbfbf" points="160.5,-138.5 160.5,-195.5 240.5,-195.5 240.5,-138.5 160.5,-138.5"/>
<text text-anchor="middle" x="200.5" y="-183.5" font-family="Helvetica,sans-Serif" font-size="10.00">RectTransform</text>
<polyline fill="none" stroke="#bfbfbf" points="160.5,-176.5 240.5,-176.5 "/>
<text text-anchor="middle" x="200.5" y="-164.5" font-family="Helvetica,sans-Serif" font-size="10.00"> </text>
<polyline fill="none" stroke="#bfbfbf" points="160.5,-157.5 240.5,-157.5 "/>
<text text-anchor="middle" x="200.5" y="-145.5" font-family="Helvetica,sans-Serif" font-size="10.00"> </text>
</g>
<!-- Node5&#45;&gt;Node2 -->
<g id="edge3" class="edge"><title>Node5&#45;&gt;Node2</title>
<path fill="none" stroke="#404040" d="M200.5,-138.258C200.5,-124.637 200.5,-107.787 200.5,-91.9595"/>
<polygon fill="none" stroke="#404040" points="200.5,-91.5667 196.5,-85.5668 200.5,-79.5667 204.5,-85.5667 200.5,-91.5667"/>
<text text-anchor="middle" x="212" y="-106.5" font-family="Helvetica,sans-Serif" font-size="10.00"> &#45;rect</text>
</g>
<!-- Node6 -->
<g id="node5" class="node"><title>Node6</title>
<polygon fill="none" stroke="#bfbfbf" points="259,-138.5 259,-195.5 328,-195.5 328,-138.5 259,-138.5"/>
<text text-anchor="middle" x="293.5" y="-183.5" font-family="Helvetica,sans-Serif" font-size="10.00">UnityEngine</text>
<polyline fill="none" stroke="#bfbfbf" points="259,-176.5 328,-176.5 "/>
<text text-anchor="middle" x="293.5" y="-164.5" font-family="Helvetica,sans-Serif" font-size="10.00"> </text>
<polyline fill="none" stroke="#bfbfbf" points="259,-157.5 328,-157.5 "/>
<text text-anchor="middle" x="293.5" y="-145.5" font-family="Helvetica,sans-Serif" font-size="10.00"> </text>
</g>
<!-- Node6&#45;&gt;Node2 -->
<g id="edge4" class="edge"><title>Node6&#45;&gt;Node2</title>
<path fill="none" stroke="#404040" d="M272.86,-138.258C262.225,-123.963 248.942,-106.111 236.671,-89.6169"/>
<polygon fill="none" stroke="#404040" points="236.357,-89.1944 229.566,-86.7682 229.194,-79.5667 235.984,-81.9929 236.357,-89.1944"/>
<text text-anchor="middle" x="286" y="-106.5" font-family="Helvetica,sans-Serif" font-size="10.00"> &#45;textDisplay</text>
</g>
<!-- Node7 -->
<g id="node6" class="node"><title>Node7</title>
<polygon fill="none" stroke="#bfbfbf" points="350,-138.5 350,-195.5 385,-195.5 385,-138.5 350,-138.5"/>
<text text-anchor="middle" x="367.5" y="-183.5" font-family="Helvetica,sans-Serif" font-size="10.00">float</text>
<polyline fill="none" stroke="#bfbfbf" points="350,-176.5 385,-176.5 "/>
<text text-anchor="middle" x="367.5" y="-164.5" font-family="Helvetica,sans-Serif" font-size="10.00"> </text>
<polyline fill="none" stroke="#bfbfbf" points="350,-157.5 385,-157.5 "/>
<text text-anchor="middle" x="367.5" y="-145.5" font-family="Helvetica,sans-Serif" font-size="10.00"> </text>
</g>
<!-- Node7&#45;&gt;Node2 -->
<g id="edge5" class="edge"><title>Node7&#45;&gt;Node2</title>
<path fill="none" stroke="#404040" d="M351.594,-138.351C342.835,-124.907 331.005,-109.261 317.5,-98 300.084,-83.4774 278.341,-71.581 258.341,-62.4839"/>
<polygon fill="none" stroke="#404040" points="258.128,-62.3906 251.028,-63.6537 247.132,-57.586 254.231,-56.3229 258.128,-62.3906"/>
<text text-anchor="middle" x="369" y="-112" font-family="Helvetica,sans-Serif" font-size="10.00"> &#45;widthPerUnit</text>
<text text-anchor="middle" x="369" y="-101" font-family="Helvetica,sans-Serif" font-size="10.00">&#45;initialWidth</text>
</g>
</g>
</svg>
