<?xml version="1.0" encoding="UTF-8" standalone="no"?>
<!DOCTYPE svg PUBLIC "-//W3C//DTD SVG 1.1//EN"
 "http://www.w3.org/Graphics/SVG/1.1/DTD/svg11.dtd">
<!-- Generated by graphviz version 2.38.0 (20140413.2041)
 -->
<!-- Title: PlayerMovement Pages: 1 -->
<svg width="427pt" height="237pt"
 viewBox="0.00 0.00 427.00 237.00" xmlns="http://www.w3.org/2000/svg" xmlns:xlink="http://www.w3.org/1999/xlink">
<g id="graph0" class="graph" transform="scale(1 1) rotate(0) translate(4 233)">
<title>PlayerMovement</title>
<!-- Node2 -->
<g id="node1" class="node"><title>Node2</title>
<polygon fill="#bfbfbf" stroke="black" points="173.5,-0.5 173.5,-112.5 265.5,-112.5 265.5,-0.5 173.5,-0.5"/>
<text text-anchor="middle" x="219.5" y="-100.5" font-family="Helvetica,sans-Serif" font-size="10.00">PlayerMovement</text>
<polyline fill="none" stroke="black" points="173.5,-93.5 265.5,-93.5 "/>
<text text-anchor="middle" x="219.5" y="-81.5" font-family="Helvetica,sans-Serif" font-size="10.00"> </text>
<polyline fill="none" stroke="black" points="173.5,-74.5 265.5,-74.5 "/>
<text text-anchor="start" x="181.5" y="-62.5" font-family="Helvetica,sans-Serif" font-size="10.00">+ move()</text>
<text text-anchor="start" x="181.5" y="-51.5" font-family="Helvetica,sans-Serif" font-size="10.00">+ setCanMove()</text>
<text text-anchor="start" x="181.5" y="-40.5" font-family="Helvetica,sans-Serif" font-size="10.00">&#45; Start()</text>
<text text-anchor="start" x="181.5" y="-29.5" font-family="Helvetica,sans-Serif" font-size="10.00">&#45; FixedUpdate()</text>
<text text-anchor="start" x="181.5" y="-18.5" font-family="Helvetica,sans-Serif" font-size="10.00">&#45; walkAnimation()</text>
<text text-anchor="start" x="181.5" y="-7.5" font-family="Helvetica,sans-Serif" font-size="10.00">&#45; setIdle()</text>
</g>
<!-- Node3 -->
<g id="node2" class="node"><title>Node3</title>
<g id="a_node2"><a xlink:href="class_mono_behaviour.html" target="_top" xlink:title="{MonoBehaviour\n||}">
<polygon fill="none" stroke="black" points="0,-171.5 0,-228.5 83,-228.5 83,-171.5 0,-171.5"/>
<text text-anchor="middle" x="41.5" y="-216.5" font-family="Helvetica,sans-Serif" font-size="10.00">MonoBehaviour</text>
<polyline fill="none" stroke="black" points="0,-209.5 83,-209.5 "/>
<text text-anchor="middle" x="41.5" y="-197.5" font-family="Helvetica,sans-Serif" font-size="10.00"> </text>
<polyline fill="none" stroke="black" points="0,-190.5 83,-190.5 "/>
<text text-anchor="middle" x="41.5" y="-178.5" font-family="Helvetica,sans-Serif" font-size="10.00"> </text>
</a>
</g>
</g>
<!-- Node3&#45;&gt;Node2 -->
<g id="edge1" class="edge"><title>Node3&#45;&gt;Node2</title>
<path fill="none" stroke="midnightblue" d="M84.3224,-164.959C111.215,-143.581 145.888,-116.018 173.384,-94.1598"/>
<polygon fill="none" stroke="midnightblue" points="81.8927,-162.419 76.2427,-171.381 86.2487,-167.898 81.8927,-162.419"/>
</g>
<!-- Node4 -->
<g id="node3" class="node"><title>Node4</title>
<polygon fill="none" stroke="#bfbfbf" points="101,-171.5 101,-228.5 142,-228.5 142,-171.5 101,-171.5"/>
<text text-anchor="middle" x="121.5" y="-216.5" font-family="Helvetica,sans-Serif" font-size="10.00">string</text>
<polyline fill="none" stroke="#bfbfbf" points="101,-209.5 142,-209.5 "/>
<text text-anchor="middle" x="121.5" y="-197.5" font-family="Helvetica,sans-Serif" font-size="10.00"> </text>
<polyline fill="none" stroke="#bfbfbf" points="101,-190.5 142,-190.5 "/>
<text text-anchor="middle" x="121.5" y="-178.5" font-family="Helvetica,sans-Serif" font-size="10.00"> </text>
</g>
<!-- Node4&#45;&gt;Node2 -->
<g id="edge2" class="edge"><title>Node4&#45;&gt;Node2</title>
<path fill="none" stroke="#404040" d="M129.223,-171.306C133.506,-158.461 139.586,-143.342 147.5,-131 152.584,-123.07 158.629,-115.289 165.023,-107.93"/>
<polygon fill="none" stroke="#404040" points="165.195,-107.741 166.268,-100.61 173.263,-98.8574 172.19,-105.988 165.195,-107.741"/>
<text text-anchor="middle" x="170" y="-139.5" font-family="Helvetica,sans-Serif" font-size="10.00"> &#45;lastMove</text>
</g>
<!-- Node5 -->
<g id="node4" class="node"><title>Node5</title>
<polygon fill="none" stroke="#bfbfbf" points="160.5,-171.5 160.5,-228.5 216.5,-228.5 216.5,-171.5 160.5,-171.5"/>
<text text-anchor="middle" x="188.5" y="-216.5" font-family="Helvetica,sans-Serif" font-size="10.00">Animator</text>
<polyline fill="none" stroke="#bfbfbf" points="160.5,-209.5 216.5,-209.5 "/>
<text text-anchor="middle" x="188.5" y="-197.5" font-family="Helvetica,sans-Serif" font-size="10.00"> </text>
<polyline fill="none" stroke="#bfbfbf" points="160.5,-190.5 216.5,-190.5 "/>
<text text-anchor="middle" x="188.5" y="-178.5" font-family="Helvetica,sans-Serif" font-size="10.00"> </text>
</g>
<!-- Node5&#45;&gt;Node2 -->
<g id="edge3" class="edge"><title>Node5&#45;&gt;Node2</title>
<path fill="none" stroke="#404040" d="M192.288,-171.415C194.165,-159.005 196.643,-144.208 199.5,-131 199.962,-128.863 200.448,-126.696 200.953,-124.511"/>
<polygon fill="none" stroke="#404040" points="200.981,-124.394 198.503,-117.622 203.801,-112.731 206.279,-119.503 200.981,-124.394"/>
<text text-anchor="middle" x="213.5" y="-139.5" font-family="Helvetica,sans-Serif" font-size="10.00"> &#45;anim</text>
</g>
<!-- Node6 -->
<g id="node5" class="node"><title>Node6</title>
<polygon fill="none" stroke="#bfbfbf" points="235,-171.5 235,-228.5 270,-228.5 270,-171.5 235,-171.5"/>
<text text-anchor="middle" x="252.5" y="-216.5" font-family="Helvetica,sans-Serif" font-size="10.00">float</text>
<polyline fill="none" stroke="#bfbfbf" points="235,-209.5 270,-209.5 "/>
<text text-anchor="middle" x="252.5" y="-197.5" font-family="Helvetica,sans-Serif" font-size="10.00"> </text>
<polyline fill="none" stroke="#bfbfbf" points="235,-190.5 270,-190.5 "/>
<text text-anchor="middle" x="252.5" y="-178.5" font-family="Helvetica,sans-Serif" font-size="10.00"> </text>
</g>
<!-- Node6&#45;&gt;Node2 -->
<g id="edge4" class="edge"><title>Node6&#45;&gt;Node2</title>
<path fill="none" stroke="#404040" d="M246.059,-171.381C242.919,-157.92 238.994,-141.089 235.133,-124.531"/>
<polygon fill="none" stroke="#404040" points="235.07,-124.261 229.812,-119.326 232.344,-112.575 237.603,-117.509 235.07,-124.261"/>
<text text-anchor="middle" x="258" y="-139.5" font-family="Helvetica,sans-Serif" font-size="10.00"> &#45;speed</text>
</g>
<!-- Node7 -->
<g id="node6" class="node"><title>Node7</title>
<polygon fill="none" stroke="#bfbfbf" points="288,-171.5 288,-228.5 323,-228.5 323,-171.5 288,-171.5"/>
<text text-anchor="middle" x="305.5" y="-216.5" font-family="Helvetica,sans-Serif" font-size="10.00">bool</text>
<polyline fill="none" stroke="#bfbfbf" points="288,-209.5 323,-209.5 "/>
<text text-anchor="middle" x="305.5" y="-197.5" font-family="Helvetica,sans-Serif" font-size="10.00"> </text>
<polyline fill="none" stroke="#bfbfbf" points="288,-190.5 323,-190.5 "/>
<text text-anchor="middle" x="305.5" y="-178.5" font-family="Helvetica,sans-Serif" font-size="10.00"> </text>
</g>
<!-- Node7&#45;&gt;Node2 -->
<g id="edge5" class="edge"><title>Node7&#45;&gt;Node2</title>
<path fill="none" stroke="#404040" d="M296.639,-171.327C292.044,-158.629 285.849,-143.624 278.5,-131 276.626,-127.781 274.618,-124.553 272.516,-121.343"/>
<polygon fill="none" stroke="#404040" points="272.331,-121.073 265.634,-118.398 265.528,-111.187 272.224,-113.862 272.331,-121.073"/>
<text text-anchor="middle" x="320" y="-145" font-family="Helvetica,sans-Serif" font-size="10.00"> &#45;playerExists</text>
<text text-anchor="middle" x="320" y="-134" font-family="Helvetica,sans-Serif" font-size="10.00">&#45;canMove</text>
</g>
<!-- Node8 -->
<g id="node7" class="node"><title>Node8</title>
<polygon fill="none" stroke="#bfbfbf" points="360,-171.5 360,-228.5 419,-228.5 419,-171.5 360,-171.5"/>
<text text-anchor="middle" x="389.5" y="-216.5" font-family="Helvetica,sans-Serif" font-size="10.00">Transform</text>
<polyline fill="none" stroke="#bfbfbf" points="360,-209.5 419,-209.5 "/>
<text text-anchor="middle" x="389.5" y="-197.5" font-family="Helvetica,sans-Serif" font-size="10.00"> </text>
<polyline fill="none" stroke="#bfbfbf" points="360,-190.5 419,-190.5 "/>
<text text-anchor="middle" x="389.5" y="-178.5" font-family="Helvetica,sans-Serif" font-size="10.00"> </text>
</g>
<!-- Node8&#45;&gt;Node2 -->
<g id="edge6" class="edge"><title>Node8&#45;&gt;Node2</title>
<path fill="none" stroke="#404040" d="M379.789,-171.466C374.021,-158.05 365.635,-142.396 354.5,-131 332.715,-108.703 302.703,-91.451 276.507,-79.2822"/>
<polygon fill="none" stroke="#404040" points="276.503,-79.2802 269.392,-80.4803 265.55,-74.3783 272.66,-73.1782 276.503,-79.2802"/>
<text text-anchor="middle" x="388" y="-139.5" font-family="Helvetica,sans-Serif" font-size="10.00"> &#45;player</text>
</g>
</g>
</svg>
