<?xml version="1.0" encoding="UTF-8" standalone="no"?>
<!DOCTYPE svg PUBLIC "-//W3C//DTD SVG 1.1//EN"
 "http://www.w3.org/Graphics/SVG/1.1/DTD/svg11.dtd">
<!-- Generated by graphviz version 2.38.0 (20140413.2041)
 -->
<!-- Title: StandardAttack Pages: 1 -->
<!--zoomable 1035 -->
<svg id="main" version="1.1" xmlns="http://www.w3.org/2000/svg" xmlns:xlink="http://www.w3.org/1999/xlink" xml:space="preserve" onload="init(evt)">
<style type="text/css"><![CDATA[
.edge:hover path { stroke: red; }
.edge:hover polygon { stroke: red; fill: red; }
]]></style>
<script type="text/javascript"><![CDATA[
var edges = document.getElementsByTagName('g');
if (edges && edges.length) {
  for (var i=0;i<edges.length;i++) {
    if (edges[i].id.substr(0,4)=='edge') {
      edges[i].setAttribute('class','edge');
    }
  }
}
]]></script>
        <defs>
                <circle id="rim" cx="0" cy="0" r="7"/>
                <circle id="rim2" cx="0" cy="0" r="3.5"/>
                <g id="zoomPlus">
                        <use xlink:href="#rim" fill="#404040">
                                <set attributeName="fill" to="#808080" begin="zoomplus.mouseover" end="zoomplus.mouseout"/>
                        </use>
                        <path d="M-4,0h8M0,-4v8" fill="none" stroke="white" stroke-width="1.5" pointer-events="none"/>
                </g>
                <g id="zoomMin">
                        <use xlink:href="#rim" fill="#404040">
                                <set attributeName="fill" to="#808080" begin="zoomminus.mouseover" end="zoomminus.mouseout"/>
                        </use>
                        <path d="M-4,0h8" fill="none" stroke="white" stroke-width="1.5" pointer-events="none"/>
                </g>
                <g id="dirArrow">
                        <path fill="none" stroke="white" stroke-width="1.5" d="M0,-3.0v7 M-2.5,-0.5L0,-3.0L2.5,-0.5"/>
                </g>
               <g id="resetDef">
                       <use xlink:href="#rim2" fill="#404040">
                               <set attributeName="fill" to="#808080" begin="reset.mouseover" end="reset.mouseout"/>
                       </use>
               </g>
        </defs>

<script type="text/javascript">
var viewWidth = 905;
var viewHeight = 1035;
var sectionId = 'dynsection-1';
</script>
<script xlink:href="svgpan.js"/>
<svg id="graph" class="graph">
<g id="viewport">
<title>StandardAttack</title>
<!-- Node2 -->
<g id="node1" class="node"><title>Node2</title>
<polygon fill="#bfbfbf" stroke="black" points="235.5,-635.5 235.5,-703.5 334.5,-703.5 334.5,-635.5 235.5,-635.5"/>
<text text-anchor="middle" x="285" y="-691.5" font-family="Helvetica,sans-Serif" font-size="10.00">StandardAttack</text>
<polyline fill="none" stroke="black" points="235.5,-684.5 334.5,-684.5 "/>
<text text-anchor="middle" x="285" y="-672.5" font-family="Helvetica,sans-Serif" font-size="10.00"> </text>
<polyline fill="none" stroke="black" points="235.5,-665.5 334.5,-665.5 "/>
<text text-anchor="start" x="243.5" y="-653.5" font-family="Helvetica,sans-Serif" font-size="10.00">+ StandardAttack()</text>
<text text-anchor="start" x="243.5" y="-642.5" font-family="Helvetica,sans-Serif" font-size="10.00">+ performMove()</text>
</g>
<!-- Node3 -->
<g id="node2" class="node"><title>Node3</title>
<g id="a_node2"><a xlink:href="class_character_move.html" target="_top" xlink:title="Astract base class for character moves ">
<polygon fill="none" stroke="black" points="203,-831.5 203,-910.5 289,-910.5 289,-831.5 203,-831.5"/>
<text text-anchor="middle" x="246" y="-898.5" font-family="Helvetica,sans-Serif" font-size="10.00">CharacterMove</text>
<polyline fill="none" stroke="black" points="203,-891.5 289,-891.5 "/>
<text text-anchor="start" x="211" y="-879.5" font-family="Helvetica,sans-Serif" font-size="10.00">+ User</text>
<text text-anchor="start" x="211" y="-868.5" font-family="Helvetica,sans-Serif" font-size="10.00">+ Target</text>
<text text-anchor="start" x="211" y="-857.5" font-family="Helvetica,sans-Serif" font-size="10.00">+ Text</text>
<polyline fill="none" stroke="black" points="203,-850.5 289,-850.5 "/>
<text text-anchor="start" x="211" y="-838.5" font-family="Helvetica,sans-Serif" font-size="10.00">+ performMove()</text>
</a>
</g>
</g>
<!-- Node3&#45;&gt;Node2 -->
<g id="edge1" class="edge"><title>Node3&#45;&gt;Node2</title>
<path fill="none" stroke="midnightblue" d="M255.555,-821.124C262.687,-784.64 272.243,-735.759 278.507,-703.716"/>
<polygon fill="none" stroke="midnightblue" points="252.096,-820.575 253.612,-831.061 258.966,-821.918 252.096,-820.575"/>
</g>
<!-- Node7 -->
<g id="node6" class="node"><title>Node7</title>
<g id="a_node6"><a xlink:href="class_special_move.html" target="_top" xlink:title="Special move abstract base class that expands upon CharacterMove, adding magic properties ...">
<polygon fill="none" stroke="black" points="432,-624.5 432,-714.5 530,-714.5 530,-624.5 432,-624.5"/>
<text text-anchor="middle" x="481" y="-702.5" font-family="Helvetica,sans-Serif" font-size="10.00">SpecialMove</text>
<polyline fill="none" stroke="black" points="432,-695.5 530,-695.5 "/>
<text text-anchor="start" x="440" y="-683.5" font-family="Helvetica,sans-Serif" font-size="10.00">+ Magic</text>
<text text-anchor="start" x="440" y="-672.5" font-family="Helvetica,sans-Serif" font-size="10.00">+ Desc</text>
<polyline fill="none" stroke="black" points="432,-665.5 530,-665.5 "/>
<text text-anchor="start" x="440" y="-653.5" font-family="Helvetica,sans-Serif" font-size="10.00">+ setUp()</text>
<text text-anchor="start" x="440" y="-642.5" font-family="Helvetica,sans-Serif" font-size="10.00">+ decreaseMagic()</text>
<text text-anchor="start" x="440" y="-631.5" font-family="Helvetica,sans-Serif" font-size="10.00"># SpecialMove()</text>
</a>
</g>
</g>
<!-- Node3&#45;&gt;Node7 -->
<g id="edge7" class="edge"><title>Node3&#45;&gt;Node7</title>
<path fill="none" stroke="midnightblue" d="M279.966,-823.268C303.323,-793.949 336.609,-757.242 373,-733 392.309,-720.137 401.63,-726.105 422,-715 425.267,-713.219 428.551,-711.271 431.805,-709.215"/>
<polygon fill="none" stroke="midnightblue" points="277.064,-821.296 273.647,-831.324 282.572,-825.616 277.064,-821.296"/>
</g>
<!-- Node4 -->
<g id="node3" class="node"><title>Node4</title>
<polygon fill="none" stroke="#bfbfbf" points="225.5,-969.5 225.5,-1026.5 266.5,-1026.5 266.5,-969.5 225.5,-969.5"/>
<text text-anchor="middle" x="246" y="-1014.5" font-family="Helvetica,sans-Serif" font-size="10.00">string</text>
<polyline fill="none" stroke="#bfbfbf" points="225.5,-1007.5 266.5,-1007.5 "/>
<text text-anchor="middle" x="246" y="-995.5" font-family="Helvetica,sans-Serif" font-size="10.00"> </text>
<polyline fill="none" stroke="#bfbfbf" points="225.5,-988.5 266.5,-988.5 "/>
<text text-anchor="middle" x="246" y="-976.5" font-family="Helvetica,sans-Serif" font-size="10.00"> </text>
</g>
<!-- Node4&#45;&gt;Node3 -->
<g id="edge2" class="edge"><title>Node4&#45;&gt;Node3</title>
<path fill="none" stroke="#404040" d="M246,-969.258C246,-955.637 246,-938.787 246,-922.96"/>
<polygon fill="none" stroke="#404040" points="246,-922.567 242,-916.567 246,-910.567 250,-916.567 246,-922.567"/>
<text text-anchor="middle" x="258.5" y="-937.5" font-family="Helvetica,sans-Serif" font-size="10.00"> #text</text>
</g>
<!-- Node5 -->
<g id="node4" class="node"><title>Node5</title>
<g id="a_node4"><a xlink:href="class_character.html" target="_top" xlink:title="Base abstract class for Enemy and Player to inherit from. Defines all shared variables, their constructor and their setters and getters ">
<polygon fill="none" stroke="black" points="433.5,-387.5 433.5,-565.5 528.5,-565.5 528.5,-387.5 433.5,-387.5"/>
<text text-anchor="middle" x="481" y="-553.5" font-family="Helvetica,sans-Serif" font-size="10.00">Character</text>
<polyline fill="none" stroke="black" points="433.5,-546.5 528.5,-546.5 "/>
<text text-anchor="start" x="441.5" y="-534.5" font-family="Helvetica,sans-Serif" font-size="10.00">+ Name</text>
<text text-anchor="start" x="441.5" y="-523.5" font-family="Helvetica,sans-Serif" font-size="10.00">+ Level</text>
<text text-anchor="start" x="441.5" y="-512.5" font-family="Helvetica,sans-Serif" font-size="10.00">+ Health</text>
<text text-anchor="start" x="441.5" y="-501.5" font-family="Helvetica,sans-Serif" font-size="10.00">+ Attack</text>
<text text-anchor="start" x="441.5" y="-490.5" font-family="Helvetica,sans-Serif" font-size="10.00">+ Defence</text>
<text text-anchor="start" x="441.5" y="-479.5" font-family="Helvetica,sans-Serif" font-size="10.00">+ MaximumMagic</text>
<text text-anchor="start" x="441.5" y="-468.5" font-family="Helvetica,sans-Serif" font-size="10.00">+ Magic</text>
<text text-anchor="start" x="441.5" y="-457.5" font-family="Helvetica,sans-Serif" font-size="10.00">+ Luck</text>
<text text-anchor="start" x="441.5" y="-446.5" font-family="Helvetica,sans-Serif" font-size="10.00">+ Speed</text>
<text text-anchor="start" x="441.5" y="-435.5" font-family="Helvetica,sans-Serif" font-size="10.00">+ Special1</text>
<text text-anchor="start" x="441.5" y="-424.5" font-family="Helvetica,sans-Serif" font-size="10.00">+ Special2</text>
<text text-anchor="start" x="441.5" y="-413.5" font-family="Helvetica,sans-Serif" font-size="10.00">+ Image</text>
<polyline fill="none" stroke="black" points="433.5,-406.5 528.5,-406.5 "/>
<text text-anchor="start" x="441.5" y="-394.5" font-family="Helvetica,sans-Serif" font-size="10.00"># Character()</text>
</a>
</g>
</g>
<!-- Node4&#45;&gt;Node5 -->
<g id="edge4" class="edge"><title>Node4&#45;&gt;Node5</title>
<path fill="none" stroke="#404040" d="M225.443,-970.891C200.157,-936.867 158.767,-874.437 144,-813 124.154,-730.435 135.257,-700.556 172,-624 216.896,-530.455 344.509,-496.356 420.972,-484.134"/>
<polygon fill="none" stroke="#404040" points="421.377,-484.074 426.716,-479.226 433.244,-482.29 427.905,-487.138 421.377,-484.074"/>
<text text-anchor="middle" x="160.5" y="-770.5" font-family="Helvetica,sans-Serif" font-size="10.00"> #name</text>
</g>
<!-- Node4&#45;&gt;Node7 -->
<g id="edge8" class="edge"><title>Node4&#45;&gt;Node7</title>
<path fill="none" stroke="#404040" d="M263.655,-969.377C267.442,-963.347 271.389,-956.98 275,-951 276.808,-948.006 398.705,-735.639 401,-733 403.259,-730.403 411.588,-723.571 422.073,-715.331"/>
<polygon fill="none" stroke="#404040" points="422.277,-715.172 424.552,-708.33 431.743,-707.798 429.468,-714.641 422.277,-715.172"/>
<text text-anchor="middle" x="360" y="-868.5" font-family="Helvetica,sans-Serif" font-size="10.00"> #desc</text>
</g>
<!-- Node9 -->
<g id="node8" class="node"><title>Node9</title>
<g id="a_node8"><a xlink:href="class_battle_manager.html" target="_top" xlink:title="Holds current Player and Enemy objects in battle and provides functions for MainBattle and other obje...">
<polygon fill="none" stroke="black" points="551,-0.5 551,-189.5 667,-189.5 667,-0.5 551,-0.5"/>
<text text-anchor="middle" x="609" y="-177.5" font-family="Helvetica,sans-Serif" font-size="10.00">BattleManager</text>
<polyline fill="none" stroke="black" points="551,-170.5 667,-170.5 "/>
<text text-anchor="start" x="559" y="-158.5" font-family="Helvetica,sans-Serif" font-size="10.00">+ Player</text>
<text text-anchor="start" x="559" y="-147.5" font-family="Helvetica,sans-Serif" font-size="10.00">+ Enemy</text>
<text text-anchor="start" x="559" y="-136.5" font-family="Helvetica,sans-Serif" font-size="10.00">+ WasCriticalHit</text>
<polyline fill="none" stroke="black" points="551,-129.5 667,-129.5 "/>
<text text-anchor="start" x="559" y="-117.5" font-family="Helvetica,sans-Serif" font-size="10.00">+ BattleManager()</text>
<text text-anchor="start" x="559" y="-106.5" font-family="Helvetica,sans-Serif" font-size="10.00">+ playerFirst()</text>
<text text-anchor="start" x="559" y="-95.5" font-family="Helvetica,sans-Serif" font-size="10.00">+ switchPlayers()</text>
<text text-anchor="start" x="559" y="-84.5" font-family="Helvetica,sans-Serif" font-size="10.00">+ isCriticalHit()</text>
<text text-anchor="start" x="559" y="-73.5" font-family="Helvetica,sans-Serif" font-size="10.00">+ ranAway()</text>
<text text-anchor="start" x="559" y="-62.5" font-family="Helvetica,sans-Serif" font-size="10.00">+ damageCalculation()</text>
<text text-anchor="start" x="559" y="-51.5" font-family="Helvetica,sans-Serif" font-size="10.00">+ enemyMove()</text>
<text text-anchor="start" x="559" y="-40.5" font-family="Helvetica,sans-Serif" font-size="10.00">+ enemySpecialMove()</text>
<text text-anchor="start" x="559" y="-29.5" font-family="Helvetica,sans-Serif" font-size="10.00">+ battleWon()</text>
<text text-anchor="start" x="559" y="-18.5" font-family="Helvetica,sans-Serif" font-size="10.00">+ playerFainted()</text>
<text text-anchor="start" x="559" y="-7.5" font-family="Helvetica,sans-Serif" font-size="10.00">&#45; characterFainted()</text>
</a>
</g>
</g>
<!-- Node4&#45;&gt;Node9 -->
<g id="edge12" class="edge"><title>Node4&#45;&gt;Node9</title>
<path fill="none" stroke="#404040" d="M225.449,-996.114C166.326,-992.361 0,-972.841 0,-872 0,-872 0,-872 0,-292.5 0,-180.367 378.672,-122.894 538.821,-103.602"/>
<polygon fill="none" stroke="#404040" points="538.966,-103.584 544.453,-98.9056 550.882,-102.171 545.395,-106.85 538.966,-103.584"/>
<text text-anchor="middle" x="42" y="-598" font-family="Helvetica,sans-Serif" font-size="10.00"> +forceEnemyMove</text>
<text text-anchor="middle" x="42" y="-587" font-family="Helvetica,sans-Serif" font-size="10.00">+forceCriticalHits</text>
</g>
<!-- Node13 -->
<g id="node12" class="node"><title>Node13</title>
<g id="a_node12"><a xlink:href="class_item.html" target="_top" xlink:title="Abstract class for items that can be equipped to a player, increasing some of their stats ...">
<polygon fill="none" stroke="black" points="782.5,-733.5 782.5,-812.5 859.5,-812.5 859.5,-733.5 782.5,-733.5"/>
<text text-anchor="middle" x="821" y="-800.5" font-family="Helvetica,sans-Serif" font-size="10.00">Item</text>
<polyline fill="none" stroke="black" points="782.5,-793.5 859.5,-793.5 "/>
<text text-anchor="start" x="790.5" y="-781.5" font-family="Helvetica,sans-Serif" font-size="10.00">+ Name</text>
<text text-anchor="start" x="790.5" y="-770.5" font-family="Helvetica,sans-Serif" font-size="10.00">+ Desc</text>
<polyline fill="none" stroke="black" points="782.5,-763.5 859.5,-763.5 "/>
<text text-anchor="start" x="790.5" y="-751.5" font-family="Helvetica,sans-Serif" font-size="10.00">+ applyBuffs()</text>
<text text-anchor="start" x="790.5" y="-740.5" font-family="Helvetica,sans-Serif" font-size="10.00">+ revertBuffs()</text>
</a>
</g>
</g>
<!-- Node4&#45;&gt;Node13 -->
<g id="edge21" class="edge"><title>Node4&#45;&gt;Node13</title>
<path fill="none" stroke="#404040" d="M266.557,-995.403C326.509,-990.15 505.423,-970.213 640,-911 689.954,-889.021 738.827,-850.732 773.171,-820.21"/>
<polygon fill="none" stroke="#404040" points="773.553,-819.866 775.328,-812.877 782.462,-811.828 780.687,-818.817 773.553,-819.866"/>
<text text-anchor="middle" x="605" y="-943" font-family="Helvetica,sans-Serif" font-size="10.00"> #desc</text>
<text text-anchor="middle" x="605" y="-932" font-family="Helvetica,sans-Serif" font-size="10.00">#name</text>
</g>
<!-- Node5&#45;&gt;Node3 -->
<g id="edge3" class="edge"><title>Node5&#45;&gt;Node3</title>
<path fill="none" stroke="#404040" d="M433.441,-485.818C366.006,-500.449 244.921,-537.842 192,-624 154.611,-684.872 186.939,-768.242 215.226,-820.601"/>
<polygon fill="none" stroke="#404040" points="215.337,-820.8 221.75,-824.096 221.175,-831.284 214.761,-827.988 215.337,-820.8"/>
<text text-anchor="middle" x="209" y="-672.5" font-family="Helvetica,sans-Serif" font-size="10.00"> #target</text>
<text text-anchor="middle" x="209" y="-661.5" font-family="Helvetica,sans-Serif" font-size="10.00">#user</text>
</g>
<!-- Node10 -->
<g id="node9" class="node"><title>Node10</title>
<g id="a_node9"><a xlink:href="class_enemy.html" target="_top" xlink:title="Defines an AI controller enemy to fight in battle scenes">
<polygon fill="none" stroke="black" points="527.5,-265 527.5,-322 594.5,-322 594.5,-265 527.5,-265"/>
<text text-anchor="middle" x="561" y="-310" font-family="Helvetica,sans-Serif" font-size="10.00">Enemy</text>
<polyline fill="none" stroke="black" points="527.5,-303 594.5,-303 "/>
<text text-anchor="start" x="535.5" y="-291" font-family="Helvetica,sans-Serif" font-size="10.00">+ ExpGiven</text>
<polyline fill="none" stroke="black" points="527.5,-284 594.5,-284 "/>
<text text-anchor="start" x="535.5" y="-272" font-family="Helvetica,sans-Serif" font-size="10.00">+ Enemy()</text>
</a>
</g>
</g>
<!-- Node5&#45;&gt;Node10 -->
<g id="edge14" class="edge"><title>Node5&#45;&gt;Node10</title>
<path fill="none" stroke="midnightblue" d="M524.001,-378.21C533.119,-357.581 542.028,-337.424 548.818,-322.061"/>
<polygon fill="none" stroke="midnightblue" points="520.787,-376.825 519.945,-387.386 527.189,-379.654 520.787,-376.825"/>
</g>
<!-- Node12 -->
<g id="node11" class="node"><title>Node12</title>
<g id="a_node11"><a xlink:href="class_player.html" target="_top" xlink:title="Defines a playable character for use in battle scenes">
<polygon fill="none" stroke="black" points="613,-237.5 613,-349.5 725,-349.5 725,-237.5 613,-237.5"/>
<text text-anchor="middle" x="669" y="-337.5" font-family="Helvetica,sans-Serif" font-size="10.00">Player</text>
<polyline fill="none" stroke="black" points="613,-330.5 725,-330.5 "/>
<text text-anchor="start" x="621" y="-318.5" font-family="Helvetica,sans-Serif" font-size="10.00">+ Exp</text>
<text text-anchor="start" x="621" y="-307.5" font-family="Helvetica,sans-Serif" font-size="10.00">+ Item</text>
<text text-anchor="start" x="621" y="-296.5" font-family="Helvetica,sans-Serif" font-size="10.00">+ ExpToNextLevel</text>
<polyline fill="none" stroke="black" points="613,-289.5 725,-289.5 "/>
<text text-anchor="start" x="621" y="-277.5" font-family="Helvetica,sans-Serif" font-size="10.00">+ Player()</text>
<text text-anchor="start" x="621" y="-266.5" font-family="Helvetica,sans-Serif" font-size="10.00">+ gainExp()</text>
<text text-anchor="start" x="621" y="-255.5" font-family="Helvetica,sans-Serif" font-size="10.00">+ levelUp()</text>
<text text-anchor="start" x="621" y="-244.5" font-family="Helvetica,sans-Serif" font-size="10.00">&#45; setExpToNextLevel()</text>
</a>
</g>
</g>
<!-- Node5&#45;&gt;Node12 -->
<g id="edge19" class="edge"><title>Node5&#45;&gt;Node12</title>
<path fill="none" stroke="midnightblue" d="M536.267,-422.291C560.375,-399.08 588.603,-371.904 612.814,-348.594"/>
<polygon fill="none" stroke="midnightblue" points="533.703,-419.901 528.927,-429.358 538.558,-424.943 533.703,-419.901"/>
</g>
<!-- Node6 -->
<g id="node5" class="node"><title>Node6</title>
<polygon fill="none" stroke="#bfbfbf" points="602.5,-842.5 602.5,-899.5 631.5,-899.5 631.5,-842.5 602.5,-842.5"/>
<text text-anchor="middle" x="617" y="-887.5" font-family="Helvetica,sans-Serif" font-size="10.00">int</text>
<polyline fill="none" stroke="#bfbfbf" points="602.5,-880.5 631.5,-880.5 "/>
<text text-anchor="middle" x="617" y="-868.5" font-family="Helvetica,sans-Serif" font-size="10.00"> </text>
<polyline fill="none" stroke="#bfbfbf" points="602.5,-861.5 631.5,-861.5 "/>
<text text-anchor="middle" x="617" y="-849.5" font-family="Helvetica,sans-Serif" font-size="10.00"> </text>
</g>
<!-- Node6&#45;&gt;Node2 -->
<g id="edge23" class="edge"><title>Node6&#45;&gt;Node2</title>
<path fill="none" stroke="#404040" d="M602.459,-866.965C572.6,-860.324 502.827,-842.679 451,-813 403.248,-785.655 356.378,-743.621 324.686,-712.282"/>
<polygon fill="none" stroke="#404040" points="324.642,-712.238 317.572,-710.819 316.162,-703.747 323.232,-705.166 324.642,-712.238"/>
<text text-anchor="middle" x="467" y="-770.5" font-family="Helvetica,sans-Serif" font-size="10.00"> &#45;power</text>
</g>
<!-- Node6&#45;&gt;Node5 -->
<g id="edge5" class="edge"><title>Node6&#45;&gt;Node5</title>
<path fill="none" stroke="#404040" d="M609.94,-842.375C596.478,-790.852 565.314,-676.901 530,-584 529.11,-581.659 528.193,-579.297 527.252,-576.922"/>
<polygon fill="none" stroke="#404040" points="527.223,-576.849 521.257,-572.798 522.701,-565.733 528.667,-569.784 527.223,-576.849"/>
<text text-anchor="middle" x="611.5" y="-705.5" font-family="Helvetica,sans-Serif" font-size="10.00"> #speed</text>
<text text-anchor="middle" x="611.5" y="-694.5" font-family="Helvetica,sans-Serif" font-size="10.00">#luck</text>
<text text-anchor="middle" x="611.5" y="-683.5" font-family="Helvetica,sans-Serif" font-size="10.00">#health</text>
<text text-anchor="middle" x="611.5" y="-672.5" font-family="Helvetica,sans-Serif" font-size="10.00">#magic</text>
<text text-anchor="middle" x="611.5" y="-661.5" font-family="Helvetica,sans-Serif" font-size="10.00">#maximumMagic</text>
<text text-anchor="middle" x="611.5" y="-650.5" font-family="Helvetica,sans-Serif" font-size="10.00">#attack</text>
<text text-anchor="middle" x="611.5" y="-639.5" font-family="Helvetica,sans-Serif" font-size="10.00">#defence</text>
<text text-anchor="middle" x="611.5" y="-628.5" font-family="Helvetica,sans-Serif" font-size="10.00">#level</text>
</g>
<!-- Node6&#45;&gt;Node7 -->
<g id="edge9" class="edge"><title>Node6&#45;&gt;Node7</title>
<path fill="none" stroke="#404040" d="M602.282,-865.722C580.27,-858.547 539.013,-841.951 517,-813 498.232,-788.317 489.171,-754.959 484.829,-726.723"/>
<polygon fill="none" stroke="#404040" points="484.794,-726.462 480.03,-721.049 483.195,-714.569 487.959,-719.983 484.794,-726.462"/>
<text text-anchor="middle" x="534.5" y="-770.5" font-family="Helvetica,sans-Serif" font-size="10.00"> #magic</text>
</g>
<!-- Node6&#45;&gt;Node9 -->
<g id="edge16" class="edge"><title>Node6&#45;&gt;Node9</title>
<path fill="none" stroke="#404040" d="M626.704,-842.206C629.189,-837.982 632.251,-834.029 636,-831 661.992,-809.998 682.453,-833.295 709,-813 750.805,-781.04 810.8,-656.94 824,-606 868.533,-434.143 883.313,-359.032 790,-208 764.666,-166.996 718.162,-138.701 678.636,-120.809"/>
<polygon fill="none" stroke="#404040" points="678.43,-120.719 671.332,-121.989 667.43,-115.924 674.528,-114.655 678.43,-120.719"/>
<text text-anchor="middle" x="877.5" y="-474" font-family="Helvetica,sans-Serif" font-size="10.00"> +money</text>
</g>
<!-- Node6&#45;&gt;Node10 -->
<g id="edge15" class="edge"><title>Node6&#45;&gt;Node10</title>
<path fill="none" stroke="#404040" d="M625.445,-842.335C634.355,-811.586 647.81,-760.286 653,-715 669.321,-572.584 609.53,-407.502 578.525,-333.681"/>
<polygon fill="none" stroke="#404040" points="578.344,-333.257 572.309,-329.309 573.632,-322.221 579.667,-326.168 578.344,-333.257"/>
<text text-anchor="middle" x="676" y="-592.5" font-family="Helvetica,sans-Serif" font-size="10.00"> &#45;expGiven</text>
</g>
<!-- Node6&#45;&gt;Node12 -->
<g id="edge22" class="edge"><title>Node6&#45;&gt;Node12</title>
<path fill="none" stroke="#404040" d="M627.264,-842.189C629.667,-838.068 632.557,-834.154 636,-831 652.494,-815.891 670.234,-831.368 683,-813 732.424,-741.885 699.676,-484.929 680.334,-361.54"/>
<polygon fill="none" stroke="#404040" points="680.331,-361.522 675.44,-356.223 678.45,-349.67 683.341,-354.969 680.331,-361.522"/>
<text text-anchor="middle" x="745.5" y="-598" font-family="Helvetica,sans-Serif" font-size="10.00"> &#45;expToNextLevel</text>
<text text-anchor="middle" x="745.5" y="-587" font-family="Helvetica,sans-Serif" font-size="10.00">&#45;exp</text>
</g>
<!-- Node7&#45;&gt;Node5 -->
<g id="edge6" class="edge"><title>Node7&#45;&gt;Node5</title>
<path fill="none" stroke="#404040" d="M481,-624.201C481,-610.238 481,-594.202 481,-577.973"/>
<polygon fill="none" stroke="#404040" points="481,-577.557 477,-571.557 481,-565.557 485,-571.557 481,-577.557"/>
<text text-anchor="middle" x="503.5" y="-598" font-family="Helvetica,sans-Serif" font-size="10.00"> #special1</text>
<text text-anchor="middle" x="503.5" y="-587" font-family="Helvetica,sans-Serif" font-size="10.00">#special2</text>
</g>
<!-- Node8 -->
<g id="node7" class="node"><title>Node8</title>
<polygon fill="none" stroke="#bfbfbf" points="352.5,-641 352.5,-698 413.5,-698 413.5,-641 352.5,-641"/>
<text text-anchor="middle" x="383" y="-686" font-family="Helvetica,sans-Serif" font-size="10.00">Texture2D</text>
<polyline fill="none" stroke="#bfbfbf" points="352.5,-679 413.5,-679 "/>
<text text-anchor="middle" x="383" y="-667" font-family="Helvetica,sans-Serif" font-size="10.00"> </text>
<polyline fill="none" stroke="#bfbfbf" points="352.5,-660 413.5,-660 "/>
<text text-anchor="middle" x="383" y="-648" font-family="Helvetica,sans-Serif" font-size="10.00"> </text>
</g>
<!-- Node8&#45;&gt;Node5 -->
<g id="edge10" class="edge"><title>Node8&#45;&gt;Node5</title>
<path fill="none" stroke="#404040" d="M397.25,-640.727C406.089,-623.5 418.036,-600.216 430.134,-576.636"/>
<polygon fill="none" stroke="#404040" points="430.215,-576.478 429.395,-569.314 435.693,-565.802 436.513,-572.966 430.215,-576.478"/>
<text text-anchor="middle" x="444.5" y="-592.5" font-family="Helvetica,sans-Serif" font-size="10.00"> #image</text>
</g>
<!-- Node9&#45;&gt;Node3 -->
<g id="edge11" class="edge"><title>Node9&#45;&gt;Node3</title>
<path fill="none" stroke="#404040" d="M550.993,-105.66C417.322,-129.559 99,-196.546 99,-292.5 99,-670.5 99,-670.5 99,-670.5 99,-735.411 90.9073,-761.951 131,-813 146.167,-832.311 169.584,-845.559 191.34,-854.385"/>
<polygon fill="none" stroke="#404040" points="191.622,-854.491 198.648,-852.865 202.851,-858.725 195.825,-860.351 191.622,-854.491"/>
<text text-anchor="middle" x="122" y="-474" font-family="Helvetica,sans-Serif" font-size="10.00"> #manager</text>
</g>
<!-- Node10&#45;&gt;Node9 -->
<g id="edge13" class="edge"><title>Node10&#45;&gt;Node9</title>
<path fill="none" stroke="#404040" d="M567.775,-264.763C571.909,-247.839 577.485,-225.016 583.197,-201.632"/>
<polygon fill="none" stroke="#404040" points="583.25,-201.414 580.788,-194.637 586.097,-189.757 588.559,-196.535 583.25,-201.414"/>
<text text-anchor="middle" x="599" y="-211" font-family="Helvetica,sans-Serif" font-size="10.00"> &#45;enemy</text>
</g>
<!-- Node11 -->
<g id="node10" class="node"><title>Node11</title>
<polygon fill="none" stroke="#bfbfbf" points="743.5,-265 743.5,-322 778.5,-322 778.5,-265 743.5,-265"/>
<text text-anchor="middle" x="761" y="-310" font-family="Helvetica,sans-Serif" font-size="10.00">bool</text>
<polyline fill="none" stroke="#bfbfbf" points="743.5,-303 778.5,-303 "/>
<text text-anchor="middle" x="761" y="-291" font-family="Helvetica,sans-Serif" font-size="10.00"> </text>
<polyline fill="none" stroke="#bfbfbf" points="743.5,-284 778.5,-284 "/>
<text text-anchor="middle" x="761" y="-272" font-family="Helvetica,sans-Serif" font-size="10.00"> </text>
</g>
<!-- Node11&#45;&gt;Node9 -->
<g id="edge17" class="edge"><title>Node11&#45;&gt;Node9</title>
<path fill="none" stroke="#404040" d="M749.374,-264.867C745.049,-255.703 739.774,-245.642 734,-237 716.988,-211.54 695.705,-185.847 675.549,-163.496"/>
<polygon fill="none" stroke="#404040" points="675.387,-163.319 668.387,-161.586 667.296,-154.458 674.295,-156.191 675.387,-163.319"/>
<text text-anchor="middle" x="753" y="-211" font-family="Helvetica,sans-Serif" font-size="10.00"> &#45;wasCriticalHit</text>
</g>
<!-- Node12&#45;&gt;Node9 -->
<g id="edge18" class="edge"><title>Node12&#45;&gt;Node9</title>
<path fill="none" stroke="#404040" d="M652.127,-237.241C648.651,-225.856 644.881,-213.511 641.067,-201.02"/>
<polygon fill="none" stroke="#404040" points="641.063,-201.007 635.485,-196.437 637.559,-189.53 643.137,-194.101 641.063,-201.007"/>
<text text-anchor="middle" x="663.5" y="-211" font-family="Helvetica,sans-Serif" font-size="10.00"> &#45;player</text>
</g>
<!-- Node13&#45;&gt;Node12 -->
<g id="edge20" class="edge"><title>Node13&#45;&gt;Node12</title>
<path fill="none" stroke="#404040" d="M816.779,-733.482C807.545,-659.498 781.359,-493.714 721,-368 719.773,-365.444 718.458,-362.881 717.075,-360.325"/>
<polygon fill="none" stroke="#404040" points="717.051,-360.283 710.587,-357.088 711.05,-349.892 717.514,-353.087 717.051,-360.283"/>
<text text-anchor="middle" x="807.5" y="-592.5" font-family="Helvetica,sans-Serif" font-size="10.00"> &#45;item</text>
</g>
</g>
</svg>
        <g id="navigator" transform="translate(0 0)" fill="#404254">
                <rect fill="#f2f5e9" fill-opacity="0.5" stroke="#606060" stroke-width=".5" x="0" y="0" width="60" height="60"/>
                <use id="zoomplus" xlink:href="#zoomPlus" x="17" y="9" onmousedown="handleZoom(evt,'in')"/>
                <use id="zoomminus" xlink:href="#zoomMin" x="42" y="9" onmousedown="handleZoom(evt,'out')"/>
                <use id="reset" xlink:href="#resetDef" x="30" y="36" onmousedown="handleReset()"/>
                <g id="arrowUp" xlink:href="#dirArrow" transform="translate(30 24)" onmousedown="handlePan(0,-1)">
                  <use xlink:href="#rim" fill="#404040">
                        <set attributeName="fill" to="#808080" begin="arrowUp.mouseover" end="arrowUp.mouseout"/>
                  </use>
                  <path fill="none" stroke="white" stroke-width="1.5" d="M0,-3.0v7 M-2.5,-0.5L0,-3.0L2.5,-0.5"/>
                </g>
                <g id="arrowRight" xlink:href="#dirArrow" transform="rotate(90) translate(36 -43)" onmousedown="handlePan(1,0)">
                  <use xlink:href="#rim" fill="#404040">
                        <set attributeName="fill" to="#808080" begin="arrowRight.mouseover" end="arrowRight.mouseout"/>
                  </use>
                  <path fill="none" stroke="white" stroke-width="1.5" d="M0,-3.0v7 M-2.5,-0.5L0,-3.0L2.5,-0.5"/>
                </g>
                <g id="arrowDown" xlink:href="#dirArrow" transform="rotate(180) translate(-30 -48)" onmousedown="handlePan(0,1)">
                  <use xlink:href="#rim" fill="#404040">
                        <set attributeName="fill" to="#808080" begin="arrowDown.mouseover" end="arrowDown.mouseout"/>
                  </use>
                  <path fill="none" stroke="white" stroke-width="1.5" d="M0,-3.0v7 M-2.5,-0.5L0,-3.0L2.5,-0.5"/>
                </g>
                <g id="arrowLeft" xlink:href="#dirArrow" transform="rotate(270) translate(-36 17)" onmousedown="handlePan(-1,0)">
                  <use xlink:href="#rim" fill="#404040">
                        <set attributeName="fill" to="#808080" begin="arrowLeft.mouseover" end="arrowLeft.mouseout"/>
                  </use>
                  <path fill="none" stroke="white" stroke-width="1.5" d="M0,-3.0v7 M-2.5,-0.5L0,-3.0L2.5,-0.5"/>
                </g>
        </g>
        <svg viewBox="0 0 15 15" width="100%" height="30px" preserveAspectRatio="xMaxYMin meet">
         <g id="arrow_out" transform="scale(0.3 0.3)">
          <a xlink:href="class_standard_attack__coll__graph_org.svg" target="_base">
           <rect id="button" ry="5" rx="5" y="6" x="6" height="38" width="38"
                fill="#f2f5e9" fill-opacity="0.5" stroke="#606060" stroke-width="1.0"/>
           <path id="arrow"
             d="M 11.500037,31.436501 C 11.940474,20.09759 22.043105,11.32322 32.158766,21.979434 L 37.068811,17.246167 C 37.068811,17.246167 37.088388,32 37.088388,32 L 22.160133,31.978069 C 22.160133,31.978069 26.997745,27.140456 26.997745,27.140456 C 18.528582,18.264221 13.291696,25.230495 11.500037,31.436501 z"
             style="fill:#404040;"/>
          </a>
         </g>
        </svg>
</svg>
