<?xml version="1.0" encoding="UTF-8" standalone="no"?>
<!DOCTYPE svg PUBLIC "-//W3C//DTD SVG 1.1//EN"
 "http://www.w3.org/Graphics/SVG/1.1/DTD/svg11.dtd">
<!-- Generated by graphviz version 2.38.0 (20140413.2041)
 -->
<!-- Title: SoundManager Pages: 1 -->
<svg width="91pt" height="226pt"
 viewBox="0.00 0.00 91.00 226.00" xmlns="http://www.w3.org/2000/svg" xmlns:xlink="http://www.w3.org/1999/xlink">
<g id="graph0" class="graph" transform="scale(1 1) rotate(0) translate(4 222)">
<title>SoundManager</title>
<!-- Node0 -->
<g id="node1" class="node"><title>Node0</title>
<polygon fill="#bfbfbf" stroke="black" points="0.5,-0.5 0.5,-123.5 82.5,-123.5 82.5,-0.5 0.5,-0.5"/>
<text text-anchor="middle" x="41.5" y="-111.5" font-family="Helvetica,sans-Serif" font-size="10.00">SoundManager</text>
<polyline fill="none" stroke="black" points="0.5,-104.5 82.5,-104.5 "/>
<text text-anchor="start" x="8.5" y="-92.5" font-family="Helvetica,sans-Serif" font-size="10.00">+ BGMSource</text>
<text text-anchor="start" x="8.5" y="-81.5" font-family="Helvetica,sans-Serif" font-size="10.00">+ SFXSource</text>
<text text-anchor="start" x="8.5" y="-70.5" font-family="Helvetica,sans-Serif" font-size="10.00">+ instance</text>
<text text-anchor="start" x="8.5" y="-59.5" font-family="Helvetica,sans-Serif" font-size="10.00">&#45; soundEffects</text>
<polyline fill="none" stroke="black" points="0.5,-52.5 82.5,-52.5 "/>
<text text-anchor="start" x="8.5" y="-40.5" font-family="Helvetica,sans-Serif" font-size="10.00">+ playBGM()</text>
<text text-anchor="start" x="8.5" y="-29.5" font-family="Helvetica,sans-Serif" font-size="10.00">+ playSFX()</text>
<text text-anchor="start" x="8.5" y="-18.5" font-family="Helvetica,sans-Serif" font-size="10.00">+ soundOn()</text>
<text text-anchor="start" x="8.5" y="-7.5" font-family="Helvetica,sans-Serif" font-size="10.00">&#45; Awake()</text>
</g>
<!-- Node1 -->
<g id="node2" class="node"><title>Node1</title>
<g id="a_node2"><a xlink:href="class_mono_behaviour.html" target="_top" xlink:title="{MonoBehaviour\n||}">
<polygon fill="none" stroke="black" points="0,-160.5 0,-217.5 83,-217.5 83,-160.5 0,-160.5"/>
<text text-anchor="middle" x="41.5" y="-205.5" font-family="Helvetica,sans-Serif" font-size="10.00">MonoBehaviour</text>
<polyline fill="none" stroke="black" points="0,-198.5 83,-198.5 "/>
<text text-anchor="middle" x="41.5" y="-186.5" font-family="Helvetica,sans-Serif" font-size="10.00"> </text>
<polyline fill="none" stroke="black" points="0,-179.5 83,-179.5 "/>
<text text-anchor="middle" x="41.5" y="-167.5" font-family="Helvetica,sans-Serif" font-size="10.00"> </text>
</a>
</g>
</g>
<!-- Node1&#45;&gt;Node0 -->
<g id="edge1" class="edge"><title>Node1&#45;&gt;Node0</title>
<path fill="none" stroke="midnightblue" d="M41.5,-150.099C41.5,-141.739 41.5,-132.68 41.5,-123.672"/>
<polygon fill="none" stroke="midnightblue" points="38.0001,-150.258 41.5,-160.258 45.0001,-150.258 38.0001,-150.258"/>
</g>
</g>
</svg>
