<?xml version="1.0" encoding="UTF-8" standalone="no"?>
<!DOCTYPE svg PUBLIC "-//W3C//DTD SVG 1.1//EN"
 "http://www.w3.org/Graphics/SVG/1.1/DTD/svg11.dtd">
<!-- Generated by graphviz version 2.38.0 (20140413.2041)
 -->
<!-- Title: ContainerData Pages: 1 -->
<svg width="198pt" height="182pt"
 viewBox="0.00 0.00 197.50 182.00" xmlns="http://www.w3.org/2000/svg" xmlns:xlink="http://www.w3.org/1999/xlink">
<g id="graph0" class="graph" transform="scale(1 1) rotate(0) translate(4 178)">
<title>ContainerData</title>
<!-- Node2 -->
<g id="node1" class="node"><title>Node2</title>
<polygon fill="#bfbfbf" stroke="black" points="82.5,-0.5 82.5,-68.5 160.5,-68.5 160.5,-0.5 82.5,-0.5"/>
<text text-anchor="middle" x="121.5" y="-56.5" font-family="Helvetica,sans-Serif" font-size="10.00">ContainerData</text>
<polyline fill="none" stroke="black" points="82.5,-49.5 160.5,-49.5 "/>
<text text-anchor="start" x="90.5" y="-37.5" font-family="Helvetica,sans-Serif" font-size="10.00">+ Type</text>
<text text-anchor="start" x="90.5" y="-26.5" font-family="Helvetica,sans-Serif" font-size="10.00">+ Index</text>
<polyline fill="none" stroke="black" points="82.5,-19.5 160.5,-19.5 "/>
<text text-anchor="middle" x="121.5" y="-7.5" font-family="Helvetica,sans-Serif" font-size="10.00"> </text>
</g>
<!-- Node3 -->
<g id="node2" class="node"><title>Node3</title>
<g id="a_node2"><a xlink:href="class_mono_behaviour.html" target="_top" xlink:title="{MonoBehaviour\n||}">
<polygon fill="none" stroke="black" points="0,-116.5 0,-173.5 83,-173.5 83,-116.5 0,-116.5"/>
<text text-anchor="middle" x="41.5" y="-161.5" font-family="Helvetica,sans-Serif" font-size="10.00">MonoBehaviour</text>
<polyline fill="none" stroke="black" points="0,-154.5 83,-154.5 "/>
<text text-anchor="middle" x="41.5" y="-142.5" font-family="Helvetica,sans-Serif" font-size="10.00"> </text>
<polyline fill="none" stroke="black" points="0,-135.5 83,-135.5 "/>
<text text-anchor="middle" x="41.5" y="-123.5" font-family="Helvetica,sans-Serif" font-size="10.00"> </text>
</a>
</g>
</g>
<!-- Node3&#45;&gt;Node2 -->
<g id="edge1" class="edge"><title>Node3&#45;&gt;Node2</title>
<path fill="none" stroke="midnightblue" d="M67.9006,-108.194C77.3307,-95.4046 87.9055,-81.0625 97.1545,-68.5186"/>
<polygon fill="none" stroke="midnightblue" points="65.0119,-106.214 61.8944,-116.34 70.646,-110.369 65.0119,-106.214"/>
</g>
<!-- Node4 -->
<g id="node3" class="node"><title>Node4</title>
<polygon fill="none" stroke="#bfbfbf" points="101,-116.5 101,-173.5 142,-173.5 142,-116.5 101,-116.5"/>
<text text-anchor="middle" x="121.5" y="-161.5" font-family="Helvetica,sans-Serif" font-size="10.00">string</text>
<polyline fill="none" stroke="#bfbfbf" points="101,-154.5 142,-154.5 "/>
<text text-anchor="middle" x="121.5" y="-142.5" font-family="Helvetica,sans-Serif" font-size="10.00"> </text>
<polyline fill="none" stroke="#bfbfbf" points="101,-135.5 142,-135.5 "/>
<text text-anchor="middle" x="121.5" y="-123.5" font-family="Helvetica,sans-Serif" font-size="10.00"> </text>
</g>
<!-- Node4&#45;&gt;Node2 -->
<g id="edge2" class="edge"><title>Node4&#45;&gt;Node2</title>
<path fill="none" stroke="#404040" d="M121.5,-116.34C121.5,-105.529 121.5,-92.847 121.5,-80.7745"/>
<polygon fill="none" stroke="#404040" points="121.5,-80.5186 117.5,-74.5186 121.5,-68.5186 125.5,-74.5185 121.5,-80.5186"/>
<text text-anchor="middle" x="135.5" y="-90" font-family="Helvetica,sans-Serif" font-size="10.00"> +type</text>
</g>
<!-- Node5 -->
<g id="node4" class="node"><title>Node5</title>
<polygon fill="none" stroke="#bfbfbf" points="160,-116.5 160,-173.5 189,-173.5 189,-116.5 160,-116.5"/>
<text text-anchor="middle" x="174.5" y="-161.5" font-family="Helvetica,sans-Serif" font-size="10.00">int</text>
<polyline fill="none" stroke="#bfbfbf" points="160,-154.5 189,-154.5 "/>
<text text-anchor="middle" x="174.5" y="-142.5" font-family="Helvetica,sans-Serif" font-size="10.00"> </text>
<polyline fill="none" stroke="#bfbfbf" points="160,-135.5 189,-135.5 "/>
<text text-anchor="middle" x="174.5" y="-123.5" font-family="Helvetica,sans-Serif" font-size="10.00"> </text>
</g>
<!-- Node5&#45;&gt;Node2 -->
<g id="edge3" class="edge"><title>Node5&#45;&gt;Node2</title>
<path fill="none" stroke="#404040" d="M164.925,-116.334C161.364,-106.879 157.069,-96.3372 152.5,-87 151.242,-84.4296 149.898,-81.8189 148.501,-79.2061"/>
<polygon fill="none" stroke="#404040" points="148.399,-79.0235 141.978,-75.74 142.54,-68.5507 148.96,-71.8343 148.399,-79.0235"/>
<text text-anchor="middle" x="173" y="-90" font-family="Helvetica,sans-Serif" font-size="10.00"> +index</text>
</g>
</g>
</svg>
