<?xml version="1.0" encoding="UTF-8" standalone="no"?>
<!DOCTYPE svg PUBLIC "-//W3C//DTD SVG 1.1//EN"
 "http://www.w3.org/Graphics/SVG/1.1/DTD/svg11.dtd">
<!-- Generated by graphviz version 2.38.0 (20140413.2041)
 -->
<!-- Title: ObjectInteraction Pages: 1 -->
<svg width="111pt" height="270pt"
 viewBox="0.00 0.00 111.00 270.00" xmlns="http://www.w3.org/2000/svg" xmlns:xlink="http://www.w3.org/1999/xlink">
<g id="graph0" class="graph" transform="scale(1 1) rotate(0) translate(4 266)">
<title>ObjectInteraction</title>
<!-- Node0 -->
<g id="node1" class="node"><title>Node0</title>
<polygon fill="#bfbfbf" stroke="black" points="0,-0.5 0,-167.5 103,-167.5 103,-0.5 0,-0.5"/>
<text text-anchor="middle" x="51.5" y="-155.5" font-family="Helvetica,sans-Serif" font-size="10.00">ObjectInteraction</text>
<polyline fill="none" stroke="black" points="0,-148.5 103,-148.5 "/>
<text text-anchor="start" x="8" y="-136.5" font-family="Helvetica,sans-Serif" font-size="10.00">+ dialogue</text>
<text text-anchor="start" x="8" y="-125.5" font-family="Helvetica,sans-Serif" font-size="10.00">+ pseudoKeyPress</text>
<text text-anchor="start" x="8" y="-114.5" font-family="Helvetica,sans-Serif" font-size="10.00">+ treasure</text>
<text text-anchor="start" x="8" y="-103.5" font-family="Helvetica,sans-Serif" font-size="10.00">+ createBattle</text>
<text text-anchor="start" x="8" y="-92.5" font-family="Helvetica,sans-Serif" font-size="10.00">+ SFX</text>
<text text-anchor="start" x="8" y="-81.5" font-family="Helvetica,sans-Serif" font-size="10.00">&#45; dManager</text>
<text text-anchor="start" x="8" y="-70.5" font-family="Helvetica,sans-Serif" font-size="10.00">&#45; movementScript</text>
<text text-anchor="start" x="8" y="-59.5" font-family="Helvetica,sans-Serif" font-size="10.00">&#45; id</text>
<polyline fill="none" stroke="black" points="0,-52.5 103,-52.5 "/>
<text text-anchor="start" x="8" y="-40.5" font-family="Helvetica,sans-Serif" font-size="10.00">+ keyPressed()</text>
<text text-anchor="start" x="8" y="-29.5" font-family="Helvetica,sans-Serif" font-size="10.00">+ endOfDialogue()</text>
<text text-anchor="start" x="8" y="-18.5" font-family="Helvetica,sans-Serif" font-size="10.00">&#45; Start()</text>
<text text-anchor="start" x="8" y="-7.5" font-family="Helvetica,sans-Serif" font-size="10.00">&#45; OnTriggerStay2D()</text>
</g>
<!-- Node1 -->
<g id="node2" class="node"><title>Node1</title>
<g id="a_node2"><a xlink:href="class_mono_behaviour.html" target="_top" xlink:title="{MonoBehaviour\n||}">
<polygon fill="none" stroke="black" points="10,-204.5 10,-261.5 93,-261.5 93,-204.5 10,-204.5"/>
<text text-anchor="middle" x="51.5" y="-249.5" font-family="Helvetica,sans-Serif" font-size="10.00">MonoBehaviour</text>
<polyline fill="none" stroke="black" points="10,-242.5 93,-242.5 "/>
<text text-anchor="middle" x="51.5" y="-230.5" font-family="Helvetica,sans-Serif" font-size="10.00"> </text>
<polyline fill="none" stroke="black" points="10,-223.5 93,-223.5 "/>
<text text-anchor="middle" x="51.5" y="-211.5" font-family="Helvetica,sans-Serif" font-size="10.00"> </text>
</a>
</g>
</g>
<!-- Node1&#45;&gt;Node0 -->
<g id="edge1" class="edge"><title>Node1&#45;&gt;Node0</title>
<path fill="none" stroke="midnightblue" d="M51.5,-194.35C51.5,-186.08 51.5,-177.008 51.5,-167.738"/>
<polygon fill="none" stroke="midnightblue" points="48.0001,-194.35 51.5,-204.35 55.0001,-194.35 48.0001,-194.35"/>
</g>
</g>
</svg>
