<?xml version="1.0" encoding="UTF-8" standalone="no"?>
<!DOCTYPE svg PUBLIC "-//W3C//DTD SVG 1.1//EN"
 "http://www.w3.org/Graphics/SVG/1.1/DTD/svg11.dtd">
<!-- Generated by graphviz version 2.38.0 (20140413.2041)
 -->
<!-- Title: Portal Pages: 1 -->
<svg width="554pt" height="546pt"
 viewBox="0.00 0.00 553.50 546.00" xmlns="http://www.w3.org/2000/svg" xmlns:xlink="http://www.w3.org/1999/xlink">
<g id="graph0" class="graph" transform="scale(1 1) rotate(0) translate(4 542)">
<title>Portal</title>
<!-- Node2 -->
<g id="node1" class="node"><title>Node2</title>
<polygon fill="#bfbfbf" stroke="black" points="134.5,-0.5 134.5,-79.5 240.5,-79.5 240.5,-0.5 134.5,-0.5"/>
<text text-anchor="middle" x="187.5" y="-67.5" font-family="Helvetica,sans-Serif" font-size="10.00">Portal</text>
<polyline fill="none" stroke="black" points="134.5,-60.5 240.5,-60.5 "/>
<text text-anchor="middle" x="187.5" y="-48.5" font-family="Helvetica,sans-Serif" font-size="10.00"> </text>
<polyline fill="none" stroke="black" points="134.5,-41.5 240.5,-41.5 "/>
<text text-anchor="start" x="142.5" y="-29.5" font-family="Helvetica,sans-Serif" font-size="10.00">&#45; Start()</text>
<text text-anchor="start" x="142.5" y="-18.5" font-family="Helvetica,sans-Serif" font-size="10.00">&#45; Update()</text>
<text text-anchor="start" x="142.5" y="-7.5" font-family="Helvetica,sans-Serif" font-size="10.00">&#45; OnTriggerEnter2D()</text>
</g>
<!-- Node3 -->
<g id="node2" class="node"><title>Node3</title>
<g id="a_node2"><a xlink:href="class_mono_behaviour.html" target="_top" xlink:title="{MonoBehaviour\n||}">
<polygon fill="none" stroke="black" points="0,-480.5 0,-537.5 83,-537.5 83,-480.5 0,-480.5"/>
<text text-anchor="middle" x="41.5" y="-525.5" font-family="Helvetica,sans-Serif" font-size="10.00">MonoBehaviour</text>
<polyline fill="none" stroke="black" points="0,-518.5 83,-518.5 "/>
<text text-anchor="middle" x="41.5" y="-506.5" font-family="Helvetica,sans-Serif" font-size="10.00"> </text>
<polyline fill="none" stroke="black" points="0,-499.5 83,-499.5 "/>
<text text-anchor="middle" x="41.5" y="-487.5" font-family="Helvetica,sans-Serif" font-size="10.00"> </text>
</a>
</g>
</g>
<!-- Node3&#45;&gt;Node2 -->
<g id="edge1" class="edge"><title>Node3&#45;&gt;Node2</title>
<path fill="none" stroke="midnightblue" d="M31.8731,-470.327C15.6597,-398.241 -9.53099,-238.095 53.5,-127 71.0968,-95.9848 104.985,-74.3899 134.277,-60.5968"/>
<polygon fill="none" stroke="midnightblue" points="28.519,-471.357 34.1885,-480.307 35.3379,-469.775 28.519,-471.357"/>
</g>
<!-- Node5 -->
<g id="node4" class="node"><title>Node5</title>
<g id="a_node4"><a xlink:href="class_scene_changer.html" target="_top" xlink:title="{SceneChanger\n||+ loadLevel()\l+ loadLevel()\l+ changePosition()\l&#45; Awake()\l&#45; OnDisable()\l&#45; sceneChanged()\l&#45; Update()\l&#45; changeScene()\l}">
<polygon fill="none" stroke="black" points="138.5,-127.5 138.5,-261.5 236.5,-261.5 236.5,-127.5 138.5,-127.5"/>
<text text-anchor="middle" x="187.5" y="-249.5" font-family="Helvetica,sans-Serif" font-size="10.00">SceneChanger</text>
<polyline fill="none" stroke="black" points="138.5,-242.5 236.5,-242.5 "/>
<text text-anchor="middle" x="187.5" y="-230.5" font-family="Helvetica,sans-Serif" font-size="10.00"> </text>
<polyline fill="none" stroke="black" points="138.5,-223.5 236.5,-223.5 "/>
<text text-anchor="start" x="146.5" y="-211.5" font-family="Helvetica,sans-Serif" font-size="10.00">+ loadLevel()</text>
<text text-anchor="start" x="146.5" y="-200.5" font-family="Helvetica,sans-Serif" font-size="10.00">+ loadLevel()</text>
<text text-anchor="start" x="146.5" y="-189.5" font-family="Helvetica,sans-Serif" font-size="10.00">+ changePosition()</text>
<text text-anchor="start" x="146.5" y="-178.5" font-family="Helvetica,sans-Serif" font-size="10.00">&#45; Awake()</text>
<text text-anchor="start" x="146.5" y="-167.5" font-family="Helvetica,sans-Serif" font-size="10.00">&#45; OnDisable()</text>
<text text-anchor="start" x="146.5" y="-156.5" font-family="Helvetica,sans-Serif" font-size="10.00">&#45; sceneChanged()</text>
<text text-anchor="start" x="146.5" y="-145.5" font-family="Helvetica,sans-Serif" font-size="10.00">&#45; Update()</text>
<text text-anchor="start" x="146.5" y="-134.5" font-family="Helvetica,sans-Serif" font-size="10.00">&#45; changeScene()</text>
</a>
</g>
</g>
<!-- Node3&#45;&gt;Node5 -->
<g id="edge4" class="edge"><title>Node3&#45;&gt;Node5</title>
<path fill="none" stroke="midnightblue" d="M45.9369,-470.139C51.7207,-429.08 63.9991,-362.274 87.5,-309 93.8192,-294.675 96.8919,-291.515 107.5,-280 116.06,-270.708 120.427,-270.791 129.5,-262 132.47,-259.122 135.46,-256.111 138.43,-253.027"/>
<polygon fill="none" stroke="midnightblue" points="42.4413,-469.872 44.571,-480.251 49.3783,-470.809 42.4413,-469.872"/>
</g>
<!-- Node8 -->
<g id="node7" class="node"><title>Node8</title>
<g id="a_node7"><a xlink:href="class_player_movement.html" target="_top" xlink:title="{PlayerMovement\n||+ move()\l+ setCanMove()\l&#45; Start()\l&#45; FixedUpdate()\l&#45; walkAnimation()\l&#45; setIdle()\l}">
<polygon fill="none" stroke="black" points="257.5,-309.5 257.5,-421.5 349.5,-421.5 349.5,-309.5 257.5,-309.5"/>
<text text-anchor="middle" x="303.5" y="-409.5" font-family="Helvetica,sans-Serif" font-size="10.00">PlayerMovement</text>
<polyline fill="none" stroke="black" points="257.5,-402.5 349.5,-402.5 "/>
<text text-anchor="middle" x="303.5" y="-390.5" font-family="Helvetica,sans-Serif" font-size="10.00"> </text>
<polyline fill="none" stroke="black" points="257.5,-383.5 349.5,-383.5 "/>
<text text-anchor="start" x="265.5" y="-371.5" font-family="Helvetica,sans-Serif" font-size="10.00">+ move()</text>
<text text-anchor="start" x="265.5" y="-360.5" font-family="Helvetica,sans-Serif" font-size="10.00">+ setCanMove()</text>
<text text-anchor="start" x="265.5" y="-349.5" font-family="Helvetica,sans-Serif" font-size="10.00">&#45; Start()</text>
<text text-anchor="start" x="265.5" y="-338.5" font-family="Helvetica,sans-Serif" font-size="10.00">&#45; FixedUpdate()</text>
<text text-anchor="start" x="265.5" y="-327.5" font-family="Helvetica,sans-Serif" font-size="10.00">&#45; walkAnimation()</text>
<text text-anchor="start" x="265.5" y="-316.5" font-family="Helvetica,sans-Serif" font-size="10.00">&#45; setIdle()</text>
</a>
</g>
</g>
<!-- Node3&#45;&gt;Node8 -->
<g id="edge9" class="edge"><title>Node3&#45;&gt;Node8</title>
<path fill="none" stroke="midnightblue" d="M92.0827,-476.283C114.248,-463.506 140.982,-449.56 166.5,-440 201.034,-427.062 215.133,-439.674 247.5,-422 250.864,-420.163 254.162,-418.064 257.368,-415.783"/>
<polygon fill="none" stroke="midnightblue" points="90.0595,-473.412 83.1965,-481.484 93.5951,-479.453 90.0595,-473.412"/>
</g>
<!-- Node4 -->
<g id="node3" class="node"><title>Node4</title>
<polygon fill="none" stroke="#bfbfbf" points="62.5,-166 62.5,-223 120.5,-223 120.5,-166 62.5,-166"/>
<text text-anchor="middle" x="91.5" y="-211" font-family="Helvetica,sans-Serif" font-size="10.00">AudioClip</text>
<polyline fill="none" stroke="#bfbfbf" points="62.5,-204 120.5,-204 "/>
<text text-anchor="middle" x="91.5" y="-192" font-family="Helvetica,sans-Serif" font-size="10.00"> </text>
<polyline fill="none" stroke="#bfbfbf" points="62.5,-185 120.5,-185 "/>
<text text-anchor="middle" x="91.5" y="-173" font-family="Helvetica,sans-Serif" font-size="10.00"> </text>
</g>
<!-- Node4&#45;&gt;Node2 -->
<g id="edge2" class="edge"><title>Node4&#45;&gt;Node2</title>
<path fill="none" stroke="#404040" d="M106.762,-165.729C113.528,-153.702 121.707,-139.535 129.5,-127 137.075,-114.816 145.552,-101.887 153.636,-89.857"/>
<polygon fill="none" stroke="#404040" points="153.881,-89.4953 153.931,-82.2843 160.607,-79.5573 160.557,-86.7683 153.881,-89.4953"/>
<text text-anchor="middle" x="161" y="-101" font-family="Helvetica,sans-Serif" font-size="10.00"> &#45;SFX</text>
</g>
<!-- Node5&#45;&gt;Node2 -->
<g id="edge3" class="edge"><title>Node5&#45;&gt;Node2</title>
<path fill="none" stroke="#404040" d="M187.5,-127.498C187.5,-115.557 187.5,-103.274 187.5,-91.8499"/>
<polygon fill="none" stroke="#404040" points="187.5,-91.8474 183.5,-85.8475 187.5,-79.8474 191.5,-85.8474 187.5,-91.8474"/>
<text text-anchor="middle" x="222" y="-101" font-family="Helvetica,sans-Serif" font-size="10.00"> &#45;sceneChanger</text>
</g>
<!-- Node5&#45;&gt;Node5 -->
<g id="edge5" class="edge"><title>Node5&#45;&gt;Node5</title>
<path fill="none" stroke="#404040" d="M236.58,-210.83C246.986,-209.172 254.5,-203.729 254.5,-194.5 254.5,-189.165 251.989,-185.095 247.859,-182.29"/>
<polygon fill="none" stroke="#404040" points="247.852,-182.287 240.844,-183.986 236.58,-178.17 243.589,-176.471 247.852,-182.287"/>
<text text-anchor="middle" x="277.5" y="-192" font-family="Helvetica,sans-Serif" font-size="10.00"> +instance</text>
</g>
<!-- Node6 -->
<g id="node5" class="node"><title>Node6</title>
<polygon fill="none" stroke="#bfbfbf" points="168,-337 168,-394 239,-394 239,-337 168,-337"/>
<text text-anchor="middle" x="203.5" y="-382" font-family="Helvetica,sans-Serif" font-size="10.00">GameObject</text>
<polyline fill="none" stroke="#bfbfbf" points="168,-375 239,-375 "/>
<text text-anchor="middle" x="203.5" y="-363" font-family="Helvetica,sans-Serif" font-size="10.00"> </text>
<polyline fill="none" stroke="#bfbfbf" points="168,-356 239,-356 "/>
<text text-anchor="middle" x="203.5" y="-344" font-family="Helvetica,sans-Serif" font-size="10.00"> </text>
</g>
<!-- Node6&#45;&gt;Node5 -->
<g id="edge6" class="edge"><title>Node6&#45;&gt;Node5</title>
<path fill="none" stroke="#404040" d="M182.556,-336.759C173.918,-323.621 164.909,-307.267 160.5,-291 158.975,-285.372 158.324,-279.563 158.345,-273.719"/>
<polygon fill="none" stroke="#404040" points="158.347,-273.687 154.816,-267.399 159.262,-261.721 162.793,-268.009 158.347,-273.687"/>
<text text-anchor="middle" x="177" y="-283" font-family="Helvetica,sans-Serif" font-size="10.00"> &#45;player</text>
</g>
<!-- Node7 -->
<g id="node6" class="node"><title>Node7</title>
<polygon fill="none" stroke="#bfbfbf" points="367.5,-337 367.5,-394 417.5,-394 417.5,-337 367.5,-337"/>
<text text-anchor="middle" x="392.5" y="-382" font-family="Helvetica,sans-Serif" font-size="10.00">Vector2</text>
<polyline fill="none" stroke="#bfbfbf" points="367.5,-375 417.5,-375 "/>
<text text-anchor="middle" x="392.5" y="-363" font-family="Helvetica,sans-Serif" font-size="10.00"> </text>
<polyline fill="none" stroke="#bfbfbf" points="367.5,-356 417.5,-356 "/>
<text text-anchor="middle" x="392.5" y="-344" font-family="Helvetica,sans-Serif" font-size="10.00"> </text>
</g>
<!-- Node7&#45;&gt;Node2 -->
<g id="edge17" class="edge"><title>Node7&#45;&gt;Node2</title>
<path fill="none" stroke="#404040" d="M390.174,-336.674C388.3,-319.987 385.034,-298.485 379.5,-280 358.055,-208.362 357.269,-184.533 309.5,-127 293.285,-107.471 271.618,-90.2959 251.045,-76.5327"/>
<polygon fill="none" stroke="#404040" points="250.812,-76.3816 243.601,-76.4743 240.742,-69.854 247.953,-69.7614 250.812,-76.3816"/>
<text text-anchor="middle" x="405.5" y="-192" font-family="Helvetica,sans-Serif" font-size="10.00"> +newPosition</text>
</g>
<!-- Node7&#45;&gt;Node5 -->
<g id="edge7" class="edge"><title>Node7&#45;&gt;Node5</title>
<path fill="none" stroke="#404040" d="M380.051,-336.842C374.565,-327.04 367.335,-316.576 358.5,-309 342.772,-295.514 333.493,-301.271 315.5,-291 291.803,-277.472 267.409,-260.232 246.356,-244.133"/>
<polygon fill="none" stroke="#404040" points="246.107,-243.939 238.914,-243.426 236.621,-236.589 243.814,-237.102 246.107,-243.939"/>
<text text-anchor="middle" x="347.5" y="-283" font-family="Helvetica,sans-Serif" font-size="10.00"> +startPosition</text>
</g>
<!-- Node8&#45;&gt;Node5 -->
<g id="edge8" class="edge"><title>Node8&#45;&gt;Node5</title>
<path fill="none" stroke="#404040" d="M257.25,-316.945C254.026,-314.17 250.76,-311.497 247.5,-309 234.851,-299.314 226.391,-303.49 216.5,-291 212.159,-285.518 208.465,-279.39 205.323,-272.957"/>
<polygon fill="none" stroke="#404040" points="205.306,-272.916 199.252,-268.998 200.54,-261.903 206.594,-265.821 205.306,-272.916"/>
<text text-anchor="middle" x="254.5" y="-283" font-family="Helvetica,sans-Serif" font-size="10.00"> &#45;movementScript</text>
</g>
<!-- Node9 -->
<g id="node8" class="node"><title>Node9</title>
<polygon fill="none" stroke="#bfbfbf" points="439,-480.5 439,-537.5 480,-537.5 480,-480.5 439,-480.5"/>
<text text-anchor="middle" x="459.5" y="-525.5" font-family="Helvetica,sans-Serif" font-size="10.00">string</text>
<polyline fill="none" stroke="#bfbfbf" points="439,-518.5 480,-518.5 "/>
<text text-anchor="middle" x="459.5" y="-506.5" font-family="Helvetica,sans-Serif" font-size="10.00"> </text>
<polyline fill="none" stroke="#bfbfbf" points="439,-499.5 480,-499.5 "/>
<text text-anchor="middle" x="459.5" y="-487.5" font-family="Helvetica,sans-Serif" font-size="10.00"> </text>
</g>
<!-- Node9&#45;&gt;Node2 -->
<g id="edge16" class="edge"><title>Node9&#45;&gt;Node2</title>
<path fill="none" stroke="#404040" d="M467.655,-480.488C486.002,-412.464 522.807,-234.14 440.5,-127 396.37,-69.5559 311.952,-50.1924 252.809,-43.8265"/>
<polygon fill="none" stroke="#404040" points="252.541,-43.8009 246.187,-47.2103 240.595,-42.6563 246.95,-39.2468 252.541,-43.8009"/>
<text text-anchor="middle" x="518" y="-283" font-family="Helvetica,sans-Serif" font-size="10.00"> +newScene</text>
</g>
<!-- Node9&#45;&gt;Node8 -->
<g id="edge10" class="edge"><title>Node9&#45;&gt;Node8</title>
<path fill="none" stroke="#404040" d="M438.989,-487.019C424.825,-473.011 405.236,-454.561 386.5,-440 376.918,-432.553 371.952,-431.476 359.242,-422.031"/>
<polygon fill="none" stroke="#404040" points="359.069,-421.895 351.881,-421.322 349.646,-414.466 356.834,-415.039 359.069,-421.895"/>
<text text-anchor="middle" x="435" y="-448.5" font-family="Helvetica,sans-Serif" font-size="10.00"> &#45;lastMove</text>
</g>
<!-- Node10 -->
<g id="node9" class="node"><title>Node10</title>
<polygon fill="none" stroke="#bfbfbf" points="210.5,-480.5 210.5,-537.5 266.5,-537.5 266.5,-480.5 210.5,-480.5"/>
<text text-anchor="middle" x="238.5" y="-525.5" font-family="Helvetica,sans-Serif" font-size="10.00">Animator</text>
<polyline fill="none" stroke="#bfbfbf" points="210.5,-518.5 266.5,-518.5 "/>
<text text-anchor="middle" x="238.5" y="-506.5" font-family="Helvetica,sans-Serif" font-size="10.00"> </text>
<polyline fill="none" stroke="#bfbfbf" points="210.5,-499.5 266.5,-499.5 "/>
<text text-anchor="middle" x="238.5" y="-487.5" font-family="Helvetica,sans-Serif" font-size="10.00"> </text>
</g>
<!-- Node10&#45;&gt;Node8 -->
<g id="edge11" class="edge"><title>Node10&#45;&gt;Node8</title>
<path fill="none" stroke="#404040" d="M251.187,-480.381C257.491,-466.658 265.403,-449.435 273.151,-432.567"/>
<polygon fill="none" stroke="#404040" points="273.191,-432.479 272.061,-425.357 278.201,-421.575 279.331,-428.697 273.191,-432.479"/>
<text text-anchor="middle" x="283.5" y="-448.5" font-family="Helvetica,sans-Serif" font-size="10.00"> &#45;anim</text>
</g>
<!-- Node11 -->
<g id="node10" class="node"><title>Node11</title>
<polygon fill="none" stroke="#bfbfbf" points="285,-480.5 285,-537.5 320,-537.5 320,-480.5 285,-480.5"/>
<text text-anchor="middle" x="302.5" y="-525.5" font-family="Helvetica,sans-Serif" font-size="10.00">float</text>
<polyline fill="none" stroke="#bfbfbf" points="285,-518.5 320,-518.5 "/>
<text text-anchor="middle" x="302.5" y="-506.5" font-family="Helvetica,sans-Serif" font-size="10.00"> </text>
<polyline fill="none" stroke="#bfbfbf" points="285,-499.5 320,-499.5 "/>
<text text-anchor="middle" x="302.5" y="-487.5" font-family="Helvetica,sans-Serif" font-size="10.00"> </text>
</g>
<!-- Node11&#45;&gt;Node8 -->
<g id="edge12" class="edge"><title>Node11&#45;&gt;Node8</title>
<path fill="none" stroke="#404040" d="M302.695,-480.381C302.789,-467.051 302.907,-450.416 303.023,-434.014"/>
<polygon fill="none" stroke="#404040" points="303.026,-433.574 299.068,-427.546 303.111,-421.575 307.068,-427.603 303.026,-433.574"/>
<text text-anchor="middle" x="320" y="-448.5" font-family="Helvetica,sans-Serif" font-size="10.00"> &#45;speed</text>
</g>
<!-- Node12 -->
<g id="node11" class="node"><title>Node12</title>
<polygon fill="none" stroke="#bfbfbf" points="112,-480.5 112,-537.5 147,-537.5 147,-480.5 112,-480.5"/>
<text text-anchor="middle" x="129.5" y="-525.5" font-family="Helvetica,sans-Serif" font-size="10.00">bool</text>
<polyline fill="none" stroke="#bfbfbf" points="112,-518.5 147,-518.5 "/>
<text text-anchor="middle" x="129.5" y="-506.5" font-family="Helvetica,sans-Serif" font-size="10.00"> </text>
<polyline fill="none" stroke="#bfbfbf" points="112,-499.5 147,-499.5 "/>
<text text-anchor="middle" x="129.5" y="-487.5" font-family="Helvetica,sans-Serif" font-size="10.00"> </text>
</g>
<!-- Node12&#45;&gt;Node5 -->
<g id="edge15" class="edge"><title>Node12&#45;&gt;Node5</title>
<path fill="none" stroke="#404040" d="M116.962,-480.22C101.108,-441.058 78.1851,-367.829 98.5,-309 100.538,-303.099 114.494,-284.571 130.774,-264.15"/>
<polygon fill="none" stroke="#404040" points="130.87,-264.03 131.507,-256.847 138.383,-254.673 137.745,-261.856 130.87,-264.03"/>
<text text-anchor="middle" x="128.5" y="-363" font-family="Helvetica,sans-Serif" font-size="10.00"> +movePlayer</text>
</g>
<!-- Node12&#45;&gt;Node8 -->
<g id="edge13" class="edge"><title>Node12&#45;&gt;Node8</title>
<path fill="none" stroke="#404040" d="M147.05,-485.474C159.495,-470.795 177.336,-452.177 196.5,-440 216.788,-427.109 227.136,-434.77 247.5,-422 247.605,-421.934 247.71,-421.868 247.815,-421.802"/>
<polygon fill="none" stroke="#404040" points="247.606,-421.948 250.217,-415.226 257.426,-415.05 254.815,-421.772 247.606,-421.948"/>
<text text-anchor="middle" x="227" y="-454" font-family="Helvetica,sans-Serif" font-size="10.00"> &#45;playerExists</text>
<text text-anchor="middle" x="227" y="-443" font-family="Helvetica,sans-Serif" font-size="10.00">&#45;canMove</text>
</g>
<!-- Node13 -->
<g id="node12" class="node"><title>Node13</title>
<polygon fill="none" stroke="#bfbfbf" points="338,-480.5 338,-537.5 397,-537.5 397,-480.5 338,-480.5"/>
<text text-anchor="middle" x="367.5" y="-525.5" font-family="Helvetica,sans-Serif" font-size="10.00">Transform</text>
<polyline fill="none" stroke="#bfbfbf" points="338,-518.5 397,-518.5 "/>
<text text-anchor="middle" x="367.5" y="-506.5" font-family="Helvetica,sans-Serif" font-size="10.00"> </text>
<polyline fill="none" stroke="#bfbfbf" points="338,-499.5 397,-499.5 "/>
<text text-anchor="middle" x="367.5" y="-487.5" font-family="Helvetica,sans-Serif" font-size="10.00"> </text>
</g>
<!-- Node13&#45;&gt;Node8 -->
<g id="edge14" class="edge"><title>Node13&#45;&gt;Node8</title>
<path fill="none" stroke="#404040" d="M357.143,-480.307C352.331,-467.877 346.381,-453.093 340.5,-440 339.406,-437.565 338.275,-435.093 337.117,-432.604"/>
<polygon fill="none" stroke="#404040" points="337.055,-432.473 330.869,-428.767 331.91,-421.632 338.096,-425.337 337.055,-432.473"/>
<text text-anchor="middle" x="366" y="-448.5" font-family="Helvetica,sans-Serif" font-size="10.00"> &#45;player</text>
</g>
</g>
</svg>
