<?xml version="1.0" encoding="UTF-8" standalone="no"?>
<!DOCTYPE svg PUBLIC "-//W3C//DTD SVG 1.1//EN"
 "http://www.w3.org/Graphics/SVG/1.1/DTD/svg11.dtd">
<!-- Generated by graphviz version 2.38.0 (20140413.2041)
 -->
<!-- Title: LowerDefence Pages: 1 -->
<svg width="751pt" height="1045pt"
 viewBox="0.00 0.00 751.00 1045.00" xmlns="http://www.w3.org/2000/svg" xmlns:xlink="http://www.w3.org/1999/xlink">
<g id="graph0" class="graph" transform="scale(1 1) rotate(0) translate(4 1041)">
<title>LowerDefence</title>
<!-- Node3 -->
<g id="node1" class="node"><title>Node3</title>
<polygon fill="#bfbfbf" stroke="black" points="598,-590.5 598,-658.5 690,-658.5 690,-590.5 598,-590.5"/>
<text text-anchor="middle" x="644" y="-646.5" font-family="Helvetica,sans-Serif" font-size="10.00">LowerDefence</text>
<polyline fill="none" stroke="black" points="598,-639.5 690,-639.5 "/>
<text text-anchor="middle" x="644" y="-627.5" font-family="Helvetica,sans-Serif" font-size="10.00"> </text>
<polyline fill="none" stroke="black" points="598,-620.5 690,-620.5 "/>
<text text-anchor="start" x="606" y="-608.5" font-family="Helvetica,sans-Serif" font-size="10.00">+ LowerDefence()</text>
<text text-anchor="start" x="606" y="-597.5" font-family="Helvetica,sans-Serif" font-size="10.00">+ performMove()</text>
</g>
<!-- Node4 -->
<g id="node2" class="node"><title>Node4</title>
<g id="a_node2"><a xlink:href="class_special_move.html" target="_top" xlink:title="Special move abstract base class that expands upon CharacterMove, adding magic properties ...">
<polygon fill="none" stroke="black" points="521,-830.5 521,-920.5 619,-920.5 619,-830.5 521,-830.5"/>
<text text-anchor="middle" x="570" y="-908.5" font-family="Helvetica,sans-Serif" font-size="10.00">SpecialMove</text>
<polyline fill="none" stroke="black" points="521,-901.5 619,-901.5 "/>
<text text-anchor="start" x="529" y="-889.5" font-family="Helvetica,sans-Serif" font-size="10.00">+ Magic</text>
<text text-anchor="start" x="529" y="-878.5" font-family="Helvetica,sans-Serif" font-size="10.00">+ Desc</text>
<polyline fill="none" stroke="black" points="521,-871.5 619,-871.5 "/>
<text text-anchor="start" x="529" y="-859.5" font-family="Helvetica,sans-Serif" font-size="10.00">+ setUp()</text>
<text text-anchor="start" x="529" y="-848.5" font-family="Helvetica,sans-Serif" font-size="10.00">+ decreaseMagic()</text>
<text text-anchor="start" x="529" y="-837.5" font-family="Helvetica,sans-Serif" font-size="10.00"># SpecialMove()</text>
</a>
</g>
</g>
<!-- Node4&#45;&gt;Node3 -->
<g id="edge1" class="edge"><title>Node4&#45;&gt;Node3</title>
<path fill="none" stroke="midnightblue" d="M586.074,-820.413C600.723,-771.122 621.891,-699.893 634.169,-658.581"/>
<polygon fill="none" stroke="midnightblue" points="582.638,-819.688 583.144,-830.271 589.348,-821.682 582.638,-819.688"/>
</g>
<!-- Node7 -->
<g id="node5" class="node"><title>Node7</title>
<g id="a_node5"><a xlink:href="class_character.html" target="_top" xlink:title="Base abstract class for Enemy and Player to inherit from. Defines all shared variables, their constructor and their setters and getters ">
<polygon fill="none" stroke="black" points="302.5,-535.5 302.5,-713.5 397.5,-713.5 397.5,-535.5 302.5,-535.5"/>
<text text-anchor="middle" x="350" y="-701.5" font-family="Helvetica,sans-Serif" font-size="10.00">Character</text>
<polyline fill="none" stroke="black" points="302.5,-694.5 397.5,-694.5 "/>
<text text-anchor="start" x="310.5" y="-682.5" font-family="Helvetica,sans-Serif" font-size="10.00">+ Name</text>
<text text-anchor="start" x="310.5" y="-671.5" font-family="Helvetica,sans-Serif" font-size="10.00">+ Level</text>
<text text-anchor="start" x="310.5" y="-660.5" font-family="Helvetica,sans-Serif" font-size="10.00">+ Health</text>
<text text-anchor="start" x="310.5" y="-649.5" font-family="Helvetica,sans-Serif" font-size="10.00">+ Attack</text>
<text text-anchor="start" x="310.5" y="-638.5" font-family="Helvetica,sans-Serif" font-size="10.00">+ Defence</text>
<text text-anchor="start" x="310.5" y="-627.5" font-family="Helvetica,sans-Serif" font-size="10.00">+ MaximumMagic</text>
<text text-anchor="start" x="310.5" y="-616.5" font-family="Helvetica,sans-Serif" font-size="10.00">+ Magic</text>
<text text-anchor="start" x="310.5" y="-605.5" font-family="Helvetica,sans-Serif" font-size="10.00">+ Luck</text>
<text text-anchor="start" x="310.5" y="-594.5" font-family="Helvetica,sans-Serif" font-size="10.00">+ Speed</text>
<text text-anchor="start" x="310.5" y="-583.5" font-family="Helvetica,sans-Serif" font-size="10.00">+ Special1</text>
<text text-anchor="start" x="310.5" y="-572.5" font-family="Helvetica,sans-Serif" font-size="10.00">+ Special2</text>
<text text-anchor="start" x="310.5" y="-561.5" font-family="Helvetica,sans-Serif" font-size="10.00">+ Image</text>
<polyline fill="none" stroke="black" points="302.5,-554.5 397.5,-554.5 "/>
<text text-anchor="start" x="310.5" y="-542.5" font-family="Helvetica,sans-Serif" font-size="10.00"># Character()</text>
</a>
</g>
</g>
<!-- Node4&#45;&gt;Node7 -->
<g id="edge7" class="edge"><title>Node4&#45;&gt;Node7</title>
<path fill="none" stroke="#404040" d="M527.854,-830.341C522.147,-824.219 516.4,-817.981 511,-812 475.346,-772.509 436.331,-727.365 405.637,-691.384"/>
<polygon fill="none" stroke="#404040" points="405.398,-691.104 398.462,-689.13 397.617,-681.969 404.552,-683.942 405.398,-691.104"/>
<text text-anchor="middle" x="533.5" y="-775" font-family="Helvetica,sans-Serif" font-size="10.00"> #special1</text>
<text text-anchor="middle" x="533.5" y="-764" font-family="Helvetica,sans-Serif" font-size="10.00">#special2</text>
</g>
<!-- Node5 -->
<g id="node3" class="node"><title>Node5</title>
<g id="a_node3"><a xlink:href="class_character_move.html" target="_top" xlink:title="Astract base class for character moves ">
<polygon fill="none" stroke="black" points="470,-0.5 470,-79.5 556,-79.5 556,-0.5 470,-0.5"/>
<text text-anchor="middle" x="513" y="-67.5" font-family="Helvetica,sans-Serif" font-size="10.00">CharacterMove</text>
<polyline fill="none" stroke="black" points="470,-60.5 556,-60.5 "/>
<text text-anchor="start" x="478" y="-48.5" font-family="Helvetica,sans-Serif" font-size="10.00">+ User</text>
<text text-anchor="start" x="478" y="-37.5" font-family="Helvetica,sans-Serif" font-size="10.00">+ Target</text>
<text text-anchor="start" x="478" y="-26.5" font-family="Helvetica,sans-Serif" font-size="10.00">+ Text</text>
<polyline fill="none" stroke="black" points="470,-19.5 556,-19.5 "/>
<text text-anchor="start" x="478" y="-7.5" font-family="Helvetica,sans-Serif" font-size="10.00">+ performMove()</text>
</a>
</g>
</g>
<!-- Node5&#45;&gt;Node4 -->
<g id="edge2" class="edge"><title>Node5&#45;&gt;Node4</title>
<path fill="none" stroke="midnightblue" d="M536.9,-88.7328C552.505,-124.285 570,-174.51 570,-221 570,-625.5 570,-625.5 570,-625.5 570,-697.26 570,-780.654 570,-830.421"/>
<polygon fill="none" stroke="midnightblue" points="540.071,-87.2496 532.776,-79.5663 533.687,-90.1219 540.071,-87.2496"/>
</g>
<!-- Node6 -->
<g id="node4" class="node"><title>Node6</title>
<polygon fill="none" stroke="#bfbfbf" points="472.5,-979.5 472.5,-1036.5 513.5,-1036.5 513.5,-979.5 472.5,-979.5"/>
<text text-anchor="middle" x="493" y="-1024.5" font-family="Helvetica,sans-Serif" font-size="10.00">string</text>
<polyline fill="none" stroke="#bfbfbf" points="472.5,-1017.5 513.5,-1017.5 "/>
<text text-anchor="middle" x="493" y="-1005.5" font-family="Helvetica,sans-Serif" font-size="10.00"> </text>
<polyline fill="none" stroke="#bfbfbf" points="472.5,-998.5 513.5,-998.5 "/>
<text text-anchor="middle" x="493" y="-986.5" font-family="Helvetica,sans-Serif" font-size="10.00"> </text>
</g>
<!-- Node6&#45;&gt;Node4 -->
<g id="edge21" class="edge"><title>Node6&#45;&gt;Node4</title>
<path fill="none" stroke="#404040" d="M509.33,-979.324C517.586,-965.331 527.907,-947.84 537.681,-931.274"/>
<polygon fill="none" stroke="#404040" points="537.9,-930.903 537.504,-923.702 543.998,-920.568 544.394,-927.768 537.9,-930.903"/>
<text text-anchor="middle" x="547" y="-947.5" font-family="Helvetica,sans-Serif" font-size="10.00"> #desc</text>
</g>
<!-- Node6&#45;&gt;Node5 -->
<g id="edge3" class="edge"><title>Node6&#45;&gt;Node5</title>
<path fill="none" stroke="#404040" d="M513.764,-1004.86C569.465,-997.873 718,-970.427 718,-876.5 718,-876.5 718,-876.5 718,-221 718,-140.909 628.552,-88.0871 567.827,-61.4553"/>
<polygon fill="none" stroke="#404040" points="567.52,-61.3248 560.433,-62.6599 556.475,-56.6321 563.562,-55.297 567.52,-61.3248"/>
<text text-anchor="middle" x="730.5" y="-509" font-family="Helvetica,sans-Serif" font-size="10.00"> #text</text>
</g>
<!-- Node6&#45;&gt;Node7 -->
<g id="edge5" class="edge"><title>Node6&#45;&gt;Node7</title>
<path fill="none" stroke="#404040" d="M476.143,-979.406C466.491,-962.864 454.624,-941.184 446,-921 411.374,-839.956 413.446,-815.749 386,-732 385.259,-729.74 384.507,-727.453 383.747,-725.148"/>
<polygon fill="none" stroke="#404040" points="383.663,-724.894 377.979,-720.457 379.89,-713.503 385.574,-717.941 383.663,-724.894"/>
<text text-anchor="middle" x="462.5" y="-873" font-family="Helvetica,sans-Serif" font-size="10.00"> #name</text>
</g>
<!-- Node10 -->
<g id="node8" class="node"><title>Node10</title>
<g id="a_node8"><a xlink:href="class_battle_manager.html" target="_top" xlink:title="Holds current Player and Enemy objects in battle and provides functions for MainBattle and other obje...">
<polygon fill="none" stroke="black" points="226,-127.5 226,-316.5 342,-316.5 342,-127.5 226,-127.5"/>
<text text-anchor="middle" x="284" y="-304.5" font-family="Helvetica,sans-Serif" font-size="10.00">BattleManager</text>
<polyline fill="none" stroke="black" points="226,-297.5 342,-297.5 "/>
<text text-anchor="start" x="234" y="-285.5" font-family="Helvetica,sans-Serif" font-size="10.00">+ Player</text>
<text text-anchor="start" x="234" y="-274.5" font-family="Helvetica,sans-Serif" font-size="10.00">+ Enemy</text>
<text text-anchor="start" x="234" y="-263.5" font-family="Helvetica,sans-Serif" font-size="10.00">+ WasCriticalHit</text>
<polyline fill="none" stroke="black" points="226,-256.5 342,-256.5 "/>
<text text-anchor="start" x="234" y="-244.5" font-family="Helvetica,sans-Serif" font-size="10.00">+ BattleManager()</text>
<text text-anchor="start" x="234" y="-233.5" font-family="Helvetica,sans-Serif" font-size="10.00">+ playerFirst()</text>
<text text-anchor="start" x="234" y="-222.5" font-family="Helvetica,sans-Serif" font-size="10.00">+ switchPlayers()</text>
<text text-anchor="start" x="234" y="-211.5" font-family="Helvetica,sans-Serif" font-size="10.00">+ isCriticalHit()</text>
<text text-anchor="start" x="234" y="-200.5" font-family="Helvetica,sans-Serif" font-size="10.00">+ ranAway()</text>
<text text-anchor="start" x="234" y="-189.5" font-family="Helvetica,sans-Serif" font-size="10.00">+ damageCalculation()</text>
<text text-anchor="start" x="234" y="-178.5" font-family="Helvetica,sans-Serif" font-size="10.00">+ enemyMove()</text>
<text text-anchor="start" x="234" y="-167.5" font-family="Helvetica,sans-Serif" font-size="10.00">+ enemySpecialMove()</text>
<text text-anchor="start" x="234" y="-156.5" font-family="Helvetica,sans-Serif" font-size="10.00">+ battleWon()</text>
<text text-anchor="start" x="234" y="-145.5" font-family="Helvetica,sans-Serif" font-size="10.00">+ playerFainted()</text>
<text text-anchor="start" x="234" y="-134.5" font-family="Helvetica,sans-Serif" font-size="10.00">&#45; characterFainted()</text>
</a>
</g>
</g>
<!-- Node6&#45;&gt;Node10 -->
<g id="edge10" class="edge"><title>Node6&#45;&gt;Node10</title>
<path fill="none" stroke="#404040" d="M493.817,-979.429C494.801,-929.612 494.689,-821.464 479,-732 450.345,-568.596 428.378,-530.287 370,-375 363.888,-358.743 356.206,-342.151 347.962,-326.188"/>
<polygon fill="none" stroke="#404040" points="347.787,-325.858 341.446,-322.424 342.177,-315.25 348.518,-318.684 347.787,-325.858"/>
<text text-anchor="middle" x="518" y="-627.5" font-family="Helvetica,sans-Serif" font-size="10.00"> +forceEnemyMove</text>
<text text-anchor="middle" x="518" y="-616.5" font-family="Helvetica,sans-Serif" font-size="10.00">+forceCriticalHits</text>
</g>
<!-- Node14 -->
<g id="node12" class="node"><title>Node14</title>
<g id="a_node12"><a xlink:href="class_item.html" target="_top" xlink:title="Abstract class for items that can be equipped to a player, increasing some of their stats ...">
<polygon fill="none" stroke="black" points="216.5,-732.5 216.5,-811.5 293.5,-811.5 293.5,-732.5 216.5,-732.5"/>
<text text-anchor="middle" x="255" y="-799.5" font-family="Helvetica,sans-Serif" font-size="10.00">Item</text>
<polyline fill="none" stroke="black" points="216.5,-792.5 293.5,-792.5 "/>
<text text-anchor="start" x="224.5" y="-780.5" font-family="Helvetica,sans-Serif" font-size="10.00">+ Name</text>
<text text-anchor="start" x="224.5" y="-769.5" font-family="Helvetica,sans-Serif" font-size="10.00">+ Desc</text>
<polyline fill="none" stroke="black" points="216.5,-762.5 293.5,-762.5 "/>
<text text-anchor="start" x="224.5" y="-750.5" font-family="Helvetica,sans-Serif" font-size="10.00">+ applyBuffs()</text>
<text text-anchor="start" x="224.5" y="-739.5" font-family="Helvetica,sans-Serif" font-size="10.00">+ revertBuffs()</text>
</a>
</g>
</g>
<!-- Node6&#45;&gt;Node14 -->
<g id="edge19" class="edge"><title>Node6&#45;&gt;Node14</title>
<path fill="none" stroke="#404040" d="M472.421,-1007.84C435.886,-1008.16 359.546,-1003.32 317,-961 274.271,-918.503 302.762,-886.575 282,-830 281.131,-827.631 280.199,-825.226 279.223,-822.812"/>
<polygon fill="none" stroke="#404040" points="279.121,-822.573 273.085,-818.627 274.405,-811.538 280.441,-815.483 279.121,-822.573"/>
<text text-anchor="middle" x="332" y="-953" font-family="Helvetica,sans-Serif" font-size="10.00"> #desc</text>
<text text-anchor="middle" x="332" y="-942" font-family="Helvetica,sans-Serif" font-size="10.00">#name</text>
</g>
<!-- Node7&#45;&gt;Node5 -->
<g id="edge4" class="edge"><title>Node7&#45;&gt;Node5</title>
<path fill="none" stroke="#404040" d="M374.668,-535.347C409.312,-411.543 471.237,-190.244 498.936,-91.26"/>
<polygon fill="none" stroke="#404040" points="498.985,-91.0848 496.75,-84.2288 502.219,-79.5287 504.454,-86.3847 498.985,-91.0848"/>
<text text-anchor="middle" x="447" y="-349" font-family="Helvetica,sans-Serif" font-size="10.00"> #target</text>
<text text-anchor="middle" x="447" y="-338" font-family="Helvetica,sans-Serif" font-size="10.00">#user</text>
</g>
<!-- Node11 -->
<g id="node9" class="node"><title>Node11</title>
<g id="a_node9"><a xlink:href="class_enemy.html" target="_top" xlink:title="Defines an AI controller enemy to fight in battle scenes">
<polygon fill="none" stroke="black" points="294.5,-403 294.5,-460 361.5,-460 361.5,-403 294.5,-403"/>
<text text-anchor="middle" x="328" y="-448" font-family="Helvetica,sans-Serif" font-size="10.00">Enemy</text>
<polyline fill="none" stroke="black" points="294.5,-441 361.5,-441 "/>
<text text-anchor="start" x="302.5" y="-429" font-family="Helvetica,sans-Serif" font-size="10.00">+ ExpGiven</text>
<polyline fill="none" stroke="black" points="294.5,-422 361.5,-422 "/>
<text text-anchor="start" x="302.5" y="-410" font-family="Helvetica,sans-Serif" font-size="10.00">+ Enemy()</text>
</a>
</g>
</g>
<!-- Node7&#45;&gt;Node11 -->
<g id="edge12" class="edge"><title>Node7&#45;&gt;Node11</title>
<path fill="none" stroke="midnightblue" d="M338.661,-525.059C335.917,-501.231 333.2,-477.647 331.196,-460.249"/>
<polygon fill="none" stroke="midnightblue" points="335.216,-525.734 339.837,-535.268 342.17,-524.933 335.216,-525.734"/>
</g>
<!-- Node13 -->
<g id="node11" class="node"><title>Node13</title>
<g id="a_node11"><a xlink:href="class_player.html" target="_top" xlink:title="Defines a playable character for use in battle scenes">
<polygon fill="none" stroke="black" points="70,-375.5 70,-487.5 182,-487.5 182,-375.5 70,-375.5"/>
<text text-anchor="middle" x="126" y="-475.5" font-family="Helvetica,sans-Serif" font-size="10.00">Player</text>
<polyline fill="none" stroke="black" points="70,-468.5 182,-468.5 "/>
<text text-anchor="start" x="78" y="-456.5" font-family="Helvetica,sans-Serif" font-size="10.00">+ Exp</text>
<text text-anchor="start" x="78" y="-445.5" font-family="Helvetica,sans-Serif" font-size="10.00">+ Item</text>
<text text-anchor="start" x="78" y="-434.5" font-family="Helvetica,sans-Serif" font-size="10.00">+ ExpToNextLevel</text>
<polyline fill="none" stroke="black" points="70,-427.5 182,-427.5 "/>
<text text-anchor="start" x="78" y="-415.5" font-family="Helvetica,sans-Serif" font-size="10.00">+ Player()</text>
<text text-anchor="start" x="78" y="-404.5" font-family="Helvetica,sans-Serif" font-size="10.00">+ gainExp()</text>
<text text-anchor="start" x="78" y="-393.5" font-family="Helvetica,sans-Serif" font-size="10.00">+ levelUp()</text>
<text text-anchor="start" x="78" y="-382.5" font-family="Helvetica,sans-Serif" font-size="10.00">&#45; setExpToNextLevel()</text>
</a>
</g>
</g>
<!-- Node7&#45;&gt;Node13 -->
<g id="edge17" class="edge"><title>Node7&#45;&gt;Node13</title>
<path fill="none" stroke="midnightblue" d="M294.457,-576.14C260.232,-546.957 216.482,-509.652 182.145,-480.374"/>
<polygon fill="none" stroke="midnightblue" points="292.615,-579.169 302.495,-582.994 297.157,-573.842 292.615,-579.169"/>
</g>
<!-- Node8 -->
<g id="node6" class="node"><title>Node8</title>
<polygon fill="none" stroke="#bfbfbf" points="142.5,-979.5 142.5,-1036.5 171.5,-1036.5 171.5,-979.5 142.5,-979.5"/>
<text text-anchor="middle" x="157" y="-1024.5" font-family="Helvetica,sans-Serif" font-size="10.00">int</text>
<polyline fill="none" stroke="#bfbfbf" points="142.5,-1017.5 171.5,-1017.5 "/>
<text text-anchor="middle" x="157" y="-1005.5" font-family="Helvetica,sans-Serif" font-size="10.00"> </text>
<polyline fill="none" stroke="#bfbfbf" points="142.5,-998.5 171.5,-998.5 "/>
<text text-anchor="middle" x="157" y="-986.5" font-family="Helvetica,sans-Serif" font-size="10.00"> </text>
</g>
<!-- Node8&#45;&gt;Node4 -->
<g id="edge22" class="edge"><title>Node8&#45;&gt;Node4</title>
<path fill="none" stroke="#404040" d="M171.594,-1003.95C216.681,-994.319 357.429,-962.721 469,-921 482.39,-915.993 496.555,-910.124 509.904,-904.322"/>
<polygon fill="none" stroke="#404040" points="509.909,-904.32 513.788,-898.241 520.891,-899.484 517.012,-905.563 509.909,-904.32"/>
<text text-anchor="middle" x="428.5" y="-947.5" font-family="Helvetica,sans-Serif" font-size="10.00"> #magic</text>
</g>
<!-- Node8&#45;&gt;Node7 -->
<g id="edge6" class="edge"><title>Node8&#45;&gt;Node7</title>
<path fill="none" stroke="#404040" d="M164.86,-979.242C177.075,-940.787 204.112,-871.378 250,-830 265.997,-815.575 280.499,-827.928 295,-812 316.662,-788.206 329.818,-756.274 337.799,-725.563"/>
<polygon fill="none" stroke="#404040" points="337.805,-725.539 335.319,-718.77 340.611,-713.872 343.097,-720.641 337.805,-725.539"/>
<text text-anchor="middle" x="287.5" y="-911.5" font-family="Helvetica,sans-Serif" font-size="10.00"> #speed</text>
<text text-anchor="middle" x="287.5" y="-900.5" font-family="Helvetica,sans-Serif" font-size="10.00">#luck</text>
<text text-anchor="middle" x="287.5" y="-889.5" font-family="Helvetica,sans-Serif" font-size="10.00">#health</text>
<text text-anchor="middle" x="287.5" y="-878.5" font-family="Helvetica,sans-Serif" font-size="10.00">#magic</text>
<text text-anchor="middle" x="287.5" y="-867.5" font-family="Helvetica,sans-Serif" font-size="10.00">#maximumMagic</text>
<text text-anchor="middle" x="287.5" y="-856.5" font-family="Helvetica,sans-Serif" font-size="10.00">#attack</text>
<text text-anchor="middle" x="287.5" y="-845.5" font-family="Helvetica,sans-Serif" font-size="10.00">#defence</text>
<text text-anchor="middle" x="287.5" y="-834.5" font-family="Helvetica,sans-Serif" font-size="10.00">#level</text>
</g>
<!-- Node8&#45;&gt;Node10 -->
<g id="edge14" class="edge"><title>Node8&#45;&gt;Node10</title>
<path fill="none" stroke="#404040" d="M142.23,-1002.64C103.147,-990.104 0,-950.045 0,-876.5 0,-876.5 0,-876.5 0,-430.5 0,-324.648 130.218,-267.007 214.303,-240.821"/>
<polygon fill="none" stroke="#404040" points="214.356,-240.805 218.942,-235.24 225.843,-237.333 221.257,-242.897 214.356,-240.805"/>
<text text-anchor="middle" x="19.5" y="-622" font-family="Helvetica,sans-Serif" font-size="10.00"> +money</text>
</g>
<!-- Node8&#45;&gt;Node11 -->
<g id="edge13" class="edge"><title>Node8&#45;&gt;Node11</title>
<path fill="none" stroke="#404040" d="M153.032,-979.461C146.747,-929.242 137.475,-819.865 161,-732 188.483,-629.35 258.829,-524.241 298.905,-470.007"/>
<polygon fill="none" stroke="#404040" points="299.073,-469.781 299.461,-462.58 306.257,-460.169 305.869,-467.369 299.073,-469.781"/>
<text text-anchor="middle" x="184" y="-769.5" font-family="Helvetica,sans-Serif" font-size="10.00"> &#45;expGiven</text>
</g>
<!-- Node8&#45;&gt;Node13 -->
<g id="edge20" class="edge"><title>Node8&#45;&gt;Node13</title>
<path fill="none" stroke="#404040" d="M142.421,-983.837C121.089,-948.433 82.3497,-878.001 68,-812 44.4109,-703.503 76.0826,-575.51 101.084,-499.339"/>
<polygon fill="none" stroke="#404040" points="101.215,-498.947 99.3299,-491.987 105.03,-487.569 106.915,-494.53 101.215,-498.947"/>
<text text-anchor="middle" x="105.5" y="-775" font-family="Helvetica,sans-Serif" font-size="10.00"> &#45;expToNextLevel</text>
<text text-anchor="middle" x="105.5" y="-764" font-family="Helvetica,sans-Serif" font-size="10.00">&#45;exp</text>
</g>
<!-- Node9 -->
<g id="node7" class="node"><title>Node9</title>
<polygon fill="none" stroke="#bfbfbf" points="334.5,-847 334.5,-904 395.5,-904 395.5,-847 334.5,-847"/>
<text text-anchor="middle" x="365" y="-892" font-family="Helvetica,sans-Serif" font-size="10.00">Texture2D</text>
<polyline fill="none" stroke="#bfbfbf" points="334.5,-885 395.5,-885 "/>
<text text-anchor="middle" x="365" y="-873" font-family="Helvetica,sans-Serif" font-size="10.00"> </text>
<polyline fill="none" stroke="#bfbfbf" points="334.5,-866 395.5,-866 "/>
<text text-anchor="middle" x="365" y="-854" font-family="Helvetica,sans-Serif" font-size="10.00"> </text>
</g>
<!-- Node9&#45;&gt;Node7 -->
<g id="edge8" class="edge"><title>Node9&#45;&gt;Node7</title>
<path fill="none" stroke="#404040" d="M357.432,-846.717C354.857,-835.96 352.302,-823.491 351,-812 347.855,-784.255 346.716,-754.038 346.587,-726.164"/>
<polygon fill="none" stroke="#404040" points="346.587,-725.959 342.59,-719.957 346.594,-713.959 350.59,-719.961 346.587,-725.959"/>
<text text-anchor="middle" x="368.5" y="-769.5" font-family="Helvetica,sans-Serif" font-size="10.00"> #image</text>
</g>
<!-- Node10&#45;&gt;Node5 -->
<g id="edge9" class="edge"><title>Node10&#45;&gt;Node5</title>
<path fill="none" stroke="#404040" d="M342.027,-148.09C358.294,-130.349 376.813,-112.368 396,-98 414.999,-83.7731 438.106,-71.6243 458.751,-62.2437"/>
<polygon fill="none" stroke="#404040" points="458.943,-62.159 462.822,-56.0796 469.925,-57.3215 466.047,-63.4008 458.943,-62.159"/>
<text text-anchor="middle" x="419" y="-101" font-family="Helvetica,sans-Serif" font-size="10.00"> #manager</text>
</g>
<!-- Node11&#45;&gt;Node10 -->
<g id="edge11" class="edge"><title>Node11&#45;&gt;Node10</title>
<path fill="none" stroke="#404040" d="M322.157,-402.946C318.025,-383.46 312.199,-355.983 306.34,-328.355"/>
<polygon fill="none" stroke="#404040" points="306.322,-328.267 301.164,-323.227 303.832,-316.528 308.99,-321.567 306.322,-328.267"/>
<text text-anchor="middle" x="330" y="-343.5" font-family="Helvetica,sans-Serif" font-size="10.00"> &#45;enemy</text>
</g>
<!-- Node12 -->
<g id="node10" class="node"><title>Node12</title>
<polygon fill="none" stroke="#bfbfbf" points="221.5,-403 221.5,-460 256.5,-460 256.5,-403 221.5,-403"/>
<text text-anchor="middle" x="239" y="-448" font-family="Helvetica,sans-Serif" font-size="10.00">bool</text>
<polyline fill="none" stroke="#bfbfbf" points="221.5,-441 256.5,-441 "/>
<text text-anchor="middle" x="239" y="-429" font-family="Helvetica,sans-Serif" font-size="10.00"> </text>
<polyline fill="none" stroke="#bfbfbf" points="221.5,-422 256.5,-422 "/>
<text text-anchor="middle" x="239" y="-410" font-family="Helvetica,sans-Serif" font-size="10.00"> </text>
</g>
<!-- Node12&#45;&gt;Node10 -->
<g id="edge15" class="edge"><title>Node12&#45;&gt;Node10</title>
<path fill="none" stroke="#404040" d="M236.231,-402.653C234.995,-383.46 234.656,-357.464 239,-335 239.422,-332.819 239.886,-330.626 240.388,-328.427"/>
<polygon fill="none" stroke="#404040" points="240.433,-328.252 238.047,-321.447 243.411,-316.628 245.797,-323.433 240.433,-328.252"/>
<text text-anchor="middle" x="272" y="-343.5" font-family="Helvetica,sans-Serif" font-size="10.00"> &#45;wasCriticalHit</text>
</g>
<!-- Node13&#45;&gt;Node10 -->
<g id="edge16" class="edge"><title>Node13&#45;&gt;Node10</title>
<path fill="none" stroke="#404040" d="M167.926,-375.439C183.445,-355.058 201.433,-331.435 218.546,-308.96"/>
<polygon fill="none" stroke="#404040" points="218.547,-308.959 219,-301.762 225.817,-299.411 225.365,-306.608 218.547,-308.959"/>
<text text-anchor="middle" x="212.5" y="-343.5" font-family="Helvetica,sans-Serif" font-size="10.00"> &#45;player</text>
</g>
<!-- Node14&#45;&gt;Node13 -->
<g id="edge18" class="edge"><title>Node14&#45;&gt;Node13</title>
<path fill="none" stroke="#404040" d="M240.328,-732.499C218.684,-675.705 177.901,-568.689 151.351,-499.023"/>
<polygon fill="none" stroke="#404040" points="151.329,-498.963 145.454,-494.781 147.055,-487.75 152.93,-491.932 151.329,-498.963"/>
<text text-anchor="middle" x="244.5" y="-622" font-family="Helvetica,sans-Serif" font-size="10.00"> &#45;item</text>
</g>
<!-- Node15 -->
<g id="node13" class="node"><title>Node15</title>
<polygon fill="none" stroke="#bfbfbf" points="637.5,-847 637.5,-904 672.5,-904 672.5,-847 637.5,-847"/>
<text text-anchor="middle" x="655" y="-892" font-family="Helvetica,sans-Serif" font-size="10.00">float</text>
<polyline fill="none" stroke="#bfbfbf" points="637.5,-885 672.5,-885 "/>
<text text-anchor="middle" x="655" y="-873" font-family="Helvetica,sans-Serif" font-size="10.00"> </text>
<polyline fill="none" stroke="#bfbfbf" points="637.5,-866 672.5,-866 "/>
<text text-anchor="middle" x="655" y="-854" font-family="Helvetica,sans-Serif" font-size="10.00"> </text>
</g>
<!-- Node15&#45;&gt;Node3 -->
<g id="edge23" class="edge"><title>Node15&#45;&gt;Node3</title>
<path fill="none" stroke="#404040" d="M653.781,-846.901C651.9,-804.322 648.27,-722.169 646.001,-670.792"/>
<polygon fill="none" stroke="#404040" points="645.999,-670.739 641.738,-664.921 645.469,-658.75 649.73,-664.568 645.999,-670.739"/>
<text text-anchor="middle" x="676" y="-769.5" font-family="Helvetica,sans-Serif" font-size="10.00"> &#45;decrease</text>
</g>
</g>
</svg>
