<?xml version="1.0" encoding="UTF-8" standalone="no"?>
<!DOCTYPE svg PUBLIC "-//W3C//DTD SVG 1.1//EN"
 "http://www.w3.org/Graphics/SVG/1.1/DTD/svg11.dtd">
<!-- Generated by graphviz version 2.38.0 (20140413.2041)
 -->
<!-- Title: DragAndDropItem Pages: 1 -->
<svg width="404pt" height="237pt"
 viewBox="0.00 0.00 404.00 237.00" xmlns="http://www.w3.org/2000/svg" xmlns:xlink="http://www.w3.org/1999/xlink">
<g id="graph0" class="graph" transform="scale(1 1) rotate(0) translate(4 233)">
<title>DragAndDropItem</title>
<!-- Node0 -->
<g id="node1" class="node"><title>Node0</title>
<polygon fill="#bfbfbf" stroke="black" points="154,-0.5 154,-134.5 247,-134.5 247,-0.5 154,-0.5"/>
<text text-anchor="middle" x="200.5" y="-122.5" font-family="Helvetica,sans-Serif" font-size="10.00">DragAndDropItem</text>
<polyline fill="none" stroke="black" points="154,-115.5 247,-115.5 "/>
<text text-anchor="start" x="162" y="-103.5" font-family="Helvetica,sans-Serif" font-size="10.00">+ draggedItem</text>
<text text-anchor="start" x="162" y="-92.5" font-family="Helvetica,sans-Serif" font-size="10.00">+ icon</text>
<text text-anchor="start" x="162" y="-81.5" font-family="Helvetica,sans-Serif" font-size="10.00">+ sourceCell</text>
<polyline fill="none" stroke="black" points="154,-74.5 247,-74.5 "/>
<text text-anchor="start" x="162" y="-62.5" font-family="Helvetica,sans-Serif" font-size="10.00">+ DragEvent()</text>
<text text-anchor="start" x="162" y="-51.5" font-family="Helvetica,sans-Serif" font-size="10.00">+ OnBeginDrag()</text>
<text text-anchor="start" x="162" y="-40.5" font-family="Helvetica,sans-Serif" font-size="10.00">+ OnDrag()</text>
<text text-anchor="start" x="162" y="-29.5" font-family="Helvetica,sans-Serif" font-size="10.00">+ OnEndDrag()</text>
<text text-anchor="start" x="162" y="-18.5" font-family="Helvetica,sans-Serif" font-size="10.00">+ MakeRaycast()</text>
<text text-anchor="start" x="162" y="-7.5" font-family="Helvetica,sans-Serif" font-size="10.00">+ MakeVisible()</text>
</g>
<!-- Node1 -->
<g id="node2" class="node"><title>Node1</title>
<g id="a_node2"><a xlink:href="class_mono_behaviour.html" target="_top" xlink:title="{MonoBehaviour\n||}">
<polygon fill="none" stroke="black" points="0,-171.5 0,-228.5 83,-228.5 83,-171.5 0,-171.5"/>
<text text-anchor="middle" x="41.5" y="-216.5" font-family="Helvetica,sans-Serif" font-size="10.00">MonoBehaviour</text>
<polyline fill="none" stroke="black" points="0,-209.5 83,-209.5 "/>
<text text-anchor="middle" x="41.5" y="-197.5" font-family="Helvetica,sans-Serif" font-size="10.00"> </text>
<polyline fill="none" stroke="black" points="0,-190.5 83,-190.5 "/>
<text text-anchor="middle" x="41.5" y="-178.5" font-family="Helvetica,sans-Serif" font-size="10.00"> </text>
</a>
</g>
</g>
<!-- Node1&#45;&gt;Node0 -->
<g id="edge1" class="edge"><title>Node1&#45;&gt;Node0</title>
<path fill="none" stroke="midnightblue" d="M82.9859,-164.95C104.721,-147.111 131.413,-125.204 153.862,-106.778"/>
<polygon fill="none" stroke="midnightblue" points="80.7291,-162.275 75.2198,-171.324 85.1702,-167.685 80.7291,-162.275"/>
</g>
<!-- Node2 -->
<g id="node3" class="node"><title>Node2</title>
<g id="a_node3"><a xlink:href="class_i_begin_drag_handler.html" target="_top" xlink:title="{IBeginDragHandler\n||}">
<polygon fill="none" stroke="black" points="101,-171.5 101,-228.5 198,-228.5 198,-171.5 101,-171.5"/>
<text text-anchor="middle" x="149.5" y="-216.5" font-family="Helvetica,sans-Serif" font-size="10.00">IBeginDragHandler</text>
<polyline fill="none" stroke="black" points="101,-209.5 198,-209.5 "/>
<text text-anchor="middle" x="149.5" y="-197.5" font-family="Helvetica,sans-Serif" font-size="10.00"> </text>
<polyline fill="none" stroke="black" points="101,-190.5 198,-190.5 "/>
<text text-anchor="middle" x="149.5" y="-178.5" font-family="Helvetica,sans-Serif" font-size="10.00"> </text>
</a>
</g>
</g>
<!-- Node2&#45;&gt;Node0 -->
<g id="edge2" class="edge"><title>Node2&#45;&gt;Node0</title>
<path fill="none" stroke="midnightblue" d="M163.961,-161.996C167.325,-153.39 171.005,-143.972 174.694,-134.533"/>
<polygon fill="none" stroke="midnightblue" points="160.696,-160.736 160.316,-171.324 167.216,-163.284 160.696,-160.736"/>
</g>
<!-- Node3 -->
<g id="node4" class="node"><title>Node3</title>
<g id="a_node4"><a xlink:href="class_i_drag_handler.html" target="_top" xlink:title="{IDragHandler\n||}">
<polygon fill="none" stroke="black" points="216.5,-171.5 216.5,-228.5 288.5,-228.5 288.5,-171.5 216.5,-171.5"/>
<text text-anchor="middle" x="252.5" y="-216.5" font-family="Helvetica,sans-Serif" font-size="10.00">IDragHandler</text>
<polyline fill="none" stroke="black" points="216.5,-209.5 288.5,-209.5 "/>
<text text-anchor="middle" x="252.5" y="-197.5" font-family="Helvetica,sans-Serif" font-size="10.00"> </text>
<polyline fill="none" stroke="black" points="216.5,-190.5 288.5,-190.5 "/>
<text text-anchor="middle" x="252.5" y="-178.5" font-family="Helvetica,sans-Serif" font-size="10.00"> </text>
</a>
</g>
</g>
<!-- Node3&#45;&gt;Node0 -->
<g id="edge3" class="edge"><title>Node3&#45;&gt;Node0</title>
<path fill="none" stroke="midnightblue" d="M237.755,-161.996C234.326,-153.39 230.573,-143.972 226.812,-134.533"/>
<polygon fill="none" stroke="midnightblue" points="234.519,-163.33 241.472,-171.324 241.022,-160.739 234.519,-163.33"/>
</g>
<!-- Node4 -->
<g id="node5" class="node"><title>Node4</title>
<g id="a_node5"><a xlink:href="class_i_end_drag_handler.html" target="_top" xlink:title="{IEndDragHandler\n||}">
<polygon fill="none" stroke="black" points="307,-171.5 307,-228.5 396,-228.5 396,-171.5 307,-171.5"/>
<text text-anchor="middle" x="351.5" y="-216.5" font-family="Helvetica,sans-Serif" font-size="10.00">IEndDragHandler</text>
<polyline fill="none" stroke="black" points="307,-209.5 396,-209.5 "/>
<text text-anchor="middle" x="351.5" y="-197.5" font-family="Helvetica,sans-Serif" font-size="10.00"> </text>
<polyline fill="none" stroke="black" points="307,-190.5 396,-190.5 "/>
<text text-anchor="middle" x="351.5" y="-178.5" font-family="Helvetica,sans-Serif" font-size="10.00"> </text>
</a>
</g>
</g>
<!-- Node4&#45;&gt;Node0 -->
<g id="edge4" class="edge"><title>Node4&#45;&gt;Node0</title>
<path fill="none" stroke="midnightblue" d="M311.818,-164.705C291.969,-147.551 267.82,-126.681 247.095,-108.769"/>
<polygon fill="none" stroke="midnightblue" points="309.622,-167.434 319.477,-171.324 314.199,-162.137 309.622,-167.434"/>
</g>
</g>
</svg>
