<?xml version="1.0" encoding="UTF-8" standalone="no"?>
<!DOCTYPE svg PUBLIC "-//W3C//DTD SVG 1.1//EN"
 "http://www.w3.org/Graphics/SVG/1.1/DTD/svg11.dtd">
<!-- Generated by graphviz version 2.38.0 (20140413.2041)
 -->
<!-- Title: HealingSpell Pages: 1 -->
<svg width="700pt" height="1034pt"
 viewBox="0.00 0.00 700.00 1034.00" xmlns="http://www.w3.org/2000/svg" xmlns:xlink="http://www.w3.org/1999/xlink">
<g id="graph0" class="graph" transform="scale(1 1) rotate(0) translate(4 1030)">
<title>HealingSpell</title>
<!-- Node3 -->
<g id="node1" class="node"><title>Node3</title>
<polygon fill="#bfbfbf" stroke="black" points="358,-585 358,-653 444,-653 444,-585 358,-585"/>
<text text-anchor="middle" x="401" y="-641" font-family="Helvetica,sans-Serif" font-size="10.00">HealingSpell</text>
<polyline fill="none" stroke="black" points="358,-634 444,-634 "/>
<text text-anchor="middle" x="401" y="-622" font-family="Helvetica,sans-Serif" font-size="10.00"> </text>
<polyline fill="none" stroke="black" points="358,-615 444,-615 "/>
<text text-anchor="start" x="366" y="-603" font-family="Helvetica,sans-Serif" font-size="10.00">+ HealingSpell()</text>
<text text-anchor="start" x="366" y="-592" font-family="Helvetica,sans-Serif" font-size="10.00">+ performMove()</text>
</g>
<!-- Node4 -->
<g id="node2" class="node"><title>Node4</title>
<g id="a_node2"><a xlink:href="class_special_move.html" target="_top" xlink:title="Special move abstract base class that expands upon CharacterMove, adding magic properties ...">
<polygon fill="none" stroke="black" points="197,-819.5 197,-909.5 295,-909.5 295,-819.5 197,-819.5"/>
<text text-anchor="middle" x="246" y="-897.5" font-family="Helvetica,sans-Serif" font-size="10.00">SpecialMove</text>
<polyline fill="none" stroke="black" points="197,-890.5 295,-890.5 "/>
<text text-anchor="start" x="205" y="-878.5" font-family="Helvetica,sans-Serif" font-size="10.00">+ Magic</text>
<text text-anchor="start" x="205" y="-867.5" font-family="Helvetica,sans-Serif" font-size="10.00">+ Desc</text>
<polyline fill="none" stroke="black" points="197,-860.5 295,-860.5 "/>
<text text-anchor="start" x="205" y="-848.5" font-family="Helvetica,sans-Serif" font-size="10.00">+ setUp()</text>
<text text-anchor="start" x="205" y="-837.5" font-family="Helvetica,sans-Serif" font-size="10.00">+ decreaseMagic()</text>
<text text-anchor="start" x="205" y="-826.5" font-family="Helvetica,sans-Serif" font-size="10.00"># SpecialMove()</text>
</a>
</g>
</g>
<!-- Node4&#45;&gt;Node3 -->
<g id="edge1" class="edge"><title>Node4&#45;&gt;Node3</title>
<path fill="none" stroke="midnightblue" d="M285.121,-811.074C287.482,-807.688 289.792,-804.31 292,-801 325.586,-750.649 361.159,-690.012 382.204,-653.266"/>
<polygon fill="none" stroke="midnightblue" points="282.097,-809.289 279.182,-819.475 287.813,-813.33 282.097,-809.289"/>
</g>
<!-- Node7 -->
<g id="node5" class="node"><title>Node7</title>
<g id="a_node5"><a xlink:href="class_character.html" target="_top" xlink:title="Base abstract class for Enemy and Player to inherit from. Defines all shared variables, their constructor and their setters and getters ">
<polygon fill="none" stroke="black" points="242.5,-535.5 242.5,-702.5 337.5,-702.5 337.5,-535.5 242.5,-535.5"/>
<text text-anchor="middle" x="290" y="-690.5" font-family="Helvetica,sans-Serif" font-size="10.00">Character</text>
<polyline fill="none" stroke="black" points="242.5,-683.5 337.5,-683.5 "/>
<text text-anchor="start" x="250.5" y="-671.5" font-family="Helvetica,sans-Serif" font-size="10.00">+ Name</text>
<text text-anchor="start" x="250.5" y="-660.5" font-family="Helvetica,sans-Serif" font-size="10.00">+ Level</text>
<text text-anchor="start" x="250.5" y="-649.5" font-family="Helvetica,sans-Serif" font-size="10.00">+ Health</text>
<text text-anchor="start" x="250.5" y="-638.5" font-family="Helvetica,sans-Serif" font-size="10.00">+ Attack</text>
<text text-anchor="start" x="250.5" y="-627.5" font-family="Helvetica,sans-Serif" font-size="10.00">+ Defence</text>
<text text-anchor="start" x="250.5" y="-616.5" font-family="Helvetica,sans-Serif" font-size="10.00">+ MaximumMagic</text>
<text text-anchor="start" x="250.5" y="-605.5" font-family="Helvetica,sans-Serif" font-size="10.00">+ Magic</text>
<text text-anchor="start" x="250.5" y="-594.5" font-family="Helvetica,sans-Serif" font-size="10.00">+ Luck</text>
<text text-anchor="start" x="250.5" y="-583.5" font-family="Helvetica,sans-Serif" font-size="10.00">+ Speed</text>
<text text-anchor="start" x="250.5" y="-572.5" font-family="Helvetica,sans-Serif" font-size="10.00">+ Special1</text>
<text text-anchor="start" x="250.5" y="-561.5" font-family="Helvetica,sans-Serif" font-size="10.00">+ Special2</text>
<polyline fill="none" stroke="black" points="242.5,-554.5 337.5,-554.5 "/>
<text text-anchor="start" x="250.5" y="-542.5" font-family="Helvetica,sans-Serif" font-size="10.00"># Character()</text>
</a>
</g>
</g>
<!-- Node4&#45;&gt;Node7 -->
<g id="edge7" class="edge"><title>Node4&#45;&gt;Node7</title>
<path fill="none" stroke="#404040" d="M241.872,-819.372C240.301,-790.981 240.259,-753.459 247,-721 247.453,-718.821 247.953,-716.63 248.497,-714.433"/>
<polygon fill="none" stroke="#404040" points="248.556,-714.221 246.317,-707.366 251.783,-702.663 254.022,-709.517 248.556,-714.221"/>
<text text-anchor="middle" x="269.5" y="-764" font-family="Helvetica,sans-Serif" font-size="10.00"> #special1</text>
<text text-anchor="middle" x="269.5" y="-753" font-family="Helvetica,sans-Serif" font-size="10.00">#special2</text>
</g>
<!-- Node5 -->
<g id="node3" class="node"><title>Node5</title>
<g id="a_node3"><a xlink:href="class_character_move.html" target="_top" xlink:title="Astract base class for character moves ">
<polygon fill="none" stroke="black" points="105,-0.5 105,-79.5 191,-79.5 191,-0.5 105,-0.5"/>
<text text-anchor="middle" x="148" y="-67.5" font-family="Helvetica,sans-Serif" font-size="10.00">CharacterMove</text>
<polyline fill="none" stroke="black" points="105,-60.5 191,-60.5 "/>
<text text-anchor="start" x="113" y="-48.5" font-family="Helvetica,sans-Serif" font-size="10.00">+ User</text>
<text text-anchor="start" x="113" y="-37.5" font-family="Helvetica,sans-Serif" font-size="10.00">+ Target</text>
<text text-anchor="start" x="113" y="-26.5" font-family="Helvetica,sans-Serif" font-size="10.00">+ Text</text>
<polyline fill="none" stroke="black" points="105,-19.5 191,-19.5 "/>
<text text-anchor="start" x="113" y="-7.5" font-family="Helvetica,sans-Serif" font-size="10.00">+ performMove()</text>
</a>
</g>
</g>
<!-- Node5&#45;&gt;Node4 -->
<g id="edge2" class="edge"><title>Node5&#45;&gt;Node4</title>
<path fill="none" stroke="midnightblue" d="M144.981,-89.5293C141.519,-147.797 136.058,-248.496 134,-335 133.767,-344.775 132.324,-347.367 134,-357 144.601,-417.941 159.493,-430.003 181,-488 188.777,-508.973 193.381,-513.349 199,-535 206.01,-562.011 229.331,-736.301 240.258,-819.466"/>
<polygon fill="none" stroke="midnightblue" points="148.477,-89.6965 145.581,-79.5051 141.489,-89.2778 148.477,-89.6965"/>
</g>
<!-- Node6 -->
<g id="node4" class="node"><title>Node6</title>
<polygon fill="none" stroke="#bfbfbf" points="79.5,-968.5 79.5,-1025.5 120.5,-1025.5 120.5,-968.5 79.5,-968.5"/>
<text text-anchor="middle" x="100" y="-1013.5" font-family="Helvetica,sans-Serif" font-size="10.00">string</text>
<polyline fill="none" stroke="#bfbfbf" points="79.5,-1006.5 120.5,-1006.5 "/>
<text text-anchor="middle" x="100" y="-994.5" font-family="Helvetica,sans-Serif" font-size="10.00"> </text>
<polyline fill="none" stroke="#bfbfbf" points="79.5,-987.5 120.5,-987.5 "/>
<text text-anchor="middle" x="100" y="-975.5" font-family="Helvetica,sans-Serif" font-size="10.00"> </text>
</g>
<!-- Node6&#45;&gt;Node4 -->
<g id="edge20" class="edge"><title>Node6&#45;&gt;Node4</title>
<path fill="none" stroke="#404040" d="M120.766,-981.059C132.552,-972.34 147.417,-960.933 160,-950 171.47,-940.034 183.351,-928.925 194.486,-918.123"/>
<polygon fill="none" stroke="#404040" points="194.662,-917.951 196.15,-910.895 203.235,-909.554 201.748,-916.61 194.662,-917.951"/>
<text text-anchor="middle" x="198" y="-936.5" font-family="Helvetica,sans-Serif" font-size="10.00"> #desc</text>
</g>
<!-- Node6&#45;&gt;Node5 -->
<g id="edge3" class="edge"><title>Node6&#45;&gt;Node5</title>
<path fill="none" stroke="#404040" d="M79.2799,-982.263C49.9893,-961.007 0,-917.163 0,-865.5 0,-865.5 0,-865.5 0,-221 0,-159.258 52.597,-107.16 95.0804,-75.1508"/>
<polygon fill="none" stroke="#404040" points="95.1109,-75.1286 97.5902,-68.3571 104.794,-68.0413 102.315,-74.8128 95.1109,-75.1286"/>
<text text-anchor="middle" x="12.5" y="-509" font-family="Helvetica,sans-Serif" font-size="10.00"> #text</text>
</g>
<!-- Node6&#45;&gt;Node7 -->
<g id="edge5" class="edge"><title>Node6&#45;&gt;Node7</title>
<path fill="none" stroke="#404040" d="M120.706,-970.385C125.01,-964.027 129.109,-957.016 132,-950 154.518,-895.344 132.276,-873.571 155,-819 177.848,-764.13 199.135,-756.203 235.519,-704.875"/>
<polygon fill="none" stroke="#404040" points="235.679,-704.643 235.793,-697.432 242.492,-694.764 242.378,-701.975 235.679,-704.643"/>
<text text-anchor="middle" x="171.5" y="-862" font-family="Helvetica,sans-Serif" font-size="10.00"> #name</text>
</g>
<!-- Node9 -->
<g id="node7" class="node"><title>Node9</title>
<g id="a_node7"><a xlink:href="class_battle_manager.html" target="_top" xlink:title="{BattleManager\n|+ Player\l+ Enemy\l+ WasCriticalHit\l|+ BattleManager()\l+ playerFirst()\l+ switchPlayers()\l+ isCriticalHit()\l+ ranAway()\l+ damageCalculation()\l+ enemyMove()\l+ enemySpecialMove()\l+ battleWon()\l+ playerFainted()\l&#45; characterFainted()\l}">
<polygon fill="none" stroke="black" points="244,-127.5 244,-316.5 360,-316.5 360,-127.5 244,-127.5"/>
<text text-anchor="middle" x="302" y="-304.5" font-family="Helvetica,sans-Serif" font-size="10.00">BattleManager</text>
<polyline fill="none" stroke="black" points="244,-297.5 360,-297.5 "/>
<text text-anchor="start" x="252" y="-285.5" font-family="Helvetica,sans-Serif" font-size="10.00">+ Player</text>
<text text-anchor="start" x="252" y="-274.5" font-family="Helvetica,sans-Serif" font-size="10.00">+ Enemy</text>
<text text-anchor="start" x="252" y="-263.5" font-family="Helvetica,sans-Serif" font-size="10.00">+ WasCriticalHit</text>
<polyline fill="none" stroke="black" points="244,-256.5 360,-256.5 "/>
<text text-anchor="start" x="252" y="-244.5" font-family="Helvetica,sans-Serif" font-size="10.00">+ BattleManager()</text>
<text text-anchor="start" x="252" y="-233.5" font-family="Helvetica,sans-Serif" font-size="10.00">+ playerFirst()</text>
<text text-anchor="start" x="252" y="-222.5" font-family="Helvetica,sans-Serif" font-size="10.00">+ switchPlayers()</text>
<text text-anchor="start" x="252" y="-211.5" font-family="Helvetica,sans-Serif" font-size="10.00">+ isCriticalHit()</text>
<text text-anchor="start" x="252" y="-200.5" font-family="Helvetica,sans-Serif" font-size="10.00">+ ranAway()</text>
<text text-anchor="start" x="252" y="-189.5" font-family="Helvetica,sans-Serif" font-size="10.00">+ damageCalculation()</text>
<text text-anchor="start" x="252" y="-178.5" font-family="Helvetica,sans-Serif" font-size="10.00">+ enemyMove()</text>
<text text-anchor="start" x="252" y="-167.5" font-family="Helvetica,sans-Serif" font-size="10.00">+ enemySpecialMove()</text>
<text text-anchor="start" x="252" y="-156.5" font-family="Helvetica,sans-Serif" font-size="10.00">+ battleWon()</text>
<text text-anchor="start" x="252" y="-145.5" font-family="Helvetica,sans-Serif" font-size="10.00">+ playerFainted()</text>
<text text-anchor="start" x="252" y="-134.5" font-family="Helvetica,sans-Serif" font-size="10.00">&#45; characterFainted()</text>
</a>
</g>
</g>
<!-- Node6&#45;&gt;Node9 -->
<g id="edge9" class="edge"><title>Node6&#45;&gt;Node9</title>
<path fill="none" stroke="#404040" d="M89.3224,-968.354C62.867,-895.774 -0.333809,-694.401 46,-535 77.3624,-427.105 169.887,-331.956 234.642,-275.922"/>
<polygon fill="none" stroke="#404040" points="234.859,-275.736 236.823,-268.798 243.983,-267.942 242.019,-274.88 234.859,-275.736"/>
<text text-anchor="middle" x="85" y="-616.5" font-family="Helvetica,sans-Serif" font-size="10.00"> +forceCriticalHits</text>
</g>
<!-- Node13 -->
<g id="node11" class="node"><title>Node13</title>
<g id="a_node11"><a xlink:href="class_item.html" target="_top" xlink:title="{Item\n|+ Name\l+ Desc\l|+ applyBuffs()\l+ revertBuffs()\l}">
<polygon fill="none" stroke="black" points="61.5,-721.5 61.5,-800.5 138.5,-800.5 138.5,-721.5 61.5,-721.5"/>
<text text-anchor="middle" x="100" y="-788.5" font-family="Helvetica,sans-Serif" font-size="10.00">Item</text>
<polyline fill="none" stroke="black" points="61.5,-781.5 138.5,-781.5 "/>
<text text-anchor="start" x="69.5" y="-769.5" font-family="Helvetica,sans-Serif" font-size="10.00">+ Name</text>
<text text-anchor="start" x="69.5" y="-758.5" font-family="Helvetica,sans-Serif" font-size="10.00">+ Desc</text>
<polyline fill="none" stroke="black" points="61.5,-751.5 138.5,-751.5 "/>
<text text-anchor="start" x="69.5" y="-739.5" font-family="Helvetica,sans-Serif" font-size="10.00">+ applyBuffs()</text>
<text text-anchor="start" x="69.5" y="-728.5" font-family="Helvetica,sans-Serif" font-size="10.00">+ revertBuffs()</text>
</a>
</g>
</g>
<!-- Node6&#45;&gt;Node13 -->
<g id="edge18" class="edge"><title>Node6&#45;&gt;Node13</title>
<path fill="none" stroke="#404040" d="M100,-968.238C100,-930.009 100,-860.485 100,-812.81"/>
<polygon fill="none" stroke="#404040" points="100,-812.591 96,-806.591 100,-800.591 104,-806.591 100,-812.591"/>
<text text-anchor="middle" x="115" y="-942" font-family="Helvetica,sans-Serif" font-size="10.00"> #desc</text>
<text text-anchor="middle" x="115" y="-931" font-family="Helvetica,sans-Serif" font-size="10.00">#name</text>
</g>
<!-- Node7&#45;&gt;Node5 -->
<g id="edge4" class="edge"><title>Node7&#45;&gt;Node5</title>
<path fill="none" stroke="#404040" d="M242.336,-546.399C231.899,-528.005 221.916,-507.802 215,-488 166.773,-349.923 153.256,-175.961 149.47,-91.5576"/>
<polygon fill="none" stroke="#404040" points="149.468,-91.5163 145.223,-85.6876 148.97,-79.5266 153.216,-85.3553 149.468,-91.5163"/>
<text text-anchor="middle" x="197" y="-349" font-family="Helvetica,sans-Serif" font-size="10.00"> #target</text>
<text text-anchor="middle" x="197" y="-338" font-family="Helvetica,sans-Serif" font-size="10.00">#user</text>
</g>
<!-- Node10 -->
<g id="node8" class="node"><title>Node10</title>
<g id="a_node8"><a xlink:href="class_enemy.html" target="_top" xlink:title="Defines an AI controller enemy to fight in battle scenes">
<polygon fill="none" stroke="black" points="578.5,-403 578.5,-460 645.5,-460 645.5,-403 578.5,-403"/>
<text text-anchor="middle" x="612" y="-448" font-family="Helvetica,sans-Serif" font-size="10.00">Enemy</text>
<polyline fill="none" stroke="black" points="578.5,-441 645.5,-441 "/>
<text text-anchor="start" x="586.5" y="-429" font-family="Helvetica,sans-Serif" font-size="10.00">+ ExpGiven</text>
<polyline fill="none" stroke="black" points="578.5,-422 645.5,-422 "/>
<text text-anchor="start" x="586.5" y="-410" font-family="Helvetica,sans-Serif" font-size="10.00">+ Enemy()</text>
</a>
</g>
</g>
<!-- Node7&#45;&gt;Node10 -->
<g id="edge11" class="edge"><title>Node7&#45;&gt;Node10</title>
<path fill="none" stroke="midnightblue" d="M345.384,-537.946C346.575,-536.934 347.78,-535.951 349,-535 420.109,-479.557 524.865,-450.862 578.166,-439.106"/>
<polygon fill="none" stroke="midnightblue" points="342.715,-535.647 337.747,-545.005 347.466,-540.787 342.715,-535.647"/>
</g>
<!-- Node12 -->
<g id="node10" class="node"><title>Node12</title>
<g id="a_node10"><a xlink:href="class_player.html" target="_top" xlink:title="Defines a playable character for use in battle scenes">
<polygon fill="none" stroke="black" points="278,-375.5 278,-487.5 390,-487.5 390,-375.5 278,-375.5"/>
<text text-anchor="middle" x="334" y="-475.5" font-family="Helvetica,sans-Serif" font-size="10.00">Player</text>
<polyline fill="none" stroke="black" points="278,-468.5 390,-468.5 "/>
<text text-anchor="start" x="286" y="-456.5" font-family="Helvetica,sans-Serif" font-size="10.00">+ Exp</text>
<text text-anchor="start" x="286" y="-445.5" font-family="Helvetica,sans-Serif" font-size="10.00">+ Item</text>
<text text-anchor="start" x="286" y="-434.5" font-family="Helvetica,sans-Serif" font-size="10.00">+ ExpToNextLevel</text>
<polyline fill="none" stroke="black" points="278,-427.5 390,-427.5 "/>
<text text-anchor="start" x="286" y="-415.5" font-family="Helvetica,sans-Serif" font-size="10.00">+ Player()</text>
<text text-anchor="start" x="286" y="-404.5" font-family="Helvetica,sans-Serif" font-size="10.00">+ gainExp()</text>
<text text-anchor="start" x="286" y="-393.5" font-family="Helvetica,sans-Serif" font-size="10.00">+ levelUp()</text>
<text text-anchor="start" x="286" y="-382.5" font-family="Helvetica,sans-Serif" font-size="10.00">&#45; setExpToNextLevel()</text>
</a>
</g>
</g>
<!-- Node7&#45;&gt;Node12 -->
<g id="edge16" class="edge"><title>Node7&#45;&gt;Node12</title>
<path fill="none" stroke="midnightblue" d="M311.96,-525.42C315.025,-512.496 318.092,-499.566 320.922,-487.637"/>
<polygon fill="none" stroke="midnightblue" points="308.522,-524.749 309.619,-535.286 315.333,-526.364 308.522,-524.749"/>
</g>
<!-- Node8 -->
<g id="node6" class="node"><title>Node8</title>
<polygon fill="none" stroke="#bfbfbf" points="462.5,-968.5 462.5,-1025.5 491.5,-1025.5 491.5,-968.5 462.5,-968.5"/>
<text text-anchor="middle" x="477" y="-1013.5" font-family="Helvetica,sans-Serif" font-size="10.00">int</text>
<polyline fill="none" stroke="#bfbfbf" points="462.5,-1006.5 491.5,-1006.5 "/>
<text text-anchor="middle" x="477" y="-994.5" font-family="Helvetica,sans-Serif" font-size="10.00"> </text>
<polyline fill="none" stroke="#bfbfbf" points="462.5,-987.5 491.5,-987.5 "/>
<text text-anchor="middle" x="477" y="-975.5" font-family="Helvetica,sans-Serif" font-size="10.00"> </text>
</g>
<!-- Node8&#45;&gt;Node3 -->
<g id="edge22" class="edge"><title>Node8&#45;&gt;Node3</title>
<path fill="none" stroke="#404040" d="M469.822,-968.199C465.582,-951.399 460.233,-929.527 456,-910 437.289,-823.683 418.843,-722.143 408.786,-665.004"/>
<polygon fill="none" stroke="#404040" points="408.783,-664.987 403.807,-659.767 406.711,-653.167 411.687,-658.386 408.783,-664.987"/>
<text text-anchor="middle" x="477.5" y="-862" font-family="Helvetica,sans-Serif" font-size="10.00"> &#45;increase</text>
</g>
<!-- Node8&#45;&gt;Node4 -->
<g id="edge21" class="edge"><title>Node8&#45;&gt;Node4</title>
<path fill="none" stroke="#404040" d="M462.332,-996.75C426.98,-997.757 336.012,-995.481 282,-950 272.76,-942.22 265.837,-931.645 260.667,-920.612"/>
<polygon fill="none" stroke="#404040" points="260.661,-920.595 254.667,-916.586 256.062,-909.511 262.056,-913.52 260.661,-920.595"/>
<text text-anchor="middle" x="299.5" y="-936.5" font-family="Helvetica,sans-Serif" font-size="10.00"> #magic</text>
</g>
<!-- Node8&#45;&gt;Node7 -->
<g id="edge6" class="edge"><title>Node8&#45;&gt;Node7</title>
<path fill="none" stroke="#404040" d="M462.438,-989.607C437.213,-977.751 385.548,-949.883 359,-910 320.434,-852.062 303.346,-774.965 295.813,-714.828"/>
<polygon fill="none" stroke="#404040" points="295.783,-714.571 291.112,-709.077 294.388,-702.652 299.058,-708.147 295.783,-714.571"/>
<text text-anchor="middle" x="396.5" y="-900.5" font-family="Helvetica,sans-Serif" font-size="10.00"> #speed</text>
<text text-anchor="middle" x="396.5" y="-889.5" font-family="Helvetica,sans-Serif" font-size="10.00">#luck</text>
<text text-anchor="middle" x="396.5" y="-878.5" font-family="Helvetica,sans-Serif" font-size="10.00">#health</text>
<text text-anchor="middle" x="396.5" y="-867.5" font-family="Helvetica,sans-Serif" font-size="10.00">#magic</text>
<text text-anchor="middle" x="396.5" y="-856.5" font-family="Helvetica,sans-Serif" font-size="10.00">#maximumMagic</text>
<text text-anchor="middle" x="396.5" y="-845.5" font-family="Helvetica,sans-Serif" font-size="10.00">#attack</text>
<text text-anchor="middle" x="396.5" y="-834.5" font-family="Helvetica,sans-Serif" font-size="10.00">#defence</text>
<text text-anchor="middle" x="396.5" y="-823.5" font-family="Helvetica,sans-Serif" font-size="10.00">#level</text>
</g>
<!-- Node8&#45;&gt;Node9 -->
<g id="edge13" class="edge"><title>Node8&#45;&gt;Node9</title>
<path fill="none" stroke="#404040" d="M491.69,-977.102C497.393,-969.083 503.598,-959.423 508,-950 551.826,-856.174 570.489,-822.706 551,-721 521.644,-567.801 430.359,-409.864 366.883,-314.034"/>
<polygon fill="none" stroke="#404040" points="366.721,-313.791 360.063,-311.021 360.059,-303.809 366.717,-306.58 366.721,-313.791"/>
<text text-anchor="middle" x="566.5" y="-616.5" font-family="Helvetica,sans-Serif" font-size="10.00"> +money</text>
</g>
<!-- Node8&#45;&gt;Node10 -->
<g id="edge12" class="edge"><title>Node8&#45;&gt;Node10</title>
<path fill="none" stroke="#404040" d="M491.84,-994.105C514.865,-990.296 558.659,-979.391 579,-950 682.474,-800.492 643.22,-564.788 622.039,-471.95"/>
<polygon fill="none" stroke="#404040" points="621.994,-471.757 616.728,-466.831 619.249,-460.075 624.516,-465.001 621.994,-471.757"/>
<text text-anchor="middle" x="669" y="-758.5" font-family="Helvetica,sans-Serif" font-size="10.00"> &#45;expGiven</text>
</g>
<!-- Node8&#45;&gt;Node12 -->
<g id="edge19" class="edge"><title>Node8&#45;&gt;Node12</title>
<path fill="none" stroke="#404040" d="M485.924,-968.454C490.864,-951.744 496.498,-929.878 499,-910 504.051,-869.872 516.715,-855.359 499,-819 493.315,-807.331 482.183,-812.413 476,-801 419.474,-696.665 507.058,-640.635 453,-535 440.775,-511.112 420.363,-490.442 399.865,-474.047"/>
<polygon fill="none" stroke="#404040" points="399.667,-473.895 392.472,-473.411 390.152,-466.583 397.347,-467.067 399.667,-473.895"/>
<text text-anchor="middle" x="513.5" y="-764" font-family="Helvetica,sans-Serif" font-size="10.00"> &#45;expToNextLevel</text>
<text text-anchor="middle" x="513.5" y="-753" font-family="Helvetica,sans-Serif" font-size="10.00">&#45;exp</text>
</g>
<!-- Node9&#45;&gt;Node5 -->
<g id="edge8" class="edge"><title>Node9&#45;&gt;Node5</title>
<path fill="none" stroke="#404040" d="M243.774,-149.624C229.604,-132.578 214.384,-114.535 200,-98 197.406,-95.0187 194.72,-91.9675 191.997,-88.9023"/>
<polygon fill="none" stroke="#404040" points="191.778,-88.6584 184.796,-86.8579 183.772,-79.7198 190.755,-81.5203 191.778,-88.6584"/>
<text text-anchor="middle" x="232" y="-101" font-family="Helvetica,sans-Serif" font-size="10.00"> #manager</text>
</g>
<!-- Node10&#45;&gt;Node9 -->
<g id="edge10" class="edge"><title>Node10&#45;&gt;Node9</title>
<path fill="none" stroke="#404040" d="M603.81,-402.601C596.4,-381.62 583.604,-353.429 564,-335 509.993,-284.23 429.448,-254.522 371.934,-238.614"/>
<polygon fill="none" stroke="#404040" points="371.62,-238.53 364.79,-240.842 360.028,-235.427 366.859,-233.115 371.62,-238.53"/>
<text text-anchor="middle" x="598" y="-343.5" font-family="Helvetica,sans-Serif" font-size="10.00"> &#45;enemy</text>
</g>
<!-- Node11 -->
<g id="node9" class="node"><title>Node11</title>
<polygon fill="none" stroke="#bfbfbf" points="224.5,-403 224.5,-460 259.5,-460 259.5,-403 224.5,-403"/>
<text text-anchor="middle" x="242" y="-448" font-family="Helvetica,sans-Serif" font-size="10.00">bool</text>
<polyline fill="none" stroke="#bfbfbf" points="224.5,-441 259.5,-441 "/>
<text text-anchor="middle" x="242" y="-429" font-family="Helvetica,sans-Serif" font-size="10.00"> </text>
<polyline fill="none" stroke="#bfbfbf" points="224.5,-422 259.5,-422 "/>
<text text-anchor="middle" x="242" y="-410" font-family="Helvetica,sans-Serif" font-size="10.00"> </text>
</g>
<!-- Node11&#45;&gt;Node9 -->
<g id="edge14" class="edge"><title>Node11&#45;&gt;Node9</title>
<path fill="none" stroke="#404040" d="M241.772,-402.898C242.225,-383.588 244.074,-357.355 250,-335 250.608,-332.708 251.26,-330.404 251.952,-328.095"/>
<polygon fill="none" stroke="#404040" points="252.004,-327.936 250.057,-320.992 255.718,-316.525 257.664,-323.468 252.004,-327.936"/>
<text text-anchor="middle" x="283" y="-343.5" font-family="Helvetica,sans-Serif" font-size="10.00"> &#45;wasCriticalHit</text>
</g>
<!-- Node12&#45;&gt;Node9 -->
<g id="edge15" class="edge"><title>Node12&#45;&gt;Node9</title>
<path fill="none" stroke="#404040" d="M325.509,-375.439C323.295,-361.087 320.834,-345.128 318.362,-329.095"/>
<polygon fill="none" stroke="#404040" points="318.301,-328.704 313.434,-323.384 316.472,-316.845 321.34,-322.165 318.301,-328.704"/>
<text text-anchor="middle" x="338.5" y="-343.5" font-family="Helvetica,sans-Serif" font-size="10.00"> &#45;player</text>
</g>
<!-- Node13&#45;&gt;Node12 -->
<g id="edge17" class="edge"><title>Node13&#45;&gt;Node12</title>
<path fill="none" stroke="#404040" d="M119.041,-721.398C122.051,-715.25 125.12,-708.955 128,-703 164.01,-628.551 156.298,-599.546 208,-535 229.177,-508.562 241.7,-509.348 268,-488 268.203,-487.835 268.407,-487.669 268.611,-487.504"/>
<polygon fill="none" stroke="#404040" points="268.655,-487.468 270.764,-480.572 277.941,-479.867 275.832,-486.763 268.655,-487.468"/>
<text text-anchor="middle" x="220.5" y="-616.5" font-family="Helvetica,sans-Serif" font-size="10.00"> &#45;item</text>
</g>
</g>
</svg>
