<?xml version="1.0" encoding="UTF-8" standalone="no"?>
<!DOCTYPE svg PUBLIC "-//W3C//DTD SVG 1.1//EN"
 "http://www.w3.org/Graphics/SVG/1.1/DTD/svg11.dtd">
<!-- Generated by graphviz version 2.38.0 (20140413.2041)
 -->
<!-- Title: WorldMapScript Pages: 1 -->
<svg width="98pt" height="171pt"
 viewBox="0.00 0.00 98.00 171.00" xmlns="http://www.w3.org/2000/svg" xmlns:xlink="http://www.w3.org/1999/xlink">
<g id="graph0" class="graph" transform="scale(1 1) rotate(0) translate(4 167)">
<title>WorldMapScript</title>
<!-- Node2 -->
<g id="node1" class="node"><title>Node2</title>
<polygon fill="#bfbfbf" stroke="black" points="0,-0.5 0,-68.5 90,-68.5 90,-0.5 0,-0.5"/>
<text text-anchor="middle" x="45" y="-56.5" font-family="Helvetica,sans-Serif" font-size="10.00">WorldMapScript</text>
<polyline fill="none" stroke="black" points="0,-49.5 90,-49.5 "/>
<text text-anchor="middle" x="45" y="-37.5" font-family="Helvetica,sans-Serif" font-size="10.00"> </text>
<polyline fill="none" stroke="black" points="0,-30.5 90,-30.5 "/>
<text text-anchor="start" x="8" y="-18.5" font-family="Helvetica,sans-Serif" font-size="10.00">&#45; Start()</text>
<text text-anchor="start" x="8" y="-7.5" font-family="Helvetica,sans-Serif" font-size="10.00">&#45; renderBuilding()</text>
</g>
<!-- Node3 -->
<g id="node2" class="node"><title>Node3</title>
<g id="a_node2"><a xlink:href="class_mono_behaviour.html" target="_top" xlink:title="{MonoBehaviour\n||}">
<polygon fill="none" stroke="black" points="3.5,-105.5 3.5,-162.5 86.5,-162.5 86.5,-105.5 3.5,-105.5"/>
<text text-anchor="middle" x="45" y="-150.5" font-family="Helvetica,sans-Serif" font-size="10.00">MonoBehaviour</text>
<polyline fill="none" stroke="black" points="3.5,-143.5 86.5,-143.5 "/>
<text text-anchor="middle" x="45" y="-131.5" font-family="Helvetica,sans-Serif" font-size="10.00"> </text>
<polyline fill="none" stroke="black" points="3.5,-124.5 86.5,-124.5 "/>
<text text-anchor="middle" x="45" y="-112.5" font-family="Helvetica,sans-Serif" font-size="10.00"> </text>
</a>
</g>
</g>
<!-- Node3&#45;&gt;Node2 -->
<g id="edge1" class="edge"><title>Node3&#45;&gt;Node2</title>
<path fill="none" stroke="midnightblue" d="M45,-95.0631C45,-86.3933 45,-77.2431 45,-68.7855"/>
<polygon fill="none" stroke="midnightblue" points="41.5001,-95.3212 45,-105.321 48.5001,-95.3212 41.5001,-95.3212"/>
</g>
</g>
</svg>
