<?xml version="1.0" encoding="UTF-8" standalone="no"?>
<!DOCTYPE svg PUBLIC "-//W3C//DTD SVG 1.1//EN"
 "http://www.w3.org/Graphics/SVG/1.1/DTD/svg11.dtd">
<!-- Generated by graphviz version 2.38.0 (20140413.2041)
 -->
<!-- Title: BattleDescriptor Pages: 1 -->
<svg width="1056pt" height="1647pt"
 viewBox="0.00 0.00 1055.50 1647.00" xmlns="http://www.w3.org/2000/svg" xmlns:xlink="http://www.w3.org/1999/xlink">
<g id="graph0" class="graph" transform="scale(1 1) rotate(0) translate(4 1643)">
<title>BattleDescriptor</title>
<!-- Node2 -->
<g id="node1" class="node"><title>Node2</title>
<polygon fill="#bfbfbf" stroke="black" points="711,-0.5 711,-68.5 821,-68.5 821,-0.5 711,-0.5"/>
<text text-anchor="middle" x="766" y="-56.5" font-family="Helvetica,sans-Serif" font-size="10.00">BattleDescriptor</text>
<polyline fill="none" stroke="black" points="711,-49.5 821,-49.5 "/>
<text text-anchor="middle" x="766" y="-37.5" font-family="Helvetica,sans-Serif" font-size="10.00"> </text>
<polyline fill="none" stroke="black" points="711,-30.5 821,-30.5 "/>
<text text-anchor="start" x="719" y="-18.5" font-family="Helvetica,sans-Serif" font-size="10.00">+ createBattle()</text>
<text text-anchor="start" x="719" y="-7.5" font-family="Helvetica,sans-Serif" font-size="10.00">&#45; createSpecialMove()</text>
</g>
<!-- Node3 -->
<g id="node2" class="node"><title>Node3</title>
<g id="a_node2"><a xlink:href="class_mono_behaviour.html" target="_top" xlink:title="{MonoBehaviour\n||}">
<polygon fill="none" stroke="black" points="132.5,-304 132.5,-361 215.5,-361 215.5,-304 132.5,-304"/>
<text text-anchor="middle" x="174" y="-349" font-family="Helvetica,sans-Serif" font-size="10.00">MonoBehaviour</text>
<polyline fill="none" stroke="black" points="132.5,-342 215.5,-342 "/>
<text text-anchor="middle" x="174" y="-330" font-family="Helvetica,sans-Serif" font-size="10.00"> </text>
<polyline fill="none" stroke="black" points="132.5,-323 215.5,-323 "/>
<text text-anchor="middle" x="174" y="-311" font-family="Helvetica,sans-Serif" font-size="10.00"> </text>
</a>
</g>
</g>
<!-- Node3&#45;&gt;Node2 -->
<g id="edge1" class="edge"><title>Node3&#45;&gt;Node2</title>
<path fill="none" stroke="midnightblue" d="M219.941,-298.081C233.381,-288.52 248.178,-278.201 262,-269 361.377,-202.851 381.919,-177.694 490,-127 563.697,-92.4335 654.057,-65.1098 710.849,-49.6191"/>
<polygon fill="none" stroke="midnightblue" points="217.87,-295.259 211.768,-303.92 221.94,-300.954 217.87,-295.259"/>
</g>
<!-- Node5 -->
<g id="node4" class="node"><title>Node5</title>
<g id="a_node4"><a xlink:href="class_global_functions.html" target="_top" xlink:title="Provides functions and variables to be accessed by any game object to allow data to be passed between...">
<polygon fill="none" stroke="black" points="499.5,-127.5 499.5,-250.5 586.5,-250.5 586.5,-127.5 499.5,-127.5"/>
<text text-anchor="middle" x="543" y="-238.5" font-family="Helvetica,sans-Serif" font-size="10.00">GlobalFunctions</text>
<polyline fill="none" stroke="black" points="499.5,-231.5 586.5,-231.5 "/>
<text text-anchor="middle" x="543" y="-219.5" font-family="Helvetica,sans-Serif" font-size="10.00"> </text>
<polyline fill="none" stroke="black" points="499.5,-212.5 586.5,-212.5 "/>
<text text-anchor="start" x="507.5" y="-200.5" font-family="Helvetica,sans-Serif" font-size="10.00">+ createBattle()</text>
<text text-anchor="start" x="507.5" y="-189.5" font-family="Helvetica,sans-Serif" font-size="10.00">+ getEnemy()</text>
<text text-anchor="start" x="507.5" y="-178.5" font-family="Helvetica,sans-Serif" font-size="10.00">+ getMoney()</text>
<text text-anchor="start" x="507.5" y="-167.5" font-family="Helvetica,sans-Serif" font-size="10.00">+ getItem()</text>
<text text-anchor="start" x="507.5" y="-156.5" font-family="Helvetica,sans-Serif" font-size="10.00">+ endBattle()</text>
<text text-anchor="start" x="507.5" y="-145.5" font-family="Helvetica,sans-Serif" font-size="10.00">+ createItem()</text>
<text text-anchor="start" x="507.5" y="-134.5" font-family="Helvetica,sans-Serif" font-size="10.00">&#45; Awake()</text>
</a>
</g>
</g>
<!-- Node3&#45;&gt;Node5 -->
<g id="edge4" class="edge"><title>Node3&#45;&gt;Node5</title>
<path fill="none" stroke="midnightblue" d="M221.94,-299.038C222.628,-298.684 223.315,-298.338 224,-298 317.857,-251.688 436.422,-217.339 499.255,-200.865"/>
<polygon fill="none" stroke="midnightblue" points="220.054,-296.081 212.995,-303.982 223.44,-302.208 220.054,-296.081"/>
</g>
<!-- Node4 -->
<g id="node3" class="node"><title>Node4</title>
<polygon fill="none" stroke="#bfbfbf" points="161.5,-1581.5 161.5,-1638.5 202.5,-1638.5 202.5,-1581.5 161.5,-1581.5"/>
<text text-anchor="middle" x="182" y="-1626.5" font-family="Helvetica,sans-Serif" font-size="10.00">string</text>
<polyline fill="none" stroke="#bfbfbf" points="161.5,-1619.5 202.5,-1619.5 "/>
<text text-anchor="middle" x="182" y="-1607.5" font-family="Helvetica,sans-Serif" font-size="10.00"> </text>
<polyline fill="none" stroke="#bfbfbf" points="161.5,-1600.5 202.5,-1600.5 "/>
<text text-anchor="middle" x="182" y="-1588.5" font-family="Helvetica,sans-Serif" font-size="10.00"> </text>
</g>
<!-- Node4&#45;&gt;Node2 -->
<g id="edge2" class="edge"><title>Node4&#45;&gt;Node2</title>
<path fill="none" stroke="#404040" d="M161.476,-1605.07C113.878,-1594.66 0,-1561.62 0,-1484 0,-1484 0,-1484 0,-188 0,-46.1003 512.01,-34.2923 698.822,-34.7066"/>
<polygon fill="none" stroke="#404040" points="698.911,-34.7068 704.926,-30.7293 710.911,-34.7517 704.896,-38.7292 698.911,-34.7068"/>
<text text-anchor="middle" x="32" y="-805" font-family="Helvetica,sans-Serif" font-size="10.00"> +special1Text</text>
<text text-anchor="middle" x="32" y="-794" font-family="Helvetica,sans-Serif" font-size="10.00">+name</text>
<text text-anchor="middle" x="32" y="-783" font-family="Helvetica,sans-Serif" font-size="10.00">+special2Text</text>
</g>
<!-- Node4&#45;&gt;Node5 -->
<g id="edge8" class="edge"><title>Node4&#45;&gt;Node5</title>
<path fill="none" stroke="#404040" d="M161.345,-1601.26C123.299,-1585.51 46,-1545.89 46,-1484 46,-1484 46,-1484 46,-972 46,-908.195 55.6182,-892.392 73,-831 128.295,-635.7 79.4737,-534.427 235,-404 268.796,-375.658 394.295,-392.894 430,-367 458.341,-346.446 449.546,-327.751 468,-298 475.614,-285.724 484.047,-272.918 492.428,-260.594"/>
<polygon fill="none" stroke="#404040" points="492.649,-260.272 492.745,-253.062 499.438,-250.377 499.342,-257.588 492.649,-260.272"/>
<text text-anchor="middle" x="108" y="-874" font-family="Helvetica,sans-Serif" font-size="10.00"> &#45;previousScene</text>
<text text-anchor="middle" x="108" y="-863" font-family="Helvetica,sans-Serif" font-size="10.00">+levelOrder</text>
</g>
<!-- Node7 -->
<g id="node6" class="node"><title>Node7</title>
<g id="a_node6"><a xlink:href="class_item.html" target="_top" xlink:title="Abstract class for items that can be equipped to a player, increasing some of their stats ...">
<polygon fill="none" stroke="black" points="836.5,-1443.5 836.5,-1522.5 913.5,-1522.5 913.5,-1443.5 836.5,-1443.5"/>
<text text-anchor="middle" x="875" y="-1510.5" font-family="Helvetica,sans-Serif" font-size="10.00">Item</text>
<polyline fill="none" stroke="black" points="836.5,-1503.5 913.5,-1503.5 "/>
<text text-anchor="start" x="844.5" y="-1491.5" font-family="Helvetica,sans-Serif" font-size="10.00">+ Name</text>
<text text-anchor="start" x="844.5" y="-1480.5" font-family="Helvetica,sans-Serif" font-size="10.00">+ Desc</text>
<polyline fill="none" stroke="black" points="836.5,-1473.5 913.5,-1473.5 "/>
<text text-anchor="start" x="844.5" y="-1461.5" font-family="Helvetica,sans-Serif" font-size="10.00">+ applyBuffs()</text>
<text text-anchor="start" x="844.5" y="-1450.5" font-family="Helvetica,sans-Serif" font-size="10.00">+ revertBuffs()</text>
</a>
</g>
</g>
<!-- Node4&#45;&gt;Node7 -->
<g id="edge7" class="edge"><title>Node4&#45;&gt;Node7</title>
<path fill="none" stroke="#404040" d="M202.711,-1606.9C256.47,-1601.31 404.784,-1584.97 527,-1563 633.627,-1543.83 756.958,-1513.99 824.423,-1497"/>
<polygon fill="none" stroke="#404040" points="824.719,-1496.92 829.555,-1491.57 836.353,-1493.98 831.517,-1499.33 824.719,-1496.92"/>
<text text-anchor="middle" x="648" y="-1555" font-family="Helvetica,sans-Serif" font-size="10.00"> #desc</text>
<text text-anchor="middle" x="648" y="-1544" font-family="Helvetica,sans-Serif" font-size="10.00">#name</text>
</g>
<!-- Node10 -->
<g id="node9" class="node"><title>Node10</title>
<g id="a_node9"><a xlink:href="class_character.html" target="_top" xlink:title="Base abstract class for Enemy and Player to inherit from. Defines all shared variables, their constructor and their setters and getters ">
<polygon fill="none" stroke="black" points="340.5,-404.5 340.5,-582.5 435.5,-582.5 435.5,-404.5 340.5,-404.5"/>
<text text-anchor="middle" x="388" y="-570.5" font-family="Helvetica,sans-Serif" font-size="10.00">Character</text>
<polyline fill="none" stroke="black" points="340.5,-563.5 435.5,-563.5 "/>
<text text-anchor="start" x="348.5" y="-551.5" font-family="Helvetica,sans-Serif" font-size="10.00">+ Name</text>
<text text-anchor="start" x="348.5" y="-540.5" font-family="Helvetica,sans-Serif" font-size="10.00">+ Level</text>
<text text-anchor="start" x="348.5" y="-529.5" font-family="Helvetica,sans-Serif" font-size="10.00">+ Health</text>
<text text-anchor="start" x="348.5" y="-518.5" font-family="Helvetica,sans-Serif" font-size="10.00">+ Attack</text>
<text text-anchor="start" x="348.5" y="-507.5" font-family="Helvetica,sans-Serif" font-size="10.00">+ Defence</text>
<text text-anchor="start" x="348.5" y="-496.5" font-family="Helvetica,sans-Serif" font-size="10.00">+ MaximumMagic</text>
<text text-anchor="start" x="348.5" y="-485.5" font-family="Helvetica,sans-Serif" font-size="10.00">+ Magic</text>
<text text-anchor="start" x="348.5" y="-474.5" font-family="Helvetica,sans-Serif" font-size="10.00">+ Luck</text>
<text text-anchor="start" x="348.5" y="-463.5" font-family="Helvetica,sans-Serif" font-size="10.00">+ Speed</text>
<text text-anchor="start" x="348.5" y="-452.5" font-family="Helvetica,sans-Serif" font-size="10.00">+ Special1</text>
<text text-anchor="start" x="348.5" y="-441.5" font-family="Helvetica,sans-Serif" font-size="10.00">+ Special2</text>
<text text-anchor="start" x="348.5" y="-430.5" font-family="Helvetica,sans-Serif" font-size="10.00">+ Image</text>
<polyline fill="none" stroke="black" points="340.5,-423.5 435.5,-423.5 "/>
<text text-anchor="start" x="348.5" y="-411.5" font-family="Helvetica,sans-Serif" font-size="10.00"># Character()</text>
</a>
</g>
</g>
<!-- Node4&#45;&gt;Node10 -->
<g id="edge12" class="edge"><title>Node4&#45;&gt;Node10</title>
<path fill="none" stroke="#404040" d="M168.496,-1581.43C157.573,-1556.57 144,-1518.7 144,-1484 144,-1484 144,-1484 144,-972 144,-795.918 188.219,-749.396 283,-601 285.077,-597.748 307.875,-574.543 331.697,-550.622"/>
<polygon fill="none" stroke="#404040" points="332.01,-550.308 333.415,-543.235 340.484,-541.812 339.079,-548.885 332.01,-550.308"/>
<text text-anchor="middle" x="160.5" y="-1127.5" font-family="Helvetica,sans-Serif" font-size="10.00"> #name</text>
</g>
<!-- Node12 -->
<g id="node11" class="node"><title>Node12</title>
<g id="a_node11"><a xlink:href="class_special_move.html" target="_top" xlink:title="Special move abstract base class that expands upon CharacterMove, adding magic properties ...">
<polygon fill="none" stroke="black" points="339,-656.5 339,-746.5 437,-746.5 437,-656.5 339,-656.5"/>
<text text-anchor="middle" x="388" y="-734.5" font-family="Helvetica,sans-Serif" font-size="10.00">SpecialMove</text>
<polyline fill="none" stroke="black" points="339,-727.5 437,-727.5 "/>
<text text-anchor="start" x="347" y="-715.5" font-family="Helvetica,sans-Serif" font-size="10.00">+ Magic</text>
<text text-anchor="start" x="347" y="-704.5" font-family="Helvetica,sans-Serif" font-size="10.00">+ Desc</text>
<polyline fill="none" stroke="black" points="339,-697.5 437,-697.5 "/>
<text text-anchor="start" x="347" y="-685.5" font-family="Helvetica,sans-Serif" font-size="10.00">+ setUp()</text>
<text text-anchor="start" x="347" y="-674.5" font-family="Helvetica,sans-Serif" font-size="10.00">+ decreaseMagic()</text>
<text text-anchor="start" x="347" y="-663.5" font-family="Helvetica,sans-Serif" font-size="10.00"># SpecialMove()</text>
</a>
</g>
</g>
<!-- Node4&#45;&gt;Node12 -->
<g id="edge27" class="edge"><title>Node4&#45;&gt;Node12</title>
<path fill="none" stroke="#404040" d="M183.488,-1581.35C186.984,-1520.16 196.756,-1368.75 214,-1243 226.778,-1149.82 230.71,-1126.38 253,-1035 264.663,-987.191 269.398,-975.672 285,-929 299.711,-884.993 302.235,-873.438 321,-831 331.886,-806.381 345.376,-779.895 357.391,-757.403"/>
<polygon fill="none" stroke="#404040" points="357.462,-757.272 356.786,-750.093 363.154,-746.708 363.829,-753.887 357.462,-757.272"/>
<text text-anchor="middle" x="229" y="-1246" font-family="Helvetica,sans-Serif" font-size="10.00"> #desc</text>
</g>
<!-- Node13 -->
<g id="node12" class="node"><title>Node13</title>
<g id="a_node12"><a xlink:href="class_character_move.html" target="_top" xlink:title="Astract base class for character moves ">
<polygon fill="none" stroke="black" points="330,-831.5 330,-910.5 416,-910.5 416,-831.5 330,-831.5"/>
<text text-anchor="middle" x="373" y="-898.5" font-family="Helvetica,sans-Serif" font-size="10.00">CharacterMove</text>
<polyline fill="none" stroke="black" points="330,-891.5 416,-891.5 "/>
<text text-anchor="start" x="338" y="-879.5" font-family="Helvetica,sans-Serif" font-size="10.00">+ User</text>
<text text-anchor="start" x="338" y="-868.5" font-family="Helvetica,sans-Serif" font-size="10.00">+ Target</text>
<text text-anchor="start" x="338" y="-857.5" font-family="Helvetica,sans-Serif" font-size="10.00">+ Text</text>
<polyline fill="none" stroke="black" points="330,-850.5 416,-850.5 "/>
<text text-anchor="start" x="338" y="-838.5" font-family="Helvetica,sans-Serif" font-size="10.00">+ performMove()</text>
</a>
</g>
</g>
<!-- Node4&#45;&gt;Node13 -->
<g id="edge16" class="edge"><title>Node4&#45;&gt;Node13</title>
<path fill="none" stroke="#404040" d="M191.067,-1581.44C192.861,-1575.4 194.615,-1569.02 196,-1563 225.355,-1435.39 203.848,-1397.26 242,-1272 275.836,-1160.91 277.199,-1123.83 352,-1035 361.053,-1024.25 371.477,-1029.45 378,-1017 393.037,-988.302 391.701,-951.837 386.649,-922.655"/>
<polygon fill="none" stroke="#404040" points="386.602,-922.414 381.523,-917.296 384.294,-910.638 389.373,-915.757 386.602,-922.414"/>
<text text-anchor="middle" x="254.5" y="-1326" font-family="Helvetica,sans-Serif" font-size="10.00"> #text</text>
</g>
<!-- Node14 -->
<g id="node13" class="node"><title>Node14</title>
<g id="a_node13"><a xlink:href="class_battle_manager.html" target="_top" xlink:title="Holds current Player and Enemy objects in battle and provides functions for MainBattle and other obje...">
<polygon fill="none" stroke="black" points="418,-1035.5 418,-1224.5 534,-1224.5 534,-1035.5 418,-1035.5"/>
<text text-anchor="middle" x="476" y="-1212.5" font-family="Helvetica,sans-Serif" font-size="10.00">BattleManager</text>
<polyline fill="none" stroke="black" points="418,-1205.5 534,-1205.5 "/>
<text text-anchor="start" x="426" y="-1193.5" font-family="Helvetica,sans-Serif" font-size="10.00">+ Player</text>
<text text-anchor="start" x="426" y="-1182.5" font-family="Helvetica,sans-Serif" font-size="10.00">+ Enemy</text>
<text text-anchor="start" x="426" y="-1171.5" font-family="Helvetica,sans-Serif" font-size="10.00">+ WasCriticalHit</text>
<polyline fill="none" stroke="black" points="418,-1164.5 534,-1164.5 "/>
<text text-anchor="start" x="426" y="-1152.5" font-family="Helvetica,sans-Serif" font-size="10.00">+ BattleManager()</text>
<text text-anchor="start" x="426" y="-1141.5" font-family="Helvetica,sans-Serif" font-size="10.00">+ playerFirst()</text>
<text text-anchor="start" x="426" y="-1130.5" font-family="Helvetica,sans-Serif" font-size="10.00">+ switchPlayers()</text>
<text text-anchor="start" x="426" y="-1119.5" font-family="Helvetica,sans-Serif" font-size="10.00">+ isCriticalHit()</text>
<text text-anchor="start" x="426" y="-1108.5" font-family="Helvetica,sans-Serif" font-size="10.00">+ ranAway()</text>
<text text-anchor="start" x="426" y="-1097.5" font-family="Helvetica,sans-Serif" font-size="10.00">+ damageCalculation()</text>
<text text-anchor="start" x="426" y="-1086.5" font-family="Helvetica,sans-Serif" font-size="10.00">+ enemyMove()</text>
<text text-anchor="start" x="426" y="-1075.5" font-family="Helvetica,sans-Serif" font-size="10.00">+ enemySpecialMove()</text>
<text text-anchor="start" x="426" y="-1064.5" font-family="Helvetica,sans-Serif" font-size="10.00">+ battleWon()</text>
<text text-anchor="start" x="426" y="-1053.5" font-family="Helvetica,sans-Serif" font-size="10.00">+ playerFainted()</text>
<text text-anchor="start" x="426" y="-1042.5" font-family="Helvetica,sans-Serif" font-size="10.00">&#45; characterFainted()</text>
</a>
</g>
</g>
<!-- Node4&#45;&gt;Node14 -->
<g id="edge19" class="edge"><title>Node4&#45;&gt;Node14</title>
<path fill="none" stroke="#404040" d="M202.546,-1605.46C263.91,-1593.56 444.464,-1548.58 491,-1425 494.446,-1415.85 491.684,-1412.75 491,-1403 489.83,-1386.32 471.17,-1270.68 470,-1254 469.658,-1249.12 469.869,-1247.89 470,-1243 470.055,-1240.96 470.115,-1238.9 470.18,-1236.82"/>
<polygon fill="none" stroke="#404040" points="470.181,-1236.78 466.396,-1230.64 470.605,-1224.79 474.391,-1230.93 470.181,-1236.78"/>
<text text-anchor="middle" x="535" y="-1417" font-family="Helvetica,sans-Serif" font-size="10.00"> +forceEnemyMove</text>
<text text-anchor="middle" x="535" y="-1406" font-family="Helvetica,sans-Serif" font-size="10.00">+forceCriticalHits</text>
</g>
<!-- Node5&#45;&gt;Node2 -->
<g id="edge3" class="edge"><title>Node5&#45;&gt;Node2</title>
<path fill="none" stroke="#404040" d="M586.651,-149.646C610.225,-129.813 640.309,-105.875 669,-87 678.856,-80.516 689.614,-74.1578 700.263,-68.2434"/>
<polygon fill="none" stroke="#404040" points="700.297,-68.2248 703.655,-61.8433 710.837,-62.4887 707.479,-68.8702 700.297,-68.2248"/>
<text text-anchor="middle" x="695" y="-95.5" font-family="Helvetica,sans-Serif" font-size="10.00"> +battleItem</text>
</g>
<!-- Node5&#45;&gt;Node5 -->
<g id="edge31" class="edge"><title>Node5&#45;&gt;Node5</title>
<path fill="none" stroke="#404040" d="M586.669,-204.439C596.93,-203.17 604.5,-198.023 604.5,-189 604.5,-183.924 602.105,-180.075 598.183,-177.453"/>
<polygon fill="none" stroke="#404040" points="598.037,-177.404 591.073,-179.272 586.669,-173.561 593.634,-171.693 598.037,-177.404"/>
<text text-anchor="middle" x="627.5" y="-186.5" font-family="Helvetica,sans-Serif" font-size="10.00"> +instance</text>
</g>
<!-- Node6 -->
<g id="node5" class="node"><title>Node6</title>
<polygon fill="none" stroke="#bfbfbf" points="641,-304 641,-361 699,-361 699,-304 641,-304"/>
<text text-anchor="middle" x="670" y="-349" font-family="Helvetica,sans-Serif" font-size="10.00">AudioClip</text>
<polyline fill="none" stroke="#bfbfbf" points="641,-342 699,-342 "/>
<text text-anchor="middle" x="670" y="-330" font-family="Helvetica,sans-Serif" font-size="10.00"> </text>
<polyline fill="none" stroke="#bfbfbf" points="641,-323 699,-323 "/>
<text text-anchor="middle" x="670" y="-311" font-family="Helvetica,sans-Serif" font-size="10.00"> </text>
</g>
<!-- Node6&#45;&gt;Node5 -->
<g id="edge5" class="edge"><title>Node6&#45;&gt;Node5</title>
<path fill="none" stroke="#404040" d="M652.792,-303.808C645.366,-292.603 636.265,-279.793 627,-269 617.424,-257.844 606.43,-246.588 595.619,-236.207"/>
<polygon fill="none" stroke="#404040" points="595.345,-235.948 588.235,-234.741 586.616,-227.714 593.725,-228.921 595.345,-235.948"/>
<text text-anchor="middle" x="668.5" y="-272" font-family="Helvetica,sans-Serif" font-size="10.00"> +previousBGM</text>
</g>
<!-- Node7&#45;&gt;Node5 -->
<g id="edge6" class="edge"><title>Node7&#45;&gt;Node5</title>
<path fill="none" stroke="#404040" d="M905.74,-1443.38C926.071,-1413.94 949,-1371.44 949,-1329.5 949,-1329.5 949,-1329.5 949,-795.5 949,-558.812 922.133,-469.489 759,-298 714.685,-251.415 645.951,-221.887 597.956,-205.697"/>
<polygon fill="none" stroke="#404040" points="597.939,-205.691 590.993,-207.629 586.533,-201.962 593.479,-200.025 597.939,-205.691"/>
<text text-anchor="middle" x="961.5" y="-794" font-family="Helvetica,sans-Serif" font-size="10.00"> &#45;item</text>
</g>
<!-- Node16 -->
<g id="node15" class="node"><title>Node16</title>
<g id="a_node15"><a xlink:href="class_player.html" target="_top" xlink:title="Defines a playable character for use in battle scenes">
<polygon fill="none" stroke="black" points="498,-1272.5 498,-1384.5 610,-1384.5 610,-1272.5 498,-1272.5"/>
<text text-anchor="middle" x="554" y="-1372.5" font-family="Helvetica,sans-Serif" font-size="10.00">Player</text>
<polyline fill="none" stroke="black" points="498,-1365.5 610,-1365.5 "/>
<text text-anchor="start" x="506" y="-1353.5" font-family="Helvetica,sans-Serif" font-size="10.00">+ Exp</text>
<text text-anchor="start" x="506" y="-1342.5" font-family="Helvetica,sans-Serif" font-size="10.00">+ Item</text>
<text text-anchor="start" x="506" y="-1331.5" font-family="Helvetica,sans-Serif" font-size="10.00">+ ExpToNextLevel</text>
<polyline fill="none" stroke="black" points="498,-1324.5 610,-1324.5 "/>
<text text-anchor="start" x="506" y="-1312.5" font-family="Helvetica,sans-Serif" font-size="10.00">+ Player()</text>
<text text-anchor="start" x="506" y="-1301.5" font-family="Helvetica,sans-Serif" font-size="10.00">+ gainExp()</text>
<text text-anchor="start" x="506" y="-1290.5" font-family="Helvetica,sans-Serif" font-size="10.00">+ levelUp()</text>
<text text-anchor="start" x="506" y="-1279.5" font-family="Helvetica,sans-Serif" font-size="10.00">&#45; setExpToNextLevel()</text>
</a>
</g>
</g>
<!-- Node7&#45;&gt;Node16 -->
<g id="edge25" class="edge"><title>Node7&#45;&gt;Node16</title>
<path fill="none" stroke="#404040" d="M836.28,-1463.6C783.001,-1438.29 686.288,-1392.35 621.1,-1361.38"/>
<polygon fill="none" stroke="#404040" points="620.957,-1361.31 613.821,-1362.35 610.118,-1356.16 617.254,-1355.12 620.957,-1361.31"/>
<text text-anchor="middle" x="765.5" y="-1411.5" font-family="Helvetica,sans-Serif" font-size="10.00"> &#45;item</text>
</g>
<!-- Node8 -->
<g id="node7" class="node"><title>Node8</title>
<polygon fill="none" stroke="#bfbfbf" points="233.5,-304 233.5,-361 304.5,-361 304.5,-304 233.5,-304"/>
<text text-anchor="middle" x="269" y="-349" font-family="Helvetica,sans-Serif" font-size="10.00">GameObject</text>
<polyline fill="none" stroke="#bfbfbf" points="233.5,-342 304.5,-342 "/>
<text text-anchor="middle" x="269" y="-330" font-family="Helvetica,sans-Serif" font-size="10.00"> </text>
<polyline fill="none" stroke="#bfbfbf" points="233.5,-323 304.5,-323 "/>
<text text-anchor="middle" x="269" y="-311" font-family="Helvetica,sans-Serif" font-size="10.00"> </text>
</g>
<!-- Node8&#45;&gt;Node5 -->
<g id="edge9" class="edge"><title>Node8&#45;&gt;Node5</title>
<path fill="none" stroke="#404040" d="M289.319,-303.744C299.267,-291.731 312.091,-278.318 326,-269 375.839,-235.611 441.55,-214.264 487.553,-202.289"/>
<polygon fill="none" stroke="#404040" points="487.753,-202.239 492.592,-196.892 499.389,-199.302 494.55,-204.649 487.753,-202.239"/>
<text text-anchor="middle" x="344" y="-272" font-family="Helvetica,sans-Serif" font-size="10.00"> +player</text>
</g>
<!-- Node9 -->
<g id="node8" class="node"><title>Node9</title>
<g id="a_node8"><a xlink:href="class_enemy.html" target="_top" xlink:title="Defines an AI controller enemy to fight in battle scenes">
<polygon fill="none" stroke="black" points="477.5,-304 477.5,-361 544.5,-361 544.5,-304 477.5,-304"/>
<text text-anchor="middle" x="511" y="-349" font-family="Helvetica,sans-Serif" font-size="10.00">Enemy</text>
<polyline fill="none" stroke="black" points="477.5,-342 544.5,-342 "/>
<text text-anchor="start" x="485.5" y="-330" font-family="Helvetica,sans-Serif" font-size="10.00">+ ExpGiven</text>
<polyline fill="none" stroke="black" points="477.5,-323 544.5,-323 "/>
<text text-anchor="start" x="485.5" y="-311" font-family="Helvetica,sans-Serif" font-size="10.00">+ Enemy()</text>
</a>
</g>
</g>
<!-- Node9&#45;&gt;Node5 -->
<g id="edge10" class="edge"><title>Node9&#45;&gt;Node5</title>
<path fill="none" stroke="#404040" d="M517.181,-303.805C519.61,-292.949 522.427,-280.389 525,-269 525.479,-266.88 525.966,-264.727 526.458,-262.555"/>
<polygon fill="none" stroke="#404040" points="526.467,-262.512 523.893,-255.776 529.121,-250.809 531.695,-257.545 526.467,-262.512"/>
<text text-anchor="middle" x="543" y="-272" font-family="Helvetica,sans-Serif" font-size="10.00"> &#45;enemy</text>
</g>
<!-- Node9&#45;&gt;Node14 -->
<g id="edge20" class="edge"><title>Node9&#45;&gt;Node14</title>
<path fill="none" stroke="#404040" d="M511,-361.075C511,-392.784 511,-446.401 511,-492.5 511,-872 511,-872 511,-872 511,-922.123 504.383,-977.246 496.903,-1023.54"/>
<polygon fill="none" stroke="#404040" points="496.896,-1023.59 499.861,-1030.16 494.934,-1035.43 491.969,-1028.85 496.896,-1023.59"/>
<text text-anchor="middle" x="529" y="-699" font-family="Helvetica,sans-Serif" font-size="10.00"> &#45;enemy</text>
</g>
<!-- Node10&#45;&gt;Node9 -->
<g id="edge11" class="edge"><title>Node10&#45;&gt;Node9</title>
<path fill="none" stroke="midnightblue" d="M441.732,-423.041C458.623,-401.206 476.309,-378.345 489.582,-361.187"/>
<polygon fill="none" stroke="midnightblue" points="438.905,-420.975 435.555,-431.026 444.442,-425.258 438.905,-420.975"/>
</g>
<!-- Node10&#45;&gt;Node13 -->
<g id="edge17" class="edge"><title>Node10&#45;&gt;Node13</title>
<path fill="none" stroke="#404040" d="M340.306,-553.525C322.752,-578.886 304.975,-609.831 296,-641 281.119,-692.678 279.611,-710.78 296,-762 302.805,-783.267 315.503,-803.919 328.652,-821.369"/>
<polygon fill="none" stroke="#404040" points="329,-821.813 335.85,-824.065 336.406,-831.255 329.555,-829.002 329,-821.813"/>
<text text-anchor="middle" x="313" y="-704.5" font-family="Helvetica,sans-Serif" font-size="10.00"> #target</text>
<text text-anchor="middle" x="313" y="-693.5" font-family="Helvetica,sans-Serif" font-size="10.00">#user</text>
</g>
<!-- Node10&#45;&gt;Node16 -->
<g id="edge24" class="edge"><title>Node10&#45;&gt;Node16</title>
<path fill="none" stroke="midnightblue" d="M433.757,-592.141C434.883,-595.114 435.967,-598.072 437,-601 485.957,-739.755 580.862,-1096.98 599,-1243 600.229,-1252.9 598.411,-1262.8 594.905,-1272.15"/>
<polygon fill="none" stroke="midnightblue" points="436.934,-590.652 430.035,-582.611 430.413,-593.199 436.934,-590.652"/>
</g>
<!-- Node11 -->
<g id="node10" class="node"><title>Node11</title>
<polygon fill="none" stroke="#bfbfbf" points="367.5,-1454.5 367.5,-1511.5 396.5,-1511.5 396.5,-1454.5 367.5,-1454.5"/>
<text text-anchor="middle" x="382" y="-1499.5" font-family="Helvetica,sans-Serif" font-size="10.00">int</text>
<polyline fill="none" stroke="#bfbfbf" points="367.5,-1492.5 396.5,-1492.5 "/>
<text text-anchor="middle" x="382" y="-1480.5" font-family="Helvetica,sans-Serif" font-size="10.00"> </text>
<polyline fill="none" stroke="#bfbfbf" points="367.5,-1473.5 396.5,-1473.5 "/>
<text text-anchor="middle" x="382" y="-1461.5" font-family="Helvetica,sans-Serif" font-size="10.00"> </text>
</g>
<!-- Node11&#45;&gt;Node2 -->
<g id="edge36" class="edge"><title>Node11&#45;&gt;Node2</title>
<path fill="none" stroke="#404040" d="M396.527,-1480.46C474.718,-1471.75 842,-1425.73 842,-1329.5 842,-1329.5 842,-1329.5 842,-795.5 842,-726.369 848.487,-709.166 860,-641 861.365,-632.919 862.665,-631.086 864,-623 873.357,-566.318 878,-551.949 878,-494.5 878,-494.5 878,-494.5 878,-188 878,-144.239 847.67,-104.726 818.577,-76.8904"/>
<polygon fill="none" stroke="#404040" points="818.445,-76.769 811.323,-75.6428 809.623,-68.6349 816.745,-69.7611 818.445,-76.769"/>
<text text-anchor="middle" x="899.5" y="-754" font-family="Helvetica,sans-Serif" font-size="10.00"> +maximumMagic</text>
<text text-anchor="middle" x="899.5" y="-743" font-family="Helvetica,sans-Serif" font-size="10.00">+attack</text>
<text text-anchor="middle" x="899.5" y="-732" font-family="Helvetica,sans-Serif" font-size="10.00">+defence</text>
<text text-anchor="middle" x="899.5" y="-721" font-family="Helvetica,sans-Serif" font-size="10.00">+level</text>
<text text-anchor="middle" x="899.5" y="-710" font-family="Helvetica,sans-Serif" font-size="10.00">+special1Magic</text>
<text text-anchor="middle" x="899.5" y="-699" font-family="Helvetica,sans-Serif" font-size="10.00">+battleMoney</text>
<text text-anchor="middle" x="899.5" y="-688" font-family="Helvetica,sans-Serif" font-size="10.00">+special2Magic</text>
<text text-anchor="middle" x="899.5" y="-677" font-family="Helvetica,sans-Serif" font-size="10.00">+speed</text>
<text text-anchor="middle" x="899.5" y="-666" font-family="Helvetica,sans-Serif" font-size="10.00">+luck</text>
<text text-anchor="middle" x="899.5" y="-655" font-family="Helvetica,sans-Serif" font-size="10.00">+health</text>
<text text-anchor="middle" x="899.5" y="-644" font-family="Helvetica,sans-Serif" font-size="10.00">...</text>
</g>
<!-- Node11&#45;&gt;Node5 -->
<g id="edge32" class="edge"><title>Node11&#45;&gt;Node5</title>
<path fill="none" stroke="#404040" d="M396.517,-1482.16C442.473,-1481.74 583.803,-1473.15 619,-1385 637.623,-1338.36 620.674,-1322.19 619,-1272 609.217,-978.622 575,-906.541 575,-613 575,-613 575,-613 575,-331.5 575,-308.761 571.02,-284.463 565.868,-262.532"/>
<polygon fill="none" stroke="#404040" points="565.8,-262.262 560.47,-257.405 562.902,-250.617 568.233,-255.473 565.8,-262.262"/>
<text text-anchor="middle" x="612.5" y="-799.5" font-family="Helvetica,sans-Serif" font-size="10.00"> +currentLevel</text>
<text text-anchor="middle" x="612.5" y="-788.5" font-family="Helvetica,sans-Serif" font-size="10.00">&#45;money</text>
</g>
<!-- Node11&#45;&gt;Node9 -->
<g id="edge30" class="edge"><title>Node11&#45;&gt;Node9</title>
<path fill="none" stroke="#404040" d="M368.428,-1454.2C326.397,-1364.95 202.74,-1077.19 229,-831 249.695,-636.983 194.514,-543.435 331,-404 373.62,-360.46 407.909,-393.024 463,-367 464.195,-366.436 465.391,-365.842 466.588,-365.224"/>
<polygon fill="none" stroke="#404040" points="466.83,-365.086 470.044,-358.631 477.239,-359.115 474.025,-365.57 466.83,-365.086"/>
<text text-anchor="middle" x="252" y="-868.5" font-family="Helvetica,sans-Serif" font-size="10.00"> &#45;expGiven</text>
</g>
<!-- Node11&#45;&gt;Node10 -->
<g id="edge13" class="edge"><title>Node11&#45;&gt;Node10</title>
<path fill="none" stroke="#404040" d="M376.215,-1454.26C350.149,-1327.49 246.359,-802.395 281,-641 288.476,-606.169 310.234,-573.518 332.194,-547.919"/>
<polygon fill="none" stroke="#404040" points="332.305,-547.794 333.294,-540.651 340.267,-538.817 339.279,-545.96 332.305,-547.794"/>
<text text-anchor="middle" x="337.5" y="-1009" font-family="Helvetica,sans-Serif" font-size="10.00"> #speed</text>
<text text-anchor="middle" x="337.5" y="-998" font-family="Helvetica,sans-Serif" font-size="10.00">#luck</text>
<text text-anchor="middle" x="337.5" y="-987" font-family="Helvetica,sans-Serif" font-size="10.00">#health</text>
<text text-anchor="middle" x="337.5" y="-976" font-family="Helvetica,sans-Serif" font-size="10.00">#magic</text>
<text text-anchor="middle" x="337.5" y="-965" font-family="Helvetica,sans-Serif" font-size="10.00">#maximumMagic</text>
<text text-anchor="middle" x="337.5" y="-954" font-family="Helvetica,sans-Serif" font-size="10.00">#attack</text>
<text text-anchor="middle" x="337.5" y="-943" font-family="Helvetica,sans-Serif" font-size="10.00">#defence</text>
<text text-anchor="middle" x="337.5" y="-932" font-family="Helvetica,sans-Serif" font-size="10.00">#level</text>
</g>
<!-- Node11&#45;&gt;Node12 -->
<g id="edge28" class="edge"><title>Node11&#45;&gt;Node12</title>
<path fill="none" stroke="#404040" d="M380.853,-1454.24C378.969,-1407.12 375.299,-1308.47 374,-1225 372.686,-1140.57 332.949,-1108.8 374,-1035 381.374,-1021.74 394.31,-1029.43 403,-1017 430.562,-977.562 420.085,-958.863 425,-911 428.632,-875.63 429.968,-866.207 425,-831 421.577,-806.74 414.688,-780.645 407.773,-758.35"/>
<polygon fill="none" stroke="#404040" points="407.713,-758.161 402.077,-753.662 404.062,-746.73 409.698,-751.229 407.713,-758.161"/>
<text text-anchor="middle" x="391.5" y="-1127.5" font-family="Helvetica,sans-Serif" font-size="10.00"> #magic</text>
</g>
<!-- Node11&#45;&gt;Node14 -->
<g id="edge21" class="edge"><title>Node11&#45;&gt;Node14</title>
<path fill="none" stroke="#404040" d="M384.582,-1454.38C388.828,-1413.8 398.694,-1335.96 417,-1272 420.838,-1258.59 423.635,-1255.88 429,-1243 429.966,-1240.68 430.945,-1238.34 431.931,-1235.97"/>
<polygon fill="none" stroke="#404040" points="431.976,-1235.86 430.598,-1228.79 436.601,-1224.79 437.98,-1231.87 431.976,-1235.86"/>
<text text-anchor="middle" x="436.5" y="-1326" font-family="Helvetica,sans-Serif" font-size="10.00"> +money</text>
</g>
<!-- Node11&#45;&gt;Node16 -->
<g id="edge26" class="edge"><title>Node11&#45;&gt;Node16</title>
<path fill="none" stroke="#404040" d="M388.928,-1454.18C394.162,-1437.74 402.754,-1417.39 416,-1403 418.934,-1399.81 453.27,-1381.52 486.954,-1363.98"/>
<polygon fill="none" stroke="#404040" points="487.177,-1363.87 490.658,-1357.55 497.827,-1358.34 494.346,-1364.65 487.177,-1363.87"/>
<text text-anchor="middle" x="453.5" y="-1417" font-family="Helvetica,sans-Serif" font-size="10.00"> &#45;expToNextLevel</text>
<text text-anchor="middle" x="453.5" y="-1406" font-family="Helvetica,sans-Serif" font-size="10.00">&#45;exp</text>
</g>
<!-- Node12&#45;&gt;Node10 -->
<g id="edge14" class="edge"><title>Node12&#45;&gt;Node10</title>
<path fill="none" stroke="#404040" d="M388,-656.308C388,-638.237 388,-616.535 388,-594.98"/>
<polygon fill="none" stroke="#404040" points="388,-594.691 384,-588.691 388,-582.691 392,-588.691 388,-594.691"/>
<text text-anchor="middle" x="410.5" y="-615" font-family="Helvetica,sans-Serif" font-size="10.00"> #special1</text>
<text text-anchor="middle" x="410.5" y="-604" font-family="Helvetica,sans-Serif" font-size="10.00">#special2</text>
</g>
<!-- Node13&#45;&gt;Node12 -->
<g id="edge15" class="edge"><title>Node13&#45;&gt;Node12</title>
<path fill="none" stroke="midnightblue" d="M377.384,-821.043C379.488,-797.547 381.99,-769.607 384.037,-746.755"/>
<polygon fill="none" stroke="midnightblue" points="373.885,-820.879 376.479,-831.151 380.857,-821.503 373.885,-820.879"/>
</g>
<!-- Node14&#45;&gt;Node13 -->
<g id="edge18" class="edge"><title>Node14&#45;&gt;Node13</title>
<path fill="none" stroke="#404040" d="M447.322,-1035.46C435.822,-1001.39 421.591,-962.929 406,-929 404.875,-926.552 403.678,-924.071 402.431,-921.585"/>
<polygon fill="none" stroke="#404040" points="402.307,-921.351 395.972,-917.906 396.716,-910.733 403.051,-914.179 402.307,-921.351"/>
<text text-anchor="middle" x="464" y="-970.5" font-family="Helvetica,sans-Serif" font-size="10.00"> #manager</text>
</g>
<!-- Node15 -->
<g id="node14" class="node"><title>Node15</title>
<polygon fill="none" stroke="#bfbfbf" points="683.5,-1300 683.5,-1357 718.5,-1357 718.5,-1300 683.5,-1300"/>
<text text-anchor="middle" x="701" y="-1345" font-family="Helvetica,sans-Serif" font-size="10.00">bool</text>
<polyline fill="none" stroke="#bfbfbf" points="683.5,-1338 718.5,-1338 "/>
<text text-anchor="middle" x="701" y="-1326" font-family="Helvetica,sans-Serif" font-size="10.00"> </text>
<polyline fill="none" stroke="#bfbfbf" points="683.5,-1319 718.5,-1319 "/>
<text text-anchor="middle" x="701" y="-1307" font-family="Helvetica,sans-Serif" font-size="10.00"> </text>
</g>
<!-- Node15&#45;&gt;Node2 -->
<g id="edge37" class="edge"><title>Node15&#45;&gt;Node2</title>
<path fill="none" stroke="#404040" d="M718.646,-1306.99C746.119,-1272.89 796,-1201.29 796,-1131 796,-1131 796,-1131 796,-492.5 796,-341.398 779.468,-162.796 770.949,-80.7898"/>
<polygon fill="none" stroke="#404040" points="770.933,-80.643 766.328,-75.0942 769.679,-68.7088 774.284,-74.2577 770.933,-80.643"/>
<text text-anchor="middle" x="829.5" y="-609.5" font-family="Helvetica,sans-Serif" font-size="10.00"> +canRunAway</text>
</g>
<!-- Node15&#45;&gt;Node5 -->
<g id="edge33" class="edge"><title>Node15&#45;&gt;Node5</title>
<path fill="none" stroke="#404040" d="M701,-1299.84C701,-1261.8 701,-1191.21 701,-1131 701,-1131 701,-1131 701,-611 701,-531.028 621.747,-341.96 589,-269 587.891,-266.529 586.726,-264.037 585.516,-261.537"/>
<polygon fill="none" stroke="#404040" points="585.385,-261.278 579.108,-257.729 579.97,-250.57 586.247,-254.119 585.385,-261.278"/>
<text text-anchor="middle" x="734.5" y="-699" font-family="Helvetica,sans-Serif" font-size="10.00"> +canRunAway</text>
</g>
<!-- Node15&#45;&gt;Node14 -->
<g id="edge22" class="edge"><title>Node15&#45;&gt;Node14</title>
<path fill="none" stroke="#404040" d="M683.345,-1312.08C653.563,-1286.07 591.86,-1232.18 543.469,-1189.92"/>
<polygon fill="none" stroke="#404040" points="543.329,-1189.8 536.179,-1188.87 534.291,-1181.91 541.441,-1182.84 543.329,-1189.8"/>
<text text-anchor="middle" x="649" y="-1246" font-family="Helvetica,sans-Serif" font-size="10.00"> &#45;wasCriticalHit</text>
</g>
<!-- Node16&#45;&gt;Node14 -->
<g id="edge23" class="edge"><title>Node16&#45;&gt;Node14</title>
<path fill="none" stroke="#404040" d="M497.72,-1284.64C489.308,-1275.5 481.844,-1265.19 477,-1254 474.633,-1248.53 472.771,-1242.79 471.331,-1236.91"/>
<polygon fill="none" stroke="#404040" points="471.24,-1236.44 466.165,-1231.32 468.941,-1224.67 474.016,-1229.79 471.24,-1236.44"/>
<text text-anchor="middle" x="493.5" y="-1246" font-family="Helvetica,sans-Serif" font-size="10.00"> &#45;player</text>
</g>
<!-- Node17 -->
<g id="node16" class="node"><title>Node17</title>
<polygon fill="none" stroke="#bfbfbf" points="603.5,-673 603.5,-730 664.5,-730 664.5,-673 603.5,-673"/>
<text text-anchor="middle" x="634" y="-718" font-family="Helvetica,sans-Serif" font-size="10.00">Texture2D</text>
<polyline fill="none" stroke="#bfbfbf" points="603.5,-711 664.5,-711 "/>
<text text-anchor="middle" x="634" y="-699" font-family="Helvetica,sans-Serif" font-size="10.00"> </text>
<polyline fill="none" stroke="#bfbfbf" points="603.5,-692 664.5,-692 "/>
<text text-anchor="middle" x="634" y="-680" font-family="Helvetica,sans-Serif" font-size="10.00"> </text>
</g>
<!-- Node17&#45;&gt;Node2 -->
<g id="edge39" class="edge"><title>Node17&#45;&gt;Node2</title>
<path fill="none" stroke="#404040" d="M640.563,-672.919C654.023,-615.939 685.387,-481.022 708,-367 728.245,-264.916 748.397,-144.4 758.784,-80.5253"/>
<polygon fill="none" stroke="#404040" points="758.809,-80.3732 755.82,-73.8106 760.729,-68.5278 763.717,-75.0904 758.809,-80.3732"/>
<text text-anchor="middle" x="738" y="-330" font-family="Helvetica,sans-Serif" font-size="10.00"> +sprite</text>
</g>
<!-- Node17&#45;&gt;Node10 -->
<g id="edge29" class="edge"><title>Node17&#45;&gt;Node10</title>
<path fill="none" stroke="#404040" d="M603.341,-674.826C563.774,-641.693 494.164,-583.402 444.808,-542.071"/>
<polygon fill="none" stroke="#404040" points="444.731,-542.006 437.562,-541.221 435.53,-534.302 442.699,-535.087 444.731,-542.006"/>
<text text-anchor="middle" x="558.5" y="-609.5" font-family="Helvetica,sans-Serif" font-size="10.00"> #image</text>
</g>
<!-- Node18 -->
<g id="node17" class="node"><title>Node18</title>
<polygon fill="none" stroke="#bfbfbf" points="323,-298.5 323,-366.5 421,-366.5 421,-298.5 323,-298.5"/>
<text text-anchor="start" x="331" y="-354.5" font-family="Helvetica,sans-Serif" font-size="10.00">IDictionary&lt; string,</text>
<text text-anchor="middle" x="372" y="-343.5" font-family="Helvetica,sans-Serif" font-size="10.00"> bool &gt;</text>
<polyline fill="none" stroke="#bfbfbf" points="323,-336.5 421,-336.5 "/>
<text text-anchor="middle" x="372" y="-324.5" font-family="Helvetica,sans-Serif" font-size="10.00"> </text>
<polyline fill="none" stroke="#bfbfbf" points="323,-317.5 421,-317.5 "/>
<text text-anchor="middle" x="372" y="-305.5" font-family="Helvetica,sans-Serif" font-size="10.00"> </text>
</g>
<!-- Node18&#45;&gt;Node5 -->
<g id="edge34" class="edge"><title>Node18&#45;&gt;Node5</title>
<path fill="none" stroke="#404040" d="M363.983,-298.405C363.287,-288.292 364.483,-277.585 370,-269 395.697,-229.016 447.195,-209.02 487.353,-199.175"/>
<polygon fill="none" stroke="#404040" points="487.444,-199.155 492.406,-193.922 499.144,-196.491 494.182,-201.723 487.444,-199.155"/>
<text text-anchor="middle" x="403.5" y="-272" font-family="Helvetica,sans-Serif" font-size="10.00"> +objectsActive</text>
</g>
<!-- Node19 -->
<g id="node18" class="node"><title>Node19</title>
<polygon fill="none" stroke="#bfbfbf" points="906.5,-160.5 906.5,-217.5 941.5,-217.5 941.5,-160.5 906.5,-160.5"/>
<text text-anchor="middle" x="924" y="-205.5" font-family="Helvetica,sans-Serif" font-size="10.00">float</text>
<polyline fill="none" stroke="#bfbfbf" points="906.5,-198.5 941.5,-198.5 "/>
<text text-anchor="middle" x="924" y="-186.5" font-family="Helvetica,sans-Serif" font-size="10.00"> </text>
<polyline fill="none" stroke="#bfbfbf" points="906.5,-179.5 941.5,-179.5 "/>
<text text-anchor="middle" x="924" y="-167.5" font-family="Helvetica,sans-Serif" font-size="10.00"> </text>
</g>
<!-- Node19&#45;&gt;Node2 -->
<g id="edge35" class="edge"><title>Node19&#45;&gt;Node2</title>
<path fill="none" stroke="#404040" d="M921.638,-160.377C918.37,-138.059 910.577,-107.15 892,-87 876.25,-69.916 854.01,-58.358 832.589,-50.6014"/>
<polygon fill="none" stroke="#404040" points="832.542,-50.5856 825.583,-52.4749 821.162,-46.7776 828.121,-44.8883 832.542,-50.5856"/>
<text text-anchor="middle" x="942" y="-101" font-family="Helvetica,sans-Serif" font-size="10.00"> +special2Value</text>
<text text-anchor="middle" x="942" y="-90" font-family="Helvetica,sans-Serif" font-size="10.00">+special1Value</text>
</g>
<!-- Node20 -->
<g id="node19" class="node"><title>Node20</title>
<polygon fill="none" stroke="#bfbfbf" points="972.5,-160.5 972.5,-217.5 1047.5,-217.5 1047.5,-160.5 972.5,-160.5"/>
<text text-anchor="middle" x="1010" y="-205.5" font-family="Helvetica,sans-Serif" font-size="10.00">EnemyMoves</text>
<polyline fill="none" stroke="#bfbfbf" points="972.5,-198.5 1047.5,-198.5 "/>
<text text-anchor="middle" x="1010" y="-186.5" font-family="Helvetica,sans-Serif" font-size="10.00"> </text>
<polyline fill="none" stroke="#bfbfbf" points="972.5,-179.5 1047.5,-179.5 "/>
<text text-anchor="middle" x="1010" y="-167.5" font-family="Helvetica,sans-Serif" font-size="10.00"> </text>
</g>
<!-- Node20&#45;&gt;Node2 -->
<g id="edge38" class="edge"><title>Node20&#45;&gt;Node2</title>
<path fill="none" stroke="#404040" d="M1009.37,-160.12C1007.33,-137.339 1000.78,-105.915 981,-87 959.919,-66.8368 888.072,-52.4613 833.178,-44.1092"/>
<polygon fill="none" stroke="#404040" points="832.915,-44.0703 826.395,-47.1511 821.044,-42.3176 827.564,-39.2369 832.915,-44.0703"/>
<text text-anchor="middle" x="1019" y="-101" font-family="Helvetica,sans-Serif" font-size="10.00"> +special1</text>
<text text-anchor="middle" x="1019" y="-90" font-family="Helvetica,sans-Serif" font-size="10.00">+special2</text>
</g>
</g>
</svg>
