<?xml version="1.0" encoding="UTF-8" standalone="no"?>
<!DOCTYPE svg PUBLIC "-//W3C//DTD SVG 1.1//EN"
 "http://www.w3.org/Graphics/SVG/1.1/DTD/svg11.dtd">
<!-- Generated by graphviz version 2.38.0 (20140413.2041)
 -->
<!-- Title: Graphical Class Hierarchy Pages: 1 -->
<svg width="153pt" height="218pt"
 viewBox="0.00 0.00 153.00 218.00" xmlns="http://www.w3.org/2000/svg" xmlns:xlink="http://www.w3.org/1999/xlink">
<g id="graph0" class="graph" transform="scale(1 1) rotate(0) translate(4 214)">
<title>Graphical Class Hierarchy</title>
<!-- Node0 -->
<g id="node1" class="node"><title>Node0</title>
<g id="a_node1"><a xlink:href="class_item.html" target="_top" xlink:title="Abstract class for items that can be equipped to a player, increasing some of their stats ...">
<polygon fill="none" stroke="black" points="0,-95.5 0,-114.5 35,-114.5 35,-95.5 0,-95.5"/>
<text text-anchor="middle" x="17.5" y="-102.5" font-family="Helvetica,sans-Serif" font-size="10.00">Item</text>
</a>
</g>
</g>
<!-- Node1 -->
<g id="node2" class="node"><title>Node1</title>
<g id="a_node2"><a xlink:href="class_armour.html" target="_top" xlink:title="An item that increases a player&#39;s attack stat by 2 and defence stat by 3 ">
<polygon fill="none" stroke="black" points="84,-190.5 84,-209.5 132,-209.5 132,-190.5 84,-190.5"/>
<text text-anchor="middle" x="108" y="-197.5" font-family="Helvetica,sans-Serif" font-size="10.00">Armour</text>
</a>
</g>
</g>
<!-- Node0&#45;&gt;Node1 -->
<g id="edge1" class="edge"><title>Node0&#45;&gt;Node1</title>
<path fill="none" stroke="midnightblue" d="M28.0994,-123.834C37.3207,-140.492 52.553,-164.625 71,-181 75.0168,-184.565 79.8214,-187.689 84.5922,-190.318"/>
<polygon fill="midnightblue" stroke="midnightblue" points="31.1831,-122.178 23.3858,-115.005 25.008,-125.475 31.1831,-122.178"/>
</g>
<!-- Node2 -->
<g id="node3" class="node"><title>Node2</title>
<g id="a_node3"><a xlink:href="class_hammer.html" target="_top" xlink:title="An item that increases a player&#39;s attack stat by 5 ">
<polygon fill="none" stroke="black" points="81.5,-152.5 81.5,-171.5 134.5,-171.5 134.5,-152.5 81.5,-152.5"/>
<text text-anchor="middle" x="108" y="-159.5" font-family="Helvetica,sans-Serif" font-size="10.00">Hammer</text>
</a>
</g>
</g>
<!-- Node0&#45;&gt;Node2 -->
<g id="edge2" class="edge"><title>Node0&#45;&gt;Node2</title>
<path fill="none" stroke="midnightblue" d="M38.7726,-120.698C48.3315,-127.831 60.0251,-136.179 71,-143 76.282,-146.283 82.1866,-149.554 87.6615,-152.433"/>
<polygon fill="midnightblue" stroke="midnightblue" points="40.7615,-117.814 30.6762,-114.568 36.5361,-123.394 40.7615,-117.814"/>
</g>
<!-- Node3 -->
<g id="node4" class="node"><title>Node3</title>
<g id="a_node4"><a xlink:href="class_magic_amulet.html" target="_top" xlink:title="An item that increases a player&#39;s maximum magic points by 3 ">
<polygon fill="none" stroke="black" points="71,-114.5 71,-133.5 145,-133.5 145,-114.5 71,-114.5"/>
<text text-anchor="middle" x="108" y="-121.5" font-family="Helvetica,sans-Serif" font-size="10.00">MagicAmulet</text>
</a>
</g>
</g>
<!-- Node0&#45;&gt;Node3 -->
<g id="edge3" class="edge"><title>Node0&#45;&gt;Node3</title>
<path fill="none" stroke="midnightblue" d="M45.1675,-110.725C53.2927,-112.47 62.3624,-114.417 70.9977,-116.271"/>
<polygon fill="midnightblue" stroke="midnightblue" points="45.6581,-107.251 35.1462,-108.574 44.1887,-114.095 45.6581,-107.251"/>
</g>
<!-- Node4 -->
<g id="node5" class="node"><title>Node4</title>
<g id="a_node5"><a xlink:href="class_rabbit_foot.html" target="_top" xlink:title="An item that increases a player&#39;s luck stat by 5 ">
<polygon fill="none" stroke="black" points="76,-76.5 76,-95.5 140,-95.5 140,-76.5 76,-76.5"/>
<text text-anchor="middle" x="108" y="-83.5" font-family="Helvetica,sans-Serif" font-size="10.00">RabbitFoot</text>
</a>
</g>
</g>
<!-- Node0&#45;&gt;Node4 -->
<g id="edge4" class="edge"><title>Node0&#45;&gt;Node4</title>
<path fill="none" stroke="midnightblue" d="M44.9968,-99.3114C54.6671,-97.2353 65.6936,-94.868 75.7398,-92.7112"/>
<polygon fill="midnightblue" stroke="midnightblue" points="44.1887,-95.9051 35.1462,-101.426 45.6581,-102.749 44.1887,-95.9051"/>
</g>
<!-- Node5 -->
<g id="node6" class="node"><title>Node5</title>
<g id="a_node6"><a xlink:href="class_shield.html" target="_top" xlink:title="An item that increases a player&#39;s defence stat by 5 ">
<polygon fill="none" stroke="black" points="86,-38.5 86,-57.5 130,-57.5 130,-38.5 86,-38.5"/>
<text text-anchor="middle" x="108" y="-45.5" font-family="Helvetica,sans-Serif" font-size="10.00">Shield</text>
</a>
</g>
</g>
<!-- Node0&#45;&gt;Node5 -->
<g id="edge5" class="edge"><title>Node0&#45;&gt;Node5</title>
<path fill="none" stroke="midnightblue" d="M38.7726,-89.3023C48.3315,-82.1694 60.0251,-73.8208 71,-67 76.282,-63.7173 82.1866,-60.4463 87.6615,-57.5669"/>
<polygon fill="midnightblue" stroke="midnightblue" points="36.5361,-86.6056 30.6762,-95.4324 40.7615,-92.1864 36.5361,-86.6056"/>
</g>
<!-- Node6 -->
<g id="node7" class="node"><title>Node6</title>
<g id="a_node7"><a xlink:href="class_trainers.html" target="_top" xlink:title="An item that increases a player&#39;s speed stat by 5 ">
<polygon fill="none" stroke="black" points="82.5,-0.5 82.5,-19.5 133.5,-19.5 133.5,-0.5 82.5,-0.5"/>
<text text-anchor="middle" x="108" y="-7.5" font-family="Helvetica,sans-Serif" font-size="10.00">Trainers</text>
</a>
</g>
</g>
<!-- Node0&#45;&gt;Node6 -->
<g id="edge6" class="edge"><title>Node0&#45;&gt;Node6</title>
<path fill="none" stroke="midnightblue" d="M28.0994,-86.166C37.3207,-69.5082 52.553,-45.3745 71,-29 75.0168,-25.4345 79.8214,-22.3115 84.5922,-19.6824"/>
<polygon fill="midnightblue" stroke="midnightblue" points="25.008,-84.5249 23.3858,-94.9948 31.1831,-87.8217 25.008,-84.5249"/>
</g>
</g>
</svg>
