<?xml version="1.0" encoding="UTF-8" standalone="no"?>
<!DOCTYPE svg PUBLIC "-//W3C//DTD SVG 1.1//EN"
 "http://www.w3.org/Graphics/SVG/1.1/DTD/svg11.dtd">
<!-- Generated by graphviz version 2.38.0 (20140413.2041)
 -->
<!-- Title: Graphical Class Hierarchy Pages: 1 -->
<svg width="219pt" height="864pt"
 viewBox="0.00 0.00 219.00 864.00" xmlns="http://www.w3.org/2000/svg" xmlns:xlink="http://www.w3.org/1999/xlink">
<g id="graph0" class="graph" transform="scale(1 1) rotate(0) translate(4 860)">
<title>Graphical Class Hierarchy</title>
<!-- Node0 -->
<g id="node1" class="node"><title>Node0</title>
<g id="a_node1"><a xlink:href="class_mono_behaviour.html" target="_top" xlink:title="MonoBehaviour">
<polygon fill="none" stroke="black" points="0,-418.5 0,-437.5 83,-437.5 83,-418.5 0,-418.5"/>
<text text-anchor="middle" x="41.5" y="-425.5" font-family="Helvetica,sans-Serif" font-size="10.00">MonoBehaviour</text>
</a>
</g>
</g>
<!-- Node1 -->
<g id="node2" class="node"><title>Node1</title>
<g id="a_node2"><a xlink:href="class_attack_button.html" target="_top" xlink:title="Script to handle the function of the Attack Button in the Battle Scene">
<polygon fill="none" stroke="black" points="128,-836.5 128,-855.5 202,-855.5 202,-836.5 128,-836.5"/>
<text text-anchor="middle" x="165" y="-843.5" font-family="Helvetica,sans-Serif" font-size="10.00">AttackButton</text>
</a>
</g>
</g>
<!-- Node0&#45;&gt;Node1 -->
<g id="edge1" class="edge"><title>Node0&#45;&gt;Node1</title>
<path fill="none" stroke="midnightblue" d="M43.8689,-447.942C49.1929,-520.212 70.6654,-767.272 119,-827 122.094,-830.823 126.096,-833.89 130.436,-836.346"/>
<polygon fill="midnightblue" stroke="midnightblue" points="47.331,-447.285 43.128,-437.56 40.3488,-447.784 47.331,-447.285"/>
</g>
<!-- Node2 -->
<g id="node3" class="node"><title>Node2</title>
<g id="a_node3"><a xlink:href="class_battle_descriptor.html" target="_top" xlink:title="A component that be added to an object to describe the parameters of a battle from within the Unity E...">
<polygon fill="none" stroke="black" points="122,-798.5 122,-817.5 208,-817.5 208,-798.5 122,-798.5"/>
<text text-anchor="middle" x="165" y="-805.5" font-family="Helvetica,sans-Serif" font-size="10.00">BattleDescriptor</text>
</a>
</g>
</g>
<!-- Node0&#45;&gt;Node2 -->
<g id="edge2" class="edge"><title>Node0&#45;&gt;Node2</title>
<path fill="none" stroke="midnightblue" d="M44.2931,-447.774C50.7736,-515.316 74.9541,-735.638 119,-789 122.131,-792.793 126.153,-795.843 130.502,-798.291"/>
<polygon fill="midnightblue" stroke="midnightblue" points="47.7621,-447.279 43.3456,-437.648 40.7925,-447.931 47.7621,-447.279"/>
</g>
<!-- Node3 -->
<g id="node4" class="node"><title>Node3</title>
<g id="a_node4"><a xlink:href="class_button_manager.html" target="_top" xlink:title="ButtonManager">
<polygon fill="none" stroke="black" points="123.5,-760.5 123.5,-779.5 206.5,-779.5 206.5,-760.5 123.5,-760.5"/>
<text text-anchor="middle" x="165" y="-767.5" font-family="Helvetica,sans-Serif" font-size="10.00">ButtonManager</text>
</a>
</g>
</g>
<!-- Node0&#45;&gt;Node3 -->
<g id="edge3" class="edge"><title>Node0&#45;&gt;Node3</title>
<path fill="none" stroke="midnightblue" d="M44.8193,-447.691C52.5536,-510.386 79.242,-703.981 119,-751 122.285,-754.885 126.503,-757.993 131.035,-760.474"/>
<polygon fill="midnightblue" stroke="midnightblue" points="48.2711,-447.081 43.5968,-437.573 41.3216,-447.921 48.2711,-447.081"/>
</g>
<!-- Node4 -->
<g id="node5" class="node"><title>Node4</title>
<g id="a_node5"><a xlink:href="class_camera_controller.html" target="_top" xlink:title="Script to move the camera around so that it follows the player">
<polygon fill="none" stroke="black" points="119,-722.5 119,-741.5 211,-741.5 211,-722.5 119,-722.5"/>
<text text-anchor="middle" x="165" y="-729.5" font-family="Helvetica,sans-Serif" font-size="10.00">CameraController</text>
</a>
</g>
</g>
<!-- Node0&#45;&gt;Node4 -->
<g id="edge4" class="edge"><title>Node0&#45;&gt;Node4</title>
<path fill="none" stroke="midnightblue" d="M42.1838,-447.977C42.4523,-498.656 49.9959,-633.808 119,-713 122.343,-716.836 126.59,-719.918 131.135,-722.388"/>
<polygon fill="midnightblue" stroke="midnightblue" points="45.6847,-447.753 42.2279,-437.738 38.6848,-447.723 45.6847,-447.753"/>
</g>
<!-- Node5 -->
<g id="node6" class="node"><title>Node5</title>
<g id="a_node6"><a xlink:href="class_canvas_script.html" target="_top" xlink:title="Added to a canvas holding the dialogue elements to ensure it&#39;s not destroyed when a new scene is crea...">
<polygon fill="none" stroke="black" points="128,-684.5 128,-703.5 202,-703.5 202,-684.5 128,-684.5"/>
<text text-anchor="middle" x="165" y="-691.5" font-family="Helvetica,sans-Serif" font-size="10.00">CanvasScript</text>
</a>
</g>
</g>
<!-- Node0&#45;&gt;Node5 -->
<g id="edge5" class="edge"><title>Node0&#45;&gt;Node5</title>
<path fill="none" stroke="midnightblue" d="M43.1908,-448.063C45.8208,-494.027 58.4465,-608.123 119,-675 122.415,-678.772 126.701,-681.819 131.263,-684.275"/>
<polygon fill="midnightblue" stroke="midnightblue" points="46.6796,-447.741 42.7145,-437.916 39.6873,-448.069 46.6796,-447.741"/>
</g>
<!-- Node6 -->
<g id="node7" class="node"><title>Node6</title>
<g id="a_node7"><a xlink:href="class_container_data.html" target="_top" xlink:title="ContainerData">
<polygon fill="none" stroke="black" points="126,-646.5 126,-665.5 204,-665.5 204,-646.5 126,-646.5"/>
<text text-anchor="middle" x="165" y="-653.5" font-family="Helvetica,sans-Serif" font-size="10.00">ContainerData</text>
</a>
</g>
</g>
<!-- Node0&#45;&gt;Node6 -->
<g id="edge6" class="edge"><title>Node0&#45;&gt;Node6</title>
<path fill="none" stroke="midnightblue" d="M44.4883,-447.698C49.5818,-488.284 66.6275,-582.016 119,-637 122.626,-640.807 127.136,-643.885 131.887,-646.363"/>
<polygon fill="midnightblue" stroke="midnightblue" points="47.9627,-447.274 43.3492,-437.737 41.008,-448.07 47.9627,-447.274"/>
</g>
<!-- Node7 -->
<g id="node8" class="node"><title>Node7</title>
<g id="a_node8"><a xlink:href="class_dialogue_script.html" target="_top" xlink:title="Script to show dialogue, as well as step through multiple lines and close afterwards ...">
<polygon fill="none" stroke="black" points="125,-608.5 125,-627.5 205,-627.5 205,-608.5 125,-608.5"/>
<text text-anchor="middle" x="165" y="-615.5" font-family="Helvetica,sans-Serif" font-size="10.00">DialogueScript</text>
</a>
</g>
</g>
<!-- Node0&#45;&gt;Node7 -->
<g id="edge7" class="edge"><title>Node0&#45;&gt;Node7</title>
<path fill="none" stroke="midnightblue" d="M46.2798,-447.4C54.0075,-482.211 74.7541,-555.68 119,-599 122.878,-602.797 127.63,-605.883 132.576,-608.376"/>
<polygon fill="midnightblue" stroke="midnightblue" points="49.691,-446.613 44.215,-437.543 42.8397,-448.049 49.691,-446.613"/>
</g>
<!-- Node8 -->
<g id="node9" class="node"><title>Node8</title>
<g id="a_node9"><a xlink:href="class_global_functions.html" target="_top" xlink:title="Provides functions and variables to be accessed by any game object to allow data to be passed between...">
<polygon fill="none" stroke="black" points="121.5,-570.5 121.5,-589.5 208.5,-589.5 208.5,-570.5 121.5,-570.5"/>
<text text-anchor="middle" x="165" y="-577.5" font-family="Helvetica,sans-Serif" font-size="10.00">GlobalFunctions</text>
</a>
</g>
</g>
<!-- Node0&#45;&gt;Node8 -->
<g id="edge8" class="edge"><title>Node0&#45;&gt;Node8</title>
<path fill="none" stroke="midnightblue" d="M49.0708,-447.384C59.6255,-475.862 82.9073,-529.077 119,-561 123.319,-564.82 128.519,-567.952 133.827,-570.491"/>
<polygon fill="midnightblue" stroke="midnightblue" points="52.3013,-446.023 45.6486,-437.777 45.7071,-448.372 52.3013,-446.023"/>
</g>
<!-- Node9 -->
<g id="node10" class="node"><title>Node9</title>
<g id="a_node10"><a xlink:href="class_healing_station.html" target="_top" xlink:title="A script describing a healing station, where all player&#39;s health and magic are restored ...">
<polygon fill="none" stroke="black" points="125,-532.5 125,-551.5 205,-551.5 205,-532.5 125,-532.5"/>
<text text-anchor="middle" x="165" y="-539.5" font-family="Helvetica,sans-Serif" font-size="10.00">HealingStation</text>
</a>
</g>
</g>
<!-- Node0&#45;&gt;Node9 -->
<g id="edge9" class="edge"><title>Node0&#45;&gt;Node9</title>
<path fill="none" stroke="midnightblue" d="M53.2802,-446.278C66.4601,-467.264 90.5576,-501.549 119,-523 123.875,-526.677 129.567,-529.788 135.231,-532.361"/>
<polygon fill="midnightblue" stroke="midnightblue" points="56.2177,-444.372 48.0165,-437.665 50.2448,-448.023 56.2177,-444.372"/>
</g>
<!-- Node10 -->
<g id="node11" class="node"><title>Node10</title>
<g id="a_node11"><a xlink:href="class_item_data.html" target="_top" xlink:title="A component to add to a drag and drop cell, carrying the data for the item the cell references ...">
<polygon fill="none" stroke="black" points="137,-494.5 137,-513.5 193,-513.5 193,-494.5 137,-494.5"/>
<text text-anchor="middle" x="165" y="-501.5" font-family="Helvetica,sans-Serif" font-size="10.00">ItemData</text>
</a>
</g>
</g>
<!-- Node0&#45;&gt;Node10 -->
<g id="edge10" class="edge"><title>Node0&#45;&gt;Node10</title>
<path fill="none" stroke="midnightblue" d="M61.7983,-444.436C76.7495,-456.647 98.3331,-473.169 119,-485 125.035,-488.455 131.821,-491.646 138.257,-494.388"/>
<polygon fill="midnightblue" stroke="midnightblue" points="63.7487,-441.506 53.8187,-437.812 59.2778,-446.892 63.7487,-441.506"/>
</g>
<!-- Node11 -->
<g id="node12" class="node"><title>Node11</title>
<g id="a_node12"><a xlink:href="class_items_menu_script.html" target="_top" xlink:title="Controls all initialisation of menu and updates arrays when an item is moved ">
<polygon fill="none" stroke="black" points="120,-456.5 120,-475.5 210,-475.5 210,-456.5 120,-456.5"/>
<text text-anchor="middle" x="165" y="-463.5" font-family="Helvetica,sans-Serif" font-size="10.00">ItemsMenuScript</text>
</a>
</g>
</g>
<!-- Node0&#45;&gt;Node11 -->
<g id="edge11" class="edge"><title>Node0&#45;&gt;Node11</title>
<path fill="none" stroke="midnightblue" d="M83.044,-440.68C99.4606,-445.815 118.099,-451.644 133.35,-456.414"/>
<polygon fill="midnightblue" stroke="midnightblue" points="83.7485,-437.234 73.1596,-437.589 81.6589,-443.914 83.7485,-437.234"/>
</g>
<!-- Node12 -->
<g id="node13" class="node"><title>Node12</title>
<g id="a_node13"><a xlink:href="class_level_manager.html" target="_top" xlink:title="A script used to check and handle when a level is beat by defeating the final boss ...">
<polygon fill="none" stroke="black" points="127,-418.5 127,-437.5 203,-437.5 203,-418.5 127,-418.5"/>
<text text-anchor="middle" x="165" y="-425.5" font-family="Helvetica,sans-Serif" font-size="10.00">LevelManager</text>
</a>
</g>
</g>
<!-- Node0&#45;&gt;Node12 -->
<g id="edge12" class="edge"><title>Node0&#45;&gt;Node12</title>
<path fill="none" stroke="midnightblue" d="M93.4035,-428C104.599,-428 116.254,-428 126.79,-428"/>
<polygon fill="midnightblue" stroke="midnightblue" points="93.2958,-424.5 83.2957,-428 93.2957,-431.5 93.2958,-424.5"/>
</g>
<!-- Node13 -->
<g id="node14" class="node"><title>Node13</title>
<g id="a_node14"><a xlink:href="class_main_battle.html" target="_top" xlink:title="Script for handing a battle scene. Uses BattleManager, but handles turn order and execution as well a...">
<polygon fill="none" stroke="black" points="133.5,-380.5 133.5,-399.5 196.5,-399.5 196.5,-380.5 133.5,-380.5"/>
<text text-anchor="middle" x="165" y="-387.5" font-family="Helvetica,sans-Serif" font-size="10.00">MainBattle</text>
</a>
</g>
</g>
<!-- Node0&#45;&gt;Node13 -->
<g id="edge13" class="edge"><title>Node0&#45;&gt;Node13</title>
<path fill="none" stroke="midnightblue" d="M83.044,-415.32C99.4606,-410.185 118.099,-404.356 133.35,-399.586"/>
<polygon fill="midnightblue" stroke="midnightblue" points="81.6589,-412.086 73.1596,-418.411 83.7485,-418.766 81.6589,-412.086"/>
</g>
<!-- Node14 -->
<g id="node15" class="node"><title>Node14</title>
<g id="a_node15"><a xlink:href="class_menu_script.html" target="_top" xlink:title="Script to handle the main menu ">
<polygon fill="none" stroke="black" points="132,-342.5 132,-361.5 198,-361.5 198,-342.5 132,-342.5"/>
<text text-anchor="middle" x="165" y="-349.5" font-family="Helvetica,sans-Serif" font-size="10.00">MenuScript</text>
</a>
</g>
</g>
<!-- Node0&#45;&gt;Node14 -->
<g id="edge14" class="edge"><title>Node0&#45;&gt;Node14</title>
<path fill="none" stroke="midnightblue" d="M61.7983,-411.564C76.7495,-399.353 98.3331,-382.831 119,-371 125.035,-367.545 131.821,-364.354 138.257,-361.612"/>
<polygon fill="midnightblue" stroke="midnightblue" points="59.2778,-409.108 53.8187,-418.188 63.7487,-414.494 59.2778,-409.108"/>
</g>
<!-- Node15 -->
<g id="node16" class="node"><title>Node15</title>
<g id="a_node16"><a xlink:href="class_object_interaction.html" target="_top" xlink:title="A component to add to collider relating to an object that can interact with the player by pressing th...">
<polygon fill="none" stroke="black" points="120,-304.5 120,-323.5 210,-323.5 210,-304.5 120,-304.5"/>
<text text-anchor="middle" x="165" y="-311.5" font-family="Helvetica,sans-Serif" font-size="10.00">ObjectInteraction</text>
</a>
</g>
</g>
<!-- Node0&#45;&gt;Node15 -->
<g id="edge15" class="edge"><title>Node0&#45;&gt;Node15</title>
<path fill="none" stroke="midnightblue" d="M53.2802,-409.722C66.4601,-388.736 90.5576,-354.451 119,-333 123.875,-329.323 129.567,-326.212 135.231,-323.639"/>
<polygon fill="midnightblue" stroke="midnightblue" points="50.2448,-407.977 48.0165,-418.335 56.2177,-411.628 50.2448,-407.977"/>
</g>
<!-- Node16 -->
<g id="node17" class="node"><title>Node16</title>
<g id="a_node17"><a xlink:href="class_player_data.html" target="_top" xlink:title="A monobehaviour object to house an instance of DataManager so it can be called by other objects ...">
<polygon fill="none" stroke="black" points="132.5,-266.5 132.5,-285.5 197.5,-285.5 197.5,-266.5 132.5,-266.5"/>
<text text-anchor="middle" x="165" y="-273.5" font-family="Helvetica,sans-Serif" font-size="10.00">PlayerData</text>
</a>
</g>
</g>
<!-- Node0&#45;&gt;Node16 -->
<g id="edge16" class="edge"><title>Node0&#45;&gt;Node16</title>
<path fill="none" stroke="midnightblue" d="M49.0708,-408.616C59.6255,-380.138 82.9073,-326.923 119,-295 123.319,-291.18 128.519,-288.048 133.827,-285.509"/>
<polygon fill="midnightblue" stroke="midnightblue" points="45.7071,-407.628 45.6486,-418.223 52.3013,-409.977 45.7071,-407.628"/>
</g>
<!-- Node17 -->
<g id="node18" class="node"><title>Node17</title>
<g id="a_node18"><a xlink:href="class_player_movement.html" target="_top" xlink:title="A script to control the movement and animations of the player">
<polygon fill="none" stroke="black" points="120.5,-228.5 120.5,-247.5 209.5,-247.5 209.5,-228.5 120.5,-228.5"/>
<text text-anchor="middle" x="165" y="-235.5" font-family="Helvetica,sans-Serif" font-size="10.00">PlayerMovement</text>
</a>
</g>
</g>
<!-- Node0&#45;&gt;Node17 -->
<g id="edge17" class="edge"><title>Node0&#45;&gt;Node17</title>
<path fill="none" stroke="midnightblue" d="M46.2798,-408.6C54.0075,-373.789 74.7541,-300.32 119,-257 122.878,-253.203 127.63,-250.117 132.576,-247.624"/>
<polygon fill="midnightblue" stroke="midnightblue" points="42.8397,-407.951 44.215,-418.457 49.691,-409.387 42.8397,-407.951"/>
</g>
<!-- Node18 -->
<g id="node19" class="node"><title>Node18</title>
<g id="a_node19"><a xlink:href="class_portal.html" target="_top" xlink:title="A component to add to an object, such as when the player touches it they are teleported to a new scen...">
<polygon fill="none" stroke="black" points="144,-190.5 144,-209.5 186,-209.5 186,-190.5 144,-190.5"/>
<text text-anchor="middle" x="165" y="-197.5" font-family="Helvetica,sans-Serif" font-size="10.00">Portal</text>
</a>
</g>
</g>
<!-- Node0&#45;&gt;Node18 -->
<g id="edge18" class="edge"><title>Node0&#45;&gt;Node18</title>
<path fill="none" stroke="midnightblue" d="M44.4883,-408.302C49.5818,-367.716 66.6275,-273.984 119,-219 125.668,-212 135.321,-207.466 143.978,-204.591"/>
<polygon fill="midnightblue" stroke="midnightblue" points="41.008,-407.93 43.3492,-418.263 47.9627,-408.726 41.008,-407.93"/>
</g>
<!-- Node19 -->
<g id="node20" class="node"><title>Node19</title>
<g id="a_node20"><a xlink:href="class_quit.html" target="_top" xlink:title="Quit">
<polygon fill="none" stroke="black" points="147.5,-152.5 147.5,-171.5 182.5,-171.5 182.5,-152.5 147.5,-152.5"/>
<text text-anchor="middle" x="165" y="-159.5" font-family="Helvetica,sans-Serif" font-size="10.00">Quit</text>
</a>
</g>
</g>
<!-- Node0&#45;&gt;Node19 -->
<g id="edge19" class="edge"><title>Node0&#45;&gt;Node19</title>
<path fill="none" stroke="midnightblue" d="M43.1908,-407.937C45.8208,-361.973 58.4465,-247.877 119,-181 126.399,-172.828 137.888,-168.056 147.405,-165.338"/>
<polygon fill="midnightblue" stroke="midnightblue" points="39.6873,-407.931 42.7145,-418.084 46.6796,-408.259 39.6873,-407.931"/>
</g>
<!-- Node20 -->
<g id="node21" class="node"><title>Node20</title>
<g id="a_node21"><a xlink:href="class_scene_changer.html" target="_top" xlink:title="A set of functions to be called to change scenes smoothly whilst handling the player&#39;s location and a...">
<polygon fill="none" stroke="black" points="125,-114.5 125,-133.5 205,-133.5 205,-114.5 125,-114.5"/>
<text text-anchor="middle" x="165" y="-121.5" font-family="Helvetica,sans-Serif" font-size="10.00">SceneChanger</text>
</a>
</g>
</g>
<!-- Node0&#45;&gt;Node20 -->
<g id="edge20" class="edge"><title>Node0&#45;&gt;Node20</title>
<path fill="none" stroke="midnightblue" d="M42.1838,-408.023C42.4523,-357.344 49.9959,-222.192 119,-143 122.343,-139.164 126.59,-136.082 131.135,-133.612"/>
<polygon fill="midnightblue" stroke="midnightblue" points="38.6848,-408.277 42.2279,-418.262 45.6847,-408.247 38.6848,-408.277"/>
</g>
<!-- Node21 -->
<g id="node22" class="node"><title>Node21</title>
<g id="a_node22"><a xlink:href="class_sound_manager.html" target="_top" xlink:title="A script to manage all background music and sound effects in the game ">
<polygon fill="none" stroke="black" points="124,-76.5 124,-95.5 206,-95.5 206,-76.5 124,-76.5"/>
<text text-anchor="middle" x="165" y="-83.5" font-family="Helvetica,sans-Serif" font-size="10.00">SoundManager</text>
</a>
</g>
</g>
<!-- Node0&#45;&gt;Node21 -->
<g id="edge21" class="edge"><title>Node0&#45;&gt;Node21</title>
<path fill="none" stroke="midnightblue" d="M44.8193,-408.309C52.5536,-345.614 79.242,-152.019 119,-105 122.285,-101.115 126.503,-98.0068 131.035,-95.5255"/>
<polygon fill="midnightblue" stroke="midnightblue" points="41.3216,-408.079 43.5968,-418.427 48.2711,-408.919 41.3216,-408.079"/>
</g>
<!-- Node22 -->
<g id="node23" class="node"><title>Node22</title>
<g id="a_node23"><a xlink:href="class_stats_script.html" target="_top" xlink:title="A script used to manage and update all of the stat displays in the battle scene ">
<polygon fill="none" stroke="black" points="132.5,-38.5 132.5,-57.5 197.5,-57.5 197.5,-38.5 132.5,-38.5"/>
<text text-anchor="middle" x="165" y="-45.5" font-family="Helvetica,sans-Serif" font-size="10.00">StatsScript</text>
</a>
</g>
</g>
<!-- Node0&#45;&gt;Node22 -->
<g id="edge22" class="edge"><title>Node0&#45;&gt;Node22</title>
<path fill="none" stroke="midnightblue" d="M44.2931,-408.226C50.7736,-340.684 74.9541,-120.362 119,-67 122.563,-62.6835 127.28,-59.3298 132.319,-56.7294"/>
<polygon fill="midnightblue" stroke="midnightblue" points="40.7925,-408.069 43.3456,-418.352 47.7621,-408.721 40.7925,-408.069"/>
</g>
<!-- Node23 -->
<g id="node24" class="node"><title>Node23</title>
<g id="a_node24"><a xlink:href="class_world_map_script.html" target="_top" xlink:title="A controler for the world map, stopping players from entering old or future levels, and colouring the departments approriately">
<polygon fill="none" stroke="black" points="122,-0.5 122,-19.5 208,-19.5 208,-0.5 122,-0.5"/>
<text text-anchor="middle" x="165" y="-7.5" font-family="Helvetica,sans-Serif" font-size="10.00">WorldMapScript</text>
</a>
</g>
</g>
<!-- Node0&#45;&gt;Node23 -->
<g id="edge23" class="edge"><title>Node0&#45;&gt;Node23</title>
<path fill="none" stroke="midnightblue" d="M43.8689,-408.058C49.1929,-335.788 70.6654,-88.7276 119,-29 122.094,-25.1765 126.096,-22.1103 130.436,-19.6544"/>
<polygon fill="midnightblue" stroke="midnightblue" points="40.3488,-408.216 43.128,-418.44 47.331,-408.715 40.3488,-408.216"/>
</g>
</g>
</svg>
