<?xml version="1.0" encoding="UTF-8" standalone="no"?>
<!DOCTYPE svg PUBLIC "-//W3C//DTD SVG 1.1//EN"
 "http://www.w3.org/Graphics/SVG/1.1/DTD/svg11.dtd">
<!-- Generated by graphviz version 2.38.0 (20140413.2041)
 -->
<!-- Title: Graphical Class Hierarchy Pages: 1 -->
<svg width="242pt" height="864pt"
 viewBox="0.00 0.00 242.00 864.00" xmlns="http://www.w3.org/2000/svg" xmlns:xlink="http://www.w3.org/1999/xlink">
<g id="graph0" class="graph" transform="scale(1 1) rotate(0) translate(4 860)">
<title>Graphical Class Hierarchy</title>
<!-- Node0 -->
<g id="node1" class="node"><title>Node0</title>
<g id="a_node1"><a xlink:href="class_mono_behaviour.html" target="_top" xlink:title="MonoBehaviour">
<polygon fill="none" stroke="black" points="0,-418.5 0,-437.5 83,-437.5 83,-418.5 0,-418.5"/>
<text text-anchor="middle" x="41.5" y="-425.5" font-family="Helvetica,sans-Serif" font-size="10.00">MonoBehaviour</text>
</a>
</g>
</g>
<!-- Node1 -->
<g id="node2" class="node"><title>Node1</title>
<g id="a_node2"><a xlink:href="class_battle_buttons.html" target="_top" xlink:title="Script to handle the function of the Attack Button in the Battle Scene">
<polygon fill="none" stroke="black" points="138.5,-836.5 138.5,-855.5 214.5,-855.5 214.5,-836.5 138.5,-836.5"/>
<text text-anchor="middle" x="176.5" y="-843.5" font-family="Helvetica,sans-Serif" font-size="10.00">BattleButtons</text>
</a>
</g>
</g>
<!-- Node0&#45;&gt;Node1 -->
<g id="edge1" class="edge"><title>Node0&#45;&gt;Node1</title>
<path fill="none" stroke="midnightblue" d="M43.6923,-447.618C48.453,-519.74 68.3527,-769.01 119,-827 124.106,-832.846 131.069,-836.897 138.364,-839.704"/>
<polygon fill="midnightblue" stroke="midnightblue" points="47.1842,-447.378 43.0559,-437.62 40.1984,-447.823 47.1842,-447.378"/>
</g>
<!-- Node2 -->
<g id="node3" class="node"><title>Node2</title>
<g id="a_node3"><a xlink:href="class_battle_descriptor.html" target="_top" xlink:title="A component that be added to an object to describe the parameters of a battle from within the Unity E...">
<polygon fill="none" stroke="black" points="133.5,-798.5 133.5,-817.5 219.5,-817.5 219.5,-798.5 133.5,-798.5"/>
<text text-anchor="middle" x="176.5" y="-805.5" font-family="Helvetica,sans-Serif" font-size="10.00">BattleDescriptor</text>
</a>
</g>
</g>
<!-- Node0&#45;&gt;Node2 -->
<g id="edge2" class="edge"><title>Node0&#45;&gt;Node2</title>
<path fill="none" stroke="midnightblue" d="M44.1486,-447.898C50.1572,-515.844 72.9815,-737.33 119,-789 122.923,-793.405 127.9,-796.79 133.268,-799.392"/>
<polygon fill="midnightblue" stroke="midnightblue" points="47.6166,-447.374 43.2734,-437.71 40.6422,-447.973 47.6166,-447.374"/>
</g>
<!-- Node3 -->
<g id="node4" class="node"><title>Node3</title>
<g id="a_node4"><a xlink:href="class_camera_controller.html" target="_top" xlink:title="Script to move the camera around so that it follows the player">
<polygon fill="none" stroke="black" points="130.5,-760.5 130.5,-779.5 222.5,-779.5 222.5,-760.5 130.5,-760.5"/>
<text text-anchor="middle" x="176.5" y="-767.5" font-family="Helvetica,sans-Serif" font-size="10.00">CameraController</text>
</a>
</g>
</g>
<!-- Node0&#45;&gt;Node3 -->
<g id="edge3" class="edge"><title>Node0&#45;&gt;Node3</title>
<path fill="none" stroke="midnightblue" d="M44.677,-447.816C51.9794,-510.89 77.5046,-705.507 119,-751 122.557,-754.899 126.939,-757.999 131.676,-760.463"/>
<polygon fill="midnightblue" stroke="midnightblue" points="48.1273,-447.179 43.5258,-437.635 41.1716,-447.965 48.1273,-447.179"/>
</g>
<!-- Node4 -->
<g id="node5" class="node"><title>Node4</title>
<g id="a_node5"><a xlink:href="class_canvas_script.html" target="_top" xlink:title="Added to a canvas holding the dialogue elements to ensure it&#39;s not destroyed when a new scene is crea...">
<polygon fill="none" stroke="black" points="139.5,-722.5 139.5,-741.5 213.5,-741.5 213.5,-722.5 139.5,-722.5"/>
<text text-anchor="middle" x="176.5" y="-729.5" font-family="Helvetica,sans-Serif" font-size="10.00">CanvasScript</text>
</a>
</g>
</g>
<!-- Node0&#45;&gt;Node4 -->
<g id="edge4" class="edge"><title>Node0&#45;&gt;Node4</title>
<path fill="none" stroke="midnightblue" d="M41.8398,-447.944C41.2618,-499.091 46.9083,-636.282 119,-713 124.457,-718.807 131.743,-722.84 139.263,-725.64"/>
<polygon fill="midnightblue" stroke="midnightblue" points="45.3457,-447.7 42.0597,-437.628 38.3473,-447.551 45.3457,-447.7"/>
</g>
<!-- Node5 -->
<g id="node6" class="node"><title>Node5</title>
<g id="a_node6"><a xlink:href="class_container_data.html" target="_top" xlink:title="An attribute to store information for a container in the item menu ">
<polygon fill="none" stroke="black" points="137.5,-684.5 137.5,-703.5 215.5,-703.5 215.5,-684.5 137.5,-684.5"/>
<text text-anchor="middle" x="176.5" y="-691.5" font-family="Helvetica,sans-Serif" font-size="10.00">ContainerData</text>
</a>
</g>
</g>
<!-- Node0&#45;&gt;Node5 -->
<g id="edge5" class="edge"><title>Node0&#45;&gt;Node5</title>
<path fill="none" stroke="midnightblue" d="M42.8229,-447.748C44.6578,-493.964 55.689,-610.147 119,-675 124.06,-680.184 130.578,-683.953 137.377,-686.694"/>
<polygon fill="midnightblue" stroke="midnightblue" points="46.3165,-447.473 42.5284,-437.579 39.3195,-447.676 46.3165,-447.473"/>
</g>
<!-- Node6 -->
<g id="node7" class="node"><title>Node6</title>
<g id="a_node7"><a xlink:href="class_dialogue_script.html" target="_top" xlink:title="Script to show dialogue, as well as step through multiple lines and close afterwards ...">
<polygon fill="none" stroke="black" points="136.5,-646.5 136.5,-665.5 216.5,-665.5 216.5,-646.5 136.5,-646.5"/>
<text text-anchor="middle" x="176.5" y="-653.5" font-family="Helvetica,sans-Serif" font-size="10.00">DialogueScript</text>
</a>
</g>
</g>
<!-- Node0&#45;&gt;Node6 -->
<g id="edge6" class="edge"><title>Node0&#45;&gt;Node6</title>
<path fill="none" stroke="midnightblue" d="M44.16,-448.023C48.6397,-489.216 64.5999,-584.022 119,-637 123.893,-641.765 130.019,-645.336 136.416,-648.012"/>
<polygon fill="midnightblue" stroke="midnightblue" points="47.6278,-447.521 43.1785,-437.905 40.6605,-448.197 47.6278,-447.521"/>
</g>
<!-- Node7 -->
<g id="node8" class="node"><title>Node7</title>
<g id="a_node8"><a xlink:href="class_exploration_menu_script.html" target="_top" xlink:title="A script to manage the exploration menu that the user can call up at anytime ">
<polygon fill="none" stroke="black" points="119,-608.5 119,-627.5 234,-627.5 234,-608.5 119,-608.5"/>
<text text-anchor="middle" x="176.5" y="-615.5" font-family="Helvetica,sans-Serif" font-size="10.00">ExplorationMenuScript</text>
</a>
</g>
</g>
<!-- Node0&#45;&gt;Node7 -->
<g id="edge7" class="edge"><title>Node0&#45;&gt;Node7</title>
<path fill="none" stroke="midnightblue" d="M45.9655,-447.733C53.1898,-483.078 73.1588,-557.372 119,-599 123.29,-602.896 128.407,-605.997 133.784,-608.464"/>
<polygon fill="midnightblue" stroke="midnightblue" points="49.3662,-446.882 44.0511,-437.717 42.4907,-448.197 49.3662,-446.882"/>
</g>
<!-- Node8 -->
<g id="node9" class="node"><title>Node8</title>
<g id="a_node9"><a xlink:href="class_global_functions.html" target="_top" xlink:title="Provides functions and variables to be accessed by any game object to allow data to be passed between...">
<polygon fill="none" stroke="black" points="133,-570.5 133,-589.5 220,-589.5 220,-570.5 133,-570.5"/>
<text text-anchor="middle" x="176.5" y="-577.5" font-family="Helvetica,sans-Serif" font-size="10.00">GlobalFunctions</text>
</a>
</g>
</g>
<!-- Node0&#45;&gt;Node8 -->
<g id="edge8" class="edge"><title>Node0&#45;&gt;Node8</title>
<path fill="none" stroke="midnightblue" d="M48.6192,-447.317C58.7139,-476.143 81.5514,-530.305 119,-561 123.722,-564.871 129.269,-567.966 135.009,-570.439"/>
<polygon fill="midnightblue" stroke="midnightblue" points="51.8636,-445.983 45.3703,-437.611 45.2256,-448.205 51.8636,-445.983"/>
</g>
<!-- Node9 -->
<g id="node10" class="node"><title>Node9</title>
<g id="a_node10"><a xlink:href="class_healing_station.html" target="_top" xlink:title="A script describing a healing station, where all player&#39;s health and magic are restored ...">
<polygon fill="none" stroke="black" points="136.5,-532.5 136.5,-551.5 216.5,-551.5 216.5,-532.5 136.5,-532.5"/>
<text text-anchor="middle" x="176.5" y="-539.5" font-family="Helvetica,sans-Serif" font-size="10.00">HealingStation</text>
</a>
</g>
</g>
<!-- Node0&#45;&gt;Node9 -->
<g id="edge9" class="edge"><title>Node0&#45;&gt;Node9</title>
<path fill="none" stroke="midnightblue" d="M52.8044,-446.33C65.6759,-467.649 89.6215,-502.527 119,-523 124.519,-526.846 130.878,-529.964 137.294,-532.475"/>
<polygon fill="midnightblue" stroke="midnightblue" points="55.7612,-444.453 47.69,-437.59 49.7194,-447.988 55.7612,-444.453"/>
</g>
<!-- Node10 -->
<g id="node11" class="node"><title>Node10</title>
<g id="a_node11"><a xlink:href="class_items_menu_script.html" target="_top" xlink:title="Controls all initialisation of menu and updates arrays when an item is moved ">
<polygon fill="none" stroke="black" points="131.5,-494.5 131.5,-513.5 221.5,-513.5 221.5,-494.5 131.5,-494.5"/>
<text text-anchor="middle" x="176.5" y="-501.5" font-family="Helvetica,sans-Serif" font-size="10.00">ItemsMenuScript</text>
</a>
</g>
</g>
<!-- Node0&#45;&gt;Node10 -->
<g id="edge10" class="edge"><title>Node0&#45;&gt;Node10</title>
<path fill="none" stroke="midnightblue" d="M61.0363,-444.455C75.8721,-456.947 97.6581,-473.825 119,-485 125.968,-488.649 133.778,-491.805 141.316,-494.441"/>
<polygon fill="midnightblue" stroke="midnightblue" points="63.0246,-441.549 53.1602,-437.683 58.4608,-446.857 63.0246,-441.549"/>
</g>
<!-- Node11 -->
<g id="node12" class="node"><title>Node11</title>
<g id="a_node12"><a xlink:href="class_level_manager.html" target="_top" xlink:title="A script used to check and handle when a level is beat by defeating the final boss ...">
<polygon fill="none" stroke="black" points="138.5,-456.5 138.5,-475.5 214.5,-475.5 214.5,-456.5 138.5,-456.5"/>
<text text-anchor="middle" x="176.5" y="-463.5" font-family="Helvetica,sans-Serif" font-size="10.00">LevelManager</text>
</a>
</g>
</g>
<!-- Node0&#45;&gt;Node11 -->
<g id="edge11" class="edge"><title>Node0&#45;&gt;Node11</title>
<path fill="none" stroke="midnightblue" d="M85.8669,-440.391C104.081,-445.594 124.939,-451.554 141.949,-456.414"/>
<polygon fill="midnightblue" stroke="midnightblue" points="86.6383,-436.971 76.0615,-437.589 84.7152,-443.702 86.6383,-436.971"/>
</g>
<!-- Node12 -->
<g id="node13" class="node"><title>Node12</title>
<g id="a_node13"><a xlink:href="class_main_battle.html" target="_top" xlink:title="Script for handing a battle scene. Uses BattleManager, but handles turn order and execution as well a...">
<polygon fill="none" stroke="black" points="145,-418.5 145,-437.5 208,-437.5 208,-418.5 145,-418.5"/>
<text text-anchor="middle" x="176.5" y="-425.5" font-family="Helvetica,sans-Serif" font-size="10.00">MainBattle</text>
</a>
</g>
</g>
<!-- Node0&#45;&gt;Node12 -->
<g id="edge12" class="edge"><title>Node0&#45;&gt;Node12</title>
<path fill="none" stroke="midnightblue" d="M93.1585,-428C110.564,-428 129.507,-428 144.831,-428"/>
<polygon fill="midnightblue" stroke="midnightblue" points="93.1271,-424.5 83.1271,-428 93.127,-431.5 93.1271,-424.5"/>
</g>
<!-- Node13 -->
<g id="node14" class="node"><title>Node13</title>
<g id="a_node14"><a xlink:href="class_menu_script.html" target="_top" xlink:title="Script to handle the main menu ">
<polygon fill="none" stroke="black" points="143.5,-380.5 143.5,-399.5 209.5,-399.5 209.5,-380.5 143.5,-380.5"/>
<text text-anchor="middle" x="176.5" y="-387.5" font-family="Helvetica,sans-Serif" font-size="10.00">MenuScript</text>
</a>
</g>
</g>
<!-- Node0&#45;&gt;Node13 -->
<g id="edge13" class="edge"><title>Node0&#45;&gt;Node13</title>
<path fill="none" stroke="midnightblue" d="M85.8399,-415.617C104.554,-410.27 126.065,-404.124 143.326,-399.193"/>
<polygon fill="midnightblue" stroke="midnightblue" points="84.7152,-412.298 76.0615,-418.411 86.6383,-419.029 84.7152,-412.298"/>
</g>
<!-- Node14 -->
<g id="node15" class="node"><title>Node14</title>
<g id="a_node15"><a xlink:href="class_object_interaction.html" target="_top" xlink:title="A component to add to collider relating to an object that can interact with the player by pressing th...">
<polygon fill="none" stroke="black" points="131.5,-342.5 131.5,-361.5 221.5,-361.5 221.5,-342.5 131.5,-342.5"/>
<text text-anchor="middle" x="176.5" y="-349.5" font-family="Helvetica,sans-Serif" font-size="10.00">ObjectInteraction</text>
</a>
</g>
</g>
<!-- Node0&#45;&gt;Node14 -->
<g id="edge14" class="edge"><title>Node0&#45;&gt;Node14</title>
<path fill="none" stroke="midnightblue" d="M61.0363,-411.545C75.8721,-399.053 97.6581,-382.175 119,-371 125.968,-367.351 133.778,-364.195 141.316,-361.559"/>
<polygon fill="midnightblue" stroke="midnightblue" points="58.4608,-409.143 53.1602,-418.317 63.0246,-414.451 58.4608,-409.143"/>
</g>
<!-- Node15 -->
<g id="node16" class="node"><title>Node15</title>
<g id="a_node16"><a xlink:href="class_player_data.html" target="_top" xlink:title="A monobehaviour object to house an instance of DataManager so it can be called by other objects ...">
<polygon fill="none" stroke="black" points="144,-304.5 144,-323.5 209,-323.5 209,-304.5 144,-304.5"/>
<text text-anchor="middle" x="176.5" y="-311.5" font-family="Helvetica,sans-Serif" font-size="10.00">PlayerData</text>
</a>
</g>
</g>
<!-- Node0&#45;&gt;Node15 -->
<g id="edge15" class="edge"><title>Node0&#45;&gt;Node15</title>
<path fill="none" stroke="midnightblue" d="M52.8044,-409.67C65.6759,-388.351 89.6215,-353.473 119,-333 126.387,-327.852 135.278,-324.009 143.799,-321.178"/>
<polygon fill="midnightblue" stroke="midnightblue" points="49.7194,-408.012 47.69,-418.41 55.7612,-411.547 49.7194,-408.012"/>
</g>
<!-- Node16 -->
<g id="node17" class="node"><title>Node16</title>
<g id="a_node17"><a xlink:href="class_player_menu.html" target="_top" xlink:title="Script for controlling the menu which allows users to switch the order of their team members ...">
<polygon fill="none" stroke="black" points="142.5,-266.5 142.5,-285.5 210.5,-285.5 210.5,-266.5 142.5,-266.5"/>
<text text-anchor="middle" x="176.5" y="-273.5" font-family="Helvetica,sans-Serif" font-size="10.00">PlayerMenu</text>
</a>
</g>
</g>
<!-- Node0&#45;&gt;Node16 -->
<g id="edge16" class="edge"><title>Node0&#45;&gt;Node16</title>
<path fill="none" stroke="midnightblue" d="M48.6192,-408.683C58.7139,-379.857 81.5514,-325.695 119,-295 125.723,-289.489 134.117,-285.549 142.362,-282.743"/>
<polygon fill="midnightblue" stroke="midnightblue" points="45.2256,-407.795 45.3703,-418.389 51.8636,-410.017 45.2256,-407.795"/>
</g>
<!-- Node17 -->
<g id="node18" class="node"><title>Node17</title>
<g id="a_node18"><a xlink:href="class_player_movement.html" target="_top" xlink:title="A script to control the movement and animations of the player">
<polygon fill="none" stroke="black" points="132,-228.5 132,-247.5 221,-247.5 221,-228.5 132,-228.5"/>
<text text-anchor="middle" x="176.5" y="-235.5" font-family="Helvetica,sans-Serif" font-size="10.00">PlayerMovement</text>
</a>
</g>
</g>
<!-- Node0&#45;&gt;Node17 -->
<g id="edge17" class="edge"><title>Node0&#45;&gt;Node17</title>
<path fill="none" stroke="midnightblue" d="M45.9655,-408.267C53.1898,-372.922 73.1588,-298.628 119,-257 123.29,-253.104 128.407,-250.003 133.784,-247.536"/>
<polygon fill="midnightblue" stroke="midnightblue" points="42.4907,-407.803 44.0511,-418.283 49.3662,-409.118 42.4907,-407.803"/>
</g>
<!-- Node18 -->
<g id="node19" class="node"><title>Node18</title>
<g id="a_node19"><a xlink:href="class_portal.html" target="_top" xlink:title="A component to add to an object, such as when the player touches it they are teleported to a new scen...">
<polygon fill="none" stroke="black" points="155.5,-190.5 155.5,-209.5 197.5,-209.5 197.5,-190.5 155.5,-190.5"/>
<text text-anchor="middle" x="176.5" y="-197.5" font-family="Helvetica,sans-Serif" font-size="10.00">Portal</text>
</a>
</g>
</g>
<!-- Node0&#45;&gt;Node18 -->
<g id="edge18" class="edge"><title>Node0&#45;&gt;Node18</title>
<path fill="none" stroke="midnightblue" d="M44.16,-407.977C48.6397,-366.784 64.5999,-271.978 119,-219 128.786,-209.469 143.502,-204.716 155.462,-202.347"/>
<polygon fill="midnightblue" stroke="midnightblue" points="40.6605,-407.803 43.1785,-418.095 47.6278,-408.479 40.6605,-407.803"/>
</g>
<!-- Node19 -->
<g id="node20" class="node"><title>Node19</title>
<g id="a_node20"><a xlink:href="class_scene_changer.html" target="_top" xlink:title="A set of functions to be called to change scenes smoothly whilst handling the player&#39;s location and a...">
<polygon fill="none" stroke="black" points="136.5,-152.5 136.5,-171.5 216.5,-171.5 216.5,-152.5 136.5,-152.5"/>
<text text-anchor="middle" x="176.5" y="-159.5" font-family="Helvetica,sans-Serif" font-size="10.00">SceneChanger</text>
</a>
</g>
</g>
<!-- Node0&#45;&gt;Node19 -->
<g id="edge19" class="edge"><title>Node0&#45;&gt;Node19</title>
<path fill="none" stroke="midnightblue" d="M42.8229,-408.252C44.6578,-362.036 55.689,-245.853 119,-181 123.771,-176.113 129.838,-172.482 136.214,-169.786"/>
<polygon fill="midnightblue" stroke="midnightblue" points="39.3195,-408.324 42.5284,-418.421 46.3165,-408.527 39.3195,-408.324"/>
</g>
<!-- Node20 -->
<g id="node21" class="node"><title>Node20</title>
<g id="a_node21"><a xlink:href="class_sound_manager.html" target="_top" xlink:title="A script to manage all background music and sound effects in the game ">
<polygon fill="none" stroke="black" points="135.5,-114.5 135.5,-133.5 217.5,-133.5 217.5,-114.5 135.5,-114.5"/>
<text text-anchor="middle" x="176.5" y="-121.5" font-family="Helvetica,sans-Serif" font-size="10.00">SoundManager</text>
</a>
</g>
</g>
<!-- Node0&#45;&gt;Node20 -->
<g id="edge20" class="edge"><title>Node0&#45;&gt;Node20</title>
<path fill="none" stroke="midnightblue" d="M41.8398,-408.056C41.2618,-356.909 46.9083,-219.718 119,-143 123.536,-138.173 129.335,-134.573 135.482,-131.886"/>
<polygon fill="midnightblue" stroke="midnightblue" points="38.3473,-408.449 42.0597,-418.372 45.3457,-408.3 38.3473,-408.449"/>
</g>
<!-- Node21 -->
<g id="node22" class="node"><title>Node21</title>
<g id="a_node22"><a xlink:href="class_stats_script.html" target="_top" xlink:title="A script used to manage and update all of the stat displays in the battle scene ">
<polygon fill="none" stroke="black" points="144,-76.5 144,-95.5 209,-95.5 209,-76.5 144,-76.5"/>
<text text-anchor="middle" x="176.5" y="-83.5" font-family="Helvetica,sans-Serif" font-size="10.00">StatsScript</text>
</a>
</g>
</g>
<!-- Node0&#45;&gt;Node21 -->
<g id="edge21" class="edge"><title>Node0&#45;&gt;Node21</title>
<path fill="none" stroke="midnightblue" d="M44.677,-408.184C51.9794,-345.11 77.5046,-150.493 119,-105 125.486,-97.8893 134.716,-93.4375 143.84,-90.6511"/>
<polygon fill="midnightblue" stroke="midnightblue" points="41.1716,-408.035 43.5258,-418.365 48.1273,-408.821 41.1716,-408.035"/>
</g>
<!-- Node22 -->
<g id="node23" class="node"><title>Node22</title>
<g id="a_node23"><a xlink:href="class_switch_players_script.html" target="_top" xlink:title="Script to handle the menu allowing users to switch players in and out of battle ">
<polygon fill="none" stroke="black" points="124.5,-38.5 124.5,-57.5 228.5,-57.5 228.5,-38.5 124.5,-38.5"/>
<text text-anchor="middle" x="176.5" y="-45.5" font-family="Helvetica,sans-Serif" font-size="10.00">SwitchPlayersScript</text>
</a>
</g>
</g>
<!-- Node0&#45;&gt;Node22 -->
<g id="edge22" class="edge"><title>Node0&#45;&gt;Node22</title>
<path fill="none" stroke="midnightblue" d="M44.1486,-408.102C50.1572,-340.156 72.9815,-118.67 119,-67 122.441,-63.1359 126.694,-60.0565 131.309,-57.6025"/>
<polygon fill="midnightblue" stroke="midnightblue" points="40.6422,-408.027 43.2734,-418.29 47.6166,-408.626 40.6422,-408.027"/>
</g>
<!-- Node23 -->
<g id="node24" class="node"><title>Node23</title>
<g id="a_node24"><a xlink:href="class_world_map_script.html" target="_top" xlink:title="A controler for the world map, stopping players from entering old or future levels, and colouring the departments approriately">
<polygon fill="none" stroke="black" points="133.5,-0.5 133.5,-19.5 219.5,-19.5 219.5,-0.5 133.5,-0.5"/>
<text text-anchor="middle" x="176.5" y="-7.5" font-family="Helvetica,sans-Serif" font-size="10.00">WorldMapScript</text>
</a>
</g>
</g>
<!-- Node0&#45;&gt;Node23 -->
<g id="edge23" class="edge"><title>Node0&#45;&gt;Node23</title>
<path fill="none" stroke="midnightblue" d="M43.6923,-408.382C48.453,-336.26 68.3527,-86.99 119,-29 122.948,-24.4792 128.008,-21.0316 133.472,-18.4029"/>
<polygon fill="midnightblue" stroke="midnightblue" points="40.1984,-408.177 43.0559,-418.38 47.1842,-408.622 40.1984,-408.177"/>
</g>
</g>
</svg>
