<?xml version="1.0" encoding="UTF-8" standalone="no"?>
<!DOCTYPE svg PUBLIC "-//W3C//DTD SVG 1.1//EN"
 "http://www.w3.org/Graphics/SVG/1.1/DTD/svg11.dtd">
<!-- Generated by graphviz version 2.38.0 (20140413.2041)
 -->
<!-- Title: Graphical Class Hierarchy Pages: 1 -->
<svg width="239pt" height="1006pt"
 viewBox="0.00 0.00 239.00 1006.00" xmlns="http://www.w3.org/2000/svg" xmlns:xlink="http://www.w3.org/1999/xlink">
<g id="graph0" class="graph" transform="scale(1 1) rotate(0) translate(4 1002)">
<title>Graphical Class Hierarchy</title>
<!-- Node32 -->
<g id="node1" class="node"><title>Node32</title>
<g id="a_node1"><a xlink:href="class_i_begin_drag_handler.html" target="_top" xlink:title="IBeginDragHandler">
<polygon fill="none" stroke="black" points="0,-978.5 0,-997.5 97,-997.5 97,-978.5 0,-978.5"/>
<text text-anchor="middle" x="48.5" y="-985.5" font-family="Helvetica,sans-Serif" font-size="10.00">IBeginDragHandler</text>
</a>
</g>
</g>
<!-- Node8 -->
<g id="node2" class="node"><title>Node8</title>
<g id="a_node2"><a xlink:href="class_drag_and_drop_item.html" target="_top" xlink:title="Every &quot;drag and drop&quot; item must contain this script ">
<polygon fill="none" stroke="black" points="135.5,-921.5 135.5,-940.5 228.5,-940.5 228.5,-921.5 135.5,-921.5"/>
<text text-anchor="middle" x="182" y="-928.5" font-family="Helvetica,sans-Serif" font-size="10.00">DragAndDropItem</text>
</a>
</g>
</g>
<!-- Node32&#45;&gt;Node8 -->
<g id="edge1" class="edge"><title>Node32&#45;&gt;Node8</title>
<path fill="none" stroke="midnightblue" d="M83.8139,-974.484C88.2627,-972.671 92.7483,-970.811 97,-969 118.794,-959.717 143.464,-948.467 160.4,-940.626"/>
<polygon fill="midnightblue" stroke="midnightblue" points="82.2044,-971.36 74.2387,-978.345 84.822,-977.852 82.2044,-971.36"/>
</g>
<!-- Node31 -->
<g id="node3" class="node"><title>Node31</title>
<g id="a_node3"><a xlink:href="class_i_drag_handler.html" target="_top" xlink:title="IDragHandler">
<polygon fill="none" stroke="black" points="12.5,-940.5 12.5,-959.5 84.5,-959.5 84.5,-940.5 12.5,-940.5"/>
<text text-anchor="middle" x="48.5" y="-947.5" font-family="Helvetica,sans-Serif" font-size="10.00">IDragHandler</text>
</a>
</g>
</g>
<!-- Node31&#45;&gt;Node8 -->
<g id="edge2" class="edge"><title>Node31&#45;&gt;Node8</title>
<path fill="none" stroke="midnightblue" d="M94.9048,-943.44C107.953,-941.554 122.187,-939.498 135.256,-937.609"/>
<polygon fill="midnightblue" stroke="midnightblue" points="94.1363,-940.014 84.7396,-944.908 95.1373,-946.942 94.1363,-940.014"/>
</g>
<!-- Node30 -->
<g id="node4" class="node"><title>Node30</title>
<g id="a_node4"><a xlink:href="class_i_drop_handler.html" target="_top" xlink:title="IDropHandler">
<polygon fill="none" stroke="black" points="12.5,-864.5 12.5,-883.5 84.5,-883.5 84.5,-864.5 12.5,-864.5"/>
<text text-anchor="middle" x="48.5" y="-871.5" font-family="Helvetica,sans-Serif" font-size="10.00">IDropHandler</text>
</a>
</g>
</g>
<!-- Node7 -->
<g id="node5" class="node"><title>Node7</title>
<g id="a_node5"><a xlink:href="class_drag_and_drop_cell.html" target="_top" xlink:title="Every item&#39;s cell must contain this script ">
<polygon fill="none" stroke="black" points="136.5,-874.5 136.5,-893.5 227.5,-893.5 227.5,-874.5 136.5,-874.5"/>
<text text-anchor="middle" x="182" y="-881.5" font-family="Helvetica,sans-Serif" font-size="10.00">DragAndDropCell</text>
</a>
</g>
</g>
<!-- Node30&#45;&gt;Node7 -->
<g id="edge3" class="edge"><title>Node30&#45;&gt;Node7</title>
<path fill="none" stroke="midnightblue" d="M94.7149,-877.438C108.139,-878.459 122.832,-879.577 136.228,-880.595"/>
<polygon fill="midnightblue" stroke="midnightblue" points="94.9762,-873.948 84.7396,-876.68 94.4454,-880.928 94.9762,-873.948"/>
</g>
<!-- Node29 -->
<g id="node6" class="node"><title>Node29</title>
<g id="a_node6"><a xlink:href="class_i_end_drag_handler.html" target="_top" xlink:title="IEndDragHandler">
<polygon fill="none" stroke="black" points="4,-902.5 4,-921.5 93,-921.5 93,-902.5 4,-902.5"/>
<text text-anchor="middle" x="48.5" y="-909.5" font-family="Helvetica,sans-Serif" font-size="10.00">IEndDragHandler</text>
</a>
</g>
</g>
<!-- Node29&#45;&gt;Node8 -->
<g id="edge4" class="edge"><title>Node29&#45;&gt;Node8</title>
<path fill="none" stroke="midnightblue" d="M103.265,-919.768C113.848,-921.297 124.859,-922.888 135.152,-924.376"/>
<polygon fill="midnightblue" stroke="midnightblue" points="103.685,-916.293 93.2876,-918.327 102.684,-923.221 103.685,-916.293"/>
</g>
<!-- Node0 -->
<g id="node7" class="node"><title>Node0</title>
<g id="a_node7"><a xlink:href="class_mono_behaviour.html" target="_top" xlink:title="MonoBehaviour">
<polygon fill="none" stroke="black" points="7,-456.5 7,-475.5 90,-475.5 90,-456.5 7,-456.5"/>
<text text-anchor="middle" x="48.5" y="-463.5" font-family="Helvetica,sans-Serif" font-size="10.00">MonoBehaviour</text>
</a>
</g>
</g>
<!-- Node0&#45;&gt;Node8 -->
<g id="edge12" class="edge"><title>Node0&#45;&gt;Node8</title>
<path fill="none" stroke="midnightblue" d="M51.1026,-485.668C57.5982,-561.45 83.9884,-833.728 133,-903 138.628,-910.954 147.287,-916.991 155.708,-921.384"/>
<polygon fill="midnightblue" stroke="midnightblue" points="54.5823,-485.278 50.2592,-475.605 47.6067,-485.862 54.5823,-485.278"/>
</g>
<!-- Node0&#45;&gt;Node7 -->
<g id="edge11" class="edge"><title>Node0&#45;&gt;Node7</title>
<path fill="none" stroke="midnightblue" d="M51.1594,-485.547C57.6191,-557.418 83.2261,-805.917 133,-865 136.234,-868.838 140.349,-871.907 144.807,-874.358"/>
<polygon fill="midnightblue" stroke="midnightblue" points="54.6461,-485.241 50.2863,-475.585 47.6728,-485.852 54.6461,-485.241"/>
</g>
<!-- Node1 -->
<g id="node8" class="node"><title>Node1</title>
<g id="a_node8"><a xlink:href="class_attack_button.html" target="_top" xlink:title="AttackButton">
<polygon fill="none" stroke="black" points="145,-608.5 145,-627.5 219,-627.5 219,-608.5 145,-608.5"/>
<text text-anchor="middle" x="182" y="-615.5" font-family="Helvetica,sans-Serif" font-size="10.00">AttackButton</text>
</a>
</g>
</g>
<!-- Node0&#45;&gt;Node1 -->
<g id="edge5" class="edge"><title>Node0&#45;&gt;Node1</title>
<path fill="none" stroke="midnightblue" d="M56.894,-485.11C68.8265,-513.624 94.9084,-567.334 133,-599 137.549,-602.781 142.942,-605.876 148.443,-608.386"/>
<polygon fill="midnightblue" stroke="midnightblue" points="60.1359,-483.791 53.142,-475.832 53.6465,-486.415 60.1359,-483.791"/>
</g>
<!-- Node2 -->
<g id="node9" class="node"><title>Node2</title>
<g id="a_node9"><a xlink:href="class_button_manager.html" target="_top" xlink:title="ButtonManager">
<polygon fill="none" stroke="black" points="140.5,-570.5 140.5,-589.5 223.5,-589.5 223.5,-570.5 140.5,-570.5"/>
<text text-anchor="middle" x="182" y="-577.5" font-family="Helvetica,sans-Serif" font-size="10.00">ButtonManager</text>
</a>
</g>
</g>
<!-- Node0&#45;&gt;Node2 -->
<g id="edge6" class="edge"><title>Node0&#45;&gt;Node2</title>
<path fill="none" stroke="midnightblue" d="M61.3642,-484.06C75.9868,-505.084 102.655,-539.641 133,-561 138.277,-564.714 144.382,-567.842 150.433,-570.42"/>
<polygon fill="midnightblue" stroke="midnightblue" points="64.2033,-482.011 55.691,-475.703 58.4116,-485.943 64.2033,-482.011"/>
</g>
<!-- Node3 -->
<g id="node10" class="node"><title>Node3</title>
<g id="a_node10"><a xlink:href="class_camera_controller.html" target="_top" xlink:title="Script to move the camera around so that it follows the player">
<polygon fill="none" stroke="black" points="136,-532.5 136,-551.5 228,-551.5 228,-532.5 136,-532.5"/>
<text text-anchor="middle" x="182" y="-539.5" font-family="Helvetica,sans-Serif" font-size="10.00">CameraController</text>
</a>
</g>
</g>
<!-- Node0&#45;&gt;Node3 -->
<g id="edge7" class="edge"><title>Node0&#45;&gt;Node3</title>
<path fill="none" stroke="midnightblue" d="M69.9743,-481.881C86.399,-494.143 110.369,-510.989 133,-523 139.571,-526.487 146.926,-529.711 153.867,-532.474"/>
<polygon fill="midnightblue" stroke="midnightblue" points="71.7669,-478.849 61.6822,-475.601 67.5404,-484.429 71.7669,-478.849"/>
</g>
<!-- Node4 -->
<g id="node11" class="node"><title>Node4</title>
<g id="a_node11"><a xlink:href="class_canvas_script.html" target="_top" xlink:title="CanvasScript">
<polygon fill="none" stroke="black" points="145,-494.5 145,-513.5 219,-513.5 219,-494.5 145,-494.5"/>
<text text-anchor="middle" x="182" y="-501.5" font-family="Helvetica,sans-Serif" font-size="10.00">CanvasScript</text>
</a>
</g>
</g>
<!-- Node0&#45;&gt;Node4 -->
<g id="edge8" class="edge"><title>Node0&#45;&gt;Node4</title>
<path fill="none" stroke="midnightblue" d="M92.3778,-478.391C110.386,-483.594 131.01,-489.554 147.828,-494.414"/>
<polygon fill="midnightblue" stroke="midnightblue" points="93.2616,-475.003 82.683,-475.589 91.3183,-481.728 93.2616,-475.003"/>
</g>
<!-- Node5 -->
<g id="node12" class="node"><title>Node5</title>
<g id="a_node12"><a xlink:href="class_container_data.html" target="_top" xlink:title="ContainerData">
<polygon fill="none" stroke="black" points="143,-456.5 143,-475.5 221,-475.5 221,-456.5 143,-456.5"/>
<text text-anchor="middle" x="182" y="-463.5" font-family="Helvetica,sans-Serif" font-size="10.00">ContainerData</text>
</a>
</g>
</g>
<!-- Node0&#45;&gt;Node5 -->
<g id="edge9" class="edge"><title>Node0&#45;&gt;Node5</title>
<path fill="none" stroke="midnightblue" d="M100.098,-466C114.223,-466 129.335,-466 142.629,-466"/>
<polygon fill="midnightblue" stroke="midnightblue" points="100.027,-462.5 90.0273,-466 100.027,-469.5 100.027,-462.5"/>
</g>
<!-- Node6 -->
<g id="node13" class="node"><title>Node6</title>
<g id="a_node13"><a xlink:href="class_dialogue_script.html" target="_top" xlink:title="Script to show dialogue, as well as step through multiple lines and close afterwards ...">
<polygon fill="none" stroke="black" points="142,-418.5 142,-437.5 222,-437.5 222,-418.5 142,-418.5"/>
<text text-anchor="middle" x="182" y="-425.5" font-family="Helvetica,sans-Serif" font-size="10.00">DialogueScript</text>
</a>
</g>
</g>
<!-- Node0&#45;&gt;Node6 -->
<g id="edge10" class="edge"><title>Node0&#45;&gt;Node6</title>
<path fill="none" stroke="midnightblue" d="M92.3778,-453.609C110.386,-448.406 131.01,-442.446 147.828,-437.586"/>
<polygon fill="midnightblue" stroke="midnightblue" points="91.3183,-450.272 82.683,-456.411 93.2616,-456.997 91.3183,-450.272"/>
</g>
<!-- Node9 -->
<g id="node14" class="node"><title>Node9</title>
<g id="a_node14"><a xlink:href="class_dummy_control_unit.html" target="_top" xlink:title="Example of control unit for drag and drop events handle ">
<polygon fill="none" stroke="black" points="133,-380.5 133,-399.5 231,-399.5 231,-380.5 133,-380.5"/>
<text text-anchor="middle" x="182" y="-387.5" font-family="Helvetica,sans-Serif" font-size="10.00">DummyControlUnit</text>
</a>
</g>
</g>
<!-- Node0&#45;&gt;Node9 -->
<g id="edge13" class="edge"><title>Node0&#45;&gt;Node9</title>
<path fill="none" stroke="midnightblue" d="M69.9743,-450.119C86.399,-437.857 110.369,-421.011 133,-409 139.571,-405.513 146.926,-402.289 153.867,-399.526"/>
<polygon fill="midnightblue" stroke="midnightblue" points="67.5404,-447.571 61.6822,-456.399 71.7669,-453.151 67.5404,-447.571"/>
</g>
<!-- Node10 -->
<g id="node15" class="node"><title>Node10</title>
<g id="a_node15"><a xlink:href="class_fader.html" target="_top" xlink:title="Fader">
<polygon fill="none" stroke="black" points="161.5,-342.5 161.5,-361.5 202.5,-361.5 202.5,-342.5 161.5,-342.5"/>
<text text-anchor="middle" x="182" y="-349.5" font-family="Helvetica,sans-Serif" font-size="10.00">Fader</text>
</a>
</g>
</g>
<!-- Node0&#45;&gt;Node10 -->
<g id="edge14" class="edge"><title>Node0&#45;&gt;Node10</title>
<path fill="none" stroke="midnightblue" d="M61.3642,-447.94C75.9868,-426.916 102.655,-392.359 133,-371 141.502,-365.016 152.154,-360.554 161.263,-357.463"/>
<polygon fill="midnightblue" stroke="midnightblue" points="58.4116,-446.057 55.691,-456.297 64.2033,-449.989 58.4116,-446.057"/>
</g>
<!-- Node11 -->
<g id="node16" class="node"><title>Node11</title>
<g id="a_node16"><a xlink:href="class_global_functions.html" target="_top" xlink:title="Provides functions and variables to be accessed by any game object to allow data to be passed between...">
<polygon fill="none" stroke="black" points="138.5,-304.5 138.5,-323.5 225.5,-323.5 225.5,-304.5 138.5,-304.5"/>
<text text-anchor="middle" x="182" y="-311.5" font-family="Helvetica,sans-Serif" font-size="10.00">GlobalFunctions</text>
</a>
</g>
</g>
<!-- Node0&#45;&gt;Node11 -->
<g id="edge15" class="edge"><title>Node0&#45;&gt;Node11</title>
<path fill="none" stroke="midnightblue" d="M56.894,-446.89C68.8265,-418.376 94.9084,-364.666 133,-333 137.549,-329.219 142.942,-326.124 148.443,-323.614"/>
<polygon fill="midnightblue" stroke="midnightblue" points="53.6465,-445.585 53.142,-456.168 60.1359,-448.209 53.6465,-445.585"/>
</g>
<!-- Node12 -->
<g id="node17" class="node"><title>Node12</title>
<g id="a_node17"><a xlink:href="class_item_button.html" target="_top" xlink:title="ItemButton">
<polygon fill="none" stroke="black" points="150,-266.5 150,-285.5 214,-285.5 214,-266.5 150,-266.5"/>
<text text-anchor="middle" x="182" y="-273.5" font-family="Helvetica,sans-Serif" font-size="10.00">ItemButton</text>
</a>
</g>
</g>
<!-- Node0&#45;&gt;Node12 -->
<g id="edge16" class="edge"><title>Node0&#45;&gt;Node12</title>
<path fill="none" stroke="midnightblue" d="M54.0453,-446.483C63.152,-411.484 86.8352,-337.726 133,-295 137.736,-290.617 143.605,-287.196 149.595,-284.544"/>
<polygon fill="midnightblue" stroke="midnightblue" points="50.597,-445.847 51.5907,-456.396 57.3917,-447.53 50.597,-445.847"/>
</g>
<!-- Node13 -->
<g id="node18" class="node"><title>Node13</title>
<g id="a_node18"><a xlink:href="class_item_data.html" target="_top" xlink:title="ItemData">
<polygon fill="none" stroke="black" points="154,-228.5 154,-247.5 210,-247.5 210,-228.5 154,-228.5"/>
<text text-anchor="middle" x="182" y="-235.5" font-family="Helvetica,sans-Serif" font-size="10.00">ItemData</text>
</a>
</g>
</g>
<!-- Node0&#45;&gt;Node13 -->
<g id="edge17" class="edge"><title>Node0&#45;&gt;Node13</title>
<path fill="none" stroke="midnightblue" d="M52.1205,-446.177C58.522,-405.357 78.616,-311.211 133,-257 138.713,-251.305 146.341,-247.267 153.833,-244.423"/>
<polygon fill="midnightblue" stroke="midnightblue" points="48.6388,-445.798 50.661,-456.198 55.5657,-446.807 48.6388,-445.798"/>
</g>
<!-- Node14 -->
<g id="node19" class="node"><title>Node14</title>
<g id="a_node19"><a xlink:href="class_item_objects.html" target="_top" xlink:title="ItemObjects">
<polygon fill="none" stroke="black" points="147.5,-190.5 147.5,-209.5 216.5,-209.5 216.5,-190.5 147.5,-190.5"/>
<text text-anchor="middle" x="182" y="-197.5" font-family="Helvetica,sans-Serif" font-size="10.00">ItemObjects</text>
</a>
</g>
</g>
<!-- Node0&#45;&gt;Node14 -->
<g id="edge18" class="edge"><title>Node0&#45;&gt;Node14</title>
<path fill="none" stroke="midnightblue" d="M50.7291,-445.807C54.5979,-399.572 70.3323,-284.942 133,-219 136.951,-214.842 141.927,-211.576 147.168,-209.015"/>
<polygon fill="midnightblue" stroke="midnightblue" points="47.2212,-445.788 49.9798,-456.017 54.2024,-446.3 47.2212,-445.788"/>
</g>
<!-- Node15 -->
<g id="node20" class="node"><title>Node15</title>
<g id="a_node20"><a xlink:href="class_items_menu_script.html" target="_top" xlink:title="ItemsMenuScript">
<polygon fill="none" stroke="black" points="137,-152.5 137,-171.5 227,-171.5 227,-152.5 137,-152.5"/>
<text text-anchor="middle" x="182" y="-159.5" font-family="Helvetica,sans-Serif" font-size="10.00">ItemsMenuScript</text>
</a>
</g>
</g>
<!-- Node0&#45;&gt;Node15 -->
<g id="edge19" class="edge"><title>Node0&#45;&gt;Node15</title>
<path fill="none" stroke="midnightblue" d="M49.6307,-446.238C51.0252,-395.525 61.6023,-259.281 133,-181 136.503,-177.159 140.883,-174.084 145.562,-171.624"/>
<polygon fill="midnightblue" stroke="midnightblue" points="46.1273,-446.403 49.4476,-456.464 53.1262,-446.528 46.1273,-446.403"/>
</g>
<!-- Node16 -->
<g id="node21" class="node"><title>Node16</title>
<g id="a_node21"><a xlink:href="class_main_battle.html" target="_top" xlink:title="Script for handing a battle scene. Uses BattleManager, but handles turn order and execution as well a...">
<polygon fill="none" stroke="black" points="150.5,-114.5 150.5,-133.5 213.5,-133.5 213.5,-114.5 150.5,-114.5"/>
<text text-anchor="middle" x="182" y="-121.5" font-family="Helvetica,sans-Serif" font-size="10.00">MainBattle</text>
</a>
</g>
</g>
<!-- Node0&#45;&gt;Node16 -->
<g id="edge20" class="edge"><title>Node0&#45;&gt;Node16</title>
<path fill="none" stroke="midnightblue" d="M48.8028,-446.241C47.9386,-391.086 52.9991,-233.585 133,-143 137.628,-137.76 143.891,-133.95 150.364,-131.184"/>
<polygon fill="midnightblue" stroke="midnightblue" points="45.3077,-446.485 49.0523,-456.396 52.3056,-446.313 45.3077,-446.485"/>
</g>
<!-- Node17 -->
<g id="node22" class="node"><title>Node17</title>
<g id="a_node22"><a xlink:href="class_menu_script.html" target="_top" xlink:title="MenuScript">
<polygon fill="none" stroke="black" points="149,-76.5 149,-95.5 215,-95.5 215,-76.5 149,-76.5"/>
<text text-anchor="middle" x="182" y="-83.5" font-family="Helvetica,sans-Serif" font-size="10.00">MenuScript</text>
</a>
</g>
</g>
<!-- Node0&#45;&gt;Node17 -->
<g id="edge21" class="edge"><title>Node0&#45;&gt;Node17</title>
<path fill="none" stroke="midnightblue" d="M51.6591,-446.174C59.3925,-378.465 87.6819,-157.661 133,-105 137.209,-100.109 142.848,-96.466 148.778,-93.7563"/>
<polygon fill="midnightblue" stroke="midnightblue" points="48.157,-445.999 50.524,-456.326 55.1136,-446.777 48.157,-445.999"/>
</g>
<!-- Node18 -->
<g id="node23" class="node"><title>Node18</title>
<g id="a_node23"><a xlink:href="class_object_dialogue.html" target="_top" xlink:title="ObjectDialogue">
<polygon fill="none" stroke="black" points="140.5,-38.5 140.5,-57.5 223.5,-57.5 223.5,-38.5 140.5,-38.5"/>
<text text-anchor="middle" x="182" y="-45.5" font-family="Helvetica,sans-Serif" font-size="10.00">ObjectDialogue</text>
</a>
</g>
</g>
<!-- Node0&#45;&gt;Node18 -->
<g id="edge22" class="edge"><title>Node0&#45;&gt;Node18</title>
<path fill="none" stroke="midnightblue" d="M51.1594,-446.453C57.6191,-374.582 83.2261,-126.083 133,-67 136.234,-63.1616 140.349,-60.0933 144.807,-57.6419"/>
<polygon fill="midnightblue" stroke="midnightblue" points="47.6728,-446.148 50.2863,-456.415 54.6461,-446.759 47.6728,-446.148"/>
</g>
<!-- Node19 -->
<g id="node24" class="node"><title>Node19</title>
<g id="a_node24"><a xlink:href="class_player_data.html" target="_top" xlink:title="A monobehaviour object to house an instance of DataManager so it can be called by other objects ...">
<polygon fill="none" stroke="black" points="149.5,-0.5 149.5,-19.5 214.5,-19.5 214.5,-0.5 149.5,-0.5"/>
<text text-anchor="middle" x="182" y="-7.5" font-family="Helvetica,sans-Serif" font-size="10.00">PlayerData</text>
</a>
</g>
</g>
<!-- Node0&#45;&gt;Node19 -->
<g id="edge23" class="edge"><title>Node0&#45;&gt;Node19</title>
<path fill="none" stroke="midnightblue" d="M50.7959,-446.097C56.1553,-369.445 78.8976,-94.3728 133,-29 137.229,-23.8906 143.023,-20.1475 149.125,-17.4077"/>
<polygon fill="midnightblue" stroke="midnightblue" points="47.2902,-446.064 50.1061,-456.278 54.2742,-446.537 47.2902,-446.064"/>
</g>
<!-- Node20 -->
<g id="node25" class="node"><title>Node20</title>
<g id="a_node25"><a xlink:href="class_player_movement.html" target="_top" xlink:title="PlayerMovement">
<polygon fill="none" stroke="black" points="137.5,-836.5 137.5,-855.5 226.5,-855.5 226.5,-836.5 137.5,-836.5"/>
<text text-anchor="middle" x="182" y="-843.5" font-family="Helvetica,sans-Serif" font-size="10.00">PlayerMovement</text>
</a>
</g>
</g>
<!-- Node0&#45;&gt;Node20 -->
<g id="edge24" class="edge"><title>Node0&#45;&gt;Node20</title>
<path fill="none" stroke="midnightblue" d="M51.6591,-485.826C59.3925,-553.535 87.6819,-774.339 133,-827 136.274,-830.804 140.412,-833.853 144.88,-836.296"/>
<polygon fill="midnightblue" stroke="midnightblue" points="55.1136,-485.223 50.524,-475.674 48.157,-486.001 55.1136,-485.223"/>
</g>
<!-- Node21 -->
<g id="node26" class="node"><title>Node21</title>
<g id="a_node26"><a xlink:href="class_portal.html" target="_top" xlink:title="Portal">
<polygon fill="none" stroke="black" points="161,-798.5 161,-817.5 203,-817.5 203,-798.5 161,-798.5"/>
<text text-anchor="middle" x="182" y="-805.5" font-family="Helvetica,sans-Serif" font-size="10.00">Portal</text>
</a>
</g>
</g>
<!-- Node0&#45;&gt;Node21 -->
<g id="edge25" class="edge"><title>Node0&#45;&gt;Node21</title>
<path fill="none" stroke="midnightblue" d="M48.8028,-485.759C47.9386,-540.914 52.9991,-698.415 133,-789 140.119,-797.061 151.111,-801.74 160.781,-804.436"/>
<polygon fill="midnightblue" stroke="midnightblue" points="52.3056,-485.687 49.0523,-475.604 45.3077,-485.515 52.3056,-485.687"/>
</g>
<!-- Node22 -->
<g id="node27" class="node"><title>Node22</title>
<g id="a_node27"><a xlink:href="class_quit.html" target="_top" xlink:title="Quit">
<polygon fill="none" stroke="black" points="164.5,-760.5 164.5,-779.5 199.5,-779.5 199.5,-760.5 164.5,-760.5"/>
<text text-anchor="middle" x="182" y="-767.5" font-family="Helvetica,sans-Serif" font-size="10.00">Quit</text>
</a>
</g>
</g>
<!-- Node0&#45;&gt;Node22 -->
<g id="edge26" class="edge"><title>Node0&#45;&gt;Node22</title>
<path fill="none" stroke="midnightblue" d="M49.6307,-485.762C51.0252,-536.475 61.6023,-672.719 133,-751 141.093,-759.873 153.865,-764.663 164.2,-767.213"/>
<polygon fill="midnightblue" stroke="midnightblue" points="53.1262,-485.472 49.4476,-475.536 46.1273,-485.597 53.1262,-485.472"/>
</g>
<!-- Node23 -->
<g id="node28" class="node"><title>Node23</title>
<g id="a_node28"><a xlink:href="class_scene_changer.html" target="_top" xlink:title="A set of functions to be called to change scenes smoothly whilst handling the player&#39;s location and a...">
<polygon fill="none" stroke="black" points="142,-722.5 142,-741.5 222,-741.5 222,-722.5 142,-722.5"/>
<text text-anchor="middle" x="182" y="-729.5" font-family="Helvetica,sans-Serif" font-size="10.00">SceneChanger</text>
</a>
</g>
</g>
<!-- Node0&#45;&gt;Node23 -->
<g id="edge27" class="edge"><title>Node0&#45;&gt;Node23</title>
<path fill="none" stroke="midnightblue" d="M50.7291,-486.193C54.5979,-532.428 70.3323,-647.058 133,-713 136.704,-716.898 141.309,-720.013 146.189,-722.497"/>
<polygon fill="midnightblue" stroke="midnightblue" points="54.2024,-485.7 49.9798,-475.983 47.2212,-486.212 54.2024,-485.7"/>
</g>
<!-- Node24 -->
<g id="node29" class="node"><title>Node24</title>
<g id="a_node29"><a xlink:href="class_sound_manager.html" target="_top" xlink:title="SoundManager">
<polygon fill="none" stroke="black" points="141,-684.5 141,-703.5 223,-703.5 223,-684.5 141,-684.5"/>
<text text-anchor="middle" x="182" y="-691.5" font-family="Helvetica,sans-Serif" font-size="10.00">SoundManager</text>
</a>
</g>
</g>
<!-- Node0&#45;&gt;Node24 -->
<g id="edge28" class="edge"><title>Node0&#45;&gt;Node24</title>
<path fill="none" stroke="midnightblue" d="M52.1205,-485.823C58.522,-526.643 78.616,-620.789 133,-675 136.808,-678.796 141.468,-681.857 146.372,-684.318"/>
<polygon fill="midnightblue" stroke="midnightblue" points="55.5657,-485.193 50.661,-475.802 48.6388,-486.202 55.5657,-485.193"/>
</g>
<!-- Node25 -->
<g id="node30" class="node"><title>Node25</title>
<g id="a_node30"><a xlink:href="class_stats_script.html" target="_top" xlink:title="StatsScript">
<polygon fill="none" stroke="black" points="149.5,-646.5 149.5,-665.5 214.5,-665.5 214.5,-646.5 149.5,-646.5"/>
<text text-anchor="middle" x="182" y="-653.5" font-family="Helvetica,sans-Serif" font-size="10.00">StatsScript</text>
</a>
</g>
</g>
<!-- Node0&#45;&gt;Node25 -->
<g id="edge29" class="edge"><title>Node0&#45;&gt;Node25</title>
<path fill="none" stroke="midnightblue" d="M54.0453,-485.517C63.152,-520.516 86.8352,-594.274 133,-637 137.604,-641.261 143.28,-644.613 149.096,-647.234"/>
<polygon fill="midnightblue" stroke="midnightblue" points="57.3917,-484.47 51.5907,-475.604 50.597,-486.153 57.3917,-484.47"/>
</g>
</g>
</svg>
