<?xml version="1.0" encoding="UTF-8" standalone="no"?>
<!DOCTYPE svg PUBLIC "-//W3C//DTD SVG 1.1//EN"
 "http://www.w3.org/Graphics/SVG/1.1/DTD/svg11.dtd">
<!-- Generated by graphviz version 2.38.0 (20140413.2041)
 -->
<!-- Title: Graphical Class Hierarchy Pages: 1 -->
<svg width="242pt" height="902pt"
 viewBox="0.00 0.00 242.00 902.00" xmlns="http://www.w3.org/2000/svg" xmlns:xlink="http://www.w3.org/1999/xlink">
<g id="graph0" class="graph" transform="scale(1 1) rotate(0) translate(4 898)">
<title>Graphical Class Hierarchy</title>
<!-- Node0 -->
<g id="node1" class="node"><title>Node0</title>
<g id="a_node1"><a xlink:href="class_mono_behaviour.html" target="_top" xlink:title="MonoBehaviour">
<polygon fill="none" stroke="black" points="0,-437.5 0,-456.5 83,-456.5 83,-437.5 0,-437.5"/>
<text text-anchor="middle" x="41.5" y="-444.5" font-family="Helvetica,sans-Serif" font-size="10.00">MonoBehaviour</text>
</a>
</g>
</g>
<!-- Node1 -->
<g id="node2" class="node"><title>Node1</title>
<g id="a_node2"><a xlink:href="class_battle_buttons.html" target="_top" xlink:title="Script to handle the function of the Attack Button in the Battle Scene">
<polygon fill="none" stroke="black" points="138.5,-874.5 138.5,-893.5 214.5,-893.5 214.5,-874.5 138.5,-874.5"/>
<text text-anchor="middle" x="176.5" y="-881.5" font-family="Helvetica,sans-Serif" font-size="10.00">BattleButtons</text>
</a>
</g>
</g>
<!-- Node0&#45;&gt;Node1 -->
<g id="edge1" class="edge"><title>Node0&#45;&gt;Node1</title>
<path fill="none" stroke="midnightblue" d="M43.5299,-467.054C47.763,-541.935 66.1657,-803.99 119,-865 124.081,-870.867 131.034,-874.928 138.327,-877.736"/>
<polygon fill="midnightblue" stroke="midnightblue" points="47.005,-466.499 42.9691,-456.703 40.0153,-466.878 47.005,-466.499"/>
</g>
<!-- Node2 -->
<g id="node3" class="node"><title>Node2</title>
<g id="a_node3"><a xlink:href="class_battle_descriptor.html" target="_top" xlink:title="A component that be added to an object to describe the parameters of a battle from within the Unity E...">
<polygon fill="none" stroke="black" points="133.5,-836.5 133.5,-855.5 219.5,-855.5 219.5,-836.5 133.5,-836.5"/>
<text text-anchor="middle" x="176.5" y="-843.5" font-family="Helvetica,sans-Serif" font-size="10.00">BattleDescriptor</text>
</a>
</g>
</g>
<!-- Node0&#45;&gt;Node2 -->
<g id="edge2" class="edge"><title>Node0&#45;&gt;Node2</title>
<path fill="none" stroke="midnightblue" d="M43.8941,-466.572C49.2433,-536.412 70.6274,-772.128 119,-827 122.901,-831.425 127.866,-834.821 133.227,-837.428"/>
<polygon fill="midnightblue" stroke="midnightblue" points="47.378,-466.224 43.1479,-456.51 40.3971,-466.742 47.378,-466.224"/>
</g>
<!-- Node3 -->
<g id="node4" class="node"><title>Node3</title>
<g id="a_node4"><a xlink:href="class_button_manager.html" target="_top" xlink:title="ButtonManager">
<polygon fill="none" stroke="black" points="135,-798.5 135,-817.5 218,-817.5 218,-798.5 135,-798.5"/>
<text text-anchor="middle" x="176.5" y="-805.5" font-family="Helvetica,sans-Serif" font-size="10.00">ButtonManager</text>
</a>
</g>
</g>
<!-- Node0&#45;&gt;Node3 -->
<g id="edge3" class="edge"><title>Node0&#45;&gt;Node3</title>
<path fill="none" stroke="midnightblue" d="M44.3818,-466.689C51.001,-532.042 75.2085,-740.383 119,-789 123.294,-793.767 128.822,-797.34 134.735,-800.017"/>
<polygon fill="midnightblue" stroke="midnightblue" points="47.8445,-466.137 43.3793,-456.529 40.8783,-466.825 47.8445,-466.137"/>
</g>
<!-- Node4 -->
<g id="node5" class="node"><title>Node4</title>
<g id="a_node5"><a xlink:href="class_camera_controller.html" target="_top" xlink:title="Script to move the camera around so that it follows the player">
<polygon fill="none" stroke="black" points="130.5,-760.5 130.5,-779.5 222.5,-779.5 222.5,-760.5 130.5,-760.5"/>
<text text-anchor="middle" x="176.5" y="-767.5" font-family="Helvetica,sans-Serif" font-size="10.00">CameraController</text>
</a>
</g>
</g>
<!-- Node0&#45;&gt;Node4 -->
<g id="edge4" class="edge"><title>Node0&#45;&gt;Node4</title>
<path fill="none" stroke="midnightblue" d="M44.9953,-466.83C52.9914,-527.422 79.7684,-708.588 119,-751 122.584,-754.874 126.982,-757.959 131.728,-760.415"/>
<polygon fill="midnightblue" stroke="midnightblue" points="48.4374,-466.155 43.685,-456.686 41.495,-467.052 48.4374,-466.155"/>
</g>
<!-- Node5 -->
<g id="node6" class="node"><title>Node5</title>
<g id="a_node6"><a xlink:href="class_canvas_script.html" target="_top" xlink:title="Added to a canvas holding the dialogue elements to ensure it&#39;s not destroyed when a new scene is crea...">
<polygon fill="none" stroke="black" points="139.5,-722.5 139.5,-741.5 213.5,-741.5 213.5,-722.5 139.5,-722.5"/>
<text text-anchor="middle" x="176.5" y="-729.5" font-family="Helvetica,sans-Serif" font-size="10.00">CanvasScript</text>
</a>
</g>
</g>
<!-- Node0&#45;&gt;Node5 -->
<g id="edge5" class="edge"><title>Node0&#45;&gt;Node5</title>
<path fill="none" stroke="midnightblue" d="M42.2983,-466.602C42.8829,-515.143 51.1943,-642.117 119,-713 124.508,-718.758 131.814,-722.771 139.339,-725.568"/>
<polygon fill="midnightblue" stroke="midnightblue" points="45.7982,-466.503 42.28,-456.51 38.7982,-466.516 45.7982,-466.503"/>
</g>
<!-- Node6 -->
<g id="node7" class="node"><title>Node6</title>
<g id="a_node7"><a xlink:href="class_container_data.html" target="_top" xlink:title="An attribute to store information for a container in the item menu ">
<polygon fill="none" stroke="black" points="137.5,-684.5 137.5,-703.5 215.5,-703.5 215.5,-684.5 137.5,-684.5"/>
<text text-anchor="middle" x="176.5" y="-691.5" font-family="Helvetica,sans-Serif" font-size="10.00">ContainerData</text>
</a>
</g>
</g>
<!-- Node0&#45;&gt;Node6 -->
<g id="edge6" class="edge"><title>Node0&#45;&gt;Node6</title>
<path fill="none" stroke="midnightblue" d="M43.4444,-467.004C46.5929,-510.846 60.2101,-616.17 119,-675 124.121,-680.124 130.665,-683.867 137.472,-686.6"/>
<polygon fill="midnightblue" stroke="midnightblue" points="46.9246,-466.57 42.8263,-456.8 39.9374,-466.994 46.9246,-466.57"/>
</g>
<!-- Node7 -->
<g id="node8" class="node"><title>Node7</title>
<g id="a_node8"><a xlink:href="class_dialogue_script.html" target="_top" xlink:title="Script to show dialogue, as well as step through multiple lines and close afterwards ...">
<polygon fill="none" stroke="black" points="136.5,-646.5 136.5,-665.5 216.5,-665.5 216.5,-646.5 136.5,-646.5"/>
<text text-anchor="middle" x="176.5" y="-653.5" font-family="Helvetica,sans-Serif" font-size="10.00">DialogueScript</text>
</a>
</g>
</g>
<!-- Node0&#45;&gt;Node7 -->
<g id="edge7" class="edge"><title>Node0&#45;&gt;Node7</title>
<path fill="none" stroke="midnightblue" d="M44.9698,-466.787C50.7858,-505.078 68.8527,-589.698 119,-637 123.893,-641.616 129.944,-645.112 136.249,-647.761"/>
<polygon fill="midnightblue" stroke="midnightblue" points="48.4361,-466.302 43.5865,-456.882 41.5034,-467.27 48.4361,-466.302"/>
</g>
<!-- Node8 -->
<g id="node9" class="node"><title>Node8</title>
<g id="a_node9"><a xlink:href="class_exploration_menu_script.html" target="_top" xlink:title="A script to manage the exploration menu that the user can call up at anytime ">
<polygon fill="none" stroke="black" points="119,-608.5 119,-627.5 234,-627.5 234,-608.5 119,-608.5"/>
<text text-anchor="middle" x="176.5" y="-615.5" font-family="Helvetica,sans-Serif" font-size="10.00">ExplorationMenuScript</text>
</a>
</g>
</g>
<!-- Node0&#45;&gt;Node8 -->
<g id="edge8" class="edge"><title>Node0&#45;&gt;Node8</title>
<path fill="none" stroke="midnightblue" d="M47.2114,-466.771C55.9003,-499.028 77.4749,-562.985 119,-599 123.456,-602.865 128.729,-605.951 134.234,-608.413"/>
<polygon fill="midnightblue" stroke="midnightblue" points="50.5264,-465.606 44.6638,-456.781 43.7435,-467.336 50.5264,-465.606"/>
</g>
<!-- Node9 -->
<g id="node10" class="node"><title>Node9</title>
<g id="a_node10"><a xlink:href="class_global_functions.html" target="_top" xlink:title="Provides functions and variables to be accessed by any game object to allow data to be passed between...">
<polygon fill="none" stroke="black" points="133,-570.5 133,-589.5 220,-589.5 220,-570.5 133,-570.5"/>
<text text-anchor="middle" x="176.5" y="-577.5" font-family="Helvetica,sans-Serif" font-size="10.00">GlobalFunctions</text>
</a>
</g>
</g>
<!-- Node0&#45;&gt;Node9 -->
<g id="edge9" class="edge"><title>Node0&#45;&gt;Node9</title>
<path fill="none" stroke="midnightblue" d="M50.5177,-466.077C62.0617,-491.317 85.6992,-535.575 119,-561 124.018,-564.831 129.852,-567.915 135.829,-570.39"/>
<polygon fill="midnightblue" stroke="midnightblue" points="53.6766,-464.565 46.4413,-456.826 47.271,-467.388 53.6766,-464.565"/>
</g>
<!-- Node10 -->
<g id="node11" class="node"><title>Node10</title>
<g id="a_node11"><a xlink:href="class_healing_station.html" target="_top" xlink:title="A script describing a healing station, where all player&#39;s health and magic are restored ...">
<polygon fill="none" stroke="black" points="136.5,-532.5 136.5,-551.5 216.5,-551.5 216.5,-532.5 136.5,-532.5"/>
<text text-anchor="middle" x="176.5" y="-539.5" font-family="Helvetica,sans-Serif" font-size="10.00">HealingStation</text>
</a>
</g>
</g>
<!-- Node0&#45;&gt;Node10 -->
<g id="edge10" class="edge"><title>Node0&#45;&gt;Node10</title>
<path fill="none" stroke="midnightblue" d="M56.1537,-464.65C70.226,-481.751 93.6354,-507.335 119,-523 125.075,-526.752 131.98,-529.862 138.826,-532.403"/>
<polygon fill="midnightblue" stroke="midnightblue" points="58.6697,-462.193 49.6851,-456.578 53.2073,-466.57 58.6697,-462.193"/>
</g>
<!-- Node11 -->
<g id="node12" class="node"><title>Node11</title>
<g id="a_node12"><a xlink:href="class_items_menu_script.html" target="_top" xlink:title="Controls all initialisation of menu and updates arrays when an item is moved ">
<polygon fill="none" stroke="black" points="131.5,-494.5 131.5,-513.5 221.5,-513.5 221.5,-494.5 131.5,-494.5"/>
<text text-anchor="middle" x="176.5" y="-501.5" font-family="Helvetica,sans-Serif" font-size="10.00">ItemsMenuScript</text>
</a>
</g>
</g>
<!-- Node0&#45;&gt;Node11 -->
<g id="edge11" class="edge"><title>Node0&#45;&gt;Node11</title>
<path fill="none" stroke="midnightblue" d="M69.0388,-461.302C83.5716,-468.847 102.029,-477.97 119,-485 127.222,-488.406 136.297,-491.668 144.722,-494.498"/>
<polygon fill="midnightblue" stroke="midnightblue" points="70.5907,-458.163 60.1105,-456.609 67.334,-464.36 70.5907,-458.163"/>
</g>
<!-- Node12 -->
<g id="node13" class="node"><title>Node12</title>
<g id="a_node13"><a xlink:href="class_level_manager.html" target="_top" xlink:title="A script used to check and handle when a level is beat by defeating the final boss ...">
<polygon fill="none" stroke="black" points="138.5,-456.5 138.5,-475.5 214.5,-475.5 214.5,-456.5 138.5,-456.5"/>
<text text-anchor="middle" x="176.5" y="-463.5" font-family="Helvetica,sans-Serif" font-size="10.00">LevelManager</text>
</a>
</g>
</g>
<!-- Node0&#45;&gt;Node12 -->
<g id="edge12" class="edge"><title>Node0&#45;&gt;Node12</title>
<path fill="none" stroke="midnightblue" d="M93.2711,-454.253C108.242,-456.392 124.342,-458.692 138.292,-460.685"/>
<polygon fill="midnightblue" stroke="midnightblue" points="93.5216,-450.753 83.1271,-452.804 92.5316,-457.683 93.5216,-450.753"/>
</g>
<!-- Node13 -->
<g id="node14" class="node"><title>Node13</title>
<g id="a_node14"><a xlink:href="class_main_battle.html" target="_top" xlink:title="Script for handing a battle scene. Uses BattleManager, but handles turn order and execution as well a...">
<polygon fill="none" stroke="black" points="145,-418.5 145,-437.5 208,-437.5 208,-418.5 145,-418.5"/>
<text text-anchor="middle" x="176.5" y="-425.5" font-family="Helvetica,sans-Serif" font-size="10.00">MainBattle</text>
</a>
</g>
</g>
<!-- Node0&#45;&gt;Node13 -->
<g id="edge13" class="edge"><title>Node0&#45;&gt;Node13</title>
<path fill="none" stroke="midnightblue" d="M93.1585,-439.763C110.564,-437.277 129.507,-434.57 144.831,-432.381"/>
<polygon fill="midnightblue" stroke="midnightblue" points="92.5316,-436.317 83.1271,-441.196 93.5216,-443.247 92.5316,-436.317"/>
</g>
<!-- Node14 -->
<g id="node15" class="node"><title>Node14</title>
<g id="a_node15"><a xlink:href="class_menu_script.html" target="_top" xlink:title="Script to handle the main menu ">
<polygon fill="none" stroke="black" points="143.5,-380.5 143.5,-399.5 209.5,-399.5 209.5,-380.5 143.5,-380.5"/>
<text text-anchor="middle" x="176.5" y="-387.5" font-family="Helvetica,sans-Serif" font-size="10.00">MenuScript</text>
</a>
</g>
</g>
<!-- Node0&#45;&gt;Node14 -->
<g id="edge14" class="edge"><title>Node0&#45;&gt;Node14</title>
<path fill="none" stroke="midnightblue" d="M69.0388,-432.698C83.5716,-425.153 102.029,-416.03 119,-409 127.222,-405.594 136.297,-402.332 144.722,-399.502"/>
<polygon fill="midnightblue" stroke="midnightblue" points="67.334,-429.64 60.1105,-437.391 70.5907,-435.837 67.334,-429.64"/>
</g>
<!-- Node15 -->
<g id="node16" class="node"><title>Node15</title>
<g id="a_node16"><a xlink:href="class_object_interaction.html" target="_top" xlink:title="A component to add to collider relating to an object that can interact with the player by pressing th...">
<polygon fill="none" stroke="black" points="131.5,-342.5 131.5,-361.5 221.5,-361.5 221.5,-342.5 131.5,-342.5"/>
<text text-anchor="middle" x="176.5" y="-349.5" font-family="Helvetica,sans-Serif" font-size="10.00">ObjectInteraction</text>
</a>
</g>
</g>
<!-- Node0&#45;&gt;Node15 -->
<g id="edge15" class="edge"><title>Node0&#45;&gt;Node15</title>
<path fill="none" stroke="midnightblue" d="M56.1537,-429.35C70.226,-412.249 93.6354,-386.665 119,-371 125.075,-367.248 131.98,-364.138 138.826,-361.597"/>
<polygon fill="midnightblue" stroke="midnightblue" points="53.2073,-427.43 49.6851,-437.422 58.6697,-431.807 53.2073,-427.43"/>
</g>
<!-- Node16 -->
<g id="node17" class="node"><title>Node16</title>
<g id="a_node17"><a xlink:href="class_player_data.html" target="_top" xlink:title="A monobehaviour object to house an instance of DataManager so it can be called by other objects ...">
<polygon fill="none" stroke="black" points="144,-304.5 144,-323.5 209,-323.5 209,-304.5 144,-304.5"/>
<text text-anchor="middle" x="176.5" y="-311.5" font-family="Helvetica,sans-Serif" font-size="10.00">PlayerData</text>
</a>
</g>
</g>
<!-- Node0&#45;&gt;Node16 -->
<g id="edge16" class="edge"><title>Node0&#45;&gt;Node16</title>
<path fill="none" stroke="midnightblue" d="M50.5177,-427.923C62.0617,-402.683 85.6992,-358.425 119,-333 126.238,-327.474 135.177,-323.501 143.791,-320.668"/>
<polygon fill="midnightblue" stroke="midnightblue" points="47.271,-426.612 46.4413,-437.174 53.6766,-429.435 47.271,-426.612"/>
</g>
<!-- Node17 -->
<g id="node18" class="node"><title>Node17</title>
<g id="a_node18"><a xlink:href="class_player_menu.html" target="_top" xlink:title="Script for controlling the menu which allows users to switch the order of their team members ...">
<polygon fill="none" stroke="black" points="142.5,-266.5 142.5,-285.5 210.5,-285.5 210.5,-266.5 142.5,-266.5"/>
<text text-anchor="middle" x="176.5" y="-273.5" font-family="Helvetica,sans-Serif" font-size="10.00">PlayerMenu</text>
</a>
</g>
</g>
<!-- Node0&#45;&gt;Node17 -->
<g id="edge17" class="edge"><title>Node0&#45;&gt;Node17</title>
<path fill="none" stroke="midnightblue" d="M47.2114,-427.229C55.9003,-394.972 77.4749,-331.015 119,-295 125.645,-289.236 134.106,-285.206 142.445,-282.392"/>
<polygon fill="midnightblue" stroke="midnightblue" points="43.7435,-426.664 44.6638,-437.219 50.5264,-428.394 43.7435,-426.664"/>
</g>
<!-- Node18 -->
<g id="node19" class="node"><title>Node18</title>
<g id="a_node19"><a xlink:href="class_player_movement.html" target="_top" xlink:title="A script to control the movement and animations of the player">
<polygon fill="none" stroke="black" points="132,-228.5 132,-247.5 221,-247.5 221,-228.5 132,-228.5"/>
<text text-anchor="middle" x="176.5" y="-235.5" font-family="Helvetica,sans-Serif" font-size="10.00">PlayerMovement</text>
</a>
</g>
</g>
<!-- Node0&#45;&gt;Node18 -->
<g id="edge18" class="edge"><title>Node0&#45;&gt;Node18</title>
<path fill="none" stroke="midnightblue" d="M44.9698,-427.213C50.7858,-388.922 68.8527,-304.302 119,-257 123.14,-253.094 128.11,-249.99 133.361,-247.523"/>
<polygon fill="midnightblue" stroke="midnightblue" points="41.5034,-426.73 43.5865,-437.118 48.4361,-427.698 41.5034,-426.73"/>
</g>
<!-- Node19 -->
<g id="node20" class="node"><title>Node19</title>
<g id="a_node20"><a xlink:href="class_portal.html" target="_top" xlink:title="A component to add to an object, such as when the player touches it they are teleported to a new scen...">
<polygon fill="none" stroke="black" points="155.5,-190.5 155.5,-209.5 197.5,-209.5 197.5,-190.5 155.5,-190.5"/>
<text text-anchor="middle" x="176.5" y="-197.5" font-family="Helvetica,sans-Serif" font-size="10.00">Portal</text>
</a>
</g>
</g>
<!-- Node0&#45;&gt;Node19 -->
<g id="edge19" class="edge"><title>Node0&#45;&gt;Node19</title>
<path fill="none" stroke="midnightblue" d="M43.4444,-426.996C46.5929,-383.154 60.2101,-277.83 119,-219 128.656,-209.337 143.376,-204.588 155.37,-202.254"/>
<polygon fill="midnightblue" stroke="midnightblue" points="39.9374,-427.006 42.8263,-437.2 46.9246,-427.43 39.9374,-427.006"/>
</g>
<!-- Node20 -->
<g id="node21" class="node"><title>Node20</title>
<g id="a_node21"><a xlink:href="class_scene_changer.html" target="_top" xlink:title="A set of functions to be called to change scenes smoothly whilst handling the player&#39;s location and a...">
<polygon fill="none" stroke="black" points="136.5,-152.5 136.5,-171.5 216.5,-171.5 216.5,-152.5 136.5,-152.5"/>
<text text-anchor="middle" x="176.5" y="-159.5" font-family="Helvetica,sans-Serif" font-size="10.00">SceneChanger</text>
</a>
</g>
</g>
<!-- Node0&#45;&gt;Node20 -->
<g id="edge20" class="edge"><title>Node0&#45;&gt;Node20</title>
<path fill="none" stroke="midnightblue" d="M42.2983,-427.398C42.8829,-378.857 51.1943,-251.883 119,-181 123.793,-175.99 129.947,-172.3 136.422,-169.584"/>
<polygon fill="midnightblue" stroke="midnightblue" points="38.7982,-427.484 42.28,-437.49 45.7982,-427.497 38.7982,-427.484"/>
</g>
<!-- Node21 -->
<g id="node22" class="node"><title>Node21</title>
<g id="a_node22"><a xlink:href="class_sound_manager.html" target="_top" xlink:title="A script to manage all background music and sound effects in the game ">
<polygon fill="none" stroke="black" points="135.5,-114.5 135.5,-133.5 217.5,-133.5 217.5,-114.5 135.5,-114.5"/>
<text text-anchor="middle" x="176.5" y="-121.5" font-family="Helvetica,sans-Serif" font-size="10.00">SoundManager</text>
</a>
</g>
</g>
<!-- Node0&#45;&gt;Node21 -->
<g id="edge21" class="edge"><title>Node0&#45;&gt;Node21</title>
<path fill="none" stroke="midnightblue" d="M44.9953,-427.17C52.9914,-366.578 79.7684,-185.412 119,-143 123.497,-138.138 129.277,-134.519 135.418,-131.826"/>
<polygon fill="midnightblue" stroke="midnightblue" points="41.495,-426.948 43.685,-437.314 48.4374,-427.845 41.495,-426.948"/>
</g>
<!-- Node22 -->
<g id="node23" class="node"><title>Node22</title>
<g id="a_node23"><a xlink:href="class_stats_script.html" target="_top" xlink:title="A script used to manage and update all of the stat displays in the battle scene ">
<polygon fill="none" stroke="black" points="144,-76.5 144,-95.5 209,-95.5 209,-76.5 144,-76.5"/>
<text text-anchor="middle" x="176.5" y="-83.5" font-family="Helvetica,sans-Serif" font-size="10.00">StatsScript</text>
</a>
</g>
</g>
<!-- Node0&#45;&gt;Node22 -->
<g id="edge22" class="edge"><title>Node0&#45;&gt;Node22</title>
<path fill="none" stroke="midnightblue" d="M44.3818,-427.311C51.001,-361.958 75.2085,-153.617 119,-105 125.441,-97.8489 134.659,-93.386 143.786,-90.602"/>
<polygon fill="midnightblue" stroke="midnightblue" points="40.8783,-427.175 43.3793,-437.471 47.8445,-427.863 40.8783,-427.175"/>
</g>
<!-- Node23 -->
<g id="node24" class="node"><title>Node23</title>
<g id="a_node24"><a xlink:href="class_switch_players_script.html" target="_top" xlink:title="Script to handle the menu allowing users to switch players in and out of battle ">
<polygon fill="none" stroke="black" points="124.5,-38.5 124.5,-57.5 228.5,-57.5 228.5,-38.5 124.5,-38.5"/>
<text text-anchor="middle" x="176.5" y="-45.5" font-family="Helvetica,sans-Serif" font-size="10.00">SwitchPlayersScript</text>
</a>
</g>
</g>
<!-- Node0&#45;&gt;Node23 -->
<g id="edge23" class="edge"><title>Node0&#45;&gt;Node23</title>
<path fill="none" stroke="midnightblue" d="M43.8941,-427.428C49.2433,-357.588 70.6274,-121.872 119,-67 122.422,-63.1185 126.662,-60.0284 131.271,-57.5686"/>
<polygon fill="midnightblue" stroke="midnightblue" points="40.3971,-427.258 43.1479,-437.49 47.378,-427.776 40.3971,-427.258"/>
</g>
<!-- Node24 -->
<g id="node25" class="node"><title>Node24</title>
<g id="a_node25"><a xlink:href="class_world_map_script.html" target="_top" xlink:title="A controler for the world map, stopping players from entering old or future levels, and colouring the departments approriately">
<polygon fill="none" stroke="black" points="133.5,-0.5 133.5,-19.5 219.5,-19.5 219.5,-0.5 133.5,-0.5"/>
<text text-anchor="middle" x="176.5" y="-7.5" font-family="Helvetica,sans-Serif" font-size="10.00">WorldMapScript</text>
</a>
</g>
</g>
<!-- Node0&#45;&gt;Node24 -->
<g id="edge24" class="edge"><title>Node0&#45;&gt;Node24</title>
<path fill="none" stroke="midnightblue" d="M43.5299,-426.946C47.763,-352.065 66.1657,-90.0105 119,-29 122.929,-24.4626 127.978,-21.0059 133.438,-18.3732"/>
<polygon fill="midnightblue" stroke="midnightblue" points="40.0153,-427.122 42.9691,-437.297 47.005,-427.501 40.0153,-427.122"/>
</g>
</g>
</svg>
