<?xml version="1.0" encoding="UTF-8" standalone="no"?>
<!DOCTYPE svg PUBLIC "-//W3C//DTD SVG 1.1//EN"
 "http://www.w3.org/Graphics/SVG/1.1/DTD/svg11.dtd">
<!-- Generated by graphviz version 2.38.0 (20140413.2041)
 -->
<!-- Title: Graphical Class Hierarchy Pages: 1 -->
<svg width="328pt" height="256pt"
 viewBox="0.00 0.00 328.00 256.00" xmlns="http://www.w3.org/2000/svg" xmlns:xlink="http://www.w3.org/1999/xlink">
<g id="graph0" class="graph" transform="scale(1 1) rotate(0) translate(4 252)">
<title>Graphical Class Hierarchy</title>
<!-- Node0 -->
<g id="node1" class="node"><title>Node0</title>
<g id="a_node1"><a xlink:href="class_character_move.html" target="_top" xlink:title="Astract base class for character moves ">
<polygon fill="none" stroke="black" points="0,-76.5 0,-95.5 81,-95.5 81,-76.5 0,-76.5"/>
<text text-anchor="middle" x="40.5" y="-83.5" font-family="Helvetica,sans-Serif" font-size="10.00">CharacterMove</text>
</a>
</g>
</g>
<!-- Node1 -->
<g id="node2" class="node"><title>Node1</title>
<g id="a_node2"><a xlink:href="class_special_move.html" target="_top" xlink:title="Special move abstract base class that expands upon CharacterMove, adding magic properties ...">
<polygon fill="none" stroke="black" points="123.5,-114.5 123.5,-133.5 194.5,-133.5 194.5,-114.5 123.5,-114.5"/>
<text text-anchor="middle" x="159" y="-121.5" font-family="Helvetica,sans-Serif" font-size="10.00">SpecialMove</text>
</a>
</g>
</g>
<!-- Node0&#45;&gt;Node1 -->
<g id="edge1" class="edge"><title>Node0&#45;&gt;Node1</title>
<path fill="none" stroke="midnightblue" d="M80.8216,-98.8259C96.4534,-103.925 114.126,-109.689 128.612,-114.414"/>
<polygon fill="midnightblue" stroke="midnightblue" points="81.4903,-95.3626 70.8979,-95.589 79.3195,-102.018 81.4903,-95.3626"/>
</g>
<!-- Node9 -->
<g id="node10" class="node"><title>Node9</title>
<g id="a_node10"><a xlink:href="class_standard_attack.html" target="_top" xlink:title="Basic standard attack ">
<polygon fill="none" stroke="black" points="117,-76.5 117,-95.5 201,-95.5 201,-76.5 117,-76.5"/>
<text text-anchor="middle" x="159" y="-83.5" font-family="Helvetica,sans-Serif" font-size="10.00">StandardAttack</text>
</a>
</g>
</g>
<!-- Node0&#45;&gt;Node9 -->
<g id="edge9" class="edge"><title>Node0&#45;&gt;Node9</title>
<path fill="none" stroke="midnightblue" d="M91.4309,-86C99.9015,-86 108.612,-86 116.825,-86"/>
<polygon fill="midnightblue" stroke="midnightblue" points="91.2669,-82.5001 81.2669,-86 91.2668,-89.5001 91.2669,-82.5001"/>
</g>
<!-- Node10 -->
<g id="node11" class="node"><title>Node10</title>
<g id="a_node11"><a xlink:href="class_switch_players.html" target="_top" xlink:title="Simple move to swap out the current player ">
<polygon fill="none" stroke="black" points="119.5,-38.5 119.5,-57.5 198.5,-57.5 198.5,-38.5 119.5,-38.5"/>
<text text-anchor="middle" x="159" y="-45.5" font-family="Helvetica,sans-Serif" font-size="10.00">SwitchPlayers</text>
</a>
</g>
</g>
<!-- Node0&#45;&gt;Node10 -->
<g id="edge10" class="edge"><title>Node0&#45;&gt;Node10</title>
<path fill="none" stroke="midnightblue" d="M80.8216,-73.1741C96.4534,-68.0753 114.126,-62.3109 128.612,-57.5859"/>
<polygon fill="midnightblue" stroke="midnightblue" points="79.3195,-69.9825 70.8979,-76.411 81.4903,-76.6374 79.3195,-69.9825"/>
</g>
<!-- Node2 -->
<g id="node3" class="node"><title>Node2</title>
<g id="a_node3"><a xlink:href="class_healing_spell.html" target="_top" xlink:title="Heal a target by a set amount of health points">
<polygon fill="none" stroke="black" points="243,-228.5 243,-247.5 314,-247.5 314,-228.5 243,-228.5"/>
<text text-anchor="middle" x="278.5" y="-235.5" font-family="Helvetica,sans-Serif" font-size="10.00">HealingSpell</text>
</a>
</g>
</g>
<!-- Node1&#45;&gt;Node2 -->
<g id="edge2" class="edge"><title>Node1&#45;&gt;Node2</title>
<path fill="none" stroke="midnightblue" d="M171.028,-142.079C184.462,-162.877 208.875,-196.984 237,-219 241.648,-222.638 247.106,-225.791 252.483,-228.426"/>
<polygon fill="midnightblue" stroke="midnightblue" points="173.947,-140.145 165.655,-133.55 168.024,-143.877 173.947,-140.145"/>
</g>
<!-- Node3 -->
<g id="node4" class="node"><title>Node3</title>
<g id="a_node4"><a xlink:href="class_increase_money.html" target="_top" xlink:title="Increases the money reward of a battle">
<polygon fill="none" stroke="black" points="237,-190.5 237,-209.5 320,-209.5 320,-190.5 237,-190.5"/>
<text text-anchor="middle" x="278.5" y="-197.5" font-family="Helvetica,sans-Serif" font-size="10.00">IncreaseMoney</text>
</a>
</g>
</g>
<!-- Node1&#45;&gt;Node3 -->
<g id="edge3" class="edge"><title>Node1&#45;&gt;Node3</title>
<path fill="none" stroke="midnightblue" d="M179.577,-140.193C194.706,-152.277 216.463,-168.747 237,-181 242.602,-184.343 248.889,-187.537 254.807,-190.321"/>
<polygon fill="midnightblue" stroke="midnightblue" points="181.47,-137.221 171.495,-133.649 177.065,-142.662 181.47,-137.221"/>
</g>
<!-- Node4 -->
<g id="node5" class="node"><title>Node4</title>
<g id="a_node5"><a xlink:href="class_lower_defence.html" target="_top" xlink:title="Lower&#39;s the target&#39;s defence ">
<polygon fill="none" stroke="black" points="240,-152.5 240,-171.5 317,-171.5 317,-152.5 240,-152.5"/>
<text text-anchor="middle" x="278.5" y="-159.5" font-family="Helvetica,sans-Serif" font-size="10.00">LowerDefence</text>
</a>
</g>
</g>
<!-- Node1&#45;&gt;Node4 -->
<g id="edge4" class="edge"><title>Node1&#45;&gt;Node4</title>
<path fill="none" stroke="midnightblue" d="M199.209,-136.68C215.085,-141.815 233.11,-147.644 247.859,-152.414"/>
<polygon fill="midnightblue" stroke="midnightblue" points="200.242,-133.336 189.65,-133.589 198.088,-139.996 200.242,-133.336"/>
</g>
<!-- Node5 -->
<g id="node6" class="node"><title>Node5</title>
<g id="a_node6"><a xlink:href="class_lower_speed.html" target="_top" xlink:title="Lower&#39;s the target&#39;s speed ">
<polygon fill="none" stroke="black" points="243.5,-114.5 243.5,-133.5 313.5,-133.5 313.5,-114.5 243.5,-114.5"/>
<text text-anchor="middle" x="278.5" y="-121.5" font-family="Helvetica,sans-Serif" font-size="10.00">LowerSpeed</text>
</a>
</g>
</g>
<!-- Node1&#45;&gt;Node5 -->
<g id="edge5" class="edge"><title>Node1&#45;&gt;Node5</title>
<path fill="none" stroke="midnightblue" d="M204.982,-124C217.639,-124 231.199,-124 243.129,-124"/>
<polygon fill="midnightblue" stroke="midnightblue" points="204.618,-120.5 194.618,-124 204.618,-127.5 204.618,-120.5"/>
</g>
<!-- Node6 -->
<g id="node7" class="node"><title>Node6</title>
<g id="a_node7"><a xlink:href="class_magic_attack.html" target="_top" xlink:title="An attack move that uses magic ">
<polygon fill="none" stroke="black" points="243,-76.5 243,-95.5 314,-95.5 314,-76.5 243,-76.5"/>
<text text-anchor="middle" x="278.5" y="-83.5" font-family="Helvetica,sans-Serif" font-size="10.00">MagicAttack</text>
</a>
</g>
</g>
<!-- Node1&#45;&gt;Node6 -->
<g id="edge6" class="edge"><title>Node1&#45;&gt;Node6</title>
<path fill="none" stroke="midnightblue" d="M199.209,-111.32C215.085,-106.185 233.11,-100.356 247.859,-95.5859"/>
<polygon fill="midnightblue" stroke="midnightblue" points="198.088,-108.004 189.65,-114.411 200.242,-114.664 198.088,-108.004"/>
</g>
<!-- Node7 -->
<g id="node8" class="node"><title>Node7</title>
<g id="a_node8"><a xlink:href="class_raise_attack.html" target="_top" xlink:title="Raise the target&#39;s attack stat">
<polygon fill="none" stroke="black" points="243.5,-38.5 243.5,-57.5 313.5,-57.5 313.5,-38.5 243.5,-38.5"/>
<text text-anchor="middle" x="278.5" y="-45.5" font-family="Helvetica,sans-Serif" font-size="10.00">RaiseAttack</text>
</a>
</g>
</g>
<!-- Node1&#45;&gt;Node7 -->
<g id="edge7" class="edge"><title>Node1&#45;&gt;Node7</title>
<path fill="none" stroke="midnightblue" d="M193.596,-109.742C196.171,-108.258 198.671,-106.674 201,-105 219.891,-91.4223 218.141,-80.6221 237,-67 241.911,-63.4529 247.589,-60.3035 253.111,-57.6387"/>
<polygon fill="midnightblue" stroke="midnightblue" points="191.934,-106.661 184.694,-114.397 195.177,-112.865 191.934,-106.661"/>
</g>
<!-- Node8 -->
<g id="node9" class="node"><title>Node8</title>
<g id="a_node9"><a xlink:href="class_raise_defence.html" target="_top" xlink:title="Raises the target&#39;s defence stat">
<polygon fill="none" stroke="black" points="240,-0.5 240,-19.5 317,-19.5 317,-0.5 240,-0.5"/>
<text text-anchor="middle" x="278.5" y="-7.5" font-family="Helvetica,sans-Serif" font-size="10.00">RaiseDefence</text>
</a>
</g>
</g>
<!-- Node1&#45;&gt;Node8 -->
<g id="edge8" class="edge"><title>Node1&#45;&gt;Node8</title>
<path fill="none" stroke="midnightblue" d="M196.406,-108.954C198.035,-107.725 199.579,-106.409 201,-105 227.54,-78.6829 210.522,-55.3793 237,-29 240.741,-25.2725 245.353,-22.1847 250.108,-19.6597"/>
<polygon fill="midnightblue" stroke="midnightblue" points="194.347,-106.113 187.73,-114.387 198.063,-112.046 194.347,-106.113"/>
</g>
</g>
</svg>
