<?xml version="1.0" encoding="UTF-8" standalone="no"?>
<!DOCTYPE svg PUBLIC "-//W3C//DTD SVG 1.1//EN"
 "http://www.w3.org/Graphics/SVG/1.1/DTD/svg11.dtd">
<!-- Generated by graphviz version 2.38.0 (20140413.2041)
 -->
<!-- Title: Graphical Class Hierarchy Pages: 1 -->
<svg width="219pt" height="712pt"
 viewBox="0.00 0.00 219.00 712.00" xmlns="http://www.w3.org/2000/svg" xmlns:xlink="http://www.w3.org/1999/xlink">
<g id="graph0" class="graph" transform="scale(1 1) rotate(0) translate(4 708)">
<title>Graphical Class Hierarchy</title>
<!-- Node0 -->
<g id="node1" class="node"><title>Node0</title>
<g id="a_node1"><a xlink:href="class_mono_behaviour.html" target="_top" xlink:title="MonoBehaviour">
<polygon fill="none" stroke="black" points="0,-342.5 0,-361.5 83,-361.5 83,-342.5 0,-342.5"/>
<text text-anchor="middle" x="41.5" y="-349.5" font-family="Helvetica,sans-Serif" font-size="10.00">MonoBehaviour</text>
</a>
</g>
</g>
<!-- Node1 -->
<g id="node2" class="node"><title>Node1</title>
<g id="a_node2"><a xlink:href="class_attack_button.html" target="_top" xlink:title="AttackButton">
<polygon fill="none" stroke="black" points="128,-684.5 128,-703.5 202,-703.5 202,-684.5 128,-684.5"/>
<text text-anchor="middle" x="165" y="-691.5" font-family="Helvetica,sans-Serif" font-size="10.00">AttackButton</text>
</a>
</g>
</g>
<!-- Node0&#45;&gt;Node1 -->
<g id="edge1" class="edge"><title>Node0&#45;&gt;Node1</title>
<path fill="none" stroke="midnightblue" d="M44.8193,-371.691C52.5536,-434.386 79.242,-627.981 119,-675 122.285,-678.885 126.503,-681.993 131.035,-684.474"/>
<polygon fill="midnightblue" stroke="midnightblue" points="48.2711,-371.081 43.5968,-361.573 41.3216,-371.921 48.2711,-371.081"/>
</g>
<!-- Node2 -->
<g id="node3" class="node"><title>Node2</title>
<g id="a_node3"><a xlink:href="class_button_manager.html" target="_top" xlink:title="ButtonManager">
<polygon fill="none" stroke="black" points="123.5,-646.5 123.5,-665.5 206.5,-665.5 206.5,-646.5 123.5,-646.5"/>
<text text-anchor="middle" x="165" y="-653.5" font-family="Helvetica,sans-Serif" font-size="10.00">ButtonManager</text>
</a>
</g>
</g>
<!-- Node0&#45;&gt;Node2 -->
<g id="edge2" class="edge"><title>Node0&#45;&gt;Node2</title>
<path fill="none" stroke="midnightblue" d="M42.1838,-371.977C42.4523,-422.656 49.9959,-557.808 119,-637 122.343,-640.836 126.59,-643.918 131.135,-646.388"/>
<polygon fill="midnightblue" stroke="midnightblue" points="45.6847,-371.753 42.2279,-361.738 38.6848,-371.723 45.6847,-371.753"/>
</g>
<!-- Node3 -->
<g id="node4" class="node"><title>Node3</title>
<g id="a_node4"><a xlink:href="class_camera_controller.html" target="_top" xlink:title="CameraController">
<polygon fill="none" stroke="black" points="119,-608.5 119,-627.5 211,-627.5 211,-608.5 119,-608.5"/>
<text text-anchor="middle" x="165" y="-615.5" font-family="Helvetica,sans-Serif" font-size="10.00">CameraController</text>
</a>
</g>
</g>
<!-- Node0&#45;&gt;Node3 -->
<g id="edge3" class="edge"><title>Node0&#45;&gt;Node3</title>
<path fill="none" stroke="midnightblue" d="M43.1908,-372.063C45.8208,-418.027 58.4465,-532.123 119,-599 122.415,-602.772 126.701,-605.819 131.263,-608.275"/>
<polygon fill="midnightblue" stroke="midnightblue" points="46.6796,-371.741 42.7145,-361.916 39.6873,-372.069 46.6796,-371.741"/>
</g>
<!-- Node4 -->
<g id="node5" class="node"><title>Node4</title>
<g id="a_node5"><a xlink:href="class_canvas_script.html" target="_top" xlink:title="CanvasScript">
<polygon fill="none" stroke="black" points="128,-570.5 128,-589.5 202,-589.5 202,-570.5 128,-570.5"/>
<text text-anchor="middle" x="165" y="-577.5" font-family="Helvetica,sans-Serif" font-size="10.00">CanvasScript</text>
</a>
</g>
</g>
<!-- Node0&#45;&gt;Node4 -->
<g id="edge4" class="edge"><title>Node0&#45;&gt;Node4</title>
<path fill="none" stroke="midnightblue" d="M44.4883,-371.698C49.5818,-412.284 66.6275,-506.016 119,-561 122.626,-564.807 127.136,-567.885 131.887,-570.363"/>
<polygon fill="midnightblue" stroke="midnightblue" points="47.9627,-371.274 43.3492,-361.737 41.008,-372.07 47.9627,-371.274"/>
</g>
<!-- Node5 -->
<g id="node6" class="node"><title>Node5</title>
<g id="a_node6"><a xlink:href="class_chest_script.html" target="_top" xlink:title="ChestScript">
<polygon fill="none" stroke="black" points="131,-532.5 131,-551.5 199,-551.5 199,-532.5 131,-532.5"/>
<text text-anchor="middle" x="165" y="-539.5" font-family="Helvetica,sans-Serif" font-size="10.00">ChestScript</text>
</a>
</g>
</g>
<!-- Node0&#45;&gt;Node5 -->
<g id="edge5" class="edge"><title>Node0&#45;&gt;Node5</title>
<path fill="none" stroke="midnightblue" d="M46.2798,-371.4C54.0075,-406.211 74.7541,-479.68 119,-523 122.878,-526.797 127.63,-529.883 132.576,-532.376"/>
<polygon fill="midnightblue" stroke="midnightblue" points="49.691,-370.613 44.215,-361.543 42.8397,-372.049 49.691,-370.613"/>
</g>
<!-- Node6 -->
<g id="node7" class="node"><title>Node6</title>
<g id="a_node7"><a xlink:href="class_dialogue_script.html" target="_top" xlink:title="DialogueScript">
<polygon fill="none" stroke="black" points="125,-494.5 125,-513.5 205,-513.5 205,-494.5 125,-494.5"/>
<text text-anchor="middle" x="165" y="-501.5" font-family="Helvetica,sans-Serif" font-size="10.00">DialogueScript</text>
</a>
</g>
</g>
<!-- Node0&#45;&gt;Node6 -->
<g id="edge6" class="edge"><title>Node0&#45;&gt;Node6</title>
<path fill="none" stroke="midnightblue" d="M49.0708,-371.384C59.6255,-399.862 82.9073,-453.077 119,-485 123.319,-488.82 128.519,-491.952 133.827,-494.491"/>
<polygon fill="midnightblue" stroke="midnightblue" points="52.3013,-370.023 45.6486,-361.777 45.7071,-372.372 52.3013,-370.023"/>
</g>
<!-- Node7 -->
<g id="node8" class="node"><title>Node7</title>
<g id="a_node8"><a xlink:href="class_global_functions.html" target="_top" xlink:title="GlobalFunctions">
<polygon fill="none" stroke="black" points="121.5,-456.5 121.5,-475.5 208.5,-475.5 208.5,-456.5 121.5,-456.5"/>
<text text-anchor="middle" x="165" y="-463.5" font-family="Helvetica,sans-Serif" font-size="10.00">GlobalFunctions</text>
</a>
</g>
</g>
<!-- Node0&#45;&gt;Node7 -->
<g id="edge7" class="edge"><title>Node0&#45;&gt;Node7</title>
<path fill="none" stroke="midnightblue" d="M53.2802,-370.278C66.4601,-391.264 90.5576,-425.549 119,-447 123.875,-450.677 129.567,-453.788 135.231,-456.361"/>
<polygon fill="midnightblue" stroke="midnightblue" points="56.2177,-368.372 48.0165,-361.665 50.2448,-372.023 56.2177,-368.372"/>
</g>
<!-- Node8 -->
<g id="node9" class="node"><title>Node8</title>
<g id="a_node9"><a xlink:href="class_item_button.html" target="_top" xlink:title="ItemButton">
<polygon fill="none" stroke="black" points="133,-418.5 133,-437.5 197,-437.5 197,-418.5 133,-418.5"/>
<text text-anchor="middle" x="165" y="-425.5" font-family="Helvetica,sans-Serif" font-size="10.00">ItemButton</text>
</a>
</g>
</g>
<!-- Node0&#45;&gt;Node8 -->
<g id="edge8" class="edge"><title>Node0&#45;&gt;Node8</title>
<path fill="none" stroke="midnightblue" d="M61.7983,-368.436C76.7495,-380.647 98.3331,-397.169 119,-409 125.035,-412.455 131.821,-415.646 138.257,-418.388"/>
<polygon fill="midnightblue" stroke="midnightblue" points="63.7487,-365.506 53.8187,-361.812 59.2778,-370.892 63.7487,-365.506"/>
</g>
<!-- Node9 -->
<g id="node10" class="node"><title>Node9</title>
<g id="a_node10"><a xlink:href="class_item_objects.html" target="_top" xlink:title="ItemObjects">
<polygon fill="none" stroke="black" points="130.5,-380.5 130.5,-399.5 199.5,-399.5 199.5,-380.5 130.5,-380.5"/>
<text text-anchor="middle" x="165" y="-387.5" font-family="Helvetica,sans-Serif" font-size="10.00">ItemObjects</text>
</a>
</g>
</g>
<!-- Node0&#45;&gt;Node9 -->
<g id="edge9" class="edge"><title>Node0&#45;&gt;Node9</title>
<path fill="none" stroke="midnightblue" d="M83.044,-364.68C99.4606,-369.815 118.099,-375.644 133.35,-380.414"/>
<polygon fill="midnightblue" stroke="midnightblue" points="83.7485,-361.234 73.1596,-361.589 81.6589,-367.914 83.7485,-361.234"/>
</g>
<!-- Node10 -->
<g id="node11" class="node"><title>Node10</title>
<g id="a_node11"><a xlink:href="class_main_battle.html" target="_top" xlink:title="MainBattle">
<polygon fill="none" stroke="black" points="133.5,-342.5 133.5,-361.5 196.5,-361.5 196.5,-342.5 133.5,-342.5"/>
<text text-anchor="middle" x="165" y="-349.5" font-family="Helvetica,sans-Serif" font-size="10.00">MainBattle</text>
</a>
</g>
</g>
<!-- Node0&#45;&gt;Node10 -->
<g id="edge10" class="edge"><title>Node0&#45;&gt;Node10</title>
<path fill="none" stroke="midnightblue" d="M93.5178,-352C107.116,-352 121.383,-352 133.496,-352"/>
<polygon fill="midnightblue" stroke="midnightblue" points="93.2958,-348.5 83.2957,-352 93.2957,-355.5 93.2958,-348.5"/>
</g>
<!-- Node11 -->
<g id="node12" class="node"><title>Node11</title>
<g id="a_node12"><a xlink:href="class_menu_script.html" target="_top" xlink:title="MenuScript">
<polygon fill="none" stroke="black" points="132,-304.5 132,-323.5 198,-323.5 198,-304.5 132,-304.5"/>
<text text-anchor="middle" x="165" y="-311.5" font-family="Helvetica,sans-Serif" font-size="10.00">MenuScript</text>
</a>
</g>
</g>
<!-- Node0&#45;&gt;Node11 -->
<g id="edge11" class="edge"><title>Node0&#45;&gt;Node11</title>
<path fill="none" stroke="midnightblue" d="M83.044,-339.32C99.4606,-334.185 118.099,-328.356 133.35,-323.586"/>
<polygon fill="midnightblue" stroke="midnightblue" points="81.6589,-336.086 73.1596,-342.411 83.7485,-342.766 81.6589,-336.086"/>
</g>
<!-- Node12 -->
<g id="node13" class="node"><title>Node12</title>
<g id="a_node13"><a xlink:href="class_object_dialogue.html" target="_top" xlink:title="ObjectDialogue">
<polygon fill="none" stroke="black" points="123.5,-266.5 123.5,-285.5 206.5,-285.5 206.5,-266.5 123.5,-266.5"/>
<text text-anchor="middle" x="165" y="-273.5" font-family="Helvetica,sans-Serif" font-size="10.00">ObjectDialogue</text>
</a>
</g>
</g>
<!-- Node0&#45;&gt;Node12 -->
<g id="edge12" class="edge"><title>Node0&#45;&gt;Node12</title>
<path fill="none" stroke="midnightblue" d="M61.7983,-335.564C76.7495,-323.353 98.3331,-306.831 119,-295 125.035,-291.545 131.821,-288.354 138.257,-285.612"/>
<polygon fill="midnightblue" stroke="midnightblue" points="59.2778,-333.108 53.8187,-342.188 63.7487,-338.494 59.2778,-333.108"/>
</g>
<!-- Node13 -->
<g id="node14" class="node"><title>Node13</title>
<g id="a_node14"><a xlink:href="class_player_data.html" target="_top" xlink:title="PlayerData">
<polygon fill="none" stroke="black" points="132.5,-228.5 132.5,-247.5 197.5,-247.5 197.5,-228.5 132.5,-228.5"/>
<text text-anchor="middle" x="165" y="-235.5" font-family="Helvetica,sans-Serif" font-size="10.00">PlayerData</text>
</a>
</g>
</g>
<!-- Node0&#45;&gt;Node13 -->
<g id="edge13" class="edge"><title>Node0&#45;&gt;Node13</title>
<path fill="none" stroke="midnightblue" d="M53.2802,-333.722C66.4601,-312.736 90.5576,-278.451 119,-257 123.875,-253.323 129.567,-250.212 135.231,-247.639"/>
<polygon fill="midnightblue" stroke="midnightblue" points="50.2448,-331.977 48.0165,-342.335 56.2177,-335.628 50.2448,-331.977"/>
</g>
<!-- Node14 -->
<g id="node15" class="node"><title>Node14</title>
<g id="a_node15"><a xlink:href="class_player_movement.html" target="_top" xlink:title="PlayerMovement">
<polygon fill="none" stroke="black" points="120.5,-190.5 120.5,-209.5 209.5,-209.5 209.5,-190.5 120.5,-190.5"/>
<text text-anchor="middle" x="165" y="-197.5" font-family="Helvetica,sans-Serif" font-size="10.00">PlayerMovement</text>
</a>
</g>
</g>
<!-- Node0&#45;&gt;Node14 -->
<g id="edge14" class="edge"><title>Node0&#45;&gt;Node14</title>
<path fill="none" stroke="midnightblue" d="M49.0708,-332.616C59.6255,-304.138 82.9073,-250.923 119,-219 123.319,-215.18 128.519,-212.048 133.827,-209.509"/>
<polygon fill="midnightblue" stroke="midnightblue" points="45.7071,-331.628 45.6486,-342.223 52.3013,-333.977 45.7071,-331.628"/>
</g>
<!-- Node15 -->
<g id="node16" class="node"><title>Node15</title>
<g id="a_node16"><a xlink:href="class_portal.html" target="_top" xlink:title="Portal">
<polygon fill="none" stroke="black" points="144,-152.5 144,-171.5 186,-171.5 186,-152.5 144,-152.5"/>
<text text-anchor="middle" x="165" y="-159.5" font-family="Helvetica,sans-Serif" font-size="10.00">Portal</text>
</a>
</g>
</g>
<!-- Node0&#45;&gt;Node15 -->
<g id="edge15" class="edge"><title>Node0&#45;&gt;Node15</title>
<path fill="none" stroke="midnightblue" d="M46.2798,-332.6C54.0075,-297.789 74.7541,-224.32 119,-181 125.787,-174.355 135.248,-169.888 143.745,-166.965"/>
<polygon fill="midnightblue" stroke="midnightblue" points="42.8397,-331.951 44.215,-342.457 49.691,-333.387 42.8397,-331.951"/>
</g>
<!-- Node16 -->
<g id="node17" class="node"><title>Node16</title>
<g id="a_node17"><a xlink:href="class_quit.html" target="_top" xlink:title="Quit">
<polygon fill="none" stroke="black" points="147.5,-114.5 147.5,-133.5 182.5,-133.5 182.5,-114.5 147.5,-114.5"/>
<text text-anchor="middle" x="165" y="-121.5" font-family="Helvetica,sans-Serif" font-size="10.00">Quit</text>
</a>
</g>
</g>
<!-- Node0&#45;&gt;Node16 -->
<g id="edge16" class="edge"><title>Node0&#45;&gt;Node16</title>
<path fill="none" stroke="midnightblue" d="M44.4883,-332.302C49.5818,-291.716 66.6275,-197.984 119,-143 126.487,-135.14 137.737,-130.39 147.115,-127.605"/>
<polygon fill="midnightblue" stroke="midnightblue" points="41.008,-331.93 43.3492,-342.263 47.9627,-332.726 41.008,-331.93"/>
</g>
<!-- Node17 -->
<g id="node18" class="node"><title>Node17</title>
<g id="a_node18"><a xlink:href="class_scene_changer.html" target="_top" xlink:title="SceneChanger">
<polygon fill="none" stroke="black" points="125,-76.5 125,-95.5 205,-95.5 205,-76.5 125,-76.5"/>
<text text-anchor="middle" x="165" y="-83.5" font-family="Helvetica,sans-Serif" font-size="10.00">SceneChanger</text>
</a>
</g>
</g>
<!-- Node0&#45;&gt;Node17 -->
<g id="edge17" class="edge"><title>Node0&#45;&gt;Node17</title>
<path fill="none" stroke="midnightblue" d="M43.1908,-331.937C45.8208,-285.973 58.4465,-171.877 119,-105 122.415,-101.228 126.701,-98.1807 131.263,-95.7252"/>
<polygon fill="midnightblue" stroke="midnightblue" points="39.6873,-331.931 42.7145,-342.084 46.6796,-332.259 39.6873,-331.931"/>
</g>
<!-- Node18 -->
<g id="node19" class="node"><title>Node18</title>
<g id="a_node19"><a xlink:href="class_sound_manager.html" target="_top" xlink:title="SoundManager">
<polygon fill="none" stroke="black" points="124,-38.5 124,-57.5 206,-57.5 206,-38.5 124,-38.5"/>
<text text-anchor="middle" x="165" y="-45.5" font-family="Helvetica,sans-Serif" font-size="10.00">SoundManager</text>
</a>
</g>
</g>
<!-- Node0&#45;&gt;Node18 -->
<g id="edge18" class="edge"><title>Node0&#45;&gt;Node18</title>
<path fill="none" stroke="midnightblue" d="M42.1838,-332.023C42.4523,-281.344 49.9959,-146.192 119,-67 122.343,-63.1638 126.59,-60.0821 131.135,-57.612"/>
<polygon fill="midnightblue" stroke="midnightblue" points="38.6848,-332.277 42.2279,-342.262 45.6847,-332.247 38.6848,-332.277"/>
</g>
<!-- Node19 -->
<g id="node20" class="node"><title>Node19</title>
<g id="a_node20"><a xlink:href="class_stats_script.html" target="_top" xlink:title="StatsScript">
<polygon fill="none" stroke="black" points="132.5,-0.5 132.5,-19.5 197.5,-19.5 197.5,-0.5 132.5,-0.5"/>
<text text-anchor="middle" x="165" y="-7.5" font-family="Helvetica,sans-Serif" font-size="10.00">StatsScript</text>
</a>
</g>
</g>
<!-- Node0&#45;&gt;Node19 -->
<g id="edge19" class="edge"><title>Node0&#45;&gt;Node19</title>
<path fill="none" stroke="midnightblue" d="M44.8193,-332.309C52.5536,-269.614 79.242,-76.0189 119,-29 122.614,-24.7261 127.355,-21.393 132.403,-18.7998"/>
<polygon fill="midnightblue" stroke="midnightblue" points="41.3216,-332.079 43.5968,-342.427 48.2711,-332.919 41.3216,-332.079"/>
</g>
</g>
</svg>
