<?xml version="1.0" encoding="UTF-8" standalone="no"?>
<!DOCTYPE svg PUBLIC "-//W3C//DTD SVG 1.1//EN"
 "http://www.w3.org/Graphics/SVG/1.1/DTD/svg11.dtd">
<!-- Generated by graphviz version 2.38.0 (20140413.2041)
 -->
<!-- Title: Graphical Class Hierarchy Pages: 1 -->
<svg width="219pt" height="940pt"
 viewBox="0.00 0.00 219.00 940.00" xmlns="http://www.w3.org/2000/svg" xmlns:xlink="http://www.w3.org/1999/xlink">
<g id="graph0" class="graph" transform="scale(1 1) rotate(0) translate(4 936)">
<title>Graphical Class Hierarchy</title>
<!-- Node0 -->
<g id="node1" class="node"><title>Node0</title>
<g id="a_node1"><a xlink:href="class_mono_behaviour.html" target="_top" xlink:title="MonoBehaviour">
<polygon fill="none" stroke="black" points="0,-456.5 0,-475.5 83,-475.5 83,-456.5 0,-456.5"/>
<text text-anchor="middle" x="41.5" y="-463.5" font-family="Helvetica,sans-Serif" font-size="10.00">MonoBehaviour</text>
</a>
</g>
</g>
<!-- Node1 -->
<g id="node2" class="node"><title>Node1</title>
<g id="a_node2"><a xlink:href="class_attack_button.html" target="_top" xlink:title="AttackButton">
<polygon fill="none" stroke="black" points="128,-912.5 128,-931.5 202,-931.5 202,-912.5 128,-912.5"/>
<text text-anchor="middle" x="165" y="-919.5" font-family="Helvetica,sans-Serif" font-size="10.00">AttackButton</text>
</a>
</g>
</g>
<!-- Node0&#45;&gt;Node1 -->
<g id="edge1" class="edge"><title>Node0&#45;&gt;Node1</title>
<path fill="none" stroke="midnightblue" d="M43.4987,-485.853C47.71,-562.319 66.3026,-836.796 119,-903 122.063,-906.848 126.048,-909.928 130.38,-912.39"/>
<polygon fill="midnightblue" stroke="midnightblue" points="46.9849,-485.498 42.9611,-475.697 39.9947,-485.868 46.9849,-485.498"/>
</g>
<!-- Node2 -->
<g id="node3" class="node"><title>Node2</title>
<g id="a_node3"><a xlink:href="class_battle_descriptor.html" target="_top" xlink:title="A component that be added to an object to describe the parameters of a battle from within the Unity E...">
<polygon fill="none" stroke="black" points="122,-874.5 122,-893.5 208,-893.5 208,-874.5 122,-874.5"/>
<text text-anchor="middle" x="165" y="-881.5" font-family="Helvetica,sans-Serif" font-size="10.00">BattleDescriptor</text>
</a>
</g>
</g>
<!-- Node0&#45;&gt;Node2 -->
<g id="edge2" class="edge"><title>Node0&#45;&gt;Node2</title>
<path fill="none" stroke="midnightblue" d="M43.8689,-485.942C49.1929,-558.212 70.6654,-805.272 119,-865 122.094,-868.823 126.096,-871.89 130.436,-874.346"/>
<polygon fill="midnightblue" stroke="midnightblue" points="47.331,-485.285 43.128,-475.56 40.3488,-485.784 47.331,-485.285"/>
</g>
<!-- Node3 -->
<g id="node4" class="node"><title>Node3</title>
<g id="a_node4"><a xlink:href="class_button_manager.html" target="_top" xlink:title="ButtonManager">
<polygon fill="none" stroke="black" points="123.5,-836.5 123.5,-855.5 206.5,-855.5 206.5,-836.5 123.5,-836.5"/>
<text text-anchor="middle" x="165" y="-843.5" font-family="Helvetica,sans-Serif" font-size="10.00">ButtonManager</text>
</a>
</g>
</g>
<!-- Node0&#45;&gt;Node3 -->
<g id="edge3" class="edge"><title>Node0&#45;&gt;Node3</title>
<path fill="none" stroke="midnightblue" d="M44.2931,-485.774C50.7736,-553.316 74.9541,-773.638 119,-827 122.131,-830.793 126.153,-833.843 130.502,-836.291"/>
<polygon fill="midnightblue" stroke="midnightblue" points="47.7621,-485.279 43.3456,-475.648 40.7925,-485.931 47.7621,-485.279"/>
</g>
<!-- Node4 -->
<g id="node5" class="node"><title>Node4</title>
<g id="a_node5"><a xlink:href="class_camera_controller.html" target="_top" xlink:title="Script to move the camera around so that it follows the player">
<polygon fill="none" stroke="black" points="119,-798.5 119,-817.5 211,-817.5 211,-798.5 119,-798.5"/>
<text text-anchor="middle" x="165" y="-805.5" font-family="Helvetica,sans-Serif" font-size="10.00">CameraController</text>
</a>
</g>
</g>
<!-- Node0&#45;&gt;Node4 -->
<g id="edge4" class="edge"><title>Node0&#45;&gt;Node4</title>
<path fill="none" stroke="midnightblue" d="M44.8193,-485.691C52.5536,-548.386 79.242,-741.981 119,-789 122.285,-792.885 126.503,-795.993 131.035,-798.474"/>
<polygon fill="midnightblue" stroke="midnightblue" points="48.2711,-485.081 43.5968,-475.573 41.3216,-485.921 48.2711,-485.081"/>
</g>
<!-- Node5 -->
<g id="node6" class="node"><title>Node5</title>
<g id="a_node6"><a xlink:href="class_canvas_script.html" target="_top" xlink:title="CanvasScript">
<polygon fill="none" stroke="black" points="128,-760.5 128,-779.5 202,-779.5 202,-760.5 128,-760.5"/>
<text text-anchor="middle" x="165" y="-767.5" font-family="Helvetica,sans-Serif" font-size="10.00">CanvasScript</text>
</a>
</g>
</g>
<!-- Node0&#45;&gt;Node5 -->
<g id="edge5" class="edge"><title>Node0&#45;&gt;Node5</title>
<path fill="none" stroke="midnightblue" d="M42.1838,-485.977C42.4523,-536.656 49.9959,-671.808 119,-751 122.343,-754.836 126.59,-757.918 131.135,-760.388"/>
<polygon fill="midnightblue" stroke="midnightblue" points="45.6847,-485.753 42.2279,-475.738 38.6848,-485.723 45.6847,-485.753"/>
</g>
<!-- Node6 -->
<g id="node7" class="node"><title>Node6</title>
<g id="a_node7"><a xlink:href="class_container_data.html" target="_top" xlink:title="ContainerData">
<polygon fill="none" stroke="black" points="126,-722.5 126,-741.5 204,-741.5 204,-722.5 126,-722.5"/>
<text text-anchor="middle" x="165" y="-729.5" font-family="Helvetica,sans-Serif" font-size="10.00">ContainerData</text>
</a>
</g>
</g>
<!-- Node0&#45;&gt;Node6 -->
<g id="edge6" class="edge"><title>Node0&#45;&gt;Node6</title>
<path fill="none" stroke="midnightblue" d="M43.1908,-486.063C45.8208,-532.027 58.4465,-646.123 119,-713 122.415,-716.772 126.701,-719.819 131.263,-722.275"/>
<polygon fill="midnightblue" stroke="midnightblue" points="46.6796,-485.741 42.7145,-475.916 39.6873,-486.069 46.6796,-485.741"/>
</g>
<!-- Node7 -->
<g id="node8" class="node"><title>Node7</title>
<g id="a_node8"><a xlink:href="class_dialogue_script.html" target="_top" xlink:title="Script to show dialogue, as well as step through multiple lines and close afterwards ...">
<polygon fill="none" stroke="black" points="125,-684.5 125,-703.5 205,-703.5 205,-684.5 125,-684.5"/>
<text text-anchor="middle" x="165" y="-691.5" font-family="Helvetica,sans-Serif" font-size="10.00">DialogueScript</text>
</a>
</g>
</g>
<!-- Node0&#45;&gt;Node7 -->
<g id="edge7" class="edge"><title>Node0&#45;&gt;Node7</title>
<path fill="none" stroke="midnightblue" d="M44.4883,-485.698C49.5818,-526.284 66.6275,-620.016 119,-675 122.626,-678.807 127.136,-681.885 131.887,-684.363"/>
<polygon fill="midnightblue" stroke="midnightblue" points="47.9627,-485.274 43.3492,-475.737 41.008,-486.07 47.9627,-485.274"/>
</g>
<!-- Node8 -->
<g id="node9" class="node"><title>Node8</title>
<g id="a_node9"><a xlink:href="class_global_functions.html" target="_top" xlink:title="Provides functions and variables to be accessed by any game object to allow data to be passed between...">
<polygon fill="none" stroke="black" points="121.5,-646.5 121.5,-665.5 208.5,-665.5 208.5,-646.5 121.5,-646.5"/>
<text text-anchor="middle" x="165" y="-653.5" font-family="Helvetica,sans-Serif" font-size="10.00">GlobalFunctions</text>
</a>
</g>
</g>
<!-- Node0&#45;&gt;Node8 -->
<g id="edge8" class="edge"><title>Node0&#45;&gt;Node8</title>
<path fill="none" stroke="midnightblue" d="M46.2798,-485.4C54.0075,-520.211 74.7541,-593.68 119,-637 122.878,-640.797 127.63,-643.883 132.576,-646.376"/>
<polygon fill="midnightblue" stroke="midnightblue" points="49.691,-484.613 44.215,-475.543 42.8397,-486.049 49.691,-484.613"/>
</g>
<!-- Node9 -->
<g id="node10" class="node"><title>Node9</title>
<g id="a_node10"><a xlink:href="class_healing_station.html" target="_top" xlink:title="HealingStation">
<polygon fill="none" stroke="black" points="125,-608.5 125,-627.5 205,-627.5 205,-608.5 125,-608.5"/>
<text text-anchor="middle" x="165" y="-615.5" font-family="Helvetica,sans-Serif" font-size="10.00">HealingStation</text>
</a>
</g>
</g>
<!-- Node0&#45;&gt;Node9 -->
<g id="edge9" class="edge"><title>Node0&#45;&gt;Node9</title>
<path fill="none" stroke="midnightblue" d="M49.0708,-485.384C59.6255,-513.862 82.9073,-567.077 119,-599 123.319,-602.82 128.519,-605.952 133.827,-608.491"/>
<polygon fill="midnightblue" stroke="midnightblue" points="52.3013,-484.023 45.6486,-475.777 45.7071,-486.372 52.3013,-484.023"/>
</g>
<!-- Node10 -->
<g id="node11" class="node"><title>Node10</title>
<g id="a_node11"><a xlink:href="class_item_button.html" target="_top" xlink:title="ItemButton">
<polygon fill="none" stroke="black" points="133,-570.5 133,-589.5 197,-589.5 197,-570.5 133,-570.5"/>
<text text-anchor="middle" x="165" y="-577.5" font-family="Helvetica,sans-Serif" font-size="10.00">ItemButton</text>
</a>
</g>
</g>
<!-- Node0&#45;&gt;Node10 -->
<g id="edge10" class="edge"><title>Node0&#45;&gt;Node10</title>
<path fill="none" stroke="midnightblue" d="M53.2802,-484.278C66.4601,-505.264 90.5576,-539.549 119,-561 123.875,-564.677 129.567,-567.788 135.231,-570.361"/>
<polygon fill="midnightblue" stroke="midnightblue" points="56.2177,-482.372 48.0165,-475.665 50.2448,-486.023 56.2177,-482.372"/>
</g>
<!-- Node11 -->
<g id="node12" class="node"><title>Node11</title>
<g id="a_node12"><a xlink:href="class_item_data.html" target="_top" xlink:title="ItemData">
<polygon fill="none" stroke="black" points="137,-532.5 137,-551.5 193,-551.5 193,-532.5 137,-532.5"/>
<text text-anchor="middle" x="165" y="-539.5" font-family="Helvetica,sans-Serif" font-size="10.00">ItemData</text>
</a>
</g>
</g>
<!-- Node0&#45;&gt;Node11 -->
<g id="edge11" class="edge"><title>Node0&#45;&gt;Node11</title>
<path fill="none" stroke="midnightblue" d="M61.7983,-482.436C76.7495,-494.647 98.3331,-511.169 119,-523 125.035,-526.455 131.821,-529.646 138.257,-532.388"/>
<polygon fill="midnightblue" stroke="midnightblue" points="63.7487,-479.506 53.8187,-475.812 59.2778,-484.892 63.7487,-479.506"/>
</g>
<!-- Node12 -->
<g id="node13" class="node"><title>Node12</title>
<g id="a_node13"><a xlink:href="class_item_objects.html" target="_top" xlink:title="ItemObjects">
<polygon fill="none" stroke="black" points="130.5,-494.5 130.5,-513.5 199.5,-513.5 199.5,-494.5 130.5,-494.5"/>
<text text-anchor="middle" x="165" y="-501.5" font-family="Helvetica,sans-Serif" font-size="10.00">ItemObjects</text>
</a>
</g>
</g>
<!-- Node0&#45;&gt;Node12 -->
<g id="edge12" class="edge"><title>Node0&#45;&gt;Node12</title>
<path fill="none" stroke="midnightblue" d="M83.044,-478.68C99.4606,-483.815 118.099,-489.644 133.35,-494.414"/>
<polygon fill="midnightblue" stroke="midnightblue" points="83.7485,-475.234 73.1596,-475.589 81.6589,-481.914 83.7485,-475.234"/>
</g>
<!-- Node13 -->
<g id="node14" class="node"><title>Node13</title>
<g id="a_node14"><a xlink:href="class_items_menu_script.html" target="_top" xlink:title="Controls all initialisation of menu and updates arrays when an item is moved ">
<polygon fill="none" stroke="black" points="120,-456.5 120,-475.5 210,-475.5 210,-456.5 120,-456.5"/>
<text text-anchor="middle" x="165" y="-463.5" font-family="Helvetica,sans-Serif" font-size="10.00">ItemsMenuScript</text>
</a>
</g>
</g>
<!-- Node0&#45;&gt;Node13 -->
<g id="edge13" class="edge"><title>Node0&#45;&gt;Node13</title>
<path fill="none" stroke="midnightblue" d="M93.4035,-466C102.162,-466 111.201,-466 119.766,-466"/>
<polygon fill="midnightblue" stroke="midnightblue" points="93.2958,-462.5 83.2957,-466 93.2957,-469.5 93.2958,-462.5"/>
</g>
<!-- Node14 -->
<g id="node15" class="node"><title>Node14</title>
<g id="a_node15"><a xlink:href="class_level_manager.html" target="_top" xlink:title="LevelManager">
<polygon fill="none" stroke="black" points="127,-418.5 127,-437.5 203,-437.5 203,-418.5 127,-418.5"/>
<text text-anchor="middle" x="165" y="-425.5" font-family="Helvetica,sans-Serif" font-size="10.00">LevelManager</text>
</a>
</g>
</g>
<!-- Node0&#45;&gt;Node14 -->
<g id="edge14" class="edge"><title>Node0&#45;&gt;Node14</title>
<path fill="none" stroke="midnightblue" d="M83.044,-453.32C99.4606,-448.185 118.099,-442.356 133.35,-437.586"/>
<polygon fill="midnightblue" stroke="midnightblue" points="81.6589,-450.086 73.1596,-456.411 83.7485,-456.766 81.6589,-450.086"/>
</g>
<!-- Node15 -->
<g id="node16" class="node"><title>Node15</title>
<g id="a_node16"><a xlink:href="class_main_battle.html" target="_top" xlink:title="Script for handing a battle scene. Uses BattleManager, but handles turn order and execution as well a...">
<polygon fill="none" stroke="black" points="133.5,-380.5 133.5,-399.5 196.5,-399.5 196.5,-380.5 133.5,-380.5"/>
<text text-anchor="middle" x="165" y="-387.5" font-family="Helvetica,sans-Serif" font-size="10.00">MainBattle</text>
</a>
</g>
</g>
<!-- Node0&#45;&gt;Node15 -->
<g id="edge15" class="edge"><title>Node0&#45;&gt;Node15</title>
<path fill="none" stroke="midnightblue" d="M61.7983,-449.564C76.7495,-437.353 98.3331,-420.831 119,-409 125.035,-405.545 131.821,-402.354 138.257,-399.612"/>
<polygon fill="midnightblue" stroke="midnightblue" points="59.2778,-447.108 53.8187,-456.188 63.7487,-452.494 59.2778,-447.108"/>
</g>
<!-- Node16 -->
<g id="node17" class="node"><title>Node16</title>
<g id="a_node17"><a xlink:href="class_menu_script.html" target="_top" xlink:title="MenuScript">
<polygon fill="none" stroke="black" points="132,-342.5 132,-361.5 198,-361.5 198,-342.5 132,-342.5"/>
<text text-anchor="middle" x="165" y="-349.5" font-family="Helvetica,sans-Serif" font-size="10.00">MenuScript</text>
</a>
</g>
</g>
<!-- Node0&#45;&gt;Node16 -->
<g id="edge16" class="edge"><title>Node0&#45;&gt;Node16</title>
<path fill="none" stroke="midnightblue" d="M53.2802,-447.722C66.4601,-426.736 90.5576,-392.451 119,-371 123.875,-367.323 129.567,-364.212 135.231,-361.639"/>
<polygon fill="midnightblue" stroke="midnightblue" points="50.2448,-445.977 48.0165,-456.335 56.2177,-449.628 50.2448,-445.977"/>
</g>
<!-- Node17 -->
<g id="node18" class="node"><title>Node17</title>
<g id="a_node18"><a xlink:href="class_object_interaction.html" target="_top" xlink:title="A component to add to collider relating to an object that can interact with the player by pressing th...">
<polygon fill="none" stroke="black" points="120,-304.5 120,-323.5 210,-323.5 210,-304.5 120,-304.5"/>
<text text-anchor="middle" x="165" y="-311.5" font-family="Helvetica,sans-Serif" font-size="10.00">ObjectInteraction</text>
</a>
</g>
</g>
<!-- Node0&#45;&gt;Node17 -->
<g id="edge17" class="edge"><title>Node0&#45;&gt;Node17</title>
<path fill="none" stroke="midnightblue" d="M49.0708,-446.616C59.6255,-418.138 82.9073,-364.923 119,-333 123.319,-329.18 128.519,-326.048 133.827,-323.509"/>
<polygon fill="midnightblue" stroke="midnightblue" points="45.7071,-445.628 45.6486,-456.223 52.3013,-447.977 45.7071,-445.628"/>
</g>
<!-- Node18 -->
<g id="node19" class="node"><title>Node18</title>
<g id="a_node19"><a xlink:href="class_player_data.html" target="_top" xlink:title="A monobehaviour object to house an instance of DataManager so it can be called by other objects ...">
<polygon fill="none" stroke="black" points="132.5,-266.5 132.5,-285.5 197.5,-285.5 197.5,-266.5 132.5,-266.5"/>
<text text-anchor="middle" x="165" y="-273.5" font-family="Helvetica,sans-Serif" font-size="10.00">PlayerData</text>
</a>
</g>
</g>
<!-- Node0&#45;&gt;Node18 -->
<g id="edge18" class="edge"><title>Node0&#45;&gt;Node18</title>
<path fill="none" stroke="midnightblue" d="M46.2798,-446.6C54.0075,-411.789 74.7541,-338.32 119,-295 122.878,-291.203 127.63,-288.117 132.576,-285.624"/>
<polygon fill="midnightblue" stroke="midnightblue" points="42.8397,-445.951 44.215,-456.457 49.691,-447.387 42.8397,-445.951"/>
</g>
<!-- Node19 -->
<g id="node20" class="node"><title>Node19</title>
<g id="a_node20"><a xlink:href="class_player_movement.html" target="_top" xlink:title="PlayerMovement">
<polygon fill="none" stroke="black" points="120.5,-228.5 120.5,-247.5 209.5,-247.5 209.5,-228.5 120.5,-228.5"/>
<text text-anchor="middle" x="165" y="-235.5" font-family="Helvetica,sans-Serif" font-size="10.00">PlayerMovement</text>
</a>
</g>
</g>
<!-- Node0&#45;&gt;Node19 -->
<g id="edge19" class="edge"><title>Node0&#45;&gt;Node19</title>
<path fill="none" stroke="midnightblue" d="M44.4883,-446.302C49.5818,-405.716 66.6275,-311.984 119,-257 122.626,-253.193 127.136,-250.115 131.887,-247.637"/>
<polygon fill="midnightblue" stroke="midnightblue" points="41.008,-445.93 43.3492,-456.263 47.9627,-446.726 41.008,-445.93"/>
</g>
<!-- Node20 -->
<g id="node21" class="node"><title>Node20</title>
<g id="a_node21"><a xlink:href="class_portal.html" target="_top" xlink:title="Portal">
<polygon fill="none" stroke="black" points="144,-190.5 144,-209.5 186,-209.5 186,-190.5 144,-190.5"/>
<text text-anchor="middle" x="165" y="-197.5" font-family="Helvetica,sans-Serif" font-size="10.00">Portal</text>
</a>
</g>
</g>
<!-- Node0&#45;&gt;Node20 -->
<g id="edge20" class="edge"><title>Node0&#45;&gt;Node20</title>
<path fill="none" stroke="midnightblue" d="M43.1908,-445.937C45.8208,-399.973 58.4465,-285.877 119,-219 125.489,-211.834 135.122,-207.282 143.813,-204.438"/>
<polygon fill="midnightblue" stroke="midnightblue" points="39.6873,-445.931 42.7145,-456.084 46.6796,-446.259 39.6873,-445.931"/>
</g>
<!-- Node21 -->
<g id="node22" class="node"><title>Node21</title>
<g id="a_node22"><a xlink:href="class_quit.html" target="_top" xlink:title="Quit">
<polygon fill="none" stroke="black" points="147.5,-152.5 147.5,-171.5 182.5,-171.5 182.5,-152.5 147.5,-152.5"/>
<text text-anchor="middle" x="165" y="-159.5" font-family="Helvetica,sans-Serif" font-size="10.00">Quit</text>
</a>
</g>
</g>
<!-- Node0&#45;&gt;Node21 -->
<g id="edge21" class="edge"><title>Node0&#45;&gt;Node21</title>
<path fill="none" stroke="midnightblue" d="M42.1838,-446.023C42.4523,-395.344 49.9959,-260.192 119,-181 126.242,-172.688 137.734,-167.919 147.291,-165.237"/>
<polygon fill="midnightblue" stroke="midnightblue" points="38.6848,-446.277 42.2279,-456.262 45.6847,-446.247 38.6848,-446.277"/>
</g>
<!-- Node22 -->
<g id="node23" class="node"><title>Node22</title>
<g id="a_node23"><a xlink:href="class_scene_changer.html" target="_top" xlink:title="A set of functions to be called to change scenes smoothly whilst handling the player&#39;s location and a...">
<polygon fill="none" stroke="black" points="125,-114.5 125,-133.5 205,-133.5 205,-114.5 125,-114.5"/>
<text text-anchor="middle" x="165" y="-121.5" font-family="Helvetica,sans-Serif" font-size="10.00">SceneChanger</text>
</a>
</g>
</g>
<!-- Node0&#45;&gt;Node22 -->
<g id="edge22" class="edge"><title>Node0&#45;&gt;Node22</title>
<path fill="none" stroke="midnightblue" d="M44.8193,-446.309C52.5536,-383.614 79.242,-190.019 119,-143 122.285,-139.115 126.503,-136.007 131.035,-133.526"/>
<polygon fill="midnightblue" stroke="midnightblue" points="41.3216,-446.079 43.5968,-456.427 48.2711,-446.919 41.3216,-446.079"/>
</g>
<!-- Node23 -->
<g id="node24" class="node"><title>Node23</title>
<g id="a_node24"><a xlink:href="class_sound_manager.html" target="_top" xlink:title="SoundManager">
<polygon fill="none" stroke="black" points="124,-76.5 124,-95.5 206,-95.5 206,-76.5 124,-76.5"/>
<text text-anchor="middle" x="165" y="-83.5" font-family="Helvetica,sans-Serif" font-size="10.00">SoundManager</text>
</a>
</g>
</g>
<!-- Node0&#45;&gt;Node23 -->
<g id="edge23" class="edge"><title>Node0&#45;&gt;Node23</title>
<path fill="none" stroke="midnightblue" d="M44.2931,-446.226C50.7736,-378.684 74.9541,-158.362 119,-105 122.131,-101.207 126.153,-98.157 130.502,-95.7086"/>
<polygon fill="midnightblue" stroke="midnightblue" points="40.7925,-446.069 43.3456,-456.352 47.7621,-446.721 40.7925,-446.069"/>
</g>
<!-- Node24 -->
<g id="node25" class="node"><title>Node24</title>
<g id="a_node25"><a xlink:href="class_stats_script.html" target="_top" xlink:title="StatsScript">
<polygon fill="none" stroke="black" points="132.5,-38.5 132.5,-57.5 197.5,-57.5 197.5,-38.5 132.5,-38.5"/>
<text text-anchor="middle" x="165" y="-45.5" font-family="Helvetica,sans-Serif" font-size="10.00">StatsScript</text>
</a>
</g>
</g>
<!-- Node0&#45;&gt;Node24 -->
<g id="edge24" class="edge"><title>Node0&#45;&gt;Node24</title>
<path fill="none" stroke="midnightblue" d="M43.8689,-446.058C49.1929,-373.788 70.6654,-126.728 119,-67 122.521,-62.6492 127.217,-59.2788 132.249,-56.6727"/>
<polygon fill="midnightblue" stroke="midnightblue" points="40.3488,-446.216 43.128,-456.44 47.331,-446.715 40.3488,-446.216"/>
</g>
<!-- Node25 -->
<g id="node26" class="node"><title>Node25</title>
<g id="a_node26"><a xlink:href="class_world_map_script.html" target="_top" xlink:title="WorldMapScript">
<polygon fill="none" stroke="black" points="122,-0.5 122,-19.5 208,-19.5 208,-0.5 122,-0.5"/>
<text text-anchor="middle" x="165" y="-7.5" font-family="Helvetica,sans-Serif" font-size="10.00">WorldMapScript</text>
</a>
</g>
</g>
<!-- Node0&#45;&gt;Node25 -->
<g id="edge25" class="edge"><title>Node0&#45;&gt;Node25</title>
<path fill="none" stroke="midnightblue" d="M43.4987,-446.147C47.71,-369.681 66.3026,-95.2036 119,-29 122.063,-25.1517 126.048,-22.0719 130.38,-19.6099"/>
<polygon fill="midnightblue" stroke="midnightblue" points="39.9947,-446.132 42.9611,-456.303 46.9849,-446.502 39.9947,-446.132"/>
</g>
</g>
</svg>
