# Tiled2Unity generated file. Do not modify by hand.
# Wavefront file for 'TFTV_mesh_0010.obj'

# Vertices (Count = 104)
v -115.2 -90.66667 0
v -116.2667 -90.66667 0
v -116.2667 -89.60001 0
v -115.2 -89.60001 0
v -109.8667 -90.66667 0
v -110.9333 -90.66667 0
v -110.9333 -89.60001 0
v -109.8667 -89.60001 0
v -115.2 -91.73334 0
v -116.2667 -91.73334 0
v -116.2667 -90.66667 0
v -115.2 -90.66667 0
v -109.8667 -91.73334 0
v -110.9333 -91.73334 0
v -110.9333 -90.66667 0
v -109.8667 -90.66667 0
v -115.2 -94.93334 0
v -116.2667 -94.93334 0
v -116.2667 -93.86667 0
v -115.2 -93.86667 0
v -109.8667 -94.93334 0
v -110.9333 -94.93334 0
v -110.9333 -93.86667 0
v -109.8667 -93.86667 0
v -115.2 -96.00001 0
v -116.2667 -96.00001 0
v -116.2667 -94.93334 0
v -115.2 -94.93334 0
v -109.8667 -96.00001 0
v -110.9333 -96.00001 0
v -110.9333 -94.93334 0
v -109.8667 -94.93334 0
v -115.2 -100.2667 0
v -116.2667 -100.2667 0
v -116.2667 -99.2 0
v -115.2 -99.2 0
v -109.8667 -100.2667 0
v -110.9333 -100.2667 0
v -110.9333 -99.2 0
v -109.8667 -99.2 0
v -115.2 -101.3333 0
v -116.2667 -101.3333 0
v -116.2667 -100.2667 0
v -115.2 -100.2667 0
v -109.8667 -101.3333 0
v -110.9333 -101.3333 0
v -110.9333 -100.2667 0
v -109.8667 -100.2667 0
v -115.2 -104.5333 0
v -116.2667 -104.5333 0
v -116.2667 -103.4667 0
v -115.2 -103.4667 0
v -109.8667 -104.5333 0
v -110.9333 -104.5333 0
v -110.9333 -103.4667 0
v -109.8667 -103.4667 0
v -115.2 -105.6 0
v -116.2667 -105.6 0
v -116.2667 -104.5333 0
v -115.2 -104.5333 0
v -109.8667 -105.6 0
v -110.9333 -105.6 0
v -110.9333 -104.5333 0
v -109.8667 -104.5333 0
v -115.2 -108.8 0
v -116.2667 -108.8 0
v -116.2667 -107.7333 0
v -115.2 -107.7333 0
v -109.8667 -108.8 0
v -110.9333 -108.8 0
v -110.9333 -107.7333 0
v -109.8667 -107.7333 0
v -115.2 -109.8667 0
v -116.2667 -109.8667 0
v -116.2667 -108.8 0
v -115.2 -108.8 0
v -109.8667 -109.8667 0
v -110.9333 -109.8667 0
v -110.9333 -108.8 0
v -109.8667 -108.8 0
v -115.2 -113.0667 0
v -116.2667 -113.0667 0
v -116.2667 -112 0
v -115.2 -112 0
v -109.8667 -113.0667 0
v -110.9333 -113.0667 0
v -110.9333 -112 0
v -109.8667 -112 0
v -115.2 -114.1333 0
v -116.2667 -114.1333 0
v -116.2667 -113.0667 0
v -115.2 -113.0667 0
v -109.8667 -114.1333 0
v -110.9333 -114.1333 0
v -110.9333 -113.0667 0
v -109.8667 -113.0667 0
v -113.0667 -119.4667 0
v -114.1333 -119.4667 0
v -114.1333 -118.4 0
v -113.0667 -118.4 0
v -112 -119.4667 0
v -113.0667 -119.4667 0
v -113.0667 -118.4 0
v -112 -118.4 0

# Texture cooridinates (Count = 20)
vt 0.5971074 0.3231939
vt 0.6136364 0.3231939
vt 0.6136364 0.3536122
vt 0.5971074 0.3536122
vt 0.5971074 0.3555133
vt 0.6136364 0.3555133
vt 0.6136364 0.3859316
vt 0.5971074 0.3859316
vt 0.6146694 0.3555133
vt 0.6311983 0.3555133
vt 0.6311983 0.3859316
vt 0.6146694 0.3859316
vt 0.5795454 0.7756654
vt 0.5960744 0.7756654
vt 0.5960744 0.8060837
vt 0.5795454 0.8060837
vt 0.5619835 0.7756654
vt 0.5785124 0.7756654
vt 0.5785124 0.8060837
vt 0.5619835 0.8060837

# Normal
vn 0 0 -1

# Mesh description
g TFTV_mesh_0010

# Faces
f 1/1/1 2/2/1 3/3/1 4/4/1
f 5/1/1 6/2/1 7/3/1 8/4/1
f 9/5/1 10/6/1 11/7/1 12/8/1
f 13/5/1 14/6/1 15/7/1 16/8/1
f 17/1/1 18/2/1 19/3/1 20/4/1
f 21/1/1 22/2/1 23/3/1 24/4/1
f 25/9/1 26/10/1 27/11/1 28/12/1
f 29/5/1 30/6/1 31/7/1 32/8/1
f 33/1/1 34/2/1 35/3/1 36/4/1
f 37/1/1 38/2/1 39/3/1 40/4/1
f 41/5/1 42/6/1 43/7/1 44/8/1
f 45/5/1 46/6/1 47/7/1 48/8/1
f 49/1/1 50/2/1 51/3/1 52/4/1
f 53/1/1 54/2/1 55/3/1 56/4/1
f 57/5/1 58/6/1 59/7/1 60/8/1
f 61/9/1 62/10/1 63/11/1 64/12/1
f 65/1/1 66/2/1 67/3/1 68/4/1
f 69/1/1 70/2/1 71/3/1 72/4/1
f 73/5/1 74/6/1 75/7/1 76/8/1
f 77/5/1 78/6/1 79/7/1 80/8/1
f 81/1/1 82/2/1 83/3/1 84/4/1
f 85/1/1 86/2/1 87/3/1 88/4/1
f 89/5/1 90/6/1 91/7/1 92/8/1
f 93/5/1 94/6/1 95/7/1 96/8/1
f 97/13/1 98/14/1 99/15/1 100/16/1
f 101/17/1 102/18/1 103/19/1 104/20/1

