# Tiled2Unity generated file. Do not modify by hand.
# Wavefront file for 'TFTV_mesh_0013.obj'

# Vertices (Count = 32)
v -115.2 -101.3333 0
v -116.2667 -101.3333 0
v -116.2667 -100.2667 0
v -115.2 -100.2667 0
v -109.8667 -101.3333 0
v -110.9333 -101.3333 0
v -110.9333 -100.2667 0
v -109.8667 -100.2667 0
v -115.2 -105.6 0
v -116.2667 -105.6 0
v -116.2667 -104.5333 0
v -115.2 -104.5333 0
v -109.8667 -105.6 0
v -110.9333 -105.6 0
v -110.9333 -104.5333 0
v -109.8667 -104.5333 0
v -115.2 -109.8667 0
v -116.2667 -109.8667 0
v -116.2667 -108.8 0
v -115.2 -108.8 0
v -109.8667 -109.8667 0
v -110.9333 -109.8667 0
v -110.9333 -108.8 0
v -109.8667 -108.8 0
v -115.2 -114.1333 0
v -116.2667 -114.1333 0
v -116.2667 -113.0667 0
v -115.2 -113.0667 0
v -109.8667 -114.1333 0
v -110.9333 -114.1333 0
v -110.9333 -113.0667 0
v -109.8667 -113.0667 0

# Texture cooridinates (Count = 4)
vt 0.2985537 0.7110266
vt 0.3150826 0.7110266
vt 0.3150826 0.7414448
vt 0.2985537 0.7414448

# Normal
vn 0 0 -1

# Mesh description
g TFTV_mesh_0013

# Faces
f 1/1/1 2/2/1 3/3/1 4/4/1
f 5/1/1 6/2/1 7/3/1 8/4/1
f 9/1/1 10/2/1 11/3/1 12/4/1
f 13/1/1 14/2/1 15/3/1 16/4/1
f 17/1/1 18/2/1 19/3/1 20/4/1
f 21/1/1 22/2/1 23/3/1 24/4/1
f 25/1/1 26/2/1 27/3/1 28/4/1
f 29/1/1 30/2/1 31/3/1 32/4/1

