# Tiled2Unity generated file. Do not modify by hand.
# Wavefront file for 'CS-Jail_mesh_0003.obj'

# Vertices (Count = 512)
v -121.6 -105.6 0
v -122.6667 -105.6 0
v -122.6667 -104.5333 0
v -121.6 -104.5333 0
v -115.2 -105.6 0
v -116.2667 -105.6 0
v -116.2667 -104.5333 0
v -115.2 -104.5333 0
v -108.8 -105.6 0
v -109.8667 -105.6 0
v -109.8667 -104.5333 0
v -108.8 -104.5333 0
v -102.4 -105.6 0
v -103.4667 -105.6 0
v -103.4667 -104.5333 0
v -102.4 -104.5333 0
v -96.00001 -105.6 0
v -97.06667 -105.6 0
v -97.06667 -104.5333 0
v -96.00001 -104.5333 0
v -121.6 -106.6667 0
v -122.6667 -106.6667 0
v -122.6667 -105.6 0
v -121.6 -105.6 0
v -115.2 -106.6667 0
v -116.2667 -106.6667 0
v -116.2667 -105.6 0
v -115.2 -105.6 0
v -108.8 -106.6667 0
v -109.8667 -106.6667 0
v -109.8667 -105.6 0
v -108.8 -105.6 0
v -102.4 -106.6667 0
v -103.4667 -106.6667 0
v -103.4667 -105.6 0
v -102.4 -105.6 0
v -96.00001 -106.6667 0
v -97.06667 -106.6667 0
v -97.06667 -105.6 0
v -96.00001 -105.6 0
v -129.0667 -107.7333 0
v -130.1333 -107.7333 0
v -130.1333 -106.6667 0
v -129.0667 -106.6667 0
v -124.8 -107.7333 0
v -125.8667 -107.7333 0
v -125.8667 -106.6667 0
v -124.8 -106.6667 0
v -121.6 -107.7333 0
v -122.6667 -107.7333 0
v -122.6667 -106.6667 0
v -121.6 -106.6667 0
v -115.2 -107.7333 0
v -116.2667 -107.7333 0
v -116.2667 -106.6667 0
v -115.2 -106.6667 0
v -108.8 -107.7333 0
v -109.8667 -107.7333 0
v -109.8667 -106.6667 0
v -108.8 -106.6667 0
v -102.4 -107.7333 0
v -103.4667 -107.7333 0
v -103.4667 -106.6667 0
v -102.4 -106.6667 0
v -96.00001 -107.7333 0
v -97.06667 -107.7333 0
v -97.06667 -106.6667 0
v -96.00001 -106.6667 0
v -129.0667 -108.8 0
v -130.1333 -108.8 0
v -130.1333 -107.7333 0
v -129.0667 -107.7333 0
v -124.8 -108.8 0
v -125.8667 -108.8 0
v -125.8667 -107.7333 0
v -124.8 -107.7333 0
v -121.6 -108.8 0
v -122.6667 -108.8 0
v -122.6667 -107.7333 0
v -121.6 -107.7333 0
v -115.2 -108.8 0
v -116.2667 -108.8 0
v -116.2667 -107.7333 0
v -115.2 -107.7333 0
v -108.8 -108.8 0
v -109.8667 -108.8 0
v -109.8667 -107.7333 0
v -108.8 -107.7333 0
v -102.4 -108.8 0
v -103.4667 -108.8 0
v -103.4667 -107.7333 0
v -102.4 -107.7333 0
v -96.00001 -108.8 0
v -97.06667 -108.8 0
v -97.06667 -107.7333 0
v -96.00001 -107.7333 0
v -121.6 -109.8667 0
v -122.6667 -109.8667 0
v -122.6667 -108.8 0
v -121.6 -108.8 0
v -115.2 -109.8667 0
v -116.2667 -109.8667 0
v -116.2667 -108.8 0
v -115.2 -108.8 0
v -108.8 -109.8667 0
v -109.8667 -109.8667 0
v -109.8667 -108.8 0
v -108.8 -108.8 0
v -102.4 -109.8667 0
v -103.4667 -109.8667 0
v -103.4667 -108.8 0
v -102.4 -108.8 0
v -96.00001 -109.8667 0
v -97.06667 -109.8667 0
v -97.06667 -108.8 0
v -96.00001 -108.8 0
v -121.6 -110.9333 0
v -122.6667 -110.9333 0
v -122.6667 -109.8667 0
v -121.6 -109.8667 0
v -115.2 -110.9333 0
v -116.2667 -110.9333 0
v -116.2667 -109.8667 0
v -115.2 -109.8667 0
v -108.8 -110.9333 0
v -109.8667 -110.9333 0
v -109.8667 -109.8667 0
v -108.8 -109.8667 0
v -102.4 -110.9333 0
v -103.4667 -110.9333 0
v -103.4667 -109.8667 0
v -102.4 -109.8667 0
v -96.00001 -110.9333 0
v -97.06667 -110.9333 0
v -97.06667 -109.8667 0
v -96.00001 -109.8667 0
v -129.0667 -112 0
v -130.1333 -112 0
v -130.1333 -110.9333 0
v -129.0667 -110.9333 0
v -124.8 -112 0
v -125.8667 -112 0
v -125.8667 -110.9333 0
v -124.8 -110.9333 0
v -121.6 -112 0
v -122.6667 -112 0
v -122.6667 -110.9333 0
v -121.6 -110.9333 0
v -115.2 -112 0
v -116.2667 -112 0
v -116.2667 -110.9333 0
v -115.2 -110.9333 0
v -108.8 -112 0
v -109.8667 -112 0
v -109.8667 -110.9333 0
v -108.8 -110.9333 0
v -102.4 -112 0
v -103.4667 -112 0
v -103.4667 -110.9333 0
v -102.4 -110.9333 0
v -96.00001 -112 0
v -97.06667 -112 0
v -97.06667 -110.9333 0
v -96.00001 -110.9333 0
v -129.0667 -113.0667 0
v -130.1333 -113.0667 0
v -130.1333 -112 0
v -129.0667 -112 0
v -124.8 -113.0667 0
v -125.8667 -113.0667 0
v -125.8667 -112 0
v -124.8 -112 0
v -121.6 -113.0667 0
v -122.6667 -113.0667 0
v -122.6667 -112 0
v -121.6 -112 0
v -115.2 -113.0667 0
v -116.2667 -113.0667 0
v -116.2667 -112 0
v -115.2 -112 0
v -108.8 -113.0667 0
v -109.8667 -113.0667 0
v -109.8667 -112 0
v -108.8 -112 0
v -102.4 -113.0667 0
v -103.4667 -113.0667 0
v -103.4667 -112 0
v -102.4 -112 0
v -96.00001 -113.0667 0
v -97.06667 -113.0667 0
v -97.06667 -112 0
v -96.00001 -112 0
v -131.2 -117.3333 0
v -132.2667 -117.3333 0
v -132.2667 -116.2667 0
v -131.2 -116.2667 0
v -130.1333 -117.3333 0
v -131.2 -117.3333 0
v -131.2 -116.2667 0
v -130.1333 -116.2667 0
v -129.0667 -117.3333 0
v -130.1333 -117.3333 0
v -130.1333 -116.2667 0
v -129.0667 -116.2667 0
v -128 -117.3333 0
v -129.0667 -117.3333 0
v -129.0667 -116.2667 0
v -128 -116.2667 0
v -126.9333 -117.3333 0
v -128 -117.3333 0
v -128 -116.2667 0
v -126.9333 -116.2667 0
v -125.8667 -117.3333 0
v -126.9333 -117.3333 0
v -126.9333 -116.2667 0
v -125.8667 -116.2667 0
v -124.8 -117.3333 0
v -125.8667 -117.3333 0
v -125.8667 -116.2667 0
v -124.8 -116.2667 0
v -123.7333 -117.3333 0
v -124.8 -117.3333 0
v -124.8 -116.2667 0
v -123.7333 -116.2667 0
v -122.6667 -117.3333 0
v -123.7333 -117.3333 0
v -123.7333 -116.2667 0
v -122.6667 -116.2667 0
v -121.6 -117.3333 0
v -122.6667 -117.3333 0
v -122.6667 -116.2667 0
v -121.6 -116.2667 0
v -120.5333 -117.3333 0
v -121.6 -117.3333 0
v -121.6 -116.2667 0
v -120.5333 -116.2667 0
v -119.4667 -117.3333 0
v -120.5333 -117.3333 0
v -120.5333 -116.2667 0
v -119.4667 -116.2667 0
v -118.4 -117.3333 0
v -119.4667 -117.3333 0
v -119.4667 -116.2667 0
v -118.4 -116.2667 0
v -117.3333 -117.3333 0
v -118.4 -117.3333 0
v -118.4 -116.2667 0
v -117.3333 -116.2667 0
v -116.2667 -117.3333 0
v -117.3333 -117.3333 0
v -117.3333 -116.2667 0
v -116.2667 -116.2667 0
v -115.2 -117.3333 0
v -116.2667 -117.3333 0
v -116.2667 -116.2667 0
v -115.2 -116.2667 0
v -114.1333 -117.3333 0
v -115.2 -117.3333 0
v -115.2 -116.2667 0
v -114.1333 -116.2667 0
v -113.0667 -117.3333 0
v -114.1333 -117.3333 0
v -114.1333 -116.2667 0
v -113.0667 -116.2667 0
v -112 -117.3333 0
v -113.0667 -117.3333 0
v -113.0667 -116.2667 0
v -112 -116.2667 0
v -110.9333 -117.3333 0
v -112 -117.3333 0
v -112 -116.2667 0
v -110.9333 -116.2667 0
v -109.8667 -117.3333 0
v -110.9333 -117.3333 0
v -110.9333 -116.2667 0
v -109.8667 -116.2667 0
v -108.8 -117.3333 0
v -109.8667 -117.3333 0
v -109.8667 -116.2667 0
v -108.8 -116.2667 0
v -107.7333 -117.3333 0
v -108.8 -117.3333 0
v -108.8 -116.2667 0
v -107.7333 -116.2667 0
v -106.6667 -117.3333 0
v -107.7333 -117.3333 0
v -107.7333 -116.2667 0
v -106.6667 -116.2667 0
v -105.6 -117.3333 0
v -106.6667 -117.3333 0
v -106.6667 -116.2667 0
v -105.6 -116.2667 0
v -104.5333 -117.3333 0
v -105.6 -117.3333 0
v -105.6 -116.2667 0
v -104.5333 -116.2667 0
v -103.4667 -117.3333 0
v -104.5333 -117.3333 0
v -104.5333 -116.2667 0
v -103.4667 -116.2667 0
v -102.4 -117.3333 0
v -103.4667 -117.3333 0
v -103.4667 -116.2667 0
v -102.4 -116.2667 0
v -101.3333 -117.3333 0
v -102.4 -117.3333 0
v -102.4 -116.2667 0
v -101.3333 -116.2667 0
v -100.2667 -117.3333 0
v -101.3333 -117.3333 0
v -101.3333 -116.2667 0
v -100.2667 -116.2667 0
v -99.2 -117.3333 0
v -100.2667 -117.3333 0
v -100.2667 -116.2667 0
v -99.2 -116.2667 0
v -98.13334 -117.3333 0
v -99.2 -117.3333 0
v -99.2 -116.2667 0
v -98.13334 -116.2667 0
v -97.06667 -117.3333 0
v -98.13334 -117.3333 0
v -98.13334 -116.2667 0
v -97.06667 -116.2667 0
v -96.00001 -117.3333 0
v -97.06667 -117.3333 0
v -97.06667 -116.2667 0
v -96.00001 -116.2667 0
v -94.93334 -117.3333 0
v -96.00001 -117.3333 0
v -96.00001 -116.2667 0
v -94.93334 -116.2667 0
v -93.86667 -117.3333 0
v -94.93334 -117.3333 0
v -94.93334 -116.2667 0
v -93.86667 -116.2667 0
v -92.8 -117.3333 0
v -93.86667 -117.3333 0
v -93.86667 -116.2667 0
v -92.8 -116.2667 0
v -91.73334 -117.3333 0
v -92.8 -117.3333 0
v -92.8 -116.2667 0
v -91.73334 -116.2667 0
v -90.66667 -117.3333 0
v -91.73334 -117.3333 0
v -91.73334 -116.2667 0
v -90.66667 -116.2667 0
v -89.60001 -117.3333 0
v -90.66667 -117.3333 0
v -90.66667 -116.2667 0
v -89.60001 -116.2667 0
v -131.2 -118.4 0
v -132.2667 -118.4 0
v -132.2667 -117.3333 0
v -131.2 -117.3333 0
v -130.1333 -118.4 0
v -131.2 -118.4 0
v -131.2 -117.3333 0
v -130.1333 -117.3333 0
v -129.0667 -118.4 0
v -130.1333 -118.4 0
v -130.1333 -117.3333 0
v -129.0667 -117.3333 0
v -128 -118.4 0
v -129.0667 -118.4 0
v -129.0667 -117.3333 0
v -128 -117.3333 0
v -126.9333 -118.4 0
v -128 -118.4 0
v -128 -117.3333 0
v -126.9333 -117.3333 0
v -125.8667 -118.4 0
v -126.9333 -118.4 0
v -126.9333 -117.3333 0
v -125.8667 -117.3333 0
v -124.8 -118.4 0
v -125.8667 -118.4 0
v -125.8667 -117.3333 0
v -124.8 -117.3333 0
v -123.7333 -118.4 0
v -124.8 -118.4 0
v -124.8 -117.3333 0
v -123.7333 -117.3333 0
v -122.6667 -118.4 0
v -123.7333 -118.4 0
v -123.7333 -117.3333 0
v -122.6667 -117.3333 0
v -121.6 -118.4 0
v -122.6667 -118.4 0
v -122.6667 -117.3333 0
v -121.6 -117.3333 0
v -120.5333 -118.4 0
v -121.6 -118.4 0
v -121.6 -117.3333 0
v -120.5333 -117.3333 0
v -119.4667 -118.4 0
v -120.5333 -118.4 0
v -120.5333 -117.3333 0
v -119.4667 -117.3333 0
v -118.4 -118.4 0
v -119.4667 -118.4 0
v -119.4667 -117.3333 0
v -118.4 -117.3333 0
v -117.3333 -118.4 0
v -118.4 -118.4 0
v -118.4 -117.3333 0
v -117.3333 -117.3333 0
v -116.2667 -118.4 0
v -117.3333 -118.4 0
v -117.3333 -117.3333 0
v -116.2667 -117.3333 0
v -115.2 -118.4 0
v -116.2667 -118.4 0
v -116.2667 -117.3333 0
v -115.2 -117.3333 0
v -114.1333 -118.4 0
v -115.2 -118.4 0
v -115.2 -117.3333 0
v -114.1333 -117.3333 0
v -113.0667 -118.4 0
v -114.1333 -118.4 0
v -114.1333 -117.3333 0
v -113.0667 -117.3333 0
v -112 -118.4 0
v -113.0667 -118.4 0
v -113.0667 -117.3333 0
v -112 -117.3333 0
v -110.9333 -118.4 0
v -112 -118.4 0
v -112 -117.3333 0
v -110.9333 -117.3333 0
v -109.8667 -118.4 0
v -110.9333 -118.4 0
v -110.9333 -117.3333 0
v -109.8667 -117.3333 0
v -108.8 -118.4 0
v -109.8667 -118.4 0
v -109.8667 -117.3333 0
v -108.8 -117.3333 0
v -107.7333 -118.4 0
v -108.8 -118.4 0
v -108.8 -117.3333 0
v -107.7333 -117.3333 0
v -106.6667 -118.4 0
v -107.7333 -118.4 0
v -107.7333 -117.3333 0
v -106.6667 -117.3333 0
v -105.6 -118.4 0
v -106.6667 -118.4 0
v -106.6667 -117.3333 0
v -105.6 -117.3333 0
v -104.5333 -118.4 0
v -105.6 -118.4 0
v -105.6 -117.3333 0
v -104.5333 -117.3333 0
v -103.4667 -118.4 0
v -104.5333 -118.4 0
v -104.5333 -117.3333 0
v -103.4667 -117.3333 0
v -102.4 -118.4 0
v -103.4667 -118.4 0
v -103.4667 -117.3333 0
v -102.4 -117.3333 0
v -101.3333 -118.4 0
v -102.4 -118.4 0
v -102.4 -117.3333 0
v -101.3333 -117.3333 0
v -100.2667 -118.4 0
v -101.3333 -118.4 0
v -101.3333 -117.3333 0
v -100.2667 -117.3333 0
v -99.2 -118.4 0
v -100.2667 -118.4 0
v -100.2667 -117.3333 0
v -99.2 -117.3333 0
v -98.13334 -118.4 0
v -99.2 -118.4 0
v -99.2 -117.3333 0
v -98.13334 -117.3333 0
v -97.06667 -118.4 0
v -98.13334 -118.4 0
v -98.13334 -117.3333 0
v -97.06667 -117.3333 0
v -96.00001 -118.4 0
v -97.06667 -118.4 0
v -97.06667 -117.3333 0
v -96.00001 -117.3333 0
v -94.93334 -118.4 0
v -96.00001 -118.4 0
v -96.00001 -117.3333 0
v -94.93334 -117.3333 0
v -93.86667 -118.4 0
v -94.93334 -118.4 0
v -94.93334 -117.3333 0
v -93.86667 -117.3333 0
v -92.8 -118.4 0
v -93.86667 -118.4 0
v -93.86667 -117.3333 0
v -92.8 -117.3333 0
v -91.73334 -118.4 0
v -92.8 -118.4 0
v -92.8 -117.3333 0
v -91.73334 -117.3333 0
v -90.66667 -118.4 0
v -91.73334 -118.4 0
v -91.73334 -117.3333 0
v -90.66667 -117.3333 0
v -89.60001 -118.4 0
v -90.66667 -118.4 0
v -90.66667 -117.3333 0
v -89.60001 -117.3333 0

# Texture cooridinates (Count = 44)
vt 0.3863636 0.5494297
vt 0.4028926 0.5494297
vt 0.4028926 0.5798479
vt 0.3863636 0.5798479
vt 0.3512397 0.3231939
vt 0.3677686 0.3231939
vt 0.3677686 0.3536122
vt 0.3512397 0.3536122
vt 0.3688017 0.3555133
vt 0.3853306 0.3555133
vt 0.3853306 0.3859316
vt 0.3688017 0.3859316
vt 0.3512397 0.5171102
vt 0.3677686 0.5171102
vt 0.3677686 0.5475285
vt 0.3512397 0.5475285
vt 0.3863636 0.4847909
vt 0.4028926 0.4847909
vt 0.4028926 0.5152091
vt 0.3863636 0.5152091
vt 0.4214876 0.5494297
vt 0.4380165 0.5494297
vt 0.4380165 0.5798479
vt 0.4214876 0.5798479
vt 0.3688017 0.5817491
vt 0.3853306 0.5817491
vt 0.3853306 0.6121673
vt 0.3688017 0.6121673
vt 0.4039256 0.5494297
vt 0.4204545 0.5494297
vt 0.4204545 0.5798479
vt 0.4039256 0.5798479
vt 0.4039256 0.4847909
vt 0.4204545 0.4847909
vt 0.4204545 0.5152091
vt 0.4039256 0.5152091
vt 0.3512397 0.4847909
vt 0.3677686 0.4847909
vt 0.3677686 0.5152091
vt 0.3512397 0.5152091
vt 0.3688017 0.4847909
vt 0.3853306 0.4847909
vt 0.3853306 0.5152091
vt 0.3688017 0.5152091

# Normal
vn 0 0 -1

# Mesh description
g CS-Jail_mesh_0003

# Faces
f 1/1/1 2/2/1 3/3/1 4/4/1
f 5/1/1 6/2/1 7/3/1 8/4/1
f 9/1/1 10/2/1 11/3/1 12/4/1
f 13/1/1 14/2/1 15/3/1 16/4/1
f 17/1/1 18/2/1 19/3/1 20/4/1
f 21/1/1 22/2/1 23/3/1 24/4/1
f 25/1/1 26/2/1 27/3/1 28/4/1
f 29/1/1 30/2/1 31/3/1 32/4/1
f 33/1/1 34/2/1 35/3/1 36/4/1
f 37/1/1 38/2/1 39/3/1 40/4/1
f 41/5/1 42/6/1 43/7/1 44/8/1
f 45/5/1 46/6/1 47/7/1 48/8/1
f 49/1/1 50/2/1 51/3/1 52/4/1
f 53/1/1 54/2/1 55/3/1 56/4/1
f 57/1/1 58/2/1 59/3/1 60/4/1
f 61/1/1 62/2/1 63/3/1 64/4/1
f 65/1/1 66/2/1 67/3/1 68/4/1
f 69/9/1 70/10/1 71/11/1 72/12/1
f 73/9/1 74/10/1 75/11/1 76/12/1
f 77/1/1 78/2/1 79/3/1 80/4/1
f 81/1/1 82/2/1 83/3/1 84/4/1
f 85/1/1 86/2/1 87/3/1 88/4/1
f 89/1/1 90/2/1 91/3/1 92/4/1
f 93/1/1 94/2/1 95/3/1 96/4/1
f 97/1/1 98/2/1 99/3/1 100/4/1
f 101/1/1 102/2/1 103/3/1 104/4/1
f 105/1/1 106/2/1 107/3/1 108/4/1
f 109/1/1 110/2/1 111/3/1 112/4/1
f 113/1/1 114/2/1 115/3/1 116/4/1
f 117/1/1 118/2/1 119/3/1 120/4/1
f 121/1/1 122/2/1 123/3/1 124/4/1
f 125/1/1 126/2/1 127/3/1 128/4/1
f 129/1/1 130/2/1 131/3/1 132/4/1
f 133/1/1 134/2/1 135/3/1 136/4/1
f 137/5/1 138/6/1 139/7/1 140/8/1
f 141/5/1 142/6/1 143/7/1 144/8/1
f 145/13/1 146/14/1 147/15/1 148/16/1
f 149/13/1 150/14/1 151/15/1 152/16/1
f 153/13/1 154/14/1 155/15/1 156/16/1
f 157/13/1 158/14/1 159/15/1 160/16/1
f 161/13/1 162/14/1 163/15/1 164/16/1
f 165/9/1 166/10/1 167/11/1 168/12/1
f 169/9/1 170/10/1 171/11/1 172/12/1
f 173/17/1 174/18/1 175/19/1 176/20/1
f 177/17/1 178/18/1 179/19/1 180/20/1
f 181/17/1 182/18/1 183/19/1 184/20/1
f 185/17/1 186/18/1 187/19/1 188/20/1
f 189/17/1 190/18/1 191/19/1 192/20/1
f 193/21/1 194/22/1 195/23/1 196/24/1
f 197/25/1 198/26/1 199/27/1 200/28/1
f 201/25/1 202/26/1 203/27/1 204/28/1
f 205/25/1 206/26/1 207/27/1 208/28/1
f 209/25/1 210/26/1 211/27/1 212/28/1
f 213/25/1 214/26/1 215/27/1 216/28/1
f 217/25/1 218/26/1 219/27/1 220/28/1
f 221/25/1 222/26/1 223/27/1 224/28/1
f 225/25/1 226/26/1 227/27/1 228/28/1
f 229/25/1 230/26/1 231/27/1 232/28/1
f 233/25/1 234/26/1 235/27/1 236/28/1
f 237/25/1 238/26/1 239/27/1 240/28/1
f 241/25/1 242/26/1 243/27/1 244/28/1
f 245/25/1 246/26/1 247/27/1 248/28/1
f 249/25/1 250/26/1 251/27/1 252/28/1
f 253/25/1 254/26/1 255/27/1 256/28/1
f 257/25/1 258/26/1 259/27/1 260/28/1
f 261/25/1 262/26/1 263/27/1 264/28/1
f 265/25/1 266/26/1 267/27/1 268/28/1
f 269/25/1 270/26/1 271/27/1 272/28/1
f 273/25/1 274/26/1 275/27/1 276/28/1
f 277/25/1 278/26/1 279/27/1 280/28/1
f 281/25/1 282/26/1 283/27/1 284/28/1
f 285/25/1 286/26/1 287/27/1 288/28/1
f 289/25/1 290/26/1 291/27/1 292/28/1
f 293/25/1 294/26/1 295/27/1 296/28/1
f 297/25/1 298/26/1 299/27/1 300/28/1
f 301/25/1 302/26/1 303/27/1 304/28/1
f 305/25/1 306/26/1 307/27/1 308/28/1
f 309/25/1 310/26/1 311/27/1 312/28/1
f 313/25/1 314/26/1 315/27/1 316/28/1
f 317/25/1 318/26/1 319/27/1 320/28/1
f 321/25/1 322/26/1 323/27/1 324/28/1
f 325/25/1 326/26/1 327/27/1 328/28/1
f 329/25/1 330/26/1 331/27/1 332/28/1
f 333/25/1 334/26/1 335/27/1 336/28/1
f 337/25/1 338/26/1 339/27/1 340/28/1
f 341/25/1 342/26/1 343/27/1 344/28/1
f 345/25/1 346/26/1 347/27/1 348/28/1
f 349/29/1 350/30/1 351/31/1 352/32/1
f 353/33/1 354/34/1 355/35/1 356/36/1
f 357/37/1 358/38/1 359/39/1 360/40/1
f 361/37/1 362/38/1 363/39/1 364/40/1
f 365/37/1 366/38/1 367/39/1 368/40/1
f 369/37/1 370/38/1 371/39/1 372/40/1
f 373/37/1 374/38/1 375/39/1 376/40/1
f 377/37/1 378/38/1 379/39/1 380/40/1
f 381/37/1 382/38/1 383/39/1 384/40/1
f 385/37/1 386/38/1 387/39/1 388/40/1
f 389/37/1 390/38/1 391/39/1 392/40/1
f 393/37/1 394/38/1 395/39/1 396/40/1
f 397/37/1 398/38/1 399/39/1 400/40/1
f 401/37/1 402/38/1 403/39/1 404/40/1
f 405/37/1 406/38/1 407/39/1 408/40/1
f 409/37/1 410/38/1 411/39/1 412/40/1
f 413/37/1 414/38/1 415/39/1 416/40/1
f 417/37/1 418/38/1 419/39/1 420/40/1
f 421/37/1 422/38/1 423/39/1 424/40/1
f 425/37/1 426/38/1 427/39/1 428/40/1
f 429/37/1 430/38/1 431/39/1 432/40/1
f 433/37/1 434/38/1 435/39/1 436/40/1
f 437/37/1 438/38/1 439/39/1 440/40/1
f 441/37/1 442/38/1 443/39/1 444/40/1
f 445/37/1 446/38/1 447/39/1 448/40/1
f 449/37/1 450/38/1 451/39/1 452/40/1
f 453/37/1 454/38/1 455/39/1 456/40/1
f 457/37/1 458/38/1 459/39/1 460/40/1
f 461/37/1 462/38/1 463/39/1 464/40/1
f 465/37/1 466/38/1 467/39/1 468/40/1
f 469/37/1 470/38/1 471/39/1 472/40/1
f 473/37/1 474/38/1 475/39/1 476/40/1
f 477/37/1 478/38/1 479/39/1 480/40/1
f 481/37/1 482/38/1 483/39/1 484/40/1
f 485/37/1 486/38/1 487/39/1 488/40/1
f 489/37/1 490/38/1 491/39/1 492/40/1
f 493/37/1 494/38/1 495/39/1 496/40/1
f 497/37/1 498/38/1 499/39/1 500/40/1
f 501/37/1 502/38/1 503/39/1 504/40/1
f 505/37/1 506/38/1 507/39/1 508/40/1
f 509/41/1 510/42/1 511/43/1 512/44/1

