# Tiled2Unity generated file. Do not modify by hand.
# Wavefront file for 'CS-Jail_mesh_0002.obj'

# Vertices (Count = 676)
v -131.2 -104.5333 0
v -132.2667 -104.5333 0
v -132.2667 -103.4667 0
v -131.2 -103.4667 0
v -130.1333 -104.5333 0
v -131.2 -104.5333 0
v -131.2 -103.4667 0
v -130.1333 -103.4667 0
v -129.0667 -104.5333 0
v -130.1333 -104.5333 0
v -130.1333 -103.4667 0
v -129.0667 -103.4667 0
v -128 -104.5333 0
v -129.0667 -104.5333 0
v -129.0667 -103.4667 0
v -128 -103.4667 0
v -126.9333 -104.5333 0
v -128 -104.5333 0
v -128 -103.4667 0
v -126.9333 -103.4667 0
v -125.8667 -104.5333 0
v -126.9333 -104.5333 0
v -126.9333 -103.4667 0
v -125.8667 -103.4667 0
v -124.8 -104.5333 0
v -125.8667 -104.5333 0
v -125.8667 -103.4667 0
v -124.8 -103.4667 0
v -123.7333 -104.5333 0
v -124.8 -104.5333 0
v -124.8 -103.4667 0
v -123.7333 -103.4667 0
v -122.6667 -104.5333 0
v -123.7333 -104.5333 0
v -123.7333 -103.4667 0
v -122.6667 -103.4667 0
v -121.6 -104.5333 0
v -122.6667 -104.5333 0
v -122.6667 -103.4667 0
v -121.6 -103.4667 0
v -120.5333 -104.5333 0
v -121.6 -104.5333 0
v -121.6 -103.4667 0
v -120.5333 -103.4667 0
v -119.4667 -104.5333 0
v -120.5333 -104.5333 0
v -120.5333 -103.4667 0
v -119.4667 -103.4667 0
v -118.4 -104.5333 0
v -119.4667 -104.5333 0
v -119.4667 -103.4667 0
v -118.4 -103.4667 0
v -117.3333 -104.5333 0
v -118.4 -104.5333 0
v -118.4 -103.4667 0
v -117.3333 -103.4667 0
v -116.2667 -104.5333 0
v -117.3333 -104.5333 0
v -117.3333 -103.4667 0
v -116.2667 -103.4667 0
v -115.2 -104.5333 0
v -116.2667 -104.5333 0
v -116.2667 -103.4667 0
v -115.2 -103.4667 0
v -114.1333 -104.5333 0
v -115.2 -104.5333 0
v -115.2 -103.4667 0
v -114.1333 -103.4667 0
v -113.0667 -104.5333 0
v -114.1333 -104.5333 0
v -114.1333 -103.4667 0
v -113.0667 -103.4667 0
v -112 -104.5333 0
v -113.0667 -104.5333 0
v -113.0667 -103.4667 0
v -112 -103.4667 0
v -110.9333 -104.5333 0
v -112 -104.5333 0
v -112 -103.4667 0
v -110.9333 -103.4667 0
v -109.8667 -104.5333 0
v -110.9333 -104.5333 0
v -110.9333 -103.4667 0
v -109.8667 -103.4667 0
v -108.8 -104.5333 0
v -109.8667 -104.5333 0
v -109.8667 -103.4667 0
v -108.8 -103.4667 0
v -107.7333 -104.5333 0
v -108.8 -104.5333 0
v -108.8 -103.4667 0
v -107.7333 -103.4667 0
v -106.6667 -104.5333 0
v -107.7333 -104.5333 0
v -107.7333 -103.4667 0
v -106.6667 -103.4667 0
v -105.6 -104.5333 0
v -106.6667 -104.5333 0
v -106.6667 -103.4667 0
v -105.6 -103.4667 0
v -104.5333 -104.5333 0
v -105.6 -104.5333 0
v -105.6 -103.4667 0
v -104.5333 -103.4667 0
v -103.4667 -104.5333 0
v -104.5333 -104.5333 0
v -104.5333 -103.4667 0
v -103.4667 -103.4667 0
v -102.4 -104.5333 0
v -103.4667 -104.5333 0
v -103.4667 -103.4667 0
v -102.4 -103.4667 0
v -101.3333 -104.5333 0
v -102.4 -104.5333 0
v -102.4 -103.4667 0
v -101.3333 -103.4667 0
v -100.2667 -104.5333 0
v -101.3333 -104.5333 0
v -101.3333 -103.4667 0
v -100.2667 -103.4667 0
v -99.2 -104.5333 0
v -100.2667 -104.5333 0
v -100.2667 -103.4667 0
v -99.2 -103.4667 0
v -98.13334 -104.5333 0
v -99.2 -104.5333 0
v -99.2 -103.4667 0
v -98.13334 -103.4667 0
v -97.06667 -104.5333 0
v -98.13334 -104.5333 0
v -98.13334 -103.4667 0
v -97.06667 -103.4667 0
v -96.00001 -104.5333 0
v -97.06667 -104.5333 0
v -97.06667 -103.4667 0
v -96.00001 -103.4667 0
v -94.93334 -104.5333 0
v -96.00001 -104.5333 0
v -96.00001 -103.4667 0
v -94.93334 -103.4667 0
v -93.86667 -104.5333 0
v -94.93334 -104.5333 0
v -94.93334 -103.4667 0
v -93.86667 -103.4667 0
v -92.8 -104.5333 0
v -93.86667 -104.5333 0
v -93.86667 -103.4667 0
v -92.8 -103.4667 0
v -91.73334 -104.5333 0
v -92.8 -104.5333 0
v -92.8 -103.4667 0
v -91.73334 -103.4667 0
v -90.66667 -104.5333 0
v -91.73334 -104.5333 0
v -91.73334 -103.4667 0
v -90.66667 -103.4667 0
v -89.60001 -104.5333 0
v -90.66667 -104.5333 0
v -90.66667 -103.4667 0
v -89.60001 -103.4667 0
v -131.2 -105.6 0
v -132.2667 -105.6 0
v -132.2667 -104.5333 0
v -131.2 -104.5333 0
v -130.1333 -105.6 0
v -131.2 -105.6 0
v -131.2 -104.5333 0
v -130.1333 -104.5333 0
v -129.0667 -105.6 0
v -130.1333 -105.6 0
v -130.1333 -104.5333 0
v -129.0667 -104.5333 0
v -128 -105.6 0
v -129.0667 -105.6 0
v -129.0667 -104.5333 0
v -128 -104.5333 0
v -126.9333 -105.6 0
v -128 -105.6 0
v -128 -104.5333 0
v -126.9333 -104.5333 0
v -125.8667 -105.6 0
v -126.9333 -105.6 0
v -126.9333 -104.5333 0
v -125.8667 -104.5333 0
v -124.8 -105.6 0
v -125.8667 -105.6 0
v -125.8667 -104.5333 0
v -124.8 -104.5333 0
v -123.7333 -105.6 0
v -124.8 -105.6 0
v -124.8 -104.5333 0
v -123.7333 -104.5333 0
v -122.6667 -105.6 0
v -123.7333 -105.6 0
v -123.7333 -104.5333 0
v -122.6667 -104.5333 0
v -121.6 -105.6 0
v -122.6667 -105.6 0
v -122.6667 -104.5333 0
v -121.6 -104.5333 0
v -120.5333 -105.6 0
v -121.6 -105.6 0
v -121.6 -104.5333 0
v -120.5333 -104.5333 0
v -119.4667 -105.6 0
v -120.5333 -105.6 0
v -120.5333 -104.5333 0
v -119.4667 -104.5333 0
v -118.4 -105.6 0
v -119.4667 -105.6 0
v -119.4667 -104.5333 0
v -118.4 -104.5333 0
v -117.3333 -105.6 0
v -118.4 -105.6 0
v -118.4 -104.5333 0
v -117.3333 -104.5333 0
v -116.2667 -105.6 0
v -117.3333 -105.6 0
v -117.3333 -104.5333 0
v -116.2667 -104.5333 0
v -115.2 -105.6 0
v -116.2667 -105.6 0
v -116.2667 -104.5333 0
v -115.2 -104.5333 0
v -114.1333 -105.6 0
v -115.2 -105.6 0
v -115.2 -104.5333 0
v -114.1333 -104.5333 0
v -113.0667 -105.6 0
v -114.1333 -105.6 0
v -114.1333 -104.5333 0
v -113.0667 -104.5333 0
v -112 -105.6 0
v -113.0667 -105.6 0
v -113.0667 -104.5333 0
v -112 -104.5333 0
v -110.9333 -105.6 0
v -112 -105.6 0
v -112 -104.5333 0
v -110.9333 -104.5333 0
v -109.8667 -105.6 0
v -110.9333 -105.6 0
v -110.9333 -104.5333 0
v -109.8667 -104.5333 0
v -108.8 -105.6 0
v -109.8667 -105.6 0
v -109.8667 -104.5333 0
v -108.8 -104.5333 0
v -107.7333 -105.6 0
v -108.8 -105.6 0
v -108.8 -104.5333 0
v -107.7333 -104.5333 0
v -106.6667 -105.6 0
v -107.7333 -105.6 0
v -107.7333 -104.5333 0
v -106.6667 -104.5333 0
v -105.6 -105.6 0
v -106.6667 -105.6 0
v -106.6667 -104.5333 0
v -105.6 -104.5333 0
v -104.5333 -105.6 0
v -105.6 -105.6 0
v -105.6 -104.5333 0
v -104.5333 -104.5333 0
v -103.4667 -105.6 0
v -104.5333 -105.6 0
v -104.5333 -104.5333 0
v -103.4667 -104.5333 0
v -102.4 -105.6 0
v -103.4667 -105.6 0
v -103.4667 -104.5333 0
v -102.4 -104.5333 0
v -101.3333 -105.6 0
v -102.4 -105.6 0
v -102.4 -104.5333 0
v -101.3333 -104.5333 0
v -100.2667 -105.6 0
v -101.3333 -105.6 0
v -101.3333 -104.5333 0
v -100.2667 -104.5333 0
v -99.2 -105.6 0
v -100.2667 -105.6 0
v -100.2667 -104.5333 0
v -99.2 -104.5333 0
v -98.13334 -105.6 0
v -99.2 -105.6 0
v -99.2 -104.5333 0
v -98.13334 -104.5333 0
v -97.06667 -105.6 0
v -98.13334 -105.6 0
v -98.13334 -104.5333 0
v -97.06667 -104.5333 0
v -96.00001 -105.6 0
v -97.06667 -105.6 0
v -97.06667 -104.5333 0
v -96.00001 -104.5333 0
v -94.93334 -105.6 0
v -96.00001 -105.6 0
v -96.00001 -104.5333 0
v -94.93334 -104.5333 0
v -93.86667 -105.6 0
v -94.93334 -105.6 0
v -94.93334 -104.5333 0
v -93.86667 -104.5333 0
v -92.8 -105.6 0
v -93.86667 -105.6 0
v -93.86667 -104.5333 0
v -92.8 -104.5333 0
v -91.73334 -105.6 0
v -92.8 -105.6 0
v -92.8 -104.5333 0
v -91.73334 -104.5333 0
v -90.66667 -105.6 0
v -91.73334 -105.6 0
v -91.73334 -104.5333 0
v -90.66667 -104.5333 0
v -89.60001 -105.6 0
v -90.66667 -105.6 0
v -90.66667 -104.5333 0
v -89.60001 -104.5333 0
v -131.2 -106.6667 0
v -132.2667 -106.6667 0
v -132.2667 -105.6 0
v -131.2 -105.6 0
v -130.1333 -106.6667 0
v -131.2 -106.6667 0
v -131.2 -105.6 0
v -130.1333 -105.6 0
v -129.0667 -106.6667 0
v -130.1333 -106.6667 0
v -130.1333 -105.6 0
v -129.0667 -105.6 0
v -128 -106.6667 0
v -129.0667 -106.6667 0
v -129.0667 -105.6 0
v -128 -105.6 0
v -126.9333 -106.6667 0
v -128 -106.6667 0
v -128 -105.6 0
v -126.9333 -105.6 0
v -125.8667 -106.6667 0
v -126.9333 -106.6667 0
v -126.9333 -105.6 0
v -125.8667 -105.6 0
v -124.8 -106.6667 0
v -125.8667 -106.6667 0
v -125.8667 -105.6 0
v -124.8 -105.6 0
v -123.7333 -106.6667 0
v -124.8 -106.6667 0
v -124.8 -105.6 0
v -123.7333 -105.6 0
v -122.6667 -106.6667 0
v -123.7333 -106.6667 0
v -123.7333 -105.6 0
v -122.6667 -105.6 0
v -121.6 -106.6667 0
v -122.6667 -106.6667 0
v -122.6667 -105.6 0
v -121.6 -105.6 0
v -120.5333 -106.6667 0
v -121.6 -106.6667 0
v -121.6 -105.6 0
v -120.5333 -105.6 0
v -119.4667 -106.6667 0
v -120.5333 -106.6667 0
v -120.5333 -105.6 0
v -119.4667 -105.6 0
v -118.4 -106.6667 0
v -119.4667 -106.6667 0
v -119.4667 -105.6 0
v -118.4 -105.6 0
v -117.3333 -106.6667 0
v -118.4 -106.6667 0
v -118.4 -105.6 0
v -117.3333 -105.6 0
v -116.2667 -106.6667 0
v -117.3333 -106.6667 0
v -117.3333 -105.6 0
v -116.2667 -105.6 0
v -115.2 -106.6667 0
v -116.2667 -106.6667 0
v -116.2667 -105.6 0
v -115.2 -105.6 0
v -114.1333 -106.6667 0
v -115.2 -106.6667 0
v -115.2 -105.6 0
v -114.1333 -105.6 0
v -113.0667 -106.6667 0
v -114.1333 -106.6667 0
v -114.1333 -105.6 0
v -113.0667 -105.6 0
v -112 -106.6667 0
v -113.0667 -106.6667 0
v -113.0667 -105.6 0
v -112 -105.6 0
v -110.9333 -106.6667 0
v -112 -106.6667 0
v -112 -105.6 0
v -110.9333 -105.6 0
v -109.8667 -106.6667 0
v -110.9333 -106.6667 0
v -110.9333 -105.6 0
v -109.8667 -105.6 0
v -108.8 -106.6667 0
v -109.8667 -106.6667 0
v -109.8667 -105.6 0
v -108.8 -105.6 0
v -107.7333 -106.6667 0
v -108.8 -106.6667 0
v -108.8 -105.6 0
v -107.7333 -105.6 0
v -106.6667 -106.6667 0
v -107.7333 -106.6667 0
v -107.7333 -105.6 0
v -106.6667 -105.6 0
v -105.6 -106.6667 0
v -106.6667 -106.6667 0
v -106.6667 -105.6 0
v -105.6 -105.6 0
v -104.5333 -106.6667 0
v -105.6 -106.6667 0
v -105.6 -105.6 0
v -104.5333 -105.6 0
v -103.4667 -106.6667 0
v -104.5333 -106.6667 0
v -104.5333 -105.6 0
v -103.4667 -105.6 0
v -102.4 -106.6667 0
v -103.4667 -106.6667 0
v -103.4667 -105.6 0
v -102.4 -105.6 0
v -101.3333 -106.6667 0
v -102.4 -106.6667 0
v -102.4 -105.6 0
v -101.3333 -105.6 0
v -100.2667 -106.6667 0
v -101.3333 -106.6667 0
v -101.3333 -105.6 0
v -100.2667 -105.6 0
v -99.2 -106.6667 0
v -100.2667 -106.6667 0
v -100.2667 -105.6 0
v -99.2 -105.6 0
v -98.13334 -106.6667 0
v -99.2 -106.6667 0
v -99.2 -105.6 0
v -98.13334 -105.6 0
v -97.06667 -106.6667 0
v -98.13334 -106.6667 0
v -98.13334 -105.6 0
v -97.06667 -105.6 0
v -96.00001 -106.6667 0
v -97.06667 -106.6667 0
v -97.06667 -105.6 0
v -96.00001 -105.6 0
v -94.93334 -106.6667 0
v -96.00001 -106.6667 0
v -96.00001 -105.6 0
v -94.93334 -105.6 0
v -93.86667 -106.6667 0
v -94.93334 -106.6667 0
v -94.93334 -105.6 0
v -93.86667 -105.6 0
v -92.8 -106.6667 0
v -93.86667 -106.6667 0
v -93.86667 -105.6 0
v -92.8 -105.6 0
v -91.73334 -106.6667 0
v -92.8 -106.6667 0
v -92.8 -105.6 0
v -91.73334 -105.6 0
v -90.66667 -106.6667 0
v -91.73334 -106.6667 0
v -91.73334 -105.6 0
v -90.66667 -105.6 0
v -89.60001 -106.6667 0
v -90.66667 -106.6667 0
v -90.66667 -105.6 0
v -89.60001 -105.6 0
v -131.2 -107.7333 0
v -132.2667 -107.7333 0
v -132.2667 -106.6667 0
v -131.2 -106.6667 0
v -121.6 -107.7333 0
v -122.6667 -107.7333 0
v -122.6667 -106.6667 0
v -121.6 -106.6667 0
v -115.2 -107.7333 0
v -116.2667 -107.7333 0
v -116.2667 -106.6667 0
v -115.2 -106.6667 0
v -108.8 -107.7333 0
v -109.8667 -107.7333 0
v -109.8667 -106.6667 0
v -108.8 -106.6667 0
v -102.4 -107.7333 0
v -103.4667 -107.7333 0
v -103.4667 -106.6667 0
v -102.4 -106.6667 0
v -96.00001 -107.7333 0
v -97.06667 -107.7333 0
v -97.06667 -106.6667 0
v -96.00001 -106.6667 0
v -89.60001 -107.7333 0
v -90.66667 -107.7333 0
v -90.66667 -106.6667 0
v -89.60001 -106.6667 0
v -131.2 -108.8 0
v -132.2667 -108.8 0
v -132.2667 -107.7333 0
v -131.2 -107.7333 0
v -121.6 -108.8 0
v -122.6667 -108.8 0
v -122.6667 -107.7333 0
v -121.6 -107.7333 0
v -115.2 -108.8 0
v -116.2667 -108.8 0
v -116.2667 -107.7333 0
v -115.2 -107.7333 0
v -108.8 -108.8 0
v -109.8667 -108.8 0
v -109.8667 -107.7333 0
v -108.8 -107.7333 0
v -102.4 -108.8 0
v -103.4667 -108.8 0
v -103.4667 -107.7333 0
v -102.4 -107.7333 0
v -96.00001 -108.8 0
v -97.06667 -108.8 0
v -97.06667 -107.7333 0
v -96.00001 -107.7333 0
v -89.60001 -108.8 0
v -90.66667 -108.8 0
v -90.66667 -107.7333 0
v -89.60001 -107.7333 0
v -131.2 -109.8667 0
v -132.2667 -109.8667 0
v -132.2667 -108.8 0
v -131.2 -108.8 0
v -121.6 -109.8667 0
v -122.6667 -109.8667 0
v -122.6667 -108.8 0
v -121.6 -108.8 0
v -115.2 -109.8667 0
v -116.2667 -109.8667 0
v -116.2667 -108.8 0
v -115.2 -108.8 0
v -108.8 -109.8667 0
v -109.8667 -109.8667 0
v -109.8667 -108.8 0
v -108.8 -108.8 0
v -102.4 -109.8667 0
v -103.4667 -109.8667 0
v -103.4667 -108.8 0
v -102.4 -108.8 0
v -96.00001 -109.8667 0
v -97.06667 -109.8667 0
v -97.06667 -108.8 0
v -96.00001 -108.8 0
v -89.60001 -109.8667 0
v -90.66667 -109.8667 0
v -90.66667 -108.8 0
v -89.60001 -108.8 0
v -131.2 -110.9333 0
v -132.2667 -110.9333 0
v -132.2667 -109.8667 0
v -131.2 -109.8667 0
v -121.6 -110.9333 0
v -122.6667 -110.9333 0
v -122.6667 -109.8667 0
v -121.6 -109.8667 0
v -115.2 -110.9333 0
v -116.2667 -110.9333 0
v -116.2667 -109.8667 0
v -115.2 -109.8667 0
v -108.8 -110.9333 0
v -109.8667 -110.9333 0
v -109.8667 -109.8667 0
v -108.8 -109.8667 0
v -102.4 -110.9333 0
v -103.4667 -110.9333 0
v -103.4667 -109.8667 0
v -102.4 -109.8667 0
v -96.00001 -110.9333 0
v -97.06667 -110.9333 0
v -97.06667 -109.8667 0
v -96.00001 -109.8667 0
v -89.60001 -110.9333 0
v -90.66667 -110.9333 0
v -90.66667 -109.8667 0
v -89.60001 -109.8667 0
v -131.2 -112 0
v -132.2667 -112 0
v -132.2667 -110.9333 0
v -131.2 -110.9333 0
v -121.6 -112 0
v -122.6667 -112 0
v -122.6667 -110.9333 0
v -121.6 -110.9333 0
v -115.2 -112 0
v -116.2667 -112 0
v -116.2667 -110.9333 0
v -115.2 -110.9333 0
v -108.8 -112 0
v -109.8667 -112 0
v -109.8667 -110.9333 0
v -108.8 -110.9333 0
v -102.4 -112 0
v -103.4667 -112 0
v -103.4667 -110.9333 0
v -102.4 -110.9333 0
v -96.00001 -112 0
v -97.06667 -112 0
v -97.06667 -110.9333 0
v -96.00001 -110.9333 0
v -89.60001 -112 0
v -90.66667 -112 0
v -90.66667 -110.9333 0
v -89.60001 -110.9333 0
v -131.2 -113.0667 0
v -132.2667 -113.0667 0
v -132.2667 -112 0
v -131.2 -112 0
v -121.6 -113.0667 0
v -122.6667 -113.0667 0
v -122.6667 -112 0
v -121.6 -112 0
v -115.2 -113.0667 0
v -116.2667 -113.0667 0
v -116.2667 -112 0
v -115.2 -112 0
v -108.8 -113.0667 0
v -109.8667 -113.0667 0
v -109.8667 -112 0
v -108.8 -112 0
v -102.4 -113.0667 0
v -103.4667 -113.0667 0
v -103.4667 -112 0
v -102.4 -112 0
v -96.00001 -113.0667 0
v -97.06667 -113.0667 0
v -97.06667 -112 0
v -96.00001 -112 0
v -89.60001 -113.0667 0
v -90.66667 -113.0667 0
v -90.66667 -112 0
v -89.60001 -112 0
v -131.2 -114.1333 0
v -132.2667 -114.1333 0
v -132.2667 -113.0667 0
v -131.2 -113.0667 0
v -89.60001 -114.1333 0
v -90.66667 -114.1333 0
v -90.66667 -113.0667 0
v -89.60001 -113.0667 0
v -131.2 -115.2 0
v -132.2667 -115.2 0
v -132.2667 -114.1333 0
v -131.2 -114.1333 0
v -89.60001 -115.2 0
v -90.66667 -115.2 0
v -90.66667 -114.1333 0
v -89.60001 -114.1333 0
v -131.2 -116.2667 0
v -132.2667 -116.2667 0
v -132.2667 -115.2 0
v -131.2 -115.2 0
v -89.60001 -116.2667 0
v -90.66667 -116.2667 0
v -90.66667 -115.2 0
v -89.60001 -115.2 0
v -89.60001 -117.3333 0
v -90.66667 -117.3333 0
v -90.66667 -116.2667 0
v -89.60001 -116.2667 0

# Texture cooridinates (Count = 40)
vt 0.4214876 0.5817491
vt 0.4380165 0.5817491
vt 0.4380165 0.6121673
vt 0.4214876 0.6121673
vt 0.3688017 0.5817491
vt 0.3853306 0.5817491
vt 0.3853306 0.6121673
vt 0.3688017 0.6121673
vt 0.4566116 0.5494297
vt 0.4731405 0.5494297
vt 0.4731405 0.5798479
vt 0.4566116 0.5798479
vt 0.4039256 0.5817491
vt 0.4204545 0.5817491
vt 0.4204545 0.6121673
vt 0.4039256 0.6121673
vt 0.3863636 0.5494297
vt 0.4028926 0.5494297
vt 0.4028926 0.5798479
vt 0.3863636 0.5798479
vt 0.4390496 0.4847909
vt 0.4555785 0.4847909
vt 0.4555785 0.5152091
vt 0.4390496 0.5152091
vt 0.3512397 0.4847909
vt 0.3677686 0.4847909
vt 0.3677686 0.5152091
vt 0.3512397 0.5152091
vt 0.3512397 0.5171102
vt 0.3677686 0.5171102
vt 0.3677686 0.5475285
vt 0.3512397 0.5475285
vt 0.3863636 0.4847909
vt 0.4028926 0.4847909
vt 0.4028926 0.5152091
vt 0.3863636 0.5152091
vt 0.4214876 0.4847909
vt 0.4380165 0.4847909
vt 0.4380165 0.5152091
vt 0.4214876 0.5152091

# Normal
vn 0 0 -1

# Mesh description
g CS-Jail_mesh_0002

# Faces
f 1/1/1 2/2/1 3/3/1 4/4/1
f 5/5/1 6/6/1 7/7/1 8/8/1
f 9/5/1 10/6/1 11/7/1 12/8/1
f 13/5/1 14/6/1 15/7/1 16/8/1
f 17/5/1 18/6/1 19/7/1 20/8/1
f 21/5/1 22/6/1 23/7/1 24/8/1
f 25/5/1 26/6/1 27/7/1 28/8/1
f 29/5/1 30/6/1 31/7/1 32/8/1
f 33/5/1 34/6/1 35/7/1 36/8/1
f 37/9/1 38/10/1 39/11/1 40/12/1
f 41/5/1 42/6/1 43/7/1 44/8/1
f 45/5/1 46/6/1 47/7/1 48/8/1
f 49/5/1 50/6/1 51/7/1 52/8/1
f 53/5/1 54/6/1 55/7/1 56/8/1
f 57/5/1 58/6/1 59/7/1 60/8/1
f 61/9/1 62/10/1 63/11/1 64/12/1
f 65/5/1 66/6/1 67/7/1 68/8/1
f 69/5/1 70/6/1 71/7/1 72/8/1
f 73/5/1 74/6/1 75/7/1 76/8/1
f 77/5/1 78/6/1 79/7/1 80/8/1
f 81/5/1 82/6/1 83/7/1 84/8/1
f 85/9/1 86/10/1 87/11/1 88/12/1
f 89/5/1 90/6/1 91/7/1 92/8/1
f 93/5/1 94/6/1 95/7/1 96/8/1
f 97/5/1 98/6/1 99/7/1 100/8/1
f 101/5/1 102/6/1 103/7/1 104/8/1
f 105/5/1 106/6/1 107/7/1 108/8/1
f 109/9/1 110/10/1 111/11/1 112/12/1
f 113/5/1 114/6/1 115/7/1 116/8/1
f 117/5/1 118/6/1 119/7/1 120/8/1
f 121/5/1 122/6/1 123/7/1 124/8/1
f 125/5/1 126/6/1 127/7/1 128/8/1
f 129/5/1 130/6/1 131/7/1 132/8/1
f 133/9/1 134/10/1 135/11/1 136/12/1
f 137/5/1 138/6/1 139/7/1 140/8/1
f 141/5/1 142/6/1 143/7/1 144/8/1
f 145/5/1 146/6/1 147/7/1 148/8/1
f 149/5/1 150/6/1 151/7/1 152/8/1
f 153/5/1 154/6/1 155/7/1 156/8/1
f 157/13/1 158/14/1 159/15/1 160/16/1
f 161/17/1 162/18/1 163/19/1 164/20/1
f 165/21/1 166/22/1 167/23/1 168/24/1
f 169/21/1 170/22/1 171/23/1 172/24/1
f 173/21/1 174/22/1 175/23/1 176/24/1
f 177/21/1 178/22/1 179/23/1 180/24/1
f 181/21/1 182/22/1 183/23/1 184/24/1
f 185/21/1 186/22/1 187/23/1 188/24/1
f 189/21/1 190/22/1 191/23/1 192/24/1
f 193/21/1 194/22/1 195/23/1 196/24/1
f 197/17/1 198/18/1 199/19/1 200/20/1
f 201/21/1 202/22/1 203/23/1 204/24/1
f 205/21/1 206/22/1 207/23/1 208/24/1
f 209/21/1 210/22/1 211/23/1 212/24/1
f 213/21/1 214/22/1 215/23/1 216/24/1
f 217/21/1 218/22/1 219/23/1 220/24/1
f 221/17/1 222/18/1 223/19/1 224/20/1
f 225/21/1 226/22/1 227/23/1 228/24/1
f 229/21/1 230/22/1 231/23/1 232/24/1
f 233/21/1 234/22/1 235/23/1 236/24/1
f 237/21/1 238/22/1 239/23/1 240/24/1
f 241/21/1 242/22/1 243/23/1 244/24/1
f 245/17/1 246/18/1 247/19/1 248/20/1
f 249/21/1 250/22/1 251/23/1 252/24/1
f 253/21/1 254/22/1 255/23/1 256/24/1
f 257/21/1 258/22/1 259/23/1 260/24/1
f 261/21/1 262/22/1 263/23/1 264/24/1
f 265/21/1 266/22/1 267/23/1 268/24/1
f 269/17/1 270/18/1 271/19/1 272/20/1
f 273/21/1 274/22/1 275/23/1 276/24/1
f 277/21/1 278/22/1 279/23/1 280/24/1
f 281/21/1 282/22/1 283/23/1 284/24/1
f 285/21/1 286/22/1 287/23/1 288/24/1
f 289/21/1 290/22/1 291/23/1 292/24/1
f 293/17/1 294/18/1 295/19/1 296/20/1
f 297/21/1 298/22/1 299/23/1 300/24/1
f 301/21/1 302/22/1 303/23/1 304/24/1
f 305/21/1 306/22/1 307/23/1 308/24/1
f 309/21/1 310/22/1 311/23/1 312/24/1
f 313/21/1 314/22/1 315/23/1 316/24/1
f 317/17/1 318/18/1 319/19/1 320/20/1
f 321/17/1 322/18/1 323/19/1 324/20/1
f 325/25/1 326/26/1 327/27/1 328/28/1
f 329/25/1 330/26/1 331/27/1 332/28/1
f 333/25/1 334/26/1 335/27/1 336/28/1
f 337/25/1 338/26/1 339/27/1 340/28/1
f 341/25/1 342/26/1 343/27/1 344/28/1
f 345/25/1 346/26/1 347/27/1 348/28/1
f 349/25/1 350/26/1 351/27/1 352/28/1
f 353/25/1 354/26/1 355/27/1 356/28/1
f 357/17/1 358/18/1 359/19/1 360/20/1
f 361/25/1 362/26/1 363/27/1 364/28/1
f 365/25/1 366/26/1 367/27/1 368/28/1
f 369/25/1 370/26/1 371/27/1 372/28/1
f 373/25/1 374/26/1 375/27/1 376/28/1
f 377/25/1 378/26/1 379/27/1 380/28/1
f 381/17/1 382/18/1 383/19/1 384/20/1
f 385/25/1 386/26/1 387/27/1 388/28/1
f 389/25/1 390/26/1 391/27/1 392/28/1
f 393/25/1 394/26/1 395/27/1 396/28/1
f 397/25/1 398/26/1 399/27/1 400/28/1
f 401/25/1 402/26/1 403/27/1 404/28/1
f 405/17/1 406/18/1 407/19/1 408/20/1
f 409/25/1 410/26/1 411/27/1 412/28/1
f 413/25/1 414/26/1 415/27/1 416/28/1
f 417/25/1 418/26/1 419/27/1 420/28/1
f 421/25/1 422/26/1 423/27/1 424/28/1
f 425/25/1 426/26/1 427/27/1 428/28/1
f 429/17/1 430/18/1 431/19/1 432/20/1
f 433/25/1 434/26/1 435/27/1 436/28/1
f 437/25/1 438/26/1 439/27/1 440/28/1
f 441/25/1 442/26/1 443/27/1 444/28/1
f 445/25/1 446/26/1 447/27/1 448/28/1
f 449/25/1 450/26/1 451/27/1 452/28/1
f 453/17/1 454/18/1 455/19/1 456/20/1
f 457/25/1 458/26/1 459/27/1 460/28/1
f 461/25/1 462/26/1 463/27/1 464/28/1
f 465/25/1 466/26/1 467/27/1 468/28/1
f 469/25/1 470/26/1 471/27/1 472/28/1
f 473/25/1 474/26/1 475/27/1 476/28/1
f 477/17/1 478/18/1 479/19/1 480/20/1
f 481/17/1 482/18/1 483/19/1 484/20/1
f 485/17/1 486/18/1 487/19/1 488/20/1
f 489/17/1 490/18/1 491/19/1 492/20/1
f 493/17/1 494/18/1 495/19/1 496/20/1
f 497/17/1 498/18/1 499/19/1 500/20/1
f 501/17/1 502/18/1 503/19/1 504/20/1
f 505/17/1 506/18/1 507/19/1 508/20/1
f 509/17/1 510/18/1 511/19/1 512/20/1
f 513/17/1 514/18/1 515/19/1 516/20/1
f 517/17/1 518/18/1 519/19/1 520/20/1
f 521/17/1 522/18/1 523/19/1 524/20/1
f 525/17/1 526/18/1 527/19/1 528/20/1
f 529/17/1 530/18/1 531/19/1 532/20/1
f 533/17/1 534/18/1 535/19/1 536/20/1
f 537/17/1 538/18/1 539/19/1 540/20/1
f 541/17/1 542/18/1 543/19/1 544/20/1
f 545/17/1 546/18/1 547/19/1 548/20/1
f 549/17/1 550/18/1 551/19/1 552/20/1
f 553/17/1 554/18/1 555/19/1 556/20/1
f 557/17/1 558/18/1 559/19/1 560/20/1
f 561/17/1 562/18/1 563/19/1 564/20/1
f 565/17/1 566/18/1 567/19/1 568/20/1
f 569/17/1 570/18/1 571/19/1 572/20/1
f 573/17/1 574/18/1 575/19/1 576/20/1
f 577/17/1 578/18/1 579/19/1 580/20/1
f 581/17/1 582/18/1 583/19/1 584/20/1
f 585/17/1 586/18/1 587/19/1 588/20/1
f 589/17/1 590/18/1 591/19/1 592/20/1
f 593/17/1 594/18/1 595/19/1 596/20/1
f 597/29/1 598/30/1 599/31/1 600/32/1
f 601/29/1 602/30/1 603/31/1 604/32/1
f 605/29/1 606/30/1 607/31/1 608/32/1
f 609/29/1 610/30/1 611/31/1 612/32/1
f 613/29/1 614/30/1 615/31/1 616/32/1
f 617/17/1 618/18/1 619/19/1 620/20/1
f 621/17/1 622/18/1 623/19/1 624/20/1
f 625/33/1 626/34/1 627/35/1 628/36/1
f 629/33/1 630/34/1 631/35/1 632/36/1
f 633/33/1 634/34/1 635/35/1 636/36/1
f 637/33/1 638/34/1 639/35/1 640/36/1
f 641/33/1 642/34/1 643/35/1 644/36/1
f 645/17/1 646/18/1 647/19/1 648/20/1
f 649/17/1 650/18/1 651/19/1 652/20/1
f 653/17/1 654/18/1 655/19/1 656/20/1
f 657/17/1 658/18/1 659/19/1 660/20/1
f 661/17/1 662/18/1 663/19/1 664/20/1
f 665/17/1 666/18/1 667/19/1 668/20/1
f 669/17/1 670/18/1 671/19/1 672/20/1
f 673/37/1 674/38/1 675/39/1 676/40/1

