# Tiled2Unity generated file. Do not modify by hand.
# Wavefront file for 'CS-Jail_mesh_0003.obj'

# Vertices (Count = 352)
v -129.0667 -107.7333 0
v -130.1333 -107.7333 0
v -130.1333 -106.6667 0
v -129.0667 -106.6667 0
v -124.8 -107.7333 0
v -125.8667 -107.7333 0
v -125.8667 -106.6667 0
v -124.8 -106.6667 0
v -129.0667 -108.8 0
v -130.1333 -108.8 0
v -130.1333 -107.7333 0
v -129.0667 -107.7333 0
v -124.8 -108.8 0
v -125.8667 -108.8 0
v -125.8667 -107.7333 0
v -124.8 -107.7333 0
v -129.0667 -112 0
v -130.1333 -112 0
v -130.1333 -110.9333 0
v -129.0667 -110.9333 0
v -124.8 -112 0
v -125.8667 -112 0
v -125.8667 -110.9333 0
v -124.8 -110.9333 0
v -129.0667 -113.0667 0
v -130.1333 -113.0667 0
v -130.1333 -112 0
v -129.0667 -112 0
v -124.8 -113.0667 0
v -125.8667 -113.0667 0
v -125.8667 -112 0
v -124.8 -112 0
v -131.2 -117.3333 0
v -132.2667 -117.3333 0
v -132.2667 -116.2667 0
v -131.2 -116.2667 0
v -130.1333 -117.3333 0
v -131.2 -117.3333 0
v -131.2 -116.2667 0
v -130.1333 -116.2667 0
v -129.0667 -117.3333 0
v -130.1333 -117.3333 0
v -130.1333 -116.2667 0
v -129.0667 -116.2667 0
v -128 -117.3333 0
v -129.0667 -117.3333 0
v -129.0667 -116.2667 0
v -128 -116.2667 0
v -126.9333 -117.3333 0
v -128 -117.3333 0
v -128 -116.2667 0
v -126.9333 -116.2667 0
v -125.8667 -117.3333 0
v -126.9333 -117.3333 0
v -126.9333 -116.2667 0
v -125.8667 -116.2667 0
v -124.8 -117.3333 0
v -125.8667 -117.3333 0
v -125.8667 -116.2667 0
v -124.8 -116.2667 0
v -123.7333 -117.3333 0
v -124.8 -117.3333 0
v -124.8 -116.2667 0
v -123.7333 -116.2667 0
v -122.6667 -117.3333 0
v -123.7333 -117.3333 0
v -123.7333 -116.2667 0
v -122.6667 -116.2667 0
v -121.6 -117.3333 0
v -122.6667 -117.3333 0
v -122.6667 -116.2667 0
v -121.6 -116.2667 0
v -120.5333 -117.3333 0
v -121.6 -117.3333 0
v -121.6 -116.2667 0
v -120.5333 -116.2667 0
v -119.4667 -117.3333 0
v -120.5333 -117.3333 0
v -120.5333 -116.2667 0
v -119.4667 -116.2667 0
v -118.4 -117.3333 0
v -119.4667 -117.3333 0
v -119.4667 -116.2667 0
v -118.4 -116.2667 0
v -117.3333 -117.3333 0
v -118.4 -117.3333 0
v -118.4 -116.2667 0
v -117.3333 -116.2667 0
v -116.2667 -117.3333 0
v -117.3333 -117.3333 0
v -117.3333 -116.2667 0
v -116.2667 -116.2667 0
v -115.2 -117.3333 0
v -116.2667 -117.3333 0
v -116.2667 -116.2667 0
v -115.2 -116.2667 0
v -114.1333 -117.3333 0
v -115.2 -117.3333 0
v -115.2 -116.2667 0
v -114.1333 -116.2667 0
v -113.0667 -117.3333 0
v -114.1333 -117.3333 0
v -114.1333 -116.2667 0
v -113.0667 -116.2667 0
v -112 -117.3333 0
v -113.0667 -117.3333 0
v -113.0667 -116.2667 0
v -112 -116.2667 0
v -110.9333 -117.3333 0
v -112 -117.3333 0
v -112 -116.2667 0
v -110.9333 -116.2667 0
v -109.8667 -117.3333 0
v -110.9333 -117.3333 0
v -110.9333 -116.2667 0
v -109.8667 -116.2667 0
v -108.8 -117.3333 0
v -109.8667 -117.3333 0
v -109.8667 -116.2667 0
v -108.8 -116.2667 0
v -107.7333 -117.3333 0
v -108.8 -117.3333 0
v -108.8 -116.2667 0
v -107.7333 -116.2667 0
v -106.6667 -117.3333 0
v -107.7333 -117.3333 0
v -107.7333 -116.2667 0
v -106.6667 -116.2667 0
v -105.6 -117.3333 0
v -106.6667 -117.3333 0
v -106.6667 -116.2667 0
v -105.6 -116.2667 0
v -104.5333 -117.3333 0
v -105.6 -117.3333 0
v -105.6 -116.2667 0
v -104.5333 -116.2667 0
v -103.4667 -117.3333 0
v -104.5333 -117.3333 0
v -104.5333 -116.2667 0
v -103.4667 -116.2667 0
v -102.4 -117.3333 0
v -103.4667 -117.3333 0
v -103.4667 -116.2667 0
v -102.4 -116.2667 0
v -101.3333 -117.3333 0
v -102.4 -117.3333 0
v -102.4 -116.2667 0
v -101.3333 -116.2667 0
v -100.2667 -117.3333 0
v -101.3333 -117.3333 0
v -101.3333 -116.2667 0
v -100.2667 -116.2667 0
v -99.2 -117.3333 0
v -100.2667 -117.3333 0
v -100.2667 -116.2667 0
v -99.2 -116.2667 0
v -98.13334 -117.3333 0
v -99.2 -117.3333 0
v -99.2 -116.2667 0
v -98.13334 -116.2667 0
v -97.06667 -117.3333 0
v -98.13334 -117.3333 0
v -98.13334 -116.2667 0
v -97.06667 -116.2667 0
v -96.00001 -117.3333 0
v -97.06667 -117.3333 0
v -97.06667 -116.2667 0
v -96.00001 -116.2667 0
v -94.93334 -117.3333 0
v -96.00001 -117.3333 0
v -96.00001 -116.2667 0
v -94.93334 -116.2667 0
v -93.86667 -117.3333 0
v -94.93334 -117.3333 0
v -94.93334 -116.2667 0
v -93.86667 -116.2667 0
v -92.8 -117.3333 0
v -93.86667 -117.3333 0
v -93.86667 -116.2667 0
v -92.8 -116.2667 0
v -91.73334 -117.3333 0
v -92.8 -117.3333 0
v -92.8 -116.2667 0
v -91.73334 -116.2667 0
v -90.66667 -117.3333 0
v -91.73334 -117.3333 0
v -91.73334 -116.2667 0
v -90.66667 -116.2667 0
v -89.60001 -117.3333 0
v -90.66667 -117.3333 0
v -90.66667 -116.2667 0
v -89.60001 -116.2667 0
v -131.2 -118.4 0
v -132.2667 -118.4 0
v -132.2667 -117.3333 0
v -131.2 -117.3333 0
v -130.1333 -118.4 0
v -131.2 -118.4 0
v -131.2 -117.3333 0
v -130.1333 -117.3333 0
v -129.0667 -118.4 0
v -130.1333 -118.4 0
v -130.1333 -117.3333 0
v -129.0667 -117.3333 0
v -128 -118.4 0
v -129.0667 -118.4 0
v -129.0667 -117.3333 0
v -128 -117.3333 0
v -126.9333 -118.4 0
v -128 -118.4 0
v -128 -117.3333 0
v -126.9333 -117.3333 0
v -125.8667 -118.4 0
v -126.9333 -118.4 0
v -126.9333 -117.3333 0
v -125.8667 -117.3333 0
v -124.8 -118.4 0
v -125.8667 -118.4 0
v -125.8667 -117.3333 0
v -124.8 -117.3333 0
v -123.7333 -118.4 0
v -124.8 -118.4 0
v -124.8 -117.3333 0
v -123.7333 -117.3333 0
v -122.6667 -118.4 0
v -123.7333 -118.4 0
v -123.7333 -117.3333 0
v -122.6667 -117.3333 0
v -121.6 -118.4 0
v -122.6667 -118.4 0
v -122.6667 -117.3333 0
v -121.6 -117.3333 0
v -120.5333 -118.4 0
v -121.6 -118.4 0
v -121.6 -117.3333 0
v -120.5333 -117.3333 0
v -119.4667 -118.4 0
v -120.5333 -118.4 0
v -120.5333 -117.3333 0
v -119.4667 -117.3333 0
v -118.4 -118.4 0
v -119.4667 -118.4 0
v -119.4667 -117.3333 0
v -118.4 -117.3333 0
v -117.3333 -118.4 0
v -118.4 -118.4 0
v -118.4 -117.3333 0
v -117.3333 -117.3333 0
v -116.2667 -118.4 0
v -117.3333 -118.4 0
v -117.3333 -117.3333 0
v -116.2667 -117.3333 0
v -115.2 -118.4 0
v -116.2667 -118.4 0
v -116.2667 -117.3333 0
v -115.2 -117.3333 0
v -114.1333 -118.4 0
v -115.2 -118.4 0
v -115.2 -117.3333 0
v -114.1333 -117.3333 0
v -113.0667 -118.4 0
v -114.1333 -118.4 0
v -114.1333 -117.3333 0
v -113.0667 -117.3333 0
v -112 -118.4 0
v -113.0667 -118.4 0
v -113.0667 -117.3333 0
v -112 -117.3333 0
v -110.9333 -118.4 0
v -112 -118.4 0
v -112 -117.3333 0
v -110.9333 -117.3333 0
v -109.8667 -118.4 0
v -110.9333 -118.4 0
v -110.9333 -117.3333 0
v -109.8667 -117.3333 0
v -108.8 -118.4 0
v -109.8667 -118.4 0
v -109.8667 -117.3333 0
v -108.8 -117.3333 0
v -107.7333 -118.4 0
v -108.8 -118.4 0
v -108.8 -117.3333 0
v -107.7333 -117.3333 0
v -106.6667 -118.4 0
v -107.7333 -118.4 0
v -107.7333 -117.3333 0
v -106.6667 -117.3333 0
v -105.6 -118.4 0
v -106.6667 -118.4 0
v -106.6667 -117.3333 0
v -105.6 -117.3333 0
v -104.5333 -118.4 0
v -105.6 -118.4 0
v -105.6 -117.3333 0
v -104.5333 -117.3333 0
v -103.4667 -118.4 0
v -104.5333 -118.4 0
v -104.5333 -117.3333 0
v -103.4667 -117.3333 0
v -102.4 -118.4 0
v -103.4667 -118.4 0
v -103.4667 -117.3333 0
v -102.4 -117.3333 0
v -101.3333 -118.4 0
v -102.4 -118.4 0
v -102.4 -117.3333 0
v -101.3333 -117.3333 0
v -100.2667 -118.4 0
v -101.3333 -118.4 0
v -101.3333 -117.3333 0
v -100.2667 -117.3333 0
v -99.2 -118.4 0
v -100.2667 -118.4 0
v -100.2667 -117.3333 0
v -99.2 -117.3333 0
v -98.13334 -118.4 0
v -99.2 -118.4 0
v -99.2 -117.3333 0
v -98.13334 -117.3333 0
v -97.06667 -118.4 0
v -98.13334 -118.4 0
v -98.13334 -117.3333 0
v -97.06667 -117.3333 0
v -96.00001 -118.4 0
v -97.06667 -118.4 0
v -97.06667 -117.3333 0
v -96.00001 -117.3333 0
v -94.93334 -118.4 0
v -96.00001 -118.4 0
v -96.00001 -117.3333 0
v -94.93334 -117.3333 0
v -93.86667 -118.4 0
v -94.93334 -118.4 0
v -94.93334 -117.3333 0
v -93.86667 -117.3333 0
v -92.8 -118.4 0
v -93.86667 -118.4 0
v -93.86667 -117.3333 0
v -92.8 -117.3333 0
v -91.73334 -118.4 0
v -92.8 -118.4 0
v -92.8 -117.3333 0
v -91.73334 -117.3333 0
v -90.66667 -118.4 0
v -91.73334 -118.4 0
v -91.73334 -117.3333 0
v -90.66667 -117.3333 0
v -89.60001 -118.4 0
v -90.66667 -118.4 0
v -90.66667 -117.3333 0
v -89.60001 -117.3333 0

# Texture cooridinates (Count = 32)
vt 0.3512397 0.3231939
vt 0.3677686 0.3231939
vt 0.3677686 0.3536122
vt 0.3512397 0.3536122
vt 0.3688017 0.3555133
vt 0.3853306 0.3555133
vt 0.3853306 0.3859316
vt 0.3688017 0.3859316
vt 0.4214876 0.5494297
vt 0.4380165 0.5494297
vt 0.4380165 0.5798479
vt 0.4214876 0.5798479
vt 0.3688017 0.5817491
vt 0.3853306 0.5817491
vt 0.3853306 0.6121673
vt 0.3688017 0.6121673
vt 0.4039256 0.5494297
vt 0.4204545 0.5494297
vt 0.4204545 0.5798479
vt 0.4039256 0.5798479
vt 0.4039256 0.4847909
vt 0.4204545 0.4847909
vt 0.4204545 0.5152091
vt 0.4039256 0.5152091
vt 0.3512397 0.4847909
vt 0.3677686 0.4847909
vt 0.3677686 0.5152091
vt 0.3512397 0.5152091
vt 0.3688017 0.4847909
vt 0.3853306 0.4847909
vt 0.3853306 0.5152091
vt 0.3688017 0.5152091

# Normal
vn 0 0 -1

# Mesh description
g CS-Jail_mesh_0003

# Faces
f 1/1/1 2/2/1 3/3/1 4/4/1
f 5/1/1 6/2/1 7/3/1 8/4/1
f 9/5/1 10/6/1 11/7/1 12/8/1
f 13/5/1 14/6/1 15/7/1 16/8/1
f 17/1/1 18/2/1 19/3/1 20/4/1
f 21/1/1 22/2/1 23/3/1 24/4/1
f 25/5/1 26/6/1 27/7/1 28/8/1
f 29/5/1 30/6/1 31/7/1 32/8/1
f 33/9/1 34/10/1 35/11/1 36/12/1
f 37/13/1 38/14/1 39/15/1 40/16/1
f 41/13/1 42/14/1 43/15/1 44/16/1
f 45/13/1 46/14/1 47/15/1 48/16/1
f 49/13/1 50/14/1 51/15/1 52/16/1
f 53/13/1 54/14/1 55/15/1 56/16/1
f 57/13/1 58/14/1 59/15/1 60/16/1
f 61/13/1 62/14/1 63/15/1 64/16/1
f 65/13/1 66/14/1 67/15/1 68/16/1
f 69/13/1 70/14/1 71/15/1 72/16/1
f 73/13/1 74/14/1 75/15/1 76/16/1
f 77/13/1 78/14/1 79/15/1 80/16/1
f 81/13/1 82/14/1 83/15/1 84/16/1
f 85/13/1 86/14/1 87/15/1 88/16/1
f 89/13/1 90/14/1 91/15/1 92/16/1
f 93/13/1 94/14/1 95/15/1 96/16/1
f 97/13/1 98/14/1 99/15/1 100/16/1
f 101/13/1 102/14/1 103/15/1 104/16/1
f 105/13/1 106/14/1 107/15/1 108/16/1
f 109/13/1 110/14/1 111/15/1 112/16/1
f 113/13/1 114/14/1 115/15/1 116/16/1
f 117/13/1 118/14/1 119/15/1 120/16/1
f 121/13/1 122/14/1 123/15/1 124/16/1
f 125/13/1 126/14/1 127/15/1 128/16/1
f 129/13/1 130/14/1 131/15/1 132/16/1
f 133/13/1 134/14/1 135/15/1 136/16/1
f 137/13/1 138/14/1 139/15/1 140/16/1
f 141/13/1 142/14/1 143/15/1 144/16/1
f 145/13/1 146/14/1 147/15/1 148/16/1
f 149/13/1 150/14/1 151/15/1 152/16/1
f 153/13/1 154/14/1 155/15/1 156/16/1
f 157/13/1 158/14/1 159/15/1 160/16/1
f 161/13/1 162/14/1 163/15/1 164/16/1
f 165/13/1 166/14/1 167/15/1 168/16/1
f 169/13/1 170/14/1 171/15/1 172/16/1
f 173/13/1 174/14/1 175/15/1 176/16/1
f 177/13/1 178/14/1 179/15/1 180/16/1
f 181/13/1 182/14/1 183/15/1 184/16/1
f 185/13/1 186/14/1 187/15/1 188/16/1
f 189/17/1 190/18/1 191/19/1 192/20/1
f 193/21/1 194/22/1 195/23/1 196/24/1
f 197/25/1 198/26/1 199/27/1 200/28/1
f 201/25/1 202/26/1 203/27/1 204/28/1
f 205/25/1 206/26/1 207/27/1 208/28/1
f 209/25/1 210/26/1 211/27/1 212/28/1
f 213/25/1 214/26/1 215/27/1 216/28/1
f 217/25/1 218/26/1 219/27/1 220/28/1
f 221/25/1 222/26/1 223/27/1 224/28/1
f 225/25/1 226/26/1 227/27/1 228/28/1
f 229/25/1 230/26/1 231/27/1 232/28/1
f 233/25/1 234/26/1 235/27/1 236/28/1
f 237/25/1 238/26/1 239/27/1 240/28/1
f 241/25/1 242/26/1 243/27/1 244/28/1
f 245/25/1 246/26/1 247/27/1 248/28/1
f 249/25/1 250/26/1 251/27/1 252/28/1
f 253/25/1 254/26/1 255/27/1 256/28/1
f 257/25/1 258/26/1 259/27/1 260/28/1
f 261/25/1 262/26/1 263/27/1 264/28/1
f 265/25/1 266/26/1 267/27/1 268/28/1
f 269/25/1 270/26/1 271/27/1 272/28/1
f 273/25/1 274/26/1 275/27/1 276/28/1
f 277/25/1 278/26/1 279/27/1 280/28/1
f 281/25/1 282/26/1 283/27/1 284/28/1
f 285/25/1 286/26/1 287/27/1 288/28/1
f 289/25/1 290/26/1 291/27/1 292/28/1
f 293/25/1 294/26/1 295/27/1 296/28/1
f 297/25/1 298/26/1 299/27/1 300/28/1
f 301/25/1 302/26/1 303/27/1 304/28/1
f 305/25/1 306/26/1 307/27/1 308/28/1
f 309/25/1 310/26/1 311/27/1 312/28/1
f 313/25/1 314/26/1 315/27/1 316/28/1
f 317/25/1 318/26/1 319/27/1 320/28/1
f 321/25/1 322/26/1 323/27/1 324/28/1
f 325/25/1 326/26/1 327/27/1 328/28/1
f 329/25/1 330/26/1 331/27/1 332/28/1
f 333/25/1 334/26/1 335/27/1 336/28/1
f 337/25/1 338/26/1 339/27/1 340/28/1
f 341/25/1 342/26/1 343/27/1 344/28/1
f 345/25/1 346/26/1 347/27/1 348/28/1
f 349/29/1 350/30/1 351/31/1 352/32/1

