# Tiled2Unity generated file. Do not modify by hand.
# Wavefront file for 'CS-Jail_mesh_0004.obj'

# Vertices (Count = 8)
v -92.8 -105.6 0
v -93.86667 -105.6 0
v -93.86667 -104.5333 0
v -92.8 -104.5333 0
v -121.6 -113.0667 0
v -122.6667 -113.0667 0
v -122.6667 -112 0
v -121.6 -112 0

# Texture cooridinates (Count = 4)
vt 0.2985537 0.7110266
vt 0.3150826 0.7110266
vt 0.3150826 0.7414448
vt 0.2985537 0.7414448

# Normal
vn 0 0 -1

# Mesh description
g CS-Jail_mesh_0004

# Faces
f 1/1/1 2/2/1 3/3/1 4/4/1
f 5/1/1 6/2/1 7/3/1 8/4/1

